<svg xmlns="http://www.w3.org/2000/svg" fill="none" viewBox="0 0 425.9 372"><g clip-path="url(#a)" transform="translate(-43 -64)"><path fill="url(#b)" d="M266.4 430a12 12 0 0 1-20.8 0L44.6 82a12 12 0 0 1 10.5-18h401.8c9.3 0 15 10 10.4 18l-201 348z"/><g style="mix-blend-mode:overlay"><mask id="d" width="354" height="336" x="73" y="139" maskUnits="userSpaceOnUse"><path fill="url(#c)" d="M274 161c-84.5-59-200.5 22.5-200.5 22.5l179 291.5 174-291.5S358.5 220 274 161z"/></mask><g mask="url(#d)"><path fill="#001aff" d="M266.4 430a12 12 0 0 1-20.8 0L44.6 82a12 12 0 0 1 10.5-18h401.8c9.3 0 15 10 10.4 18l-201 348z"/></g></g></g><defs><linearGradient id="b" x1="494" x2="41" y1="87" y2="309" gradientUnits="userSpaceOnUse"><stop stop-color="#7A85EC"/><stop offset="1" stop-color="#3DDCFF"/></linearGradient><linearGradient id="c" x1="250" x2="250" y1="139.6" y2="475" gradientUnits="userSpaceOnUse"><stop stop-color="#7696AD"/><stop offset="1" stop-color="#008FF6" stop-opacity="0"/></linearGradient><clipPath id="a"><path fill="#fff" d="M0 0h512v512H0Z"/></clipPath></defs></svg>
