<svg xmlns="http://www.w3.org/2000/svg" width="85.3" height="85.3" viewBox="0 0 64 64">
  <defs>
    <linearGradient id="a" x1="11.2" x2="50.5" y1="32" y2="32" gradientUnits="userSpaceOnUse">
      <stop offset="0" stop-color="#fb410a"/>
      <stop offset="1" stop-color="#fb2914"/>
    </linearGradient>
  </defs>
  <path d="M54.2 26.1q2.8-3.1 2.5-7-.4-4.4-5-7.8l-1.3-.8q-.5-2.3-1.8-3.8Q47 4.4 45 3.1 41.3 1 37.8.3q-1.9-.4-3.3-.2h-1.7q-4-.6-7.7 1.7-3.3 2-5.3 5.6a26 26 0 0 0-3 10h-1.7c-2 0-4.3 0-6 1.9-1.4 1.6-1.5 3.7-1.6 5.1l-.2 16c.1 3.1.5 6.3 2.8 8.5a9 9 0 0 0 6.4 2.1h.6l.5 4.2q.1 2.7 1.5 5a8 8 0 0 0 8.2 3.7c3.3-.6 6-3.2 6.7-6.4q.4-2.4 0-4.4v-1.7h2.4a9 9 0 0 0 2.8 8.5 8 8 0 0 0 6.2 2q3.3-.5 5.3-2.8c1.4-1.8 1.8-3.9 2.2-5.9q2.3-13.4 1.3-27"/>
  <path fill="url(#a)" d="m50.5 32.7-.1-3.7q-2.1 1-5 1.7-3 .6-5.2.6t-4.1-.5a13 13 0 0 1-8.6-8.2c-1-3-1-6.5.4-9.4 1.4-3.3 5-4.2 7-4.8q5-1.2 10-.1a9 9 0 0 0-2-1.9 22 22 0 0 0-6.1-2.3h-4.6c-3.8-.6-7.3 2.3-9 5.3l-.2.4a30 30 0 0 0-2.5 11.7q-1 16.6 1 33.2.2 2.1 1 3.5c.7 1.3 2.5 2 4 1.8a5 5 0 0 0 3.6-3.4q.2-1.4 0-3.2-.2-2.1.2-4.4a2 2 0 0 1 1.8-1.6h.2c1.6 0 9.5 0 13.4-.4 0 0-2 3.8-5.2 4.2-.7 2-.2 4.4 1.3 5.7q1.3 1 3.2 1 1.6-.3 2.6-1.3a9 9 0 0 0 1.3-4q1.8-10 1.6-20m-34.2-7 .2-4.4h-1.4q-2.4-.1-3 .7c-.5.5-.6 1.7-.6 2.5V26q-.3 7.1-.2 14.4c0 2.3.3 4.5 1.5 5.7q1.6 1.1 4 1-1-10.5-.5-21.4"/>
  <path fill="#a2d2e2" d="M52.7 20.4q-.3 2.2-2.3 3.9a14 14 0 0 1-6 2.5q-4.4 1-7.2.2a9 9 0 0 1-6-5.7 9 9 0 0 1 .3-6.5l.4-.7q.6-.9 4-1.8a17 17 0 0 1 13.4 2.2c2.8 2 3.4 4 3.4 5z"/>
  <path fill="#9f2a08" d="M16.8 47q-2.4.1-4-1c-1.2-1.2-1.5-3.4-1.5-5.7q-.1-7.3.2-14.4a9 9 0 0 1 4.8-.3q-.4 10.8.5 21.4m33.7-14.3c-1.1 4-4 7.7-8 9.4-5 2.2-11.6.8-15.1-3.5a21 21 0 0 1-3.9-9.9Q22 19.3 23 9.8a30 30 0 0 0-2.5 11.7q-1 16.6 1 33.2.2 2.1 1 3.5c.7 1.3 2.5 2 4 1.8a5 5 0 0 0 3.6-3.4q.2-1.5 0-3.2-.2-2.1.2-4.4a2 2 0 0 1 1.8-1.6h.2c1.6 0 9.5 0 13.4-.4 0 0-2 3.8-5.2 4.2-.7 2-.2 4.4 1.3 5.7q1.3 1 3.2 1 1.6-.3 2.6-1.3a9 9 0 0 0 1.3-4q1.8-10 1.6-20" opacity=".5"/>
  <path fill="#5b7881" d="M52.7 20.4q-.3 2.2-2.3 3.9a14 14 0 0 1-6 2.5q-4.4 1-7.2.2a9 9 0 0 1-6-5.7 9 9 0 0 1 .3-6.5l.4-.7c.6.8 1 2.9 1.3 3.5a9 9 0 0 0 3.2 3.1c2.6 1.6 6 2 9 1.6a35 35 0 0 0 7.3-2" opacity=".5"/>
  <path fill="#fff" d="M40.1 17q-.9-.4-1-1.2c0-.8.9-1.3 1.6-1.6q3.3-1 6.5.2 1 .4 1.2 1.3c.1.7-.6 1.3-1.3 1.3q-1 0-2-.3c-1.7-.2-3.3.9-5 .3"/>
</svg>
