<svg width="64" height="64" viewBox="0 0 64 64" fill="none" xmlns="http://www.w3.org/2000/svg">
<path d="M57.093 30.8797L33.093 6.87968C32.0931 5.88789 30.7414 5.33189 29.333 5.33301H10.6663C9.25186 5.33301 7.8953 5.89491 6.89511 6.89511C5.89491 7.8953 5.33301 9.25186 5.33301 10.6663V29.333C5.33245 30.0368 5.47119 30.7337 5.74121 31.3836C6.01124 32.0335 6.40723 32.6235 6.90634 33.1197L30.9063 57.1197C31.9063 58.1115 33.258 58.6675 34.6663 58.6663C36.0785 58.6604 37.4307 58.0946 38.4263 57.093L57.093 38.4263C58.0946 37.4307 58.6604 36.0785 58.6663 34.6663C58.6669 33.9626 58.5282 33.2657 58.2581 32.6158C57.9881 31.9659 57.5921 31.3758 57.093 30.8797ZM34.6663 53.333L10.6663 29.333V10.6663H29.333L53.333 34.6663M17.333 13.333C18.1241 13.333 18.8975 13.5676 19.5553 14.0071C20.2131 14.4467 20.7258 15.0714 21.0285 15.8023C21.3313 16.5332 21.4105 17.3374 21.2562 18.1134C21.1018 18.8893 20.7208 19.602 20.1614 20.1614C19.602 20.7208 18.8893 21.1018 18.1134 21.2562C17.3374 21.4105 16.5332 21.3313 15.8023 21.0285C15.0714 20.7258 14.4467 20.2131 14.0071 19.5553C13.5676 18.8975 13.333 18.1241 13.333 17.333C13.333 16.2721 13.7544 15.2547 14.5046 14.5046C15.2547 13.7544 16.2721 13.333 17.333 13.333Z" fill="black"/>
</svg>
