<svg xmlns="http://www.w3.org/2000/svg" viewBox="0 0 38.044 38.044">
  <path fill="#010002" d="M31.716 24.543c-.017 7.03-5.742 12.745-12.776 12.745-7.045 0-12.777-5.732-12.777-12.777 0-.022.004-.043.004-.065C2.477 22.203 0 18.156 0 13.532 0 6.486 5.731.755 12.777.755c2.268 0 4.395.601 6.244 1.642A12.7 12.7 0 0 1 25.266.755c7.046 0 12.777 5.732 12.777 12.777 0 4.691-2.548 8.789-6.327 11.011M19.021 5.082c-2.312 1.713-3.906 4.341-4.22 7.352 1.3-.448 2.689-.702 4.139-.702 1.514 0 2.96.278 4.307.764-.298-3.037-1.898-5.689-4.226-7.414M8.517 23.145a10.47 10.47 0 0 0 8.414.051 12.78 12.78 0 0 1-4.195-7.167 10.52 10.52 0 0 0-4.219 7.116m10.423-9.157c-1.457 0-2.846.298-4.109.837a10.5 10.5 0 0 0 4.19 7.157 10.5 10.5 0 0 0 4.18-7.085 10.4 10.4 0 0 0-4.261-.909m2.171 9.209c1.275.55 2.679.858 4.154.858 1.457 0 2.846-.298 4.11-.837a10.52 10.52 0 0 0-4.089-7.082 12.78 12.78 0 0 1-4.175 7.061M18.94 35.033c5.432 0 9.915-4.137 10.466-9.425-1.3.447-2.689.702-4.14.702a12.7 12.7 0 0 1-6.245-1.642 12.7 12.7 0 0 1-6.244 1.642 12.7 12.7 0 0 1-4.307-.763c.523 5.317 5.018 9.486 10.47 9.486M12.777 3.009c-5.803 0-10.523 4.72-10.523 10.523 0 3.418 1.645 6.451 4.177 8.375.744-3.581 2.999-6.607 6.059-8.408.011-3.847 1.735-7.293 4.442-9.631a10.4 10.4 0 0 0-4.155-.859m12.489 0c-1.475 0-2.879.307-4.154.858 2.715 2.345 4.444 5.804 4.444 9.664l-.004.065c3.007 1.829 5.209 4.852 5.918 8.416 2.613-1.917 4.319-4.999 4.319-8.48-.001-5.802-4.721-10.523-10.523-10.523"/>
</svg>
