<svg width="2143" height="1810" viewBox="0 0 2143 1810" fill="none" xmlns="http://www.w3.org/2000/svg">
    <mask id="mask0_498_1248" style="mask-type:luminance" maskUnits="userSpaceOnUse" x="0" y="0" width="2143"
        height="1810">
        <path d="M0.910156 0.709961L2142.76 0.718018V1809.98H0.910156V0.718018V0.709961Z" fill="white" />
    </mask>
    <g mask="url(#mask0_498_1248)">
        <path
            d="M1989.78 0.709961H1326.93C1279.85 0.709961 1250.74 24.395 1210.27 55.811L105.03 911.632C35.6602 960.683 0.910156 1017.24 0.910156 1078.29C0.910156 1162.77 69.4032 1231.29 153.927 1231.29V1809.96H993.058L1989.78 885.373V306.706C2074.21 306.706 2142.76 238.181 2142.76 153.658C2142.73 69.204 2074.21 0.709961 1989.78 0.709961H1989.78ZM934.29 1231.29V1751.19H212.664V1231.29C212.664 1198.85 186.343 1172.52 153.927 1172.52C101.944 1172.52 59.6782 1130.26 59.6782 1078.31C59.6782 1026.33 101.975 984.063 153.927 984.063H993.058C1044.98 984.063 1087.24 1026.35 1087.24 1078.31C1087.24 1130.29 1044.95 1172.52 993.058 1172.52C960.58 1172.52 934.29 1198.85 934.29 1231.29Z"
            fill="#374151" />
        <path
            d="M418.67 1123.99C418.67 1131.44 412.636 1137.51 405.184 1137.51C397.731 1137.51 391.705 1131.44 391.705 1123.99C391.705 1116.54 397.731 1110.51 405.184 1110.51C412.636 1110.51 418.67 1116.54 418.67 1123.99Z"
            fill="#374151" />
        <path
            d="M482.921 1399.75C482.921 1410.17 474.498 1418.59 464.075 1418.59C453.683 1418.59 445.23 1410.17 445.23 1399.75C445.23 1389.36 453.683 1380.91 464.075 1380.91C474.498 1380.91 482.921 1389.36 482.921 1399.75Z"
            fill="#374151" />
        <path
            d="M723.87 1236.44C723.87 1246.86 715.449 1255.28 705.026 1255.28C694.642 1255.28 686.188 1246.86 686.188 1236.44C686.188 1226.05 694.642 1217.6 705.026 1217.6C715.449 1217.6 723.87 1226.05 723.87 1236.44Z"
            fill="#374151" />
        <path
            d="M733.96 1635.38C733.96 1648.37 723.414 1658.92 710.393 1658.92C697.395 1658.92 686.825 1648.37 686.825 1635.38C686.825 1622.35 697.395 1611.81 710.393 1611.81C723.414 1611.81 733.96 1622.35 733.96 1635.38Z"
            fill="#374151" />
        <path
            d="M314.09 1623.29C314.09 1629.93 308.731 1635.29 302.093 1635.29C295.462 1635.29 290.096 1629.93 290.096 1623.29C290.096 1616.69 295.462 1611.32 302.093 1611.32C308.731 1611.32 314.09 1616.69 314.09 1623.29Z"
            fill="#374151" />
        <path
            d="M236.63 1091.88C236.63 1102.27 228.177 1110.72 217.785 1110.72C207.362 1110.72 198.916 1102.27 198.916 1091.88C198.916 1081.46 207.362 1073.03 217.785 1073.03C228.177 1073.03 236.63 1081.46 236.63 1091.88Z"
            fill="#374151" />
        <path
            d="M812.24 1043.69C812.24 1051.14 806.207 1057.16 798.754 1057.16C791.301 1057.16 785.244 1051.14 785.244 1043.69C785.244 1036.24 791.301 1030.2 798.754 1030.2C806.207 1030.2 812.24 1036.24 812.24 1043.69Z"
            fill="#374151" />
    </g>
</svg>