<svg xmlns:inkscape="http://www.inkscape.org/namespaces/inkscape" xmlns:sodipodi="http://sodipodi.sourceforge.net/DTD/sodipodi-0.dtd" xmlns="http://www.w3.org/2000/svg" xmlns:svg="http://www.w3.org/2000/svg" fill="none" viewBox="0 0 1476.0096 1695.5038" stroke-width="1.5" stroke="currentColor" version="1.1" id="svg164" sodipodi:docname="lang.svg" xml:space="preserve" width="1476.0095" height="1695.5039" inkscape:export-filename="lang3.svg" inkscape:export-xdpi="120.66708" inkscape:export-ydpi="120.66708" style="--arc-palette-subtitle:#797A82F9; --arc-palette-foregroundSecondary:#8489FBFF; --arc-palette-cutoutColor:#212AFBFF; --arc-palette-foregroundTertiary:#3139FBFF; --arc-palette-background:#0A0D4EF6; --arc-palette-maxContrastColor:#ECEDFEFF; --arc-background-gradient-color0:#01021EFF; --arc-background-gradient-color1:#17011EFF; --arc-palette-backgroundExtra:#050727F4; --arc-palette-foregroundPrimary:#ECEDFEFF; --arc-palette-focus:#4D54FBCE; --arc-palette-title:#DCDEFDF4; --arc-palette-minContrastColor:#212AFBFF; --arc-palette-hover:#5D64FB7A;"><defs id="defs168"/><sodipodi:namedview id="namedview166" pagecolor="#505050" bordercolor="#ffffff" borderopacity="1" inkscape:showpageshadow="0" inkscape:pageopacity="0" inkscape:pagecheckerboard="1" inkscape:deskcolor="#505050" showgrid="false"/><path stroke-linecap="round" stroke-linejoin="round" d="m 50,229.82741 c 136.56182,-16.99343 274.04654,-25.49457 411.66159,-25.45438 m 0,0 c 76.84352,0 153.20672,2.60723 228.74651,7.82156 M 461.66159,204.37303 V 50 M 690.4081,212.19459 C 610.95749,575.41725 371.78214,878.81177 50,1044.9859 M 690.4081,212.19459 c 61.47478,4.18526 122.46935,10.0857 182.915,17.63282 M 558.47063,812.67149 C 445.94753,698.27254 356.7656,563.06658 295.89912,414.59483" id="path162" sodipodi:nodetypes="cccccccccccc" style="stroke-width:100;stroke-dasharray:none"/><g style="fill:none" id="g332" transform="translate(418.60311,440.42742)"><path fill-rule="evenodd" clip-rule="evenodd" d="m 815.039,94.6439 c 9.719,12.0651 14.675,28.3461 24.587,60.9091 L 1056.17,866.902 C 976.107,825.368 889.072,795.413 797.281,779.252 L 656.29,302.798 c -2.307,-7.796 -9.468,-13.144 -17.597,-13.144 -8.151,0 -15.325,5.376 -17.613,13.199 L 481.795,779.011 C 389.579,795.1 302.146,825.109 221.741,866.793 L 439.347,155.388 h 0.001 c 9.943,-32.506 14.914,-48.759 24.634,-60.8027 8.58,-10.6322 19.741,-18.8895 32.418,-23.9851 14.36,-5.7718 31.356,-5.7718 65.349,-5.7718 h 155.425 c 34.038,0 51.056,0 65.429,5.7839 12.689,5.1061 23.856,13.38 32.436,24.0316 z" fill="#000000" id="path320"/></g><g style="fill:none" id="g1173" transform="translate(-3024.8519,1451.2217)"><path fill-rule="evenodd" clip-rule="evenodd" d="m 4285.5199,-111.00982 c -35.8264,30.635701 -107.336,51.528305 -189.7048,51.528305 -101.0975,0 -185.832,-31.473384 -208.317,-73.801885 -8.0384,24.2594 -9.8409,52.023426 -9.8409,69.759321 0,0 -5.2963,87.089754 55.2765,147.663982 0,-31.453316 25.4985,-56.950507 56.9505,-56.950507 53.9103,0 53.85,47.033446 53.8005,85.192244 0,1.14279 0,2.27888 0,3.40561 0,57.91799 35.3983,107.56752 85.7396,128.49492 -7.5191,-15.46504 -11.737,-32.83162 -11.737,-51.1844 0,-55.23901 32.4302,-75.80643 70.1206,-99.71122 29.9881,-19.019188 63.308,-40.149981 86.2709,-82.540031 11.9804,-22.117015 18.7836,-47.449611 18.7836,-74.370598 0,-16.555642 -2.572,-32.51045 -7.3398,-47.485741 z" fill="#ff5d01" id="path1148" style="stroke-width:0;stroke-dasharray:none"/></g></svg>