<svg width="256" height="256" viewBox="0 0 256 256" fill="none" xmlns="http://www.w3.org/2000/svg">
<rect width="256" height="256" rx="128" fill="url(#paint0_radial_20_28)"/>
<path d="M98.0056 101.911L98.0052 101.912C97.1913 102.727 96.7342 103.831 96.7342 104.983C96.7342 106.135 97.1913 107.24 98.0052 108.054L98.0054 108.055L106.472 116.522L98.0054 124.989L97.9992 124.995L97.9932 125.001C97.2255 125.825 96.8075 126.915 96.8274 128.041C96.8473 129.167 97.3034 130.241 98.0997 131.037C98.896 131.834 99.9702 132.29 101.096 132.31C102.222 132.329 103.312 131.912 104.136 131.144L104.142 131.138L104.148 131.132L115.687 119.593L115.687 119.593C116.501 118.778 116.958 117.673 116.958 116.522C116.958 115.37 116.501 114.265 115.687 113.45L115.687 113.45L104.148 101.912L104.148 101.911C103.333 101.098 102.229 100.64 101.077 100.64C99.9252 100.64 98.8205 101.098 98.0056 101.911ZM78.5 97.2909C78.5 93.3432 80.0682 89.5573 82.8596 86.7659C85.651 83.9744 89.437 82.4062 93.3846 82.4062H162.615C166.563 82.4062 170.349 83.9744 173.14 86.7659C175.932 89.5573 177.5 93.3432 177.5 97.2909V158.829C177.5 162.777 175.932 166.563 173.14 169.354C170.349 172.146 166.563 173.714 162.615 173.714H93.3846C89.437 173.714 85.651 172.146 82.8596 169.354C80.0682 166.563 78.5 162.777 78.5 158.829V97.2909ZM120.308 123.714C119.155 123.714 118.05 124.172 117.235 124.987C116.419 125.802 115.962 126.907 115.962 128.06C115.962 129.213 116.419 130.318 117.235 131.133C118.05 131.948 119.155 132.406 120.308 132.406H135.692C136.845 132.406 137.95 131.948 138.766 131.133C139.581 130.318 140.038 129.213 140.038 128.06C140.038 126.907 139.581 125.802 138.766 124.987C137.95 124.172 136.845 123.714 135.692 123.714H120.308Z" fill="url(#paint1_linear_20_28)" stroke="#FFA978"/>
<defs>
<radialGradient id="paint0_radial_20_28" cx="0" cy="0" r="1" gradientUnits="userSpaceOnUse" gradientTransform="translate(128 128) rotate(90) scale(128)">
<stop offset="0.845" stop-color="white"/>
<stop offset="1" stop-color="#E0DFDF"/>
</radialGradient>
<linearGradient id="paint1_linear_20_28" x1="128" y1="81.9062" x2="128" y2="174.214" gradientUnits="userSpaceOnUse">
<stop stop-color="#FF9458"/>
<stop offset="1" stop-color="#FF5D01"/>
</linearGradient>
</defs>
</svg>
