<?xml version="1.0" encoding="UTF-8" standalone="no"?>
<svg width="16.844999" height="16.844999" viewBox="0 0 16.844999 16.844999" version="1.1" xml:space="preserve"
    style="clip-rule:evenodd;fill-rule:evenodd;stroke-linejoin:round;stroke-miterlimit:2" id="svg20568"
    sodipodi:docname="emojis.svg" xmlns:inkscape="http://www.inkscape.org/namespaces/inkscape"
    xmlns:sodipodi="http://sodipodi.sourceforge.net/DTD/sodipodi-0.dtd" xmlns="http://www.w3.org/2000/svg"
    xmlns:svg="http://www.w3.org/2000/svg">
    <defs id="defs20572" />
    <sodipodi:namedview id="namedview20570" pagecolor="#505050" bordercolor="#eeeeee" borderopacity="1"
        inkscape:pageshadow="0" inkscape:pageopacity="0" inkscape:pagecheckerboard="0" />
    <g transform="matrix(0.24,0,0,0.24,-200.41332,-642.0258)" id="g20566">
        <g transform="matrix(62.5,0,0,62.5,827.243,2732.17)" id="g12114">
            <path
                d="m 0.125,-0.632 0.562,-0.281 0.561,0.281 v 0.184 H 1.213 v 0.07 h -0.07 v 0.343 h 0.035 v 0.07 h 0.07 V 0.21 H 0.125 V 0.035 h 0.07 v -0.07 H 0.23 V -0.378 H 0.16 v -0.07 H 0.125 Z"
                style="fill-rule:nonzero" id="path12102" />
            <rect x="0.33500001" y="-0.472" width="0.70200002" height="0.52399999"
                style="fill:#383838;fill-rule:nonzero" id="rect12104" />
            <path
                d="M 0.827,0.035 0.932,0.105 0.897,0.14 H 0.476 L 0.449,0.105 0.546,0.035 Z M 0.23,-0.448 v -0.035 h 0.035 l 0.273,-0.008 c 0.022,-0.001 0.045,-0.002 0.068,-0.003 0.022,-0.001 0.045,-0.002 0.068,-0.002 0.024,0 0.048,0.001 0.072,0.002 0.024,0.001 0.048,0.002 0.072,0.003 0.055,0.001 0.109,0.003 0.162,0.005 0.054,0.002 0.108,0.003 0.163,0.003 v 0.035 L 1.119,-0.449 c -0.013,0 -0.025,0.001 -0.038,0.002 -0.013,0.002 -0.025,0.003 -0.038,0.005 -0.012,0.001 -0.025,0.003 -0.038,0.004 -0.012,0.001 -0.025,0.002 -0.038,0.002 -0.011,0 -0.023,-0.001 -0.035,-0.002 L 0.862,-0.446 C 0.85,-0.448 0.838,-0.448 0.827,-0.448 H 0.546 c -0.012,0 -0.024,0 -0.035,0.002 l -0.07,0.008 C 0.429,-0.437 0.417,-0.436 0.406,-0.436 0.398,-0.436 0.39,-0.437 0.382,-0.438 0.375,-0.438 0.367,-0.439 0.359,-0.44 0.338,-0.442 0.318,-0.444 0.298,-0.446 0.278,-0.447 0.258,-0.448 0.237,-0.448 Z m 0.632,0.46 v -0.443 h 0.07 v 0.443 z m 0.14,0 v -0.443 h 0.071 v 0.443 z m -0.702,0 v -0.433 h 0.071 v 0.433 z m 0.141,0 v -0.433 h 0.07 v 0.433 z"
                style="fill:#f2f2f2;fill-rule:nonzero" id="path12106" />
            <path
                d="m 0.195,-0.588 0.492,-0.246 0.491,0.246 v 0.07 L 1.131,-0.519 H 1.119 L 0.827,-0.506 C 0.803,-0.505 0.78,-0.504 0.757,-0.503 0.733,-0.501 0.71,-0.5 0.687,-0.5 0.663,-0.5 0.64,-0.501 0.616,-0.503 0.593,-0.504 0.569,-0.505 0.546,-0.506 0.487,-0.509 0.429,-0.512 0.371,-0.514 0.313,-0.517 0.254,-0.518 0.195,-0.518 Z M 0.265,0 H 0.546 V 0.035 L 0.453,0.047 C 0.445,0.048 0.437,0.049 0.429,0.051 0.421,0.052 0.414,0.053 0.406,0.053 0.398,0.053 0.39,0.052 0.382,0.051 0.375,0.049 0.367,0.048 0.359,0.047 L 0.265,0.035 Z m 0.562,0 h 0.28 V 0.035 L 1.014,0.047 C 1.006,0.048 0.999,0.049 0.991,0.051 0.983,0.052 0.975,0.053 0.967,0.053 0.959,0.053 0.952,0.052 0.944,0.051 0.936,0.049 0.928,0.048 0.92,0.047 L 0.827,0.035 Z M 0.265,-0.448 h 0.281 v 0.035 H 0.265 Z m 0.562,0 h 0.28 v 0.035 h -0.28 z"
                style="fill:#e5e5e5;fill-rule:nonzero" id="path12108" />
            <path
                d="m 0.511,0.105 c -0.012,0 -0.025,0 -0.037,0.001 C 0.462,0.107 0.45,0.108 0.437,0.109 0.423,0.111 0.409,0.112 0.395,0.113 c -0.014,0 -0.029,0 -0.043,0 -0.02,0 -0.041,0 -0.061,-0.002 C 0.271,0.11 0.251,0.108 0.23,0.105 V 0.07 H 0.265 V 0.035 H 0.546 V 0.07 H 0.511 Z M 1.107,0.07 H 1.143 V 0.105 C 1.122,0.108 1.102,0.11 1.082,0.111 1.062,0.113 1.042,0.113 1.021,0.113 c -0.014,0 -0.028,0 -0.042,0 C 0.965,0.112 0.95,0.111 0.936,0.109 0.923,0.108 0.911,0.107 0.899,0.106 0.887,0.105 0.875,0.105 0.862,0.105 V 0.07 H 0.827 V 0.035 h 0.28 z"
                style="fill:#cccccc;fill-rule:nonzero" id="path12110" />
            <path
                d="m 0.335,-0.588 0.352,-0.176 0.351,0.176 z m -0.07,0.105 v -0.035 h 0.842 v 0.035 z M 0.195,0.105 H 0.476 V 0.14 H 0.195 Z m 0.702,0 H 1.178 V 0.14 H 0.897 Z"
                style="fill:#a6a6a6;fill-rule:nonzero" id="path12112" />
        </g>
    </g>
</svg>