<svg width="512" height="512" fill="none" xmlns="http://www.w3.org/2000/svg"><path d="M512 256c0 141.385-114.615 256-256 256S0 397.385 0 256 114.615 0 256 0s256 114.615 256 256z" fill="#325476"/><path d="M78.94 397.753a2.94 2.94 0 0 1-2.94-2.942v-53.417a2.944 2.944 0 0 1 2.94-2.94h80.3c.157-.161.34-.351.521-.545 4.607-4.785 18.612-19.358 16.048-36.355-1.905-12.606-12.468-24.304-31.4-34.768-23.1-12.773-40.31-15.478-49.796-7.796-9.231 7.476-9.625 23.843-6.98 32.554 2.231 7.345 5.857 11.812 10.784 13.287 11.686 3.522 27.733-9.664 27.886-9.797a2.931 2.931 0 0 1 4.14.375 2.937 2.937 0 0 1-.371 4.134c-.752.626-18.571 15.292-33.33 10.923-6.94-2.078-11.895-7.867-14.738-17.217-3.198-10.553-2.556-29.567 8.909-38.837 11.642-9.429 30.607-7.002 56.34 7.231 20.61 11.392 32.179 24.531 34.372 39.038 2.998 19.858-12.527 35.999-17.623 41.3-.554.581-.977 1.015-1.212 1.297a2.948 2.948 0 0 1-2.26 1.056H81.88v50.477a2.936 2.936 0 0 1-2.94 2.942z" fill="#F9FAFB"/><path d="M175.231 361.24v-19.846H78.94v53.417h353.558V361.24H175.231z" fill="#F9FAFB"/><path d="M435.438 397.753H76v-59.299h102.171V358.3h257.267v39.453zM81.88 391.871h347.676V364.18H172.291v-19.846H81.88v47.537z" fill="#F9FAFB"/><path d="m262.703 262.745 10.29-19.591 19.846 19.591-21.316 8.085-92.456 84.53v-13.966l83.636-78.649z" fill="#F9FAFB"/><path d="M176.127 362.034v-21.909l84.207-79.183 11.902-22.669 25.927 25.603-25.078 9.505-96.958 88.653zm5.88-19.365v6.019l88.477-80.608 17.037-6.464-13.77-13.59-9.028 16.854-82.716 77.789zm95.396-109.326 25.728 26.462 16.904-13.231-27.196-30.138-15.436 16.907z" fill="#F9FAFB"/><path d="m302.859 263.756-29.5-30.346 19.485-21.345 31.487 34.89-21.472 16.801zm-21.412-30.477 21.959 22.58 12.335-9.659-22.905-25.387-11.389 12.466zm17.274-24.193 29.401 34.068 46.307-45.094 52.187-41.897 5.882-12.495-23.521-25.728H395.01l-49.984 52.189-46.305 38.957z" fill="#F9FAFB"/><path d="m327.937 247.435-33.388-38.682 48.583-40.876L393.752 115h16.522L436 143.139l-7.006 14.891-52.717 42.319-48.34 47.086zm-25.048-38.018 25.416 29.451 44.073-42.917 51.861-41.658 4.76-10.102-21.321-23.318h-11.406l-49.12 51.286-44.263 37.258z" fill="#F9FAFB"/></svg>