<svg viewBox="0 0 128 58.2" xmlns="http://www.w3.org/2000/svg">
  <path
		d="m87.4 57.3 0.649-2.28c0.787-2.7 0.494-5.21-0.818-7.04-1.2-1.69-3.21-2.68-5.65-2.81l-46.2-0.59c-0.309-0.0156-0.571-0.155-0.726-0.388-0.154-0.233-0.201-0.543-0.0925-0.838 0.154-0.45 0.602-0.807 1.07-0.822l46.6-0.59c5.53-0.248 11.5-4.76 13.6-10.3l2.66-6.98c0.0772-0.186 0.108-0.388 0.108-0.59 0-0.109-0.0154-0.217-0.0309-0.326-3-13.6-15.1-23.8-29.6-23.8-13.3 0-24.7 8.66-28.7 20.7-2.62-1.97-5.98-3.03-9.59-2.67-6.41 0.636-11.5 5.82-12.2 12.3-0.17 1.68-0.0309 3.27 0.355 4.79-10.5 0.31-18.8 8.92-18.8 19.5 0 0.962 0.0772 1.89 0.201 2.82 0.0618 0.45 0.448 0.776 0.896 0.776l85.2 0.0156h0.031c0.479-0.0156 0.911-0.341 1.05-0.822z"
		fill="#f6821f"
		stroke-width="1.72"
	/>
  <path
		d="m103 25.3c-0.432 0-0.849 0.0156-1.28 0.031-0.0772 0-0.139 0.0154-0.201 0.0465-0.216 0.0776-0.401 0.264-0.463 0.497l-1.82 6.3c-0.788 2.7-0.494 5.21 0.818 7.04 1.2 1.69 3.21 2.68 5.65 2.81l9.84 0.59c0.293 0.0154 0.54 0.155 0.695 0.388 0.17 0.233 0.201 0.543 0.108 0.838-0.154 0.45-0.602 0.807-1.07 0.822l-10.2 0.59c-5.54 0.264-11.5 4.76-13.6 10.3l-0.741 1.94c-0.139 0.357 0.124 0.729 0.479 0.745h0.031 35.2c0.417 0 0.787-0.279 0.911-0.683 0.618-2.19 0.942-4.48 0.942-6.87 0-14-11.3-25.3-25.2-25.3z"
		fill="#fbad41"
		stroke-width="1.72"
	/>
</svg>
