<svg width="180" height="225" viewBox="0 0 180 225" fill="none" xmlns="http://www.w3.org/2000/svg">
    <path fill-rule="evenodd" clip-rule="evenodd"
        d="M97.3747 0.325033C99.8672 1.20031 101.441 3.66257 101.19 6.29225L93.2424 89.3657L172.321 75.7201C174.575 75.3311 176.845 76.3166 178.1 78.229C179.356 80.1414 179.356 82.6162 178.103 84.5295L88.3761 221.465C86.9282 223.675 84.1601 224.612 81.6677 223.737C79.1752 222.862 77.601 220.4 77.8525 217.77L85.8 134.696L6.72147 148.342C4.46729 148.731 2.19716 147.746 0.942009 145.833C-0.31314 143.921 -0.314073 141.446 0.939632 139.533L90.6663 2.59672C92.1141 0.387128 94.8822 -0.550242 97.3747 0.325033ZM17.7949 134.772L91.2579 122.096C93.0223 121.791 94.8277 122.327 96.1406 123.544C97.4535 124.761 98.1238 126.521 97.9533 128.304L91.5027 195.731L161.247 89.29L87.7845 101.967C86.0201 102.271 84.2147 101.735 82.9018 100.518C81.5889 99.3007 80.9186 97.5408 81.0891 95.7585L87.5397 28.3316L17.7949 134.772Z"
        fill="url(#paint0_linear_117_2)" />
    <defs>
        <linearGradient id="paint0_linear_117_2" x1="54.5438" y1="-5.10902" x2="607.75" y2="845.978"
            gradientUnits="userSpaceOnUse">
            <stop stop-color="#1F2937" />
            <stop offset="0.0001" stop-color="#0369A1" />
            <stop offset="1" stop-color="#0EA5E9" stop-opacity="0" />
        </linearGradient>
    </defs>
</svg>