<?xml version="1.0" encoding="UTF-8" standalone="no"?>
<svg
   viewBox="0 0 200.00041 170"
   version="1.1"
   id="svg1"
   sodipodi:docname="logo(1).svg"
   inkscape:version="1.4.3 (0d15f75042, 2025-12-25)"
   width="200.00041"
   height="170"
   xmlns:inkscape="http://www.inkscape.org/namespaces/inkscape"
   xmlns:sodipodi="http://sodipodi.sourceforge.net/DTD/sodipodi-0.dtd"
   xmlns="http://www.w3.org/2000/svg"
   xmlns:svg="http://www.w3.org/2000/svg">
  <defs
     id="defs1" />
  <sodipodi:namedview
     id="namedview1"
     pagecolor="#ffffff"
     bordercolor="#000000"
     borderopacity="0.25"
     inkscape:showpageshadow="2"
     inkscape:pageopacity="0.0"
     inkscape:pagecheckerboard="0"
     inkscape:deskcolor="#d1d1d1"
     showgrid="false"
     inkscape:zoom="2.7794118"
     inkscape:cx="25.904762"
     inkscape:cy="107.03704"
     inkscape:window-width="2194"
     inkscape:window-height="1162"
     inkscape:window-x="0"
     inkscape:window-y="0"
     inkscape:window-maximized="1"
     inkscape:current-layer="svg1" />
  <g
     id="g2"
     transform="matrix(0.9346496,0,0,0.93462761,6.5352452,7.374796)">
    <path
       id="path2"
       style="opacity:1;fill:#000000;fill-opacity:1;stroke:none"
       d="M -6.9921875,174 H 206.99219 C 171.32994,113.36873 100,-7.890625 100,-7.890625 Z"
       sodipodi:nodetypes="cccc" />
    <path
       fill="#ffffff"
       d="M 55.37,131.5 H 48.4 v 9.13 h 6.97 c 1.67,0 2.92,-0.4 3.78,-1.22 0.85,-0.8 1.28,-1.92 1.28,-3.33 0,-1.41 -0.43,-2.54 -1.28,-3.35 -0.86,-0.8 -2.12,-1.2 -3.78,-1.2 m 29.52,6.4 c 0.3,-0.53 0.47,-1.2 0.47,-2.04 0,-1.35 -0.45,-2.4 -1.37,-3.2 -0.92,-0.76 -2.14,-1.15 -3.65,-1.15 H 72.9 v 8.52 h 7.32 c 2.26,0 3.82,-0.7 4.67,-2.1 M 100,0 0,170 H 200 L 100,0 M 60.86,141.03 c -1.3,1.22 -3.1,1.84 -5.33,1.84 H 48.4 v 7.55 H 46 v -21.2 h 9.53 c 2.24,0 4.02,0.63 5.34,1.87 1.3,1.23 1.96,2.88 1.96,4.95 0,2.1 -0.66,3.75 -1.97,4.98 m 24.5,9.4 -5.1,-8.14 h -7.37 v 8.12 h -2.4 v -21.2 h 10.14 c 2.15,0 3.88,0.6 5.18,1.8 1.3,1.18 1.95,2.8 1.95,4.84 0,2.64 -1.1,4.44 -3.3,5.4 -0.6,0.28 -1.22,0.5 -1.82,0.6 l 5.57,8.56 h -2.85 m 13.43,0 h -2.4 v -21.2 h 2.4 v 21.2 m 23.56,-1.32 c -1.48,1.05 -3.53,1.57 -6.16,1.57 -2.96,0 -5.23,-0.6 -6.78,-1.85 -1.4,-1.1 -2.18,-2.7 -2.37,-4.74 h 2.5 c 0.08,1.45 0.78,2.56 2.1,3.33 1.16,0.67 2.68,1 4.58,1 3.97,0 5.95,-1.25 5.95,-3.74 0,-0.86 -0.35,-1.53 -1.07,-2.02 -0.7,-0.5 -1.6,-0.9 -2.68,-1.2 -1.07,-0.33 -2.24,-0.63 -3.48,-0.9 -1.24,-0.27 -2.4,-0.65 -3.5,-1.08 -1.1,-0.43 -1.97,-1.02 -2.68,-1.73 -0.7,-0.72 -1.07,-1.68 -1.07,-2.9 0,-1.73 0.65,-3.13 1.97,-4.22 1.32,-1.08 3.32,-1.62 6,-1.62 2.67,0 4.75,0.6 6.23,1.85 1.34,1.1 2.05,2.5 2.14,4.2 h -2.46 c -0.22,-1.76 -1.35,-2.92 -3.4,-3.5 -0.72,-0.2 -1.62,-0.3 -2.7,-0.3 -1.08,0 -1.98,0.1 -2.72,0.35 -0.74,0.25 -1.3,0.55 -1.7,0.9 -0.42,0.35 -0.7,0.74 -0.83,1.17 -0.13,0.43 -0.2,0.88 -0.2,1.36 0,0.5 0.2,0.93 0.62,1.33 0.42,0.4 0.96,0.75 1.65,1.03 0.68,0.28 1.46,0.52 2.33,0.73 0.88,0.2 1.77,0.43 2.67,0.65 0.9,0.22 1.8,0.48 2.68,0.77 0.87,0.3 1.65,0.65 2.33,1.1 1.53,0.96 2.28,2.27 2.28,3.94 0,2 -0.74,3.5 -2.22,4.55 m 28.84,1.32 v -17.54 l -7.84,10.08 -7.97,-10.08 v 17.54 H 133 v -21.2 h 2.78 l 7.58,10.06 7.45,-10.05 h 2.8 v 21.2 h -2.4"
       id="path1"
       style="stroke:none" />
  </g>
</svg>
