<svg width="256" height="292" viewBox="0 0 256 292" fill="none" xmlns="http://www.w3.org/2000/svg">
<g clip-path="url(#clip0_7_102)">
<mask id="mask0_7_102" style="mask-type:luminance" maskUnits="userSpaceOnUse" x="0" y="0" width="256" height="292">
<path d="M256 0H0V292H256V0Z" fill="white"/>
</mask>
<g mask="url(#mask0_7_102)">
<path d="M5.51001 75.73L128.01 6.52002L252.21 76.29V213.89L128.01 285.06L5.51001 214.63V75.73Z" fill="url(#paint0_linear_7_102)"/>
<path d="M5.51001 75.73L128 6.52002L252.21 76.29L128 150L5.51001 75.73Z" fill="url(#paint1_linear_7_102)"/>
<path d="M5.51001 75.73L128 150L5.51001 214.63V75.73Z" fill="url(#paint2_linear_7_102)"/>
<path d="M252.21 76.29L128 150L252.21 213.89V76.29Z" fill="url(#paint3_linear_7_102)"/>
<path d="M5.51001 214.63L128 285.03L252.21 213.89L128 150L5.51001 214.63Z" fill="url(#paint4_linear_7_102)"/>
<path d="M128 28V109H195L128 148L87 125L128 28Z" fill="url(#paint5_linear_7_102)"/>
<path d="M128 148L61 185H128V148Z" fill="url(#paint6_linear_7_102)"/>
<path d="M87 125L61 185L128 148L87 125Z" fill="url(#paint7_linear_7_102)"/>
<path d="M195 109L168 170L128 148L195 109Z" fill="url(#paint8_linear_7_102)"/>
<path d="M168 170L128 262V148L168 170Z" fill="url(#paint9_linear_7_102)"/>
</g>
</g>
<defs>
<linearGradient id="paint0_linear_7_102" x1="128.9" y1="6.52102" x2="128.9" y2="285.1" gradientUnits="userSpaceOnUse">
<stop stop-color="#79D3FF"/>
<stop offset="0.4844" stop-color="#4954FE"/>
<stop offset="0.7917" stop-color="#9E29FE"/>
<stop offset="1" stop-color="#FEA59D"/>
</linearGradient>
<linearGradient id="paint1_linear_7_102" x1="128.9" y1="6.52102" x2="128.9" y2="151.3" gradientUnits="userSpaceOnUse">
<stop stop-color="#79D3FF"/>
<stop offset="0.5104" stop-color="#5280FE"/>
<stop offset="1" stop-color="#97A6FE"/>
</linearGradient>
<linearGradient id="paint2_linear_7_102" x1="66.75" y1="75.73" x2="66.75" y2="214.6" gradientUnits="userSpaceOnUse">
<stop stop-color="#4954FE"/>
<stop offset="0.5208" stop-color="#7247FE"/>
<stop offset="1" stop-color="#E87DFF"/>
</linearGradient>
<linearGradient id="paint3_linear_7_102" x1="190.1" y1="76.29" x2="190.1" y2="213.9" gradientUnits="userSpaceOnUse">
<stop stop-color="#4954FE"/>
<stop offset="0.5208" stop-color="#5434FE"/>
<stop offset="1" stop-color="#E87DFF"/>
</linearGradient>
<linearGradient id="paint4_linear_7_102" x1="128.9" y1="145.1" x2="129" y2="285" gradientUnits="userSpaceOnUse">
<stop offset="0.375" stop-color="#8E16FE"/>
<stop offset="0.649038" stop-color="#E856FF"/>
<stop offset="1" stop-color="#FEA59D"/>
</linearGradient>
<linearGradient id="paint5_linear_7_102" x1="128" y1="28" x2="128" y2="148" gradientUnits="userSpaceOnUse">
<stop stop-color="#D1F1FF"/>
<stop offset="0.6615" stop-color="#F6C5FF"/>
<stop offset="1" stop-color="#FFDEFD"/>
</linearGradient>
<linearGradient id="paint6_linear_7_102" x1="90.6212" y1="153.985" x2="90.3788" y2="185.515" gradientUnits="userSpaceOnUse">
<stop offset="0.245192" stop-color="#BD6EFB"/>
<stop offset="1" stop-color="#F682FE"/>
</linearGradient>
<linearGradient id="paint7_linear_7_102" x1="124.5" y1="133" x2="125.5" y2="182.5" gradientUnits="userSpaceOnUse">
<stop stop-color="#AD91F2"/>
<stop offset="0.298077" stop-color="#EA8FFF"/>
<stop offset="1" stop-color="#FCA2FF"/>
</linearGradient>
<linearGradient id="paint8_linear_7_102" x1="167.986" y1="109" x2="180" y2="153" gradientUnits="userSpaceOnUse">
<stop offset="0.442308" stop-color="#B361FF"/>
<stop offset="1" stop-color="#FB73FF"/>
</linearGradient>
<linearGradient id="paint9_linear_7_102" x1="148" y1="148" x2="148" y2="262" gradientUnits="userSpaceOnUse">
<stop offset="0.0967971" stop-color="#BD6EFB"/>
<stop offset="0.341346" stop-color="#FB73FF"/>
<stop offset="1" stop-color="#FBE3FF"/>
</linearGradient>
<clipPath id="clip0_7_102">
<rect width="256" height="292" fill="white"/>
</clipPath>
</defs>
</svg>
