<svg width="96" height="96" viewBox="0 0 96 96" fill="none" xmlns="http://www.w3.org/2000/svg">
<path d="M23.423 17.1626C23.423 28.1611 30.3363 34.7052 44.1768 38.156L58.843 41.4968C71.9418 44.4527 79.9186 51.7942 79.9186 63.7551C80.0205 68.9659 78.2962 74.0527 75.0346 78.1631C75.0346 66.2297 68.7511 59.7819 53.5951 55.9049L39.1948 52.6878C27.6634 50.1032 18.7629 44.0677 18.7629 31.0757C18.7022 26.0586 20.3416 21.1641 23.423 17.1626Z" fill="#F03E2F"/>
<path d="M66.022 60.8268C72.2775 64.7588 75.0205 70.2581 75.0205 78.1495C69.8425 84.6658 60.7461 88.3228 50.0544 88.3228C32.0575 88.3228 19.4625 79.6205 16.6636 64.4976H33.9467C36.1719 71.4404 42.0635 74.6575 49.9284 74.6575C59.5286 74.6575 65.9101 69.6256 66.036 60.7993" fill="#F68B82"/>
<path d="M32.4071 33.468C29.5506 31.8002 27.207 29.4038 25.6252 26.533C24.0434 23.6622 23.2822 20.4242 23.4227 17.1627C28.4187 10.7011 37.1092 6.75537 47.703 6.75537C66.0358 6.75537 76.6436 16.2691 79.2605 29.6598H62.6351C60.8018 24.3805 56.2117 20.2698 47.843 20.2698C38.9005 20.2698 32.7989 25.3841 32.4491 33.468" fill="#F68B82"/>
</svg>
