<svg xmlns="http://www.w3.org/2000/svg" preserveAspectRatio="xMidYMid meet" viewBox="0 0 256 239">
    <defs>
        <linearGradient id="footer-icon-name-0" x1="-5.859%" x2="91.406%" y1="38.27%" y2="60.924%">
            <stop offset="10%" stop-color="#76B3E1"></stop>
            <stop offset="30%" stop-color="#DCF2FD"></stop>
            <stop offset="100%" stop-color="#76B3E1"></stop>
        </linearGradient>
        <linearGradient id="footer-icon-name-1" x1="56.996%" x2="37.941%" y1="38.44%" y2="68.375%">
            <stop offset="0%" stop-color="#76B3E1"></stop>
            <stop offset="50%" stop-color="#4377BB"></stop>
            <stop offset="100%" stop-color="#1F3B77"></stop>
        </linearGradient>
        <linearGradient id="footer-icon-name-2" x1="10.709%" x2="104.337%" y1="34.532%" y2="70.454%">
            <stop offset="0%" stop-color="#315AA9"></stop>
            <stop offset="50%" stop-color="#518AC8"></stop>
            <stop offset="100%" stop-color="#315AA9"></stop>
        </linearGradient>
        <linearGradient id="footer-icon-name-3" x1="61.993%" x2="17.762%" y1="29.58%" y2="105.119%">
            <stop offset="0%" stop-color="#4377BB"></stop>
            <stop offset="50%" stop-color="#1A336B"></stop>
            <stop offset="100%" stop-color="#1A336B"></stop>
        </linearGradient>
    </defs>
    <path fill="#76B3E1"
        d="M256 50.473S170.667-12.32 104.654 2.17l-4.83 1.61c-9.66 3.22-17.71 8.05-22.541 14.49l-3.22 4.83l-24.151 41.862l41.862 8.05c17.71 11.271 40.251 16.101 61.182 11.271l74.063 14.49L256 50.474Z">
    </path>
    <path fill="url(#footer-icon-name-0)"
        d="M256 50.473S170.667-12.32 104.654 2.17l-4.83 1.61c-9.66 3.22-17.71 8.05-22.541 14.49l-3.22 4.83l-24.151 41.862l41.862 8.05c17.71 11.271 40.251 16.101 61.182 11.271l74.063 14.49L256 50.474Z"
        opacity=".3"></path>
    <path fill="#518AC8"
        d="m77.283 50.473l-6.44 1.61c-27.371 8.05-35.422 33.811-20.931 56.352c16.1 20.931 49.912 32.201 77.283 24.151l99.824-33.811S141.686 35.982 77.283 50.473Z">
    </path>
    <path fill="url(#footer-icon-name-1)"
        d="m77.283 50.473l-6.44 1.61c-27.371 8.05-35.422 33.811-20.931 56.352c16.1 20.931 49.912 32.201 77.283 24.151l99.824-33.811S141.686 35.982 77.283 50.473Z"
        opacity=".3"></path>
    <path fill="url(#footer-icon-name-2)"
        d="M209.308 122.926c-18.44-23.037-49.007-32.59-77.283-24.151l-99.824 32.201L0 187.328l180.327 30.591l32.201-57.962c6.44-11.27 4.83-24.15-3.22-37.031Z">
    </path>
    <path fill="url(#footer-icon-name-3)"
        d="M177.107 179.278c-18.44-23.037-49.008-32.59-77.283-24.151L0 187.328s85.333 64.403 151.346 48.302l4.83-1.61c27.371-8.05 37.032-33.811 20.93-54.742Z">
    </path>
</svg>