<svg width="25" height="25" viewBox="0 0 25 25" fill="none" xmlns="http://www.w3.org/2000/svg">
    <path fill-rule="evenodd" clip-rule="evenodd"
        d="M15.2195 6.82882L12.0635 0L8.90756 6.82882C8.86148 6.92854 8.8117 7.02613 8.75839 7.12141L7.00032 5.36334C6.53763 4.90065 5.78746 4.90065 5.32478 5.36334C4.86209 5.82602 4.86209 6.57619 5.32478 7.03888L7.07168 8.78578C7.00835 8.82011 6.94404 8.85289 6.87878 8.88408L6.82882 8.90756L0 12.0635L6.82882 15.2195C6.90948 15.2568 6.98875 15.2964 7.06652 15.3385L7.07299 15.342L5.32358 17.0914C4.86089 17.5541 4.86089 18.3042 5.32358 18.7669C5.78626 19.2296 6.53643 19.2296 6.99912 18.7669L8.75912 17.0069C8.81215 17.1018 8.86168 17.1989 8.90756 17.2982L12.0635 24.127L15.2195 17.2982C15.2576 17.2158 15.2982 17.1348 15.3413 17.0554L17.0536 18.7677C17.5163 19.2304 18.2664 19.2304 18.7291 18.7677C19.1918 18.305 19.1918 17.5548 18.7291 17.0921L17.0056 15.3686C17.1009 15.3153 17.1985 15.2656 17.2982 15.2195L24.127 12.0635L17.2982 8.90756C17.1989 8.86168 17.1018 8.81215 17.0069 8.75912L18.7279 7.03812C19.1906 6.57543 19.1906 5.82526 18.7279 5.36257C18.2652 4.89989 17.5151 4.89989 17.0524 5.36257L15.342 7.07299C15.3038 7.00272 15.2676 6.93124 15.2334 6.8586L15.2195 6.82882ZM12.052 7.18885L11.6337 8.09396C10.9092 9.66177 9.65035 10.9206 8.08255 11.6451L7.17744 12.0634L8.08255 12.4817C9.65035 13.2063 10.9092 14.4651 11.6337 16.0329L12.052 16.938L12.4703 16.0329C13.1949 14.4651 14.4537 13.2063 16.0215 12.4817L16.9266 12.0634L16.0215 11.6451C14.4537 10.9206 13.1949 9.66177 12.4703 8.09396L12.052 7.18885Z"
        fill="white" />
    <path fill-rule="evenodd" clip-rule="evenodd"
        d="M15.2195 6.82882L12.0635 0L8.90756 6.82882C8.86148 6.92854 8.8117 7.02613 8.75839 7.12141L7.00032 5.36334C6.53763 4.90065 5.78746 4.90065 5.32478 5.36334C4.86209 5.82602 4.86209 6.57619 5.32478 7.03888L7.07168 8.78578C7.00835 8.82011 6.94404 8.85289 6.87878 8.88408L6.82882 8.90756L0 12.0635L6.82882 15.2195C6.90948 15.2568 6.98875 15.2964 7.06652 15.3385L7.07299 15.342L5.32358 17.0914C4.86089 17.5541 4.86089 18.3042 5.32358 18.7669C5.78626 19.2296 6.53643 19.2296 6.99912 18.7669L8.75912 17.0069C8.81215 17.1018 8.86168 17.1989 8.90756 17.2982L12.0635 24.127L15.2195 17.2982C15.2576 17.2158 15.2982 17.1348 15.3413 17.0554L17.0536 18.7677C17.5163 19.2304 18.2664 19.2304 18.7291 18.7677C19.1918 18.305 19.1918 17.5548 18.7291 17.0921L17.0056 15.3686C17.1009 15.3153 17.1985 15.2656 17.2982 15.2195L24.127 12.0635L17.2982 8.90756C17.1989 8.86168 17.1018 8.81215 17.0069 8.75912L18.7279 7.03812C19.1906 6.57543 19.1906 5.82526 18.7279 5.36257C18.2652 4.89989 17.5151 4.89989 17.0524 5.36257L15.342 7.07299C15.3038 7.00272 15.2676 6.93124 15.2334 6.8586L15.2195 6.82882ZM12.052 7.18885L11.6337 8.09396C10.9092 9.66177 9.65035 10.9206 8.08255 11.6451L7.17744 12.0634L8.08255 12.4817C9.65035 13.2063 10.9092 14.4651 11.6337 16.0329L12.052 16.938L12.4703 16.0329C13.1949 14.4651 14.4537 13.2063 16.0215 12.4817L16.9266 12.0634L16.0215 11.6451C14.4537 10.9206 13.1949 9.66177 12.4703 8.09396L12.052 7.18885Z"
        fill="url(#paint0_linear_877_16830)" />
    <path
        d="M22.2732 3.49176C22.7359 3.02907 22.7359 2.27891 22.2732 1.81622C21.8105 1.35353 21.0603 1.35353 20.5976 1.81622L20.0346 2.37921C19.572 2.84189 19.572 3.59206 20.0346 4.05475C20.4973 4.51744 21.2475 4.51744 21.7102 4.05475L22.2732 3.49176Z"
        fill="white" />
    <path
        d="M22.2732 3.49176C22.7359 3.02907 22.7359 2.27891 22.2732 1.81622C21.8105 1.35353 21.0603 1.35353 20.5976 1.81622L20.0346 2.37921C19.572 2.84189 19.572 3.59206 20.0346 4.05475C20.4973 4.51744 21.2475 4.51744 21.7102 4.05475L22.2732 3.49176Z"
        fill="url(#paint1_linear_877_16830)" />
    <path
        d="M4.2056 4.24416C3.74291 4.70685 2.99275 4.70685 2.53006 4.24416L1.96725 3.68136C1.50457 3.21867 1.50457 2.4685 1.96725 2.00581C2.42994 1.54313 3.18011 1.54313 3.6428 2.00581L4.2056 2.56862C4.66829 3.03131 4.66829 3.78147 4.2056 4.24416Z"
        fill="white" />
    <path
        d="M4.2056 4.24416C3.74291 4.70685 2.99275 4.70685 2.53006 4.24416L1.96725 3.68136C1.50457 3.21867 1.50457 2.4685 1.96725 2.00581C2.42994 1.54313 3.18011 1.54313 3.6428 2.00581L4.2056 2.56862C4.66829 3.03131 4.66829 3.78147 4.2056 4.24416Z"
        fill="url(#paint2_linear_877_16830)" />
    <path
        d="M4.2056 19.8814C3.74291 19.4187 2.99275 19.4187 2.53006 19.8814L1.96725 20.4442C1.50457 20.9069 1.50457 21.6571 1.96725 22.1197C2.42994 22.5824 3.18011 22.5824 3.6428 22.1197L4.2056 21.5569C4.66829 21.0943 4.66829 20.3441 4.2056 19.8814Z"
        fill="white" />
    <path
        d="M4.2056 19.8814C3.74291 19.4187 2.99275 19.4187 2.53006 19.8814L1.96725 20.4442C1.50457 20.9069 1.50457 21.6571 1.96725 22.1197C2.42994 22.5824 3.18011 22.5824 3.6428 22.1197L4.2056 21.5569C4.66829 21.0943 4.66829 20.3441 4.2056 19.8814Z"
        fill="url(#paint3_linear_877_16830)" />
    <path
        d="M22.2732 20.6338C22.7359 21.0965 22.7359 21.8467 22.2732 22.3093C21.8105 22.772 21.0603 22.772 20.5976 22.3093L20.0346 21.7464C19.572 21.2837 19.572 20.5335 20.0346 20.0708C20.4973 19.6081 21.2475 19.6081 21.7102 20.0708L22.2732 20.6338Z"
        fill="white" />
    <path
        d="M22.2732 20.6338C22.7359 21.0965 22.7359 21.8467 22.2732 22.3093C21.8105 22.772 21.0603 22.772 20.5976 22.3093L20.0346 21.7464C19.572 21.2837 19.572 20.5335 20.0346 20.0708C20.4973 19.6081 21.2475 19.6081 21.7102 20.0708L22.2732 20.6338Z"
        fill="url(#paint4_linear_877_16830)" />
    <defs>
        <linearGradient id="paint0_linear_877_16830" x1="3.50004" y1="-8.41288" x2="18.7495" y2="23.6114"
            gradientUnits="userSpaceOnUse">
            <stop stop-color="#FCECC5" />
            <stop offset="1" stop-color="#EEBD52" />
        </linearGradient>
        <linearGradient id="paint1_linear_877_16830" x1="3.50004" y1="-8.41288" x2="18.7495" y2="23.6114"
            gradientUnits="userSpaceOnUse">
            <stop stop-color="#FCECC5" />
            <stop offset="1" stop-color="#EEBD52" />
        </linearGradient>
        <linearGradient id="paint2_linear_877_16830" x1="3.50004" y1="-8.41288" x2="18.7495" y2="23.6114"
            gradientUnits="userSpaceOnUse">
            <stop stop-color="#FCECC5" />
            <stop offset="1" stop-color="#EEBD52" />
        </linearGradient>
        <linearGradient id="paint3_linear_877_16830" x1="3.50004" y1="-8.41288" x2="18.7495" y2="23.6114"
            gradientUnits="userSpaceOnUse">
            <stop stop-color="#FCECC5" />
            <stop offset="1" stop-color="#EEBD52" />
        </linearGradient>
        <linearGradient id="paint4_linear_877_16830" x1="3.50004" y1="-8.41288" x2="18.7495" y2="23.6114"
            gradientUnits="userSpaceOnUse">
            <stop stop-color="#FCECC5" />
            <stop offset="1" stop-color="#EEBD52" />
        </linearGradient>
    </defs>
</svg>