<svg width="25" height="26" viewBox="0 0 25 26" fill="none" xmlns="http://www.w3.org/2000/svg">
    <path fill-rule="evenodd" clip-rule="evenodd"
        d="M15.2195 7.76534L12.0635 0.936523L8.90756 7.76534C8.86148 7.86507 8.8117 7.96265 8.75839 8.05793L7.00032 6.29986C6.53763 5.83717 5.78746 5.83717 5.32478 6.29986C4.86209 6.76255 4.86209 7.51271 5.32478 7.9754L7.07168 9.72231C7.00835 9.75663 6.94404 9.78941 6.87878 9.8206L6.82882 9.84409L0 13L6.82882 16.156C6.90948 16.1933 6.98875 16.233 7.06652 16.275L7.07299 16.2785L5.32358 18.0279C4.86089 18.4906 4.86089 19.2408 5.32358 19.7034C5.78626 20.1661 6.53643 20.1661 6.99912 19.7034L8.75912 17.9434C8.81215 18.0383 8.86168 18.1355 8.90756 18.2347L12.0635 25.0636L15.2195 18.2347C15.2576 18.1523 15.2982 18.0713 15.3413 17.9919L17.0536 19.7042C17.5163 20.1669 18.2664 20.1669 18.7291 19.7042C19.1918 19.2415 19.1918 18.4913 18.7291 18.0287L17.0056 16.3052C17.1009 16.2519 17.1985 16.2021 17.2982 16.156L24.127 13L17.2982 9.84409C17.1989 9.79821 17.1018 9.74867 17.0069 9.69564L18.7279 7.97464C19.1906 7.51195 19.1906 6.76179 18.7279 6.2991C18.2652 5.83641 17.5151 5.83641 17.0524 6.2991L15.342 8.00951C15.3038 7.93924 15.2676 7.86776 15.2334 7.79512L15.2195 7.76534ZM12.052 8.12538L11.6337 9.03049C10.9092 10.5983 9.65035 11.8571 8.08255 12.5817L7.17744 13L8.08255 13.4183C9.65035 14.1428 10.9092 15.4016 11.6337 16.9695L12.052 17.8746L12.4703 16.9695C13.1949 15.4016 14.4537 14.1428 16.0215 13.4183L16.9266 13L16.0215 12.5817C14.4537 11.8571 13.1949 10.5983 12.4703 9.03049L12.052 8.12538Z"
        fill="white" />
    <path fill-rule="evenodd" clip-rule="evenodd"
        d="M15.2195 7.76534L12.0635 0.936523L8.90756 7.76534C8.86148 7.86507 8.8117 7.96265 8.75839 8.05793L7.00032 6.29986C6.53763 5.83717 5.78746 5.83717 5.32478 6.29986C4.86209 6.76255 4.86209 7.51271 5.32478 7.9754L7.07168 9.72231C7.00835 9.75663 6.94404 9.78941 6.87878 9.8206L6.82882 9.84409L0 13L6.82882 16.156C6.90948 16.1933 6.98875 16.233 7.06652 16.275L7.07299 16.2785L5.32358 18.0279C4.86089 18.4906 4.86089 19.2408 5.32358 19.7034C5.78626 20.1661 6.53643 20.1661 6.99912 19.7034L8.75912 17.9434C8.81215 18.0383 8.86168 18.1355 8.90756 18.2347L12.0635 25.0636L15.2195 18.2347C15.2576 18.1523 15.2982 18.0713 15.3413 17.9919L17.0536 19.7042C17.5163 20.1669 18.2664 20.1669 18.7291 19.7042C19.1918 19.2415 19.1918 18.4913 18.7291 18.0287L17.0056 16.3052C17.1009 16.2519 17.1985 16.2021 17.2982 16.156L24.127 13L17.2982 9.84409C17.1989 9.79821 17.1018 9.74867 17.0069 9.69564L18.7279 7.97464C19.1906 7.51195 19.1906 6.76179 18.7279 6.2991C18.2652 5.83641 17.5151 5.83641 17.0524 6.2991L15.342 8.00951C15.3038 7.93924 15.2676 7.86776 15.2334 7.79512L15.2195 7.76534ZM12.052 8.12538L11.6337 9.03049C10.9092 10.5983 9.65035 11.8571 8.08255 12.5817L7.17744 13L8.08255 13.4183C9.65035 14.1428 10.9092 15.4016 11.6337 16.9695L12.052 17.8746L12.4703 16.9695C13.1949 15.4016 14.4537 14.1428 16.0215 13.4183L16.9266 13L16.0215 12.5817C14.4537 11.8571 13.1949 10.5983 12.4703 9.03049L12.052 8.12538Z"
        fill="url(#paint0_linear_683_17274)" />
    <path
        d="M22.2732 4.42828C22.7359 3.9656 22.7359 3.21543 22.2732 2.75274C21.8105 2.29005 21.0603 2.29005 20.5976 2.75274L20.0346 3.31573C19.572 3.77842 19.572 4.52858 20.0346 4.99127C20.4973 5.45396 21.2475 5.45396 21.7102 4.99127L22.2732 4.42828Z"
        fill="white" />
    <path
        d="M22.2732 4.42828C22.7359 3.9656 22.7359 3.21543 22.2732 2.75274C21.8105 2.29005 21.0603 2.29005 20.5976 2.75274L20.0346 3.31573C19.572 3.77842 19.572 4.52858 20.0346 4.99127C20.4973 5.45396 21.2475 5.45396 21.7102 4.99127L22.2732 4.42828Z"
        fill="url(#paint1_linear_683_17274)" />
    <path
        d="M4.2056 5.18069C3.74291 5.64337 2.99275 5.64337 2.53006 5.18069L1.96725 4.61788C1.50457 4.15519 1.50457 3.40503 1.96725 2.94234C2.42994 2.47965 3.18011 2.47965 3.6428 2.94234L4.2056 3.50514C4.66829 3.96783 4.66829 4.718 4.2056 5.18069Z"
        fill="white" />
    <path
        d="M4.2056 5.18069C3.74291 5.64337 2.99275 5.64337 2.53006 5.18069L1.96725 4.61788C1.50457 4.15519 1.50457 3.40503 1.96725 2.94234C2.42994 2.47965 3.18011 2.47965 3.6428 2.94234L4.2056 3.50514C4.66829 3.96783 4.66829 4.718 4.2056 5.18069Z"
        fill="url(#paint2_linear_683_17274)" />
    <path
        d="M4.2056 20.8179C3.74291 20.3552 2.99275 20.3552 2.53006 20.8179L1.96725 21.3807C1.50457 21.8434 1.50457 22.5936 1.96725 23.0563C2.42994 23.519 3.18011 23.519 3.6428 23.0563L4.2056 22.4935C4.66829 22.0308 4.66829 21.2806 4.2056 20.8179Z"
        fill="white" />
    <path
        d="M4.2056 20.8179C3.74291 20.3552 2.99275 20.3552 2.53006 20.8179L1.96725 21.3807C1.50457 21.8434 1.50457 22.5936 1.96725 23.0563C2.42994 23.519 3.18011 23.519 3.6428 23.0563L4.2056 22.4935C4.66829 22.0308 4.66829 21.2806 4.2056 20.8179Z"
        fill="url(#paint3_linear_683_17274)" />
    <path
        d="M22.2732 21.5703C22.7359 22.033 22.7359 22.7832 22.2732 23.2459C21.8105 23.7086 21.0603 23.7086 20.5976 23.2459L20.0346 22.6829C19.572 22.2202 19.572 21.47 20.0346 21.0073C20.4973 20.5446 21.2475 20.5446 21.7102 21.0073L22.2732 21.5703Z"
        fill="white" />
    <path
        d="M22.2732 21.5703C22.7359 22.033 22.7359 22.7832 22.2732 23.2459C21.8105 23.7086 21.0603 23.7086 20.5976 23.2459L20.0346 22.6829C19.572 22.2202 19.572 21.47 20.0346 21.0073C20.4973 20.5446 21.2475 20.5446 21.7102 21.0073L22.2732 21.5703Z"
        fill="url(#paint4_linear_683_17274)" />
    <defs>
        <linearGradient id="paint0_linear_683_17274" x1="2.5" y1="2.65283" x2="21.6116" y2="25.3992"
            gradientUnits="userSpaceOnUse">
            <stop stop-color="#FBD57F" />
            <stop offset="1" stop-color="#D17F0D" />
        </linearGradient>
        <linearGradient id="paint1_linear_683_17274" x1="2.5" y1="2.65283" x2="21.6116" y2="25.3992"
            gradientUnits="userSpaceOnUse">
            <stop stop-color="#FBD57F" />
            <stop offset="1" stop-color="#D17F0D" />
        </linearGradient>
        <linearGradient id="paint2_linear_683_17274" x1="2.5" y1="2.65283" x2="21.6116" y2="25.3992"
            gradientUnits="userSpaceOnUse">
            <stop stop-color="#FBD57F" />
            <stop offset="1" stop-color="#D17F0D" />
        </linearGradient>
        <linearGradient id="paint3_linear_683_17274" x1="2.5" y1="2.65283" x2="21.6116" y2="25.3992"
            gradientUnits="userSpaceOnUse">
            <stop stop-color="#FBD57F" />
            <stop offset="1" stop-color="#D17F0D" />
        </linearGradient>
        <linearGradient id="paint4_linear_683_17274" x1="2.5" y1="2.65283" x2="21.6116" y2="25.3992"
            gradientUnits="userSpaceOnUse">
            <stop stop-color="#FBD57F" />
            <stop offset="1" stop-color="#D17F0D" />
        </linearGradient>
    </defs>
</svg>