<?xml version="1.0" encoding="UTF-8" standalone="no"?>
<!-- Created with Inkscape (http://www.inkscape.org/) -->

<svg
   viewBox="0 0 512 512"
   version="1.1"
   id="svg1"
   sodipodi:docname="logo-light.svg"
   width="512"
   height="512"
   inkscape:export-filename="logo-cut-up.png"
   inkscape:export-xdpi="96"
   inkscape:export-ydpi="96"
   inkscape:version="1.3 (0e150ed6c4, 2023-07-21)"
   xmlns:inkscape="http://www.inkscape.org/namespaces/inkscape"
   xmlns:sodipodi="http://sodipodi.sourceforge.net/DTD/sodipodi-0.dtd"
   xmlns="http://www.w3.org/2000/svg"
   xmlns:svg="http://www.w3.org/2000/svg">
  <sodipodi:namedview
     id="namedview1"
     pagecolor="#ffffff"
     bordercolor="#111111"
     borderopacity="1"
     inkscape:showpageshadow="0"
     inkscape:pageopacity="0"
     inkscape:pagecheckerboard="1"
     inkscape:deskcolor="#d1d1d1"
     inkscape:zoom="1.1228082"
     inkscape:cx="236.90599"
     inkscape:cy="281.88251"
     inkscape:window-width="1920"
     inkscape:window-height="1009"
     inkscape:window-x="-8"
     inkscape:window-y="-8"
     inkscape:window-maximized="1"
     inkscape:current-layer="layer1" />
  <defs
     id="defs1" />
  <g
     id="layer1"
     style="stroke:#ffffff;stroke-opacity:1"
     transform="matrix(12.491489,0,0,12.491489,64.727356,50.728556)">
    <path
       id="path1"
       style="color:#000000;display:inline;fill:#fafafa;fill-opacity:1;stroke:none;stroke-width:1.24472;stroke-linecap:round;stroke-linejoin:round;stroke-miterlimit:2.1;stroke-opacity:1;-inkscape-stroke:none;paint-order:stroke fill markers"
       d="m 12.781806,-2.1078283 a 1.2447145,1.2447145 0 0 0 -1.244783,1.24478396 V 18.329519 a 1.2447145,1.2447145 0 0 0 1.244783,1.244783 h 19.192758 a 1.2447145,1.2447145 0 0 0 1.244589,-1.244783 V -0.86304434 A 1.2447145,1.2447145 0 0 0 31.974564,-2.1078283 Z"
       inkscape:label="square3" />
    <path
       d="M 26.153301,20.718999 H 12.569079 c -0.07462,5e-6 -0.148458,-0.004 -0.221282,-0.01142 -0.07282,-0.0076 -0.144791,-0.01859 -0.215443,-0.03329 -0.141305,-0.02937 -0.277804,-0.07275 -0.408116,-0.128441 -0.130319,-0.05569 -0.254299,-0.123858 -0.370556,-0.202793 -0.116254,-0.07895 -0.224711,-0.168661 -0.323845,-0.267798 -0.09913,-0.09912 -0.189045,-0.207588 -0.26799,-0.323845 -0.07895,-0.116254 -0.147106,-0.240241 -0.202794,-0.370556 -0.05569,-0.130319 -0.09888,-0.267006 -0.12826,-0.40831 -0.01473,-0.07064 -0.02594,-0.142417 -0.03347,-0.215249 -0.0076,-0.07282 -0.01142,-0.146669 -0.01142,-0.221281 V 5.5918382 H 5.7159565 A 1.2447145,1.2447145 0 0 0 5.0935643,5.7586267 1.2447145,1.2447145 0 0 0 4.6379609,6.2142298 1.2447145,1.2447145 0 0 0 4.4711726,6.8366214 V 26.029184 a 1.2447145,1.2447145 0 0 1 0,1.95e-4 1.2447145,1.2447145 0 0 0 0.1667883,0.622196 1.2447145,1.2447145 0 0 0 0.4556034,0.455605 1.2447145,1.2447145 0 0 0 0.6223922,0.166787 H 24.908712 a 1.2447145,1.2447145 0 0 0 0.622198,-0.166787 1.2447145,1.2447145 0 0 0 0.455602,-0.455605 1.2447145,1.2447145 0 0 0 0.166789,-0.622196 1.2447145,1.2447145 0 0 1 0,-1.95e-4 z"
       style="display:inline;stroke:none;stroke-width:1.24472;stroke-linecap:round;stroke-linejoin:round;stroke-miterlimit:2.1;stroke-opacity:1;paint-order:stroke fill markers;fill:#fafafa;fill-opacity:1"
       id="path10"
       inkscape:label="square2" />
    <path
       d="M 19.087452,28.41867 H 5.5032298 c -0.074624,4e-6 -0.1484563,-0.004 -0.221281,-0.01142 -0.072831,-0.0076 -0.144792,-0.0186 -0.2154444,-0.03329 C 4.9252006,28.344586 4.788701,28.301215 4.6583882,28.24552 4.5280754,28.189829 4.4040897,28.121664 4.2878335,28.042727 4.1715768,27.963773 4.0631226,27.874067 3.9639874,27.774931 3.8648576,27.675809 3.7749438,27.567341 3.6959966,27.451086 3.6170444,27.334832 3.5488971,27.210843 3.4932039,27.08053 c -0.055688,-0.13032 -0.09888,-0.267006 -0.1282548,-0.408311 -0.014682,-0.07064 -0.025939,-0.142417 -0.03347,-0.215248 -0.00759,-0.07282 -0.011451,-0.14667 -0.011451,-0.221282 V 13.291505 h -4.6699226 a 1.2447145,1.2447145 0 0 0 -0.622392,0.16679 1.2447145,1.2447145 0 0 0 -0.4556035,0.455603 1.2447145,1.2447145 0 0 0 -0.1667885,0.622391 v 19.192564 a 1.2447145,1.2447145 0 0 1 0,1.95e-4 1.2447145,1.2447145 0 0 0 0.1667885,0.622197 1.2447145,1.2447145 0 0 0 0.4556035,0.455603 1.2447145,1.2447145 0 0 0 0.622392,0.166789 H 17.842861 a 1.2447145,1.2447145 0 0 0 0.622198,-0.166789 1.2447145,1.2447145 0 0 0 0.455602,-0.455603 1.2447145,1.2447145 0 0 0 0.166791,-0.622197 1.2447145,1.2447145 0 0 1 0,-1.95e-4 z"
       style="display:inline;stroke:none;stroke-width:1.24472;stroke-linecap:round;stroke-linejoin:round;stroke-miterlimit:2.1;stroke-opacity:1;paint-order:stroke fill markers;fill:#fafafa;fill-opacity:1"
       id="path11"
       inkscape:label="square1" />
  </g>
</svg>
