<svg xmlns="http://www.w3.org/2000/svg" fill="#050505" viewBox="0 0 512 512">
  <path d="M224.48 24.48a15.5 15.5 0 0 0-15.5 15.5v239.88a15.5 15.5 0 0 0 15.5 15.5h240a15.5 15.5 0 0 0 15.5-15.5v-240a15.5 15.5 0 0 0-15.63-15.5Z"/>
  <path d="M391.42 309.54H221.73a27.25 27.25 0 0 1-5.45-.56 26.9 26.9 0 0 1-9.73-4.14 27.84 27.84 0 0 1-9.92-12.02 26.93 26.93 0 0 1-2.17-10.55v-161.7h-58.33a15.55 15.55 0 0 0-7.78 2.1 15.55 15.55 0 0 0-5.69 5.68 15.55 15.55 0 0 0-2.08 7.78v239.74a15.55 15.55 0 0 0 2.08 7.78 15.55 15.55 0 0 0 5.7 5.69 15.55 15.55 0 0 0 7.77 2.08h239.74a15.55 15.55 0 0 0 7.78-2.08 15.55 15.55 0 0 0 5.69-5.7 15.55 15.55 0 0 0 2.08-7.77z"/>
  <path d="M303.16 405.72H133.47a27.25 27.25 0 0 1-5.45-.56 26.9 26.9 0 0 1-9.73-4.14 27.85 27.85 0 0 1-9.93-12.02 26.92 26.92 0 0 1-2.16-10.55v-161.7H47.87a15.55 15.55 0 0 0-7.78 2.1 15.55 15.55 0 0 0-5.7 5.68 15.55 15.55 0 0 0-2.07 7.78v239.74a15.55 15.55 0 0 0 2.08 7.78 15.55 15.55 0 0 0 5.7 5.69 15.55 15.55 0 0 0 7.77 2.08H287.6a15.55 15.55 0 0 0 7.77-2.08 15.55 15.55 0 0 0 5.7-5.7 15.55 15.55 0 0 0 2.08-7.77z"/>
</svg>
