<svg width="200" height="200" viewBox="0 0 200 200" fill="none" xmlns="http://www.w3.org/2000/svg">
<rect width="200" height="200" fill="#01BEFE"/>
<path d="M139.08 90.4334L135.048 109.707H152.328V132.366H130.296L125.544 154.877H102.504L107.256 132.366H83.352L78.6 154.877H55.56L60.312 132.366H39V109.707H65.064L69.096 90.4334H48.216V67.7753H73.704L78.312 46H101.352L96.744 67.7753H120.648L125.256 46H148.296L143.688 67.7753H161.544V90.4334H139.08ZM116.04 90.4334H92.136L88.104 109.707H112.008L116.04 90.4334Z" fill="white"/>
<path d="M98.3172 128.56C92.2372 128.56 87.2772 127.253 83.4372 124.64C79.6505 121.973 77.7572 118.213 77.7572 113.36C77.7572 112.88 77.8105 112.16 77.9172 111.2H92.1572C91.9972 113.227 92.4772 114.827 93.5972 116C94.7172 117.173 96.4239 117.76 98.7172 117.76C100.797 117.76 102.424 117.307 103.597 116.4C104.824 115.493 105.437 114.213 105.437 112.56C105.437 110.853 104.664 109.467 103.117 108.4C101.624 107.333 99.2772 106.133 96.0772 104.8C92.9839 103.52 90.4505 102.32 88.4772 101.2C86.5572 100.027 84.8772 98.4533 83.4372 96.48C81.9972 94.5066 81.2772 92.0266 81.2772 89.04C81.2239 85.36 82.1305 82.16 83.9972 79.44C85.8639 76.72 88.4505 74.64 91.7572 73.2C95.0639 71.76 98.8505 71.04 103.117 71.04C106.957 71.04 110.371 71.6533 113.357 72.88C116.344 74.0533 118.664 75.7866 120.317 78.08C121.971 80.32 122.797 82.9866 122.797 86.08C122.797 86.88 122.771 87.4666 122.717 87.84H108.157C108.211 87.6266 108.237 87.3066 108.237 86.88C108.237 85.3866 107.704 84.1866 106.637 83.28C105.624 82.32 104.211 81.84 102.397 81.84C100.477 81.84 98.9039 82.32 97.6772 83.28C96.5039 84.1866 95.9172 85.44 95.9172 87.04C95.9172 88.64 96.6639 90 98.1572 91.12C99.6505 92.1866 101.971 93.44 105.117 94.88C108.264 96.32 110.824 97.6533 112.797 98.88C114.824 100.107 116.557 101.76 117.997 103.84C119.437 105.867 120.157 108.373 120.157 111.36C120.157 114.667 119.277 117.627 117.517 120.24C115.757 122.853 113.224 124.907 109.917 126.4C106.611 127.84 102.744 128.56 98.3172 128.56Z" fill="black"/>
</svg>