<?xml version="1.0" encoding="UTF-8"?>
<svg id="a" xmlns="http://www.w3.org/2000/svg" xmlns:xlink="http://www.w3.org/1999/xlink" viewBox="0 0 219.89 220.67">
  <defs>
    <style>
      .cls-1 {
        fill: #edb61e;
      }

      .cls-2 {
        fill: url(#linear-gradient);
      }
    </style>
    <linearGradient id="linear-gradient" x1="0" y1="111.35" x2="152.24" y2="111.35" gradientTransform="translate(0 221.68) scale(1 -1)" gradientUnits="userSpaceOnUse">
      <stop offset=".09" stop-color="#57c0a6"/>
      <stop offset=".65" stop-color="#94d3c7"/>
    </linearGradient>
  </defs>
  <path class="cls-1" d="m186.44,146.41l-5.64-12.39c-3.22-7.09-8.94-12.72-16.07-15.8l-12.51-5.41,12.42-5.67c7.03-3.23,12.61-8.99,15.63-16.15l5.39-12.48,5.64,12.39c3.22,7.09,8.94,12.72,16.07,15.8l12.51,5.41-12.42,5.67c-7.01,3.23-12.58,8.95-15.63,16.06l-5.39,12.57Z"/>
  <path class="cls-2" d="m96.48,99.53v-54.79h44.65V0H0v44.74h44v55.04c0,55.71,28.32,120.89,108.24,120.89v-43.4c-40.81-.25-55.75-32.59-55.75-77.74h0Z"/>
</svg>