<svg class="logo" width="60" height="60" viewBox="0 0 60 60" xmlns="http://www.w3.org/2000/svg">
  <g class="logo__icon" fill="#5cd8e5">
    <path d="m58.42 0h-56.57a1.85 1.85 0 0 0 -1.85 1.85v7.76h30.13a20.53 20.53 0 0 1 17.08 31.9h13v-39.66a1.84 1.84 0 0 0 -1.79-1.85z"></path>
    <path d="m9.61 30.13a20.47 20.47 0 0 1 3.44-11.38h-13.05v39.67a1.84 1.84 0 0 0 1.85 1.84h56.57a1.84 1.84 0 0 0 1.84-1.84v-7.77h-30.13a20.52 20.52 0 0 1 -20.52-20.52z"></path>
    <path d="m45.05 29.61a23.13 23.13 0 0 1 -5.73 1.39 10 10 0 0 0 -.06-2.31 24.46 24.46 0 0 0 4.93-5.81 2.21 2.21 0 0 0 -3.74-2.37 22 22 0 0 1 -3.05 3.89 9.07 9.07 0 0 0 -1.9-1.81 18.24 18.24 0 0 0 -.31-3.88 31.22 31.22 0 0 0 -1.41-5.05 2.21 2.21 0 0 0 -2.84-1.32 2.11 2.11 0 0 0 -.81.51 2.23 2.23 0 0 0 -.52 2.33c.2.53.37 1 .52 1.53.22.71.4 1.38.55 2a18.89 18.89 0 0 1 .32 2.29 8.62 8.62 0 0 0 -2.3.06 24.52 24.52 0 0 0 -5.82-4.94 2.22 2.22 0 0 0 -2.37 3.75 22.07 22.07 0 0 1 3.9 3 9.35 9.35 0 0 0 -1.82 1.9 23.85 23.85 0 0 0 -8.93 1.73 2.21 2.21 0 0 0 1.52 4.16 23.28 23.28 0 0 1 5.82-1.43c0 .3-.05.6-.05.9a9.23 9.23 0 0 0 .11 1.4 24.26 24.26 0 0 0 -4.94 5.81 2.21 2.21 0 0 0 1.87 3.4 2.2 2.2 0 0 0 1.88-1 21.6 21.6 0 0 1 3-3.89 9.93 9.93 0 0 0 1.9 1.82 17.62 17.62 0 0 0 .32 3.87 30.22 30.22 0 0 0 1.41 5.05 2.2 2.2 0 0 0 2.07 1.41 2.25 2.25 0 0 0 .76-.13 2.31 2.31 0 0 0 .8-.52 2.2 2.2 0 0 0 .52-2.32c-.19-.54-.37-1-.52-1.54-.22-.71-.4-1.37-.54-2a16.58 16.58 0 0 1 -.36-2.19h.9a9.36 9.36 0 0 0 1.41-.1 24.39 24.39 0 0 0 5.8 4.93 2.21 2.21 0 1 0 2.37-3.74 22.34 22.34 0 0 1 -3.89-3.05 9.38 9.38 0 0 0 1.82-1.9h.51a25 25 0 0 0 8.41-1.73 2.22 2.22 0 0 0 -1.51-4.17zm-10 .52v.4a4.9 4.9 0 0 1 -1.74 3.39 4.51 4.51 0 0 1 -.61.44 5 5 0 0 1 -2.59.73h-.4a4.9 4.9 0 0 1 -3.38-1.73 5.79 5.79 0 0 1 -.45-.62 5 5 0 0 1 -.73-2.59c0-.13 0-.27 0-.4a4.69 4.69 0 0 1 .12-.75 5 5 0 0 1 1.61-2.63 7 7 0 0 1 .62-.45 5 5 0 0 1 2.59-.73h.4a4.81 4.81 0 0 1 .76.12 5 5 0 0 1 2.63 1.62 4.51 4.51 0 0 1 .44.61 5 5 0 0 1 .77 2.59z"></path>
  </g>
</svg>