<svg xmlns="http://www.w3.org/2000/svg" fill="currentColor" viewBox="0 0 25 24">
  <path d="M15.33 2a7 7 0 0 0-6.88 5.74 6 6 0 0 0-3.12 4.67 5 5 0 1 0 6.6 6.59 6 6 0 0 0 4.66-3.09A7 7 0 0 0 15.33 2Zm-5 15.43c0 .1 0 .2-.07.31a3 3 0 1 1-3.64-3.64l.28-.1a2.94 2.94 0 0 1 3.43 3.43Zm5-3.67c0 .06-.03.13-.05.19a4 4 0 0 1-2.87 2.94c0-.18 0-.35-.06-.53-.06-.18 0-.27 0-.4s-.12-.38-.18-.57l-.12-.36a4.2 4.2 0 0 0-.3-.55c0-.09-.09-.19-.15-.28a5.3 5.3 0 0 0-.6-.73l-.2-.17a2.89 2.89 0 0 0-.87-.62 3 3 0 0 0-.9-.4 3.12 3.12 0 0 0-.52-.16c-.14 0-.29 0-.44-.06l-.6-.06a4 4 0 0 1 2.91-2.87l.2-.05a4 4 0 0 1 4.67 4.68h.08Zm2-.16V13a6 6 0 0 0-6-6h-.6a5 5 0 1 1 6.6 6.6Z"/>
</svg>