<svg xmlns="http://www.w3.org/2000/svg" fill="none" width="631" height="530" viewBox="0 0 631 530">
  <g filter="url(#a)">
    <rect width="235.78" height="347.78" x="331.78" y="64" fill="#FAFAFA" rx="73.68"/>
    <rect width="235.78" height="347.78" x="331.78" y="64" fill="url(#b)" rx="73.68"/>
    <g filter="url(#c)">
      <path fill="url(#d)" d="M331.78 78.74c0-8.14 7.76-14.74 17.34-14.74h201.1c9.58 0 17.34 6.6 17.34 14.74v318.3c0 8.14-7.76 14.74-17.33 14.74H349.12c-9.58 0-17.34-6.6-17.34-14.74V78.74Z"/>
    </g>
    <g clip-path="url(#e)">
      <path fill="#FAFAFA" d="M331.78 78.74c0-8.14 7.76-14.74 17.34-14.74h201.1c9.58 0 17.34 6.6 17.34 14.74v318.3c0 8.14-7.76 14.74-17.33 14.74H349.12c-9.58 0-17.34-6.6-17.34-14.74V78.74Z"/>
      <path fill="url(#f)" d="M331.78 78.74c0-8.14 7.76-14.74 17.34-14.74h201.1c9.58 0 17.34 6.6 17.34 14.74v318.3c0 8.14-7.76 14.74-17.33 14.74H349.12c-9.58 0-17.34-6.6-17.34-14.74V78.74Z"/>
      <path fill="url(#g)" fill-rule="evenodd" d="M357.81 85.61a7.37 7.37 0 0 0-7.36 7.37v140.49c0 4.07 3.3 7.37 7.37 7.37h182.73c4.07 0 7.36-3.3 7.36-7.37V92.98c0-4.07-3.3-7.37-7.36-7.37H357.82Zm64.91 18.67h-9.5v2.37h-4.74v2.38h-4.75v4.75h-2.37v4.74h-4.75v4.75h-2.37v9.5h2.37v4.74h4.75v4.75h2.37V147h4.75v2.37h4.75v2.37h9.5v-2.37h4.74V147h4.75v-4.75h2.37v-4.75h4.75v-4.75h2.37v-9.5h-2.37v-4.74h-4.75v-4.74h-2.37v-4.75h-4.75v-2.38h-4.75v-2.37Zm-27.57 109.56h-6.39v9.12h127.82v-8.21h-3.66v-8.22h-3.65v-7.3h-4.56v-6.4h-4.57v-9.12h-3.65v-7.3h-4.56v-10.05h-4.57v-6.39h-3.65v-5.48h-3.65v-6.39h-5.48v6.4h-3.65v5.47h-3.65v6.4h-3.65v10.03h-3.66v7.3h-4.56v9.14h-5.48v6.39h-9.13v-6.4h-5.48v-6.38h-7.3v-6.4h-10.96v6.4h-4.56v6.39h-5.48v6.39h-5.48v6.39h-6.39v8.22Z" clip-rule="evenodd"/>
      <path fill="url(#h)" fill-rule="evenodd" d="M357.81 85.61a7.37 7.37 0 0 0-7.36 7.37v140.49c0 4.07 3.3 7.37 7.37 7.37h182.73c4.07 0 7.36-3.3 7.36-7.37V92.98c0-4.07-3.3-7.37-7.36-7.37H357.82Zm64.91 18.67h-9.5v2.37h-4.74v2.38h-4.75v4.75h-2.37v4.74h-4.75v4.75h-2.37v9.5h2.37v4.74h4.75v4.75h2.37V147h4.75v2.37h4.75v2.37h9.5v-2.37h4.74V147h4.75v-4.75h2.37v-4.75h4.75v-4.75h2.37v-9.5h-2.37v-4.74h-4.75v-4.74h-2.37v-4.75h-4.75v-2.38h-4.75v-2.37Zm-27.57 109.56h-6.39v9.12h127.82v-8.21h-3.66v-8.22h-3.65v-7.3h-4.56v-6.4h-4.57v-9.12h-3.65v-7.3h-4.56v-10.05h-4.57v-6.39h-3.65v-5.48h-3.65v-6.39h-5.48v6.4h-3.65v5.47h-3.65v6.4h-3.65v10.03h-3.66v7.3h-4.56v9.14h-5.48v6.39h-9.13v-6.4h-5.48v-6.38h-7.3v-6.4h-10.96v6.4h-4.56v6.39h-5.48v6.39h-5.48v6.39h-6.39v8.22Z" clip-rule="evenodd"/>
      <path fill="#E8D6F3" fill-rule="evenodd" d="M357.81 256.56a7.37 7.37 0 0 0 0 14.73h184.7a7.37 7.37 0 0 0 0-14.74h-184.7Zm0 22.59a7.37 7.37 0 0 0 0 14.74h151.3a7.37 7.37 0 1 0 0-14.74H357.8Zm-7.36 36.84c0-4.07 3.3-7.37 7.37-7.37h80.55c4.07 0 7.37 3.3 7.37 7.37v14.74c0 4.07-3.3 7.37-7.37 7.37h-80.56a7.37 7.37 0 0 1-7.36-7.37v-14.74Zm7.37 35.86a7.37 7.37 0 0 0-7.37 7.37v53.05c0 4.07 3.3 7.37 7.37 7.37h182.73c4.07 0 7.36-3.3 7.36-7.37v-53.05c0-4.07-3.3-7.37-7.36-7.37H357.82Z" clip-rule="evenodd"/>
    </g>
    <g clip-path="url(#i)">
      <rect width="167.01" height="53.05" x="366.17" y="380.34" fill="#FAFAFA" rx="26.53"/>
      <rect width="167.01" height="53.05" x="366.17" y="380.34" fill="url(#j)" rx="26.53"/>
      <g filter="url(#k)">
        <circle cx="395.15" cy="406.37" r="18.17" fill="#FAFAFA"/>
        <circle cx="395.15" cy="406.37" r="18.17" fill="url(#l)"/>
        <circle cx="395.15" cy="406.37" r="18.17" fill="url(#m)"/>
      </g>
      <path fill="#fff" fill-rule="evenodd" d="M398.3 398.03c.15.2.24.46.4.99l3.61 11.51a15.3 15.3 0 0 0-4.32-1.42l-2.35-7.71a.3.3 0 0 0-.1-.15.31.31 0 0 0-.37 0 .3.3 0 0 0-.11.15l-2.33 7.71c-1.5.26-2.97.74-4.33 1.42l3.63-11.52c.16-.52.25-.79.4-.98.15-.17.34-.3.55-.39.24-.1.52-.1 1.09-.1h2.59c.57 0 .85 0 1.09.1.21.08.4.22.54.39Zm.19 13.17c-.56.5-1.68.85-2.97.85-1.58 0-2.9-.51-3.26-1.2a4 4 0 0 0-.15 1.13s-.09 1.43.86 2.42c0-.51.4-.93.9-.93.84 0 .83.77.83 1.4v.05c0 .95.56 1.76 1.34 2.1a1.98 1.98 0 0 1-.18-.83c0-.9.5-1.24 1.1-1.63.47-.32.99-.66 1.35-1.36a2.66 2.66 0 0 0 .18-2Z" clip-rule="evenodd"/>
      <path fill="url(#n)" fill-rule="evenodd" d="M398.49 411.2c-.56.5-1.68.85-2.97.85-1.58 0-2.9-.51-3.26-1.2a4 4 0 0 0-.15 1.13s-.09 1.43.86 2.42c0-.51.4-.93.9-.93.84 0 .83.77.83 1.4v.05c0 .95.56 1.76 1.34 2.1a1.98 1.98 0 0 1-.18-.83c0-.9.5-1.24 1.1-1.63.47-.32.99-.66 1.35-1.36a2.66 2.66 0 0 0 .18-2Z" clip-rule="evenodd"/>
      <path fill="#7C678B" d="M424.32 419.88h2.28v-1.14h.38v-.76h4.55v.76h.38v1.14h2.28v-1.52h-.38v-1.13h-.38v-1.14h-.38v-1.14h-.38v-1.14h-.38v-1.14h-.38v-1.14h-.38v-1.14h-.38v-1.14h-3.8v1.14h-.37v1.14h-.38v1.14h-.38v1.14h-.38v1.14h-.38v1.14h-.38v1.14h-.38v1.13h-.38v1.52Zm3.42-4.17v-.38h.38v-1.14h.38v-1.14h.38v-1.14h.75v1.14h.38v1.14h.38v1.14h.38v.38h-3.03Zm6.49-1.14h1.14v5.31h2.28v-5.31h1.9v-2.28h-1.9v-.76h1.9v-2.28h-3.42v.38h-.38v.38h-.38v2.28h-1.14v2.28Zm5.93 0h1.14v4.55h.38v.38h.38v.38h3.42v-2.28h-1.9v-3.03h1.9v-2.28h-1.9V410h-2.28v2.28h-1.14v2.28Zm6.12 3.41h.38v.76h.38v.38h.38v.38h.76v.38h3.42v-.38h.76v-.38h.38v-.38h.38v-1.14h-2.28v.38h-2.28v-1.13h4.56v-2.66h-.38v-.76h-.38v-.38h-.38v-.38h-.76v-.38h-3.04v.38h-.76v.38h-.38v.38h-.38v.76h-.38v3.8Zm2.28-2.65v-1.14h2.28v1.14h-2.28Zm5.74 4.55h2.28v-4.55h.38v-.38h.38v-.38h1.52v-2.28h-1.52v.38h-.38v.38h-.38v-.76h-2.28v7.6Zm7.68 0h2.28v-1.14h.38v-.76h4.55v.76h.38v1.14h2.28v-1.52h-.38v-1.13h-.38v-1.14h-.38v-1.14h-.38v-1.14h-.38v-1.14h-.38v-1.14h-.38v-1.14h-.38v-1.14h-3.8v1.14h-.37v1.14h-.38v1.14h-.38v1.14h-.38v1.14h-.38v1.14h-.38v1.14h-.38v1.13h-.38v1.52Zm3.42-4.17v-.38h.38v-1.14h.38v-1.14h.38v-1.14h.76v1.14h.38v1.14h.38v1.14h.38v.38h-3.04Zm7.07 3.03h.38v.38h.38v.38h.76v.38h3.41v-.38h.76v-.38h.38v-.76h.38v-1.51h-.38v-.76h-.38v-.38h-.76v-.38h-2.65v-1.14h1.9v.38h2.27v-1.14h-.38v-.38h-.38v-.38h-.76v-.38H474v.38h-.76v.38h-.38v.76h-.38v1.52h.38v.76h.38v.38h.76v.38h2.65v1.13h-1.9v-.38h-2.27v1.14Zm7.06-4.17h1.14v4.55h.38v.38h.38v.38h3.42v-2.28h-1.9v-3.03h1.9v-2.28h-1.9V410h-2.28v2.28h-1.14v2.28Zm6.31 5.31h2.28v-4.55h.38v-.38h.38v-.38h1.52v-2.28h-1.52v.38h-.38v.38h-.38v-.76h-2.28v7.6Zm5.17-1.9h.38v.76h.38v.38h.38v.38h.76v.38h3.42v-.38h.76v-.38h.38v-.38h.38v-.76h.38v-3.8h-.38v-.75h-.38v-.38h-.38v-.38h-.76v-.38h-3.42v.38h-.76v.38h-.38v.38h-.38v.76h-.38v3.8Zm2.28-.75v-2.28h.38v-.38h1.9v.38h.38v2.28h-.38v.37h-1.9v-.38h-.38Z"/>
      <path fill="#000" d="M424.55 398.31h.84v-.42h.42v-.42h.42v-.42h.41v-.42h.42v7.55h2.52v-11.74h-2.1v.42h-.42v.42h-.42v.42h-.41v.42h-.42v.42h-.42v.42h-.42v.42h-.42v2.93Z"/>
      <path fill="url(#o)" d="M424.55 398.31h.84v-.42h.42v-.42h.42v-.42h.41v-.42h.42v7.55h2.52v-11.74h-2.1v.42h-.42v.42h-.42v.42h-.41v.42h-.42v.42h-.42v.42h-.42v.42h-.42v2.93Z"/>
      <path fill="#000" d="M431.09 402.08h.42v.84h.42v.42h.42v.42h.84v.42h4.6v-.42h.85v-.42h.42v-.42h.42v-.84h.41v-7.54h-.41v-.84h-.42v-.42h-.42v-.42h-.84v-.42h-4.61v.42h-.84v.42h-.42v.42h-.42v.84h-.42v7.54Zm2.52-.83v-5.87h.41v-.42h2.94v.42h.42v5.87h-.42v.42h-2.94v-.42h-.41Z"/>
      <path fill="url(#p)" d="M431.09 402.08h.42v.84h.42v.42h.42v.42h.84v.42h4.6v-.42h.85v-.42h.42v-.42h.42v-.84h.41v-7.54h-.41v-.84h-.42v-.42h-.42v-.42h-.84v-.42h-4.61v.42h-.84v.42h-.42v.42h-.42v.84h-.42v7.54Zm2.52-.83v-5.87h.41v-.42h2.94v.42h.42v5.87h-.42v.42h-2.94v-.42h-.41Z"/>
      <path fill="#000" d="M441.42 404.18h2.51v-2.51h-2.51v2.51Z"/>
      <path fill="url(#q)" d="M441.42 404.18h2.51v-2.51h-2.51v2.51Z"/>
      <path fill="#000" d="M445.03 396.63h2.51v-1.67h2.94v.84h-.42v.83h-.42v.84h-.42v.84h-.42v.84h-.42v.84h-.42v.84h-.42v3.35h2.52v-2.93h.42v-.84h.42v-.84h.42v-.84h.42v-.84h.41v-.84h.42v-.84h.42v-3.77h-7.96v4.2Z"/>
      <path fill="url(#r)" d="M445.03 396.63h2.51v-1.67h2.94v.84h-.42v.83h-.42v.84h-.42v.84h-.42v.84h-.42v.84h-.42v.84h-.42v3.35h2.52v-2.93h.42v-.84h.42v-.84h.42v-.84h.42v-.84h.41v-.84h.42v-.84h.42v-3.77h-7.96v4.2Z"/>
      <path fill="#000" d="M454.3 404.18h2.5v-2.93h.43v.42h.42v.41h.42v.42h.42v.42h.41v.42h.43v.42h.41v.42h2.52v-1.26h-.42v-.42h-.42v-.42H461v-.41h-.42v-.42h-.42v-.42h-.42v-.42h-.42v-.84h.42v-.42h.42v-.42h.42v-.42h.42v-.42h.42v-.42h.42v-.42h.42v-1.25h-2.52v.41h-.42v.42h-.42v.42h-.41v.42h-.42v.42h-.42v.42h-.42v.42h-.42v-6.29h-2.52v11.74Z"/>
      <path fill="url(#s)" d="M454.3 404.18h2.5v-2.93h.43v.42h.42v.41h.42v.42h.42v.42h.41v.42h.43v.42h.41v.42h2.52v-1.26h-.42v-.42h-.42v-.42H461v-.41h-.42v-.42h-.42v-.42h-.42v-.42h-.42v-.84h.42v-.42h.42v-.42h.42v-.42h.42v-.42h.42v-.42h.42v-.42h.42v-1.25h-2.52v.41h-.42v.42h-.42v.42h-.41v.42h-.42v.42h-.42v.42h-.42v.42h-.42v-6.29h-2.52v11.74Z"/>
      <path fill="#000" d="M462.94 404.18h2.51v-.84h.42v.42h.42v.42h2.52v-.42h.83v-.42h.42v-.42h.42v-.84h.42v-4.19h-.42v-.84h-.42v-.42h-.42v-.42h-.83v-.41h-2.52v.41h-.42v.42h-.42v-4.19h-2.51v11.74Zm2.51-2.93v-2.52h.42v-.42h2.1v.42h.42v2.52h-.42v.42h-2.1v-.42h-.42Z"/>
      <path fill="url(#t)" d="M462.94 404.18h2.51v-.84h.42v.42h.42v.42h2.52v-.42h.83v-.42h.42v-.42h.42v-.84h.42v-4.19h-.42v-.84h-.42v-.42h-.42v-.42h-.83v-.41h-2.52v.41h-.42v.42h-.42v-4.19h-2.51v11.74Zm2.51-2.93v-2.52h.42v-.42h2.1v.42h.42v2.52h-.42v.42h-2.1v-.42h-.42Z"/>
    </g>
  </g>
  <g filter="url(#u)">
    <path fill="#FAFAFA" d="M64 78.74C64 70.6 70.6 64 78.74 64h206.3c8.14 0 14.74 6.6 14.74 14.74v318.3c0 8.14-6.6 14.74-14.73 14.74H78.74c-8.14 0-14.74-6.6-14.74-14.74V78.74Z"/>
    <path fill="url(#v)" d="M64 78.74C64 70.6 70.6 64 78.74 64h206.3c8.14 0 14.74 6.6 14.74 14.74v318.3c0 8.14-6.6 14.74-14.73 14.74H78.74c-8.14 0-14.74-6.6-14.74-14.74V78.74Z"/>
    <path fill="#E3CFC7" d="M248.7 236.9a66.8 66.8 0 1 0-80.29 65.44l2.78-13.5a53.03 53.03 0 1 1 63.73-51.93h13.78Z"/>
  </g>
  <g filter="url(#w)">
    <g clip-path="url(#x)">
      <rect width="167.01" height="53.05" x="98" y="377" fill="#FAFAFA" rx="26.53"/>
      <rect width="167.01" height="53.05" x="98" y="377" fill="url(#y)" rx="26.53"/>
      <g filter="url(#z)">
        <circle cx="126.98" cy="403.03" r="17.19" fill="#C4C4C4"/>
        <circle cx="126.98" cy="403.03" r="17.19" fill="url(#A)"/>
      </g>
      <path fill="#fff" fill-rule="evenodd" d="m127.23 404.96 5.93 5.93 1.68-1.68-5.93-5.93 5.93-5.93-1.68-1.68-5.93 5.93-5.94-5.93-1.68 1.68 5.94 5.93-5.94 5.93 1.68 1.68 5.94-5.93Z" clip-rule="evenodd"/>
      <path fill="#7C678B" d="M156.72 416.54h6.46v-.38h.76v-.38h.38v-.38h.38v-.76h.38V412h-.38v-.38h-.38v-.76h.38v-.38h.38v-2.66h-.38v-.76h-.38v-.38h-.38v-.38h-.76v-.38h-6.46v10.63Zm2.28-6.45v-1.9h3.42v.38h.38v1.14h-.38v.38H159Zm0 4.18v-1.9h3.42v.38h.38v1.13h-.38v.38H159Zm7.26.37h.38v.76h.38v.38h.38v.38h.75v.38h3.42v-.38h.76v-.38h.38v-.38h.38v-1.13h-2.28v.37h-2.28v-1.13h4.56v-2.66h-.38v-.76h-.38v-.38h-.38v-.38h-.76v-.38h-3.03v.38h-.76v.38h-.38v.38h-.38v.76h-.38v3.8Zm2.28-2.65v-1.14h2.27v1.14h-2.28Zm5.36-.76h1.13v5.31h2.28v-5.31h1.9v-2.28h-1.9v-.76h1.9v-2.28h-3.42v.38h-.38v.38h-.38v2.28h-1.14v2.28Zm5.93 3.41h.38v.76h.38v.38h.38v.38h.76v.38h3.41v-.38h.76v-.38h.38v-.38h.38v-.76h.38v-3.8h-.38v-.75h-.38v-.38h-.38v-.38h-.76v-.38h-3.41v.38h-.76v.38h-.38v.38h-.38v.76h-.38v3.8Zm2.28-.75v-2.28h.38v-.38h1.9v.38h.37v2.27h-.38v.38h-1.9v-.38h-.37Zm6.12 2.65h2.28V412h.38v-.38h.38v-.38h1.52v-2.28h-1.52v.38h-.38v.38h-.38v-.76h-2.28v7.6Zm5.17-1.9h.38v.76h.38v.38h.38v.38h.76v.38h3.41v-.38h.76v-.38h.38v-.38h.38v-1.13h-2.27v.37h-2.28v-1.13h4.55v-2.66h-.38v-.76h-.38v-.38h-.38v-.38h-.75v-.38h-3.04v.38h-.76v.38h-.38v.38h-.38v.76h-.38v3.8Zm2.28-2.65v-1.14h2.28v1.14h-2.28Zm8.06 4.55h2.28v-1.14h.38v-.76h4.55v.76h.38v1.14h2.28v-1.52h-.38v-1.13h-.38v-1.14h-.38v-1.14h-.38v-1.14h-.38v-1.14h-.38v-1.14h-.38v-1.14h-.38v-1.14h-3.8v1.14h-.37v1.14h-.38v1.14h-.38v1.14h-.38v1.14h-.38v1.14h-.38v1.13h-.38v1.14h-.38v1.52Zm3.41-4.17v-.38h.38v-1.14h.38v-1.14h.38v-1.14h.76v1.14h.38v1.14h.38v1.14h.38v.38h-3.03Zm7.08 3.03h.38v.38h.38v.38h.75v.38h3.42v-.38h.76v-.38h.38v-.76h.38v-1.51h-.38v-.76h-.38v-.38h-.76v-.38h-2.66v-1.14h1.9v.38h2.28v-1.14h-.38v-.38h-.38v-.38h-.76v-.38h-3.41v.38h-.76v.38h-.38v.76h-.38v1.52h.38v.76h.38v.38h.75v.38h2.66v1.13h-1.9v-.38h-2.27v1.14Zm7.07-4.17h1.13v4.55h.38v.38h.38v.38h3.42v-2.28h-1.9v-3.03h1.9v-2.28h-1.9v-2.28h-2.28v2.28h-1.14v2.28Zm6.3 5.31h2.28V412h.38v-.38h.38v-.38h1.52v-2.28h-1.52v.38h-.38v.38h-.38v-.76h-2.28v7.6Zm5.17-1.9h.38v.76h.38v.38h.38v.38h.76v.38h3.42v-.38h.76v-.38h.38v-.38h.38v-.76h.38v-3.8h-.38v-.75h-.38v-.38h-.38v-.38h-.76v-.38h-3.42v.38h-.76v.38h-.38v.38h-.38v.76h-.38v3.8Zm2.28-.75v-2.28h.38v-.38h1.9v.38h.38v2.27h-.38v.38h-1.9v-.38h-.38Zm-78.45-13.05h7.96v-2.51h-4.2v-.42h.42v-.42h.42v-.42h.42v-.42h.42v-.42h.42v-.42h.42v-.42h.42v-.42h.42v-.42h.42v-.84h.42v-2.51h-.42v-.84h-.42v-.42h-.42v-.42h-.84v-.42h-3.77v.42h-.84v.42h-.42v.42h-.42v.84h-.42v1.68h2.52v-.84h.42v-.42h2.1v.42h.41v1.25h-.42v.42h-.42v.42h-.41v.42h-.42v.42h-.42v.42h-.42v.42h-.42v.42h-.42v.42h-.42v.42h-.42v.42h-.42v.42h-.42v.42h-.42v2.51Zm8.86-2.09h.41v.83h.42v.42h.42v.42h.84v.42h4.2v-.42h.83V400h.42v-.42h.42v-.83h.42v-3.36h-.42v-.84H173v-.42h-.42v-.42h-.84v-.42h-3.35v-1.67h5.03v-2.52h-7.55v6.71h5.04v.42h.41v1.68h-.41v.42h-2.52v-.42h-.42v-.42h-2.51v1.25Zm9.47 0h.42v.83h.42v.42h.42v.42h.84v.42h4.2v-.42h.83V400h.42v-.42h.42v-.83h.42v-3.36h-.42v-.84h-.42v-.42h-.42v-.42h-.84v-.42h-3.35v-1.67h5.03v-2.52h-7.55v6.71h5.03v.42h.42v1.68h-.42v.42h-2.51v-.42h-.42v-.42h-2.52v1.25Zm12.88 2.09h2.52v-2.93h.42v.42h.42v.42h.42v.41h.41v.42h.43v.42h.41v.42h.42v.42h2.52v-1.26h-.42v-.42h-.42v-.42h-.42v-.41h-.42v-.42h-.42v-.42h-.42v-.42h-.42v-.84h.42v-.42h.42v-.42h.42v-.42h.42v-.42h.42v-.42h.42v-.42h.42v-1.25h-2.52v.42h-.42v.41h-.41v.42H192v.42h-.41v.42h-.42v.42h-.42v.42h-.42v-6.29h-2.52v11.74Zm8.85 0h7.13v-.42h.84V400h.42v-.42h.41v-.83h.42v-2.94h-.41v-.42h-.42v-.84h.41v-.42h.42v-2.93h-.41v-.84h-.42v-.42h-.42v-.42h-.84v-.42h-7.13v11.74Zm2.52-7.13v-2.1h3.77v.43h.42v1.25h-.42v.42h-3.77Zm0 4.62v-2.1h3.77v.42h.42v1.26h-.42v.42h-3.77Z"/>
    </g>
  </g>
  <defs>
    <linearGradient id="b" x1="449.67" x2="449.67" y1="64" y2="411.78" gradientUnits="userSpaceOnUse">
      <stop stop-color="#FAFAFA" stop-opacity="0"/>
      <stop offset="1" stop-color="#F4EFED"/>
    </linearGradient>
    <linearGradient id="d" x1="449.67" x2="449.67" y1="64" y2="411.78" gradientUnits="userSpaceOnUse">
      <stop stop-color="#FFD542"/>
      <stop offset=".18" stop-color="#FF5050"/>
      <stop offset="1" stop-color="#AF43FF"/>
    </linearGradient>
    <linearGradient id="f" x1="449.67" x2="449.67" y1="64" y2="411.78" gradientUnits="userSpaceOnUse">
      <stop stop-color="#FAFAFA" stop-opacity="0"/>
      <stop offset="1" stop-color="#F3E9FA"/>
    </linearGradient>
    <linearGradient id="g" x1="571" x2="571" y1="85.61" y2="240.84" gradientUnits="userSpaceOnUse">
      <stop stop-color="#FFE99B"/>
      <stop offset=".18" stop-color="#FCB6B6"/>
      <stop offset="1" stop-color="#C888F6"/>
    </linearGradient>
    <linearGradient id="h" x1="420.49" x2="420.49" y1="85.61" y2="240.84" gradientUnits="userSpaceOnUse">
      <stop stop-color="#FFB4B4"/>
      <stop offset="1" stop-color="#C487F0"/>
    </linearGradient>
    <linearGradient id="j" x1="449.67" x2="449.67" y1="380.34" y2="433.39" gradientUnits="userSpaceOnUse">
      <stop stop-color="#FAFAFA" stop-opacity="0"/>
      <stop offset="1" stop-color="#F4EFED"/>
    </linearGradient>
    <linearGradient id="l" x1="395.15" x2="395.15" y1="388.2" y2="424.55" gradientUnits="userSpaceOnUse">
      <stop stop-color="#11E1E1"/>
      <stop offset="1" stop-color="#31BD0E" stop-opacity=".93"/>
    </linearGradient>
    <linearGradient id="m" x1="395.15" x2="395" y1="388.2" y2="429.99" gradientUnits="userSpaceOnUse">
      <stop stop-color="#205EFF"/>
      <stop offset="1" stop-color="#C238BD"/>
    </linearGradient>
    <linearGradient id="n" x1="395.35" x2="395.35" y1="410.84" y2="417.03" gradientUnits="userSpaceOnUse">
      <stop stop-color="#FFCD83"/>
      <stop offset="1" stop-color="#EC672C"/>
    </linearGradient>
    <linearGradient id="o" x1="478.65" x2="478.64" y1="389.18" y2="410.39" gradientUnits="userSpaceOnUse">
      <stop stop-color="#205EFF"/>
      <stop offset="1" stop-color="#C238BD"/>
    </linearGradient>
    <linearGradient id="p" x1="478.65" x2="478.64" y1="389.18" y2="410.39" gradientUnits="userSpaceOnUse">
      <stop stop-color="#205EFF"/>
      <stop offset="1" stop-color="#C238BD"/>
    </linearGradient>
    <linearGradient id="q" x1="478.65" x2="478.64" y1="389.18" y2="410.39" gradientUnits="userSpaceOnUse">
      <stop stop-color="#205EFF"/>
      <stop offset="1" stop-color="#C238BD"/>
    </linearGradient>
    <linearGradient id="r" x1="478.65" x2="478.64" y1="389.18" y2="410.39" gradientUnits="userSpaceOnUse">
      <stop stop-color="#205EFF"/>
      <stop offset="1" stop-color="#C238BD"/>
    </linearGradient>
    <linearGradient id="s" x1="478.65" x2="478.64" y1="389.18" y2="410.39" gradientUnits="userSpaceOnUse">
      <stop stop-color="#205EFF"/>
      <stop offset="1" stop-color="#C238BD"/>
    </linearGradient>
    <linearGradient id="t" x1="478.65" x2="478.64" y1="389.18" y2="410.39" gradientUnits="userSpaceOnUse">
      <stop stop-color="#205EFF"/>
      <stop offset="1" stop-color="#C238BD"/>
    </linearGradient>
    <linearGradient id="v" x1="181.89" x2="181.89" y1="64" y2="411.78" gradientUnits="userSpaceOnUse">
      <stop stop-color="#FAFAFA" stop-opacity="0"/>
      <stop offset="1" stop-color="#F4EFED"/>
    </linearGradient>
    <linearGradient id="y" x1="181.51" x2="181.51" y1="377" y2="430.05" gradientUnits="userSpaceOnUse">
      <stop stop-color="#FAFAFA" stop-opacity="0"/>
      <stop offset="1" stop-color="#F4EFED"/>
    </linearGradient>
    <linearGradient id="A" x1="126.98" x2="126.98" y1="385.84" y2="420.23" gradientUnits="userSpaceOnUse">
      <stop stop-color="#FA8C5D"/>
      <stop offset="1" stop-color="#CC2727"/>
    </linearGradient>
    <filter id="a" width="328.13" height="465.67" x="285.61" y="64" color-interpolation-filters="sRGB" filterUnits="userSpaceOnUse">
      <feFlood flood-opacity="0" result="BackgroundImageFix"/>
      <feColorMatrix in="SourceAlpha" result="hardAlpha" values="0 0 0 0 0 0 0 0 0 0 0 0 0 0 0 0 0 0 127 0"/>
      <feOffset dy="2.27"/>
      <feGaussianBlur stdDeviation="1.05"/>
      <feColorMatrix values="0 0 0 0 0.192157 0 0 0 0 0.0745098 0 0 0 0 0.227451 0 0 0 0.0418093 0"/>
      <feBlend in2="BackgroundImageFix" result="effect1_dropShadow_626_368"/>
      <feColorMatrix in="SourceAlpha" result="hardAlpha" values="0 0 0 0 0 0 0 0 0 0 0 0 0 0 0 0 0 0 127 0"/>
      <feOffset dy="6.27"/>
      <feGaussianBlur stdDeviation="2.89"/>
      <feColorMatrix values="0 0 0 0 0.192157 0 0 0 0 0.0745098 0 0 0 0 0.227451 0 0 0 0.06 0"/>
      <feBlend in2="effect1_dropShadow_626_368" result="effect2_dropShadow_626_368"/>
      <feColorMatrix in="SourceAlpha" result="hardAlpha" values="0 0 0 0 0 0 0 0 0 0 0 0 0 0 0 0 0 0 127 0"/>
      <feOffset dy="15.1"/>
      <feGaussianBlur stdDeviation="6.96"/>
      <feColorMatrix values="0 0 0 0 0.192157 0 0 0 0 0.0745098 0 0 0 0 0.227451 0 0 0 0.0781907 0"/>
      <feBlend in2="effect2_dropShadow_626_368" result="effect3_dropShadow_626_368"/>
      <feColorMatrix in="SourceAlpha" result="hardAlpha" values="0 0 0 0 0 0 0 0 0 0 0 0 0 0 0 0 0 0 127 0"/>
      <feOffset dy="50.1"/>
      <feGaussianBlur stdDeviation="23.09"/>
      <feColorMatrix values="0 0 0 0 0.192157 0 0 0 0 0.0745098 0 0 0 0 0.227451 0 0 0 0.12 0"/>
      <feBlend in2="effect3_dropShadow_626_368" result="effect4_dropShadow_626_368"/>
      <feBlend in="SourceGraphic" in2="effect4_dropShadow_626_368" result="shape"/>
    </filter>
    <filter id="c" width="251.78" height="363.78" x="323.78" y="56" color-interpolation-filters="sRGB" filterUnits="userSpaceOnUse">
      <feFlood flood-opacity="0" result="BackgroundImageFix"/>
      <feBlend in="SourceGraphic" in2="BackgroundImageFix" result="shape"/>
      <feGaussianBlur result="effect1_foregroundBlur_626_368" stdDeviation="4"/>
    </filter>
    <filter id="k" width="85.16" height="87.24" x="352.57" y="388.2" color-interpolation-filters="sRGB" filterUnits="userSpaceOnUse">
      <feFlood flood-opacity="0" result="BackgroundImageFix"/>
      <feColorMatrix in="SourceAlpha" result="hardAlpha" values="0 0 0 0 0 0 0 0 0 0 0 0 0 0 0 0 0 0 127 0"/>
      <feOffset dy="1.2"/>
      <feGaussianBlur stdDeviation=".55"/>
      <feColorMatrix values="0 0 0 0 0.192157 0 0 0 0 0.0745098 0 0 0 0 0.227451 0 0 0 0.0418093 0"/>
      <feBlend in2="BackgroundImageFix" result="effect1_dropShadow_626_368"/>
      <feColorMatrix in="SourceAlpha" result="hardAlpha" values="0 0 0 0 0 0 0 0 0 0 0 0 0 0 0 0 0 0 127 0"/>
      <feOffset dy="3.32"/>
      <feGaussianBlur stdDeviation="1.53"/>
      <feColorMatrix values="0 0 0 0 0.192157 0 0 0 0 0.0745098 0 0 0 0 0.227451 0 0 0 0.06 0"/>
      <feBlend in2="effect1_dropShadow_626_368" result="effect2_dropShadow_626_368"/>
      <feColorMatrix in="SourceAlpha" result="hardAlpha" values="0 0 0 0 0 0 0 0 0 0 0 0 0 0 0 0 0 0 127 0"/>
      <feOffset dy="7.98"/>
      <feGaussianBlur stdDeviation="3.68"/>
      <feColorMatrix values="0 0 0 0 0.192157 0 0 0 0 0.0745098 0 0 0 0 0.227451 0 0 0 0.0781907 0"/>
      <feBlend in2="effect2_dropShadow_626_368" result="effect3_dropShadow_626_368"/>
      <feColorMatrix in="SourceAlpha" result="hardAlpha" values="0 0 0 0 0 0 0 0 0 0 0 0 0 0 0 0 0 0 127 0"/>
      <feOffset dy="26.48"/>
      <feGaussianBlur stdDeviation="12.2"/>
      <feColorMatrix values="0 0 0 0 0.192157 0 0 0 0 0.0745098 0 0 0 0 0.227451 0 0 0 0.12 0"/>
      <feBlend in2="effect3_dropShadow_626_368" result="effect4_dropShadow_626_368"/>
      <feBlend in="SourceGraphic" in2="effect4_dropShadow_626_368" result="shape"/>
    </filter>
    <filter id="u" width="328.13" height="444.06" x="17.83" y="64" color-interpolation-filters="sRGB" filterUnits="userSpaceOnUse">
      <feFlood flood-opacity="0" result="BackgroundImageFix"/>
      <feColorMatrix in="SourceAlpha" result="hardAlpha" values="0 0 0 0 0 0 0 0 0 0 0 0 0 0 0 0 0 0 127 0"/>
      <feOffset dy="2.27"/>
      <feGaussianBlur stdDeviation="1.05"/>
      <feColorMatrix values="0 0 0 0 0.192157 0 0 0 0 0.0745098 0 0 0 0 0.227451 0 0 0 0.0418093 0"/>
      <feBlend in2="BackgroundImageFix" result="effect1_dropShadow_626_368"/>
      <feColorMatrix in="SourceAlpha" result="hardAlpha" values="0 0 0 0 0 0 0 0 0 0 0 0 0 0 0 0 0 0 127 0"/>
      <feOffset dy="6.27"/>
      <feGaussianBlur stdDeviation="2.89"/>
      <feColorMatrix values="0 0 0 0 0.192157 0 0 0 0 0.0745098 0 0 0 0 0.227451 0 0 0 0.06 0"/>
      <feBlend in2="effect1_dropShadow_626_368" result="effect2_dropShadow_626_368"/>
      <feColorMatrix in="SourceAlpha" result="hardAlpha" values="0 0 0 0 0 0 0 0 0 0 0 0 0 0 0 0 0 0 127 0"/>
      <feOffset dy="15.1"/>
      <feGaussianBlur stdDeviation="6.96"/>
      <feColorMatrix values="0 0 0 0 0.192157 0 0 0 0 0.0745098 0 0 0 0 0.227451 0 0 0 0.0781907 0"/>
      <feBlend in2="effect2_dropShadow_626_368" result="effect3_dropShadow_626_368"/>
      <feColorMatrix in="SourceAlpha" result="hardAlpha" values="0 0 0 0 0 0 0 0 0 0 0 0 0 0 0 0 0 0 127 0"/>
      <feOffset dy="50.1"/>
      <feGaussianBlur stdDeviation="23.09"/>
      <feColorMatrix values="0 0 0 0 0.192157 0 0 0 0 0.0745098 0 0 0 0 0.227451 0 0 0 0.12 0"/>
      <feBlend in2="effect3_dropShadow_626_368" result="effect4_dropShadow_626_368"/>
      <feBlend in="SourceGraphic" in2="effect4_dropShadow_626_368" result="shape"/>
    </filter>
    <filter id="w" width="259.36" height="149.33" x="51.83" y="377" color-interpolation-filters="sRGB" filterUnits="userSpaceOnUse">
      <feFlood flood-opacity="0" result="BackgroundImageFix"/>
      <feColorMatrix in="SourceAlpha" result="hardAlpha" values="0 0 0 0 0 0 0 0 0 0 0 0 0 0 0 0 0 0 127 0"/>
      <feOffset dy="2.27"/>
      <feGaussianBlur stdDeviation="1.05"/>
      <feColorMatrix values="0 0 0 0 0.192157 0 0 0 0 0.0745098 0 0 0 0 0.227451 0 0 0 0.0418093 0"/>
      <feBlend in2="BackgroundImageFix" result="effect1_dropShadow_626_368"/>
      <feColorMatrix in="SourceAlpha" result="hardAlpha" values="0 0 0 0 0 0 0 0 0 0 0 0 0 0 0 0 0 0 127 0"/>
      <feOffset dy="6.27"/>
      <feGaussianBlur stdDeviation="2.89"/>
      <feColorMatrix values="0 0 0 0 0.192157 0 0 0 0 0.0745098 0 0 0 0 0.227451 0 0 0 0.06 0"/>
      <feBlend in2="effect1_dropShadow_626_368" result="effect2_dropShadow_626_368"/>
      <feColorMatrix in="SourceAlpha" result="hardAlpha" values="0 0 0 0 0 0 0 0 0 0 0 0 0 0 0 0 0 0 127 0"/>
      <feOffset dy="15.1"/>
      <feGaussianBlur stdDeviation="6.96"/>
      <feColorMatrix values="0 0 0 0 0.192157 0 0 0 0 0.0745098 0 0 0 0 0.227451 0 0 0 0.0781907 0"/>
      <feBlend in2="effect2_dropShadow_626_368" result="effect3_dropShadow_626_368"/>
      <feColorMatrix in="SourceAlpha" result="hardAlpha" values="0 0 0 0 0 0 0 0 0 0 0 0 0 0 0 0 0 0 127 0"/>
      <feOffset dy="50.1"/>
      <feGaussianBlur stdDeviation="23.09"/>
      <feColorMatrix values="0 0 0 0 0.192157 0 0 0 0 0.0745098 0 0 0 0 0.227451 0 0 0 0.12 0"/>
      <feBlend in2="effect3_dropShadow_626_368" result="effect4_dropShadow_626_368"/>
      <feBlend in="SourceGraphic" in2="effect4_dropShadow_626_368" result="shape"/>
    </filter>
    <filter id="z" width="83.2" height="85.27" x="85.38" y="385.84" color-interpolation-filters="sRGB" filterUnits="userSpaceOnUse">
      <feFlood flood-opacity="0" result="BackgroundImageFix"/>
      <feColorMatrix in="SourceAlpha" result="hardAlpha" values="0 0 0 0 0 0 0 0 0 0 0 0 0 0 0 0 0 0 127 0"/>
      <feOffset dy="1.2"/>
      <feGaussianBlur stdDeviation=".55"/>
      <feColorMatrix values="0 0 0 0 0.192157 0 0 0 0 0.0745098 0 0 0 0 0.227451 0 0 0 0.0418093 0"/>
      <feBlend in2="BackgroundImageFix" result="effect1_dropShadow_626_368"/>
      <feColorMatrix in="SourceAlpha" result="hardAlpha" values="0 0 0 0 0 0 0 0 0 0 0 0 0 0 0 0 0 0 127 0"/>
      <feOffset dy="3.32"/>
      <feGaussianBlur stdDeviation="1.53"/>
      <feColorMatrix values="0 0 0 0 0.192157 0 0 0 0 0.0745098 0 0 0 0 0.227451 0 0 0 0.06 0"/>
      <feBlend in2="effect1_dropShadow_626_368" result="effect2_dropShadow_626_368"/>
      <feColorMatrix in="SourceAlpha" result="hardAlpha" values="0 0 0 0 0 0 0 0 0 0 0 0 0 0 0 0 0 0 127 0"/>
      <feOffset dy="7.98"/>
      <feGaussianBlur stdDeviation="3.68"/>
      <feColorMatrix values="0 0 0 0 0.192157 0 0 0 0 0.0745098 0 0 0 0 0.227451 0 0 0 0.0781907 0"/>
      <feBlend in2="effect2_dropShadow_626_368" result="effect3_dropShadow_626_368"/>
      <feColorMatrix in="SourceAlpha" result="hardAlpha" values="0 0 0 0 0 0 0 0 0 0 0 0 0 0 0 0 0 0 127 0"/>
      <feOffset dy="26.48"/>
      <feGaussianBlur stdDeviation="12.2"/>
      <feColorMatrix values="0 0 0 0 0.192157 0 0 0 0 0.0745098 0 0 0 0 0.227451 0 0 0 0.12 0"/>
      <feBlend in2="effect3_dropShadow_626_368" result="effect4_dropShadow_626_368"/>
      <feBlend in="SourceGraphic" in2="effect4_dropShadow_626_368" result="shape"/>
    </filter>
    <clipPath id="e">
      <rect width="235.78" height="347.78" x="331.78" y="64" fill="#fff" rx="14.74"/>
    </clipPath>
    <clipPath id="i">
      <rect width="167.01" height="53.05" x="366.17" y="380.34" fill="#fff" rx="26.53"/>
    </clipPath>
    <clipPath id="x">
      <rect width="167.01" height="53.05" x="98" y="377" fill="#fff" rx="26.53"/>
    </clipPath>
  </defs>
</svg>
