<svg xmlns="http://www.w3.org/2000/svg" fill="none" viewBox="0 0 631 530">
  <g filter="url(#a)">
    <rect width="235.78" height="347.78" x="331.78" y="64.05" fill="#FAFAFA" rx="73.68"/>
    <rect width="235.78" height="347.78" x="331.78" y="64.05" fill="url(#b)" rx="73.68"/>
    <g filter="url(#c)">
      <path fill="url(#d)" d="M331.78 78.79c0-8.14 7.76-14.74 17.34-14.74h201.1c9.58 0 17.34 6.6 17.34 14.74v318.3c0 8.14-7.76 14.74-17.33 14.74H349.12c-9.58 0-17.34-6.6-17.34-14.74V78.8Z"/>
    </g>
    <g clip-path="url(#e)">
      <path fill="#FAFAFA" d="M331.78 78.79c0-8.14 7.76-14.74 17.34-14.74h201.1c9.58 0 17.34 6.6 17.34 14.74v318.3c0 8.14-7.76 14.74-17.33 14.74H349.12c-9.58 0-17.34-6.6-17.34-14.74V78.8Z"/>
      <path fill="url(#f)" d="M331.78 78.79c0-8.14 7.76-14.74 17.34-14.74h201.1c9.58 0 17.34 6.6 17.34 14.74v318.3c0 8.14-7.76 14.74-17.33 14.74H349.12c-9.58 0-17.34-6.6-17.34-14.74V78.8Z"/>
      <g clip-path="url(#g)">
        <path fill="#E7D6F3" fill-rule="evenodd" d="M360.28 141.35a5.77 5.77 0 0 0-5.77 5.78V218a5.77 5.77 0 0 0 5.77 5.77h71.63a5.77 5.77 0 0 0 5.77-5.78v-70.87a5.77 5.77 0 0 0-5.77-5.78h-71.63Zm21.32 12h-4.63v1.15h-2.31v1.16h-2.31v2.31h-1.16v2.32h-2.32v2.31h-1.16v4.63h1.16v2.31h2.32v2.32h1.16v2.31h2.3v1.16h2.32v1.16h4.63v-1.16h2.32v-1.16h2.31v-2.31h1.16v-2.32h2.31v-2.3h1.16v-4.64h-1.16v-2.31h-2.31v-2.32h-1.16v-2.31h-2.31v-1.16h-2.32v-1.16Zm-13.44 53.4h-3.12v4.46h62.32v-4h-1.78v-4.01h-1.78v-3.56h-2.22v-3.12h-2.23v-4.45h-1.78v-3.56h-2.23v-4.9h-2.22v-3.12h-1.78v-2.67h-1.78v-3.11h-2.67v3.11h-1.78v2.68h-1.78v3.11h-1.78v4.9h-1.79v3.56h-2.22v4.45h-2.67v3.12h-4.45v-3.12h-2.67v-3.12h-3.56v-3.11h-5.35v3.11h-2.22v3.12h-2.67v3.12h-2.67v3.11h-3.12v4Z" clip-rule="evenodd"/>
        <rect width="94.92" height="14.68" x="449.42" y="141.35" fill="#E7D6F3" rx="7.34"/>
        <rect width="69.47" height="14.68" x="449.42" y="163.86" fill="url(#h)" rx="7.34"/>
      </g>
      <g clip-path="url(#i)">
        <path fill="#E7D6F3" fill-rule="evenodd" d="M360.28 248.99a5.77 5.77 0 0 0-5.77 5.77v70.88a5.77 5.77 0 0 0 5.77 5.78h71.63a5.77 5.77 0 0 0 5.77-5.78v-70.88a5.77 5.77 0 0 0-5.77-5.77h-71.63Zm21.32 11.99h-4.63v1.16h-2.31v1.15h-2.31v2.32h-1.16v2.31h-2.32v2.32h-1.16v4.63h1.16v2.31h2.32v2.32h1.16v2.31h2.3v1.16h2.32v1.16h4.63v-1.16h2.32v-1.16h2.31v-2.31h1.16v-2.32h2.31v-2.31h1.16v-4.63h-1.16v-2.32h-2.31v-2.31h-1.16v-2.32h-2.31v-1.15h-2.32v-1.16Zm-13.44 53.41h-3.12v4.46h62.32v-4.01h-1.78v-4h-1.78v-3.57h-2.22v-3.11h-2.23v-4.46h-1.78v-3.56h-2.23v-4.9h-2.22v-3.1h-1.78v-2.68h-1.78v-3.11h-2.67v3.11h-1.78v2.67h-1.78v3.12h-1.78v4.9h-1.79v3.56h-2.22v4.45h-2.67v3.11h-4.45v-3.11h-2.67v-3.12h-3.56v-3.12h-5.35v3.12h-2.22v3.12h-2.67v3.11h-2.67v3.12h-3.12v4Z" clip-rule="evenodd"/>
        <rect width="94.92" height="14.68" x="449.42" y="248.99" fill="#E7D6F3" rx="7.34"/>
        <rect width="69.47" height="14.68" x="449.42" y="271.5" fill="url(#j)" rx="7.34"/>
      </g>
      <g clip-path="url(#k)">
        <path fill="#E7D6F3" fill-rule="evenodd" d="M360.28 349.78a5.77 5.77 0 0 0-5.77 5.77v70.88a5.77 5.77 0 0 0 5.77 5.77h71.63a5.77 5.77 0 0 0 5.77-5.77v-70.88a5.77 5.77 0 0 0-5.77-5.77h-71.63Zm21.32 11.99h-4.63v1.15h-2.31v1.16h-2.31v2.32h-1.16v2.31h-2.32v2.31h-1.16v4.63h1.16v2.32h2.32v2.31h1.16v2.32h2.3v1.16h2.32v1.15h4.63v-1.15h2.32v-1.16h2.31v-2.32h1.16v-2.31h2.31v-2.32h1.16v-4.63h-1.16v-2.31h-2.31v-2.31h-1.16v-2.32h-2.31v-1.16h-2.32v-1.15Zm-13.44 53.41h-3.12v4.45h62.32v-4h-1.78v-4.01h-1.78v-3.56h-2.22v-3.12h-2.23v-4.45h-1.78v-3.56h-2.23v-4.9h-2.22v-3.11h-1.78v-2.67h-1.78v-3.12h-2.67v3.12h-1.78v2.67h-1.78v3.12h-1.78v4.9h-1.79v3.55h-2.22v4.45h-2.67v3.12h-4.45v-3.12h-2.67v-3.11h-3.56v-3.12h-5.35v3.12h-2.22v3.11h-2.67v3.12h-2.67v3.12h-3.12v4Z" clip-rule="evenodd"/>
        <rect width="94.92" height="14.68" x="449.42" y="349.78" fill="#E7D6F3" rx="7.34"/>
        <rect width="69.47" height="14.68" x="449.42" y="372.28" fill="url(#l)" rx="7.34"/>
      </g>
      <circle cx="534.55" cy="100.26" r="15.66" fill="url(#m)"/>
      <rect width="66.54" height="31.31" x="354.51" y="84.6" fill="#E7D6F3" rx="4.89"/>
    </g>
    <g clip-path="url(#n)">
      <rect width="167.01" height="53.05" x="366.17" y="380.39" fill="#FAFAFA" rx="26.53"/>
      <rect width="167.01" height="53.05" x="366.17" y="380.39" fill="url(#o)" rx="26.53"/>
      <g filter="url(#p)">
        <circle cx="395.15" cy="406.43" r="18.17" fill="#FAFAFA"/>
        <circle cx="395.15" cy="406.43" r="18.17" fill="url(#q)"/>
        <circle cx="395.15" cy="406.43" r="18.17" fill="url(#r)"/>
      </g>
      <path fill="#fff" fill-rule="evenodd" d="M398.3 398.08c.15.2.24.46.4.99l3.61 11.51a15.34 15.34 0 0 0-4.32-1.42l-2.35-7.71a.3.3 0 0 0-.1-.15.31.31 0 0 0-.37 0 .3.3 0 0 0-.11.15l-2.33 7.71c-1.5.26-2.97.74-4.33 1.42l3.63-11.52c.16-.52.25-.79.4-.98.15-.17.34-.3.55-.39.24-.1.52-.1 1.09-.1h2.59c.57 0 .85 0 1.09.1.21.08.4.22.54.39Zm.19 13.18c-.56.5-1.68.84-2.97.84-1.58 0-2.9-.51-3.26-1.2a4 4 0 0 0-.15 1.14s-.09 1.42.86 2.41c0-.51.4-.93.9-.93.84 0 .83.77.83 1.4v.05c0 .95.56 1.76 1.34 2.1a1.98 1.98 0 0 1-.18-.83c0-.9.5-1.24 1.1-1.63.47-.32.99-.66 1.35-1.36a2.66 2.66 0 0 0 .18-2Z" clip-rule="evenodd"/>
      <path fill="url(#s)" fill-rule="evenodd" d="M398.49 411.26c-.56.5-1.68.84-2.97.84-1.58 0-2.9-.51-3.26-1.2a4 4 0 0 0-.15 1.14s-.09 1.42.86 2.41c0-.51.4-.93.9-.93.84 0 .83.77.83 1.4v.05c0 .95.56 1.76 1.34 2.1a1.98 1.98 0 0 1-.18-.83c0-.9.5-1.24 1.1-1.63.47-.32.99-.66 1.35-1.36a2.66 2.66 0 0 0 .18-2Z" clip-rule="evenodd"/>
      <path fill="#7C678B" d="M424.32 419.93h2.28v-1.14h.38v-.75h4.55v.75h.38v1.14h2.28v-1.51h-.38v-1.14h-.38v-1.14h-.38V415h-.38v-1.14h-.38v-1.14h-.38v-1.14h-.38v-1.14h-.38v-1.14h-3.8v1.14h-.37v1.14h-.38v1.14h-.38v1.14h-.38V415h-.38v1.14h-.38v1.14h-.38v1.14h-.38v1.51Zm3.42-4.17v-.38h.38v-1.14h.38v-1.14h.38v-1.14h.75v1.14h.38v1.14h.38v1.14h.38v.38h-3.03Zm6.49-1.14h1.14v5.31h2.28v-5.31h1.9v-2.28h-1.9v-.76h1.9v-2.28h-3.42v.38h-.38v.38h-.38v2.28h-1.14v2.28Zm5.93 0h1.14v4.55h.38v.38h.38v.38h3.42v-2.28h-1.9v-3.03h1.9v-2.28h-1.9v-2.28h-2.28v2.28h-1.14v2.28Zm6.12 3.42h.38v.75h.38v.38h.38v.38h.76v.38h3.42v-.38h.76v-.38h.38v-.38h.38v-1.14h-2.28v.39h-2.28v-1.14h4.56v-2.66h-.38v-.76h-.38v-.38h-.38v-.38h-.76v-.38h-3.04v.38h-.76v.38h-.38v.38h-.38v.76h-.38v3.8Zm2.28-2.66v-1.14h2.28v1.14h-2.28Zm5.74 4.55h2.28v-4.55h.38V415h.38v-.38h1.52v-2.28h-1.52v.38h-.38v.38h-.38v-.76h-2.28v7.6Zm7.68 0h2.28v-1.14h.38v-.75h4.55v.75h.38v1.14h2.28v-1.51h-.38v-1.14h-.38v-1.14h-.38V415h-.38v-1.14h-.38v-1.14h-.38v-1.14h-.38v-1.14h-.38v-1.14h-3.8v1.14h-.37v1.14h-.38v1.14h-.38v1.14h-.38V415h-.38v1.14h-.38v1.14h-.38v1.14h-.38v1.51Zm3.42-4.17v-.38h.38v-1.14h.38v-1.14h.38v-1.14h.76v1.14h.38v1.14h.38v1.14h.38v.38h-3.04Zm7.07 3.04h.38v.37h.38v.38h.76v.38h3.41v-.38h.76v-.38h.38v-.75h.38v-1.52h-.38v-.76h-.38v-.38h-.76v-.38h-2.65v-1.14h1.9v.38h2.27v-1.14h-.38v-.38h-.38v-.38h-.76v-.38H474v.38h-.76v.38h-.38v.76h-.38v1.52h.38v.76h.38v.38h.76v.38h2.65v1.14h-1.9v-.39h-2.27v1.14Zm7.06-4.18h1.14v4.55h.38v.38h.38v.38h3.42v-2.28h-1.9v-3.03h1.9v-2.28h-1.9v-2.28h-2.28v2.28h-1.14v2.28Zm6.31 5.31h2.28v-4.55h.38V415h.38v-.38h1.52v-2.28h-1.52v.38h-.38v.38h-.38v-.76h-2.28v7.6Zm5.17-1.89h.38v.75h.38v.38h.38v.38h.76v.38h3.42v-.38h.76v-.38h.38v-.38h.38v-.75h.38v-3.8h-.38v-.76h-.38v-.38h-.38v-.38h-.76v-.38h-3.42v.38h-.76v.38h-.38v.38h-.38v.76h-.38v3.8Zm2.28-.76V415h.38v-.38h1.9v.38h.38v2.28h-.38v.38h-1.9v-.38h-.38Z"/>
      <path fill="#000" d="M424.76 403.94h7.94v-2.5h-4.18v-.42h.42v-.42h.42v-.42h.41v-.42h.42v-.41h.42v-.42h.42v-.42h.42v-.42h.41v-.41h.42v-.84h.42v-2.5h-.42v-.84h-.42v-.42h-.42v-.42h-.83v-.41h-3.76v.41h-.83v.42h-.42v.42h-.42v.83h-.42V396h2.5v-.83h.43v-.42h2.08v.42h.42v1.25h-.42v.42h-.41v.42h-.42v.42h-.42v.41h-.42v.42h-.41v.42h-.42v.42h-.42v.41h-.42v.42h-.41v.42h-.42v.42h-.42v.41h-.42v2.51Z"/>
      <path fill="url(#t)" d="M424.76 403.94h7.94v-2.5h-4.18v-.42h.42v-.42h.42v-.42h.41v-.42h.42v-.41h.42v-.42h.42v-.42h.42v-.42h.41v-.41h.42v-.84h.42v-2.5h-.42v-.84h-.42v-.42h-.42v-.42h-.83v-.41h-3.76v.41h-.83v.42h-.42v.42h-.42v.83h-.42V396h2.5v-.83h.43v-.42h2.08v.42h.42v1.25h-.42v.42h-.41v.42h-.42v.42h-.42v.41h-.42v.42h-.41v.42h-.42v.42h-.42v.41h-.42v.42h-.41v.42h-.42v.42h-.42v.41h-.42v2.51Z"/>
      <path fill="#000" d="M434 403.94h2.5v-2.5H434v2.5Z"/>
      <path fill="url(#u)" d="M434 403.94h2.5v-2.5H434v2.5Z"/>
      <path fill="#000" d="M437.6 401.85h.41v.84h.42v.41h.42v.42h.84v.42h4.17v-.42h.84v-.42h.42v-.41h.41v-.84h.42v-2.09h-.42v-.83h-.41v-.42h-.42v-.83h.42v-.42h.41v-.84h.42v-2.09h-.42v-.83h-.41v-.42h-.42v-.42h-.84v-.41h-4.17v.41h-.84v.42h-.42v.42h-.42v.83h-.41v1.26h2.5v-.42h.42v-.42h2.5v.42h.43v1.25h-.42v.42h-2.93v2.5h2.93v.42h.42v1.26h-.42v.41h-2.5v-.41h-.43v-.42h-2.5v1.25Z"/>
      <path fill="url(#v)" d="M437.6 401.85h.41v.84h.42v.41h.42v.42h.84v.42h4.17v-.42h.84v-.42h.42v-.41h.41v-.84h.42v-2.09h-.42v-.83h-.41v-.42h-.42v-.83h.42v-.42h.41v-.84h.42v-2.09h-.42v-.83h-.41v-.42h-.42v-.42h-.84v-.41h-4.17v.41h-.84v.42h-.42v.42h-.42v.83h-.41v1.26h2.5v-.42h.42v-.42h2.5v.42h.43v1.25h-.42v.42h-2.93v2.5h2.93v.42h.42v1.26h-.42v.41h-2.5v-.41h-.43v-.42h-2.5v1.25Z"/>
      <path fill="#000" d="M447.25 402.69h.41v.41h.42v.42h.84v.42h3.75v-.42h.84v-.42h.42v-.83h.42v-1.67h-.42v-.84h-.42v-.41h-.83v-.42h-2.93v-1.25h2.09v.41h2.5v-1.25h-.41v-.42h-.42V396h-.83v-.41h-3.76v.41h-.84v.42h-.42v.84h-.41v1.67h.41v.83h.42v.42h.84v.42h2.92v1.25h-2.09v-.42h-2.5v1.26Z"/>
      <path fill="url(#w)" d="M447.25 402.69h.41v.41h.42v.42h.84v.42h3.75v-.42h.84v-.42h.42v-.83h.42v-1.67h-.42v-.84h-.42v-.41h-.83v-.42h-2.93v-1.25h2.09v.41h2.5v-1.25h-.41v-.42h-.42V396h-.83v-.41h-3.76v.41h-.84v.42h-.42v.84h-.41v1.67h.41v.83h.42v.42h.84v.42h2.92v1.25h-2.09v-.42h-2.5v1.26Z"/>
      <path fill="#000" d="M458.2 394.75h3.34v9.19h2.5v-9.19h3.34v-2.5h-9.19v2.5Z"/>
      <path fill="url(#x)" d="M458.2 394.75h3.34v9.19h2.5v-9.19h3.34v-2.5h-9.19v2.5Z"/>
      <path fill="#000" d="M467.63 394.75h3.34v9.19h2.51v-9.19h3.34v-2.5h-9.19v2.5Z"/>
      <path fill="url(#y)" d="M467.63 394.75h3.34v9.19h2.51v-9.19h3.34v-2.5h-9.19v2.5Z"/>
      <path fill="#000" d="M477.7 403.94h2.5v-11.7h-2.5v11.7Z"/>
      <path fill="url(#z)" d="M477.7 403.94h2.5v-11.7h-2.5v11.7Z"/>
    </g>
  </g>
  <g filter="url(#A)">
    <path fill="#FAFAFA" d="M64 78.79c0-8.14 6.6-14.74 14.74-14.74h206.3c8.14 0 14.74 6.6 14.74 14.74v318.3c0 8.14-6.6 14.74-14.73 14.74H78.74c-8.14 0-14.74-6.6-14.74-14.74V78.8Z"/>
    <path fill="url(#B)" d="M64 78.79c0-8.14 6.6-14.74 14.74-14.74h206.3c8.14 0 14.74 6.6 14.74 14.74v318.3c0 8.14-6.6 14.74-14.73 14.74H78.74c-8.14 0-14.74-6.6-14.74-14.74V78.8Z"/>
    <g clip-path="url(#C)">
      <path fill="url(#D)" fill-rule="evenodd" d="M92.28 141.35a5.77 5.77 0 0 0-5.77 5.78V218a5.77 5.77 0 0 0 5.77 5.77h71.63a5.77 5.77 0 0 0 5.77-5.78v-70.87a5.77 5.77 0 0 0-5.77-5.78H92.28Zm21.32 12h-4.63v1.15h-2.31v1.16h-2.31v2.31h-1.16v2.32h-2.32v2.31h-1.15v4.63h1.15v2.31h2.32v2.32h1.16v2.31h2.3v1.16h2.32v1.16h4.63v-1.16h2.32v-1.16h2.31v-2.31h1.16v-2.32h2.31v-2.3h1.16v-4.64h-1.16v-2.31h-2.31v-2.32h-1.16v-2.31h-2.31v-1.16h-2.32v-1.16Zm-13.44 53.4h-3.12v4.46h62.32v-4h-1.78v-4.01h-1.78v-3.56h-2.22v-3.12h-2.23v-4.45h-1.78v-3.56h-2.23v-4.9h-2.22v-3.12h-1.78v-2.67h-1.78v-3.11h-2.67v3.11h-1.78v2.68h-1.78v3.11h-1.79v4.9h-1.78v3.56h-2.22v4.45h-2.67v3.12h-4.45v-3.12h-2.67v-3.12h-3.56v-3.11h-5.35v3.11h-2.22v3.12h-2.67v3.12h-2.67v3.11h-3.12v4Z" clip-rule="evenodd"/>
      <path fill="#EAE1DE" fill-rule="evenodd" d="M92.28 141.35a5.77 5.77 0 0 0-5.77 5.78V218a5.77 5.77 0 0 0 5.77 5.77h71.63a5.77 5.77 0 0 0 5.77-5.78v-70.87a5.77 5.77 0 0 0-5.77-5.78H92.28Zm21.32 12h-4.63v1.15h-2.31v1.16h-2.31v2.31h-1.16v2.32h-2.32v2.31h-1.15v4.63h1.15v2.31h2.32v2.32h1.16v2.31h2.3v1.16h2.32v1.16h4.63v-1.16h2.32v-1.16h2.31v-2.31h1.16v-2.32h2.31v-2.3h1.16v-4.64h-1.16v-2.31h-2.31v-2.32h-1.16v-2.31h-2.31v-1.16h-2.32v-1.16Zm-13.44 53.4h-3.12v4.46h62.32v-4h-1.78v-4.01h-1.78v-3.56h-2.22v-3.12h-2.23v-4.45h-1.78v-3.56h-2.23v-4.9h-2.22v-3.12h-1.78v-2.67h-1.78v-3.11h-2.67v3.11h-1.78v2.68h-1.78v3.11h-1.79v4.9h-1.78v3.56h-2.22v4.45h-2.67v3.12h-4.45v-3.12h-2.67v-3.12h-3.56v-3.11h-5.35v3.11h-2.22v3.12h-2.67v3.12h-2.67v3.11h-3.12v4Z" clip-rule="evenodd"/>
      <rect width="94.92" height="14.68" x="181.42" y="141.35" fill="#695A73" rx="7.34"/>
      <rect width="94.92" height="14.68" x="181.42" y="141.35" fill="url(#E)" rx="7.34"/>
      <rect width="94.92" height="14.68" x="181.42" y="141.35" fill="url(#F)" rx="7.34"/>
      <rect width="69.47" height="14.68" x="181.42" y="163.86" fill="#695A73" rx="7.34"/>
      <rect width="69.47" height="14.68" x="181.42" y="163.86" fill="url(#G)" rx="7.34"/>
      <rect width="69.47" height="14.68" x="181.42" y="163.86" fill="url(#H)" rx="7.34"/>
    </g>
    <g clip-path="url(#I)">
      <path fill="url(#J)" fill-rule="evenodd" d="M92.28 248.99a5.77 5.77 0 0 0-5.77 5.77v70.88a5.77 5.77 0 0 0 5.77 5.78h71.63a5.77 5.77 0 0 0 5.77-5.78v-70.88a5.77 5.77 0 0 0-5.77-5.77H92.28Zm21.32 11.99h-4.63v1.16h-2.31v1.15h-2.31v2.32h-1.16v2.31h-2.32v2.32h-1.15v4.63h1.15v2.31h2.32v2.32h1.16v2.31h2.3v1.16h2.32v1.16h4.63v-1.16h2.32v-1.16h2.31v-2.31h1.16v-2.32h2.31v-2.31h1.16v-4.63h-1.16v-2.32h-2.31v-2.31h-1.16v-2.32h-2.31v-1.15h-2.32v-1.16Zm-13.44 53.41h-3.12v4.46h62.32v-4.01h-1.78v-4h-1.78v-3.57h-2.22v-3.11h-2.23v-4.46h-1.78v-3.56h-2.23v-4.9h-2.22v-3.1h-1.78v-2.68h-1.78v-3.11h-2.67v3.11h-1.78v2.67h-1.78v3.12h-1.79v4.9h-1.78v3.56h-2.22v4.45h-2.67v3.11h-4.45v-3.11h-2.67v-3.12h-3.56v-3.12h-5.35v3.12h-2.22v3.12h-2.67v3.11h-2.67v3.12h-3.12v4Z" clip-rule="evenodd"/>
      <path fill="#695A73" fill-rule="evenodd" d="M92.28 248.99a5.77 5.77 0 0 0-5.77 5.77v70.88a5.77 5.77 0 0 0 5.77 5.78h71.63a5.77 5.77 0 0 0 5.77-5.78v-70.88a5.77 5.77 0 0 0-5.77-5.77H92.28Zm21.32 11.99h-4.63v1.16h-2.31v1.15h-2.31v2.32h-1.16v2.31h-2.32v2.32h-1.15v4.63h1.15v2.31h2.32v2.32h1.16v2.31h2.3v1.16h2.32v1.16h4.63v-1.16h2.32v-1.16h2.31v-2.31h1.16v-2.32h2.31v-2.31h1.16v-4.63h-1.16v-2.32h-2.31v-2.31h-1.16v-2.32h-2.31v-1.15h-2.32v-1.16Zm-13.44 53.41h-3.12v4.46h62.32v-4.01h-1.78v-4h-1.78v-3.57h-2.22v-3.11h-2.23v-4.46h-1.78v-3.56h-2.23v-4.9h-2.22v-3.1h-1.78v-2.68h-1.78v-3.11h-2.67v3.11h-1.78v2.67h-1.78v3.12h-1.79v4.9h-1.78v3.56h-2.22v4.45h-2.67v3.11h-4.45v-3.11h-2.67v-3.12h-3.56v-3.12h-5.35v3.12h-2.22v3.12h-2.67v3.11h-2.67v3.12h-3.12v4Z" clip-rule="evenodd"/>
      <path fill="#EAE1DE" fill-rule="evenodd" d="M92.28 248.99a5.77 5.77 0 0 0-5.77 5.77v70.88a5.77 5.77 0 0 0 5.77 5.78h71.63a5.77 5.77 0 0 0 5.77-5.78v-70.88a5.77 5.77 0 0 0-5.77-5.77H92.28Zm21.32 11.99h-4.63v1.16h-2.31v1.15h-2.31v2.32h-1.16v2.31h-2.32v2.32h-1.15v4.63h1.15v2.31h2.32v2.32h1.16v2.31h2.3v1.16h2.32v1.16h4.63v-1.16h2.32v-1.16h2.31v-2.31h1.16v-2.32h2.31v-2.31h1.16v-4.63h-1.16v-2.32h-2.31v-2.31h-1.16v-2.32h-2.31v-1.15h-2.32v-1.16Zm-13.44 53.41h-3.12v4.46h62.32v-4.01h-1.78v-4h-1.78v-3.57h-2.22v-3.11h-2.23v-4.46h-1.78v-3.56h-2.23v-4.9h-2.22v-3.1h-1.78v-2.68h-1.78v-3.11h-2.67v3.11h-1.78v2.67h-1.78v3.12h-1.79v4.9h-1.78v3.56h-2.22v4.45h-2.67v3.11h-4.45v-3.11h-2.67v-3.12h-3.56v-3.12h-5.35v3.12h-2.22v3.12h-2.67v3.11h-2.67v3.12h-3.12v4Z" clip-rule="evenodd"/>
      <rect width="94.92" height="14.68" x="181.42" y="248.99" fill="#695A73" rx="7.34"/>
      <rect width="94.92" height="14.68" x="181.42" y="248.99" fill="url(#K)" rx="7.34"/>
      <rect width="69.47" height="14.68" x="181.42" y="271.5" fill="#695A73" rx="7.34"/>
      <rect width="69.47" height="14.68" x="181.42" y="271.5" fill="url(#L)" rx="7.34"/>
    </g>
    <g clip-path="url(#M)">
      <path fill="url(#N)" fill-rule="evenodd" d="M92.28 349.78a5.77 5.77 0 0 0-5.77 5.77v70.88a5.77 5.77 0 0 0 5.77 5.77h71.63a5.77 5.77 0 0 0 5.77-5.77v-70.88a5.77 5.77 0 0 0-5.77-5.77H92.28Zm21.32 11.99h-4.63v1.15h-2.31v1.16h-2.31v2.32h-1.16v2.31h-2.32v2.31h-1.15v4.63h1.15v2.32h2.32v2.31h1.16v2.32h2.3v1.16h2.32v1.15h4.63v-1.15h2.32v-1.16h2.31v-2.32h1.16v-2.31h2.31v-2.32h1.16v-4.63h-1.16v-2.31h-2.31v-2.31h-1.16v-2.32h-2.31v-1.16h-2.32v-1.15Zm-13.44 53.41h-3.12v4.45h62.32v-4h-1.78v-4.01h-1.78v-3.56h-2.22v-3.12h-2.23v-4.45h-1.78v-3.56h-2.23v-4.9h-2.22v-3.11h-1.78v-2.67h-1.78v-3.12h-2.67v3.12h-1.78v2.67h-1.78v3.12h-1.79v4.9h-1.78v3.55h-2.22v4.45h-2.67v3.12h-4.45v-3.12h-2.67v-3.11h-3.56v-3.12h-5.35v3.12h-2.22v3.11h-2.67v3.12h-2.67v3.12h-3.12v4Z" clip-rule="evenodd"/>
      <path fill="#695A73" fill-rule="evenodd" d="M92.28 349.78a5.77 5.77 0 0 0-5.77 5.77v70.88a5.77 5.77 0 0 0 5.77 5.77h71.63a5.77 5.77 0 0 0 5.77-5.77v-70.88a5.77 5.77 0 0 0-5.77-5.77H92.28Zm21.32 11.99h-4.63v1.15h-2.31v1.16h-2.31v2.32h-1.16v2.31h-2.32v2.31h-1.15v4.63h1.15v2.32h2.32v2.31h1.16v2.32h2.3v1.16h2.32v1.15h4.63v-1.15h2.32v-1.16h2.31v-2.32h1.16v-2.31h2.31v-2.32h1.16v-4.63h-1.16v-2.31h-2.31v-2.31h-1.16v-2.32h-2.31v-1.16h-2.32v-1.15Zm-13.44 53.41h-3.12v4.45h62.32v-4h-1.78v-4.01h-1.78v-3.56h-2.22v-3.12h-2.23v-4.45h-1.78v-3.56h-2.23v-4.9h-2.22v-3.11h-1.78v-2.67h-1.78v-3.12h-2.67v3.12h-1.78v2.67h-1.78v3.12h-1.79v4.9h-1.78v3.55h-2.22v4.45h-2.67v3.12h-4.45v-3.12h-2.67v-3.11h-3.56v-3.12h-5.35v3.12h-2.22v3.11h-2.67v3.12h-2.67v3.12h-3.12v4Z" clip-rule="evenodd"/>
      <path fill="#EAE1DE" fill-rule="evenodd" d="M92.28 349.78a5.77 5.77 0 0 0-5.77 5.77v70.88a5.77 5.77 0 0 0 5.77 5.77h71.63a5.77 5.77 0 0 0 5.77-5.77v-70.88a5.77 5.77 0 0 0-5.77-5.77H92.28Zm21.32 11.99h-4.63v1.15h-2.31v1.16h-2.31v2.32h-1.16v2.31h-2.32v2.31h-1.15v4.63h1.15v2.32h2.32v2.31h1.16v2.32h2.3v1.16h2.32v1.15h4.63v-1.15h2.32v-1.16h2.31v-2.32h1.16v-2.31h2.31v-2.32h1.16v-4.63h-1.16v-2.31h-2.31v-2.31h-1.16v-2.32h-2.31v-1.16h-2.32v-1.15Zm-13.44 53.41h-3.12v4.45h62.32v-4h-1.78v-4.01h-1.78v-3.56h-2.22v-3.12h-2.23v-4.45h-1.78v-3.56h-2.23v-4.9h-2.22v-3.11h-1.78v-2.67h-1.78v-3.12h-2.67v3.12h-1.78v2.67h-1.78v3.12h-1.79v4.9h-1.78v3.55h-2.22v4.45h-2.67v3.12h-4.45v-3.12h-2.67v-3.11h-3.56v-3.12h-5.35v3.12h-2.22v3.11h-2.67v3.12h-2.67v3.12h-3.12v4Z" clip-rule="evenodd"/>
      <rect width="94.92" height="14.68" x="181.42" y="349.78" fill="#695A73" rx="7.34"/>
      <rect width="94.92" height="14.68" x="181.42" y="349.78" fill="url(#O)" rx="7.34"/>
      <rect width="69.47" height="14.68" x="181.42" y="372.28" fill="#695A73" rx="7.34"/>
      <rect width="69.47" height="14.68" x="181.42" y="372.28" fill="url(#P)" rx="7.34"/>
    </g>
    <circle cx="266.55" cy="100.26" r="15.66" fill="#695A73"/>
    <circle cx="266.55" cy="100.26" r="15.66" fill="url(#Q)"/>
    <circle cx="266.55" cy="100.26" r="15.66" fill="url(#R)"/>
    <rect width="66.54" height="31.31" x="86.51" y="84.6" fill="#695A73" rx="4.89"/>
    <rect width="66.54" height="31.31" x="86.51" y="84.6" fill="url(#S)" rx="4.89"/>
    <rect width="66.54" height="31.31" x="86.51" y="84.6" fill="url(#T)" rx="4.89"/>
  </g>
  <g filter="url(#U)">
    <g clip-path="url(#V)">
      <rect width="167.01" height="53.05" x="98" y="377.05" fill="#FAFAFA" rx="26.53"/>
      <rect width="167.01" height="53.05" x="98" y="377.05" fill="url(#W)" rx="26.53"/>
      <g filter="url(#X)">
        <circle cx="126.98" cy="403.08" r="17.19" fill="#C4C4C4"/>
        <circle cx="126.98" cy="403.08" r="17.19" fill="url(#Y)"/>
      </g>
      <path fill="#fff" fill-rule="evenodd" d="m127.23 405.01 5.93 5.93 1.68-1.68-5.93-5.93 5.93-5.93-1.68-1.68-5.93 5.93-5.94-5.93-1.68 1.68 5.94 5.93-5.94 5.93 1.68 1.68 5.94-5.93Z" clip-rule="evenodd"/>
      <path fill="#7C678B" d="M156.72 416.6h6.46v-.39h.76v-.38h.38v-.38h.38v-.75h.38v-2.66h-.38v-.38h-.38v-.76h.38v-.38h.38v-2.66h-.38v-.76h-.38v-.38h-.38v-.38h-.76v-.38h-6.46v10.63Zm2.28-6.46v-1.9h3.42v.38h.38v1.14h-.38v.38H159Zm0 4.18v-1.9h3.42v.38h.38v1.14h-.38v.38H159Zm7.26.38h.38v.75h.38v.38h.38v.38h.75v.38h3.42v-.38h.76v-.38h.38v-.38h.38v-1.13h-2.28v.38h-2.28v-1.14h4.56v-2.66h-.38v-.76h-.38v-.38h-.38v-.38h-.76V409h-3.03v.38h-.76v.38h-.38v.38h-.38v.76h-.38v3.8Zm2.28-2.66v-1.14h2.27v1.14h-2.28Zm5.36-.76h1.13v5.31h2.28v-5.31h1.9V409h-1.9v-.76h1.9v-2.28h-3.42v.38h-.38v.38h-.38V409h-1.14v2.28Zm5.93 3.42h.38v.75h.38v.38h.38v.38h.76v.38h3.41v-.38h.76v-.38h.38v-.38h.38v-.75h.38v-3.8h-.38v-.76h-.38v-.38h-.38v-.38h-.76V409h-3.41v.38h-.76v.38h-.38v.38h-.38v.76h-.38v3.8Zm2.28-.76v-2.28h.38v-.38h1.9v.38h.37v2.28h-.38v.38h-1.9v-.38h-.37Zm6.12 2.66h2.28v-4.56h.38v-.38h.38v-.38h1.52V409h-1.52v.38h-.38v.38h-.38V409h-2.28v7.6Zm5.17-1.9h.38v.75h.38v.38h.38v.38h.76v.38h3.41v-.38h.76v-.38h.38v-.38h.38v-1.13h-2.27v.38h-2.28v-1.14h4.55v-2.66h-.38v-.76h-.38v-.38h-.38v-.38h-.75V409h-3.04v.38h-.76v.38h-.38v.38h-.38v.76h-.38v3.8Zm2.28-2.66v-1.14h2.28v1.14h-2.28Zm8.06 4.56h2.28v-1.15h.38v-.75h4.55v.75h.38v1.14h2.28v-1.51h-.38v-1.14h-.38v-1.14h-.38v-1.14h-.38v-1.14h-.38v-1.14h-.38v-1.14h-.38v-1.14h-.38v-1.14h-3.8v1.14h-.37v1.14h-.38v1.14h-.38v1.14h-.38v1.14h-.38v1.14h-.38v1.14h-.38v1.13h-.38v1.52Zm3.41-4.18v-.38h.38v-1.14h.38v-1.14h.38v-1.14h.76v1.14h.38v1.14h.38v1.14h.38v.38h-3.03Zm7.08 3.03h.38v.38h.38v.38h.75v.38h3.42v-.38h.76v-.38h.38v-.75h.38v-1.52h-.38v-.76h-.38v-.38h-.76v-.38h-2.66v-1.14h1.9v.38h2.28v-1.14h-.38v-.38h-.38v-.38h-.76V409h-3.41v.38h-.76v.38h-.38v.76h-.38v1.52h.38v.76h.38v.38h.75v.38h2.66v1.13h-1.9v-.38h-2.27v1.14Zm7.07-4.17h1.13v4.55h.38v.38h.38v.38h3.42v-2.27h-1.9v-3.04h1.9V409h-1.9v-2.28h-2.28V409h-1.14v2.28Zm6.3 5.32h2.28v-4.56h.38v-.38h.38v-.38h1.52V409h-1.52v.38h-.38v.38h-.38V409h-2.28v7.6Zm5.17-1.9h.38v.75h.38v.38h.38v.38h.76v.38h3.42v-.38h.76v-.38h.38v-.38h.38v-.75h.38v-3.8h-.38v-.76h-.38v-.38h-.38v-.38h-.76V409h-3.42v.38h-.76v.38h-.38v.38h-.38v.76h-.38v3.8Zm2.28-.76v-2.28h.38v-.38h1.9v.38h.38v2.28h-.38v.38h-1.9v-.38h-.38Zm-78.45-16.28h5.02V401h2.5v-11.69h-2.5v5.85h-2.5v-5.85h-2.51v8.35Zm8.82 2.09h.42v.42h.41v.42h.84v.41h3.76v-.41h.83v-.42h.42v-.84h.42v-1.67h-.42v-.83h-.42v-.42h-.83v-.42h-2.93v-1.25h2.1v.42h2.5v-1.26h-.42v-.41h-.42v-.42h-.83v-.42h-3.76v.42h-.84v.42h-.41v.83h-.42V396h.42v.84h.41v.42h.84v.41H170v1.26h-2.09v-.42h-2.5v1.25Zm10.95-7.93h3.34V401h2.5v-9.18h3.34v-2.51h-9.18v2.5Zm9.43 0h3.35V401h2.5v-9.18H195v-2.51h-9.18v2.5Zm9.87 9.18h2.5v-11.69h-2.5v11.7Z"/>
    </g>
  </g>
  <defs>
    <linearGradient id="b" x1="449.67" x2="449.67" y1="64.05" y2="411.83" gradientUnits="userSpaceOnUse">
      <stop stop-color="#FAFAFA" stop-opacity="0"/>
      <stop offset="1" stop-color="#F4EFED"/>
    </linearGradient>
    <linearGradient id="d" x1="449.67" x2="449.67" y1="64.05" y2="411.83" gradientUnits="userSpaceOnUse">
      <stop stop-color="#FFD542"/>
      <stop offset=".18" stop-color="#FF5050"/>
      <stop offset="1" stop-color="#AF43FF"/>
    </linearGradient>
    <linearGradient id="f" x1="449.67" x2="449.67" y1="64.05" y2="411.83" gradientUnits="userSpaceOnUse">
      <stop stop-color="#FAFAFA" stop-opacity="0"/>
      <stop offset="1" stop-color="#F3E9FA"/>
    </linearGradient>
    <linearGradient id="h" x1="474.06" x2="474.06" y1="163.86" y2="178.54" gradientUnits="userSpaceOnUse">
      <stop stop-color="#FFB4B4"/>
      <stop offset="1" stop-color="#C487F0"/>
    </linearGradient>
    <linearGradient id="j" x1="474.06" x2="474.06" y1="271.5" y2="286.17" gradientUnits="userSpaceOnUse">
      <stop stop-color="#FFB4B4"/>
      <stop offset="1" stop-color="#C487F0"/>
    </linearGradient>
    <linearGradient id="l" x1="474.06" x2="474.06" y1="372.28" y2="386.96" gradientUnits="userSpaceOnUse">
      <stop stop-color="#FFB4B4"/>
      <stop offset="1" stop-color="#C487F0"/>
    </linearGradient>
    <linearGradient id="m" x1="530" x2="530" y1="84.6" y2="115.91" gradientUnits="userSpaceOnUse">
      <stop stop-color="#FFB4B4"/>
      <stop offset="1" stop-color="#C487F0"/>
    </linearGradient>
    <linearGradient id="o" x1="449.67" x2="449.67" y1="380.39" y2="433.44" gradientUnits="userSpaceOnUse">
      <stop stop-color="#FAFAFA" stop-opacity="0"/>
      <stop offset="1" stop-color="#F4EFED"/>
    </linearGradient>
    <linearGradient id="q" x1="395.15" x2="395.15" y1="388.25" y2="424.6" gradientUnits="userSpaceOnUse">
      <stop stop-color="#11E1E1"/>
      <stop offset="1" stop-color="#31BD0E" stop-opacity=".93"/>
    </linearGradient>
    <linearGradient id="r" x1="395.15" x2="395" y1="388.25" y2="430.05" gradientUnits="userSpaceOnUse">
      <stop stop-color="#205EFF"/>
      <stop offset="1" stop-color="#C238BD"/>
    </linearGradient>
    <linearGradient id="s" x1="395.35" x2="395.35" y1="410.89" y2="417.08" gradientUnits="userSpaceOnUse">
      <stop stop-color="#FFCD83"/>
      <stop offset="1" stop-color="#EC672C"/>
    </linearGradient>
    <linearGradient id="t" x1="478.44" x2="478.43" y1="388.94" y2="410.06" gradientUnits="userSpaceOnUse">
      <stop stop-color="#205EFF"/>
      <stop offset="1" stop-color="#C238BD"/>
    </linearGradient>
    <linearGradient id="u" x1="478.44" x2="478.43" y1="388.94" y2="410.06" gradientUnits="userSpaceOnUse">
      <stop stop-color="#205EFF"/>
      <stop offset="1" stop-color="#C238BD"/>
    </linearGradient>
    <linearGradient id="v" x1="478.44" x2="478.43" y1="388.94" y2="410.06" gradientUnits="userSpaceOnUse">
      <stop stop-color="#205EFF"/>
      <stop offset="1" stop-color="#C238BD"/>
    </linearGradient>
    <linearGradient id="w" x1="478.44" x2="478.43" y1="388.94" y2="410.06" gradientUnits="userSpaceOnUse">
      <stop stop-color="#205EFF"/>
      <stop offset="1" stop-color="#C238BD"/>
    </linearGradient>
    <linearGradient id="x" x1="478.44" x2="478.43" y1="388.94" y2="410.06" gradientUnits="userSpaceOnUse">
      <stop stop-color="#205EFF"/>
      <stop offset="1" stop-color="#C238BD"/>
    </linearGradient>
    <linearGradient id="y" x1="478.44" x2="478.43" y1="388.94" y2="410.06" gradientUnits="userSpaceOnUse">
      <stop stop-color="#205EFF"/>
      <stop offset="1" stop-color="#C238BD"/>
    </linearGradient>
    <linearGradient id="z" x1="478.44" x2="478.43" y1="388.94" y2="410.06" gradientUnits="userSpaceOnUse">
      <stop stop-color="#205EFF"/>
      <stop offset="1" stop-color="#C238BD"/>
    </linearGradient>
    <linearGradient id="B" x1="181.89" x2="181.89" y1="64.05" y2="411.83" gradientUnits="userSpaceOnUse">
      <stop stop-color="#FAFAFA" stop-opacity="0"/>
      <stop offset="1" stop-color="#F4EFED"/>
    </linearGradient>
    <linearGradient id="D" x1="225.35" x2="225.35" y1="105.52" y2="327.2" gradientUnits="userSpaceOnUse">
      <stop stop-color="#FFE99B"/>
      <stop offset=".18" stop-color="#FCB6B6"/>
      <stop offset="1" stop-color="#C888F6"/>
    </linearGradient>
    <linearGradient id="E" x1="228.88" x2="228.88" y1="141.35" y2="156.03" gradientUnits="userSpaceOnUse">
      <stop stop-color="#ECDED8"/>
      <stop offset="1" stop-color="#BAB1AD"/>
    </linearGradient>
    <linearGradient id="F" x1="228.88" x2="228.88" y1="141.35" y2="156.03" gradientUnits="userSpaceOnUse">
      <stop stop-color="#DFC9C0"/>
      <stop offset="1" stop-color="#A8938A"/>
    </linearGradient>
    <linearGradient id="G" x1="216.16" x2="216.16" y1="163.86" y2="178.54" gradientUnits="userSpaceOnUse">
      <stop stop-color="#ECDED8"/>
      <stop offset="1" stop-color="#BAB1AD"/>
    </linearGradient>
    <linearGradient id="H" x1="216.16" x2="216.16" y1="163.86" y2="178.54" gradientUnits="userSpaceOnUse">
      <stop stop-color="#DFC9C0"/>
      <stop offset="1" stop-color="#A8938A"/>
    </linearGradient>
    <linearGradient id="J" x1="225.35" x2="225.35" y1="213.15" y2="434.84" gradientUnits="userSpaceOnUse">
      <stop stop-color="#FFE99B"/>
      <stop offset=".18" stop-color="#FCB6B6"/>
      <stop offset="1" stop-color="#C888F6"/>
    </linearGradient>
    <linearGradient id="K" x1="228.88" x2="228.88" y1="248.99" y2="263.67" gradientUnits="userSpaceOnUse">
      <stop stop-color="#DFC9C0"/>
      <stop offset="1" stop-color="#A8938A"/>
    </linearGradient>
    <linearGradient id="L" x1="216.16" x2="216.16" y1="271.5" y2="286.17" gradientUnits="userSpaceOnUse">
      <stop stop-color="#DFC9C0"/>
      <stop offset="1" stop-color="#A8938A"/>
    </linearGradient>
    <linearGradient id="N" x1="225.35" x2="225.35" y1="313.94" y2="535.63" gradientUnits="userSpaceOnUse">
      <stop stop-color="#FFE99B"/>
      <stop offset=".18" stop-color="#FCB6B6"/>
      <stop offset="1" stop-color="#C888F6"/>
    </linearGradient>
    <linearGradient id="O" x1="228.88" x2="228.88" y1="349.78" y2="364.45" gradientUnits="userSpaceOnUse">
      <stop stop-color="#DFC9C0"/>
      <stop offset="1" stop-color="#A8938A"/>
    </linearGradient>
    <linearGradient id="P" x1="216.16" x2="216.16" y1="372.28" y2="386.96" gradientUnits="userSpaceOnUse">
      <stop stop-color="#DFC9C0"/>
      <stop offset="1" stop-color="#A8938A"/>
    </linearGradient>
    <linearGradient id="Q" x1="266.55" x2="266.55" y1="84.6" y2="115.91" gradientUnits="userSpaceOnUse">
      <stop stop-color="#ECDED8"/>
      <stop offset="1" stop-color="#BAB1AD"/>
    </linearGradient>
    <linearGradient id="R" x1="266.55" x2="266.55" y1="84.6" y2="115.91" gradientUnits="userSpaceOnUse">
      <stop stop-color="#DFC9C0"/>
      <stop offset="1" stop-color="#A8938A"/>
    </linearGradient>
    <linearGradient id="S" x1="119.78" x2="119.78" y1="84.6" y2="115.91" gradientUnits="userSpaceOnUse">
      <stop stop-color="#ECDED8"/>
      <stop offset="1" stop-color="#BAB1AD"/>
    </linearGradient>
    <linearGradient id="T" x1="119.78" x2="119.78" y1="84.6" y2="115.91" gradientUnits="userSpaceOnUse">
      <stop stop-color="#DFC9C0"/>
      <stop offset="1" stop-color="#A8938A"/>
    </linearGradient>
    <linearGradient id="W" x1="181.51" x2="181.51" y1="377.05" y2="430.1" gradientUnits="userSpaceOnUse">
      <stop stop-color="#FAFAFA" stop-opacity="0"/>
      <stop offset="1" stop-color="#F4EFED"/>
    </linearGradient>
    <linearGradient id="Y" x1="126.98" x2="126.98" y1="385.89" y2="420.28" gradientUnits="userSpaceOnUse">
      <stop stop-color="#FA8C5D"/>
      <stop offset="1" stop-color="#CC2727"/>
    </linearGradient>
    <clipPath id="e">
      <rect width="235.78" height="347.78" x="331.78" y="64.05" fill="#fff" rx="14.74"/>
    </clipPath>
    <clipPath id="g">
      <path fill="#fff" d="M0 0h189.83v82.42H0z" transform="translate(354.5 141.35)"/>
    </clipPath>
    <clipPath id="i">
      <path fill="#fff" d="M0 0h189.83v82.42H0z" transform="translate(354.5 248.99)"/>
    </clipPath>
    <clipPath id="k">
      <path fill="#fff" d="M0 0h189.83v82.42H0z" transform="translate(354.5 349.78)"/>
    </clipPath>
    <clipPath id="n">
      <rect width="167.01" height="53.05" x="366.17" y="380.39" fill="#fff" rx="26.53"/>
    </clipPath>
    <clipPath id="C">
      <path fill="#fff" d="M0 0h189.83v82.42H0z" transform="translate(86.5 141.35)"/>
    </clipPath>
    <clipPath id="I">
      <path fill="#fff" d="M0 0h189.83v82.42H0z" transform="translate(86.5 248.99)"/>
    </clipPath>
    <clipPath id="M">
      <path fill="#fff" d="M0 0h189.83v82.42H0z" transform="translate(86.5 349.78)"/>
    </clipPath>
    <clipPath id="V">
      <rect width="167.01" height="53.05" x="98" y="377.05" fill="#fff" rx="26.53"/>
    </clipPath>
    <filter id="a" width="328.13" height="465.67" x="285.61" y="64.05" color-interpolation-filters="sRGB" filterUnits="userSpaceOnUse">
      <feFlood flood-opacity="0" result="BackgroundImageFix"/>
      <feColorMatrix in="SourceAlpha" result="hardAlpha" values="0 0 0 0 0 0 0 0 0 0 0 0 0 0 0 0 0 0 127 0"/>
      <feOffset dy="2.27"/>
      <feGaussianBlur stdDeviation="1.05"/>
      <feColorMatrix values="0 0 0 0 0.192157 0 0 0 0 0.0745098 0 0 0 0 0.227451 0 0 0 0.0418093 0"/>
      <feBlend in2="BackgroundImageFix" result="effect1_dropShadow_626_390"/>
      <feColorMatrix in="SourceAlpha" result="hardAlpha" values="0 0 0 0 0 0 0 0 0 0 0 0 0 0 0 0 0 0 127 0"/>
      <feOffset dy="6.27"/>
      <feGaussianBlur stdDeviation="2.89"/>
      <feColorMatrix values="0 0 0 0 0.192157 0 0 0 0 0.0745098 0 0 0 0 0.227451 0 0 0 0.06 0"/>
      <feBlend in2="effect1_dropShadow_626_390" result="effect2_dropShadow_626_390"/>
      <feColorMatrix in="SourceAlpha" result="hardAlpha" values="0 0 0 0 0 0 0 0 0 0 0 0 0 0 0 0 0 0 127 0"/>
      <feOffset dy="15.1"/>
      <feGaussianBlur stdDeviation="6.96"/>
      <feColorMatrix values="0 0 0 0 0.192157 0 0 0 0 0.0745098 0 0 0 0 0.227451 0 0 0 0.0781907 0"/>
      <feBlend in2="effect2_dropShadow_626_390" result="effect3_dropShadow_626_390"/>
      <feColorMatrix in="SourceAlpha" result="hardAlpha" values="0 0 0 0 0 0 0 0 0 0 0 0 0 0 0 0 0 0 127 0"/>
      <feOffset dy="50.1"/>
      <feGaussianBlur stdDeviation="23.09"/>
      <feColorMatrix values="0 0 0 0 0.192157 0 0 0 0 0.0745098 0 0 0 0 0.227451 0 0 0 0.12 0"/>
      <feBlend in2="effect3_dropShadow_626_390" result="effect4_dropShadow_626_390"/>
      <feBlend in="SourceGraphic" in2="effect4_dropShadow_626_390" result="shape"/>
    </filter>
    <filter id="c" width="251.78" height="363.78" x="323.78" y="56.05" color-interpolation-filters="sRGB" filterUnits="userSpaceOnUse">
      <feFlood flood-opacity="0" result="BackgroundImageFix"/>
      <feBlend in="SourceGraphic" in2="BackgroundImageFix" result="shape"/>
      <feGaussianBlur result="effect1_foregroundBlur_626_390" stdDeviation="4"/>
    </filter>
    <filter id="p" width="85.16" height="87.24" x="352.57" y="388.25" color-interpolation-filters="sRGB" filterUnits="userSpaceOnUse">
      <feFlood flood-opacity="0" result="BackgroundImageFix"/>
      <feColorMatrix in="SourceAlpha" result="hardAlpha" values="0 0 0 0 0 0 0 0 0 0 0 0 0 0 0 0 0 0 127 0"/>
      <feOffset dy="1.2"/>
      <feGaussianBlur stdDeviation=".55"/>
      <feColorMatrix values="0 0 0 0 0.192157 0 0 0 0 0.0745098 0 0 0 0 0.227451 0 0 0 0.0418093 0"/>
      <feBlend in2="BackgroundImageFix" result="effect1_dropShadow_626_390"/>
      <feColorMatrix in="SourceAlpha" result="hardAlpha" values="0 0 0 0 0 0 0 0 0 0 0 0 0 0 0 0 0 0 127 0"/>
      <feOffset dy="3.32"/>
      <feGaussianBlur stdDeviation="1.53"/>
      <feColorMatrix values="0 0 0 0 0.192157 0 0 0 0 0.0745098 0 0 0 0 0.227451 0 0 0 0.06 0"/>
      <feBlend in2="effect1_dropShadow_626_390" result="effect2_dropShadow_626_390"/>
      <feColorMatrix in="SourceAlpha" result="hardAlpha" values="0 0 0 0 0 0 0 0 0 0 0 0 0 0 0 0 0 0 127 0"/>
      <feOffset dy="7.98"/>
      <feGaussianBlur stdDeviation="3.68"/>
      <feColorMatrix values="0 0 0 0 0.192157 0 0 0 0 0.0745098 0 0 0 0 0.227451 0 0 0 0.0781907 0"/>
      <feBlend in2="effect2_dropShadow_626_390" result="effect3_dropShadow_626_390"/>
      <feColorMatrix in="SourceAlpha" result="hardAlpha" values="0 0 0 0 0 0 0 0 0 0 0 0 0 0 0 0 0 0 127 0"/>
      <feOffset dy="26.48"/>
      <feGaussianBlur stdDeviation="12.2"/>
      <feColorMatrix values="0 0 0 0 0.192157 0 0 0 0 0.0745098 0 0 0 0 0.227451 0 0 0 0.12 0"/>
      <feBlend in2="effect3_dropShadow_626_390" result="effect4_dropShadow_626_390"/>
      <feBlend in="SourceGraphic" in2="effect4_dropShadow_626_390" result="shape"/>
    </filter>
    <filter id="A" width="328.13" height="464.43" x="17.83" y="64.05" color-interpolation-filters="sRGB" filterUnits="userSpaceOnUse">
      <feFlood flood-opacity="0" result="BackgroundImageFix"/>
      <feColorMatrix in="SourceAlpha" result="hardAlpha" values="0 0 0 0 0 0 0 0 0 0 0 0 0 0 0 0 0 0 127 0"/>
      <feOffset dy="2.27"/>
      <feGaussianBlur stdDeviation="1.05"/>
      <feColorMatrix values="0 0 0 0 0.192157 0 0 0 0 0.0745098 0 0 0 0 0.227451 0 0 0 0.0418093 0"/>
      <feBlend in2="BackgroundImageFix" result="effect1_dropShadow_626_390"/>
      <feColorMatrix in="SourceAlpha" result="hardAlpha" values="0 0 0 0 0 0 0 0 0 0 0 0 0 0 0 0 0 0 127 0"/>
      <feOffset dy="6.27"/>
      <feGaussianBlur stdDeviation="2.89"/>
      <feColorMatrix values="0 0 0 0 0.192157 0 0 0 0 0.0745098 0 0 0 0 0.227451 0 0 0 0.06 0"/>
      <feBlend in2="effect1_dropShadow_626_390" result="effect2_dropShadow_626_390"/>
      <feColorMatrix in="SourceAlpha" result="hardAlpha" values="0 0 0 0 0 0 0 0 0 0 0 0 0 0 0 0 0 0 127 0"/>
      <feOffset dy="15.1"/>
      <feGaussianBlur stdDeviation="6.96"/>
      <feColorMatrix values="0 0 0 0 0.192157 0 0 0 0 0.0745098 0 0 0 0 0.227451 0 0 0 0.0781907 0"/>
      <feBlend in2="effect2_dropShadow_626_390" result="effect3_dropShadow_626_390"/>
      <feColorMatrix in="SourceAlpha" result="hardAlpha" values="0 0 0 0 0 0 0 0 0 0 0 0 0 0 0 0 0 0 127 0"/>
      <feOffset dy="50.1"/>
      <feGaussianBlur stdDeviation="23.09"/>
      <feColorMatrix values="0 0 0 0 0.192157 0 0 0 0 0.0745098 0 0 0 0 0.227451 0 0 0 0.12 0"/>
      <feBlend in2="effect3_dropShadow_626_390" result="effect4_dropShadow_626_390"/>
      <feBlend in="SourceGraphic" in2="effect4_dropShadow_626_390" result="shape"/>
    </filter>
    <filter id="U" width="259.36" height="149.33" x="51.83" y="377.05" color-interpolation-filters="sRGB" filterUnits="userSpaceOnUse">
      <feFlood flood-opacity="0" result="BackgroundImageFix"/>
      <feColorMatrix in="SourceAlpha" result="hardAlpha" values="0 0 0 0 0 0 0 0 0 0 0 0 0 0 0 0 0 0 127 0"/>
      <feOffset dy="2.27"/>
      <feGaussianBlur stdDeviation="1.05"/>
      <feColorMatrix values="0 0 0 0 0.192157 0 0 0 0 0.0745098 0 0 0 0 0.227451 0 0 0 0.0418093 0"/>
      <feBlend in2="BackgroundImageFix" result="effect1_dropShadow_626_390"/>
      <feColorMatrix in="SourceAlpha" result="hardAlpha" values="0 0 0 0 0 0 0 0 0 0 0 0 0 0 0 0 0 0 127 0"/>
      <feOffset dy="6.27"/>
      <feGaussianBlur stdDeviation="2.89"/>
      <feColorMatrix values="0 0 0 0 0.192157 0 0 0 0 0.0745098 0 0 0 0 0.227451 0 0 0 0.06 0"/>
      <feBlend in2="effect1_dropShadow_626_390" result="effect2_dropShadow_626_390"/>
      <feColorMatrix in="SourceAlpha" result="hardAlpha" values="0 0 0 0 0 0 0 0 0 0 0 0 0 0 0 0 0 0 127 0"/>
      <feOffset dy="15.1"/>
      <feGaussianBlur stdDeviation="6.96"/>
      <feColorMatrix values="0 0 0 0 0.192157 0 0 0 0 0.0745098 0 0 0 0 0.227451 0 0 0 0.0781907 0"/>
      <feBlend in2="effect2_dropShadow_626_390" result="effect3_dropShadow_626_390"/>
      <feColorMatrix in="SourceAlpha" result="hardAlpha" values="0 0 0 0 0 0 0 0 0 0 0 0 0 0 0 0 0 0 127 0"/>
      <feOffset dy="50.1"/>
      <feGaussianBlur stdDeviation="23.09"/>
      <feColorMatrix values="0 0 0 0 0.192157 0 0 0 0 0.0745098 0 0 0 0 0.227451 0 0 0 0.12 0"/>
      <feBlend in2="effect3_dropShadow_626_390" result="effect4_dropShadow_626_390"/>
      <feBlend in="SourceGraphic" in2="effect4_dropShadow_626_390" result="shape"/>
    </filter>
    <filter id="X" width="83.2" height="85.27" x="85.38" y="385.89" color-interpolation-filters="sRGB" filterUnits="userSpaceOnUse">
      <feFlood flood-opacity="0" result="BackgroundImageFix"/>
      <feColorMatrix in="SourceAlpha" result="hardAlpha" values="0 0 0 0 0 0 0 0 0 0 0 0 0 0 0 0 0 0 127 0"/>
      <feOffset dy="1.2"/>
      <feGaussianBlur stdDeviation=".55"/>
      <feColorMatrix values="0 0 0 0 0.192157 0 0 0 0 0.0745098 0 0 0 0 0.227451 0 0 0 0.0418093 0"/>
      <feBlend in2="BackgroundImageFix" result="effect1_dropShadow_626_390"/>
      <feColorMatrix in="SourceAlpha" result="hardAlpha" values="0 0 0 0 0 0 0 0 0 0 0 0 0 0 0 0 0 0 127 0"/>
      <feOffset dy="3.32"/>
      <feGaussianBlur stdDeviation="1.53"/>
      <feColorMatrix values="0 0 0 0 0.192157 0 0 0 0 0.0745098 0 0 0 0 0.227451 0 0 0 0.06 0"/>
      <feBlend in2="effect1_dropShadow_626_390" result="effect2_dropShadow_626_390"/>
      <feColorMatrix in="SourceAlpha" result="hardAlpha" values="0 0 0 0 0 0 0 0 0 0 0 0 0 0 0 0 0 0 127 0"/>
      <feOffset dy="7.98"/>
      <feGaussianBlur stdDeviation="3.68"/>
      <feColorMatrix values="0 0 0 0 0.192157 0 0 0 0 0.0745098 0 0 0 0 0.227451 0 0 0 0.0781907 0"/>
      <feBlend in2="effect2_dropShadow_626_390" result="effect3_dropShadow_626_390"/>
      <feColorMatrix in="SourceAlpha" result="hardAlpha" values="0 0 0 0 0 0 0 0 0 0 0 0 0 0 0 0 0 0 127 0"/>
      <feOffset dy="26.48"/>
      <feGaussianBlur stdDeviation="12.2"/>
      <feColorMatrix values="0 0 0 0 0.192157 0 0 0 0 0.0745098 0 0 0 0 0.227451 0 0 0 0.12 0"/>
      <feBlend in2="effect3_dropShadow_626_390" result="effect4_dropShadow_626_390"/>
      <feBlend in="SourceGraphic" in2="effect4_dropShadow_626_390" result="shape"/>
    </filter>
  </defs>
</svg>
