<svg xmlns="http://www.w3.org/2000/svg" viewBox="0 0 24 24">
  <path fill="currentColor" d="M9 10h1a1 1 0 0 0 0-2H9a1 1 0 0 0 0 2Zm0 2a1 1 0 0 0 0 2h6a1 1 0 0 0 0-2Zm11-3.06a1.31 1.31 0 0 0-.06-.27v-.09a1.07 1.07 0 0 0-.19-.28l-6-6a1.07 1.07 0 0 0-.28-.19a.32.32 0 0 0-.09 0a.88.88 0 0 0-.33-.11H7a3 3 0 0 0-3 3v14a3 3 0 0 0 3 3h10a3 3 0 0 0 3-3V8.94Zm-6-3.53L16.59 8H15a1 1 0 0 1-1-1ZM18 19a1 1 0 0 1-1 1H7a1 1 0 0 1-1-1V5a1 1 0 0 1 1-1h5v3a3 3 0 0 0 3 3h3Zm-3-3H9a1 1 0 0 0 0 2h6a1 1 0 0 0 0-2Z"/>
</svg>