<svg width="30" height="30" viewBox="0 0 30 30" fill="none" xmlns="http://www.w3.org/2000/svg">
<path d="M14.125 1.94856C14.6665 1.63595 15.3335 1.63595 15.875 1.94856L25.8654 7.71651C26.4068 8.02911 26.7404 8.60684 26.7404 9.23205V20.768C26.7404 21.3932 26.4068 21.9709 25.8654 22.2835L15.875 28.0514C15.3335 28.364 14.6665 28.364 14.125 28.0514L4.13462 22.2835C3.59317 21.9709 3.25962 21.3932 3.25962 20.768V9.23205C3.25962 8.60684 3.59317 8.02911 4.13462 7.71651L14.125 1.94856Z" stroke="white" stroke-width="2.5"/>
<path d="M14.9264 13.267L26.9478 8.31524L26.9263 10.7676L14.9264 15.7675L14.9264 13.267Z" fill="white"/>
<path d="M15.0003 18.9994L27.0216 14.0472L27.0215 16.5L15.0002 21.5L15.0003 18.9994Z" fill="white"/>
</svg>
