<svg xmlns="http://www.w3.org/2000/svg" viewBox="0 0 24 24">
  <path fill="currentColor" d="M21.17 2.06A12.94 12.94 0 0 0 12 3.92a12.94 12.94 0 0 0-9.17-1.81 1 1 0 0 0-.83 1v12a1 1 0 0 0 1.17 1 10.9 10.9 0 0 1 8.25 1.91l.12.07h.11a.91.91 0 0 0 .7 0h.11l.12-.07A10.9 10.9 0 0 1 20.83 16 1 1 0 0 0 22 15V3a1 1 0 0 0-.83-.94ZM11 15.35a12.87 12.87 0 0 0-6-1.48H4v-10a8.7 8.7 0 0 1 1 0c2.13 0 4.22.62 6 1.8v9.68Zm9-1.44h-1c-2.09 0-4.15.5-6 1.48V5.67a10.86 10.86 0 0 1 6-1.8 8.7 8.7 0 0 1 1 0v10.04Zm1.17 4.15A12.94 12.94 0 0 0 12 19.92a12.94 12.94 0 0 0-9.17-1.86A1 1 0 0 0 2 19.21a1 1 0 0 0 1.17.79 10.9 10.9 0 0 1 8.25 1.91 1 1 0 0 0 1.16 0A10.9 10.9 0 0 1 20.83 20a1 1 0 0 0 1.17-.79 1 1 0 0 0-.83-1.15Z"/>
</svg>
