<svg xmlns="http://www.w3.org/2000/svg" viewBox="0 0 24 24">
  <path fill="currentColor" d="M7.42 15.54a1 1 0 1 0 1.42 1.41 1 1 0 0 0-1.42-1.41Zm0-8.49a1 1 0 1 0 1.42 1.41 1 1 0 0 0-1.42-1.41Zm4.95 10a1 1 0 1 0 1 1 1 1 0 0 0-1-1.05v.05Zm-6-6a1 1 0 1 0 1 1 1 1 0 0 0-1-1.05v.05Zm6-6a1 1 0 1 0 1 1 1 1 0 0 0-1-1.05v.05Zm3.54 2.05a1 1 0 1 0 1.41 0 1 1 0 0 0-1.41-.05v.05Zm6.3 0a11 11 0 1 0-7.85 15.74 3.87 3.87 0 0 0 2.5-1.65 4.2 4.2 0 0 0 .61-3.19 5 5 0 0 1 2.9-5.56 3.84 3.84 0 0 0 2.27-3.83 4 4 0 0 0-.43-1.53v.02Zm-1.7 2.44a1.9 1.9 0 0 1-1 1.09 7 7 0 0 0-4 7.77 2.16 2.16 0 0 1-.31 1.65 1.79 1.79 0 0 1-1.21.8A9 9 0 1 1 11.85 3h.51a9 9 0 0 1 8.06 5 2 2 0 0 1 .09 1.52v.02ZM12.37 11a1 1 0 1 0 0 2 1 1 0 0 0 0-2Z"/>
</svg>
