<svg width="37" height="29" viewBox="0 0 37 29" fill="none" xmlns="http://www.w3.org/2000/svg">
<path d="M33.0202 0.358887L33.9317 1.77673C27.6526 5.89524 24.5131 10.0137 24.5131 14.1322C24.5131 16.2253 25.4246 17.4405 27.2475 17.7781L31.5011 13.8284C32.8514 14.301 34.0667 15.1787 35.147 16.4616C36.2947 17.6769 36.8686 19.2635 36.8686 21.2215C36.8686 23.1794 36.0922 24.8674 34.5393 26.2852C32.9864 27.6355 30.9272 28.3107 28.3616 28.3107C25.8634 28.3107 23.7704 27.4667 22.0825 25.7788C20.4621 24.0234 19.6519 21.6266 19.6519 18.5883C19.6519 11.9717 24.108 5.89524 33.0202 0.358887ZM13.9806 0.358887L14.892 1.77673C8.613 5.89524 5.47349 10.0137 5.47349 14.1322C5.47349 16.2253 6.38496 17.4405 8.2079 17.7781L12.4614 13.8284C13.8118 14.301 15.0271 15.1787 16.1073 16.4616C17.2551 17.6769 17.829 19.2635 17.829 21.2215C17.829 23.1794 17.0526 24.8674 15.4997 26.2852C13.9468 27.6355 11.8876 28.3107 9.32193 28.3107C6.82382 28.3107 4.73081 27.4667 3.0429 25.7788C1.4225 24.0234 0.612305 21.6266 0.612305 18.5883C0.612305 11.9717 5.06839 5.89524 13.9806 0.358887Z" fill="url(#paint0_linear_1311_2621)"/>
<defs>
<linearGradient id="paint0_linear_1311_2621" x1="36.8686" y1="0.358889" x2="-2.83567" y2="21.9785" gradientUnits="userSpaceOnUse">
<stop stop-color="#4AF2C8"/>
<stop offset="1" stop-color="#2F4CB3"/>
</linearGradient>
</defs>
</svg>
