<svg width="24" height="25" viewBox="0 0 24 25" fill="none" xmlns="http://www.w3.org/2000/svg">
<path fill-rule="evenodd" clip-rule="evenodd" d="M1.43946 9.21372L1.44076 9.21242L4.96705 5.69703C5.30689 5.35274 5.76887 5.1555 6.25277 5.14861L6.26589 5.14851L12.9017 5.14851L13.8483 4.20197C16.9191 1.13121 20.055 1.1295 21.4682 1.33403C21.8621 1.38803 22.2275 1.56941 22.5087 1.85059C22.7898 2.13173 22.9712 2.4971 23.0252 2.89088C23.2297 4.30406 23.2282 7.44008 20.1573 10.511L19.2111 11.4572V18.0927L19.211 18.1058C19.2041 18.5897 19.0071 19.0521 18.6628 19.392L15.146 22.9196C14.9099 23.1555 14.6141 23.3229 14.2904 23.4038C13.9666 23.4848 13.627 23.4763 13.3077 23.3793C12.9885 23.2824 12.7015 23.1005 12.4775 22.8533C12.2536 22.6062 12.101 22.303 12.0358 21.976L11.1787 17.7005L6.65906 13.1809L4.34883 12.7178L2.38388 12.3239C2.05701 12.2587 1.75309 12.1059 1.506 11.8821C1.25872 11.658 1.07689 11.3711 0.979927 11.0518C0.882961 10.7325 0.874491 10.3929 0.955423 10.0692C1.03635 9.74547 1.20365 9.4498 1.43946 9.21372ZM6.81897 11.2313L2.94656 10.4549L6.32043 7.09157H10.9587L6.81897 11.2313ZM15.2222 5.57592C17.6814 3.11675 20.0786 3.11264 21.1128 3.24648C21.2466 4.2806 21.2425 6.67784 18.7833 9.13701L12.0732 15.8471L8.51209 12.2861L15.2222 5.57592ZM13.9046 21.4127L13.1282 17.54L17.268 13.4002V18.0389L13.9046 21.4127Z" fill="white"/>
<path d="M9.31864 18.7034C9.45083 18.2117 9.179 17.6958 8.68982 17.5312C8.56215 17.4883 8.43181 17.4734 8.30549 17.4832C8.1055 17.4987 7.91556 17.5761 7.76218 17.7023C7.62649 17.8139 7.51942 17.9636 7.45929 18.1424C6.9767 19.5775 5.77098 20.3467 4.52443 20.7618C4.08561 20.9079 3.66086 21.0028 3.29508 21.0642C3.35644 20.6984 3.45134 20.2737 3.59747 19.8349C4.01258 18.5883 4.78178 17.3826 6.21685 16.9C6.39565 16.8399 6.54541 16.7328 6.65702 16.5971C6.85163 16.3605 6.93024 16.0369 6.84454 15.7236C6.83959 15.7055 6.83409 15.6875 6.82804 15.6695C6.74142 15.4119 6.55738 15.2146 6.33074 15.1048C6.10986 14.9978 5.84853 14.9739 5.59751 15.0583C5.47779 15.0985 5.36139 15.1419 5.24822 15.1883C3.22663 16.0158 2.23506 17.7762 1.75394 19.2209C1.49699 19.9926 1.3703 20.7143 1.30716 21.2407C1.27541 21.5053 1.25929 21.7243 1.25109 21.8801C1.24698 21.9582 1.24485 22.0207 1.24373 22.0655L1.24336 22.0815L1.24272 22.1193L1.24257 22.136L1.24254 22.1416L1.24253 22.1445C1.24253 22.681 1.6774 23.1167 2.21407 23.1167L2.21586 23.1167L2.22374 23.1167L2.23992 23.1166C2.2533 23.1164 2.27133 23.1161 2.29375 23.1155C2.33858 23.1144 2.40109 23.1123 2.47913 23.1082C2.63502 23.1 2.85397 23.0839 3.11858 23.0521C3.64498 22.989 4.36672 22.8623 5.13834 22.6053C6.58311 22.1242 8.34346 21.1327 9.17099 19.1111C9.21733 18.9979 9.26074 18.8815 9.30101 18.7618C9.30753 18.7424 9.3134 18.7229 9.31864 18.7034Z" fill="white"/>
</svg>
