<svg xmlns="http://www.w3.org/2000/svg" fill="currentColor" viewBox="0 0 24 24">
  <path d="M2.88 16.88a3 3 0 0 0 0 4.24 3 3 0 0 0 4.24 0 3 3 0 0 0-4.24-4.24Zm2.83 2.83a1.004 1.004 0 1 1-1.42-1.42 1.004 1.004 0 0 1 1.42 1.42ZM5 12a1 1 0 0 0 0 2 5 5 0 0 1 5 5 1 1 0 0 0 2 0 7 7 0 0 0-7-7Zm0-4a1 1 0 0 0 0 2 9 9 0 0 1 9 9 1 1 0 0 0 2 0 11.08 11.08 0 0 0-3.22-7.78A11.08 11.08 0 0 0 5 8Zm10.61.39A15.11 15.11 0 0 0 5 4a1 1 0 0 0 0 2 13 13 0 0 1 13 13 1 1 0 0 0 2 0 15.11 15.11 0 0 0-4.39-10.61Z"/>
</svg>
