<svg xmlns="http://www.w3.org/2000/svg" fill="currentColor" viewBox="0 0 184 48">
  <path d="M12.56 40.88c-2.17-1.98-2.8-6.14-1.9-9.16 1.57 1.9 3.74 2.5 5.99 2.84 3.47.53 6.88.33 10.11-1.25.37-.19.71-.43 1.11-.67.3.88.38 1.76.28 2.66a7.3 7.3 0 0 1-3.1 5.18c-.69.52-1.42.98-2.14 1.46-2.2 1.5-2.8 3.24-1.98 5.78l.09.28a5.8 5.8 0 0 1-2.58-2.2 6.2 6.2 0 0 1-1-3.37c0-.59 0-1.19-.08-1.77-.2-1.43-.87-2.07-2.13-2.1a2.49 2.49 0 0 0-2.6 2.02c-.01.1-.04.19-.07.3ZM.17 31.22s6.43-3.13 12.87-3.13l4.86-15.03c.18-.72.71-1.22 1.31-1.22.6 0 1.13.5 1.32 1.22l4.85 15.03a27.2 27.2 0 0 1 12.87 3.13L27.32 1.44C27 .57 26.48 0 25.76 0h-13.1c-.7 0-1.21.57-1.55 1.44L.17 31.22Zm67.75-9.56c0 2.63-3.28 4.2-7.81 4.2-2.96 0-4-.73-4-2.26 0-1.61 1.3-2.38 4.25-2.38 2.66 0 4.93.04 7.56.37v.07Zm.04-3.26a34.13 34.13 0 0 0-6.99-.58c-8.5 0-12.5 2.01-12.5 6.7 0 4.85 2.74 6.72 9.08 6.72 5.36 0 9-1.35 10.33-4.68h.22c-.04.8-.07 1.6-.07 2.23 0 1.72.29 1.86 1.7 1.86h6.62c-.36-1.02-.58-3.9-.58-6.4 0-2.66.1-4.68.1-7.38 0-5.52-3.3-9.03-13.68-9.03-4.46 0-9.43.76-13.21 1.9.36 1.5.86 4.53 1.11 6.5 3.28-1.53 7.93-2.19 11.53-2.19 4.97 0 6.34 1.14 6.34 3.44v.91Zm18.18 4.8c-.9.1-2.13.1-3.39.1a28.8 28.8 0 0 1-3.38-.14c0 .3-.04.62-.04.91 0 4.57 3 7.24 13.5 7.24 9.91 0 13.11-2.63 13.11-7.27 0-4.4-2.12-6.55-11.52-7.03-7.31-.32-7.96-1.13-7.96-2.04 0-1.06.94-1.61 5.84-1.61 5.07 0 6.44.7 6.44 2.16v.32c.72-.03 2.02-.07 3.35-.07 1.26 0 2.63.04 3.42.11 0-.33.04-.62.04-.88 0-5.37-4.47-7.13-13.11-7.13-9.72 0-13 2.38-13 7.02 0 4.17 2.63 6.77 11.96 7.17 6.87.22 7.63.99 7.63 2.05 0 1.13-1.12 1.64-5.94 1.64-5.55 0-6.95-.76-6.95-2.34v-.22Zm31.69-19.28c-2.63 2.45-7.34 4.9-9.97 5.56.03 1.35.03 3.84.03 5.2l2.42.03c-.04 2.6-.08 5.74-.08 7.83 0 4.86 2.56 8.52 10.52 8.52 3.35 0 5.58-.37 8.35-.95a69.8 69.8 0 0 1-.72-6.62c-1.65.55-3.74.84-6.05.84-3.2 0-4.5-.88-4.5-3.4 0-2.2 0-4.24.04-6.15 4.1.04 8.2.11 10.62.19-.03-1.9.04-4.65.14-6.48-3.49.08-7.41.11-10.65.11l.1-4.68h-.25Zm21.51 9.66.1-5.09h-7.23c.1 3.15.1 6.37.1 11.08 0 4.72-.03 7.98-.1 11.08h8.28c-.14-2.19-.18-5.88-.18-9.03 0-4.97 2.02-6.4 6.6-6.4 2.12 0 3.63.26 4.96.73.04-1.86.4-5.48.62-7.09-1.37-.4-2.89-.66-4.72-.66-3.93-.03-6.8 1.57-8.14 5.41l-.29-.03Zm36.06 5.85c0 3.98-2.88 5.85-7.42 5.85-4.5 0-7.38-1.76-7.38-5.85 0-4.1 2.91-5.63 7.38-5.63 4.5 0 7.42 1.64 7.42 5.63Zm7.53-.18c0-7.94-6.2-11.49-14.95-11.49-8.79 0-14.76 3.55-14.76 11.49 0 7.9 5.58 12.14 14.72 12.14 9.22 0 14.99-4.25 14.99-12.14Z"/>
</svg>