<svg xmlns="http://www.w3.org/2000/svg" fill="currentColor" viewBox="0 0 147 48">
  <path d="M24.25 1.23c.39.49.59 1.15.99 2.46l8.74 28.64a36.43 36.43 0 0 0-10.45-3.53l-5.7-19.18a.74.74 0 0 0-1.41 0L10.8 28.79A36.43 36.43 0 0 0 .3 32.33L9.08 3.68c.4-1.3.6-1.96 1-2.45.34-.43.8-.76 1.3-.96.58-.24 1.27-.24 2.64-.24h6.28c1.37 0 2.06 0 2.64.24.5.2.96.54 1.3.96ZM25.3 33.7c-1.45 1.22-4.32 2.06-7.64 2.06-4.06 0-7.47-1.26-8.38-2.96-.32.97-.4 2.09-.4 2.8 0 0-.2 3.5 2.23 5.92a2.29 2.29 0 0 1 2.3-2.28c2.16 0 2.16 1.89 2.16 3.42v.13A5.58 5.58 0 0 0 19 47.95a4.68 4.68 0 0 1-.47-2.05c0-2.22 1.3-3.04 2.82-4 1.2-.77 2.55-1.61 3.47-3.32a6.23 6.23 0 0 0 .46-4.88Zm28.75-1.82c3.65 0 6.4-1.3 7.52-3.5 0 1.05.07 2.14.24 2.98h6.02a23.96 23.96 0 0 1-.43-5.12v-5.4c0-5.12-3.02-7.54-9.73-7.54-5.87 0-9.81 2.42-10.27 6.38h6.26c.21-1.72 1.65-2.67 4-2.67 2.33 0 3.63.95 3.63 2.91v.53l-6.37.56c-3.09.32-4.85.84-6.08 1.69a4.42 4.42 0 0 0-1.97 3.85c0 3.3 2.75 5.33 7.18 5.33Zm2.32-3.64c-2.04 0-3.27-.81-3.27-2.1 0-1.34 1.02-2.04 3.58-2.36l4.71-.49v1.05c0 2.35-2.04 3.9-5.02 3.9Zm24.13 3.64c6.12 0 9.25-2.28 9.25-5.96 0-3.05-1.76-4.73-6.01-5.3l-5.31-.59c-1.51-.21-2.15-.6-2.15-1.44 0-1.02 1.02-1.47 3.34-1.47 3.2 0 5.42.74 7.21 2.17l2.85-2.84c-1.97-2.03-5.38-3.15-9.6-3.15-5.94 0-9.24 2.1-9.24 5.64 0 3.09 2.03 4.8 6.25 5.37l4.78.56c1.9.24 2.46.6 2.46 1.5 0 1.06-1.05 1.62-3.51 1.62-3.66 0-6.12-.98-7.77-2.8l-3.23 2.66c2.14 2.67 5.8 4.03 10.68 4.03Zm14.21-14.09v7.4c0 4.34 2.46 6.55 7.73 6.55 1.62 0 2.89-.17 4.08-.52v-4.56c-.63.14-1.4.28-2.42.28-2.22 0-3.3-.98-3.3-3.05v-6.1h5.76v-3.97h-5.77V7.4l-6.08 2.25v4.17h-3.94v3.97h3.94Zm20.58-3.97h-5.56v17.54h6.08V24.8c0-1.9.43-3.61 1.59-4.7.91-.84 2.21-1.3 4.04-1.3.67 0 1.2.07 1.8.14v-5.5c-.4-.07-.68-.07-1.17-.07-3.48 0-5.83 2-6.78 5.26v-4.8Zm19.96 18.06c6.43 0 10.97-3.4 10.97-9.33 0-5.89-4.54-9.25-10.97-9.25-6.47 0-11 3.36-11 9.25 0 5.93 4.53 9.33 11 9.33Zm0-4.03c-2.95 0-4.82-1.9-4.82-5.3s1.87-5.22 4.82-5.22c2.92 0 4.78 1.82 4.78 5.22 0 3.4-1.86 5.3-4.78 5.3Z"/>
</svg>