<svg xmlns="http://www.w3.org/2000/svg" fill="none" viewBox="0 0 367 146">
  <path fill="#fff" d="M62.4 98.48c-3.32-3.03-4.28-9.37-2.9-13.97 2.39 2.9 5.7 3.81 9.13 4.33 5.29.8 10.49.5 15.4-1.91.57-.28 1.1-.65 1.7-1.02.47 1.34.59 2.69.43 4.06a11.12 11.12 0 0 1-4.72 7.9c-1.06.78-2.18 1.48-3.27 2.22-3.37 2.27-4.28 4.94-3.01 8.81l.12.42a8.84 8.84 0 0 1-3.93-3.35 9.44 9.44 0 0 1-1.51-5.13c-.02-.9-.02-1.82-.14-2.7-.3-2.18-1.32-3.16-3.24-3.21A3.8 3.8 0 0 0 62.51 98l-.12.46ZM43.51 83.74s9.8-4.77 19.62-4.77l7.4-22.9c.28-1.11 1.1-1.86 2-1.86.92 0 1.73.75 2 1.86l7.41 22.9c11.63 0 19.62 4.77 19.62 4.77L84.89 38.36c-.48-1.34-1.28-2.2-2.37-2.2H62.55c-1.08 0-1.86.86-2.37 2.2L43.51 83.74Zm103.27-14.57c0 4.01-5 6.41-11.91 6.41-4.5 0-6.1-1.11-6.1-3.46 0-2.45 1.98-3.62 6.48-3.62 4.07 0 7.52.06 11.53.56v.11Zm.06-4.96c-2.47-.56-6.2-.9-10.65-.9-12.96 0-19.05 3.07-19.05 10.2 0 7.42 4.17 10.27 13.83 10.27 8.18 0 13.73-2.07 15.76-7.14h.33a75.48 75.48 0 0 0-.11 3.4c0 2.62.44 2.84 2.58 2.84h10.1c-.55-1.56-.88-5.96-.88-9.75 0-4.07.16-7.14.16-11.26 0-8.42-5.05-13.77-20.86-13.77-6.8 0-14.38 1.17-20.14 2.9a119.9 119.9 0 0 1 1.7 9.92c5-2.34 12.08-3.34 17.57-3.34 7.57 0 9.66 1.72 9.66 5.24v1.39Zm27.71 7.3c-1.37.17-3.24.17-5.16.17-2.03 0-3.9-.06-5.16-.22 0 .44-.05.94-.05 1.39 0 6.97 4.55 11.04 20.58 11.04 15.1 0 19.99-4.02 19.99-11.1 0-6.69-3.24-9.97-17.57-10.7-11.15-.5-12.13-1.73-12.13-3.12 0-1.62 1.42-2.45 8.89-2.45 7.74 0 9.83 1.06 9.83 3.29v.5a106.37 106.37 0 0 1 10.32.05c0-.5.05-.94.05-1.34 0-8.19-6.8-10.86-19.98-10.86-14.82 0-19.82 3.62-19.82 10.7 0 6.35 4 10.31 18.23 10.92 10.48.34 11.64 1.5 11.64 3.13 0 1.72-1.7 2.5-9.06 2.5-8.46 0-10.6-1.17-10.6-3.56v-.34Zm48.32-29.38c-4.01 3.74-11.2 7.47-15.21 8.48.05 2.06.05 5.85.05 7.91l3.68.06c-.05 3.96-.1 8.75-.1 11.93 0 7.41 3.89 12.99 16.02 12.99 5.1 0 8.51-.56 12.74-1.45-.44-2.73-.94-6.92-1.1-10.1a30 30 0 0 1-9.22 1.29c-4.89 0-6.86-1.34-6.86-5.18 0-3.35 0-6.47.05-9.37 6.26.06 12.52.17 16.2.28-.06-2.9.05-7.08.21-9.87-5.32.11-11.3.17-16.25.17l.17-7.14h-.38Zm32.78 14.72.17-7.75h-11.04c.17 4.8.17 9.7.17 16.9 0 7.18-.06 12.15-.17 16.88h12.63c-.22-3.34-.28-8.97-.28-13.77 0-7.58 3.08-9.75 10.05-9.75 3.24 0 5.55.39 7.58 1.11.05-2.84.6-8.36.93-10.81-2.09-.61-4.4-1-7.2-1-5.98-.06-10.37 2.4-12.4 8.25l-.44-.06Zm54.97 8.92c0 6.08-4.4 8.92-11.3 8.92-6.87 0-11.26-2.68-11.26-8.92s4.44-8.58 11.25-8.58c6.86 0 11.31 2.5 11.31 8.58Zm11.47-.28c0-12.1-9.44-17.5-22.78-17.5-13.4 0-22.5 5.4-22.5 17.5 0 12.04 8.5 18.5 22.45 18.5 14.05 0 22.83-6.46 22.83-18.5Z"/>
  <path stroke="#545864" d="M30.2 16.9c-2.5-.49-6.03-.77-10.15-.77-6.5 0-11.36.76-14.62 2.48a9.15 9.15 0 0 0-3.7 3.36A9.27 9.27 0 0 0 .5 26.83c0 3.8 1.08 6.55 3.5 8.31 2.38 1.74 5.98 2.44 10.83 2.44 7.45 0 12.95-1.7 15.52-6.02a49.6 49.6 0 0 0-.04 1.79c0 .66.03 1.2.11 1.64.08.44.24.83.52 1.11.29.3.66.44 1.05.5.4.08.86.1 1.4.1h10.8l-.23-.67c-.25-.72-.47-2.15-.62-3.92a69.43 69.43 0 0 1-.23-5.67c0-2.02.04-3.8.08-5.58v-.02c.05-1.79.09-3.6.09-5.66 0-4.32-1.3-7.93-4.7-10.45C35.2 2.25 29.85.91 21.91.91a75.08 75.08 0 0 0-20.3 2.92l-.45.13.11.46c.55 2.26 1.31 6.87 1.7 9.87l.08.68.62-.29c4.9-2.3 11.9-3.3 17.36-3.3 3.77 0 6.07.44 7.41 1.24.66.39 1.09.86 1.35 1.42.28.57.4 1.25.4 2.09v.77Zm-.07 5.91c-.13 1.61-1.2 2.96-3.08 3.94-2.02 1.05-4.9 1.64-8.32 1.64-2.23 0-3.64-.28-4.48-.78a2.2 2.2 0 0 1-.85-.87 2.85 2.85 0 0 1-.26-1.3c0-.55.1-1 .31-1.36.2-.37.52-.68.99-.94.94-.54 2.45-.83 4.68-.83 3.9 0 7.23.05 11.01.5Zm.07 102.01c-2.5-.5-6.03-.78-10.15-.78-6.5 0-11.36.77-14.62 2.48a9.15 9.15 0 0 0-3.7 3.36 9.27 9.27 0 0 0-1.23 4.86c0 3.8 1.08 6.55 3.5 8.32 2.38 1.73 5.98 2.44 10.83 2.44 7.45 0 12.95-1.7 15.52-6.02a49.6 49.6 0 0 0-.04 1.78c0 .67.03 1.21.11 1.65.08.44.24.82.52 1.11.29.3.66.43 1.05.5.4.07.86.09 1.4.09h10.8l-.23-.67c-.25-.71-.47-2.14-.62-3.92a69.42 69.42 0 0 1-.23-5.67c0-2.02.04-3.8.08-5.58v-.02c.05-1.78.09-3.59.09-5.66 0-4.31-1.3-7.93-4.7-10.44-3.38-2.48-8.72-3.83-16.66-3.83a75.08 75.08 0 0 0-20.3 2.92l-.45.14.11.46c.55 2.26 1.31 6.87 1.7 9.87l.08.68.62-.3c4.9-2.3 11.9-3.29 17.36-3.29 3.77 0 6.07.44 7.41 1.23.66.4 1.09.87 1.35 1.43.28.56.4 1.25.4 2.08v.78Zm-.07 5.9c-.13 1.62-1.2 2.96-3.08 3.94-2.02 1.05-4.9 1.65-8.32 1.65-2.23 0-3.64-.28-4.48-.78a2.3 2.3 0 0 1-.85-.88 2.85 2.85 0 0 1-.26-1.3c0-.55.1-.99.31-1.36.2-.36.52-.68.99-.94.94-.53 2.45-.82 4.68-.82 3.9 0 7.23.05 11.01.5ZM351.5 16.9c-2.5-.49-6.04-.77-10.16-.77-6.5 0-11.36.76-14.61 2.48a9.16 9.16 0 0 0-3.71 3.36 9.28 9.28 0 0 0-1.23 4.86c0 3.8 1.08 6.55 3.5 8.31 2.39 1.74 5.98 2.44 10.84 2.44 7.44 0 12.94-1.7 15.51-6.02-.02.65-.04 1.26-.04 1.79 0 .66.03 1.2.11 1.64.09.44.24.83.52 1.11.3.3.66.44 1.06.5.39.08.86.1 1.4.1h10.79l-.23-.67c-.25-.72-.47-2.15-.62-3.92a69.25 69.25 0 0 1-.24-5.67c0-2.02.05-3.8.09-5.58v-.02c.04-1.79.08-3.6.08-5.66 0-4.32-1.3-7.93-4.7-10.45C356.5 2.25 351.14.91 343.2.91a75.08 75.08 0 0 0-20.3 2.92l-.45.13.12.46c.54 2.26 1.3 6.87 1.69 9.87l.09.68.62-.29c4.9-2.3 11.9-3.3 17.35-3.3 3.78 0 6.07.44 7.42 1.24.65.39 1.08.86 1.35 1.42.27.57.4 1.25.4 2.09v.77Zm-.07 5.91c-.13 1.61-1.2 2.96-3.09 3.94-2.01 1.05-4.9 1.64-8.31 1.64-2.24 0-3.64-.28-4.48-.78a2.08 2.08 0 0 1-.85-.87 2.85 2.85 0 0 1-.27-1.3 2.41 2.41 0 0 1 1.3-2.3c.94-.54 2.45-.83 4.68-.83 3.9 0 7.23.05 11.01.5Zm.07 102.01c-2.5-.5-6.04-.78-10.16-.78-6.5 0-11.36.77-14.61 2.48a9.15 9.15 0 0 0-3.71 3.36 9.28 9.28 0 0 0-1.23 4.86c0 3.8 1.08 6.55 3.5 8.32 2.39 1.73 5.98 2.44 10.84 2.44 7.44 0 12.94-1.7 15.51-6.02a49.7 49.7 0 0 0-.04 1.78c0 .67.03 1.21.11 1.65.09.44.24.82.52 1.11.3.3.66.43 1.06.5.39.07.86.09 1.4.09h10.79l-.23-.67c-.25-.71-.47-2.14-.62-3.92a69.24 69.24 0 0 1-.24-5.67c0-2.02.05-3.8.09-5.58v-.02c.04-1.78.08-3.59.08-5.66 0-4.31-1.3-7.93-4.7-10.44-3.37-2.48-8.72-3.83-16.66-3.83a75.08 75.08 0 0 0-20.3 2.92l-.45.14.12.46c.54 2.26 1.3 6.87 1.69 9.87l.09.68.62-.3c4.9-2.3 11.9-3.29 17.35-3.29 3.78 0 6.07.44 7.42 1.23.65.4 1.08.87 1.35 1.43.27.56.4 1.25.4 2.08v.78Zm-.07 5.9c-.13 1.62-1.2 2.96-3.09 3.94-2.01 1.05-4.9 1.65-8.31 1.65-2.24 0-3.64-.28-4.48-.78a2.16 2.16 0 0 1-.85-.88 2.85 2.85 0 0 1-.27-1.3c0-.55.11-.99.32-1.36.2-.36.52-.68.98-.94.94-.53 2.45-.82 4.68-.82 3.9 0 7.23.05 11.01.5Z"/>
  <path stroke="#545864" d="M1.5 1.5h362.8v142.48H1.5V1.5ZM1 36.06h363.81M1 108.82h363.81M44.01 1v143.48M322.79 1v143.48"/>
</svg>