<svg xmlns="http://www.w3.org/2000/svg" fill="none" viewBox="0 0 147 146">
  <path fill="#fff" d="M63.03 98.48c-3.3-3.03-4.27-9.37-2.9-13.97 2.4 2.9 5.71 3.81 9.14 4.33 5.3.8 10.5.5 15.41-1.91.56-.28 1.08-.65 1.7-1.02.46 1.34.58 2.69.42 4.06a11.12 11.12 0 0 1-4.71 7.9c-1.06.78-2.18 1.48-3.28 2.22-3.36 2.27-4.27 4.94-3.01 8.81l.12.42a8.84 8.84 0 0 1-3.92-3.35 9.44 9.44 0 0 1-1.52-5.13c-.01-.9-.01-1.82-.13-2.71-.3-2.17-1.32-3.15-3.25-3.2A3.8 3.8 0 0 0 63.15 98l-.12.46ZM44.16 83.74s9.79-4.77 19.61-4.77l7.4-22.9c.29-1.11 1.1-1.86 2-1.86.92 0 1.73.75 2.01 1.86l7.4 22.9c11.64 0 19.62 4.77 19.62 4.77L85.53 38.36c-.48-1.34-1.28-2.2-2.37-2.2H63.2c-1.09 0-1.86.86-2.37 2.2L44.16 83.74Z"/>
  <path stroke="#545864" d="M30.84 16.9c-2.5-.49-6.03-.77-10.15-.77-6.5 0-11.36.76-14.61 2.48a9.15 9.15 0 0 0-3.71 3.36 9.27 9.27 0 0 0-1.23 4.86c0 3.8 1.08 6.55 3.5 8.31 2.39 1.74 5.98 2.44 10.84 2.44 7.44 0 12.94-1.7 15.51-6.02-.02.65-.04 1.26-.04 1.79 0 .66.03 1.2.11 1.64.09.44.24.83.52 1.11.3.3.66.44 1.06.5.39.08.86.1 1.4.1h10.79l-.23-.67a18.6 18.6 0 0 1-.62-3.92 69.43 69.43 0 0 1-.23-5.67c0-2.02.04-3.8.08-5.58v-.02c.04-1.79.08-3.6.08-5.66 0-4.32-1.3-7.93-4.7-10.45C35.85 2.25 30.5.91 22.56.91a75.08 75.08 0 0 0-20.3 2.92l-.44.13.1.46c.55 2.26 1.31 6.87 1.7 9.87l.08.68.63-.29c4.9-2.3 11.9-3.3 17.35-3.3 3.78 0 6.07.44 7.42 1.24.65.39 1.08.86 1.35 1.42.27.57.4 1.25.4 2.09v.77Zm-.07 5.91c-.12 1.61-1.2 2.96-3.08 3.94-2.01 1.05-4.9 1.64-8.31 1.64-2.24 0-3.65-.28-4.48-.78a2.08 2.08 0 0 1-.85-.87 2.85 2.85 0 0 1-.27-1.3 2.41 2.41 0 0 1 1.3-2.3c.94-.54 2.45-.83 4.68-.83 3.9 0 7.23.05 11.01.5Zm.07 102.01c-2.5-.5-6.03-.78-10.15-.78-6.5 0-11.36.77-14.61 2.48a9.15 9.15 0 0 0-3.71 3.36 9.27 9.27 0 0 0-1.23 4.86c0 3.8 1.08 6.55 3.5 8.32 2.39 1.73 5.98 2.44 10.84 2.44 7.44 0 12.94-1.7 15.51-6.02a49.6 49.6 0 0 0-.04 1.78c0 .67.03 1.21.11 1.65.09.44.24.82.52 1.11.3.3.66.43 1.06.5.39.07.86.09 1.4.09h10.79l-.23-.67c-.26-.71-.47-2.14-.62-3.92a69.42 69.42 0 0 1-.23-5.67c0-2.02.04-3.8.08-5.58v-.02c.04-1.78.08-3.59.08-5.66 0-4.31-1.3-7.93-4.7-10.44-3.37-2.48-8.72-3.83-16.66-3.83a75.08 75.08 0 0 0-20.3 2.92l-.44.14.1.46c.55 2.26 1.31 6.87 1.7 9.87l.08.68.63-.3c4.9-2.3 11.9-3.29 17.35-3.29 3.78 0 6.07.44 7.42 1.23.65.4 1.08.87 1.35 1.43.27.56.4 1.25.4 2.08v.78Zm-.07 5.9c-.12 1.62-1.2 2.96-3.08 3.94-2.01 1.05-4.9 1.65-8.31 1.65-2.24 0-3.65-.28-4.48-.78a2.16 2.16 0 0 1-.85-.88 2.85 2.85 0 0 1-.27-1.3c0-.55.11-.99.32-1.36.2-.36.52-.68.98-.94.94-.53 2.45-.82 4.68-.82 3.9 0 7.23.05 11.01.5ZM131.5 16.9c-2.5-.49-6.04-.77-10.15-.77-6.5 0-11.37.76-14.62 2.48a9.16 9.16 0 0 0-3.7 3.36 9.27 9.27 0 0 0-1.23 4.86c0 3.8 1.07 6.55 3.5 8.31 2.38 1.74 5.97 2.44 10.83 2.44 7.44 0 12.94-1.7 15.52-6.02-.03.65-.05 1.26-.05 1.79 0 .66.03 1.2.12 1.64.08.44.23.83.52 1.11.28.3.65.44 1.05.5.4.08.86.1 1.4.1h10.8l-.23-.67c-.25-.72-.47-2.15-.62-3.92a69.25 69.25 0 0 1-.23-5.67c0-2.02.04-3.8.08-5.58v-.02c.04-1.79.08-3.6.08-5.66 0-4.32-1.3-7.93-4.7-10.45C136.5 2.25 131.15.91 123.2.91a75.08 75.08 0 0 0-20.29 2.92l-.45.13.1.46a113.8 113.8 0 0 1 1.7 9.87l.09.68.62-.29c4.9-2.3 11.9-3.3 17.35-3.3 3.78 0 6.08.44 7.42 1.24.66.39 1.08.86 1.35 1.42.27.57.4 1.25.4 2.09v.77Zm-.07 5.91c-.13 1.61-1.2 2.96-3.08 3.94-2.02 1.05-4.91 1.64-8.32 1.64-2.23 0-3.64-.28-4.48-.78-.4-.24-.68-.53-.85-.87a2.85 2.85 0 0 1-.27-1.3 2.41 2.41 0 0 1 1.3-2.3c.94-.54 2.46-.83 4.68-.83 3.9 0 7.23.05 11.02.5Zm.07 102.01c-2.5-.5-6.04-.78-10.15-.78-6.5 0-11.37.77-14.62 2.48a9.15 9.15 0 0 0-3.7 3.36 9.27 9.27 0 0 0-1.23 4.86c0 3.8 1.07 6.55 3.5 8.32 2.38 1.73 5.97 2.44 10.83 2.44 7.44 0 12.94-1.7 15.52-6.02-.03.65-.05 1.26-.05 1.78 0 .67.03 1.21.12 1.65.08.44.23.82.52 1.11.28.3.65.43 1.05.5s.86.09 1.4.09h10.8l-.23-.67c-.25-.71-.47-2.14-.62-3.92a69.24 69.24 0 0 1-.23-5.67c0-2.02.04-3.8.08-5.58v-.02c.04-1.78.08-3.59.08-5.66 0-4.31-1.3-7.93-4.7-10.44-3.37-2.48-8.72-3.83-16.66-3.83a75.08 75.08 0 0 0-20.29 2.92l-.45.14.1.46a113.8 113.8 0 0 1 1.7 9.87l.09.68.62-.3c4.9-2.3 11.9-3.29 17.35-3.29 3.78 0 6.08.44 7.42 1.23.66.4 1.08.87 1.35 1.43.27.56.4 1.25.4 2.08v.78Zm-.07 5.9c-.13 1.62-1.2 2.96-3.08 3.94-2.02 1.05-4.91 1.65-8.32 1.65-2.23 0-3.64-.28-4.48-.78-.4-.25-.68-.54-.85-.88a2.85 2.85 0 0 1-.27-1.3c0-.55.11-.99.32-1.36.2-.36.52-.68.98-.94.94-.53 2.46-.82 4.68-.82 3.9 0 7.23.05 11.02.5Z"/>
  <path stroke="#545864" d="M2.14 1.5h142.1v142.7H2.14V1.5Zm-.5 34.77h143.1M1.64 109.03h143.1M44.66 1v143.48M102.8 1v143.48"/>
</svg>