<svg width="868" height="868" viewBox="0 0 868 868" fill="none" xmlns="http://www.w3.org/2000/svg">
    <g filter="url(#filter0_f_0_1)">
    <circle cx="433.552" cy="433.717" r="397.433" fill="url(#paint0_linear_0_1)"/>
    </g>
    <g filter="url(#filter1_f_0_1)">
    <circle cx="433.504" cy="433.669" r="319.675" transform="rotate(118.514 433.504 433.669)" fill="url(#paint1_linear_0_1)"/>
    </g>
    <g filter="url(#filter2_f_0_1)">
    <circle cx="433.503" cy="433.67" r="245.706" transform="rotate(30 433.503 433.67)" fill="url(#paint2_linear_0_1)"/>
    </g>
    <g filter="url(#filter3_f_0_1)">
    <circle cx="433.551" cy="433.716" r="176.292" transform="rotate(150 433.551 433.716)" fill="url(#paint3_linear_0_1)"/>
    </g>
    <g filter="url(#filter4_f_0_1)">
    <circle cx="433.405" cy="433.405" r="95.4049" fill="#222222"/>
    </g>
    <path d="M425.961 455.253C423.34 452.817 422.575 447.697 423.667 443.988C425.56 446.327 428.184 447.067 430.902 447.486C435.097 448.131 439.218 447.889 443.115 445.94C443.561 445.716 443.973 445.419 444.46 445.119C444.826 446.198 444.921 447.287 444.794 448.395C444.483 451.095 443.162 453.181 441.06 454.761C440.22 455.394 439.331 455.959 438.463 456.555C435.796 458.388 435.075 460.536 436.077 463.662C436.101 463.738 436.122 463.814 436.176 464C434.814 463.381 433.82 462.479 433.062 461.293C432.262 460.041 431.881 458.656 431.861 457.158C431.851 456.429 431.851 455.693 431.755 454.974C431.519 453.222 430.71 452.437 429.186 452.392C427.622 452.346 426.384 453.329 426.056 454.878C426.031 454.996 425.995 455.114 425.959 455.252L425.961 455.253Z" fill="white"/>
    <path d="M411 443.37C411 443.37 418.762 439.525 426.546 439.525L432.414 421.057C432.634 420.164 433.276 419.557 434 419.557C434.724 419.557 435.366 420.164 435.586 421.057L441.454 439.525C450.673 439.525 457 443.37 457 443.37C457 443.37 443.815 406.848 443.79 406.775C443.411 405.695 442.772 405 441.911 405H426.09C425.229 405 424.616 405.695 424.212 406.775C424.183 406.847 411 443.37 411 443.37Z" fill="white"/>
    <defs>
    <filter id="filter0_f_0_1" x="1.55106" y="1.71622" width="864.001" height="864.001" filterUnits="userSpaceOnUse" color-interpolation-filters="sRGB">
    <feFlood flood-opacity="0" result="BackgroundImageFix"/>
    <feBlend mode="normal" in="SourceGraphic" in2="BackgroundImageFix" result="shape"/>
    <feGaussianBlur stdDeviation="17.2835" result="effect1_foregroundBlur_0_1"/>
    </filter>
    <filter id="filter1_f_0_1" x="72.2876" y="72.4527" width="722.433" height="722.433" filterUnits="userSpaceOnUse" color-interpolation-filters="sRGB">
    <feFlood flood-opacity="0" result="BackgroundImageFix"/>
    <feBlend mode="normal" in="SourceGraphic" in2="BackgroundImageFix" result="shape"/>
    <feGaussianBlur stdDeviation="20.7402" result="effect1_foregroundBlur_0_1"/>
    </filter>
    <filter id="filter2_f_0_1" x="132.449" y="132.615" width="602.109" height="602.109" filterUnits="userSpaceOnUse" color-interpolation-filters="sRGB">
    <feFlood flood-opacity="0" result="BackgroundImageFix"/>
    <feBlend mode="normal" in="SourceGraphic" in2="BackgroundImageFix" result="shape"/>
    <feGaussianBlur stdDeviation="27.6536" result="effect1_foregroundBlur_0_1"/>
    </filter>
    <filter id="filter3_f_0_1" x="215.75" y="215.915" width="435.603" height="435.603" filterUnits="userSpaceOnUse" color-interpolation-filters="sRGB">
    <feFlood flood-opacity="0" result="BackgroundImageFix"/>
    <feBlend mode="normal" in="SourceGraphic" in2="BackgroundImageFix" result="shape"/>
    <feGaussianBlur stdDeviation="20.7402" result="effect1_foregroundBlur_0_1"/>
    </filter>
    <filter id="filter4_f_0_1" x="303.433" y="303.433" width="259.944" height="259.944" filterUnits="userSpaceOnUse" color-interpolation-filters="sRGB">
    <feFlood flood-opacity="0" result="BackgroundImageFix"/>
    <feBlend mode="normal" in="SourceGraphic" in2="BackgroundImageFix" result="shape"/>
    <feGaussianBlur stdDeviation="17.2835" result="effect1_foregroundBlur_0_1"/>
    </filter>
    <linearGradient id="paint0_linear_0_1" x1="36.118" y1="831.15" x2="913.207" y2="726.696" gradientUnits="userSpaceOnUse">
    <stop stop-color="#3245FF"/>
    <stop offset="1" stop-color="#BC52EE"/>
    </linearGradient>
    <linearGradient id="paint1_linear_0_1" x1="113.829" y1="753.344" x2="885.446" y2="422.127" gradientUnits="userSpaceOnUse">
    <stop stop-color="#D83333"/>
    <stop offset="1" stop-color="#F041FF"/>
    </linearGradient>
    <linearGradient id="paint2_linear_0_1" x1="679.209" y1="187.964" x2="86.0378" y2="436.973" gradientUnits="userSpaceOnUse">
    <stop stop-color="#4AF2C8"/>
    <stop offset="1" stop-color="#2F4CB3"/>
    </linearGradient>
    <linearGradient id="paint3_linear_0_1" x1="257.26" y1="610.007" x2="646.315" y2="563.674" gradientUnits="userSpaceOnUse">
    <stop stop-color="#3245FF"/>
    <stop offset="1" stop-color="#BC52EE"/>
    </linearGradient>
    </defs>
    </svg>
    