<svg xmlns="http://www.w3.org/2000/svg" fill="#fff" viewBox="0 0 1040 460">
  <path d="M730.36 287.81c-23.75 0-40.8-17.69-40.8-42.06 0-24.22 17.06-41.75 40.16-41.75 23.1 0 40.31 17.53 40.31 41.75 0 1.27-.16 3.18-.32 4.78H707.9c1.75 13.06 11 22.14 23.1 22.14 8.6 0 16.57-4.62 20.56-11.47l14.34 9.24c-7.17 10.36-21.03 17.37-35.53 17.37Zm-21.67-50.83h42.22c-2.87-10.67-11-17.84-21.2-17.84-10.19 0-18.16 7.17-21.02 17.84Zm-54.39 50.56V206.1h18.48v85.82c0 11.25-2.19 19.48-6.72 24.35-5.21 5.88-12.43 8.74-21.67 8.74l-5.04-16.63c5.54 0 9.4-1.51 11.59-4.54 2.18-3.19 3.36-8.56 3.36-16.29Zm20.81-111.86a11.6 11.6 0 1 1-23.22 0 11.6 11.6 0 0 1 23.22 0Zm117.1-.01h18.48v30.4h16.1v15.14h-16.1v64.53h-18.48V221.2H779.2v-15.14h13.01v-30.4ZM398.1 285.74l14.94-30.25h56.8l14.77 30.25h19.27L441.44 158 379 285.74h19.1Zm22.68-46.07 20.66-42.1 20.66 42.1h-41.32Zm215.82-6.39c-5.79-7.38-12.77-13.36-25.81-13.36-13.55 0-23.43 10.85-23.43 25.99 0 14.97 9.88 25.97 23.43 25.97 13.04 0 20.02-6.12 25.8-13.48v20.96c-6.94 5.32-15.8 8.45-25.8 8.45-24.06 0-41.43-17.69-41.43-41.9 0-24.38 17.37-41.9 41.43-41.9 9.97 0 18.87 3.03 25.8 8.32v20.95Zm-103.55 52.46h-18.43V206.1h18.43v7.63c3.55-3.98 6.5-6.3 8.91-7.44a22.2 22.2 0 0 1 9.67-2.2c3.69 0 9.91 1.5 15.11 4.7l-8.38 16.75c-3.52-2.51-6.87-3.68-10.22-3.68-10.06 0-15.09 7.54-15.09 22.62v41.25Zm-248.99-56.02c11.82 3.02 21.6 5.44 41.94 9.95a1167.78 1167.78 0 0 0-41.94 9.96 11.24 11.24 0 0 0-8.1 8.1c-3.03 11.82-5.45 21.6-9.96 41.94a1169.35 1169.35 0 0 0-9.95-41.94 11.24 11.24 0 0 0-8.11-8.1c-11.82-3.03-21.6-5.45-41.94-9.96 20.34-4.51 30.12-6.93 41.94-9.95a11.24 11.24 0 0 0 8.1-8.11c3.03-11.82 5.45-21.6 9.96-41.94 4.51 20.34 6.93 30.12 9.95 41.94a11.24 11.24 0 0 0 8.11 8.1Z"/>
  <path d="m174.65 236.37 3.35 3.3-3.35 3.3c-30.83-2.23-59.89-2.55-106.7-3.06L46 239.67l21.65-.24c46.99-.51 76.1-.83 107-3.06Zm629.8-152.12c78.17 0 150.86 66.1 150.86 145.75 0 79.64-72.67 145.74-150.83 145.75h-1.23c79.92-.68 144.5-65.67 144.5-145.75S883.17 84.93 803.25 84.26l1.2-.01Z"/>
</svg>