<svg xmlns="http://www.w3.org/2000/svg" width="188" height="28">
  <path fill="#f66135" d="M17.85.202c7.675 0 13.898 6.223 13.898 13.899S25.525 28 17.85 28z"/>
  <path fill="#f66135" d="M8.012 0c7.35 2.213 11.515 9.964 9.302 17.314C15.102 24.664 7.35 28.829 0 26.615z"/>
  <path fill="#fff" d="M39.766 3.394h8.249c4.332 0 6.847 2.516 6.847 5.86 0 2.039-1.02 3.694-2.612 4.617v.191c1.465.605 3.344 2.197 3.344 5.16 0 4.107-3.247 6.465-6.942 6.465h-8.885V3.394zm7.739 9.172c1.942 0 3.153-1.179 3.153-2.897s-1.242-2.771-3.088-2.771h-3.726v5.668h3.663zm.096 9.523c2.07 0 3.535-1.02 3.535-3.216s-1.72-3.154-3.663-3.154h-3.63v6.37zm9.714-4.681c0-5.255 3.184-8.885 7.77-8.885 2.898 0 4.523 1.72 5.096 2.58h.223V8.94h4.139v16.75h-4.076v-2.134h-.223c-.478.7-1.974 2.547-5.033 2.547-4.682 0-7.898-3.504-7.898-8.694m13.185-.063c0-3.153-1.911-5.064-4.523-5.064s-4.458 2.102-4.458 5.064 1.815 5.033 4.49 5.033 4.49-2.23 4.49-5.033m7.008-13.06c0-1.433 1.051-2.39 2.547-2.39s2.547.955 2.547 2.39-1.05 2.42-2.547 2.42c-1.496 0-2.547-.922-2.547-2.42m.478 4.649h4.14v16.752h-4.14zm7.578.002h3.917v2.74h.254c.541-1.306 2.07-2.803 4.395-2.803h1.53v3.948h-1.72c-2.644 0-4.236 1.943-4.236 4.937v7.93h-4.14zm11.243 8.471c0-5.287 3.535-8.885 8.44-8.885 5.383 0 8.312 3.982 8.312 8.694v1.307h-12.739c.128 2.547 1.88 4.267 4.555 4.267 2.039 0 3.598-.954 4.173-2.324h3.854c-.829 3.407-3.823 5.637-8.153 5.637-4.936 0-8.44-3.695-8.44-8.694m12.804-1.815c-.191-2.261-1.943-3.757-4.364-3.757s-4.108 1.655-4.364 3.757zm5.855 5.061h3.823c.159 1.433 1.305 2.197 3.184 2.197s2.994-.83 2.994-2.006c0-3.567-9.617-.191-9.617-7.198 0-2.834 2.453-5.128 6.592-5.128 3.631 0 6.338 1.849 6.592 5.19h-3.663c-.191-1.21-1.146-2.005-2.962-2.005-1.689 0-2.772.732-2.772 1.815 0 3.185 9.842-.16 9.842 7.101 0 3.185-2.581 5.478-7.07 5.478s-6.783-2.133-6.943-5.446m17.199-17.26h7.515c7.102 0 11.371 4.586 11.371 11.084 0 6.91-4.267 11.21-11.371 11.21h-7.515zm7.358 18.598c3.916 0 7.133-2.293 7.133-7.516 0-5.224-3.185-7.39-7.133-7.39H136.9v14.908h3.122zm13.406-4.584c0-5.287 3.535-8.885 8.44-8.885 5.383 0 8.312 3.982 8.312 8.694v1.307h-12.739c.128 2.547 1.88 4.267 4.555 4.267 2.039 0 3.599-.954 4.172-2.324h3.854c-.829 3.407-3.822 5.637-8.153 5.637-4.936 0-8.44-3.695-8.44-8.694m12.804-1.815c-.191-2.261-1.943-3.757-4.364-3.757s-4.107 1.655-4.363 3.757zm4.425-6.658h4.332l3.98 11.815h.256l3.948-11.815h4.427l-6.147 16.752h-4.681z"/>
</svg>
