<svg xmlns="http://www.w3.org/2000/svg" fill="currentColor" viewBox="0 0 409 105">
  <path d="M114.6 61.59c-1.42 4.78-5.89 7.42-12.7 7.42-8.23 0-12.91-4.47-13.83-13.32l37.81-.1v-3.76c0-15.65-9.55-25.71-24.6-25.71S76.27 36.99 76.27 52.75s10.47 26.42 25.41 26.42c13.11 0 22.26-6.6 24.39-17.58h-11.49zm-13.21-25.31c7.42 0 12.2 4.57 12.2 11.48H88.38c1.22-7.52 5.69-11.48 13.01-11.48m294.34 12.91-9.05-2.13c-4.27-1.02-6.5-2.85-6.5-5.69 0-3.76 2.85-6 7.73-6s7.62 2.74 7.73 7.01h11.79c-.1-9.76-7.73-16.26-19.01-16.26s-19.92 5.89-19.92 15.75c0 8.03 4.37 12.3 13.42 14.33l9.05 2.14c4.47 1.02 5.79 2.85 5.79 5.39 0 3.66-3.15 6-8.95 6s-8.94-2.74-9.05-7.11h-11.8c0 9.86 7.94 16.56 20.44 16.56s21.04-6.3 21.04-16.46c0-7.73-4.27-11.59-12.71-13.52zM232.56 77.63V49.4c0-8.14 4.78-12 10.67-12s9.66 3.76 9.66 10.78v29.45h12.4V49.4c0-8.23 4.57-12.1 10.57-12.1s9.76 3.76 9.76 10.97v29.35h12.3V45.01c0-11.59-6.71-18.9-18.91-18.9-7.62 0-13.52 3.76-16.06 9.55-2.64-5.79-7.93-9.55-15.55-9.55-7.22 0-12.3 3.25-14.84 7.42l-1.02-5.9h-11.38v49.99zm-35.83-44.76c-3.45-4.11-9.42-6.63-16.14-6.63-14.78 0-25.51 11.12-25.51 26.44s10.34 26.44 25.14 26.44c6.9 0 13-2.75 16.5-7.24v5.76h11.24V27.65h-11.24zM181.8 69c-8.43 0-15.21-7.46-15.21-16.42s6.79-16.3 15.2-16.3c8.43 0 15.19 7.19 15.19 16.3S190.23 69 181.8 69m165.57 2.88-.01 5.76h11.24V27.65h-11.24v5.22c-3.44-4.11-9.41-6.63-16.13-6.63-14.78 0-25.51 11.12-25.51 26.44s10.34 26.44 25.14 26.44c6.9 0 13-2.75 16.5-7.24M332.44 69c-8.43 0-15.21-7.46-15.21-16.42s6.78-16.3 15.2-16.3 15.19 7.19 15.19 16.3S340.87 69 332.44 69m-197.66 35.75 18.02-77.11h-11.62l-18.02 77.11zM42.8 26.25a26.4 26.4 0 0 0-20.65 9.93L30.48.52H18.86L.84 77.62h11.62l4.5-19.24A26.47 26.47 0 1 0 42.8 26.25"/>
</svg>