<svg xmlns="http://www.w3.org/2000/svg" viewBox="0 0 637 90" fill="currentColor">
  <path d="M298 2h-15v85h51V73h-36zm69 21c-19 0-31 14-31 33s12 33 31 33c16 0 27-8 30-21h-15c-2 6-7 10-14 10-11 0-17-7-18-17h47l1-7c0-18-13-31-31-31m-17 27c1-9 8-15 17-15s16 6 16 15zm158-27c-18 0-31 14-31 33s13 33 32 33c16 0 26-8 29-21h-14c-2 6-7 10-15 10-10 0-17-7-17-17h47v-7c0-18-12-31-31-31m-16 27c1-9 7-15 16-15 10 0 17 6 17 15zm69-15V25h-14v62h15V55c0-10 5-17 16-17h2V24h-3c-7 0-13 4-16 11m59 16-15-2c-5-1-7-3-7-7s4-8 11-8 12 4 13 10h14c0-12-11-21-27-21s-26 8-26 20c0 10 6 16 17 17l14 3c6 1 8 3 8 7 0 5-5 8-12 8-8 0-14-4-14-11h-15c1 13 12 22 29 22 16 0 26-8 26-20 0-10-5-16-16-18M460 10h-14v15h-22V10h-14v10c0 5-1 6-6 6h-5v12h10v37c0 9 3 13 13 13h13V75h-11V38h22v37c0 9 3 13 12 13h13V75h-11V38h11V25h-11zM49 43c8-3 12-10 12-18C61 11 51 2 35 2H0v85h37c16 0 26-9 26-24 0-10-5-18-14-20M15 15h18c8 0 13 4 13 11s-5 12-13 12H15zm20 60H15V49h20c8 0 13 5 13 13s-5 13-13 13m136-24-14-2c-6-1-8-3-8-7s4-8 11-8 12 4 13 10h14c0-12-10-21-26-21s-26 8-26 20c0 10 5 16 16 17l15 3c5 1 7 3 7 7 0 5-4 8-12 8s-13-4-14-11h-14c0 13 11 22 28 22 16 0 27-8 27-20 0-10-6-16-17-18M85 25H70v62h15zM78 0c-7 0-9 3-9 9 0 7 2 9 9 9 6 0 8-2 8-9 0-6-2-9-8-9m37 10h-13v10c0 5-2 6-6 6h-5v12h10v37c0 9 3 13 12 13h14V75h-12V38h12V25h-12zm147 48c1-3 4-4 7-4h5V41h-5c-8 0-15 4-19 10l-3 6-13-12c6-5 15-12 15-23 0-12-10-22-22-22s-23 9-23 22c0 8 3 14 7 19-6 3-14 11-14 24 0 12 9 24 25 24 14 0 22-7 27-12l11 10h16v-3l-19-18zm-35-45c4 0 9 3 9 9s-8 11-12 14c-3-3-7-8-7-14s6-9 10-9m-5 63c-6 0-12-4-12-11 0-10 9-14 11-14v-1l18 18c-2 3-8 8-17 8"/>
</svg>