<svg xmlns="http://www.w3.org/2000/svg" viewBox="0 0 599.7 165.2">
  <path fill="#DB4437" d="M13.1 38v63.4h37l32.5-56.3h73.6A82.6 82.6 0 0 0 13.1 38z"/>
  <linearGradient id="a" x1="31.9" x2="81.2" y1="88.6" y2="117.4" gradientTransform="matrix(1 0 0 -1 -7 159.8)" gradientUnits="userSpaceOnUse">
    <stop offset="0" stop-color="#a52714" stop-opacity=".6"/>
    <stop offset=".7" stop-color="#a52714" stop-opacity="0"/>
  </linearGradient>
  <path fill="url(#a)" d="M13.1 38v63.4h37l32.5-56.3h73.6A82.6 82.6 0 0 0 13.1 38z"/>
  <path fill="#3E2723" fill-opacity=".1" d="m13.1 38 37.1 63.5.8-.5-37.3-64-.6 1z"/>
  <path fill="#0F9D58" d="m78.7 165.1 36.4-36.4v-27.3h-65L13.1 38a82.6 82.6 0 0 0 65.6 127.1z"/>
  <linearGradient id="b" x1="108" x2="53.3" y1="20.5" y2="52.6" gradientTransform="matrix(1 0 0 -1 -7 159.8)" gradientUnits="userSpaceOnUse">
    <stop offset="0" stop-color="#055524" stop-opacity=".4"/>
    <stop offset=".3" stop-color="#055524" stop-opacity="0"/>
  </linearGradient>
  <path fill="url(#b)" d="m78.7 165.1 36.4-36.4v-27.3h-65L13.1 38a82.6 82.6 0 0 0 65.6 127.1z"/>
  <path fill="#263238" fill-opacity=".1" d="m77.7 165.1 1 .1 35.7-62.5-.8-.5-35.9 62.9z"/>
  <path fill="#FFCD40" d="m78.7 165.1 36.4-36.4v-27.3l-36.4 63.7z"/>
  <linearGradient id="c" x1="84" x2="97.8" y1="113.8" y2="53.4" gradientTransform="matrix(1 0 0 -1 -7 159.8)" gradientUnits="userSpaceOnUse">
    <stop offset="0" stop-color="#ea6100" stop-opacity=".3"/>
    <stop offset=".7" stop-color="#ea6100" stop-opacity="0"/>
  </linearGradient>
  <path fill="url(#c)" d="m78.7 165.1 36.4-36.4v-27.3l-36.4 63.7z"/>
  <path fill="#FFCD40" d="M115.1 101.4z"/>
  <linearGradient id="d" x1="122.1" x2="122.2" y1="58.7" y2="58.1" gradientTransform="matrix(1 0 0 -1 -7 159.8)" gradientUnits="userSpaceOnUse">
    <stop offset="0" stop-color="#ea6100" stop-opacity=".3"/>
    <stop offset=".7" stop-color="#ea6100" stop-opacity="0"/>
  </linearGradient>
  <path fill="url(#d)" d="M115.1 101.4z"/>
  <path fill="#FFCD40" d="m82.6 45.1 32.5 56.3-36.4 63.7 3.9.1a82.6 82.6 0 0 0 73.6-120.1H82.6z"/>
  <linearGradient id="e" x1="110.9" x2="124.6" y1="119.9" y2="59.5" gradientTransform="matrix(1 0 0 -1 -7 159.8)" gradientUnits="userSpaceOnUse">
    <stop offset="0" stop-color="#ea6100" stop-opacity=".3"/>
    <stop offset=".7" stop-color="#ea6100" stop-opacity="0"/>
  </linearGradient>
  <path fill="url(#e)" d="m82.6 45.1 32.5 56.3-36.4 63.7 3.9.1a82.6 82.6 0 0 0 73.6-120.1H82.6z"/>
  <radialGradient id="f" cx="662" cy="114.8" r="78.9" gradientTransform="matrix(1 0 0 -1 -583 159.8)" gradientUnits="userSpaceOnUse">
    <stop offset="0" stop-color="#3e2723" stop-opacity=".2"/>
    <stop offset="1" stop-color="#3e2723" stop-opacity="0"/>
  </radialGradient>
  <path fill="url(#f)" d="M156.2 45.1H82.6v19.6l73.6-19.6z"/>
  <path fill="#0F9D58" d="M50.1 101.4v-.1.1z"/>
  <linearGradient id="g" x1="111.6" x2="56.8" y1="26.5" y2="58.6" gradientTransform="matrix(1 0 0 -1 -7 159.8)" gradientUnits="userSpaceOnUse">
    <stop offset="0" stop-color="#055524" stop-opacity=".4"/>
    <stop offset=".3" stop-color="#055524" stop-opacity="0"/>
  </linearGradient>
  <path fill="url(#g)" d="M50.1 101.4v-.1.1z"/>
  <radialGradient id="h" cx="596" cy="121.8" r="73.3" gradientTransform="matrix(1 0 0 -1 -583 159.8)" gradientUnits="userSpaceOnUse">
    <stop offset="0" stop-color="#3e2723" stop-opacity=".2"/>
    <stop offset="1" stop-color="#3e2723" stop-opacity="0"/>
  </radialGradient>
  <path fill="url(#h)" d="m13.1 38 37 63.4 16.8-9.7L13.1 38z"/>
  <radialGradient id="i" cx="665.5" cy="77.1" r="82.5" gradientTransform="matrix(1 0 0 -1 -583 159.8)" gradientUnits="userSpaceOnUse">
    <stop offset="0" stop-color="#263238" stop-opacity=".2"/>
    <stop offset="1" stop-color="#263238" stop-opacity="0"/>
  </radialGradient>
  <path fill="url(#i)" d="m115.1 101.4-16.7-9.7-19.7 73.4z"/>
  <g transform="translate(-7 -7)">
    <circle cx="89.6" cy="89.6" r="37.5" fill="#F1F1F1"/>
    <circle cx="89.6" cy="89.6" r="30" fill="#4285F4"/>
  </g>
  <path fill="#3E2723" fill-opacity=".2" d="M155.7 44.1H82.6a37.5 37.5 0 0 0-37.5 37.5v.9A37.5 37.5 0 0 1 82.6 45h73.5l-.4-.9z"/>
  <path fill="#FFF" fill-opacity=".1" d="M83.2 120.1h-.6c-13.9 0-26-7.6-32.5-18.8L13.1 38l-.3.4 37.3 63.9a37.6 37.6 0 0 0 59.2 7.6 37.5 37.5 0 0 1-25.7 10.2c-.2.1-.3 0-.4 0zm12.5-2.3.6-.2-.6.2zm1.9-.8 1.7-.8-1.7.8zm-3.7 1.4.3-.1-.3.1zm21.2-17zM100 115.9l1.4-.8-1.4.8z"/>
  <path fill="#3E2723" d="M120.2 82.6zm-5.1 18.8zm5-21.3v-.2.2zm-.1 5.5V85v.6zm-10.7 24.3 2.4-2.4.4-.7-2.8 3.1zm9.8-36.3a38.8 38.8 0 0 1-2.2 26.2 37.5 37.5 0 0 0-33.3-54.7h-.5c17.4.2 32 12.3 36 28.5zm.7 14.2.1-.5-.1.5zm-25.6 30.5 1.4-.5-1.4.5zm2.1-.7 1.3-.5a7 7 0 0 0-1.3.5zm5-2.5.5-.3-.5.3zm-2 1.1.7-.4-.7.4zm-16.2 3.9h.1a42 42 0 0 0-.1 0z" opacity=".1"/>
  <path fill="#FFF" fill-opacity=".1" d="M115.1 101.4a38.2 38.2 0 0 1-13.3 13.5l-.5.3-1.4.8-.7.4-1.7.8a7 7 0 0 1-1.3.5l-.6.2-1.4.5-.3.1c-3.4 1.1-7 1.7-10.7 1.7h.3c10 0 19-3.9 25.7-10.2l2.8-3.2 3.1-5.4z"/>
  <path fill="#3E2723" d="M115.1 101.4a38.2 38.2 0 0 1-13.3 13.5l-.5.3-1.4.8-.7.4-1.7.8a7 7 0 0 1-1.3.5l-.6.2-1.4.5-.3.1c-3.4 1.1-7 1.7-10.7 1.7h.3c10 0 19-3.9 25.7-10.2l2.8-3.2 3.1-5.4z" opacity=".1"/>
  <path fill="#FFF" fill-opacity=".2" d="m119.1 73.6-.3-1.1c.7 2.4 1.1 4.8 1.3 7.4v.2l.1 2.5-.1 2.3v.6l-.2 1.8-.1.5c-.7 4.9-2.3 9.4-4.7 13.5l-3.1 5.4-.4.7L78.7 165h1.1l35.7-62.5 1.5-2.9a36.7 36.7 0 0 0 2.1-26z"/>
  <path fill="#FFF" fill-opacity=".2" d="M82.6.9A82.6 82.6 0 0 1 165.2 83v-.5A82.6 82.6 0 0 0 0 82.6v.5A82.7 82.7 0 0 1 82.6.9z"/>
  <path fill="#3E2723" fill-opacity=".1" d="M82.6 164.3a82.6 82.6 0 0 0 82.6-82.1v.5A82.6 82.6 0 1 1 0 82.6v-.5a82.7 82.7 0 0 0 82.6 82.2z"/>
  <radialGradient id="j" cx="31.7" cy="137.3" r="165.9" gradientTransform="matrix(1 0 0 -1 -7 159.8)" gradientUnits="userSpaceOnUse">
    <stop offset="0" stop-color="#fff" stop-opacity=".1"/>
    <stop offset="1" stop-color="#fff" stop-opacity="0"/>
  </radialGradient>
  <circle cx="82.6" cy="82.6" r="82.6" fill="url(#j)"/>
  <path fill="currentColor" d="M210.2 84.7c0-17.8 12.5-31.4 30.3-31.4 14.1 0 22 8.4 25.6 16.7l-9.9 4.7c-2.6-6.8-8.4-11-16.2-11-9.4 0-18.3 8.4-18.3 21.4 0 12.5 8.9 21.4 18.3 21.4a18 18 0 0 0 17.3-11l9.9 4.2a27.4 27.4 0 0 1-26.1 16.7 30.5 30.5 0 0 1-30.9-31.7zM286 55.4l-.5 8.4h.5a22.6 22.6 0 0 1 18.8-9.9c15.2 0 22.5 9.9 22.5 24.6v36.1h-11V80c0-12-6.3-16.2-14.6-16.2-9.4 0-15.7 8.9-15.7 18.3v32.4h-11V28.8h11v26.6zm52.8 59.1V55.4h10.5v9.4h.5c2.6-6.8 11-11 17.3-11 3.7 0 5.8.5 8.4 1.6l-4.2 10.5a20 20 0 0 0-5.8-1c-7.3 0-15.2 6.3-15.2 17.3v32.4h-11.5zm97.3-29.8c0 17.8-12.5 31.4-30.3 31.4s-30.3-13.6-30.3-31.4 12.5-31.4 30.3-31.4 30.3 13.6 30.3 31.4zm-11 0c0-13.6-9.4-21.4-19.3-21.4s-19.3 7.8-19.3 21.4 9.4 21.4 19.3 21.4 19.3-7.8 19.3-21.4zm19.8-29.3h10.5v8.4h.5c3.1-5.8 11-9.9 18.3-9.9 9.4 0 15.7 4.2 18.8 11.5a23.7 23.7 0 0 1 20.4-11.5c14.1 0 20.9 9.9 20.9 24.6v36.1h-11.5V80c0-12-4.7-16.2-13.1-16.2-8.9 0-15.2 8.9-15.2 18.3v32.4h-11V80c0-12-4.7-16.2-13.1-16.2-8.9 0-15.2 8.9-15.2 18.3v32.4h-11V55.4h.7zm97.3 29.3c0-16.7 11.5-31.4 28.8-31.4s28.8 12.5 28.8 31.4v2.1h-46.5c.5 12.5 9.4 19.3 18.8 19.3 6.3 0 13.1-2.6 16.2-9.9l9.9 4.2a26.8 26.8 0 0 1-25.6 16.2c-18.4-.5-30.4-14.1-30.4-31.9zm28.7-20.9c-8.4 0-14.6 5.8-16.7 14.1h34c-.5-5.2-4.7-14.1-17.3-14.1z"/>
</svg>
