<svg xmlns="http://www.w3.org/2000/svg" viewBox="0 0 1207 410">
  <path fill="#fff" d="M159.8 311.2H133v96.3h73.3v-23.3h-46.5zm126-1.9a50.6 50.6 0 0 0-51.9 50v.3a50 50 0 0 0 51.5 49.8c29.6 0 52-22.5 52-50.1v-.4a50 50 0 0 0-51.5-49.6m24.4 50.3c0 13.9-9.7 25.8-24.5 25.8-14.6 0-24.5-12.1-24.5-26v-.3c0-14 9.8-25.7 24.3-25.7 14.8 0 24.7 12 24.7 25.9zm122.3 5.8c0 13.4-7 19.8-17.6 19.8s-17.7-6.6-17.7-20.5v-53.5h-27v54.1c0 30.2 17 43.9 44.3 43.9 27.4 0 45.1-13.6 45.1-44.6v-53.4h-27.1zm105-54.2h-37v96.3H537c34.6 0 54.8-20.6 54.8-48.4v-.3c0-27.8-20-47.6-54.3-47.6m27 48.3c0 15.5-10.6 24.3-26.5 24.3v-.2h-10.8v-48.8H538c16 0 26.7 9 26.7 24.3zm66.1 48h26.6v-34.2H703v-22.4h-45.7v-16.4h50.4V311h-77zm140.6-96.3h-26.6v96.3h73.2v-23.3h-46.7zm116.3-.6-40.9 96.8h28l6.8-17h37l7.1 17h28.7l-41-96.8zm2 59 10.8-27.2 10.7 27.2zm184.4-25.1v-.3q0-14.3-8.6-22.5c-6.6-6.7-16.6-10.5-31.4-10.5h-45.5v96.4h26.8v-29.2h11.6l19.5 29.2h30.8l-23-33.5a30 30 0 0 0 19.8-29.6m-27 1.6c0 6.8-5 11.3-14.2 11.3h-17.6v-23h17.5c8.8 0 14.4 3.9 14.4 11.4zm91.8 38.9v-15.3h46v-21.1h-46V334h51v-22.7h-77.4v96.3h78V385zm-1086-51.7a24 24 0 0 1 22.7 16h28.2a50 50 0 0 0-50.9-40 50.6 50.6 0 0 0-52 50.2v.3a50 50 0 0 0 51.6 49.7 50.6 50.6 0 0 0 50.6-38.3l-28.2-.2a23 23 0 0 1-22 14.4c-14.6 0-24.5-12.2-24.5-26v-.3c0-14 9.7-25.7 24.3-25.7"/>
  <path fill="#f38020" d="M1024.2 251c3.6-12.4 2.3-23.8-3.7-32.2a33 33 0 0 0-26-12.6l-211-2.8a4 4 0 0 1-3.3-1.7 5 5 0 0 1-.5-3.9 6 6 0 0 1 5-3.7l213-2.7c25.3-1.2 52.6-21.6 62.2-46.7l12.2-31.7q.8-2 .4-4a138.5 138.5 0 0 0-266.6-14.4 62.2 62.2 0 0 0-98 65.4 88.5 88.5 0 0 0-85.2 101.5 4 4 0 0 0 4 3.6h389.6a5 5 0 0 0 5-3.8z"/>
  <path fill="#faae40" d="m1091.4 115.3-5.8.2q-2.1 0-3 2.4l-8.3 28.6c-3.6 12.3-2.2 23.6 3.8 32a32 32 0 0 0 25.9 12.7l44.9 2.7a4 4 0 0 1 3.3 1.8 5 5 0 0 1 .5 3.8 6 6 0 0 1-5 3.7L1101 206c-25.4 1.2-52.8 21.6-62.3 46.7l-3.5 8.7c-.7 1.7.6 3.4 2.4 3.4h160.9q3.2-.1 4-3 4.3-15 4.4-31.3c0-63.5-51.8-115.2-115.5-115.2"/>
</svg>
