<svg xmlns="http://www.w3.org/2000/svg" fill="currentColor" viewBox="0 0 194 26">
  <path d="M43.282 13.56c0-3.548 2.915-6.464 6.591-6.464 3.549 0 5.197 2.535 5.197 2.535l-2.155 2.155s-1.14-1.52-3.042-1.52c-1.774 0-3.17 1.393-3.17 3.295s1.394 3.295 3.17 3.295c1.902 0 3.042-1.52 3.042-1.52l2.155 2.154s-1.648 2.536-5.197 2.536c-3.676 0-6.59-2.917-6.59-6.465zM57.353 2.026h3.423v17.747h-3.423zm6.083 11.534c0-3.548 2.914-6.464 6.59-6.464 3.677 0 6.591 2.914 6.591 6.465s-2.914 6.465-6.59 6.465c-3.677 0-6.591-2.917-6.591-6.465zm9.76 0c0-1.901-1.394-3.295-3.17-3.295-1.775 0-3.17 1.394-3.17 3.296s1.395 3.295 3.17 3.295c1.776 0 3.17-1.394 3.17-3.295zm5.959 1.269V7.35h3.423v6.971c0 1.521.887 2.408 2.28 2.408 1.522 0 2.662-1.14 2.662-2.789V7.35h3.423v12.422H87.52v-1.775h-.127s-1.268 2.028-3.677 2.028c-2.534 0-4.561-2.028-4.561-5.197zm14.322-1.269c0-3.801 2.661-6.464 5.578-6.464 2.661 0 3.929 2.027 3.929 2.027h.128V2.026h3.423v17.747h-3.423v-1.775h-.128s-1.268 2.028-3.93 2.028c-2.916 0-5.577-2.662-5.577-6.465zm9.761 0c0-1.901-1.394-3.295-3.17-3.295s-3.17 1.394-3.17 3.296 1.394 3.295 3.17 3.295 3.17-1.394 3.17-3.295zm5.956 0c0-3.548 2.915-6.464 6.591-6.464 3.549 0 5.198 2.535 5.198 2.535l-2.155 2.155s-1.141-1.52-3.043-1.52c-1.774 0-3.169 1.393-3.169 3.295s1.393 3.295 3.169 3.295c1.902 0 3.043-1.52 3.043-1.52l2.155 2.154s-1.649 2.536-5.198 2.536c-3.674 0-6.591-2.917-6.591-6.465zm13.31 2.917c0-2.027 1.393-3.575 3.676-3.98l3.929-.71c-.127-.888-.887-1.65-2.155-1.65-1.774 0-2.789 1.394-2.789 1.394l-2.027-2.027s1.774-2.408 5.069-2.408c3.17 0 5.325 2.155 5.325 4.944v7.733h-3.423v-1.521h-.127s-1.268 1.774-3.676 1.774c-2.281 0-3.802-1.521-3.802-3.549m7.605-2.03v-.252l-2.789.506c-.887.152-1.393.634-1.393 1.268 0 .761.506 1.268 1.521 1.268 1.521 0 2.661-1.14 2.661-2.79m6.719-7.097h3.422v1.775h.128s1.268-2.028 3.676-2.028c2.536 0 4.563 2.028 4.563 5.197v7.479h-3.423V12.8c0-1.521-.887-2.408-2.282-2.408-1.521 0-2.662 1.14-2.662 2.789v6.59h-3.422zm15.083 0h3.423v1.775h.128s1.267-2.028 3.676-2.028c2.535 0 4.563 2.028 4.563 5.197v7.479h-3.423V12.8c0-1.521-.887-2.408-2.282-2.408-1.522 0-2.662 1.14-2.662 2.789v6.59h-3.423zm14.324 6.21c0-3.548 2.915-6.464 6.591-6.464s6.591 2.914 6.591 6.465-2.915 6.465-6.591 6.465-6.591-2.917-6.591-6.465zm9.761 0c0-1.901-1.394-3.295-3.17-3.295s-3.17 1.394-3.17 3.296 1.394 3.295 3.17 3.295 3.17-1.394 3.17-3.295zm5.957-6.21h3.422v1.775h.128s1.268-2.028 3.676-2.028c2.536 0 4.563 2.028 4.563 5.197v7.479h-3.423V12.8c0-1.521-.887-2.408-2.282-2.408-1.521 0-2.662 1.14-2.662 2.789v6.59h-3.422zM14.813 21.342c.18.103.374.206.568.297 1.445.67 2.116 1.11 2.116 2.038 0 .994-.813 1.807-1.807 1.807-.774 0-1.419-.49-1.677-1.174a5.14 5.14 0 0 1-3.678 1.548 5.16 5.16 0 0 1-5.16-5.161c0-.271.038-.542.077-.813-2.646-.774-4.684-2.98-5.149-5.742-.064-.4-.103-.8-.103-1.213s.039-.813.103-1.213c.478-2.748 2.503-4.968 5.149-5.742l-.005-.034c-.037-.258-.073-.507-.073-.779A5.16 5.16 0 0 1 10.335 0c1.433 0 2.736.594 3.678 1.548A1.79 1.79 0 0 1 15.69.374c.994 0 1.807.813 1.807 1.807 0 1.006-.671 1.445-2.116 2.116a8 8 0 0 0-.42.216l-.148.08a10 10 0 0 0-.581.349l-.07.045-.072.045c-.438.284-.838.62-1.226.968a.1.1 0 0 0-.032.026.1.1 0 0 1-.032.026c-.155.154-.31.31-.452.464l-.058.065q-.028.034-.058.064a10 10 0 0 1-.186.224 6 6 0 0 0-.278.344 9.6 9.6 0 0 0-1.936 5.755 9.5 9.5 0 0 0 1.936 5.755 6 6 0 0 0 .522.632l.058.064c.107.126.22.237.335.35l.117.115a.1.1 0 0 1 .032.026q.014.015.032.026a10 10 0 0 0 1.226.967q.039.021.071.045l.071.046.123.077.122.077.168.097q.082.049.168.097M32.748 6.026c2.646.774 4.684 2.98 5.149 5.742a7.7 7.7 0 0 1 0 2.503c-.478 2.748-2.503 4.968-5.149 5.742l.005.034c.037.258.073.507.073.779a5.16 5.16 0 0 1-5.162 5.161 5.16 5.16 0 0 1-3.677-1.548 1.79 1.79 0 0 1-1.677 1.174 1.81 1.81 0 0 1-1.807-1.806c0-1.007.671-1.446 2.116-2.117.143-.066.28-.14.42-.216l.148-.08a10 10 0 0 0 .581-.349l.07-.045.072-.045a10 10 0 0 0 1.226-.968.1.1 0 0 0 .032-.026q.015-.015.032-.025c.155-.155.31-.31.452-.465l.058-.064q.028-.035.058-.065.091-.113.186-.224c.097-.114.192-.226.278-.344 1.2-1.6 1.936-3.6 1.936-5.755a9.5 9.5 0 0 0-1.936-5.754 6 6 0 0 0-.522-.633l-.058-.064a5 5 0 0 0-.452-.465.1.1 0 0 1-.032-.026.1.1 0 0 0-.032-.025 11 11 0 0 0-1.226-.968l-.071-.045q-.033-.025-.071-.045l-.123-.078-.122-.077-.168-.097a8 8 0 0 0-.735-.394c-1.433-.683-2.117-1.122-2.117-2.116 0-.993.813-1.806 1.807-1.806.774 0 1.419.49 1.677 1.174A5.14 5.14 0 0 1 27.665.052a5.16 5.16 0 0 1 5.16 5.161c0 .27-.038.542-.077.813"/>
  <path d="M24.632 12.98a5.62 5.62 0 0 0-5.626-5.625 5.62 5.62 0 0 0-5.625 5.626 5.62 5.62 0 0 0 5.625 5.625 5.62 5.62 0 0 0 5.626-5.625z"/>
</svg>