<svg xmlns="http://www.w3.org/2000/svg" width="363" height="80" fill="#fff">
  <path fill-rule="evenodd" d="M29.07 42.88q.54.3 1.11.59c2.84 1.31 4.16 2.17 4.16 4 0 1.95-1.6 3.54-3.55 3.54a3.5 3.5 0 0 1-3.29-2.3 10.13 10.13 0 0 1-17.2-8.69A14.27 14.27 0 0 1 .2 24c.94-5.4 4.92-9.75 10.1-11.27v-.06q-.13-.75-.15-1.53a10.13 10.13 0 0 1 17.35-7.1 3.52 3.52 0 0 1 6.84 1.25c0 1.97-1.32 2.84-4.16 4.15q-.41.2-.82.43l-.29.15-.66.38q-.26.15-.48.3l-.14.1-.14.09q-1.27.85-2.4 1.9-.04.01-.07.05l-.06.05-1 1.03-.11.13-.37.44q-.29.33-.55.68A18.66 18.66 0 0 0 24.12 39l.11.12q.32.37.66.69l.23.22q.04.02.06.05l.07.05a19 19 0 0 0 2.54 2l.14.08.24.15.24.15.33.2zm35.2-30.05a14.27 14.27 0 0 1 0 27.45v.06q.13.75.15 1.53a10.13 10.13 0 0 1-17.34 7.1 3.52 3.52 0 0 1-6.84-1.25c0-1.97 1.31-2.84 4.15-4.15q.42-.2.82-.43l.3-.15.65-.38q.26-.15.48-.3.09-.05.14-.1l.14-.09q1.28-.84 2.4-1.9.04-.01.07-.05l.07-.05.88-.9.12-.13q.05-.08.11-.13l.37-.44q.28-.32.54-.68a18.66 18.66 0 0 0-2.09-24.92l-.06-.04a22 22 0 0 0-2.4-1.9l-.15-.1-.14-.08a8 8 0 0 0-.8-.5 15 15 0 0 0-1.45-.77c-2.81-1.34-4.15-2.2-4.15-4.15s1.6-3.54 3.54-3.54c1.52 0 2.79.96 3.3 2.3a10.13 10.13 0 0 1 17.35 7.09c0 .53-.08 1.06-.16 1.6" clip-rule="evenodd"/>
  <path d="M48.34 26.48a11.03 11.03 0 1 0-22.07-.02 11.03 11.03 0 0 0 22.07.02"/>
  <path fill-rule="evenodd" d="M119.93 36.26V.83h-6.5v35.43zM98.5 37q4.5 0 7.44-2.4a11 11 0 0 0 3.82-5.73l-5.73-1.9a6 6 0 0 1-1.86 2.86q-1.36 1.2-3.67 1.2a6 6 0 0 1-4.38-1.84q-1.78-1.83-1.78-4.97 0-3.12 1.76-4.94a5.8 5.8 0 0 1 4.35-1.8q4.16 0 5.34 4.05l5.82-1.95a10.5 10.5 0 0 0-3.77-5.75q-2.93-2.38-7.53-2.38-5.3 0-8.89 3.62a12.5 12.5 0 0 0-3.6 9.15q0 5.49 3.65 9.13A12.3 12.3 0 0 0 98.5 37m46.6-3.62a12.2 12.2 0 0 1-9.02 3.62 12.2 12.2 0 0 1-9.03-3.62 12.5 12.5 0 0 1-3.6-9.16q0-5.52 3.57-9.15a12.3 12.3 0 0 1 9.06-3.62q5.43 0 9.03 3.62t3.6 9.15-3.6 9.16m-9.02-2.3q-2.55 0-4.36-1.81-1.76-1.82-1.76-5.05t1.79-5.04a6 6 0 0 1 4.33-1.8q2.55 0 4.33 1.8 1.8 1.82 1.79 5.04 0 3.24-1.79 5.05a6 6 0 0 1-4.33 1.8m28.83 5.01q-1.83.8-3.89.8-4.26 0-6.7-2.7a9.8 9.8 0 0 1-2.45-6.78V12.19h6.5v13.9q0 2.15 1.13 3.5 1.13 1.34 3.28 1.34 2.1 0 3.33-1.3a4.8 4.8 0 0 0 1.22-3.45v-14h6.51v19.73q0 2.3.25 4.35h-6.22a14 14 0 0 1-.2-2.6 5.8 5.8 0 0 1-2.76 2.43m24.6.76q2.35 0 4.13-.93a6 6 0 0 0 2.62-2.45q0 1.57.25 2.8h6.21a44 44 0 0 1-.2-4.36V.83h-6.4v13.75q-1.62-2.98-6.8-2.98-5.05 0-8.3 3.62a13 13 0 0 0-3.25 8.96q0 5.48 3.3 9.07 3.3 3.6 8.44 3.6M186 29.19a5.5 5.5 0 0 0 4.3 1.84q2.6 0 4.26-1.86 1.67-1.86 1.67-5.04 0-3.14-1.67-4.92a5.6 5.6 0 0 0-4.26-1.79 5.6 5.6 0 0 0-4.28 1.81q-1.69 1.82-1.69 4.95 0 3.18 1.67 5.01M218.8 37q4.5 0 7.44-2.4 2.93-2.39 3.81-5.72l-5.72-1.9a6 6 0 0 1-1.86 2.86q-1.37 1.2-3.67 1.2a6 6 0 0 1-4.38-1.84q-1.8-1.83-1.79-4.97 0-3.12 1.76-4.94a5.8 5.8 0 0 1 4.36-1.8q4.16 0 5.33 4.05l5.83-1.95a10.5 10.5 0 0 0-3.77-5.75q-2.94-2.38-7.54-2.38-5.28 0-8.88 3.62a12.5 12.5 0 0 0-3.6 9.15q0 5.49 3.65 9.13A12.3 12.3 0 0 0 218.8 37m29.76-3.61q-2.3 3.57-7.1 3.57-3.7 0-5.99-2.16a6.8 6.8 0 0 1-2.28-5.08q0-3.08 2.01-4.95a9.6 9.6 0 0 1 5.19-2.35l5.92-.88q1.8-.24 1.81-1.71a2.8 2.8 0 0 0-1.05-2.25q-1.05-.88-3.01-.88-2.06 0-3.25 1.12a4.2 4.2 0 0 0-1.35 2.8l-5.78-1.23a8.5 8.5 0 0 1 3.09-5.53q2.73-2.4 7.24-2.4 5.38 0 7.93 2.57a9 9 0 0 1 2.54 6.58v11.85q0 2.15.3 3.81h-5.97q-.25-1.07-.25-2.88m-5.72-1.28q-1.47 0-2.3-.8a2.7 2.7 0 0 1-.84-1.99q0-2.59 2.99-3.03l5.43-.83v1.07q0 3-1.5 4.29-1.49 1.3-3.78 1.3m23.08-9.69v13.85h-6.51V12.2h6.31v2.98a6.7 6.7 0 0 1 2.94-2.69 9 9 0 0 1 4.01-.93q4.26 0 6.49 2.67 2.22 2.67 2.22 6.87v15.17h-6.5V22.22q0-2.16-1.1-3.48-1.11-1.32-3.36-1.32a4.1 4.1 0 0 0-3.28 1.42 5.3 5.3 0 0 0-1.22 3.57m26.95 13.85V22.41q0-2.14 1.22-3.57a4.1 4.1 0 0 1 3.28-1.42q2.25 0 3.35 1.32t1.1 3.48v14.04h6.51V21.1q0-4.2-2.23-6.87t-6.48-2.67q-2.1 0-4.01.93a6.7 6.7 0 0 0-2.94 2.7v-3h-6.31v24.08zm40.28-2.88a12.2 12.2 0 0 1-9.03 3.62 12.2 12.2 0 0 1-9.03-3.62 12.5 12.5 0 0 1-3.6-9.16q0-5.52 3.58-9.15a12.3 12.3 0 0 1 9.05-3.62q5.43 0 9.03 3.62t3.6 9.15-3.6 9.16m-9.03-2.3q-2.55 0-4.35-1.82-1.77-1.8-1.77-5.04 0-3.23 1.79-5.04a6 6 0 0 1 4.33-1.8q2.55 0 4.33 1.8 1.8 1.82 1.79 5.04 0 3.24-1.79 5.04a6 6 0 0 1-4.33 1.82m22.64-8.67v13.85h-6.5V12.2h6.3v2.98a6.7 6.7 0 0 1 2.94-2.69 9 9 0 0 1 4.02-.93q4.25 0 6.48 2.67t2.23 6.87v15.17h-6.51V22.22q0-2.16-1.1-3.48-1.11-1.32-3.36-1.32a4.1 4.1 0 0 0-3.27 1.42 5.3 5.3 0 0 0-1.23 3.57" clip-rule="evenodd"/>
  <path d="M313.21 71.26c-5.54 0-9.76-4.22-9.76-9.5 0-5.27 4.22-9.49 9.76-9.49a9.5 9.5 0 0 1 7.52 3.56l-1.85 1.85s-1.84-2.77-5.67-2.77a6.8 6.8 0 0 0-6.86 6.86 6.8 6.8 0 0 0 6.86 6.86c3.83 0 5.8-2.9 5.8-2.9l1.85 1.84s-2.64 3.7-7.65 3.7M324.3 71V52.53h2.64l7 8.97 6.98-8.97h2.64V71h-2.9V57.41L333.92 66l-6.72-8.58V71zm29.28.26c-4.49 0-6.6-2.77-6.6-2.77l1.98-1.97s1.45 2.1 4.62 2.1c2.37 0 3.7-1.31 3.7-2.76 0-4.1-9.77-1.59-9.77-8.45 0-2.77 2.38-5.14 6.33-5.14a7.8 7.8 0 0 1 5.8 2.37l-1.97 1.98s-1.32-1.71-3.83-1.71c-2.24 0-3.43 1.19-3.43 2.5 0 4.1 9.76 1.59 9.76 8.45 0 2.9-2.5 5.4-6.6 5.4"/>
</svg>
