<svg xmlns="http://www.w3.org/2000/svg" fill="#fff" viewBox="0 0 801 801">
  <path d="M22 780h27c25 0 37-14 37-43 0-25-12-38-37-38H22v81zm30 20H0V680h52c37 0 56 19 56 57 0 42-19 63-56 63m79 0h-22l50-120h24l52 120h-24l-15-33h-38l8-19h24l-19-45zm92-120h90v19h-34v101h-22V699h-34zm102 120h-23l51-120h24l52 120h-24l-15-33h-39l8-19h25l-20-45zm141-20h26c25 0 37-14 37-43 0-25-12-38-37-38h-26v81zm29 20h-52V680h52c38 0 56 19 56 57 0 42-18 63-56 63m131-19c24 0 37-14 37-41 0-28-13-41-37-41s-37 13-37 41c0 27 13 41 37 41m-60-41c0-40 20-61 60-61s60 21 60 61-20 61-60 61c-38 0-58-21-60-61m212 11v28c-5 2-10 2-14 2-27 0-40-14-40-43 0-26 14-39 43-39 12 0 23 2 33 6v-20c-10-4-22-6-35-6-43 0-64 20-64 59 0 42 21 63 63 63 15 0 27-3 36-7v-62h-36l-7 19h21zM349 166c22-15 50-9 46-4-9 8 3 6 4 21 1 12-3 18-6 22a139 139 0 0 0-41 12l-4-3c-15-13-15-37 1-48m131 92c4-3 22-9 38-11h24c5 3 5 12 2 20-6 13-13 26-21 27-14 2-27-6-42-17-5-4-9-13-1-19m25-118c20 10 17 28 18 38v7c-3-2-8-3-15-3l-6 1c-7-4-12-12-16-20l-1-2v-2c-2-7-1-8 0-10 1-3 5-4-1-6l-1-1c3-4 14-5 22-2M394 355c-22-14-44-34-54-45-2-1-2-7-2-7 9 7 46 33 85 46 14 4 35 5 54-5 14-8 31-22 41-36l2 3-7 17 12 4 32-5c12-19 20-49 11-78-5-17-31-49-33-51-7-7 1-31-12-58-14-29-50-59-66-71 5 3 33 14 46 31 2-2 2-11 3-13-11-15-12-42-12-49 0-13-7-28-7-28s12 9 15 25c3 19 11 33 21 45 18 24 35 36 44 27 10-10-11-56-37-82-30-30-39-26-56-20-15 5-23 46-60 45l-31-1 8-10-23 11-1-1 8-13s-10 6-19 14c1-10 7-15 7-15s-12 2-28 20c-19 5-23 8-38 14-23-5-35-13-45-28-8-12-23-14-38-8l-48 21h18c-13 5-25 12-25 12h13l-12 9c-12 8-21 18-21 18l14-5c-4 11-14 19-12 33 1 13 17 39 37 55 2 1 29 26 50 16 20-10 28-20 32-34 4-16 2-28-7-64l-14-47 1-1c7 15 24 52 31 77 11 40 8 60 3 67-15 22-54 25-71 13-3 42 7 61 10 70-2 11 5 31 5 31s1-9 4-14c1 11 6 24 6 24s0-8 3-15c3 6 6 7 9 12 3 11 10 19 10 19l-1-12c16 15 19 38 21 55 4 47-75 85-91 115-11 17-18 45 1 62 48 39 30 50 54 68 32 24 73 13 87-7 20-27 15-52 8-76-6-19-21-50-40-62a83 83 0 0 0-54-13l1-1c23-5 47-2 64 9 20 12 38 34 47 67l22-3-22-172 47-5zm13 215-3-24 50-75 56 16 48-81 58 39 45-93 15 169-269 49zm270-252-177 32c-5 6-16 15-21 18-22 11-37 8-50 5l-21-7-43 6 26 219 304-55-18-218z"/>
</svg>
