<svg xmlns="http://www.w3.org/2000/svg" fill="currentColor" viewBox="0 0 320 60">
  <path fill-rule="evenodd" d="M11 12.7c0-2.1 1.6-3.8 3.7-3.8h9v41.8h-9a3.8 3.8 0 0 1-3.8-3.8V12.7Zm15.9 38h22c2 0 3.8-1.7 3.8-3.8V31.4H26.9v19.3ZM52.7 28V12.7c0-2.1-1.7-3.8-3.8-3.8H27v19.2h25.8Zm-38-24A8.7 8.7 0 0 0 6 12.7v34.2c0 4.8 3.9 8.7 8.7 8.7h34.2c4.8 0 8.7-3.9 8.7-8.7V12.7c0-4.8-3.9-8.7-8.7-8.7H14.7Z"/>
  <path d="M74.8 45a14.8 14.8 0 0 1-3-9v-3c.2-3.6 1.1-6.5 3-9 1.8-2.3 4.5-3.5 8.1-3.5 3.6 0 6.4 1.3 8.5 3.8v-12a1.2 1.2 0 0 1 1.2-1.1H95a1.2 1.2 0 0 1 1.2 1.2v34.5A1.2 1.2 0 0 1 95 48h-2.4a1.2 1.2 0 0 1-1.2-1.2v-2.2c-2 2.6-4.9 4-8.6 4a9.7 9.7 0 0 1-8.1-3.6Zm14.6-3a9.9 9.9 0 0 0 2-5.7 26.3 26.3 0 0 0 0-4c-.1-2-.8-3.8-2-5.4a6.5 6.5 0 0 0-5.4-2.3c-2.4 0-4.2.8-5.4 2.3a10.7 10.7 0 0 0-1.8 6v1.6c0 6.5 2.4 9.8 7.2 9.8 2.4 0 4.2-.8 5.4-2.4Zm17.4 5.5a8.8 8.8 0 0 1-3.5-2.9 6.7 6.7 0 0 1-1.2-4c0-2.2 1-4.1 2.8-5.6 1.9-1.5 4.5-2.4 7.7-2.9l7.7-1v-1.6c0-3.5-2-5.3-6-5.3a6.6 6.6 0 0 0-6 3.2c0 .4-.2.6-.4.7a1 1 0 0 1-.6.2H105c-.3 0-.5 0-.8-.3-.2-.2-.3-.5-.3-.8 0-.8.4-1.8 1.2-2.9a9 9 0 0 1 3.4-2.7c1.6-.8 3.5-1.2 5.8-1.2 3.9 0 6.7 1 8.4 2.8 1.7 1.8 2.5 4 2.5 6.7v16.9A1.2 1.2 0 0 1 124 48h-2.4a1.2 1.2 0 0 1-1.2-1.2v-2.2a9 9 0 0 1-3.3 2.8 12 12 0 0 1-5.6 1.1c-1.7 0-3.2-.3-4.7-1Zm11.4-5.1c1.4-1.5 2.1-3.6 2.1-6.4v-1.4l-6 .9a14 14 0 0 0-5.6 1.7c-1.2.8-1.8 1.8-1.8 3 0 1.5.5 2.5 1.7 3.3 1.1.7 2.5 1.1 4 1.1 2.3 0 4.1-.7 5.6-2.2Zm16.6-3.6V25.1h-4a1.2 1.2 0 0 1-1.3-1.2v-1.8a1.2 1.2 0 0 1 1.2-1.2h4v-8.6A1.2 1.2 0 0 1 136 11h2.4a1.2 1.2 0 0 1 1.2 1.2v8.6h6.5a1.2 1.2 0 0 1 1.2 1.2v2a1.2 1.2 0 0 1-1.2 1.2h-6.5v13.4c0 1.7.3 3 1 3.9.5.9 1.5 1.3 2.8 1.3h3.2a1.2 1.2 0 0 1 1.2 1.2v1.9a1.2 1.2 0 0 1-1.2 1.2H143c-5.5 0-8.2-3-8.2-9.2Zm20.8 8.7a8.8 8.8 0 0 1-3.5-2.9 6.7 6.7 0 0 1-1.2-4c0-2.2 1-4.1 2.8-5.6a16 16 0 0 1 7.7-2.9l7.7-1v-1.6c0-3.5-2-5.3-6-5.3a6.6 6.6 0 0 0-6 3.2c-.1.4-.2.6-.4.7a1 1 0 0 1-.6.2h-2.3c-.3 0-.6 0-.8-.3-.2-.2-.3-.5-.3-.8 0-.8.4-1.8 1.2-2.9a9 9 0 0 1 3.4-2.7c1.6-.8 3.5-1.2 5.8-1.2 3.9 0 6.7 1 8.4 2.8 1.7 1.8 2.5 4 2.5 6.7v16.9a1.2 1.2 0 0 1-1.2 1.2h-2.4a1.2 1.2 0 0 1-1.2-1.2v-2.2a9 9 0 0 1-3.3 2.8 12 12 0 0 1-5.6 1.1c-1.7 0-3.2-.3-4.7-1Zm11.4-5.1c1.4-1.5 2.1-3.6 2.1-6.4v-1.4l-6 .9a14 14 0 0 0-5.6 1.7c-1.2.8-1.8 1.8-1.8 3 0 1.5.5 2.5 1.7 3.3 1.1.7 2.5 1.1 4 1.1 2.3 0 4.1-.7 5.6-2.2Zm19.3 2.2v2.2a1.2 1.2 0 0 1-1.2 1.2h-2.4a1.2 1.2 0 0 1-1.2-1.2V12.3a1.2 1.2 0 0 1 1.2-1.2h2.6c.3 0 .6 0 .8.3.2.2.3.5.3.9v12c2-2.6 4.9-3.9 8.5-3.9 3.6 0 6.3 1.2 8.1 3.6 1.9 2.4 2.9 5.3 3 9a19 19 0 0 1 0 3c-.1 3.6-1.1 6.6-3 9-1.8 2.3-4.5 3.5-8.1 3.5a10 10 0 0 1-8.6-3.9Zm12.9-2.6c1-1.5 1.7-3.5 1.8-6v-1.5c0-6.6-2.4-9.9-7.2-9.9-2.3 0-4.1.8-5.4 2.3a8.7 8.7 0 0 0-2 5.4v4c.1 2.2.8 4 2 5.6 1.2 1.6 3 2.4 5.4 2.4 2.4 0 4.2-.8 5.4-2.3Zm15.5 3.2a13.5 13.5 0 0 1-3.5-9v-3.5c.2-3.7 1.4-6.7 3.6-9 2.1-2.2 5-3.3 8.4-3.3 3.9 0 6.8 1.2 9 3.7a15 15 0 0 1 3.1 9.9v.9a1.2 1.2 0 0 1-1.2 1.2h-18v.4c.1 2.3.8 4.2 2.1 5.8 1.3 1.6 3 2.4 5 2.4a7.3 7.3 0 0 0 6.2-3l.7-.8h3.4c.3 0 .6 0 .8.2.2.1.3.4.3.7 0 .8-.5 1.7-1.4 2.8a14.1 14.1 0 0 1-10 4c-3.5 0-6.4-1.2-8.5-3.4Zm15.7-12.7v-.2c0-2.4-.7-4.3-2-5.8a6.5 6.5 0 0 0-5.2-2.3c-2.2 0-3.9.8-5.2 2.3a8.8 8.8 0 0 0-1.9 5.8v.2h14.3ZM242 47.7c-.3-.3-.4-.6-.4-.9V22.1a1.2 1.2 0 0 1 1.2-1.2h2.4a1.2 1.2 0 0 1 1.2 1.2v2.3c1-1.3 2.2-2.2 3.6-3 1.3-.6 3-1 5.1-1 3.3 0 6 1 7.8 3.2a13 13 0 0 1 2.8 8.5v14.7a1.2 1.2 0 0 1-1.2 1.2h-2.6a1.2 1.2 0 0 1-1.2-1.2V32.4c0-2.5-.6-4.4-1.8-5.7-1.2-1.4-3-2-5.2-2s-4 .6-5.2 2a8 8 0 0 0-2 5.7v14.4a1.2 1.2 0 0 1-1.1 1.2h-2.6c-.4 0-.7-.1-.9-.3Zm33-8.9V25.1h-4a1.2 1.2 0 0 1-1.2-1.2v-1.8A1.2 1.2 0 0 1 271 21h4v-8.6a1.2 1.2 0 0 1 1.3-1.2h2.4a1.2 1.2 0 0 1 1.2 1.2V21h6.5a1.2 1.2 0 0 1 1.2 1.2V24a1.2 1.2 0 0 1-1.2 1.2h-6.5v13.4c0 1.7.3 3 .9 3.9.6.9 1.6 1.3 3 1.3h3a1.2 1.2 0 0 1 1.3 1.2v1.9a1.2 1.2 0 0 1-1.2 1.2h-3.6c-5.5 0-8.2-3-8.2-9.2Zm20.3 6.5c-2.1-2.2-3.2-5-3.4-8.6v-4.5c.2-3.5 1.3-6.4 3.4-8.5 2.1-2.2 5-3.3 8.9-3.3 3.7 0 6.7 1.1 8.8 3.3 2.1 2.1 3.2 5 3.4 8.5a31.5 31.5 0 0 1 0 4.5c-.2 3.6-1.3 6.4-3.4 8.6-2 2.1-5 3.2-8.8 3.2-3.9 0-6.8-1-9-3.2Zm14-2.9c1.3-1.4 2-3.4 2-6a25 25 0 0 0 0-4 9.2 9.2 0 0 0-2-5.9c-1.2-1.4-3-2-5.1-2-2.2 0-4 .6-5.2 2a8.9 8.9 0 0 0-2 6l-.1 2v2c0 2.5.8 4.5 2 6a7 7 0 0 0 5.3 2c2.1 0 3.9-.7 5.1-2Z"/>
</svg>
