<svg xmlns="http://www.w3.org/2000/svg" width="223" height="28" fill="none">
  <path fill="currentColor" d="M60.425 13.816h-7.568v13.815h7.568V13.816Z" />
  <path fill="currentColor"
    d="M32.342 13.815v3c.27 7.203 4.433 10.804 12.488 10.804h11.742v-5.916H45.076a5.186 5.186 0 0 1-1.989-.225 5.127 5.127 0 0 1-1.747-.96 5.384 5.384 0 0 1-1.281-3.735 43.71 43.71 0 0 1-.085-2.958c0-1.206 0-2.181.085-2.916a5.038 5.038 0 0 1 .31-2.005 5.103 5.103 0 0 1 1.078-1.73 5.399 5.399 0 0 1 3.832-1.205h11.357V0h-11.56c-3.96 0-7.045.923-9.233 2.78a10.41 10.41 0 0 0-2.619 3.625 10.248 10.248 0 0 0-.84 4.368c-.02.766-.042 1.815-.042 3.042ZM0 13.816h7.568V.002H.001v13.814Z" />
  <path fill="currentColor"
    d="M28.041 10.773c-.117-3.43-1.26-6.137-3.49-7.993C22.32.923 19.31 0 15.35 0H3.78v5.916h11.367a5.4 5.4 0 0 1 3.832 1.206c.471.502.836 1.09 1.074 1.731a5.08 5.08 0 0 1 .314 2.004c.053.734.085 1.7.085 2.916 0 1.217 0 2.192-.085 2.958a5.342 5.342 0 0 1-1.292 3.787c-.51.43-1.102.757-1.741.96-.64.204-1.314.28-1.984.225H3.78v5.916h11.74c8.049 0 12.212-3.601 12.49-10.804v-3c0-1.259.052-2.276.031-3.042ZM72.175 22.46a.607.607 0 0 1-.192-.441V5.634a.619.619 0 0 1 .182-.472.587.587 0 0 1 .416-.189h6.757a8.913 8.913 0 0 1 5.913 1.783 6.688 6.688 0 0 1 1.705 2.31c.392.882.586 1.837.569 2.799v3.871c-.171 4.608-2.836 6.912-7.995 6.912H72.58a.623.623 0 0 1-.406-.189Zm7.205-3.578c.43.036.862-.013 1.273-.142.41-.13.79-.338 1.118-.613.57-.667.863-1.521.822-2.391 0-.493.053-1.123.053-1.9 0-.775 0-1.394-.053-1.866a3.231 3.231 0 0 0-.197-1.284 3.274 3.274 0 0 0-.689-1.108 3.553 3.553 0 0 0-2.455-.766h-2.401v10.07h2.53ZM91.792 22.46a.607.607 0 0 1-.192-.441V5.634a.665.665 0 0 1 .406-.617.618.618 0 0 1 .255-.044h12.073a.641.641 0 0 1 .469.189.647.647 0 0 1 .203.472v2.497a.571.571 0 0 1-.203.45.666.666 0 0 1-.469.179h-8.123v3.21h7.557a.678.678 0 0 1 .48.189.62.62 0 0 1 .192.461v2.297a.622.622 0 0 1-.192.472.663.663 0 0 1-.48.19h-7.557v3.303h8.325a.669.669 0 0 1 .625.407c.033.08.049.167.048.254v2.486a.579.579 0 0 1-.192.451.645.645 0 0 1-.481.179H92.208a.645.645 0 0 1-.416-.2ZM109.44 22.46a.6.6 0 0 1-.192-.44V5.633a.665.665 0 0 1 .182-.472.583.583 0 0 1 .459-.189h12.125a.67.67 0 0 1 .479.19.64.64 0 0 1 .194.471v2.497a.58.58 0 0 1-.192.45.692.692 0 0 1-.481.179h-8.112v3.21h7.557a.661.661 0 0 1 .471.187.64.64 0 0 1 .191.463v2.297a.64.64 0 0 1-.407.614.654.654 0 0 1-.255.047h-7.557v3.304h8.326a.647.647 0 0 1 .615.406.64.64 0 0 1 .047.255v2.486a.565.565 0 0 1-.193.451.639.639 0 0 1-.469.179h-12.286a.63.63 0 0 1-.502-.2ZM127.128 22.457a.6.6 0 0 1-.192-.44V5.632a.664.664 0 0 1 .171-.472.633.633 0 0 1 .47-.189h7.268a8.267 8.267 0 0 1 5.241 1.49 5.256 5.256 0 0 1 1.47 1.961c.326.758.466 1.581.409 2.402a5.021 5.021 0 0 1-.413 2.384 5.1 5.1 0 0 1-1.487 1.928 8.53 8.53 0 0 1-5.241 1.426h-2.925v5.465a.63.63 0 0 1-.651.63h-3.693a.625.625 0 0 1-.427-.2Zm7.589-9.503a2.398 2.398 0 0 0 1.655-.546c.21-.21.373-.462.478-.739.105-.276.149-.571.13-.866a2.258 2.258 0 0 0-.555-1.594 2.222 2.222 0 0 0-1.708-.598h-2.882v4.343h2.882ZM147.498 21.115a6.731 6.731 0 0 1-1.68-2.306 6.615 6.615 0 0 1-.561-2.782v-4.615a6.29 6.29 0 0 1 .567-2.716 6.391 6.391 0 0 1 1.685-2.225 8.955 8.955 0 0 1 5.817-1.751 10.927 10.927 0 0 1 4.27.786 6.845 6.845 0 0 1 2.796 2.004 4.33 4.33 0 0 1 1.015 2.507.533.533 0 0 1-.346.52.556.556 0 0 1-.22.036h-3.939a.716.716 0 0 1-.395-.084 1.047 1.047 0 0 1-.277-.262 3.008 3.008 0 0 0-.982-1.217 3.247 3.247 0 0 0-1.922-.504c-1.985 0-3.01 1.05-3.074 3.032v4.364c.064 2.097 1.068 3.21 3.128 3.21a3.564 3.564 0 0 0 2.369-.735 2.753 2.753 0 0 0 .876-2.224v-.42h-2.295a.65.65 0 0 1-.662-.66V13.08a.622.622 0 0 1 .192-.472.638.638 0 0 1 .47-.19h6.532a.654.654 0 0 1 .616.406.64.64 0 0 1 .046.256v2.926a6.588 6.588 0 0 1-1.067 3.703 6.479 6.479 0 0 1-2.861 2.37 10.643 10.643 0 0 1-4.27.82 8.73 8.73 0 0 1-5.828-1.784ZM165.745 22.459a.603.603 0 0 1-.192-.44V5.632a.668.668 0 0 1 .181-.472.611.611 0 0 1 .47-.189h7.066a8.388 8.388 0 0 1 5.337 1.51 5.26 5.26 0 0 1 1.465 1.915c.331.741.484 1.547.446 2.355a5.27 5.27 0 0 1-.833 3.01 5.576 5.576 0 0 1-2.337 1.973l3.469 6.157a.659.659 0 0 1 .085.283.539.539 0 0 1-.16.368.49.49 0 0 1-.384.157h-3.619a1.08 1.08 0 0 1-.648-.168 1.05 1.05 0 0 1-.419-.514l-2.829-5.476h-2.465v5.487a.565.565 0 0 1-.193.45.636.636 0 0 1-.48.179h-3.512a.65.65 0 0 1-.448-.2Zm7.472-9.682a2.351 2.351 0 0 0 1.686-.546 1.949 1.949 0 0 0 .577-1.5 2.073 2.073 0 0 0-.577-1.542 2.256 2.256 0 0 0-.782-.46 2.29 2.29 0 0 0-.904-.117h-2.85v4.196l2.85-.031ZM183.903 22.49a.544.544 0 0 1-.161-.367.687.687 0 0 1 0-.231l5.988-16.186a.977.977 0 0 1 .394-.563c.197-.135.436-.196.674-.17h4.013c.238-.026.478.035.674.17a.977.977 0 0 1 .394.563l5.988 16.186a.639.639 0 0 1 0 .23.55.55 0 0 1-.171.368.54.54 0 0 1-.374.157h-3.341a.888.888 0 0 1-.531-.136.866.866 0 0 1-.344-.42l-.928-2.444h-6.725l-.929 2.444a.86.86 0 0 1-.344.42.886.886 0 0 1-.531.136h-3.341a.544.544 0 0 1-.405-.157Zm6.596-6.63h4.568l-2.284-6.42-2.284 6.42ZM205.331 22.47a.582.582 0 0 1-.192-.45V5.634a.653.653 0 0 1 .194-.47.66.66 0 0 1 .479-.191h2.903a.987.987 0 0 1 .551.138c.165.1.297.245.378.418l4.419 7.772 4.44-7.772a.96.96 0 0 1 .378-.418.983.983 0 0 1 .551-.138h2.903a.641.641 0 0 1 .615.405.64.64 0 0 1 .047.256V22.03a.58.58 0 0 1-.192.45.628.628 0 0 1-.47.18h-3.266a.666.666 0 0 1-.447-.19.648.648 0 0 1-.194-.44v-9.2l-2.818 5.004c-.083.167-.209.31-.367.413a1.08 1.08 0 0 1-.529.174h-1.388a1.076 1.076 0 0 1-.907-.587l-2.743-4.993v9.189a.58.58 0 0 1-.193.45.634.634 0 0 1-.48.18h-3.202a.652.652 0 0 1-.47-.19Z" />
</svg>