<svg xmlns="http://www.w3.org/2000/svg" viewBox="0 0 1298 468">
  <path fill="#633e9e" d="M237 271.9a46.5 46.5 0 0 1-15.8-63.6L332.2 24a46.5 46.5 0 0 1 63.6-15.8 46.5 46.5 0 0 1 15.8 63.6L300.6 256a46.5 46.5 0 0 1-63.6 15.8Z"/>
  <path fill="#43257c" d="M387.1 461.8a46.5 46.5 0 0 1-63-18.2l-104-188.2a46.5 46.5 0 0 1 18-63 46.5 46.5 0 0 1 63 18.2l104.1 188.2a46.5 46.5 0 0 1-18.1 63Z"/>
  <path fill="#8361c5" d="M.5 233A46.5 46.5 0 0 0 47 279.5h215a46.5 46.5 0 0 0 46.4-46.3 46.5 46.5 0 0 0-46.4-46.4H47A46.5 46.5 0 0 0 .5 233.1Z"/>
  <path d="M538.7 169.9a63.3 63.3 0 0 1 24.5 25.4c5.8 11 8.8 23.5 8.8 37.6v6.6a78 78 0 0 1-8.8 37.5 63.3 63.3 0 0 1-24.6 25.4 71.3 71.3 0 0 1-36 9.1H456V160.8h46.9c13.5 0 25.4 3 35.9 9Zm.2 62.7c0-14.9-3-26.2-9.2-33.9-6.1-7.7-15-11.6-26.9-11.6h-14.5v98.2h14.3c11.8 0 20.8-3.9 27-11.7 6.2-7.9 9.3-19.2 9.3-34.1v-6.9ZM693 199.5v112h-29.3l-.8-11.7a35.6 35.6 0 0 1-13 10.2 41 41 0 0 1-17.4 3.6 36.5 36.5 0 0 1-27.4-10.2c-6.6-6.7-9.9-17.2-9.9-31.4v-72.5h31.2v72.7c0 5.5 1.3 9.6 4 12.2 2.8 2.6 6.6 4 11.4 4 9.6 0 16.3-3.4 20-10.1v-78.8H693Zm124.6 66.2h-70.8c1.2 7 4.1 12.5 8.7 16.6a25.8 25.8 0 0 0 17.8 6.1c5.4 0 10.4-1 15-3s8.5-5.1 11.7-9.2l15 17.3a45 45 0 0 1-17.2 14.3 57.6 57.6 0 0 1-26.5 5.8 59.2 59.2 0 0 1-29.9-7.3 49.8 49.8 0 0 1-19.4-19.6 56.3 56.3 0 0 1-6.8-27.5v-3.9a67 67 0 0 1 6.3-29.9 48.1 48.1 0 0 1 46.3-28 51 51 0 0 1 27 6.8 43 43 0 0 1 17 19 68 68 0 0 1 5.8 29.2v13.3ZM787 242.3c-.1-6.1-1.8-10.9-5-14.4s-8-5.3-14.4-5.3c-5.9 0-10.5 2-13.9 6a32.2 32.2 0 0 0-6.6 16.2H787v-2.5Zm139-34.7c6.2 6.7 9.3 17.7 9.3 33v70.9H904v-71c0-6.7-1.4-11.3-4.2-14-2.8-2.5-7.2-3.8-13.2-3.8-4 0-7.6.9-10.6 2.6-3 1.7-5.4 4.2-7.3 7.3v78.9h-31.2v-112h29.3l1 13a39.2 39.2 0 0 1 32.2-15c11.2 0 20 3.3 26 10Zm132.4-55.1v159h-28.1l-1.6-12a34.3 34.3 0 0 1-28.3 14 39 39 0 0 1-23.5-7.2 45 45 0 0 1-15-20.2 78.5 78.5 0 0 1-5.1-29.2v-2.2c0-11.4 1.7-21.4 5.1-30a44 44 0 0 1 15-20.1 39.3 39.3 0 0 1 23.7-7.1 34 34 0 0 1 26.6 12v-57h31.2Zm-31.2 124.6V234c-3.6-7.5-9.8-11.2-18.7-11.2-7 0-12.3 3-15.5 8.7-3.3 5.8-5 13.6-5 23.3v2.2c0 9.5 1.7 17.2 4.9 22.9 3.2 5.7 8.3 8.5 15.4 8.5 8.8 0 15-3.7 18.9-11.2Zm156.4-11.4h-70.8c1.2 7 4.1 12.5 8.7 16.6a25.8 25.8 0 0 0 17.8 6.1c5.4 0 10.4-1 15-3s8.5-5.1 11.7-9.2l15 17.3a45 45 0 0 1-17.2 14.3 57.6 57.6 0 0 1-26.5 5.8 59.2 59.2 0 0 1-29.9-7.3 49.8 49.8 0 0 1-19.4-19.6 56.3 56.3 0 0 1-6.8-27.5v-3.9a67 67 0 0 1 6.3-29.9 48.1 48.1 0 0 1 46.4-28c10.5 0 19.5 2.3 27 6.8a43 43 0 0 1 17 19 68 68 0 0 1 5.7 29.2v13.3Zm-30.6-23.4c-.1-6.1-1.8-10.9-5-14.4s-8-5.3-14.4-5.3c-5.9 0-10.5 2-13.9 6a31.3 31.3 0 0 0-6.5 16.2h39.8v-2.5Z"/>
  <path fill="#764fc1" d="M1297 279a34.2 34.2 0 1 1-68.5 0 34.2 34.2 0 0 1 68.5 0Zm-983-46c0-25.4-21-46.3-46.6-46.3h-33.2l-13 21.6a45.8 45.8 0 0 0-3.3 6.8l-.6 1.4-.2.5a46 46 0 0 0 2.9 38.4l13.3 24h34.1A46.6 46.6 0 0 0 314 233Z"/>
</svg>
