<svg width="322" height="65" viewBox="0 0 322 65" fill="none" xmlns="http://www.w3.org/2000/svg" class="max-md:m-2.5 w-40 md:w-48 lg:w-[211px] h-fit"><g clip-path="url(#clip0_4783_9270)"><path d="M31.3861 24.2747C31.7828 24.3002 32.3359 24.4513 32.9844 24.5454L39.5667 28.7985L18.049 41.5968C17.7254 41.714 17.3436 41.8379 16.9072 41.9495C16.3592 42.0901 15.8491 42.1805 15.3903 42.2386C15.04 42.2776 14.5633 42.3178 13.9986 42.3223L5.7334 32.4652L23.0829 25.7307C23.0807 25.733 23.0773 25.7352 23.074 25.7374L23.0739 25.7374C24.8487 25.0711 26.3923 24.7307 27.524 24.5454C28.7797 24.3399 30.0119 24.1481 31.3881 24.2753C31.3875 24.275 31.3868 24.2749 31.3861 24.2747C31.3828 24.2741 31.3786 24.2741 31.3759 24.2741H31.3758C31.3793 24.2743 31.3827 24.2745 31.3861 24.2747Z" fill="#FFC400"></path><path d="M30.9898 7.91684C30.8525 7.29738 30.6796 6.72256 30.4853 6.19351C30.1404 5.2392 29.367 3.16651 27.474 1.29361C27.1269 0.949835 26.6703 0.541323 26.091 0.125C23.7783 2.90867 21.7034 4.91774 20.3317 6.16783C16.7321 9.44707 10.84 13.9976 7.05622 17.423C6.39992 18.0169 5.06612 19.3596 3.8618 21.4033C3.85957 21.4066 3.85734 21.4099 3.85511 21.4144C3.85511 21.4144 3.85511 21.4122 3.85511 21.4111C3.63745 21.7862 3.37069 22.2716 3.09278 22.8532C3.05148 22.9369 3.00907 23.0295 2.96331 23.1277C2.8461 23.3811 2.72779 23.65 2.6106 23.9347C2.13847 25.0832 1.5603 26.5208 1.37056 28.4339C1.20425 30.1026 1.40292 31.4252 1.50896 31.9989C1.54802 32.2088 1.59267 32.4129 1.64066 32.615C1.80697 33.3338 2.0369 34.0046 2.30924 34.6263C3.6062 37.6343 5.74251 39.3755 6.10303 39.6613C8.38109 41.4616 10.6837 41.975 11.4181 42.1157C12.4595 42.3143 13.3535 42.3412 13.9986 42.3232C13.9986 42.321 13.9976 42.3176 13.9964 42.3154C13.9998 42.3154 14.0031 42.3154 14.0053 42.3154C14.0009 42.3099 13.9964 42.3031 13.992 42.2976C13.8625 41.8221 13.7074 41.13 13.6326 40.284C13.3769 37.3821 14.2989 35.1464 14.771 34.0336C15.1282 33.1931 16.0044 31.2198 17.8717 29.425C18.7423 28.5879 19.6843 27.9127 20.6186 27.2999C21.632 26.6346 22.5183 26.1167 23.0239 25.7663C23.0406 25.7562 23.0071 25.7763 23.0239 25.7663C23.0428 25.754 23.0741 25.734 23.0898 25.7217C24.8644 24.4091 28.349 21.448 30.1672 16.6775C30.3815 16.1183 30.5478 15.5691 30.5478 15.5691C31.1182 13.7889 31.6796 11.0376 30.9876 7.91461L30.9898 7.91684Z" fill="url(#paint0_linear_4783_9270)"></path><path d="M13.991 42.3273C13.3459 42.3452 12.4507 42.3184 11.4105 42.1198C10.676 41.9792 8.37342 41.4657 6.09535 39.6653C5.63997 39.3048 2.35179 36.625 1.50017 32.0029C1.39413 31.4293 1.19546 30.1066 1.36177 28.4379C1.55263 26.5249 2.12968 25.0884 2.60181 23.9388C3.04492 22.8595 3.50365 22.0034 3.84631 21.4141C3.99254 21.8225 4.23474 22.3974 4.63543 23.0236C5.52835 24.4199 6.62329 25.1632 7.47269 25.7213C7.84212 25.9635 9.5677 27.0708 12.1795 27.6522C13.9485 28.0462 15.346 28.0261 15.8193 28.0105C16.8807 27.9771 18.5672 27.804 20.4792 27.0618C21.5841 26.6332 22.476 26.1064 23.0675 25.737C22.5608 26.0885 21.6254 26.6376 20.612 27.3017C19.6778 27.9145 18.7358 28.5898 17.8652 29.4269C15.9978 31.2217 15.1216 33.195 14.7645 34.0355C14.2913 35.1472 13.3704 37.3839 13.626 40.2859C13.7019 41.1465 13.8616 41.8485 13.9921 42.324L13.991 42.3273Z" fill="#FF9100"></path><path d="M42.046 41.4119C42.8363 39.8304 43.1822 38.1617 43.1822 38.1617C43.2703 37.7365 43.3965 37.1092 43.4523 36.329C43.5026 35.6303 43.4702 34.493 43.3028 33.5821C42.7692 30.6914 40.5571 28.3497 40.3294 28.1142C40.3294 28.1142 38.8359 26.566 36.636 25.5046C36.3135 25.3494 35.7575 25.0793 34.9819 24.8438C34.2184 24.6117 33.5956 24.5191 32.9784 24.4298C32.3243 24.3348 31.7729 24.2892 31.3756 24.2656C31.4693 24.2757 31.6 24.2947 31.7529 24.3304C32.1134 24.4152 32.3667 24.5435 32.5643 24.6395C32.7485 24.73 33.0274 24.8706 33.3345 25.1318C33.4594 25.239 33.6146 25.3718 33.7685 25.5816C33.8947 25.7557 34.0599 26.0292 34.1481 26.3908C34.4138 27.488 33.7441 28.5104 33.5007 28.8821C31.7751 31.5173 22.4419 37.011 16.9103 42.7134C15.5018 44.1654 14.5016 45.4647 13.755 47.1568C12.0695 50.9762 12.6723 54.5133 12.8296 55.3281C13.8509 60.6254 17.6983 63.4938 18.5879 64.1234C21.3001 61.0919 23.6998 58.7781 25.4712 57.163C29.9558 53.0757 35.7989 48.5576 35.8 48.5576C35.8 48.5576 40.2881 44.9301 42.0448 41.4131L42.046 41.4119Z" fill="url(#paint1_linear_4783_9270)"></path></g><path d="M60.0381 17.7218H77.5375V22.0262H64.5437V30.3133H76.2502V34.5776H64.5437V46.5254H60.0381V17.7218Z" fill="white"></path><path d="M82.4067 23.1929C81.5754 23.1929 80.8646 22.9113 80.2746 22.3481C79.7114 21.7581 79.4298 21.0473 79.4298 20.216C79.4298 19.3846 79.7114 18.6873 80.2746 18.1241C80.8646 17.534 81.5754 17.239 82.4067 17.239C83.2381 17.239 83.9354 17.534 84.4986 18.1241C85.0886 18.6873 85.3837 19.3846 85.3837 20.216C85.3837 21.0473 85.0886 21.7581 84.4986 22.3481C83.9354 22.9113 83.2381 23.1929 82.4067 23.1929ZM80.1942 26.5721H84.6193V46.5254H80.1942V26.5721Z" fill="white"></path><path d="M88.7226 26.5721H92.9064V29.549H93.1478C93.5769 28.5299 94.3546 27.6851 95.481 27.0146C96.6074 26.3173 97.7606 25.9686 98.9407 25.9686C99.9062 25.9686 100.697 26.1027 101.314 26.3709V30.9972C100.402 30.5413 99.3832 30.3133 98.2568 30.3133C96.8086 30.3133 95.5883 30.8765 94.596 32.0029C93.6305 33.1025 93.1478 34.4569 93.1478 36.066V46.5254H88.7226V26.5721Z" fill="white"></path><path d="M111.302 47.1691C109.344 47.1691 107.574 46.7132 105.992 45.8013C104.436 44.8895 103.216 43.629 102.331 42.0198C101.446 40.3839 101.004 38.5602 101.004 36.5488C101.004 34.6178 101.419 32.8477 102.251 31.2386C103.109 29.6026 104.302 28.3153 105.831 27.3766C107.36 26.4112 109.103 25.9284 111.061 25.9284C113.072 25.9284 114.815 26.3709 116.291 27.256C117.792 28.141 118.932 29.3747 119.71 30.957C120.488 32.5125 120.877 34.3094 120.877 36.3476C120.877 36.589 120.863 36.8304 120.836 37.0717C120.81 37.3131 120.796 37.4472 120.796 37.474H105.429C105.563 39.2977 106.22 40.7057 107.4 41.698C108.58 42.6903 109.921 43.1865 111.423 43.1865C113.729 43.1865 115.499 42.1137 116.733 39.9682L120.515 41.7785C119.629 43.4144 118.396 44.7286 116.813 45.7209C115.258 46.6864 113.421 47.1691 111.302 47.1691ZM116.371 34.0948C116.317 33.4512 116.103 32.7941 115.727 32.1236C115.352 31.4531 114.762 30.8899 113.957 30.434C113.18 29.9513 112.201 29.7099 111.021 29.7099C109.706 29.7099 108.567 30.1122 107.601 30.9168C106.662 31.7213 106.019 32.7807 105.67 34.0948H116.371Z" fill="white"></path><path d="M134.374 47.1691C132.926 47.1691 131.625 46.8607 130.472 46.2438C129.346 45.627 128.501 44.8493 127.938 43.9106H127.696V46.5254H123.512V17.7218H127.938V26.3709L127.696 29.1467H127.938C128.501 28.2348 129.346 27.4705 130.472 26.8537C131.625 26.2368 132.926 25.9284 134.374 25.9284C136.091 25.9284 137.673 26.3843 139.121 27.2962C140.596 28.208 141.763 29.4819 142.621 31.1179C143.506 32.727 143.949 34.5373 143.949 36.5488C143.949 38.5602 143.506 40.3705 142.621 41.9796C141.763 43.5888 140.596 44.8627 139.121 45.8013C137.673 46.7132 136.091 47.1691 134.374 47.1691ZM133.61 43.106C134.656 43.106 135.621 42.8378 136.506 42.3014C137.418 41.7651 138.142 41.0007 138.679 40.0084C139.242 38.9893 139.523 37.8361 139.523 36.5488C139.523 35.2614 139.242 34.1216 138.679 33.1293C138.142 32.1102 137.418 31.3324 136.506 30.7961C135.621 30.2597 134.656 29.9915 133.61 29.9915C132.564 29.9915 131.585 30.2597 130.673 30.7961C129.788 31.3324 129.064 32.0968 128.501 33.0891C127.964 34.0814 127.696 35.2346 127.696 36.5488C127.696 37.8629 127.964 39.0161 128.501 40.0084C129.064 41.0007 129.788 41.7651 130.673 42.3014C131.585 42.8378 132.564 43.106 133.61 43.106Z" fill="white"></path><path d="M153.343 47.1691C151.921 47.1691 150.634 46.8875 149.481 46.3243C148.354 45.7343 147.456 44.9297 146.785 43.9106C146.142 42.8646 145.82 41.6846 145.82 40.3705C145.82 38.2786 146.598 36.6292 148.153 35.4224C149.735 34.2155 151.733 33.6121 154.147 33.6121C156.266 33.6121 158.076 33.9741 159.578 34.6982V33.8534C159.578 32.6466 159.095 31.6543 158.13 30.8765C157.191 30.072 156.051 29.6697 154.71 29.6697C152.672 29.6697 151.036 30.5011 149.802 32.1638L146.423 29.8306C147.362 28.5701 148.529 27.6046 149.923 26.9341C151.345 26.2637 152.94 25.9284 154.71 25.9284C157.634 25.9284 159.886 26.6659 161.469 28.141C163.078 29.5892 163.882 31.6409 163.882 34.296V46.5254H159.578V44.0715H159.337C158.693 44.9833 157.875 45.7343 156.883 46.3243C155.89 46.8875 154.71 47.1691 153.343 47.1691ZM154.067 43.5083C155.059 43.5083 155.971 43.2669 156.802 42.7842C157.66 42.2746 158.331 41.6176 158.814 40.813C159.323 39.9816 159.578 39.0966 159.578 38.1579C158.157 37.3801 156.641 36.9913 155.032 36.9913C153.557 36.9913 152.404 37.3131 151.573 37.9568C150.741 38.6004 150.325 39.4184 150.325 40.4107C150.325 41.3225 150.688 42.0735 151.412 42.6635C152.163 43.2267 153.048 43.5083 154.067 43.5083Z" fill="white"></path><path d="M174.513 47.1691C172.233 47.1691 170.343 46.6461 168.841 45.6002C167.366 44.5274 166.32 43.1865 165.703 41.5773L169.645 39.8877C170.101 40.9873 170.758 41.8187 171.616 42.3819C172.501 42.9451 173.467 43.2267 174.513 43.2267C175.612 43.2267 176.511 43.0256 177.208 42.6233C177.905 42.1942 178.254 41.6444 178.254 40.9739C178.254 40.3302 177.973 39.8073 177.409 39.405C176.846 38.9759 175.921 38.6004 174.634 38.2786L171.898 37.6349C170.396 37.2863 169.095 36.6426 167.996 35.704C166.923 34.7385 166.387 33.4914 166.387 31.9627C166.387 30.1122 167.151 28.6505 168.68 27.5778C170.208 26.4782 172.086 25.9284 174.312 25.9284C176.162 25.9284 177.798 26.3173 179.22 27.095C180.668 27.8728 181.714 28.9992 182.357 30.4742L178.455 32.1236C178.08 31.2922 177.503 30.6754 176.725 30.2731C175.948 29.8708 175.103 29.6697 174.191 29.6697C173.306 29.6697 172.528 29.8708 171.858 30.2731C171.187 30.6486 170.852 31.1581 170.852 31.8018C170.852 32.365 171.08 32.8209 171.536 33.1696C172.019 33.5182 172.77 33.8132 173.789 34.0546L176.766 34.7787C178.777 35.2883 180.279 36.066 181.271 37.112C182.264 38.1311 182.76 39.3648 182.76 40.813C182.76 41.993 182.398 43.0658 181.674 44.0313C180.976 44.9968 179.997 45.7611 178.737 46.3243C177.503 46.8875 176.095 47.1691 174.513 47.1691Z" fill="white"></path><path d="M194.926 47.1691C192.968 47.1691 191.198 46.7132 189.616 45.8013C188.06 44.8895 186.84 43.629 185.955 42.0198C185.07 40.3839 184.627 38.5602 184.627 36.5488C184.627 34.6178 185.043 32.8477 185.874 31.2386C186.733 29.6026 187.926 28.3153 189.455 27.3766C190.983 26.4112 192.727 25.9284 194.684 25.9284C196.696 25.9284 198.439 26.3709 199.914 27.256C201.416 28.141 202.556 29.3747 203.334 30.957C204.111 32.5125 204.5 34.3094 204.5 36.3476C204.5 36.589 204.487 36.8304 204.46 37.0717C204.433 37.3131 204.42 37.4472 204.42 37.474H189.052C189.186 39.2977 189.844 40.7057 191.024 41.698C192.204 42.6903 193.545 43.1865 195.046 43.1865C197.353 43.1865 199.123 42.1137 200.357 39.9682L204.138 41.7785C203.253 43.4144 202.019 44.7286 200.437 45.7209C198.882 46.6864 197.044 47.1691 194.926 47.1691ZM199.995 34.0948C199.941 33.4512 199.726 32.7941 199.351 32.1236C198.975 31.4531 198.385 30.8899 197.581 30.434C196.803 29.9513 195.824 29.7099 194.644 29.7099C193.33 29.7099 192.19 30.1122 191.225 30.9168C190.286 31.7213 189.642 32.7807 189.294 34.0948H199.995Z" fill="white"></path><path d="M224.695 47.1691C223.246 47.1691 221.838 46.8741 220.471 46.2841C219.13 45.6672 217.936 44.7822 216.89 43.629C215.871 42.4489 215.134 41.0275 214.678 39.3648L217.936 38.0372C218.392 39.7536 219.237 41.1616 220.471 42.2612C221.704 43.3608 223.139 43.9106 224.775 43.9106C226.465 43.9106 227.886 43.4681 229.039 42.583C230.192 41.6712 230.769 40.4375 230.769 38.882C230.769 37.5411 230.273 36.4415 229.281 35.5833C228.315 34.6982 226.719 33.8803 224.493 33.1293L222.683 32.4857C220.645 31.7616 218.982 30.8095 217.695 29.6294C216.407 28.4494 215.764 26.8134 215.764 24.7216C215.764 23.3538 216.139 22.0933 216.89 20.9401C217.641 19.76 218.674 18.8214 219.988 18.1241C221.329 17.4268 222.831 17.0781 224.493 17.0781C226.156 17.0781 227.604 17.3865 228.838 18.0034C230.099 18.6202 231.091 19.3712 231.815 20.2562C232.566 21.1412 233.076 22.0128 233.344 22.871L230.166 24.2388C229.871 23.2197 229.254 22.3213 228.315 21.5435C227.376 20.7389 226.129 20.3366 224.574 20.3366C223.099 20.3366 221.838 20.7523 220.792 21.5837C219.746 22.4151 219.223 23.4611 219.223 24.7216C219.223 25.848 219.666 26.7732 220.551 27.4973C221.436 28.1946 222.777 28.8517 224.574 29.4685L226.424 30.1122C228.865 30.9972 230.769 32.1102 232.137 33.4512C233.531 34.7653 234.229 36.5622 234.229 38.8418C234.229 40.6923 233.746 42.2478 232.781 43.5083C231.842 44.7688 230.648 45.6941 229.2 46.2841C227.752 46.8741 226.25 47.1691 224.695 47.1691Z" fill="white"></path><path d="M244.334 46.8473C243.53 46.8473 242.779 46.7132 242.081 46.445C241.411 46.1768 240.834 45.8147 240.352 45.3588C239.815 44.8493 239.413 44.2592 239.145 43.5888C238.903 42.8915 238.783 42.0735 238.783 41.1348V29.6697H235.243V26.5721H238.783V20.6182H242.162V26.5721H247.07V29.6697H242.162V40.29C242.162 41.4164 242.39 42.2478 242.846 42.7842C243.302 43.3742 243.999 43.6692 244.938 43.6692C245.769 43.6692 246.493 43.4815 247.11 43.106V46.4048C246.681 46.5657 246.265 46.6729 245.863 46.7266C245.487 46.807 244.978 46.8473 244.334 46.8473Z" fill="white"></path><path d="M257.626 47.1691C255.158 47.1691 253.281 46.4584 251.994 45.037C250.733 43.6156 250.103 41.6444 250.103 39.1234V26.5721H253.522V38.5602C253.522 42.2344 255.172 44.0715 258.471 44.0715C259.57 44.0715 260.549 43.7631 261.407 43.1462C262.292 42.5294 262.963 41.7248 263.419 40.7325C263.901 39.7402 264.143 38.6943 264.143 37.5947V26.5721H267.522V46.5254H264.304V43.5485H264.143C263.553 44.5677 262.654 45.4259 261.447 46.1232C260.267 46.8205 258.993 47.1691 257.626 47.1691Z" fill="white"></path><path d="M279.905 47.1691C278.189 47.1691 276.607 46.7132 275.158 45.8013C273.71 44.8895 272.557 43.629 271.699 42.0198C270.841 40.3839 270.412 38.5602 270.412 36.5488C270.412 34.5373 270.841 32.727 271.699 31.1179C272.557 29.4819 273.71 28.208 275.158 27.2962C276.607 26.3843 278.189 25.9284 279.905 25.9284C281.461 25.9284 282.856 26.2771 284.089 26.9744C285.323 27.6448 286.248 28.4896 286.865 29.5088H287.026L286.865 26.7732V17.7218H290.244V46.5254H287.026V43.5485H286.865C286.248 44.5945 285.323 45.4661 284.089 46.1634C282.856 46.8339 281.461 47.1691 279.905 47.1691ZM280.428 44.0715C281.608 44.0715 282.695 43.7765 283.687 43.1865C284.706 42.5696 285.511 41.6846 286.101 40.5314C286.717 39.3782 287.026 38.0506 287.026 36.5488C287.026 35.0201 286.717 33.6925 286.101 32.5661C285.511 31.4129 284.706 30.5413 283.687 29.9513C282.695 29.3344 281.608 29.026 280.428 29.026C279.248 29.026 278.149 29.3344 277.13 29.9513C276.137 30.5681 275.333 31.4531 274.716 32.6064C274.126 33.7328 273.831 35.0469 273.831 36.5488C273.831 38.0506 274.126 39.3782 274.716 40.5314C275.333 41.6578 276.137 42.5294 277.13 43.1462C278.149 43.7631 279.248 44.0715 280.428 44.0715Z" fill="white"></path><path d="M296.473 22.3883C295.803 22.3883 295.226 22.1469 294.743 21.6642C294.261 21.1814 294.019 20.6048 294.019 19.9344C294.019 19.2639 294.261 18.6873 294.743 18.2045C295.226 17.7218 295.803 17.4804 296.473 17.4804C297.144 17.4804 297.72 17.7218 298.203 18.2045C298.686 18.6873 298.927 19.2639 298.927 19.9344C298.927 20.6048 298.686 21.1814 298.203 21.6642C297.747 22.1469 297.171 22.3883 296.473 22.3883ZM294.784 26.5721H298.163V46.5254H294.784V26.5721Z" fill="white"></path><path d="M311.549 47.1691C309.591 47.1691 307.835 46.7132 306.279 45.8013C304.724 44.8627 303.503 43.5888 302.618 41.9796C301.76 40.3437 301.331 38.5334 301.331 36.5488C301.331 34.5641 301.76 32.7673 302.618 31.1581C303.503 29.5222 304.724 28.2483 306.279 27.3364C307.835 26.3977 309.591 25.9284 311.549 25.9284C313.507 25.9284 315.263 26.3977 316.819 27.3364C318.401 28.2483 319.622 29.5222 320.48 31.1581C321.365 32.7673 321.807 34.5641 321.807 36.5488C321.807 38.5334 321.365 40.3437 320.48 41.9796C319.622 43.5888 318.401 44.8627 316.819 45.8013C315.263 46.7132 313.507 47.1691 311.549 47.1691ZM311.549 44.0715C312.756 44.0715 313.882 43.7631 314.928 43.1462C315.974 42.5294 316.806 41.6578 317.422 40.5314C318.066 39.3782 318.388 38.0506 318.388 36.5488C318.388 35.0469 318.066 33.7328 317.422 32.6064C316.806 31.4531 315.974 30.5681 314.928 29.9513C313.882 29.3344 312.756 29.026 311.549 29.026C310.369 29.026 309.256 29.3344 308.21 29.9513C307.164 30.5681 306.319 31.4531 305.676 32.6064C305.059 33.7328 304.75 35.0469 304.75 36.5488C304.75 38.0506 305.059 39.3782 305.676 40.5314C306.319 41.6578 307.164 42.5294 308.21 43.1462C309.256 43.7631 310.369 44.0715 311.549 44.0715Z" fill="white"></path><defs><linearGradient id="paint0_linear_4783_9270" x1="5.00267" y1="37.439" x2="26.676" y2="0.982144" gradientUnits="userSpaceOnUse"><stop stop-color="#F8682F"></stop><stop offset="1" stop-color="#DD2C00"></stop></linearGradient><linearGradient id="paint1_linear_4783_9270" x1="25.2853" y1="27.272" x2="22.8069" y2="70.7641" gradientUnits="userSpaceOnUse"><stop stop-color="#F8682F"></stop><stop offset="0.566586" stop-color="#E92A4E"></stop><stop offset="1" stop-color="#C447FF"></stop></linearGradient><clipPath id="clip0_4783_9270"><rect width="44.8" height="64" fill="white" transform="translate(0 0.125)"></rect></clipPath></defs></svg>