<svg xmlns="http://www.w3.org/2000/svg" viewBox="0 0 197 80">
  <path fill="#fff" d="M65.36 39.84q.1 1 .1 2v3.35c-.22 6.6-2.52 11.9-6.87 15.75-4.16 3.7-10.24 6.06-18.08 7.04l-.33.01h-4.02a32.5 32.5 0 0 1-13.66-3.38 22 22 0 0 1-7.97-6.75h-.19a9.2 9.2 0 0 1-6.68-3.08 13 13 0 0 1-3.29-6.81 13 13 0 0 1 1.14-8.13q.39-.78.9-1.48l-.04-.32-2.27-.8-.28-.09-.33-.13h-.02a5.1 5.1 0 0 1-3-4.19l-.45-4.9-.02-.32v-.32l.02-.18v-.13l.02-.16v-.05l.08-.38v-.05q.13-.51.37-.99l.05-.11.16-.29.03-.05v-.01l.33-.45.02-.02.32-.38.1-.09h.01q.43-.4.93-.7h.02l.28-.16h.02a5 5 0 0 1 2-.47h.05q.49 0 .98.12l.07.01.2.05.08.03.3.1.17.08.13.04.13.07 4.68 2.32c2.02-4 5.2-7.14 9.82-9.74 4.07-2.31 9.03-3.51 15.15-3.7q2.57-.06 5.11.3 1.41.23 2.78.6l.6.16v.02a18.8 18.8 0 0 1 12.02 10.69c1.62.23 3.25.49 4.65.96q1.47.45 2.64 1.43c1 .9 1.57 2.11 1.57 3.41 0 1.92-1.12 3.1-2.25 3.85a27 27 0 0 1 1.72 6.41"/>
  <path fill="#000" d="m63.22 28.86-.06-.12-.01-.01-.02-.04-.04-.06v-.02q-.02 0-.03-.02l-.02-.03-.03-.04v-.01L63 28.5l-.02-.02-.04-.06-.08-.08-.08-.08-.35-.3-.1-.06-.03-.02-.08-.05-.04-.02-.03-.02-.01-.01h-.02v-.01l-.03-.02-.08-.05-.12-.05-.23-.1-.04-.02-.05-.03-.1-.05-.09-.02-.09-.04-.08-.03-.19-.07-.05-.02-.25-.08-.28-.08-.19-.05-.48-.12-.3-.06-.3-.07-.14-.03-.45-.08-.45-.08h-.08l-.38-.07-.32-.05-2.09-.29q-.24-.68-.52-1.35l-.2-.43-.32-.67a16 16 0 0 0-5.44-6.07 18 18 0 0 0-5.87-2.44l-.5-.1-.6-.12-.48-.08a25 25 0 0 0-4.63-.28c-4.03.12-9.37.76-13.97 3.35-5.68 3.2-8.48 6.98-9.94 11.55v-.02l-.03-.07-.03-.06-.04-.1a2 2 0 0 0-.3-.4l-.03-.04-.02-.02-.04-.03-.04-.05-.1-.08-.2-.13-.11-.05-6.04-3-.2-.09-.04-.02q-.06 0-.08-.03l-.14-.03a2 2 0 0 0-.47-.06h-.15l-.05.01h-.04l-.1.02H4.5l-.04.01-.12.03-.05.02h-.04l-.07.03h-.02l-.05.03h-.04l-.04.03-.05.02h-.01l-.04.02-.1.06h-.02l-.12.08-.09.07-.06.05-.05.04-.03.03-.02.01-.05.05v.01l-.08.07-.02.03-.07.08-.1.13-.06.1-.01.02-.06.1-.03.06v.01l-.04.07v.03l-.02.03v.03l-.06.13-.03.1v.07l-.02.03v.03l-.02.07v.13l-.02.08v.36l.47 4.9.02.17v.04l.08.3.02.05.04.12.14.3.09.14.01.03.1.12.1.13.12.12.1.1.3.21.13.08q.15.08.34.15l3.35 1.17.11.04h.01l.1.06.1.07.02.01q.02 0 .02.02l.03.02.04.04.06.05.04.05.07.08.12.21.04.1.02.06.04.17.2 1.48a8 8 0 0 0-1.87 2.43 11 11 0 0 0-.98 6.98c.36 2.2 1.35 4.24 2.86 5.88a7.6 7.6 0 0 0 5.42 2.5 7 7 0 0 0 1.82-.26q.66 1 1.47 1.92a20 20 0 0 0 4.36 3.63l.3.2.3.17.31.18.31.16.33.18.33.16.32.16.34.16.34.16a31 31 0 0 0 11.26 2.46h3.91l1.12-.16h.1l.34-.06.38-.06.57-.1.2-.03.17-.03.36-.06.5-.1.2-.04.2-.04.36-.08.16-.04.07-.01.3-.07.25-.06h.02l.38-.1.18-.04.38-.1.03-.01.15-.04.42-.12.24-.06.2-.06.27-.08.16-.06.07-.01.21-.07.21-.07.25-.08.03-.02q.12-.02.22-.06l.22-.08.38-.14.1-.04.34-.13.17-.06.15-.06.12-.05.05-.02.37-.16q.08 0 .12-.04l.25-.1.32-.15.38-.18.05-.03.37-.18.06-.03.34-.18q.04 0 .07-.03l.06-.03.3-.16.65-.37.4-.24q.84-.52 1.6-1.1l.37-.3q.37-.28.7-.6l.35-.3.19-.17.46-.46.2-.21.17-.2.26-.3.05-.04.15-.17.1-.12.04-.07.2-.24v-.02l.09-.1.15-.2.08-.1.05-.07.02-.03.08-.1.11-.17.05-.08.1-.13.11-.18q.07-.09.1-.17l.15-.22.04-.08.09-.13.08-.14.08-.16.05-.08.22-.4.1-.18.05-.12.06-.11.1-.2.04-.1.07-.14.05-.14.08-.16.05-.14.07-.13q0-.06.05-.13v-.03l.05-.09.08-.23.05-.12v-.01l.04-.08.08-.23.04-.14.03-.08.06-.19.06-.18v-.01l.04-.1.04-.13v-.02l.06-.2.02-.07.08-.31.03-.1.02-.05.06-.28.05-.19.08-.37.03-.1v-.05l.06-.27.03-.15v-.03l.01-.03.03-.21.05-.28.03-.17v-.03l.05-.31.05-.46.06-.53.05-.53.01-.27.02-.29.03-.53v-3.28q0-.52-.05-1.03l-.02-.35a10 10 0 0 0-.11-.95v-.03l-.07-.4-.01-.17-.07-.38v-.05l-.09-.43-.01-.1-.1-.46v-.02l-.08-.4-.04-.14-.07-.29-.06-.25-.09-.3-.13-.49-.08-.26-.24-.66v-.01l-.1-.28-.09-.22-.09-.21-.1-.22-.07-.17-.1-.26-.1-.18-.09-.16-.08-.16-.37-.66c1.74-.36 2.6-1.22 2.84-2.06l.01-.05q.05-.15.06-.32v-.14q0-.39-.14-.73zM4.56 26.43q.16-.05.33-.05.24 0 .47.12l6.03 3q.06 0 .1.05l.08.06.08.08.05.08.06.09.04.1q.04.1.05.2v.01l.23 2.26v.01l.43 4.26.11 1.15.04.37.07.68.42 4.14.01.13q.03.18.12.37l.01.05.03.05.03.07.06.08.01.03.07.1.02.02.01.01.03.04.08.08.07.09.08.06a3.8 3.8 0 0 1 1.3 2.58q.07.75-.12 1.5l-.03.1-.09.21-.09.2-.08.14q-.14.23-.32.45l-.3.26-.08.06-.1.06-.08.03-.1.04-.1.04h-.01l-.12.04-.1.02h-.41l-.22-.03c.99-.47 1.53-1.95 1.22-3.45a4 4 0 0 0-1.23-2.14c-.36-.3-.6-.73-.64-1.2l-.38-3.76-.09-.85-.04-.37-.12-1.2v-.07l-.67-6.6v-.01a.8.8 0 0 0-.45-.67zm12.47 27.46a5.1 5.1 0 0 1-5.4-.27q-.74-.46-1.37-1.14a10 10 0 0 1-2.45-5.07 9.6 9.6 0 0 1 .8-6q.38-.7.83-1.26l.1.75.06.38.36 2.58q.05.34-.1.67-.3.66-.36 1.4-.12 1.21.3 2.35l.06.17.02.04.13.3.05.1.1.17a3 3 0 0 0 .4.6l.36.4.15.14.06.05.04.03q.25.22.57.4l.16.07.24.1.16.07q.32.1.65.12.38.02.73-.06l.28-.07.23-.08q.72-.33 1.17-.98.14-.15.23-.35l.12-.2q.25-.53.36-1.1l.05-.26a5.2 5.2 0 0 0-1.26-4.18l-.14-.14-.27-.25-.05-.05a.7.7 0 0 1-.2-.4l-.24-2.34-.11-1.22-.13-1.22c1.46.07 2.93.79 4.13 2.04a10 10 0 0 1 2.45 5.07 10 10 0 0 1-.82 6.01 6 6 0 0 1-2.45 2.63M62.3 29.6l-.1.01v-.03c0 .1-.15.32-.66.48q-.34.1-.94.13-7.3.55-14.49 2.06-2.3.55-4.57 1.16l-2.83.77-.95.27-1.38.36-.2.06c-2.1.54-7.67 1.99-10.3.67l-.08-.03a.5.5 0 0 0-.54.24.5.5 0 0 0 .2.65q.92.45 1.93.55-.55 1.51-.51 3.12.05 5.18 1.33 10.19.12.45.3.89c1.62 3.8 4.6 5.15 8.22 5.36 6.1.31 12.19-.7 17.86-2.94a8 8 0 0 0 2.66-1.67 7.2 7.2 0 0 0 2.26-5.05q.56-6.98-1.15-12.74a7 7 0 0 0-1.22-2.65l1.13-.12.86 1.54.13.23.24.4.04.08.03.07.07.14v.02l.09.15.08.17.02.06.06.13v.02l.09.18v.03l.07.16v.02l.09.2.11.31q.1.25.18.54l.08.24.13.45v.01l.08.26.02.08.03.17.06.24v.03l.04.11v.02l.06.23.01.1.01.03.02.1.08.35v.06l.01.06.08.4v.05q.04.17.06.35l.03.15.05.41.01.07.01.06.05.39v.1q.09.72.09 1.51v3.26l-.03.75-.02.24q-.05.7-.15 1.43v.06l-.04.21v.1l-.02.07v.04l-.04.22v.04l-.02.03q0 .08-.02.14v.03l-.01.03-.03.13v.04l-.06.26v.1l-.02.02v.02l-.08.32v.01l-.04.14v.05l-.06.22v.03l-.02.03v.04l-.02.05-.01.04-.07.26-.07.23v.02l-.02.02-.02.1-.08.28-.02.01v.02l-.04.11v.02l-.01.01-.06.18-.02.06-.06.16v.01l-.07.18-.01.02v.03l-.07.16v.02l-.02.01-.08.2v.03l-.05.08v.02l-.01.03-.1.24-.02.03-.01.03-.02.05-.01.03-.1.21v.02l-.03.02-.04.1-.03.04v.03l-.1.2-.07.13-.02.03-.02.03-.06.14-.01.02-.1.16v.01l-.02.02-.1.18v.02l-.01.01-.03.06-.03.04-.03.04-.08.15-.02.02-.11.19-.02.01v.02l-.08.11v.01l-.03.04-.06.1-.02.02-.02.03-.12.18-.09.13h-.01v.02l-.13.17v.02l-.02.01-.02.02-.02.03-.03.03-.15.2-.02.04-.01.02-.1.13-.2.23-.05.06-.16.18v.01l-.26.3-.03.02-.09.1-.02.02-.02.03-.16.16-.42.41-.01.02-.02.01-.13.13-.01.01q-1.46 1.35-3.16 2.34h-.02a5 5 0 0 1-.58.35l-.28.15-.05.03h-.02l-.39.2-.03.02-.03.02-.34.16-.39.19h-.01l-.29.13-.03.02h-.01l-.2.09h-.02l-.07.04h-.02l-.03.02-.32.13h-.01l-.02.02-.11.04h-.03l-.03.02-.27.1h-.01l-.32.13-.02.01h-.03l-.02.02h-.02l-.35.14h-.02l-.18.06h-.02l-.03.02-.2.07h-.02l-.2.08H48l-.37.13h-.03l-.02.01-.02.02-.4.11h-.02l-.01.02-.15.04-.05.01-.2.06h-.02l-.4.12h-.03l-.1.03-.38.1h-.02l-.02.01-.12.03h-.02l-.03.01-.35.08-.01.01h-.02l-.2.06h-.04l-.33.08h-.03l-.14.04h-.02l-.33.07h-.02l-.36.08h-.01l-.47.1h-.03l-.34.07-.35.05-.55.1-.37.05-.32.05h-.05l-.01.01h-.05q-.95.15-2 .14h-2.8a28 28 0 0 1-11.92-2.93 18 18 0 0 1-6.66-5.68q.44-.24.81-.53A8 8 0 0 0 20.8 52c1.06-2.03 1.4-4.5.97-6.98a11.4 11.4 0 0 0-2.85-5.88 7.6 7.6 0 0 0-5.36-2.5l-.25-2.58c.32-2.35 1-4.64 2.05-6.77 1.55-3.06 3.97-5.5 7.6-7.62 4.49.53 7.7 5.28 9.63 11.38a59 59 0 0 1 6.85-2.72q.74-.2 1.52-.37c-1-4.58-3.77-9.25-8.68-11.37q2.62-.36 5.25-.39 1.48 0 2.89.17c2.94 1.81 4.79 5.73 6.37 10.7q4.17-.36 8.33.2l.1.01.11.02.66.09a28 28 0 0 1 4.7.91q.72.25 1.3.7c.28.24.3.42.3.59v.04zm-6.6 10.53a3.33 3.33 0 0 1-3.37 3.33 3.33 3.33 0 1 1 0-6.67 3.35 3.35 0 0 1 3.36 3.34m-14.73 2.7a3.5 3.5 0 0 1-3.54 3.5 3.52 3.52 0 0 1-2.5-5.99 3.5 3.5 0 0 1 2.5-1.02 3.53 3.53 0 0 1 3.54 3.51"/>
  <path fill="currentColor" d="M79.27 51V29.18h13.98v3.31H83.22v5.93h9.07v3.31h-9.07V51zm23.35.32q-2.4 0-4.16-1.06a7 7 0 0 1-2.73-2.95 10 10 0 0 1-.96-4.43q0-2.54.96-4.44a7 7 0 0 1 2.73-2.96 8 8 0 0 1 4.16-1.06q2.4 0 4.15 1.06a7 7 0 0 1 2.72 2.96q.97 1.9.97 4.44t-.97 4.43a7 7 0 0 1-2.72 2.95 8 8 0 0 1-4.16 1.06m.02-3.09q1.3 0 2.17-.71a4.3 4.3 0 0 0 1.3-1.94q.45-1.22.44-2.7 0-1.52-.44-2.73a4.3 4.3 0 0 0-1.3-1.94 3.3 3.3 0 0 0-2.17-.73q-1.34 0-2.22.73a4.4 4.4 0 0 0-1.31 1.94 8 8 0 0 0-.43 2.72q0 1.5.43 2.7.45 1.22 1.31 1.95.89.7 2.22.71m11.1 2.77V34.64h3.74v2.72h.17a4.1 4.1 0 0 1 4.04-2.96 9 9 0 0 1 1.38.1v3.56q-.24-.09-.78-.15a7 7 0 0 0-1-.08q-1.06 0-1.9.46a3.4 3.4 0 0 0-1.8 3.09V51zm11.9 0V34.64h3.68v2.78h.2q.5-1.4 1.69-2.2 1.18-.8 2.82-.8 1.65 0 2.8.81 1.15.8 1.62 2.19h.17q.54-1.37 1.83-2.18 1.3-.81 3.08-.82 2.26 0 3.69 1.43 1.42 1.42 1.42 4.17V51h-3.86V40.61q0-1.51-.81-2.22a3 3 0 0 0-1.98-.72q-1.4 0-2.19.88a3.2 3.2 0 0 0-.78 2.24V51h-3.78V40.45q0-1.27-.76-2.02-.76-.76-1.98-.76a3 3 0 0 0-1.52.43q-.67.42-1.09 1.18-.4.76-.4 1.77V51zm26.92 0V34.64h3.85V51zm1.94-18.69q-.92 0-1.58-.6-.66-.62-.66-1.48 0-.88.66-1.48.66-.63 1.58-.62.92 0 1.57.62.66.6.66 1.48 0 .85-.66 1.48-.65.6-1.57.6m9.74 9.1V51h-3.86V34.64h3.69v2.78h.19q.56-1.38 1.8-2.19a5.5 5.5 0 0 1 3.08-.8 6 6 0 0 1 2.95.72q1.27.72 1.96 2.1.7 1.37.7 3.33V51h-3.87v-9.82q0-1.64-.85-2.57a3 3 0 0 0-2.33-.93q-1.02 0-1.8.45-.78.44-1.23 1.27-.43.82-.43 2.01M178.65 51V34.64h3.86V51zm1.94-18.69q-.92 0-1.58-.6-.66-.62-.66-1.48 0-.88.66-1.48.66-.63 1.58-.62.92 0 1.58.62.66.6.66 1.48 0 .85-.66 1.48-.66.6-1.58.6m14.06 2.33v2.98h-9.41v-2.98zm-7.09-3.92h3.86v15.36q0 .77.23 1.2.25.4.64.55.39.14.87.14a4 4 0 0 0 1.13-.14l.65 3.01q-.3.1-.88.23-.57.13-1.39.15a6 6 0 0 1-2.6-.43 4 4 0 0 1-1.85-1.52 4.5 4.5 0 0 1-.66-2.55z"/>
</svg>