<svg xmlns="http://www.w3.org/2000/svg" viewBox="0 0 5434 1450">
  <path fill="#00d084" d="M1155 0H269L0 257v308l121 125 91-90-80-88V317l190-181h627l-65 137H272v368L0 901v549l394-305V928h331l187-395H541L432 657h269l-69 136H385L268 906v178l-142 114V952l269-272V408h572z"/>
  <path fill="#fff" d="M1698 1082V368h487v140h-315v147h284v140h-284v287zm785 10q-85 0-145-34-61-36-93-97-33-63-33-145t33-144 93-97 145-35q84 0 144 35 62 34 93 97 33 62 33 144t-33 145q-31 61-93 97-60 34-144 34m1-128q30 0 51-19 22-19 33-53 12-33 11-77 1-45-11-78-11-33-33-52a76 76 0 0 0-51-19q-32 0-54 19-22 18-33 52-11 33-11 78 0 44 11 77 11 34 33 53 22 18 54 19m356 118V547h166v97h5q15-52 48-78 33-27 77-27a177 177 0 0 1 48 7v148q-12-4-32-7l-35-2q-31 0-55 13-24 14-38 38-13 23-13 55v291zm740-535v125h-337V547zm-267-128h171v495q-1 16 5 25 5 9 15 14 9 3 23 4a129 129 0 0 0 37-6l26 123-35 9q-22 6-52 7-60 3-103-14-42-17-65-53-22-36-22-90zm699 432V547h170v535h-162V982h-5q-19 50-61 78-42 29-103 29-54 0-96-25t-65-70q-23-46-23-106V547h171v307q-1 44 23 69 22 25 61 25 25 0 46-11 21-12 32-33 12-22 12-53m449-74v305h-170V547h162v98h6q18-49 61-77 42-28 102-28 56 0 98 25 41 25 64 71 24 45 23 105v341h-170V774q1-44-23-69a81 81 0 0 0-63-25q-26 0-47 11-20 12-32 34-10 21-11 52m603 314q-51 0-91-17-40-18-63-52-22-36-22-88 0-45 15-76 16-30 44-50 27-18 63-28 36-11 77-14l73-9q28-5 41-13 12-9 13-26v-2q0-26-19-41a78 78 0 0 0-50-15q-33 0-54 15a64 64 0 0 0-26 40l-157-5a186 186 0 0 1 116-148q51-22 123-22 51 0 94 12 44 12 75 35a157 157 0 0 1 68 131v364h-161v-75h-4a152 152 0 0 1-88 75q-30 9-67 9m52-111q28 0 50-12 22-11 35-30 14-20 14-46v-51l-18 7-48 11-24 3q-24 4-41 12-18 9-26 21-9 14-9 30 0 26 19 41 19 14 48 14"/>
</svg>
