<svg xmlns="http://www.w3.org/2000/svg" fill="#fff" viewBox="0 0 232 36">
  <path d="M198.47.5h-5.71v24.19h5.71V.5ZM177.7 22.09v2.6h-5.75V.5h5.75v9.9a5.93 5.93 0 0 1 5.23-2.96c3.92 0 7.1 2.95 7.1 8.7v.26c0 5.79-3.18 8.68-7.13 8.68-2.5 0-4.37-1.2-5.2-3Zm6.49-5.69v-.25c0-2.96-1.29-4.37-3.31-4.37-2.1 0-3.34 1.5-3.34 4.33v.26c0 2.86 1.25 4.3 3.34 4.3 2.15 0 3.3-1.5 3.3-4.27Zm-121.46.07v-.26c0-5.72 3.14-8.77 7.13-8.77 2.63 0 4.2 1.12 5.17 2.83V.5h5.75v24.2h-5.75v-2.73a5.66 5.66 0 0 1-5.24 3.12c-3.88 0-7.06-2.8-7.06-8.61Zm12.46-.1v-.26c0-2.82-1.19-4.33-3.3-4.33-2.16 0-3.32 1.44-3.32 4.37v.25c0 2.83 1.25 4.27 3.25 4.27 2.08 0 3.37-1.44 3.37-4.3ZM.45 1.72h6.62v8.77h7.55V1.72h6.58V24.7h-6.58v-9.06H7.07v9.06H.45V1.72ZM24 20.03c0-3.95 3.35-5.5 8.93-5.5h1.61v-.38c0-1.6-.38-2.66-2.22-2.66-1.57 0-2.15.93-2.28 1.99h-5.4c.26-4.05 3.44-6.04 8.04-6.04 4.62 0 7.58 1.9 7.58 6.36v10.9h-5.59v-1.96c-.8 1.22-2.28 2.35-4.98 2.35-3.02 0-5.69-1.48-5.69-5.05Zm10.54-1.22v-1.03h-1.5c-2.32 0-3.35.45-3.35 1.83 0 .97.64 1.58 2 1.58 1.63 0 2.85-.93 2.85-2.38ZM49.27 7.9h-5.75v16.8h5.75v-9.41c0-2.16 1.16-3.18 2.86-3.18 1.67 0 2.41.93 2.41 2.82v9.77h5.75V13.77c0-4.3-2.25-6.33-5.5-6.33a5.92 5.92 0 0 0-5.52 3.15v-2.7Zm39.09 11.47h-5.3c.12 3.72 2.92 5.71 7.7 5.71 4.66 0 7.62-1.8 7.62-5.78 0-3.6-2.25-4.82-6.9-5.4-2.06-.25-2.83-.57-2.83-1.38 0-.77.64-1.31 1.9-1.31 1.3 0 1.92.54 2.14 1.67h5.2c-.38-4.02-3.27-5.43-7.41-5.43-3.89 0-7.2 1.8-7.2 5.52 0 3.5 1.9 4.82 6.4 5.4 2.3.32 3.1.7 3.1 1.51 0 .84-.63 1.38-2.05 1.38-1.63 0-2.18-.67-2.37-1.9Zm11.62-2.86v-.26c0-5.4 4.02-8.8 9.22-8.8 5.17 0 9.16 3.3 9.16 8.64v.26c0 5.46-4.02 8.74-9.2 8.74-5.16 0-9.18-3.15-9.18-8.58Zm12.53-.1v-.25c0-2.83-1.13-4.4-3.3-4.4-2.16 0-3.35 1.5-3.35 4.33v.26c0 2.89 1.13 4.46 3.34 4.46 2.15 0 3.31-1.6 3.31-4.4Zm14.1-8.51h-5.75v16.8h5.75v-9.41c0-2.16 1.15-3.18 2.86-3.18 1.67 0 2.4.93 2.4 2.82v9.77h5.76V13.77c0-4.3-2.25-6.33-5.5-6.33-2.8 0-4.62 1.41-5.52 3.15v-2.7Zm15.06 11.4v-7.48h-2.03V7.89h2.03v-3.5h5.75v3.5h3.3v3.92h-3.3v6.94c0 1.22.6 1.76 1.7 1.76.56.01 1.12-.09 1.64-.29v4.37c-1.03.3-2.1.47-3.18.48-3.8 0-5.91-1.83-5.91-5.78Zm19.69-4.75c-5.6 0-8.93 1.54-8.93 5.5 0 3.56 2.66 5.04 5.68 5.04 2.7 0 4.18-1.13 4.98-2.35v1.96h5.6V13.8c0-4.46-2.96-6.36-7.59-6.36-4.6 0-7.77 2-8.03 6.04h5.4c.12-1.06.7-2 2.28-2 1.83 0 2.21 1.07 2.21 2.67v.39h-1.6Zm1.6 3.24v1.03c0 1.45-1.22 2.38-2.86 2.38-1.35 0-1.99-.61-1.99-1.58 0-1.38 1.03-1.83 3.34-1.83h1.51Zm38.19-1.28v-.26c0-5.4 4.01-8.8 9.09-8.8 4.59 0 8.54 2.63 8.54 8.67v1.51h-11.82c.16 2.22 1.44 3.5 3.5 3.5 1.9 0 2.7-.86 2.92-1.99h5.4c-.51 3.8-3.44 5.95-8.51 5.95-5.27 0-9.12-3.09-9.12-8.58Zm12.04-2.12c-.1-2.03-1.09-3.15-2.95-3.15-1.74 0-2.93 1.12-3.22 3.15h6.17Zm17.84 11.43h-9.7v9.7h9.7v-9.7Z" />
</svg>