<svg xmlns="http://www.w3.org/2000/svg" viewBox="0 0 230 50">
  <path fill="#fff" d="M67.18 31.57c0 .65-.13 1.22-.4 1.73-.28.5-.66.89-1.17 1.16a3.5 3.5 0 0 1-1.71.41h-3.21v4.68h3.89a7.9 7.9 0 0 0 3.94-.99 7.17 7.17 0 0 0 2.74-2.7c.66-1.16 1-2.46 1-3.9V16.58h-5.08v14.98Zm13.67-1.4H91.5V25.9H80.85V21h11.76v-4.4H75.9v22.95h17.03v-4.42H80.85v-4.94Zm13.68-9.03h6.8v18.4h5.08v-18.4h6.77V16.6H94.52v4.56h.01Zm36 6.9a6 6 0 0 0-1.28-.5 4.86 4.86 0 0 0 3.67-4.91 5.4 5.4 0 0 0-.95-3.13 6.33 6.33 0 0 0-2.67-2.15 9.53 9.53 0 0 0-3.92-.77h-10.2v22.95h10.4a10 10 0 0 0 4.12-.81 6.62 6.62 0 0 0 2.81-2.26c.67-.96 1-2.06 1-3.3 0-1.13-.25-2.14-.78-3.04a5.4 5.4 0 0 0-2.19-2.1v.02Zm-10.41-7.6h4.5c.63 0 1.18.12 1.66.34a2.56 2.56 0 0 1 1.52 2.41 2.64 2.64 0 0 1-1.52 2.52 3.7 3.7 0 0 1-1.66.35h-4.5v-5.63.01Zm7.76 13.89c-.29.43-.7.77-1.23 1-.53.24-1.13.35-1.83.35h-4.7V29.8h4.7c.68 0 1.28.13 1.82.38.52.25.94.6 1.23 1.06.3.46.44.97.44 1.56 0 .59-.14 1.1-.43 1.53Zm22.66-4.07a6.99 6.99 0 0 0 2.96-2.57 7.02 7.02 0 0 0 1.05-3.86c0-1.46-.34-2.7-1.03-3.8a6.82 6.82 0 0 0-2.92-2.54c-1.26-.6-2.72-.9-4.38-.9h-10.04v22.95h5.08v-8.36h3.3l4.67 8.36h5.8l-5.25-8.97.77-.3h-.01Zm-1.65-4.69c-.28.48-.68.86-1.21 1.1a4 4 0 0 1-1.85.4h-4.58v-6.35h4.58c.7 0 1.32.13 1.85.38s.93.62 1.21 1.1c.28.47.43 1.03.43 1.67 0 .64-.15 1.2-.43 1.69v.01Zm15.77-8.98-8.2 22.95h5.16l1.63-5.06h8.5l1.75 5.06h5.06l-8.4-22.95h-5.5Zm-.26 14.05 2.64-8.1.31-1.47.31 1.47 2.82 8.1h-6.08Zm15.84 8.9h5.25V16.6h-5.25v22.95ZM204 32.11l-9.87-15.52h-4.95v22.95h4.64V24.02l9.82 15.52h5V16.6H204v15.52Zm24.14-2.56a6.85 6.85 0 0 0-2.09-2.4 7.58 7.58 0 0 0-3.08-1.3l-3.9-.8c-.61-.15-1.1-.4-1.46-.77a1.88 1.88 0 0 1-.54-1.36c0-.5.13-.92.4-1.29.26-.36.63-.65 1.1-.85a4.1 4.1 0 0 1 1.65-.3c.63 0 1.19.1 1.67.31.48.22.85.51 1.12.9.27.4.4.83.4 1.32h5.09a6.38 6.38 0 0 0-1.1-3.54 7.03 7.03 0 0 0-2.94-2.4 10.1 10.1 0 0 0-4.29-.87c-1.6 0-3.02.3-4.26.9a7.04 7.04 0 0 0-2.91 2.5 6.54 6.54 0 0 0-1.05 3.64c0 1.1.23 2.1.68 2.99a5.9 5.9 0 0 0 1.9 2.22c.82.58 1.76 1 2.85 1.23l4.13.85a3.1 3.1 0 0 1 1.6.88c.4.43.6.96.6 1.6 0 .5-.15.97-.44 1.38-.3.4-.7.71-1.21.93a4.5 4.5 0 0 1-1.83.33c-.7 0-1.37-.12-1.94-.36a2.97 2.97 0 0 1-1.33-1.06 2.63 2.63 0 0 1-.47-1.56h-5.08a6.7 6.7 0 0 0 1.15 3.8 7.48 7.48 0 0 0 3.1 2.54c1.3.61 2.8.92 4.5.92 1.7 0 3.22-.31 4.53-.94a7.46 7.46 0 0 0 3.08-2.58 6.51 6.51 0 0 0 1.1-3.73c0-1.14-.25-2.18-.74-3.14h.01Z"/>
  <path fill="url(#b)" d="M16.54 3.3 3.77 16.07a9.57 9.57 0 0 0-2.8 6.77v22.83A3.83 3.83 0 0 0 4.8 49.5h22.83a9.59 9.59 0 0 0 6.77-2.8l12.77-12.77a9.57 9.57 0 0 0 2.8-6.77V4.33A3.83 3.83 0 0 0 46.14.5H23.31a9.59 9.59 0 0 0-6.77 2.8Z"/>
  <path fill="#000" d="M37.72 12.75H7.09v30.63h30.63V12.75Z"/>
  <path fill="#fff" d="M23.94 36.48H10.92v3.07h13.02v-3.07Z"/>
  <defs>
    <linearGradient id="b" x1="1.62" x2="48.91" y1="48.52" y2="1.89" gradientUnits="userSpaceOnUse">
      <stop stop-color="#FF9419"/>
      <stop offset=".43" stop-color="#FF021D"/>
      <stop offset=".99" stop-color="#E600FF"/>
    </linearGradient>
  </defs>
</svg>