<svg xmlns="http://www.w3.org/2000/svg" viewBox="0 0 187.21 35" fill="#fff">
  <path fill="#d92b04" opacity="0.75" d="M6.63.75V14.3c0 .24.11.46.31.61l19.72 14.56c.5.37 1.2.01 1.2-.61V15.31a.75.75 0 0 0-.31-.61L7.82.15a.75.75 0 0 0-1.2.61Z" />
  <path fill="#d92b04" opacity="0.75" d="M3.31 3.45v13.54c0 .24.11.46.31.61l19.72 14.56c.5.37 1.2.01 1.2-.61V18.01a.75.75 0 0 0-.31-.61L4.51 2.85a.75.75 0 0 0-1.2.61Z" />
  <path fill="#d92b04" opacity="0.75" d="M0 6.15v13.54c0 .24.11.46.31.61l19.72 14.56c.5.37 1.2.01 1.2-.61V20.71a.75.75 0 0 0-.31-.61L1.2 5.55a.75.75 0 0 0-1.2.61Z" />
  <path d="M60.82 33.12h-3.63V17.91c0-1.86-.05-3.41-.12-4.76h3.19l.18 2.21h.06a5.58 5.58 0 0 1 4.93-2.53c3.29 0 6.03 2.82 6.03 7.31 0 5.21-3.26 7.71-6.53 7.71-1.81 0-3.31-.76-4.04-1.92h-.06v7.19m0-11.62c0 .35.03.68.1.99a3.3 3.3 0 0 0 3.19 2.54c2.31 0 3.66-1.92 3.66-4.74 0-2.55-1.24-4.61-3.57-4.61a3.4 3.4 0 0 0-3.24 2.69 4 4 0 0 0-.13.92v2.21Zm12.3-3.73c0-1.92-.04-3.34-.12-4.62h3.15l.13 2.73h.1c.71-2.02 2.38-3.06 3.93-3.06.35 0 .56.01.85.08v3.42c-.31-.07-.63-.1-1.07-.1-1.73 0-2.93 1.1-3.26 2.75-.06.32-.09.7-.09 1.1v7.45h-3.64v-9.75Zm19.88 9.36c-1.17.41-2.69.7-4.48.7-4.67 0-7.4-2.88-7.4-7.29 0-3.97 2.41-7.72 7.03-7.72s6.19 3.84 6.19 6.99c0 .68-.06 1.22-.13 1.53h-9.61c.1 2.6 2.11 3.74 4.44 3.74 1.67 0 2.87-.26 3.97-.67m-2.08-5.61c.02-1.33-.56-3.5-3-3.5-2.24 0-3.17 2.03-3.33 3.5h6.33Zm5.73-5.07c1.11-.5 2.67-.9 4.49-.9 4.61 0 5.92 2.91 5.92 6.06v5.17c0 1.31.07 2.57.22 3.46h-3.28l-.25-1.6h-.09a5.26 5.26 0 0 1-4.23 1.93c-2.92 0-4.53-2.08-4.53-4.27 0-3.63 3.23-5.46 8.52-5.44v-.24c0-.94-.37-2.51-2.92-2.51-1.41 0-2.88.45-3.86 1.07m6.88 4.02c-2.56-.03-5.02.51-5.02 2.69 0 1.41.92 2.07 2.07 2.07 1.45 0 2.49-.94 2.84-1.99.08-.25.1-.54.1-.79v-1.99Zm15.68-13.01h3.63v16.02c0 1.47.05 3.06.12 4.03h-3.23l-.16-2.27h-.07a5.13 5.13 0 0 1-4.67 2.6c-3.43 0-6.15-2.93-6.15-7.34-.02-4.81 2.99-7.68 6.44-7.68 1.97 0 3.38.81 4.03 1.87h.06V7.47m0 0v11.67c0-.29-.02-.65-.08-.95a3.19 3.19 0 0 0-3.12-2.55c-2.34 0-3.64 2.06-3.64 4.73s1.31 4.57 3.6 4.57a3.23 3.23 0 0 0 3.14-2.59c.08-.32.11-.68.11-1.06v-2.15Z"/>
  <path fill="#d92b04" d="M130.91 18.94c-1.82-.66-2.51-1.1-2.51-2.01s.72-1.52 2.01-1.52 2.43.48 3.04.83v-2.88a8.92 8.92 0 0 0-3.09-.53c-3.35 0-5.45 1.97-5.45 4.5-.01 1.7 1.16 3.23 3.97 4.2 1.77.63 2.36 1.12 2.36 2.09s-.71 1.61-2.31 1.61c-1.3 0-2.86-.55-3.67-1.05v2.99a10 10 0 0 0 3.65.66c3.79 0 5.84-1.89 5.84-4.51-.01-2.12-1.22-3.45-3.83-4.38Zm5.5-11.31 3.64-.16v7.64h.06a5.14 5.14 0 0 1 4.29-2.29c2.44 0 5.02 1.62 5.02 6.23v8.46h-3.64v-8.06c0-2.08-.75-3.67-2.76-3.67a3.01 3.01 0 0 0-2.98 3.14v8.6h-3.64V7.47m3.64 0h-3.64m26.53 19.66c-1.17.41-2.69.7-4.48.7-4.67 0-7.4-2.88-7.4-7.29 0-3.97 2.41-7.72 7.03-7.72s6.19 3.84 6.19 6.99c0 .68-.06 1.22-.13 1.53h-9.61c.1 2.6 2.11 3.74 4.44 3.74 1.67 0 2.87-.26 3.97-.67m-2.08-5.61c.02-1.33-.56-3.5-3-3.5-2.24 0-3.17 2.03-3.33 3.5h6.33Zm15.93 8.34c-1.17.41-2.67.69-4.44.69-4.67 0-7.4-2.88-7.4-7.29 0-3.97 2.41-7.72 7.03-7.72s6.19 3.84 6.19 6.99c0 .68-.06 1.22-.13 1.53h-9.61c.1 2.6 2.11 3.74 4.44 3.74 1.67 0 2.87-.26 3.97-.67m-2.08-5.61c.02-1.33-.56-3.5-3-3.5-2.24 0-3.17 2.03-3.33 3.5h6.33Zm9.18-11.33v5.68h3.46v2.71h-3.46v6.34c0 1.76.47 2.65 1.86 2.65.62 0 1.09-.07 1.41-.16l.07 2.76c-.55.2-1.5.37-2.64.37a4.18 4.18 0 0 1-3.12-1.18c-.78-.83-1.14-2.15-1.14-4.03v-6.76h-2.05v-2.71h2.05V7.47m3.56 0h-3.56"/>
  <path d="M40.1 7.47v12.95c0 3.46-1.26 4.39-3.33 4.39-.87 0-1.66-.16-2.24-.36v3.07c.76.21 1.77.33 2.6.33 3.94 0 6.6-1.83 6.6-7.31V7.47h-3.64Zm11.61 11.47c-1.82-.66-2.51-1.1-2.51-2.01s.72-1.52 2.01-1.52 2.43.48 3.04.83v-2.88a8.92 8.92 0 0 0-3.09-.53c-3.35 0-5.45 1.97-5.45 4.5-.01 1.7 1.16 3.23 3.97 4.2 1.77.63 2.36 1.12 2.36 2.09s-.71 1.61-2.31 1.61c-1.3 0-2.86-.55-3.67-1.05v2.99a10 10 0 0 0 3.65.66c3.79 0 5.84-1.89 5.84-4.51-.01-2.12-1.22-3.45-3.83-4.38Z"/>
</svg>
