<svg xmlns="http://www.w3.org/2000/svg" viewBox="0 0 367.9 64">
  <path fill="#fff" d="M85.4 48.1V15.9c0-.8.7-1.5 1.5-1.5h5.6c.8 0 1.5.7 1.5 1.5v24.8c0 .8.7 1.5 1.5 1.5h13.9c.8 0 1.5.7 1.5 1.5v4.4c0 .8-.7 1.5-1.5 1.5H86.9c-.8 0-1.5-.7-1.5-1.5m147.1 0V15.9c0-.8.7-1.5 1.5-1.5h5.6c.8 0 1.5.7 1.5 1.5v24.8c0 .8.7 1.5 1.5 1.5h13.9c.8 0 1.5.7 1.5 1.5v4.4c0 .8-.7 1.5-1.5 1.5H234c-.8 0-1.5-.7-1.5-1.5M132.2 13.5c-11 0-19.1 7.1-19.1 18.4 0 11.1 8.1 18.7 19.1 18.7s19.2-7.5 19.2-18.7c-.1-11.3-8.2-18.4-19.2-18.4m0 29.3c-5.9 0-10-4.6-10-10.9 0-6.2 4.1-10.7 10-10.7 6 0 10.1 4.6 10.1 10.7 0 6.3-4.2 10.9-10.1 10.9m42 7.7c-10.8 0-18.9-7.5-18.9-18.6 0-11.3 8.3-18.5 19.1-18.5 4.3 0 9 1.4 12 4 .6.6.7 1.6.1 2.2l-3.6 3.6c-.6.6-1.5.6-2 0a9 9 0 0 0-6.2-2.2c-5.9 0-10.1 4.6-10.1 10.8 0 6.4 4.1 10.8 10 10.8 2.7 0 5-1 6.5-2.5.6-.5 1.5-.5 2 0l3.7 3.5c.6.6.6 1.6 0 2.1-3 3-7.3 4.8-12.6 4.8m38.4-35.9h-6.3c-.6 0-1.1.4-1.4.9l-13.5 32c-.4 1 .3 2.1 1.4 2.1h6c.6 0 1.2-.4 1.4-1l1.9-4.9c.2-.6.8-1 1.4-1H215c.6 0 1.2.4 1.4.9l2 5c.2.6.8.9 1.4.9h6.2c1.1 0 1.8-1.1 1.4-2.1l-13.4-32c-.3-.4-.8-.8-1.4-.8m-7 19.4 2.3-6.3a1.5 1.5 0 0 1 2.8 0L213 34c.3 1-.4 2-1.4 2H207c-1.1 0-1.8-1.1-1.4-2m78.6-19.4h-6.3c-.6 0-1.1.4-1.4.9l-13.5 32c-.4 1 .3 2.1 1.4 2.1h6c.6 0 1.2-.4 1.4-1l1.9-4.9c.2-.6.8-1 1.4-1h11.6c.6 0 1.2.4 1.4.9l2 5c.2.6.8.9 1.4.9h6.2c1.1 0 1.8-1.1 1.4-2.1l-13.4-32c-.3-.4-.9-.8-1.5-.8m-7 19.4 2.3-6.3a1.5 1.5 0 0 1 2.8 0l2.3 6.3c.3 1-.4 2-1.4 2h-4.6c-1 0-1.8-1.1-1.4-2m26.4 14.1v-3.8c0-1.4.5-2.7 1.3-3.7l14.4-17.8c.4-.5 0-1.2-.6-1.2h-13.3c-.8 0-1.5-.7-1.5-1.5v-4.2c0-.8.7-1.5 1.5-1.5h24c.8 0 1.5.7 1.5 1.5v3.2c0 1.4-.5 2.7-1.3 3.7L314.9 41c-.4.5-.1 1.2.6 1.2h14.4c.8 0 1.5.7 1.5 1.5v4.4c0 .8-.7 1.5-1.5 1.5h-24.7c-.9 0-1.6-.7-1.6-1.5m52.1-11.6v11.6c0 .8-.7 1.5-1.5 1.5h-5.5c-.8 0-1.5-.7-1.5-1.5V36.4c0-1.1-.3-2.3-1-3.2l-10.7-16.5c-.6-1 .1-2.3 1.2-2.3h6.7c.5 0 1 .3 1.3.7l6.4 11.2c.3.5 1 .5 1.3 0l6.4-11.2c.3-.5.8-.7 1.3-.7h6.3c1.2 0 1.9 1.3 1.2 2.3l-11 16.5q-.9 1.5-.9 3.3M45.1 1.8l-.4 1-3.2 7.6c.3-.9-.3-1.8-1.3-1.8h-26c-1 0-1.6 1-1.2 1.9l6.2 14.9c.2.5.7.8 1.2.8h12.4c1 0 1.6 1 1.3 1.9l-.4.9-3.2 7.6c.3-.9-.3-1.8-1.3-1.8h-4.1c-1 0-1.6 1-1.2 1.9l10.5 25.1c.4 1.1-.3 2.3-1.5 2.3h-6.5c-.7 0-1.2-.4-1.5-1L.2 3.8C-.5 2 .8 0 2.7 0h41.1c1 0 1.6.9 1.3 1.8"/>
  <path fill="#a1cbfd" d="m57.5 8.4-12 28.5c-.6 1.5-2.1 2.5-3.7 2.5H31.3c-1 0-1.6-1-1.2-1.9l.4-.9v-.1l3.2-7.6c-.4.9.3 1.9 1.2 1.9h2.8c.5 0 1-.3 1.2-.8l6.3-14.9c.4-.9-.3-1.9-1.2-1.9h-1.7c-1 0-1.6-1-1.2-1.9l.4-.9v-.1l3.2-7.6c-.4.9.3 1.9 1.2 1.9H55c2 .1 3.3 2 2.5 3.8"/>
</svg>
