<svg xmlns="http://www.w3.org/2000/svg" viewBox="0 0 147 23">
  <path fill="#2652E3" d="M19.74 23a10.7 10.7 0 0 0-7.62-3.17A10.7 10.7 0 0 0 4.5 23L0 21.13V9.62h5.27v6.46a15.96 15.96 0 0 1 6.85-1.53c4.28 0 8.31 1.68 11.34 4.71L19.74 23ZM3.73 0a10.7 10.7 0 0 0 7.62 3.17A10.7 10.7 0 0 0 18.97 0l4.5 1.87v11.51H18.2V6.92a15.96 15.96 0 0 1-6.85 1.53A15.93 15.93 0 0 1 0 3.74L3.73 0Z"/>
  <path fill="#fff" d="M37.68 4.18h-2.31v13.84h2.31V4.18Zm10.06 9.37c0 .39-.07.74-.22 1.06a2.56 2.56 0 0 1-1.45 1.35 3 3 0 0 1-2.43-.15 2.04 2.04 0 0 1-.82-.98 4.16 4.16 0 0 1-.27-1.6V8.16h-2.3v5.63c0 .93.17 1.72.48 2.38a3.5 3.5 0 0 0 3.35 2.04c.7 0 1.32-.12 1.88-.35a4.42 4.42 0 0 0 1.4-.9c.16-.16.29-.31.4-.47l.04 1.53h2.23V8.16h-2.29v5.39Zm8.02-3.15a3.92 3.92 0 0 1 2.9-.2c.4.12.78.3 1.13.53a4.4 4.4 0 0 1 .9.74l1.28-1.64A4.84 4.84 0 0 0 60 8.45a7.26 7.26 0 0 0-2.71-.5c-1.03 0-1.95.23-2.75.68a5.15 5.15 0 0 0-1.92 1.83c-.47.78-.7 1.65-.7 2.62s.23 1.85.7 2.62a5.12 5.12 0 0 0 1.93 1.83c.8.45 1.73.68 2.78.68a6.83 6.83 0 0 0 4.62-1.73l-1.25-1.62c-.26.25-.56.47-.9.66a5.28 5.28 0 0 1-1.08.47 4.3 4.3 0 0 1-1.26.18c-.61 0-1.16-.14-1.66-.41a3.15 3.15 0 0 1-1.16-1.1 2.92 2.92 0 0 1-.43-1.58c0-.59.13-1.11.4-1.58a2.91 2.91 0 0 1 1.16-1.1Zm18.22-2.23h-3.12l-5 4.43V4.18h-2.23v13.84h2.24v-2.96l1.58-1.34 3.71 4.3h2.86l-4.96-5.67 4.92-4.19Zm6.93 6-.54 1.3-.16.4a8.55 8.55 0 0 0-.2-.53 14.2 14.2 0 0 0-.56-1.18l-2.78-6H74l5.01 10.1-1.99 4.06h2.4l1.95-4.27 4.72-9.89h-2.67l-2.52 6Zm21.6-5.67a4.1 4.1 0 0 0-2.15-.5c-.43 0-.86.06-1.29.2a5.45 5.45 0 0 0-2.12 1.23 3.99 3.99 0 0 0-.5.56 3.22 3.22 0 0 0-.46-.86 2.68 2.68 0 0 0-1.17-.87A4.42 4.42 0 0 0 93.23 8c-.5 0-.96.07-1.4.22a5.2 5.2 0 0 0-2.11 1.34l-.06.08-.03-1.47h-2.25v9.86h2.3V12.4a2 2 0 0 1 .2-.86c.13-.28.32-.53.56-.76a2.83 2.83 0 0 1 .85-.55 2.71 2.71 0 0 1 1.07-.2c.5 0 .9.09 1.23.27.32.19.56.46.72.8.17.34.25.76.25 1.24v5.67h2.31v-5.44c0-.35.07-.68.21-.99a2.56 2.56 0 0 1 .61-.81 2.82 2.82 0 0 1 .92-.55c.36-.13.73-.2 1.13-.2.47 0 .86.1 1.17.27a1.6 1.6 0 0 1 .67.8c.14.35.21.77.21 1.27v5.65h2.32v-5.88c0-.84-.13-1.58-.39-2.2a2.95 2.95 0 0 0-1.2-1.44Zm12.62.81a5.1 5.1 0 0 0-1.64-1 5.57 5.57 0 0 0-2.02-.37c-.8 0-1.54.12-2.22.37a5.28 5.28 0 0 0-1.78 1.07 4.97 4.97 0 0 0-1.19 1.65 5.2 5.2 0 0 0 .3 4.74 5.1 5.1 0 0 0 2.07 1.78c.88.44 1.9.66 3.04.66a7.72 7.72 0 0 0 3.2-.71 6.04 6.04 0 0 0 1.28-.77l-1.09-1.59a5.23 5.23 0 0 1-1.34.74 5 5 0 0 1-1.73.27 5.1 5.1 0 0 1-2.07-.39 3.27 3.27 0 0 1-1.37-1.1 2.67 2.67 0 0 1-.42-.98h8.4l.03-.88a4.7 4.7 0 0 0-.37-1.95 4.46 4.46 0 0 0-1.08-1.53Zm-5.46.98a4.52 4.52 0 0 1 3.15-.07 2.97 2.97 0 0 1 1.03.7 1.8 1.8 0 0 1 .49 1.02v.13h-6.17a2.63 2.63 0 0 1 .32-.78 2.53 2.53 0 0 1 1.18-1Zm16.78-.92a3.5 3.5 0 0 0-.68-.56 5.37 5.37 0 0 0-1.34-.62 5.42 5.42 0 0 0-1.62-.23c-.98 0-1.86.22-2.63.66a4.75 4.75 0 0 0-1.8 1.83 5.28 5.28 0 0 0-.66 2.63c0 1 .21 1.88.64 2.65a4.75 4.75 0 0 0 1.78 1.81c.76.45 1.63.67 2.62.67a5.13 5.13 0 0 0 1.54-.24 5.3 5.3 0 0 0 1.32-.6 4 4 0 0 0 .87-.76l.03 1.41h2.22V4.18h-2.3v5.2h.01Zm-.34 5.33a3 3 0 0 1-1.14 1.11 3.4 3.4 0 0 1-1.7.41 3.4 3.4 0 0 1-1.68-.4 3 3 0 0 1-1.15-1.12c-.27-.47-.4-1-.4-1.62 0-.6.13-1.13.4-1.6a2.83 2.83 0 0 1 1.15-1.1c.5-.27 1.05-.4 1.69-.4.63 0 1.2.13 1.69.4.49.26.87.62 1.14 1.1s.41 1 .41 1.6c0 .6-.13 1.15-.4 1.62Zm6.39-11.38c-.45 0-.8.12-1.07.37s-.4.58-.4.98c0 .42.14.75.4.98.25.23.6.35 1.06.35.46 0 .8-.13 1.07-.38s.4-.57.4-.95c0-.44-.12-.77-.39-1a1.58 1.58 0 0 0-1.08-.35Zm1.18 4.84h-2.3v9.86h2.3V8.16Zm10.63 0v1.36a3.98 3.98 0 0 0-.76-.71 4.29 4.29 0 0 0-1.28-.63 5.5 5.5 0 0 0-1.62-.23c-.98 0-1.85.22-2.62.66a4.7 4.7 0 0 0-1.8 1.81c-.43.78-.65 1.65-.65 2.64s.21 1.88.64 2.66a4.8 4.8 0 0 0 1.76 1.82c.74.44 1.58.67 2.54.67a5.63 5.63 0 0 0 2.86-.87c.37-.24.67-.51.91-.81v1.49h2.32V8.16h-2.3Zm-.34 6.52a2.87 2.87 0 0 1-1.14 1.1c-.5.26-1.06.39-1.7.39-.62 0-1.2-.13-1.69-.4a2.8 2.8 0 0 1-1.13-1.09c-.26-.46-.4-1-.4-1.62 0-.6.14-1.1.4-1.57a2.9 2.9 0 0 1 1.13-1.1c.49-.26 1.05-.4 1.7-.4.64 0 1.2.14 1.69.4a2.94 2.94 0 0 1 1.55 2.67 3.2 3.2 0 0 1-.4 1.62Z"/>
</svg>
