<svg width="951" height="345" viewBox="0 0 951 345" fill="none" xmlns="http://www.w3.org/2000/svg">
<rect y="0.981445" width="950.831" height="344" fill="white"/>
<g clip-path="url(#clip0_2840_13203)">
<mask id="mask0_2840_13203" style="mask-type:luminance" maskUnits="userSpaceOnUse" x="61" y="62" width="145" height="222">
<path d="M205.694 62.8241H61.8427V283.139H205.694V62.8241Z" fill="white"/>
</mask>
<g mask="url(#mask0_2840_13203)">
<path fill-rule="evenodd" clip-rule="evenodd" d="M130.728 62.9788C101.587 65.8501 100.561 108.998 129.519 113.826C130.831 114.045 131.246 114.16 131.276 114.312C131.298 114.422 131.193 116.597 131.042 119.147C130.892 121.696 130.702 126.71 130.621 130.287C130.54 133.865 130.445 136.813 130.41 136.838C130.375 136.864 129.901 137.103 129.358 137.37C128.34 137.87 127.001 138.969 126.463 139.746C126.161 140.182 126.161 140.182 124.307 140.242C121.38 140.338 119.596 141.054 117.976 142.781C117.527 143.261 117.116 143.6 117.061 143.537C117.007 143.474 115.318 140.986 113.308 138.008C111.298 135.031 109.016 131.678 108.237 130.558L106.82 128.521L107.652 127.6C123.157 110.417 101.476 84.5374 83.0387 98.2215C64.6869 111.842 81.135 140.414 102.236 131.568C102.322 131.531 103.89 133.492 105.943 136.204C107.899 138.789 110.343 141.976 111.373 143.286C112.404 144.597 113.334 145.8 113.44 145.96C113.658 146.29 113.729 146.242 112.549 146.566C109.276 147.465 106.191 150.182 105.579 152.703C105.499 153.034 105.367 153.306 105.287 153.309C99.7564 153.455 95.5242 157.563 95.4644 162.843C95.4442 164.639 95.4442 164.639 94.691 165.086C87.8365 169.155 78.537 182.805 77.873 189.772C77.7749 190.802 77.8135 190.768 76.4571 190.999C73.3964 191.522 71.6085 192.627 69.7231 195.161C67.3356 198.372 67.1153 201.131 68.9359 205.028C69.5525 206.348 69.5864 206.114 68.5699 207.547C57.8209 222.691 60.0601 240.462 74.5217 254.78C83.9799 264.144 97.2567 269.853 112.142 270.955C117.825 271.375 118.476 271.589 119.94 273.518C129.565 286.195 137.874 286.195 147.499 273.518C148.963 271.589 149.614 271.375 155.297 270.955C177.546 269.308 196.16 257.11 203.138 239.605C207.586 228.447 206.174 217.853 198.866 207.537C197.852 206.105 197.887 206.346 198.503 205.028C200.323 201.131 200.103 198.372 197.716 195.161C195.831 192.627 194.042 191.522 190.982 190.999C189.625 190.768 189.664 190.802 189.566 189.772C189.349 187.487 186.903 181.624 184.57 177.792C181.703 173.082 176.133 167.095 172.748 165.086C171.995 164.639 171.995 164.639 171.974 162.843C171.915 157.563 167.683 153.455 162.152 153.309C162.072 153.306 161.94 153.034 161.86 152.703C161.248 150.182 158.163 147.465 154.89 146.566C153.71 146.242 153.78 146.29 153.999 145.96C154.105 145.8 155.035 144.597 156.065 143.286C157.096 141.976 159.539 138.789 161.496 136.204C163.549 133.492 165.117 131.531 165.203 131.568C186.304 140.414 202.752 111.842 184.4 98.2215C165.963 84.5374 144.282 110.417 159.787 127.6L160.619 128.521L159.202 130.558C158.423 131.678 156.141 135.031 154.131 138.008C152.121 140.986 150.432 143.474 150.377 143.537C150.323 143.6 149.912 143.261 149.462 142.781C147.843 141.054 146.059 140.338 143.132 140.242C141.278 140.182 141.278 140.182 140.981 139.752C140.201 138.627 138.404 137.348 136.95 136.885C136.298 136.677 136.298 136.677 136.314 129.034C136.322 124.83 136.3 119.753 136.265 117.752L136.202 114.114L137.92 113.826C170.489 108.386 163.608 59.7392 130.728 62.9788ZM129.927 69.2764C118.754 71.2952 111.411 81.6283 113.415 91.7411C113.559 92.4703 113.752 93.1985 113.996 93.9224C119.835 111.253 147.604 111.253 153.442 93.9224C153.689 93.1906 153.884 92.4582 154.03 91.7278C156.588 78.9194 144.058 66.7235 129.927 69.2764ZM92.4098 101.001C84.158 102.527 79.2745 110.901 81.3093 118.002C81.7005 119.367 82.3474 120.685 83.2753 121.898C89.84 130.482 101.661 129.616 106.531 120.194C106.957 119.37 107.283 118.53 107.516 117.685C109.977 108.746 102.026 99.2225 92.4098 101.001ZM170.593 101.008C162.361 102.479 158.095 110.513 159.933 117.672C160.548 120.065 161.844 122.36 163.902 124.279C169.82 129.801 178.939 128.729 184.164 121.898C185.092 120.683 185.736 119.384 186.128 118.048C188.665 109.389 180.574 99.2246 170.593 101.008ZM132.334 140.975C128.306 141.685 127.005 145.414 129.148 150.107C129.786 151.505 129.786 151.505 130.766 151.515C131.646 151.524 131.846 151.576 132.732 152.023C133.719 152.522 133.719 152.522 134.707 152.023C135.593 151.576 135.793 151.524 136.673 151.515C137.652 151.505 137.652 151.505 138.29 150.107C140.919 144.344 138.062 139.964 132.334 140.975ZM122.001 144.664C118.701 145.544 117.749 149.549 119.842 153.745C120.709 155.483 120.537 155.346 121.586 155.13C122.266 154.99 122.642 154.975 123.107 155.07C124.637 155.381 124.45 155.432 125.098 154.533C125.421 154.086 125.957 153.494 126.29 153.216C126.895 152.711 126.895 152.711 126.495 152.095C125.406 150.415 124.947 148.802 124.844 146.286C124.767 144.392 124.21 144.074 122.001 144.664ZM142.595 146.271C142.491 148.803 142.035 150.412 140.943 152.095C140.544 152.711 140.544 152.711 141.149 153.216C141.482 153.494 142.018 154.086 142.341 154.533C142.989 155.432 142.802 155.381 144.331 155.07C144.797 154.975 145.173 154.99 145.852 155.13C146.902 155.346 146.73 155.483 147.597 153.745C150.043 148.841 148.444 144.697 144.034 144.517L142.669 144.461L142.595 146.271ZM112.969 149.6C108.037 150.876 106.284 156.781 109.617 160.89C110.412 161.869 110.358 161.852 111.153 161.377C112.388 160.639 113.78 160.402 115.403 160.652C115.992 160.743 115.992 160.743 116.141 160.158C116.391 159.174 117.128 157.891 117.927 157.046C118.687 156.242 118.687 156.242 118.169 155.561C117.039 154.074 116.034 151.231 116.025 149.496C116.024 149.332 113.699 149.411 112.969 149.6ZM151.414 149.496C151.404 151.231 150.4 154.074 149.27 155.561C148.752 156.242 148.752 156.242 149.512 157.046C150.311 157.891 151.048 159.174 151.298 160.158C151.447 160.743 151.447 160.743 152.036 160.652C153.659 160.402 155.051 160.639 156.286 161.377C157.08 161.852 157.027 161.869 157.822 160.89C160.6 157.466 159.772 152.01 156.212 150.287C154.684 149.547 151.417 149.009 151.414 149.496ZM128.784 155.505C125.319 157.1 125.004 160.989 127.981 165.436C128.896 166.803 128.896 166.803 129.253 166.247C131.149 163.289 136.29 163.289 138.186 166.247C138.702 167.051 140.779 163.984 141.306 161.639C142.248 157.453 138.119 153.195 135.784 155.945C135.288 156.531 134.678 157.605 134.437 158.319C133.97 159.701 133.469 159.701 133.002 158.319C132.629 157.213 131.842 156.021 131.124 155.473C130.614 155.084 129.671 155.096 128.784 155.505ZM104.185 156.354C97.8905 157.172 96.7406 166.12 102.438 169.946C103.651 170.761 107.113 172.197 107.113 171.886C107.113 171.867 106.999 171.408 106.859 170.867C106.262 168.558 106.885 165.652 108.368 163.832C108.766 163.345 108.766 163.345 107.767 162.302C106.288 160.756 105.487 159.094 105.266 157.113C105.162 156.178 105.221 156.219 104.185 156.354ZM162.294 156.378C162.269 156.453 162.188 156.925 162.114 157.427C161.819 159.414 161.109 160.817 159.618 162.361C158.67 163.341 158.67 163.341 159.069 163.831C160.554 165.652 161.178 168.557 160.58 170.867C160.44 171.408 160.326 171.867 160.326 171.886C160.326 172.197 163.788 170.761 165.001 169.946C170.048 166.556 169.961 159.176 164.845 156.817C164.001 156.428 162.369 156.147 162.294 156.378ZM121.575 157.977C117.571 158.547 116.755 165.047 120.139 169.413C120.431 169.791 120.71 170.156 120.757 170.224C120.808 170.297 121.041 170.212 121.33 170.015C122.961 168.903 124.934 168.661 127.915 169.209C128.014 169.227 128.554 167.897 128.468 167.848C125.226 165.995 123.376 162.707 123.563 159.129C123.617 158.091 123.617 158.091 123.162 158.016C122.912 157.975 122.622 157.925 122.517 157.906C122.412 157.886 121.988 157.919 121.575 157.977ZM144.858 157.908C144.788 157.927 144.527 157.976 144.277 158.017C143.822 158.091 143.822 158.091 143.876 159.129C144.063 162.707 142.213 165.995 138.971 167.848C138.885 167.897 139.425 169.227 139.524 169.209C142.505 168.661 144.478 168.903 146.109 170.015C146.398 170.212 146.631 170.297 146.682 170.224C146.729 170.156 147.007 169.791 147.3 169.413C149.787 166.204 150.09 160.765 147.888 158.848C147.207 158.255 145.518 157.731 144.858 157.908ZM113.453 163.175C108.546 164.481 108.202 171.187 112.823 175.481C116.162 178.584 112.901 177.856 109.263 174.687C108.277 173.827 108.277 173.827 107.526 173.905C104.456 174.222 99.728 171.538 97.2068 168.047C96.6251 167.241 96.6251 167.241 96.2551 167.669C91.0133 173.729 88.03 179.155 84.6326 188.806C83.7918 191.196 83.7834 191.009 84.7398 191.189C101.064 194.254 111.835 211.453 112.17 234.992C112.243 240.132 112.114 239.824 113.922 239.155C115.026 238.746 115.249 238.435 116.151 236.059C120.279 225.185 123.754 220.873 129.575 219.401C130.78 219.096 130.745 219.119 130.848 218.576C131.08 217.35 132.389 214.14 132.861 213.639C133.998 212.432 135.904 214.954 136.591 218.576C136.694 219.119 136.659 219.096 137.864 219.401C143.685 220.873 147.16 225.185 151.288 236.059C152.19 238.435 152.413 238.746 153.517 239.155C155.325 239.824 155.195 240.132 155.269 234.992C155.604 211.452 166.374 194.254 182.699 191.189C183.655 191.009 183.647 191.196 182.806 188.806C179.409 179.155 176.426 173.729 171.184 167.669C170.814 167.241 170.814 167.241 170.232 168.047C167.711 171.538 162.983 174.222 159.913 173.905C159.162 173.827 159.162 173.827 158.176 174.687C154.538 177.856 151.277 178.584 154.616 175.481C157.95 172.383 158.791 169.184 157.128 165.932C155.811 163.354 151.746 161.81 151.488 163.788C151.075 166.953 149.81 169.388 147.904 170.685C147.349 171.062 147.349 171.062 147.822 171.909C148.911 173.856 148.373 176.388 146.465 178.295C144.851 179.908 143.555 180.014 145.036 178.411C146.979 176.309 146.843 173.746 144.757 173.134C143.509 172.767 139.575 172.923 139.575 173.339C139.575 174.284 138.311 177.192 137.56 177.973C136.629 178.941 136.434 178.521 137.075 176.929C139.04 172.053 137.402 167.405 133.719 167.405C130.037 167.405 128.399 172.053 130.364 176.929C131.005 178.521 130.81 178.941 129.879 177.973C129.128 177.192 127.864 174.284 127.864 173.339C127.864 172.923 123.929 172.767 122.682 173.134C120.595 173.746 120.46 176.309 122.403 178.411C123.884 180.014 122.588 179.908 120.974 178.295C119.066 176.388 118.528 173.856 119.617 171.909C120.09 171.062 120.09 171.062 119.535 170.685C117.631 169.389 116.364 166.952 115.952 163.796C115.884 163.277 115.812 163.132 115.596 163.074C115.148 162.955 114.091 163.005 113.453 163.175ZM78.3618 194.341C70.85 195.52 71.9798 203.703 80.6012 210.559C83.3379 212.736 83.3876 212.766 87.7634 214.996C103.894 223.216 108.132 228.266 108.132 239.279C108.132 240.035 108.675 240.267 109.437 239.834C109.574 239.756 109.552 234.488 109.403 231.673C108.703 218.454 103.347 206.098 95.671 199.989C90.5932 195.948 83.294 193.566 78.3618 194.341ZM185.213 194.299C171.283 195.766 160.691 208.948 158.356 227.723C157.985 230.711 157.723 239.674 158.002 239.834C158.764 240.267 159.307 240.035 159.307 239.279C159.307 228.265 163.542 223.217 179.676 214.996C184.051 212.766 184.101 212.736 186.838 210.559C197.17 202.344 196.25 193.137 185.213 194.299ZM72.9051 211.121C67.0454 217.438 65.3186 230.486 69.1105 239.793C74.4329 252.859 91.8474 265.005 107.177 266.346C114.124 266.953 115.701 266.849 115.036 265.826C113.947 264.15 110.212 257.353 108.029 253.075C107.464 251.967 106.587 250.41 106.08 249.613C103.804 246.036 103.637 243.437 105.553 241.411C106.688 240.211 105.975 234.537 104.259 231.105C103.41 229.408 103.469 229.426 102.661 230.635C93.3738 244.537 74.4253 233.898 74.8093 214.997C74.868 212.113 74.868 212.113 74.0641 211.475C73.1258 210.732 73.2356 210.765 72.9051 211.121ZM193.347 211.484C192.571 212.113 192.571 212.113 192.629 214.997C193.014 233.898 174.065 244.536 164.777 230.635C163.97 229.426 164.029 229.408 163.18 231.105C161.464 234.537 160.751 240.211 161.886 241.411C163.802 243.437 163.635 246.036 161.359 249.613C160.852 250.41 159.975 251.967 159.41 253.075C157.227 257.353 153.492 264.15 152.403 265.826C151.734 266.856 151.547 266.806 155.459 266.625C163.617 266.249 167.011 265.503 173.629 262.635C197.556 252.269 207.286 230.247 195.677 212.732C194.242 210.567 194.383 210.644 193.347 211.484ZM78.0317 214.52C76.7979 218.57 79.2403 226.203 83.0226 230.118C84.197 231.333 84.2675 231.341 83.7983 230.202C81.9125 225.619 82.6039 219.936 85.2669 218.132C85.7594 217.798 84.8601 217.238 81.3982 215.725C80.5931 215.372 79.5491 214.894 79.0782 214.661C78.0618 214.158 78.139 214.169 78.0317 214.52ZM188.523 214.578C188.173 214.758 187.085 215.263 186.104 215.7C182.321 217.382 181.664 217.788 182.17 218.131C184.835 219.936 185.527 225.616 183.641 230.202C183.171 231.341 183.242 231.333 184.416 230.118C188.198 226.203 190.641 218.57 189.407 214.52C189.301 214.174 189.307 214.174 188.523 214.578ZM132.213 222.302C127.341 223.164 122.782 228.385 119.247 237.15C117.474 241.545 116.552 242.18 110.678 243.064C106.812 243.646 106.557 244.577 109.214 248.411C111.135 251.183 113.481 255.013 115.959 259.419C120.388 267.296 122.022 269.909 124.274 272.715C132.041 282.395 138.68 280.807 146.916 267.301C148.537 264.642 148.74 264.292 151.48 259.419C153.958 255.013 156.304 251.183 158.225 248.411C160.882 244.577 160.627 243.646 156.761 243.064C150.887 242.18 149.965 241.545 148.192 237.15C143.93 226.583 138.184 221.244 132.213 222.302ZM119.271 243.14C118.081 243.753 117.652 244.93 118.206 246.062C118.645 246.958 119.855 247.405 120.599 246.945C120.804 246.82 120.958 246.866 121.584 247.245C123.82 248.597 124.673 248.335 123.978 246.508C122.917 243.721 120.918 242.291 119.271 243.14ZM145.98 243.196C144.615 243.882 142.869 246.814 143.297 247.703C143.607 248.345 144.215 248.237 145.855 247.245C146.481 246.866 146.635 246.82 146.84 246.945C147.584 247.405 148.794 246.958 149.233 246.062C150.181 244.124 147.984 242.188 145.98 243.196Z" fill="#22110C"/>
<path d="M144.858 157.908C144.788 157.927 144.527 157.976 144.277 158.017C143.822 158.091 143.822 158.091 143.876 159.129C144.063 162.707 142.213 165.995 138.971 167.848C138.885 167.897 139.425 169.227 139.524 169.209C142.505 168.661 144.478 168.903 146.109 170.015C146.398 170.212 146.631 170.297 146.682 170.224C146.729 170.156 147.007 169.791 147.3 169.413C149.787 166.204 150.09 160.765 147.888 158.848C147.207 158.255 145.518 157.731 144.858 157.908Z" fill="#2430F0"/>
<path d="M162.294 156.378C162.269 156.453 162.188 156.925 162.114 157.427C161.819 159.414 161.109 160.817 159.618 162.361C158.67 163.341 158.67 163.341 159.069 163.831C160.554 165.652 161.178 168.557 160.58 170.867C160.44 171.408 160.326 171.867 160.326 171.886C160.326 172.197 163.787 170.761 165 169.946C170.048 166.556 169.961 159.176 164.845 156.817C164.001 156.428 162.369 156.147 162.294 156.378Z" fill="#2430F0"/>
<path d="M151.414 149.496C151.405 151.231 150.4 154.074 149.27 155.561C148.752 156.242 148.752 156.242 149.512 157.046C150.311 157.891 151.048 159.174 151.298 160.158C151.447 160.743 151.447 160.743 152.036 160.652C153.659 160.402 155.051 160.639 156.286 161.377C157.08 161.852 157.027 161.869 157.822 160.89C160.6 157.466 159.772 152.01 156.212 150.287C154.684 149.547 151.417 149.009 151.414 149.496Z" fill="#2430F0"/>
<path d="M142.595 146.271C142.491 148.803 142.035 150.411 140.944 152.095C140.544 152.711 140.544 152.711 141.149 153.216C141.482 153.494 142.018 154.086 142.341 154.533C142.989 155.432 142.802 155.381 144.331 155.07C144.797 154.975 145.173 154.99 145.852 155.13C146.902 155.346 146.73 155.483 147.596 153.745C150.043 148.841 148.444 144.697 144.034 144.517L142.669 144.461L142.595 146.271Z" fill="#2430F0"/>
<path d="M132.334 140.975C128.306 141.686 127.005 145.414 129.148 150.107C129.786 151.505 129.786 151.505 130.766 151.515C131.646 151.524 131.846 151.576 132.732 152.023C133.719 152.522 133.719 152.522 134.707 152.023C135.593 151.576 135.793 151.524 136.673 151.515C137.652 151.505 137.652 151.505 138.29 150.107C140.919 144.344 138.062 139.964 132.334 140.975Z" fill="#2430F0"/>
<path d="M128.784 155.505C125.319 157.1 125.004 160.989 127.981 165.436C128.896 166.803 128.896 166.803 129.253 166.246C131.149 163.289 136.29 163.289 138.186 166.246C138.702 167.051 140.779 163.984 141.307 161.639C142.248 157.453 138.119 153.195 135.784 155.945C135.288 156.531 134.678 157.605 134.437 158.319C133.97 159.701 133.469 159.701 133.002 158.319C132.629 157.213 131.842 156.021 131.124 155.473C130.614 155.084 129.67 155.096 128.784 155.505Z" fill="#2430F0"/>
<path d="M121.575 157.977C117.571 158.547 116.755 165.047 120.139 169.413C120.431 169.791 120.71 170.156 120.757 170.224C120.808 170.297 121.041 170.212 121.33 170.016C122.961 168.903 124.934 168.661 127.915 169.209C128.014 169.227 128.554 167.897 128.468 167.848C125.226 165.995 123.376 162.707 123.563 159.129C123.617 158.092 123.617 158.092 123.162 158.016C122.912 157.975 122.622 157.925 122.517 157.906C122.412 157.886 121.988 157.919 121.575 157.977Z" fill="#2430F0"/>
<path d="M112.969 149.6C108.037 150.876 106.284 156.781 109.617 160.89C110.412 161.869 110.358 161.852 111.153 161.377C112.388 160.639 113.78 160.402 115.403 160.652C115.992 160.743 115.992 160.743 116.141 160.158C116.391 159.174 117.128 157.891 117.927 157.046C118.687 156.242 118.687 156.242 118.169 155.561C117.039 154.074 116.034 151.231 116.025 149.496C116.024 149.332 113.699 149.411 112.969 149.6Z" fill="#2430F0"/>
<path d="M122.001 144.664C118.701 145.544 117.749 149.549 119.842 153.745C120.709 155.483 120.537 155.346 121.586 155.13C122.266 154.99 122.642 154.975 123.108 155.07C124.637 155.381 124.45 155.432 125.098 154.533C125.421 154.087 125.957 153.494 126.29 153.216C126.895 152.711 126.895 152.711 126.495 152.095C125.406 150.415 124.947 148.802 124.844 146.286C124.767 144.392 124.21 144.074 122.001 144.664Z" fill="#2430F0"/>
<path d="M104.185 156.354C97.8905 157.172 96.7406 166.12 102.438 169.946C103.651 170.761 107.113 172.197 107.113 171.886C107.113 171.867 106.999 171.408 106.859 170.867C106.262 168.558 106.885 165.652 108.368 163.833C108.766 163.345 108.766 163.345 107.767 162.302C106.288 160.756 105.487 159.094 105.266 157.113C105.162 156.178 105.221 156.219 104.185 156.354Z" fill="#2430F0"/>
<path d="M185.213 194.299C171.283 195.766 160.691 208.948 158.356 227.723C157.985 230.711 157.723 239.674 158.002 239.834C158.764 240.267 159.307 240.035 159.307 239.279C159.307 228.265 163.542 223.217 179.675 214.996C184.051 212.766 184.101 212.736 186.838 210.559C197.17 202.344 196.25 193.137 185.213 194.299Z" fill="#2BE1B7"/>
<path d="M193.347 211.484C192.571 212.113 192.571 212.113 192.629 214.997C193.014 233.898 174.065 244.536 164.777 230.635C163.97 229.426 164.029 229.408 163.18 231.105C161.464 234.537 160.751 240.211 161.886 241.411C163.802 243.437 163.635 246.036 161.359 249.613C160.852 250.41 159.975 251.967 159.41 253.075C157.227 257.353 153.492 264.15 152.403 265.826C151.734 266.855 151.547 266.806 155.459 266.625C163.617 266.249 167.011 265.503 173.629 262.635C197.556 252.269 207.286 230.247 195.677 212.732C194.242 210.567 194.383 210.644 193.347 211.484Z" fill="#2BE1B7"/>
<path d="M72.9052 211.121C67.0455 217.438 65.3186 230.486 69.1106 239.793C74.433 252.859 91.8474 265.005 107.177 266.346C114.124 266.953 115.701 266.849 115.036 265.826C113.947 264.15 110.212 257.353 108.029 253.075C107.464 251.967 106.587 250.41 106.08 249.613C103.804 246.036 103.637 243.437 105.553 241.411C106.688 240.211 105.975 234.537 104.259 231.105C103.41 229.409 103.469 229.426 102.661 230.635C93.3741 244.537 74.4253 233.898 74.8094 214.997C74.8681 212.113 74.8681 212.113 74.0642 211.475C73.1258 210.732 73.2357 210.765 72.9052 211.121Z" fill="#2BE1B7"/>
<path d="M78.3619 194.341C70.85 195.52 71.9798 203.703 80.6012 210.559C83.338 212.736 83.3876 212.766 87.7634 214.996C103.894 223.216 108.132 228.266 108.132 239.279C108.132 240.035 108.675 240.267 109.437 239.834C109.574 239.756 109.552 234.488 109.403 231.673C108.703 218.454 103.348 206.098 95.671 199.989C90.5932 195.948 83.2941 193.566 78.3619 194.341Z" fill="#2BE1B7"/>
<path d="M113.453 163.175C108.546 164.481 108.202 171.187 112.823 175.481C116.162 178.584 112.9 177.856 109.263 174.687C108.277 173.827 108.277 173.827 107.526 173.905C104.456 174.222 99.728 171.538 97.2068 168.047C96.6251 167.241 96.6251 167.241 96.2551 167.669C91.0133 173.729 88.03 179.155 84.6326 188.806C83.7918 191.196 83.7834 191.009 84.7398 191.19C101.064 194.254 111.835 211.453 112.17 234.992C112.243 240.132 112.114 239.824 113.922 239.155C115.025 238.746 115.249 238.435 116.151 236.059C120.279 225.185 123.753 220.873 129.575 219.401C130.78 219.096 130.745 219.119 130.848 218.576C131.08 217.35 132.389 214.14 132.861 213.639C133.998 212.432 135.904 214.954 136.591 218.576C136.694 219.119 136.659 219.096 137.864 219.401C143.685 220.873 147.16 225.185 151.288 236.059C152.19 238.435 152.413 238.746 153.517 239.155C155.325 239.824 155.195 240.132 155.269 234.992C155.604 211.452 166.374 194.254 182.699 191.19C183.655 191.009 183.647 191.196 182.806 188.806C179.409 179.155 176.426 173.729 171.184 167.669C170.814 167.241 170.814 167.241 170.232 168.047C167.711 171.538 162.983 174.222 159.913 173.905C159.162 173.827 159.162 173.827 158.176 174.687C154.538 177.856 151.277 178.584 154.616 175.481C157.95 172.383 158.791 169.184 157.128 165.932C155.811 163.354 151.746 161.81 151.488 163.788C151.075 166.953 149.81 169.388 147.904 170.685C147.349 171.062 147.349 171.062 147.822 171.909C148.911 173.856 148.373 176.388 146.465 178.295C144.851 179.908 143.555 180.014 145.036 178.411C146.979 176.309 146.843 173.746 144.757 173.134C143.509 172.767 139.575 172.923 139.575 173.339C139.575 174.284 138.311 177.192 137.56 177.973C136.629 178.941 136.434 178.521 137.075 176.929C139.04 172.053 137.402 167.405 133.719 167.405C130.037 167.405 128.399 172.053 130.364 176.929C131.005 178.521 130.81 178.941 129.879 177.973C129.128 177.192 127.864 174.284 127.864 173.339C127.864 172.923 123.929 172.767 122.682 173.134C120.595 173.746 120.46 176.309 122.403 178.411C123.884 180.014 122.588 179.908 120.974 178.295C119.066 176.388 118.528 173.856 119.617 171.909C120.09 171.062 120.09 171.062 119.535 170.685C117.631 169.389 116.364 166.952 115.952 163.796C115.884 163.277 115.812 163.132 115.596 163.074C115.148 162.955 114.091 163.005 113.453 163.175Z" fill="#2430F0"/>
<path fill-rule="evenodd" clip-rule="evenodd" d="M132.213 222.302C127.341 223.164 122.782 228.385 119.247 237.15C117.474 241.545 116.552 242.18 110.678 243.064C106.812 243.646 106.557 244.577 109.214 248.411C111.135 251.183 113.481 255.013 115.959 259.419C120.387 267.296 122.022 269.909 124.274 272.715C132.041 282.395 138.68 280.807 146.916 267.301C148.537 264.642 148.74 264.292 151.48 259.419C153.958 255.013 156.304 251.183 158.225 248.411C160.882 244.577 160.627 243.646 156.761 243.064C150.887 242.18 149.965 241.545 148.192 237.15C143.93 226.583 138.184 221.244 132.213 222.302ZM118.206 246.062C117.652 244.93 118.081 243.753 119.271 243.14C120.918 242.291 122.917 243.721 123.978 246.508C124.673 248.335 123.82 248.597 121.584 247.245C120.958 246.866 120.804 246.82 120.599 246.945C119.855 247.405 118.645 246.958 118.206 246.062ZM143.298 247.703C142.869 246.814 144.615 243.882 145.979 243.196C147.984 242.188 150.181 244.124 149.233 246.062C148.794 246.958 147.584 247.405 146.84 246.945C146.635 246.82 146.481 246.866 145.855 247.245C144.215 248.237 143.607 248.345 143.298 247.703Z" fill="#F2C79C"/>
<path fill-rule="evenodd" clip-rule="evenodd" d="M107.516 117.685C105.822 111.373 100.546 106.401 93.3765 107.727C87.6881 108.779 82.6333 113.102 81.3093 118.002C81.7005 119.367 82.3474 120.685 83.2753 121.898C89.84 130.482 101.661 129.616 106.531 120.195C106.957 119.37 107.283 118.53 107.516 117.685Z" fill="#2430F0"/>
<path fill-rule="evenodd" clip-rule="evenodd" d="M113.996 93.9224C113.752 93.1985 113.559 92.4703 113.415 91.741C114.898 84.153 122.227 77.5685 130.894 76.0025C142.494 73.9069 152.048 81.7658 154.03 91.7278C153.884 92.4582 153.689 93.1906 153.442 93.9224C147.604 111.253 119.835 111.253 113.996 93.9224Z" fill="#2430F0"/>
<path d="M170.593 101.008C162.361 102.479 158.095 110.513 159.933 117.672C161.149 112.874 165.901 108.745 171.56 107.734C178.978 106.409 184.385 111.698 186.128 118.048C188.665 109.389 180.574 99.2246 170.593 101.008Z" fill="#2430F0"/>
<path d="M113.415 91.7411C114.898 84.1531 122.227 77.5686 130.894 76.0027C142.494 73.907 152.048 81.7659 154.03 91.7279C156.588 78.9195 144.058 66.7236 129.927 69.2765C118.754 71.2953 111.411 81.6283 113.415 91.7411Z" fill="#2430F0"/>
<path d="M93.3765 107.727C100.546 106.401 105.822 111.373 107.516 117.685C109.977 108.746 102.026 99.2226 92.4098 101.001C84.158 102.527 79.2744 110.901 81.3092 118.002C82.6333 113.101 87.6879 108.779 93.3765 107.727Z" fill="#2430F0"/>
<path d="M163.902 124.279C169.82 129.801 178.939 128.729 184.164 121.898C185.092 120.683 185.736 119.384 186.128 118.049C184.385 111.698 178.978 106.409 171.56 107.734C165.901 108.745 161.149 112.874 159.933 117.672C160.548 120.065 161.844 122.36 163.902 124.279Z" fill="#2430F0"/>
<path fill-rule="evenodd" clip-rule="evenodd" d="M116.492 84.9045C119.73 80.457 125.008 77.0682 130.905 76.0027C139.73 74.4083 147.371 78.5758 151.395 85.0476C152.162 84.2843 152.863 83.5086 153.442 82.7487C150.45 73.8863 140.654 67.3405 129.938 69.2765C122.535 70.6141 116.813 75.6015 114.378 81.7565C114.905 82.7609 115.649 83.8385 116.492 84.9045Z" fill="#F2C79C"/>
<path d="M116.492 84.9044C119.367 88.5402 123.392 92.0411 123.877 92.0411C124.244 92.0411 126.273 90.0918 128.381 88.0674C130.657 85.8807 133.025 83.6063 133.488 83.6063C133.933 83.6063 135.843 85.715 137.752 87.8237C139.662 89.9324 141.571 92.0411 142.017 92.0411C142.585 92.0411 147.738 88.6863 151.395 85.0475C147.371 78.5757 139.73 74.4082 130.905 76.0025C125.008 77.0681 119.73 80.4569 116.492 84.9044Z" fill="#2BE1B7"/>
<path d="M81.3769 117.646C82.8434 112.894 87.7906 108.753 93.3415 107.727C97.586 106.942 101.167 108.364 103.734 110.966C104.211 109.222 104.556 107.14 104.516 105.391C101.635 102.075 97.2158 100.106 92.3748 101.001C84.3177 102.491 79.4718 110.509 81.1415 117.497C81.2189 117.547 81.2975 117.597 81.3769 117.646Z" fill="#2BE1B7"/>
<path d="M81.3768 117.646C84.4986 119.596 88.7544 120.448 89.8758 119.801C90.7438 119.3 91.1457 116.775 91.2401 114.174C91.312 112.197 91.3763 110.427 91.7611 110.101C92.1864 109.74 94.2491 110.913 96.4349 112.157C98.8305 113.519 101.536 114.707 102.236 114.312C102.735 114.03 103.227 112.818 103.734 110.966C101.167 108.365 97.5857 106.942 93.3412 107.727C87.7906 108.753 82.8434 112.894 81.3768 117.646Z" fill="#2BE1B7"/>
<path fill-rule="evenodd" clip-rule="evenodd" d="M160.881 108.659C161.072 110.044 165.082 117.472 166.164 117.724C166.75 117.86 168.754 116.446 170.591 115.15C172.145 114.054 173.579 113.042 173.929 113.128C174.249 113.207 174.857 114.156 175.569 115.265C176.56 116.808 177.751 118.663 178.639 118.92C179.791 119.252 184.377 116.867 186.621 115.267C186.967 107.373 179.553 99.413 170.627 101.008C165.966 101.841 162.577 104.778 160.847 108.469C160.86 108.527 160.871 108.59 160.881 108.659Z" fill="#2BE1B7"/>
<path d="M188.523 214.578C188.173 214.758 187.085 215.263 186.104 215.7C182.321 217.382 181.664 217.788 182.17 218.131C184.835 219.936 185.527 225.616 183.641 230.202C183.171 231.341 183.242 231.333 184.416 230.118C188.198 226.203 190.641 218.57 189.407 214.52C189.301 214.174 189.307 214.174 188.523 214.578Z" fill="#F1F1F1"/>
<path d="M78.0317 214.52C76.7979 218.57 79.2403 226.203 83.0226 230.118C84.1969 231.333 84.2675 231.341 83.7982 230.202C81.9125 225.619 82.6039 219.936 85.2669 218.132C85.7593 217.798 84.86 217.238 81.3982 215.725C80.593 215.372 79.549 214.894 79.0781 214.661C78.0617 214.158 78.139 214.169 78.0317 214.52Z" fill="#F1F1F1"/>
<path d="M180.234 226.056C180.234 225.638 179.863 225.301 179.406 225.301C178.949 225.301 178.579 225.638 178.579 226.056C178.579 226.472 178.949 226.811 179.406 226.811C179.863 226.811 180.234 226.472 180.234 226.056Z" fill="#F1F1F1"/>
<path opacity="0.2" fill-rule="evenodd" clip-rule="evenodd" d="M152.896 95.3513C145.813 103.152 131.736 107.445 115.651 97.5109C123.604 110.739 146.577 110.019 152.896 95.3513ZM104.501 123.213C97.0461 126.297 86.9241 123.139 81.9794 119.777C82.3267 120.51 82.7573 121.22 83.2756 121.898C89.0534 129.453 98.9025 129.688 104.501 123.213ZM185.316 120.08C181.03 124.066 172.351 126.9 162.214 122.405C162.706 123.06 163.267 123.688 163.902 124.279C169.821 129.801 178.939 128.729 184.164 121.898C184.613 121.31 184.996 120.702 185.316 120.08Z" fill="#22110C"/>
<path d="M113.415 91.7411C114.898 84.1531 122.227 77.5686 130.894 76.0027C142.494 73.907 152.048 81.7659 154.03 91.7279C156.588 78.9196 144.058 66.7236 129.927 69.2765C118.754 71.2953 111.411 81.6285 113.415 91.7411Z" fill="#2430F0"/>
<path fill-rule="evenodd" clip-rule="evenodd" d="M116.492 84.9045C119.73 80.457 125.008 77.0682 130.905 76.0027C139.73 74.4083 147.371 78.5758 151.395 85.0476C152.162 84.2843 152.863 83.5087 153.442 82.7488C150.45 73.8863 140.654 67.3405 129.938 69.2765C122.535 70.6141 116.813 75.6015 114.378 81.7565C114.905 82.7609 115.649 83.8385 116.492 84.9045Z" fill="#2BE1B7"/>
<g opacity="0.2">
<g style="mix-blend-mode:hard-light">
<path fill-rule="evenodd" clip-rule="evenodd" d="M138.824 143.705C137.893 141.555 135.573 140.403 132.334 140.975C130.422 141.312 129.125 142.33 128.518 143.808C129.794 142.766 132.052 142.425 133.737 142.39C135.365 142.424 137.528 142.743 138.824 143.705ZM124.647 145.066C123.07 145.305 120.189 146.064 118.937 147.81C119.355 146.25 120.402 145.09 122.001 144.664C123.602 144.237 124.335 144.286 124.647 145.066ZM116.044 149.91C116.032 149.767 116.026 149.628 116.025 149.496C116.024 149.332 113.699 149.411 112.969 149.6C110.469 150.247 108.786 152.083 108.168 154.271C109.84 151.933 112.953 149.984 116.044 149.91ZM98.7593 162.647C99.4981 160.162 102.251 157.569 104.489 157.569C104.806 157.569 105.081 157.552 105.321 157.521C105.3 157.387 105.282 157.25 105.266 157.113C105.261 157.067 105.257 157.023 105.252 156.981C105.212 156.614 105.192 156.425 105.086 156.34C104.973 156.25 104.764 156.278 104.331 156.335C104.285 156.341 104.236 156.348 104.185 156.354C100.808 156.793 98.911 159.573 98.7593 162.647ZM132.323 156.892C131.025 155.895 129.104 155.501 126.406 157.733C126.862 156.786 127.656 156.024 128.784 155.505C129.67 155.096 130.614 155.084 131.124 155.473C131.531 155.784 131.96 156.301 132.323 156.892ZM140.672 157.419C139.507 155.295 137.278 154.186 135.784 155.945C135.567 156.202 135.327 156.553 135.106 156.927C136.341 155.954 138.151 155.519 140.672 157.419ZM123.584 158.68C123.603 158.09 123.539 158.079 123.162 158.016C122.912 157.975 122.622 157.925 122.517 157.906C122.412 157.886 121.988 157.919 121.575 157.977C119.608 158.257 118.411 159.968 118.102 162.154C118.881 159.653 121.816 158.485 123.584 158.68ZM151.561 163.501C152.172 161.978 155.881 163.492 157.128 165.932C157.475 166.61 157.713 167.286 157.842 167.958C156.886 165.302 153.877 164.084 151.561 163.501ZM139.572 173.426C139.574 173.395 139.575 173.366 139.575 173.339C139.575 172.923 143.509 172.767 144.757 173.134C145.349 173.307 145.783 173.638 146.058 174.07C144.864 173.028 142.266 173.221 139.572 173.426ZM130.53 169.12C131.254 168.053 132.344 167.405 133.719 167.405C135.069 167.405 136.144 168.029 136.867 169.06C135.966 168.364 134.731 168.007 133.737 167.914C132.714 168.009 131.437 168.384 130.53 169.12ZM121.337 174.142C121.609 173.675 122.058 173.317 122.681 173.134C123.929 172.767 127.864 172.923 127.864 173.339C127.864 173.365 127.864 173.394 127.867 173.423C125.124 173.215 122.488 173.023 121.337 174.142ZM115.905 163.503C113.537 164.1 110.448 165.361 109.569 168.144C109.711 165.795 111.022 163.822 113.453 163.175C114.091 163.005 115.148 162.955 115.596 163.074C115.765 163.119 115.845 163.217 115.905 163.503ZM148.535 147.809C147.997 145.883 146.431 144.615 144.034 144.517L142.669 144.461L142.645 145.04C144.173 145.247 147.234 145.994 148.535 147.809ZM159.232 154.169C158.788 152.486 157.757 151.035 156.212 150.287C154.684 149.547 151.417 149.009 151.414 149.496C151.413 149.628 151.407 149.766 151.395 149.91C154.453 149.968 157.537 151.869 159.232 154.169ZM168.724 162.681C168 160.185 165.233 157.569 162.984 157.569C162.645 157.569 162.352 157.549 162.101 157.514C162.105 157.485 162.11 157.456 162.114 157.427C162.188 156.925 162.269 156.453 162.294 156.378C162.369 156.147 164.001 156.428 164.845 156.817C167.298 157.948 168.595 160.234 168.724 162.681ZM149.297 161.937C149.13 160.638 148.665 159.524 147.888 158.848C147.207 158.255 145.518 157.731 144.858 157.908C144.788 157.927 144.527 157.976 144.277 158.017C143.9 158.079 143.835 158.09 143.855 158.683C145.568 158.476 148.415 159.57 149.297 161.937Z" fill="white"/>
</g>
</g>
<g style="mix-blend-mode:hard-light">
<path fill-rule="evenodd" clip-rule="evenodd" d="M191.953 195.425C186.937 195.052 181.087 196.696 176.86 199.303C170.941 202.954 161.839 212.648 159.929 222.027C159.401 224.621 159.005 225.469 158.711 225.283C161.628 207.813 171.895 195.701 185.213 194.299C188.217 193.983 190.471 194.435 191.953 195.425Z" fill="white" fill-opacity="0.4"/>
</g>
<g style="mix-blend-mode:hard-light">
<path fill-rule="evenodd" clip-rule="evenodd" d="M75.2259 195.544C80.372 194.981 86.5308 196.652 90.9313 199.366C96.8508 203.017 105.953 212.711 107.862 222.09C108.162 223.561 108.419 224.47 108.639 224.948C106.789 214.384 102.025 205.047 95.671 199.989C90.5932 195.948 83.294 193.566 78.3619 194.341C77.0583 194.546 76.0151 194.961 75.2259 195.544Z" fill="white" fill-opacity="0.4"/>
</g>
<g style="mix-blend-mode:hard-light">
<path fill-rule="evenodd" clip-rule="evenodd" d="M121.168 232.928C125.33 228.401 130.664 227.63 133.514 227.63C136.476 227.63 142.346 228.575 146.584 233.549C142.538 225.386 137.462 221.371 132.213 222.302C128.183 223.016 124.367 226.711 121.168 232.928Z" fill="white" fill-opacity="0.4"/>
</g>
<path opacity="0.2" fill-rule="evenodd" clip-rule="evenodd" d="M189.731 216.959C187.827 217.771 185.695 218.595 183.394 219.421C183.05 218.889 182.641 218.449 182.17 218.131C181.664 217.788 182.322 217.382 186.105 215.7C187.085 215.263 188.173 214.758 188.523 214.578L188.537 214.571C189.022 214.32 189.2 214.228 189.291 214.282C189.343 214.312 189.368 214.39 189.406 214.515L189.407 214.52C189.625 215.235 189.728 216.061 189.731 216.959ZM77.7117 216.752C79.6352 217.613 81.7806 218.486 84.0879 219.357C84.4227 218.853 84.8167 218.437 85.2671 218.132C85.7598 217.799 84.8603 217.238 81.3986 215.725C80.5934 215.372 79.5494 214.894 79.0785 214.661C79.013 214.629 78.9521 214.598 78.8953 214.571C78.3829 214.316 78.2127 214.231 78.1333 214.283C78.0937 214.309 78.0766 214.368 78.0509 214.457C78.0452 214.476 78.0391 214.497 78.0321 214.52C77.8312 215.18 77.7277 215.935 77.7117 216.752Z" fill="#22110C"/>
<path opacity="0.2" fill-rule="evenodd" clip-rule="evenodd" d="M105.238 248.148C104.831 252.467 106.329 257.298 107.02 259.527C107.138 259.906 107.232 260.211 107.29 260.425C107.783 262.254 102.422 265.147 82.7596 256.284C90.0196 261.749 98.902 265.622 107.177 266.346C114.124 266.953 115.701 266.849 115.036 265.826C113.946 264.15 110.211 257.353 108.029 253.075C107.464 251.967 106.587 250.41 106.08 249.613C105.757 249.106 105.476 248.617 105.238 248.148Z" fill="#22110C"/>
<path opacity="0.2" fill-rule="evenodd" clip-rule="evenodd" d="M184.8 256.245C165.067 265.155 159.69 262.257 160.184 260.425C160.241 260.211 160.336 259.907 160.453 259.527C161.148 257.288 162.655 252.423 162.23 248.09C161.986 248.577 161.695 249.084 161.359 249.613C160.852 250.41 159.975 251.967 159.41 253.075C157.227 257.353 153.493 264.15 152.403 265.826C152.16 266.2 151.981 266.43 152.038 266.565C152.137 266.803 152.965 266.741 155.459 266.625C163.618 266.249 167.011 265.503 173.629 262.636C177.796 260.83 181.532 258.673 184.8 256.245Z" fill="#22110C"/>
<path opacity="0.2" fill-rule="evenodd" clip-rule="evenodd" d="M114.846 257.463C119.148 264.343 120.891 266.819 123.243 269.467C131.846 279.154 139.199 277.565 148.321 264.048C150.03 261.518 150.316 261.077 152.952 256.843C152.468 257.675 151.976 258.537 151.48 259.419C148.74 264.292 148.537 264.642 146.916 267.301C138.68 280.807 132.041 282.395 124.274 272.715C122.022 269.909 120.387 267.296 115.959 259.419C115.584 258.753 115.213 258.101 114.846 257.463Z" fill="#22110C"/>
<path d="M133.641 210.193C132.05 210.193 130.013 221.398 129.122 221.398L127.276 223.097L133.641 221.398L140.961 223.538C140.176 222.824 138.491 221.398 138.033 221.398C137.46 221.398 135.232 210.193 133.641 210.193Z" fill="black" fill-opacity="0.2"/>
<path d="M123.075 180.104C122.184 180.104 119.192 178.027 119.192 174.942C119.617 174.166 120.465 172.953 120.465 174.313C120.465 176.012 122.375 178.216 122.884 178.719C123.393 179.223 123.966 180.104 123.075 180.104Z" fill="black" fill-opacity="0.2"/>
<path d="M106.017 174.942C102.388 174.942 97.6784 170.221 95.2594 167.011L96.7235 165.752L100.033 170.473L107.544 172.676L109.008 170.284C109.369 170.83 110.217 172.148 110.727 173.054C111.363 174.187 113.018 175.068 114.355 176.957C115.691 178.845 110.599 176.516 109.963 176.201C109.454 175.95 108.35 175.173 107.862 174.817C107.862 174.859 107.493 174.942 106.017 174.942Z" fill="black" fill-opacity="0.2"/>
<path d="M117.41 169.214C115.946 167.389 116.455 165.249 116.201 163.423L120.338 170.851L120.02 171.417L120.011 171.413C119.602 171.2 118.573 170.665 117.41 169.214Z" fill="black" fill-opacity="0.2"/>
<path d="M130.459 178.971C129.122 178.656 127.913 175.572 127.913 173.243L129.186 172.676L130.013 175.95C130.268 176.957 131.795 179.286 130.459 178.971Z" fill="black" fill-opacity="0.2"/>
<path d="M144.271 180.104C145.162 180.104 148.154 178.027 148.154 174.942C147.729 174.166 146.881 172.953 146.881 174.313C146.881 176.012 144.971 178.216 144.462 178.719C143.953 179.223 143.38 180.104 144.271 180.104Z" fill="black" fill-opacity="0.2"/>
<path d="M161.329 174.942C164.957 174.942 169.668 170.221 172.086 167.011L170.623 165.752L167.313 170.473L159.802 172.676L158.338 170.284C157.977 170.83 157.128 172.148 156.619 173.054C155.983 174.187 154.328 175.068 152.991 176.957C151.654 178.845 156.746 176.516 157.383 176.201C157.892 175.95 158.996 175.173 159.483 174.817C159.483 174.859 159.853 174.942 161.329 174.942Z" fill="black" fill-opacity="0.2"/>
<path d="M149.936 169.214C151.4 167.389 150.891 165.249 151.145 163.423L147.008 170.851L147.326 171.417L147.335 171.413C147.743 171.2 148.773 170.665 149.936 169.214Z" fill="black" fill-opacity="0.2"/>
<path d="M136.824 179.034C138.16 178.719 139.434 175.572 139.434 173.243L138.16 172.676L137.333 175.95C137.078 176.957 135.487 179.349 136.824 179.034Z" fill="black" fill-opacity="0.2"/>
<path opacity="0.2" d="M118.581 246.451C118.135 246.451 119.535 245.758 119.09 244.562C120.151 244.122 121.814 244.575 123.036 245.632C124.564 246.954 124.564 250.228 124.5 251.612C124.437 252.997 119.026 246.451 118.581 246.451Z" fill="#22110C"/>
<path opacity="0.2" d="M148.771 246.492C149.217 246.492 147.816 245.8 148.262 244.604C147.201 244.163 145.538 244.617 144.315 245.674C142.788 246.996 142.788 250.269 142.852 251.654C142.915 253.039 148.326 246.492 148.771 246.492Z" fill="#22110C"/>
<path opacity="0.2" fill-rule="evenodd" clip-rule="evenodd" d="M90.9915 214.506C98.7393 219.09 106.271 223.547 106.271 229.077C106.271 229.255 106.268 229.431 106.262 229.604C103.744 224.388 98.2814 220.369 87.7367 214.996C83.361 212.766 83.3114 212.736 80.5746 210.559C73.8621 205.222 71.691 199.079 74.6043 196.064C72.6442 203.652 81.9643 209.166 90.9915 214.506Z" fill="#22110C"/>
<path opacity="0.2" fill-rule="evenodd" clip-rule="evenodd" d="M74.726 195.846L74.6659 196.079C73.6944 199.84 75.5144 203.094 78.7212 206.083C81.9286 209.071 86.5087 211.781 91.0241 214.452L91.0275 214.455C94.8989 216.745 98.7224 219.007 101.578 221.389C104.432 223.769 106.335 226.282 106.335 229.077C106.335 229.256 106.332 229.432 106.326 229.605L106.205 229.63C103.696 224.436 98.2526 220.425 87.7077 215.051C85.5209 213.937 84.4114 213.371 83.5073 212.81C82.602 212.25 81.9025 211.696 80.5348 210.609C77.1725 207.934 74.9433 205.057 73.9204 202.463C72.8978 199.871 73.0778 197.552 74.5581 196.02L74.726 195.846ZM74.039 202.418C75.0515 204.985 77.2641 207.846 80.6145 210.51C81.9835 211.599 82.6771 212.148 83.5749 212.705C84.4735 213.261 85.5769 213.825 87.7659 214.94C98.1533 220.233 103.627 224.22 106.205 229.343C106.207 229.255 106.208 229.167 106.208 229.077C106.208 226.342 104.344 223.86 101.496 221.485C98.6489 219.11 94.8339 216.853 90.9587 214.56L90.9544 214.558C86.444 211.889 81.8524 209.173 78.6339 206.173C75.4819 203.236 73.6329 200.015 74.4838 196.289C73.2039 197.772 73.0668 199.953 74.039 202.418Z" fill="#22110C"/>
<path opacity="0.2" fill-rule="evenodd" clip-rule="evenodd" d="M176.545 214.506C168.798 219.09 161.266 223.547 161.266 229.077C161.266 229.155 161.266 229.233 161.267 229.31C163.847 224.237 169.3 220.269 179.649 214.996C184.025 212.766 184.074 212.736 186.811 210.559C193.522 205.223 195.486 199.47 193.015 196.409C194.609 203.82 185.435 209.248 176.545 214.506Z" fill="#22110C"/>
<path opacity="0.2" fill-rule="evenodd" clip-rule="evenodd" d="M193.415 202.655C192.389 205.155 190.212 207.936 186.851 210.609C185.483 211.696 184.784 212.25 183.878 212.812C182.974 213.371 181.865 213.937 179.678 215.053C169.329 220.325 163.894 224.286 161.324 229.339L161.204 229.311C161.203 229.233 161.202 229.155 161.202 229.077C161.202 226.282 163.105 223.769 165.959 221.389C168.815 219.007 172.638 216.745 176.509 214.455L176.513 214.452C180.959 211.822 185.468 209.153 188.668 206.219C191.868 203.284 193.742 200.095 192.953 196.423L193.064 196.37C194.32 197.923 194.441 200.154 193.415 202.655ZM193.131 196.667C194.191 198.162 194.265 200.249 193.298 202.607C192.282 205.082 190.121 207.846 186.771 210.51C185.402 211.599 184.709 212.148 183.811 212.705C182.912 213.261 181.809 213.825 179.62 214.94C169.427 220.134 163.966 224.068 161.329 229.053C161.34 226.326 163.201 223.854 166.041 221.485C168.888 219.11 172.703 216.853 176.578 214.56L176.582 214.558C181.024 211.931 185.544 209.256 188.755 206.31C191.888 203.436 193.788 200.29 193.131 196.667Z" fill="#22110C"/>
<g style="mix-blend-mode:multiply">
<path fill-rule="evenodd" clip-rule="evenodd" d="M71.762 212.472C71.6853 218.71 71.925 245.632 103.916 245.632C104.047 245.632 104.177 245.632 104.306 245.631C103.998 243.974 104.406 242.595 105.526 241.411C106.661 240.211 105.948 234.537 104.232 231.105C103.778 230.196 103.584 229.78 103.377 229.774C103.198 229.768 103.01 230.073 102.635 230.635C93.3475 244.537 74.3988 233.898 74.7828 214.997C74.8415 212.113 74.8415 212.113 74.0376 211.475C73.4519 211.012 73.2746 210.85 73.1437 210.88C73.0649 210.899 73.0029 210.987 72.8787 211.121C72.4879 211.543 72.1156 211.993 71.762 212.472Z" fill="black" fill-opacity="0.2"/>
</g>
<path opacity="0.2" fill-rule="evenodd" clip-rule="evenodd" d="M195.831 213.007C195.879 219.929 195.007 245.758 163.672 245.758C163.464 245.758 163.258 245.757 163.055 245.756C163.408 244.044 163.008 242.625 161.86 241.411C160.725 240.211 161.438 234.536 163.154 231.105C163.608 230.196 163.802 229.78 164.009 229.774C164.188 229.768 164.376 230.073 164.751 230.635C174.039 244.536 192.987 233.898 192.604 214.997C192.562 212.947 192.549 212.353 192.825 211.957C192.937 211.795 193.096 211.666 193.322 211.484C193.742 211.142 193.968 210.928 194.185 210.937C194.502 210.951 194.797 211.446 195.65 212.732C195.711 212.824 195.771 212.916 195.831 213.007Z" fill="#22110C"/>
<path opacity="0.2" fill-rule="evenodd" clip-rule="evenodd" d="M128.153 145.095C127.962 146.527 128.269 148.241 129.122 150.107C129.76 151.505 129.76 151.505 130.739 151.515C131.619 151.524 131.819 151.576 132.705 152.024C133.692 152.522 133.692 152.522 134.68 152.024C135.566 151.576 135.766 151.524 136.646 151.515C137.625 151.505 137.625 151.505 138.263 150.107C139.115 148.24 139.391 146.517 139.18 145.076C138.757 147.407 137.783 150.454 135.599 150.708C134.653 150.905 133.995 150.917 133.768 150.898L133.753 150.897H133.577H133.562C133.335 150.916 132.677 150.905 131.731 150.708C129.553 150.454 128.578 147.423 128.153 145.095ZM140.916 152.095C142.008 150.412 142.464 148.803 142.568 146.271L142.623 144.941C143.041 147.221 142.93 150.415 141.015 153.126C140.519 152.708 140.542 152.672 140.916 152.095ZM148.695 149.95C148.607 151.114 148.24 152.401 147.57 153.745C147.498 153.89 147.433 154.021 147.374 154.14C147.014 154.869 146.873 155.155 146.656 155.232C146.516 155.281 146.345 155.243 146.063 155.181C145.991 155.165 145.913 155.148 145.826 155.13C145.146 154.99 144.771 154.975 144.304 155.07C144.182 155.095 144.071 155.118 143.97 155.139C143.948 155.144 143.927 155.148 143.906 155.153C143.989 154.903 144.638 154.7 145.299 154.492C145.922 154.297 146.555 154.099 146.738 153.855C147.645 152.646 148.337 151.427 148.695 149.95ZM151.387 149.496C151.378 151.231 150.373 154.074 149.243 155.561C148.76 156.196 148.727 156.239 149.341 156.893C150.641 155.034 151.996 151.373 151.484 149.379C151.421 149.408 151.387 149.447 151.387 149.496ZM159.42 155.388C159.254 156.453 158.659 158.694 157.749 159.646C156.667 160.78 156.222 160.905 155.331 160.528C154.801 160.303 154.027 160.412 153.464 160.561C154.486 160.599 155.41 160.87 156.259 161.377L156.286 161.393L156.334 161.422C156.643 161.607 156.814 161.71 156.97 161.691C157.165 161.668 157.336 161.456 157.719 160.983L157.757 160.936L157.795 160.89C159.084 159.301 159.596 157.275 159.42 155.388ZM168.657 162.202C168.432 163.959 167.791 167.084 165.324 169.151C163.002 171.097 161.25 171.228 160.868 168.459C160.831 168.192 160.779 168.05 160.718 168.008C160.833 168.985 160.785 169.971 160.553 170.867C160.413 171.408 160.299 171.867 160.299 171.886C160.299 172.198 163.761 170.761 164.974 169.946C167.76 168.075 168.981 164.989 168.657 162.202ZM162.076 157.497C161.775 159.448 161.064 160.835 159.591 162.361C158.644 163.341 158.644 163.341 159.042 163.831C159.085 163.883 159.127 163.937 159.169 163.991C160.437 162.716 161.851 160.281 162.076 157.497ZM149.337 163.401C149.101 164.733 148.713 166.19 148.138 166.885C146.992 168.27 145.465 168.648 144.255 168.459C143.647 168.364 142.639 168.629 141.758 168.937C143.546 168.862 144.903 169.211 146.082 170.016C146.371 170.212 146.604 170.297 146.655 170.224C146.702 170.156 146.981 169.791 147.273 169.414C148.568 167.743 149.271 165.468 149.337 163.401ZM139.061 168.321C140.894 167.366 143.831 164.809 143.795 160.74C143.44 163.676 141.692 166.277 138.944 167.848C138.911 167.867 138.97 168.074 139.061 168.321ZM141.383 161.014C140.818 162.663 139.559 165.258 137.572 164.556C135.79 163.927 134.708 163.801 133.817 163.801C133.759 163.801 133.709 163.806 133.665 163.816C133.621 163.806 133.57 163.801 133.513 163.801C132.622 163.801 131.54 163.927 129.758 164.556C127.964 165.19 126.765 163.138 126.132 161.519C126.427 162.737 127.033 164.06 127.954 165.436C128.531 166.298 128.744 166.616 128.912 166.594C129.011 166.582 129.094 166.452 129.226 166.247C131.122 163.289 136.263 163.289 138.159 166.247C138.675 167.051 140.752 163.984 141.279 161.639C141.326 161.431 141.361 161.222 141.383 161.014ZM117.996 163.415C118.018 165.395 118.699 167.59 120.112 169.414C120.405 169.791 120.683 170.156 120.73 170.224C120.781 170.297 121.014 170.212 121.303 170.016C122.468 169.221 123.808 168.87 125.565 168.935C124.685 168.627 123.681 168.364 123.075 168.459C121.865 168.648 120.338 168.27 119.192 166.885C118.619 166.193 118.232 164.743 117.996 163.415ZM123.549 160.321C123.296 164.669 126.425 167.377 128.315 168.345C128.411 168.087 128.475 167.867 128.441 167.848C125.563 166.203 123.782 163.427 123.549 160.321ZM118.013 156.926C118.659 156.241 118.633 156.207 118.142 155.561C117.012 154.074 116.007 151.231 115.998 149.496C115.998 149.47 115.937 149.45 115.832 149.435C115.357 151.454 116.717 155.096 118.013 156.926ZM107.917 155.433C107.723 157.262 108.238 159.224 109.59 160.89C109.616 160.922 109.642 160.953 109.666 160.983C110.05 161.456 110.221 161.668 110.415 161.691C110.571 161.71 110.742 161.607 111.051 161.422C111.075 161.408 111.101 161.393 111.126 161.377C111.962 160.878 112.87 160.608 113.873 160.563C113.31 160.413 112.532 160.302 111.999 160.528C111.108 160.905 110.663 160.78 109.581 159.646C108.684 158.707 108.093 156.515 107.917 155.433ZM118.773 150.456C118.909 151.501 119.252 152.616 119.816 153.745C119.887 153.89 119.952 154.021 120.011 154.14C120.371 154.869 120.512 155.155 120.729 155.232C120.869 155.281 121.04 155.243 121.323 155.181C121.394 155.165 121.472 155.148 121.559 155.13C122.239 154.99 122.615 154.975 123.081 155.07C123.203 155.095 123.314 155.118 123.416 155.139C123.417 155.139 123.418 155.14 123.42 155.14C123.319 154.896 122.681 154.696 122.03 154.492C121.408 154.297 120.775 154.099 120.592 153.855C119.791 152.787 119.157 151.711 118.773 150.456ZM124.664 145.191C124.753 145.472 124.799 145.834 124.817 146.286C124.92 148.802 125.379 150.415 126.469 152.095C126.851 152.685 126.867 152.71 126.336 153.155C124.47 150.535 124.298 147.459 124.664 145.191ZM106.668 167.997C106.583 167.977 106.509 168.113 106.462 168.459C106.08 171.228 104.327 171.097 102.006 169.151C99.7289 167.243 99.0076 164.434 98.7332 162.63C98.5965 165.289 99.766 168.17 102.411 169.946C103.625 170.761 107.086 172.198 107.086 171.886C107.086 171.867 106.972 171.408 106.832 170.867C106.599 169.968 106.552 168.978 106.668 167.997ZM108.193 164.022C108.241 163.958 108.291 163.894 108.341 163.833C108.739 163.345 108.739 163.345 107.741 162.302C106.261 160.756 105.46 159.094 105.24 157.113C105.235 157.07 105.23 157.029 105.226 156.99C105.309 160.006 106.84 162.68 108.193 164.022Z" fill="#22110C"/>
<path d="M180.743 223.538C180.743 222.008 182.025 220.768 183.607 220.768C185.189 220.768 186.472 222.008 186.472 223.538C186.472 225.068 185.189 226.308 183.607 226.308C182.025 226.308 180.743 225.068 180.743 223.538Z" fill="#F1F1F1"/>
<path d="M80.8107 223.538C80.8107 222.008 82.0932 220.768 83.675 220.768C85.2568 220.768 86.5393 222.008 86.5393 223.538C86.5393 225.068 85.2568 226.308 83.675 226.308C82.0932 226.308 80.8107 225.068 80.8107 223.538Z" fill="#F1F1F1"/>
<path d="M88.4489 226.056C88.4489 225.638 88.0785 225.301 87.6213 225.301C87.1644 225.301 86.7939 225.638 86.7939 226.056C86.7939 226.472 87.1644 226.811 87.6213 226.811C88.0785 226.811 88.4489 226.472 88.4489 226.056Z" fill="#F1F1F1"/>
</g>
<path d="M884.855 225.796L888.009 241.037C885.82 242.525 882.666 243.883 878.551 245.109C874.523 246.248 870.495 246.817 866.465 246.817C858.672 246.817 852.192 244.365 847.025 239.46C841.947 234.555 839.407 227.198 839.407 217.388V190.718H826.535V172.982H839.407V157.348L858.191 153.275V172.982H884.986V190.718H858.191V216.337C858.191 225.008 862.044 229.344 869.749 229.344C873.165 229.344 878.2 228.161 884.855 225.796Z" fill="#22110C"/>
<path d="M786.758 246.817C777.039 246.817 768.938 244.584 762.458 240.117C755.978 235.562 752.08 229.344 750.768 221.461H769.812C771.39 227.942 777.214 231.183 787.284 231.183C795.427 231.183 799.5 229.212 799.5 225.271C799.5 224.745 799.412 224.264 799.237 223.826C799.149 223.388 798.931 222.994 798.58 222.643C798.317 222.293 798.012 221.986 797.661 221.724C797.31 221.373 796.784 221.067 796.083 220.804C795.472 220.541 794.901 220.322 794.377 220.147C793.851 219.972 793.062 219.753 792.013 219.49C791.048 219.227 790.174 219.009 789.385 218.833C788.684 218.658 787.677 218.439 786.364 218.176C785.049 217.914 783.912 217.651 782.948 217.388C772.177 214.848 764.647 212.089 760.356 209.111C756.153 206.046 754.052 201.491 754.052 195.448C754.052 187.915 756.897 182.047 762.588 177.843C768.369 173.551 776.074 171.405 785.708 171.405C795.339 171.405 802.826 173.507 808.169 177.712C813.509 181.828 816.838 187.434 818.151 194.528H799.106C797.528 189.623 792.844 187.171 785.049 187.171C776.994 187.171 772.966 189.185 772.966 193.214C772.966 194.791 773.797 195.929 775.461 196.63C777.126 197.331 780.891 198.338 786.758 199.652C792.626 200.966 797.265 202.192 800.682 203.33C804.096 204.382 807.337 205.783 810.401 207.535C813.467 209.286 815.656 211.388 816.969 213.841C818.284 216.293 818.94 219.271 818.94 222.775C818.94 230.57 815.919 236.526 809.877 240.642C803.833 244.759 796.128 246.817 786.758 246.817Z" fill="#22110C"/>
<path d="M703.701 171.405C715.524 171.405 724.85 175.478 731.68 183.624C738.599 191.769 741.575 201.885 740.613 213.972H685.18C685.794 219.578 687.808 223.869 691.222 226.847C694.639 229.825 698.885 231.314 703.964 231.314C707.642 231.314 710.925 230.526 713.816 228.949C716.706 227.285 718.763 225.052 719.99 222.249H739.43C736.891 230.395 732.424 236.526 726.032 240.642C719.64 244.759 712.328 246.817 704.095 246.817C692.888 246.817 683.735 243.27 676.644 236.175C669.55 229.081 666.003 220.103 666.003 209.243C666.003 198.382 669.55 189.36 676.644 182.178C683.735 174.996 692.755 171.405 703.701 171.405ZM703.571 186.908C699.105 186.908 695.383 188.134 692.404 190.587C689.429 192.952 687.327 196.148 686.1 200.177H720.647C719.595 196.148 717.581 192.952 714.605 190.587C711.627 188.134 707.949 186.908 703.571 186.908Z" fill="#22110C"/>
<path d="M646.448 158.924C637.954 158.924 633.709 163.523 633.709 172.719V172.982H657.745V190.718H633.709V245.24H614.925V190.718H602.052V172.982H614.925V171.8C614.925 162.165 617.77 154.895 623.461 149.991C629.155 144.998 636.116 142.502 644.347 142.502C650.915 142.502 656.608 143.597 661.422 145.786L658.008 161.026L655.513 160.369C652.184 159.406 649.164 158.924 646.448 158.924Z" fill="#22110C"/>
<path d="M582.243 139.612C585.66 139.612 588.461 140.663 590.65 142.765C592.839 144.779 593.934 147.407 593.934 150.647C593.934 153.888 592.839 156.559 590.65 158.662C588.461 160.764 585.66 161.815 582.243 161.815C578.917 161.815 576.114 160.764 573.837 158.662C571.648 156.559 570.553 153.888 570.553 150.647C570.553 147.494 571.648 144.867 573.837 142.765C576.114 140.663 578.917 139.612 582.243 139.612ZM572.785 245.24V172.982H591.569V245.24H572.785Z" fill="#22110C"/>
<path d="M532.316 171.405C540.459 171.405 546.852 173.945 551.493 179.025C556.134 184.105 558.454 191.068 558.454 199.915V245.241H539.67V203.987C539.67 199.083 538.62 195.404 536.519 192.952C534.417 190.499 530.958 189.273 526.141 189.273C515.283 189.273 509.852 195.273 509.852 207.272V245.241H491.069V172.982H509.852V182.835C515.283 175.215 522.77 171.405 532.316 171.405Z" fill="#22110C"/>
<path d="M457.317 172.982H476.101L475.971 245.241H457.187V235.518C451.669 243.051 444.139 246.817 434.593 246.817C425.047 246.817 417.167 243.313 410.95 236.307C404.733 229.212 401.624 220.147 401.624 209.111C401.624 198.075 404.733 189.054 410.95 182.047C417.255 174.953 425.092 171.405 434.463 171.405C444.094 171.405 451.714 175.303 457.317 183.098V172.982ZM438.797 228.949C444.139 228.949 448.56 227.11 452.065 223.431C455.566 219.753 457.317 214.979 457.317 209.111C457.317 203.243 455.566 198.47 452.065 194.791C448.56 191.112 444.139 189.273 438.797 189.273C433.456 189.273 429.078 191.112 425.661 194.791C422.247 198.47 420.539 203.243 420.539 209.111C420.539 214.979 422.247 219.753 425.661 223.431C429.165 227.11 433.544 228.949 438.797 228.949Z" fill="#22110C"/>
<path d="M364.05 171.405C371.757 171.405 377.844 173.902 382.31 178.894C386.776 183.886 389.008 190.762 389.008 199.521V245.241H370.224V203.593C370.224 198.864 369.217 195.316 367.203 192.952C365.277 190.499 362.124 189.273 357.745 189.273C352.843 189.273 349.121 190.849 346.581 194.003C344.041 197.068 342.771 201.491 342.771 207.272V245.241H323.987V203.593C323.987 198.864 322.98 195.316 320.966 192.952C319.04 190.499 315.887 189.273 311.508 189.273C306.606 189.273 302.839 190.849 300.214 194.003C297.674 197.068 296.404 201.491 296.404 207.272L296.534 245.241H277.62V172.982H296.534V182.573C301.789 175.128 308.926 171.405 317.946 171.405C328.453 171.405 335.765 175.96 339.883 185.069C345.486 175.96 353.542 171.405 364.05 171.405Z" fill="#22110C"/>
</g>
<defs>
<clipPath id="clip0_2840_13203">
<rect width="827.146" height="220.315" fill="white" transform="translate(61.8427 62.8241)"/>
</clipPath>
</defs>
</svg>
