<svg xmlns="http://www.w3.org/2000/svg" fill="none" viewBox="0 0 818 228">
  <path fill="#22110C" fill-rule="evenodd" d="M75 7.7c-28.5 2.8-29.5 45-1.1 49.8 1.3.2 1.7.3 1.7.5l-.2 4.7a373 373 0 0 0-.7 17.4l-1 .5a9 9 0 0 0-2.8 2.3c-.3.4-.3.4-2.1.5-3 0-4.7.8-6.2 2.5-.5.4-.9.8-1 .7A641.5 641.5 0 0 1 53 74l-1.4-2 .8-.9c15.2-16.8-6-42.2-24.1-28.8-18 13.3-1.9 41.4 18.8 32.7l3.7 4.5A628.3 628.3 0 0 0 58 89c.2.3.3.3-.9.6-3.2.9-6.2 3.5-6.8 6 0 .3-.2.6-.3.6a9.5 9.5 0 0 0-9.6 9.3c0 1.8 0 1.8-.8 2.2A44.4 44.4 0 0 0 23.2 132c0 1 0 1-1.4 1.2-3 .6-4.7 1.6-6.6 4.1-2.3 3.2-2.5 5.9-.7 9.7.6 1.3.6 1-.4 2.5-10.5 14.8-8.3 32.2 5.8 46.3a58 58 0 0 0 37 15.8c5.5.4 6.1.6 7.6 2.5 9.4 12.5 17.6 12.5 27 0 1.4-1.9 2-2 7.6-2.5 21.9-1.6 40.1-13.6 47-30.7 4.3-11 3-21.3-4.2-31.4-1-1.4-1-1.2-.4-2.5 1.8-3.8 1.6-6.5-.8-9.7a9.2 9.2 0 0 0-6.6-4c-1.3-.3-1.3-.3-1.4-1.3-.2-2.2-2.6-8-4.9-11.7a44.5 44.5 0 0 0-11.5-12.5c-.8-.4-.8-.4-.8-2.2 0-5.1-4.2-9.2-9.6-9.3l-.3-.6c-.6-2.5-3.6-5.1-6.9-6-1.1-.3-1-.3-.8-.6 0-.2 1-1.3 2-2.6a625.6 625.6 0 0 0 9-11.5c20.6 8.7 36.8-19.4 18.8-32.7-18.1-13.4-39.4 12-24.2 28.8l.9.9-1.4 2a921 921 0 0 0-8.7 12.7l-.9-.7c-1.6-1.7-3.3-2.4-6.2-2.5-1.8 0-1.8 0-2-.5a8.8 8.8 0 0 0-4-2.8c-.7-.2-.7-.2-.7-7.7V57.8l1.6-.3c32-5.3 25.2-53-7-49.8Zm-.7 6.1c-11 2-18.2 12.1-16.2 22 .1.8.3 1.5.6 2.2 5.7 17 32.9 17 38.6 0 .3-.7.5-1.5.6-2.2 2.5-12.5-9.8-24.5-23.6-22ZM37.5 45c-8.1 1.5-12.9 9.7-10.9 16.7.4 1.3 1 2.6 2 3.8 6.4 8.4 18 7.6 22.7-1.7.5-.8.8-1.6 1-2.4 2.4-8.8-5.4-18.1-14.8-16.4Zm76.6 0a13.2 13.2 0 0 0-6.5 22.8c5.8 5.5 14.7 4.4 19.8-2.3 1-1.2 1.6-2.5 2-3.8 2.5-8.5-5.5-18.4-15.3-16.7ZM76.6 84.1c-4 .7-5.2 4.4-3 9 .5 1.3.5 1.3 1.5 1.3.9 0 1 .1 2 .5.9.5.9.5 1.9 0 .8-.4 1-.5 1.9-.5 1 0 1 0 1.6-1.3 2.5-5.7-.3-10-5.9-9Zm-10.1 3.6c-3.2.9-4.2 4.8-2.1 9 .8 1.6.7 1.5 1.7 1.3.7-.2 1-.2 1.5 0 1.5.2 1.3.3 2-.6l1.1-1.3c.6-.5.6-.5.2-1-1-1.7-1.5-3.3-1.6-5.8 0-1.8-.6-2.2-2.8-1.6Zm20.2 1.6c-.1 2.5-.6 4-1.6 5.7-.4.6-.4.6.2 1.1l1.1 1.3c.7.9.5.8 2 .5h1.5c1 .3.8.4 1.7-1.3 2.4-4.8.8-8.8-3.5-9h-1.3l-.1 1.7Zm-29 3.3c-4.9 1.2-6.6 7-3.3 11 .7 1 .7 1 1.5.5a6 6 0 0 1 4.1-.7c.6 0 .6 0 .8-.5.2-1 1-2.2 1.7-3 .8-.8.8-.8.2-1.5a12 12 0 0 1-2-6 9 9 0 0 0-3 .2Zm37.6-.1c0 1.7-1 4.4-2 5.9-.6.7-.6.7.2 1.5s1.5 2 1.7 3c.2.6.2.6.7.5a6 6 0 0 1 4.2.7c.8.5.7.5 1.5-.5 2.7-3.3 2-8.7-1.6-10.4-1.5-.7-4.7-1.2-4.7-.7Zm-22.2 5.8c-3.3 1.6-3.7 5.4-.7 9.8.9 1.3.9 1.3 1.2.8 1.9-3 7-3 8.8 0 .5.8 2.5-2.2 3-4.5 1-4.1-3.1-8.3-5.4-5.6-.5.6-1 1.6-1.3 2.3-.5 1.4-1 1.4-1.4 0-.4-1-1.2-2.2-1.9-2.8-.5-.4-1.4-.4-2.3 0Zm-24 .9c-6.2.8-7.4 9.6-1.8 13.3 1.2.8 4.6 2.2 4.6 2l-.2-1c-.6-2.4 0-5.2 1.4-7 .4-.5.4-.5-.6-1.5a8.4 8.4 0 0 1-2.4-5c-.1-1 0-1-1-.8Zm56.9 0-.2 1c-.3 2-1 3.4-2.4 4.9-1 1-1 1-.6 1.4 1.5 1.8 2.1 4.6 1.5 7l-.2 1c0 .2 3.4-1.2 4.6-2 5-3.3 4.8-10.6-.2-12.9-.8-.3-2.4-.6-2.5-.4Zm-40 1.6c-3.8.5-4.6 6.9-1.3 11.2l.6.8s.3 0 .5-.2c1.6-1.1 3.6-1.4 6.5-.8.1 0 .6-1.3.5-1.4-3.1-1.8-5-5-4.8-8.5 0-1 0-1-.4-1a54.8 54.8 0 0 1-1.5-.1Zm23 0h-.7c-.4 0-.4 0-.4 1.1a9.2 9.2 0 0 1-4.8 8.5l.6 1.4c2.9-.6 4.8-.3 6.4.8.3.2.5.3.6.2l.6-.8c2.4-3.2 2.7-8.5.6-10.4-.7-.6-2.3-1-3-.9Zm-30.9 5c-4.8 1.3-5.1 8-.6 12.1 3.3 3 0 2.4-3.5-.7-1-.9-1-.9-1.7-.8-3 .3-7.6-2.3-10.1-5.8-.6-.7-.6-.7-1-.3-5 6-8 11.2-11.3 20.7-.9 2.3-.9 2.2 0 2.3 16 3 26.6 19.9 27 43 0 5 0 4.7 1.7 4 1-.4 1.3-.7 2.2-3 4-10.6 7.4-14.9 13.1-16.3 1.2-.3 1.2-.3 1.3-.8.2-1.2 1.5-4.4 2-4.9 1-1.1 3 1.3 3.6 4.9.1.5 0 .5 1.3.8 5.7 1.4 9 5.7 13.1 16.3.9 2.3 1.1 2.6 2.2 3 1.8.7 1.6 1 1.7-4 .3-23.1 11-40 27-43 .8-.1.8 0 0-2.3a57.1 57.1 0 0 0-11.4-20.7c-.3-.4-.3-.4-1 .3-2.4 3.5-7 6.1-10 5.8-.8 0-.8 0-1.7.8-3.6 3-6.8 3.8-3.5.7 3.2-3 4-6.1 2.4-9.3-1.3-2.6-5.2-4-5.5-2.1-.4 3-1.6 5.5-3.5 6.7-.5.4-.5.4 0 1.2 1 2 .5 4.4-1.4 6.3-1.6 1.6-2.9 1.7-1.4.1 1.9-2 1.8-4.6-.3-5.2-1.2-.3-5-.2-5 .2 0 1-1.3 3.8-2 4.6-1 1-1.1.5-.5-1 2-4.8.3-9.4-3.3-9.4-3.6 0-5.2 4.6-3.3 9.4.6 1.5.4 2-.5 1-.7-.8-2-3.6-2-4.6 0-.4-3.8-.5-5-.2-2 .6-2.2 3.1-.3 5.2 1.4 1.6.2 1.5-1.4-.1-1.9-1.9-2.4-4.4-1.3-6.3.4-.8.4-.8-.1-1.2-1.9-1.2-3.1-3.6-3.5-6.7-.1-.5-.2-.7-.4-.7h-2Zm-34.4 30.6c-7.4 1.2-6.2 9.2 2.2 16a28 28 0 0 0 7 4.3c15.8 8 20 13 20 23.8 0 .7.5 1 1.3.5v-8c-.7-13-6-25-13.5-31-5-4-12.1-6.3-17-5.6Zm104.8 0c-13.7 1.4-24 14.3-26.4 32.7a82 82 0 0 0-.3 12c.7.3 1.3.1 1.3-.6 0-10.8 4.1-15.8 20-23.8a28 28 0 0 0 7-4.4c10.1-8 9.2-17-1.6-16ZM18.4 152.9c-5.8 6.2-7.5 19-3.8 28A48.7 48.7 0 0 0 52 207c6.8.6 8.3.5 7.7-.5a229 229 0 0 1-8.8-15.9c-2.2-3.5-2.4-6-.5-8 1-1.2.4-6.8-1.3-10.1-.8-1.7-.8-1.7-1.6-.5-9 13.6-27.6 3.2-27.3-15.3 0-2.9 0-2.9-.7-3.5-1-.7-.8-.7-1.1-.3Zm118 .3c-.7.6-.7.6-.7 3.5.4 18.5-18.2 29-27.3 15.3-.8-1.2-.7-1.2-1.5.5-1.7 3.3-2.4 8.9-1.3 10 1.9 2 1.7 4.6-.5 8.1l-2 3.4c-2 4.2-5.7 10.8-6.8 12.5-.6 1-.8 1 3 .8 8-.4 11.3-1.1 17.8-4 23.5-10.1 33-31.7 21.6-48.9-1.4-2-1.2-2-2.3-1.2Zm-113 3c-1.2 4 1.2 11.5 4.9 15.3 1.1 1.2 1.2 1.2.7 0-1.8-4.4-1.1-10 1.5-11.8.5-.3-.4-.8-3.8-2.3l-2.3-1c-1-.6-.9-.5-1-.2Zm108.3 0-2.4 1.2c-3.7 1.6-4.3 2-3.8 2.3 2.6 1.8 3.3 7.4 1.4 11.9-.4 1-.4 1 .8-.1 3.7-3.8 6.1-11.3 4.9-15.3-.1-.3-.1-.3-.9 0Zm-55.2 7.6c-4.8.9-9.2 6-12.7 14.6-1.7 4.3-2.6 5-8.4 5.8-3.8.6-4 1.5-1.4 5.2 1.8 2.7 4.1 6.5 6.6 10.8a89 89 0 0 0 8.1 13c7.6 9.5 14.2 8 22.2-5.3l4.5-7.7c2.4-4.3 4.7-8 6.6-10.8 2.6-3.7 2.4-4.7-1.4-5.2-5.8-.9-6.7-1.5-8.4-5.8-4.2-10.4-9.8-15.6-15.7-14.6Zm-12.7 20.5c-1.1.6-1.6 1.7-1 2.8.4.9 1.6 1.3 2.3.9.2-.1.4 0 1 .3 2.2 1.3 3 1 2.3-.7-1-2.8-3-4.2-4.6-3.3Zm26.2 0c-1.3.7-3 3.6-2.6 4.4.3.7.9.6 2.5-.4.6-.4.8-.4 1-.3.7.4 1.9 0 2.3-.9 1-1.9-1.2-3.8-3.2-2.8Z" clip-rule="evenodd"/>
  <path fill="#2430F0" d="m89 100.7-.7.1c-.4 0-.4 0-.4 1.1a9.2 9.2 0 0 1-4.8 8.5l.6 1.4c2.9-.6 4.8-.3 6.4.8.3.2.5.3.6.2l.6-.8c2.4-3.2 2.7-8.5.6-10.4-.7-.6-2.3-1-3-.9ZM106 99.2l-.2 1c-.3 2-1 3.4-2.4 4.9-1 1-1 1-.6 1.4 1.5 1.8 2.1 4.6 1.5 7l-.2 1c0 .2 3.4-1.2 4.6-2 5-3.3 4.8-10.6-.2-12.9-.8-.3-2.4-.6-2.5-.4ZM95.3 92.5c0 1.7-1 4.4-2 5.9-.6.7-.6.7.2 1.5s1.5 2 1.7 3c.2.6.2.6.7.5a6 6 0 0 1 4.2.7c.8.5.7.5 1.5-.5 2.7-3.3 2-8.7-1.6-10.4-1.5-.7-4.7-1.2-4.7-.7ZM86.7 89.3c-.1 2.5-.6 4-1.6 5.7-.4.6-.4.6.2 1.1l1.1 1.3c.7.9.5.8 2 .5h1.5c1 .3.8.4 1.7-1.3 2.4-4.8.8-8.8-3.5-9h-1.3l-.1 1.7ZM76.6 84.1c-4 .7-5.2 4.4-3 9 .5 1.3.5 1.3 1.5 1.3.9 0 1 .1 2 .5.9.5.9.5 1.9 0 .8-.4 1-.5 1.9-.5 1 0 1 0 1.6-1.3 2.5-5.7-.3-10-5.9-9ZM73.1 98.3c-3.3 1.6-3.7 5.4-.7 9.8.9 1.3.9 1.3 1.2.8 1.9-3 7-3 8.8 0 .5.8 2.5-2.2 3-4.5 1-4.1-3.1-8.3-5.4-5.6-.5.6-1 1.6-1.3 2.3-.5 1.4-1 1.4-1.4 0-.4-1-1.2-2.2-1.9-2.8-.5-.4-1.4-.4-2.3 0ZM66 100.8c-3.8.5-4.6 6.9-1.3 11.2l.6.8s.3 0 .5-.2c1.6-1.1 3.6-1.4 6.5-.8.1 0 .6-1.3.5-1.4-3.1-1.8-5-5-4.8-8.5 0-1 0-1-.4-1a54.8 54.8 0 0 1-1.5-.1ZM57.6 92.6c-4.8 1.2-6.5 7-3.2 11 .7 1 .7 1 1.5.5a6 6 0 0 1 4.1-.7c.6 0 .6 0 .8-.5.2-1 1-2.2 1.7-3 .8-.8.8-.8.2-1.5a12 12 0 0 1-2-6 9 9 0 0 0-3 .2ZM66.5 87.7c-3.2.9-4.2 4.8-2.1 9 .8 1.6.7 1.5 1.7 1.3.7-.2 1-.2 1.5 0 1.5.2 1.3.3 2-.6l1.1-1.3c.6-.5.6-.5.2-1-1-1.7-1.5-3.3-1.6-5.8 0-1.8-.6-2.2-2.8-1.6ZM49 99.2c-6.1.8-7.3 9.6-1.7 13.3 1.2.8 4.6 2.2 4.6 2l-.2-1c-.6-2.4 0-5.2 1.4-7 .4-.5.4-.5-.6-1.5a8.4 8.4 0 0 1-2.4-5c-.1-1 0-1-1-.8Z"/>
  <path fill="#2BE1B7" d="M128.5 136.4c-13.7 1.4-24 14.3-26.4 32.7a82 82 0 0 0-.3 12c.7.3 1.3.1 1.3-.6 0-10.8 4.1-15.8 20-23.8a28 28 0 0 0 7-4.4c10.1-8 9.2-17-1.6-16Z"/>
  <path fill="#2BE1B7" d="M136.4 153.2c-.7.6-.7.6-.7 3.5.4 18.5-18.2 29-27.3 15.3-.8-1.2-.7-1.2-1.5.5-1.7 3.3-2.4 8.9-1.3 10 1.9 2 1.7 4.6-.5 8.1l-2 3.4c-2 4.2-5.7 10.8-6.8 12.5-.6 1-.8 1 3 .8 8-.4 11.3-1.1 17.8-4 23.5-10.1 33-31.7 21.6-48.9-1.4-2-1.2-2-2.3-1.2ZM18.4 152.9c-5.8 6.2-7.5 19-3.8 28A48.7 48.7 0 0 0 52 207c6.8.6 8.3.5 7.7-.5a229 229 0 0 1-8.8-15.9c-2.2-3.5-2.4-6-.5-8 1-1.2.4-6.8-1.3-10.1-.8-1.7-.8-1.7-1.6-.5-9 13.6-27.6 3.2-27.3-15.3 0-2.9 0-2.9-.7-3.5-1-.7-.8-.7-1.1-.3Z"/>
  <path fill="#2BE1B7" d="M23.7 136.4c-7.4 1.2-6.2 9.2 2.2 16a28 28 0 0 0 7 4.3c15.8 8 20 13 20 23.8 0 .7.5 1 1.3.5v-8c-.7-13-6-25-13.5-31-5-4-12.1-6.3-17-5.6Z"/>
  <path fill="#2430F0" d="M58.1 105.9c-4.8 1.2-5.1 7.8-.6 12 3.3 3 0 2.4-3.5-.7-1-.9-1-.9-1.7-.8-3 .3-7.6-2.3-10.1-5.8-.6-.7-.6-.7-1-.3-5 6-8 11.2-11.3 20.7-.9 2.3-.9 2.2 0 2.3 16 3 26.6 19.9 27 43 0 5 0 4.7 1.7 4 1-.4 1.3-.7 2.2-3 4-10.6 7.4-14.9 13.1-16.3 1.2-.3 1.2-.3 1.3-.8.2-1.2 1.5-4.4 2-4.9 1-1.1 3 1.3 3.6 4.9.1.5 0 .5 1.3.8 5.7 1.4 9 5.7 13.1 16.3.9 2.3 1.1 2.6 2.2 3 1.8.7 1.6 1 1.7-4 .3-23.1 11-40 27-43 .8-.1.8 0 0-2.3a57.1 57.1 0 0 0-11.4-20.7c-.3-.4-.3-.4-1 .3-2.4 3.5-7 6.1-10 5.8-.8 0-.8 0-1.7.8-3.6 3-6.8 3.8-3.5.7 3.2-3 4-6.1 2.4-9.3-1.3-2.6-5.2-4-5.5-2.1-.4 3-1.6 5.5-3.5 6.7-.5.4-.5.4 0 1.2 1 2 .5 4.4-1.4 6.3-1.6 1.6-2.9 1.7-1.4.1 1.9-2 1.8-4.6-.3-5.2-1.2-.3-5-.2-5 .2 0 1-1.3 3.8-2 4.6-1 1-1.1.5-.5-1 2-4.8.3-9.4-3.3-9.4-3.6 0-5.2 4.6-3.3 9.4.6 1.5.4 2-.5 1-.7-.8-2-3.6-2-4.6 0-.4-3.8-.5-5-.2-2 .6-2.2 3.1-.3 5.2 1.4 1.6.2 1.5-1.4-.1-1.9-1.9-2.4-4.4-1.3-6.3.4-.8.4-.8-.1-1.2-1.9-1.2-3.1-3.6-3.5-6.7-.1-.5-.2-.7-.4-.7h-2Z"/>
  <path fill="#F2C79C" fill-rule="evenodd" d="M76.5 163.8c-4.8.9-9.2 6-12.7 14.6-1.7 4.3-2.6 5-8.4 5.8-3.8.6-4 1.5-1.4 5.2 1.8 2.7 4.1 6.5 6.6 10.8 4.3 7.7 6 10.3 8.1 13 7.6 9.5 14.2 8 22.2-5.3l4.5-7.7c2.4-4.3 4.7-8 6.6-10.8 2.6-3.7 2.4-4.7-1.4-5.2-5.8-.9-6.7-1.5-8.4-5.8-4.2-10.4-9.8-15.6-15.7-14.6Zm-13.7 23.3c-.6-1-.1-2.2 1-2.8 1.6-.9 3.6.5 4.6 3.3.7 1.7-.1 2-2.3.7-.6-.4-.8-.4-1-.3-.7.4-1.9 0-2.3-.9Zm24.6 1.6c-.4-.8 1.3-3.7 2.6-4.4 2-1 4.1 1 3.2 2.8-.4.9-1.6 1.3-2.3.9-.2-.1-.4 0-1 .3-1.6 1-2.2 1-2.5.4Z" clip-rule="evenodd"/>
  <path fill="#2430F0" fill-rule="evenodd" d="M52.3 61.3c-1.7-6.2-6.8-11-13.9-9.8-5.5 1-10.5 5.3-11.8 10 .4 1.4 1 2.7 2 4 6.4 8.3 18 7.5 22.7-1.8.5-.8.8-1.6 1-2.4ZM58.7 38a17 17 0 0 1-.6-2.2c1.4-7.4 8.6-13.8 17.1-15.4 11.4-2 20.8 5.7 22.7 15.4-.1.7-.3 1.5-.6 2.2-5.7 17-33 17-38.6 0Z" clip-rule="evenodd"/>
  <path fill="#2430F0" d="M114.1 45c-8 1.4-12.2 9.2-10.4 16.3 1.2-4.7 5.8-8.8 11.4-9.8 7.3-1.3 12.6 4 14.3 10.1 2.5-8.5-5.5-18.4-15.3-16.7ZM58 35.8c1.5-7.4 8.7-13.8 17.2-15.4 11.4-2 20.8 5.7 22.7 15.4 2.5-12.5-9.8-24.5-23.6-22-11 2-18.2 12.1-16.2 22ZM38.4 51.5c7-1.3 12.2 3.6 13.9 9.8 2.4-8.8-5.4-18.1-14.8-16.4-8.1 1.5-12.9 9.7-10.9 16.7 1.3-4.8 6.3-9 11.8-10Z"/>
  <path fill="#2430F0" d="M107.6 67.7c5.8 5.5 14.7 4.4 19.8-2.3 1-1.2 1.6-2.5 2-3.8-1.7-6.2-7-11.4-14.3-10-5.6 1-10.2 5-11.4 9.7.6 2.3 1.9 4.6 3.9 6.4Z"/>
  <path fill="#F2C79C" fill-rule="evenodd" d="M61.1 29.1c3.2-4.3 8.3-7.6 14.1-8.7a19.3 19.3 0 0 1 20.1 8.9c.8-.8 1.5-1.5 2-2.3A20.6 20.6 0 0 0 59 26c.5 1 1.3 2.1 2.1 3.1Z" clip-rule="evenodd"/>
  <path fill="#2BE1B7" d="M61.1 29.1c2.8 3.6 6.8 7 7.2 7 .4 0 2.4-1.9 4.5-3.9a30 30 0 0 1 5-4.3c.4 0 2.3 2 4.1 4.1 2 2 3.8 4.1 4.2 4.1.6 0 5.6-3.2 9.2-6.8a19.3 19.3 0 0 0-20-8.9c-5.9 1-11 4.4-14.2 8.7ZM26.7 61.2c1.4-4.6 6.3-8.7 11.7-9.7a11 11 0 0 1 10.2 3.2c.5-1.7.8-3.8.8-5.5a12.6 12.6 0 0 0-12-4.3 13.7 13.7 0 0 0-11 16.2l.3.1Z"/>
  <path fill="#2BE1B7" d="M26.7 61.2c3 2 7.2 2.8 8.3 2.2.9-.5 1.2-3 1.3-5.6.1-1.9.2-3.6.6-4 .4-.3 2.4.8 4.5 2 2.4 1.4 5 2.6 5.7 2.2.5-.3 1-1.5 1.5-3.3a11 11 0 0 0-10.2-3.2c-5.4 1-10.3 5-11.7 9.7Z"/>
  <path fill="#2BE1B7" fill-rule="evenodd" d="M104.6 52.4a27 27 0 0 0 5.2 9c.6 0 2.5-1.3 4.3-2.6 1.6-1 3-2 3.3-2 .3 0 1 1 1.6 2.1 1 1.5 2.2 3.3 3 3.6 1.2.3 5.7-2 7.9-3.6.3-7.7-7-15.5-15.7-14a13 13 0 0 0-9.6 7.3v.2Z" clip-rule="evenodd"/>
  <path fill="#F1F1F1" d="m131.7 156.3-2.4 1c-3.7 1.7-4.3 2.1-3.8 2.4 2.6 1.8 3.3 7.4 1.4 11.9-.4 1-.4 1 .8-.1 3.7-3.8 6.1-11.3 4.9-15.3-.1-.3-.1-.3-.9 0ZM23.4 156.2c-1.2 4 1.2 11.5 4.9 15.3 1.1 1.2 1.2 1.2.7 0-1.8-4.4-1.1-10 1.5-11.8.5-.3-.4-.8-3.8-2.3l-2.3-1c-1-.6-.9-.5-1-.2ZM123.6 167.5c0-.4-.4-.7-.8-.7-.5 0-.8.3-.8.7 0 .4.3.7.8.7.4 0 .8-.3.8-.7Z"/>
  <path fill="#22110C" fill-rule="evenodd" d="M96.8 39.4c-7 7.6-20.8 11.8-36.5 2.1 7.8 13 30.3 12.3 36.5-2.1ZM49.3 66.7c-7.3 3-17.2 0-22-3.4l1.2 2.1c5.7 7.4 15.4 7.6 20.8 1.3Zm79.3-3c-4.2 3.8-12.7 6.6-22.7 2.2.5.6 1 1.3 1.7 1.8 5.8 5.5 14.7 4.4 19.8-2.3l1.2-1.8Z" clip-rule="evenodd" opacity=".2"/>
  <path fill="#2430F0" d="M58 35.8c1.5-7.4 8.7-13.8 17.2-15.4 11.4-2 20.8 5.7 22.7 15.4 2.5-12.5-9.8-24.5-23.6-22-11 2-18.2 12.1-16.2 22Z"/>
  <path fill="#2BE1B7" fill-rule="evenodd" d="M61.1 29.1c3.2-4.3 8.3-7.6 14.1-8.7a19.3 19.3 0 0 1 20.1 8.9c.8-.8 1.5-1.5 2-2.3A20.6 20.6 0 0 0 59 26c.5 1 1.3 2.1 2.1 3.1Z" clip-rule="evenodd"/>
  <path fill="#fff" fill-rule="evenodd" d="M83 86.8c-1-2.1-3.2-3.3-6.4-2.7-1.8.3-3.1 1.3-3.7 2.8 1.2-1 3.5-1.4 5.1-1.4 1.6 0 3.7.3 5 1.3ZM69 88c-1.5.3-4.3 1-5.5 2.7a4.2 4.2 0 0 1 3-3c1.6-.5 2.3-.4 2.6.3ZM60.8 93v-.4a9 9 0 0 0-3 0 6.5 6.5 0 0 0-4.8 4.6c1.7-2.3 4.7-4.2 7.8-4.2Zm-17 12.5c.7-2.5 3.4-5 5.6-5h.8v-.6c0-.4 0-.5-.2-.6H49c-3.3.4-5.1 3.1-5.3 6.2Zm33-5.7c-1.4-1-3.2-1.4-5.9.8.5-.9 1.2-1.6 2.3-2.2 1-.4 1.8-.4 2.3 0 .4.3.9.8 1.2 1.4Zm8.1.5c-1.1-2-3.3-3.1-4.8-1.4l-.7 1c1.3-1 3-1.4 5.5.4Zm-16.7 1.3c0-.6 0-.6-.5-.7a54.8 54.8 0 0 1-1.5 0c-2 .2-3.1 2-3.4 4 .7-2.4 3.6-3.5 5.4-3.3Zm27.4 4.7c.6-1.5 4.2 0 5.4 2.4.4.6.6 1.3.7 2-.9-2.6-3.8-3.8-6.1-4.4Zm-11.8 9.7c0-.5 3.9-.6 5.1-.3.6.2 1 .5 1.3 1-1.2-1-3.7-.9-6.4-.7Zm-8.8-4.2c.7-1 1.7-1.7 3-1.7 1.4 0 2.5.6 3.2 1.6-1-.6-2.1-1-3-1-1.1 0-2.3.4-3.2 1.1Zm-9 5c.2-.5.7-.9 1.3-1 1.2-.4 5-.3 5 .1v.1c-2.6-.2-5.2-.4-6.4.7Zm-5.4-10.5c-2.3.6-5.3 1.8-6.2 4.5.1-2.3 1.4-4.2 3.8-4.8.6-.2 1.7-.2 2.1-.1.2 0 .3.1.3.4Zm32-15.4c-.5-1.9-2-3.1-4.4-3.2h-1.3v.5c1.4.2 4.4 1 5.7 2.7ZM103 97c-.4-1.6-1.4-3-3-3.8-1.5-.7-4.7-1.2-4.7-.7v.4c3 0 6 1.9 7.7 4.1Zm9.3 8.4c-.7-2.5-3.4-5-5.6-5h-.9v-.2l.2-1c0-.2 1.7 0 2.5.4a6.6 6.6 0 0 1 3.8 5.8Zm-19-.7a4.8 4.8 0 0 0-1.4-3c-.7-.7-2.3-1.2-3-1l-.6.1c-.3 0-.4 0-.4.7 1.7-.2 4.5.8 5.4 3.2Z" clip-rule="evenodd" opacity=".2" style="mix-blend-mode:hard-light"/>
  <path fill="#fff" fill-opacity=".4" fill-rule="evenodd" d="M135 137.5c-4.8-.4-10.6 1.2-14.7 3.8a40.6 40.6 0 0 0-16.6 22.3c-.5 2.5-1 3.3-1.2 3.2 2.9-17.2 13-29 26-30.4 3-.3 5.1.1 6.6 1ZM20.6 137.6c5-.6 11.1 1 15.4 3.7a40.6 40.6 0 0 1 17.4 25.1A40.5 40.5 0 0 0 40.7 142c-5-4-12.1-6.3-17-5.6a7 7 0 0 0-3 1.2ZM65.7 174.2c4-4.4 9.3-5.2 12-5.2 3 0 8.7 1 12.9 5.9-4-8-9-12-14-11-4 .6-7.8 4.3-11 10.3Z" clip-rule="evenodd" style="mix-blend-mode:hard-light"/>
  <path fill="#22110C" fill-rule="evenodd" d="m132.9 158.6-6.2 2.4c-.3-.5-.7-1-1.2-1.3-.5-.3.1-.7 3.8-2.3l2.4-1.1c.5-.3.7-.4.8-.3v.2c.3.7.4 1.5.4 2.4Zm-109.8-.2 6.2 2.5c.4-.5.7-.9 1.2-1.2.5-.3-.4-.8-3.8-2.3l-2.3-1-.2-.2c-.5-.2-.6-.3-.7-.2v.1l-.1.1c-.2.6-.3 1.4-.3 2.2ZM50 189.2c-.3 4.2 1.1 9 1.8 11.1l.3.9c.5 1.8-4.8 4.6-24-4A48.6 48.6 0 0 0 52 207c6.8.6 8.3.5 7.7-.5a229 229 0 0 1-8.8-15.9l-.8-1.4ZM128 197.1c-19.3 8.7-24.5 5.9-24 4.1a30.5 30.5 0 0 0 2-12l-1 1.4-1.8 3.4c-2.2 4.2-5.8 10.8-6.9 12.5l-.4.7c.1.2 1 .2 3.4 0 8-.3 11.3-1 17.8-3.8a55 55 0 0 0 11-6.3ZM59.5 198.3c4.2 6.7 6 9.2 8.2 11.8 8.5 9.5 15.7 7.9 24.6-5.4a163 163 0 0 0 3.1-4.5l-4.5 7.7c-8 13.3-14.6 14.8-22.2 5.3a88.9 88.9 0 0 1-9.2-15Z" clip-rule="evenodd" opacity=".2"/>
  <path fill="#000" fill-opacity=".2" d="M78 152c-1.6 0-3.6 11-4.5 11l-1.8 1.6 6.2-1.7 7.2 2.1c-.8-.7-2.4-2-2.9-2s-2.7-11-4.3-11ZM67.6 122.5c-1 0-3.9-2-3.9-5.1.5-.8 1.3-2 1.3-.6 0 1.7 1.9 3.8 2.4 4.3s1 1.4.2 1.4ZM50.8 117.4c-3.5 0-8.1-4.6-10.5-7.8l1.4-1.2L45 113l7.3 2.2 1.5-2.4 1.6 2.8c.7 1 2.3 2 3.6 3.8 1.3 1.8-3.7-.5-4.3-.8-.5-.2-1.6-1-2-1.3l-1.9.1ZM62 111.8c-1.4-1.8-1-3.9-1.2-5.7l4 7.3-.2.5c-.5-.2-1.5-.7-2.6-2.1ZM74.8 121.4c-1.3-.4-2.5-3.4-2.5-5.7l1.2-.5.9 3.2c.2 1 1.7 3.3.4 3ZM88.3 122.5c1 0 3.8-2 3.8-5.1-.4-.8-1.2-2-1.2-.6 0 1.7-1.9 3.8-2.4 4.3s-1 1.4-.2 1.4ZM105 117.4c3.6 0 8.2-4.6 10.6-7.8l-1.4-1.2-3.3 4.6-7.3 2.2-1.5-2.4-1.7 2.8c-.6 1-2.2 2-3.5 3.8-1.3 1.8 3.7-.5 4.3-.8.5-.2 1.6-1 2-1.3l1.9.1ZM93.9 111.8c1.4-1.8 1-3.9 1.2-5.7l-4 7.3.2.5c.4-.2 1.4-.7 2.6-2.1ZM81 121.4c1.3-.3 2.6-3.4 2.6-5.7l-1.3-.5-.8 3.2c-.2 1-1.8 3.3-.5 3Z"/>
  <path fill="#22110C" d="M63.1 187.5c-.4 0 1-.7.5-1.9 1-.4 2.7 0 4 1.1 1.4 1.3 1.4 4.5 1.4 5.9-.1 1.3-5.4-5.1-5.9-5.1ZM92.7 187.5c.5 0-.9-.6-.5-1.8-1-.4-2.6 0-3.8 1-1.5 1.3-1.5 4.5-1.5 5.9.1 1.4 5.4-5 5.8-5Z" opacity=".2"/>
  <path fill="#22110C" fill-rule="evenodd" d="M36.1 156.2c7.6 4.5 15 8.8 15 14.3v.5c-2.5-5.1-7.9-9-18.2-14.3a28 28 0 0 1-7-4.4c-6.6-5.2-8.7-11.2-5.9-14.2-1.9 7.4 7.2 12.9 16.1 18Z" clip-rule="evenodd" opacity=".2"/>
  <path fill="#22110C" fill-rule="evenodd" d="M20.1 137.9v.2c-1 3.7.8 6.9 4 9.8 3.1 3 7.6 5.6 12 8.2 3.8 2.3 7.6 4.5 10.4 6.8 2.8 2.4 4.6 4.8 4.6 7.6v.5c-2.5-5-7.9-9-18.2-14.3a29.4 29.4 0 0 1-13.5-12.3c-1-2.6-.9-4.8.6-6.3l.1-.2Zm-.6 6.4c1 2.6 3.1 5.4 6.4 8a29.4 29.4 0 0 0 7 4.3c10.2 5.2 15.6 9.1 18.1 14.1v-.2c0-2.7-1.8-5.1-4.6-7.5-2.8-2.3-6.5-4.5-10.3-6.8-4.5-2.6-9-5.2-12.1-8.2-3.1-2.9-5-6-4-9.7-1.3 1.5-1.5 3.6-.5 6ZM120 156.2c-7.6 4.5-15 8.8-15 14.3v.2c2.5-5 7.9-8.9 18-14a28 28 0 0 0 7-4.4c6.6-5.2 8.5-10.9 6.1-13.9 1.6 7.3-7.4 12.6-16.1 17.8Z" clip-rule="evenodd" opacity=".2"/>
  <path fill="#22110C" fill-rule="evenodd" d="M136.5 144.6c-1 2.4-3.1 5.1-6.4 7.8a30 30 0 0 1-7 4.3c-10.2 5.2-15.5 9-18 14h-.2v-.2c0-2.8 1.9-5.2 4.7-7.6 2.8-2.3 6.5-4.5 10.3-6.8a74 74 0 0 0 12-8c3.1-3 5-6 4.2-9.6 1.3 1.4 1.4 3.6.4 6Zm-.3-5.9c1 1.5 1.2 3.5.2 5.8a29.5 29.5 0 0 1-13.4 12c-10 5.2-15.4 9-18 14 0-2.7 1.9-5.2 4.7-7.5 2.8-2.3 6.5-4.5 10.3-6.8 4.4-2.5 8.8-5.2 12-8 3-2.9 4.9-6 4.2-9.5Z" clip-rule="evenodd" opacity=".2"/>
  <path fill="#000" fill-opacity=".2" fill-rule="evenodd" d="M17.2 154.2c0 6.1.2 32.5 31.6 32.5h.4c-.4-1.6 0-3 1.1-4.1 1.2-1.2.5-6.8-1.2-10.1-.5-1-.7-1.3-.9-1.3l-.7.8c-9 13.6-27.7 3.2-27.3-15.3 0-2.9 0-2.9-.7-3.5l-.9-.6-.3.3-1 1.3Z" clip-rule="evenodd" style="mix-blend-mode:multiply"/>
  <path fill="#22110C" fill-rule="evenodd" d="M138.9 154.7c0 6.8-.8 32.1-31.5 32.1h-.6c.3-1.7-.1-3-1.2-4.2-1.1-1.2-.4-6.8 1.2-10.1.5-1 .7-1.3.9-1.3.2 0 .3.2.7.8 9.1 13.6 27.7 3.2 27.3-15.3 0-2 0-2.6.2-3l.5-.5.9-.5c.3 0 .6.5 1.4 1.7l.2.3ZM72.5 88.1c-.2 1.4.1 3.1 1 5 .6 1.3.6 1.3 1.6 1.3.8 0 1 .1 1.9.5 1 .5 1 .5 2 0 .8-.4 1-.5 1.9-.5 1 0 1 0 1.5-1.3a9 9 0 0 0 1-5c-.5 2.3-1.4 5.3-3.6 5.5-.9.2-1.5.3-1.8.2h-.2l-1.8-.2c-2.1-.2-3-3.2-3.5-5.5Zm12.5 7c1.1-1.7 1.6-3.3 1.7-5.8V88c.4 2.2.3 5.4-1.6 8-.4-.4-.4-.4 0-1Zm7.7-2.2c-.1 1.1-.5 2.4-1.1 3.7l-.2.4c-.4.7-.5 1-.7 1h-.8c-.7-.2-1-.2-1.5 0H88c0-.2.7-.4 1.3-.6.7-.2 1.3-.4 1.5-.7.8-1.2 1.5-2.3 1.9-3.8Zm2.6-.4c0 1.7-1 4.4-2 5.9-.6.6-.6.7 0 1.3 1.3-1.8 2.6-5.4 2.1-7.4v.2Zm7.9 5.7c-.2 1-.8 3.3-1.7 4.2-1 1.1-1.4 1.2-2.3.9-.5-.2-1.3-.1-1.9 0 1 0 2 .3 2.8.8l.7.3c.2 0 .3-.2.7-.7a7.5 7.5 0 0 0 1.7-5.5Zm9 6.7c-.2 1.7-.8 4.8-3.2 6.8-2.3 2-4 2-4.4-.7l-.1-.4c0 1 0 2-.2 2.8l-.3 1c0 .3 3.4-1 4.6-1.9a8 8 0 0 0 3.6-7.6Zm-6.4-4.6c-.3 2-1 3.3-2.4 4.8-1 1-1 1-.6 1.4l.1.2c1.3-1.3 2.7-3.7 2.9-6.4Zm-12.5 5.8a8.4 8.4 0 0 1-1.2 3.4 4.1 4.1 0 0 1-3.8 1.5c-.6 0-1.6.2-2.4.5 1.7 0 3 .3 4.2 1 .3.3.5.3.6.3l.6-.8c1.2-1.7 2-3.9 2-6Zm-10 4.8c1.7-1 4.6-3.4 4.6-7.4-.4 2.9-2 5.4-4.8 7l.1.4Zm2.2-7.2c-.6 1.7-1.8 4.2-3.7 3.5a10.5 10.5 0 0 0-7.7 0c-1.8.6-3-1.4-3.5-3a12.2 12.2 0 0 0 2.7 5l.3-.3c1.8-3 6.9-3 8.7 0 .5.8 2.6-2.2 3.1-4.5l.1-.7Zm-23 2.4c0 2 .8 4.1 2.1 5.9l.7.8.5-.2a6.6 6.6 0 0 1 4.2-1c-.9-.4-1.9-.6-2.4-.6-1.2.2-2.7-.1-3.9-1.5-.5-.7-.9-2-1.1-3.4Zm5.5-3c-.2 4.2 2.8 6.9 4.7 7.8l.1-.5a9.3 9.3 0 0 1-4.8-7.3Zm-5.4-3.4c.6-.6.6-.7.1-1.3a12 12 0 0 1-2-6h-.2c-.5 2 .8 5.5 2 7.3Zm-10-1.4a7.2 7.2 0 0 0 1.8 5.4c.4.5.5.7.7.7.2 0 .4 0 .7-.3.9-.5 1.7-.7 2.7-.8-.5-.1-1.3-.2-1.8 0-.9.3-1.3.2-2.4-.9-.9-1-1.4-3-1.6-4.1Zm10.7-4.9a10.2 10.2 0 0 0 1.2 3.6c.4.7.5 1 .8 1h.8c.6-.2 1-.2 1.5 0h.3c-.1-.2-.7-.4-1.4-.6-.6-.2-1.2-.4-1.4-.7-.8-1-1.4-2-1.8-3.3Zm5.8-5.2.2 1.1c0 2.5.5 4 1.6 5.7.4.6.4.6-.2 1-1.8-2.5-2-5.5-1.6-7.8Zm-17.6 22.4c-.1 0-.2.1-.2.4-.4 2.8-2.1 2.6-4.4.7-2.2-1.8-3-4.6-3.2-6.4-.1 2.6 1 5.5 3.6 7.2 1.2.8 4.6 2.2 4.6 2l-.3-1c-.2-1-.2-2-.1-2.9Zm1.5-3.9.1-.2c.4-.5.4-.5-.6-1.5a8.4 8.4 0 0 1-2.4-5v-.2c0 3 1.5 5.6 2.9 6.9Z" clip-rule="evenodd" opacity=".2"/>
  <path fill="#F1F1F1" d="M124 165c0-1.5 1.3-2.7 2.9-2.7 1.6 0 2.8 1.2 2.8 2.7 0 1.5-1.2 2.8-2.8 2.8a2.8 2.8 0 0 1-2.8-2.8ZM26.1 165c0-1.5 1.3-2.7 2.8-2.7 1.6 0 2.8 1.2 2.8 2.7 0 1.5-1.2 2.8-2.8 2.8a2.8 2.8 0 0 1-2.8-2.8ZM33.6 167.5c0-.4-.4-.7-.8-.7-.5 0-.8.3-.8.7 0 .4.3.7.8.7.4 0 .8-.3.8-.7Z"/>
  <path fill="#fff" d="m814.4 167.3 3.1 14.9a43.4 43.4 0 0 1-21.1 5.7c-7.6 0-14-2.4-19-7.3-5-4.8-7.5-12-7.5-21.6V133h-12.7v-17.4H770v-15.3l18.4-4v19.3h26.3v17.4h-26.3v25c0 8.6 3.8 12.8 11.3 12.8 3.4 0 8.3-1.1 14.8-3.4ZM718.3 187.9a41 41 0 0 1-23.9-6.6A26.9 26.9 0 0 1 683 163h18.6c1.6 6.4 7.3 9.5 17.2 9.5 8 0 12-1.9 12-5.8 0-.5-.1-1-.3-1.4-.1-.4-.3-.8-.7-1.1-.2-.4-.5-.7-.9-1a23.1 23.1 0 0 0-5.5-2.2 56.4 56.4 0 0 0-5.5-1.2l-3.4-.8a69.7 69.7 0 0 1-22.1-8.1c-4.2-3-6.2-7.5-6.2-13.4 0-7.4 2.8-13.1 8.4-17.3a37.2 37.2 0 0 1 22.6-6.3c9.5 0 16.8 2.1 22 6.2a26 26 0 0 1 9.8 16.5h-18.6c-1.6-4.8-6.2-7.2-13.8-7.2-8 0-11.9 2-11.9 6 0 1.5.8 2.6 2.5 3.3 1.6.7 5.3 1.6 11 3 5.8 1.2 10.4 2.4 13.7 3.5a47 47 0 0 1 9.5 4.2 16 16 0 0 1 6.5 6.1c1.3 2.4 1.9 5.4 1.9 8.8 0 7.6-3 13.5-8.9 17.5-6 4-13.5 6-22.6 6ZM636.8 114c11.6 0 20.8 4 27.5 12 6.7 7.9 9.7 17.8 8.7 29.7h-54.3c.6 5.5 2.5 9.7 5.9 12.6 3.3 2.9 7.5 4.4 12.5 4.4 3.6 0 6.8-.8 9.6-2.4a14 14 0 0 0 6-6.5h19.1c-2.4 8-6.8 14-13 18-6.4 4-13.5 6-21.6 6-11 0-20-3.4-27-10.4-6.9-7-10.3-15.7-10.3-26.4a35.7 35.7 0 0 1 37-37Zm-.1 15.1c-4.4 0-8 1.2-11 3.6-2.9 2.4-5 5.5-6.1 9.4h33.8c-1-4-3-7-5.9-9.4-3-2.4-6.5-3.6-10.8-3.6ZM580.7 101.7c-8.3 0-12.5 4.5-12.5 13.5v.3h23.6v17.4h-23.6v53.4h-18.4V133h-12.6v-17.4h12.6v-1.2c0-9.4 2.8-16.5 8.3-21.4a30 30 0 0 1 20.5-7.3c6.5 0 12 1 16.8 3.2l-3.4 15-2.4-.7c-3.3-1-6.3-1.4-9-1.4ZM517.7 82.8c3.4 0 6.1 1 8.3 3a10 10 0 0 1 3.2 7.8c0 3.2-1 5.8-3.2 7.8-2.2 2.1-5 3.1-8.3 3.1-3.2 0-6-1-8.2-3-2.2-2.1-3.2-4.7-3.2-8 0-3 1-5.6 3.2-7.6 2.2-2.1 5-3.1 8.2-3.1Zm-9.2 103.5v-70.8h18.4v70.8h-18.4ZM468.8 114c8 0 14.2 2.4 18.8 7.4 4.5 5 6.8 11.8 6.8 20.5v44.4H476V146c0-4.8-1-8.4-3-10.8-2.2-2.4-5.5-3.6-10.3-3.6-10.6 0-16 5.8-16 17.6v37.2h-18.4v-70.8h18.5v9.6a25.6 25.6 0 0 1 22-11.2ZM395.3 115.5h18.4l-.2 70.8h-18.4v-9.5a26 26 0 0 1-22.1 11c-9.4 0-17.1-3.4-23.2-10.2a39 39 0 0 1-9.1-26.7c0-10.8 3-19.7 9.1-26.5 6.2-7 13.9-10.5 23-10.5 9.5 0 17 3.9 22.5 11.5v-10ZM377 170.3c5.2 0 9.6-1.8 13-5.4 3.4-3.6 5.2-8.3 5.2-14 0-5.8-1.8-10.4-5.2-14a17.2 17.2 0 0 0-13-5.4c-5.2 0-9.5 1.8-12.9 5.4-3.3 3.6-5 8.2-5 14 0 5.8 1.7 10.4 5 14a17 17 0 0 0 12.9 5.4ZM303.8 114c7.6 0 13.5 2.4 18 7.3a29.2 29.2 0 0 1 6.5 20.2v44.8h-18.4v-40.8c0-4.6-1-8.1-3-10.4-1.9-2.4-5-3.6-9.3-3.6-4.8 0-8.4 1.5-11 4.6a20 20 0 0 0-3.6 13v37.2h-18.5v-40.8c0-4.6-1-8.1-3-10.4-1.8-2.4-5-3.6-9.2-3.6-4.8 0-8.5 1.5-11 4.6a20 20 0 0 0-3.8 13l.1 37.2h-18.5v-70.8h18.5v9.4c5.2-7.3 12.2-11 21-11 10.3 0 17.5 4.5 21.5 13.4 5.5-8.9 13.4-13.4 23.7-13.4Z"/>
</svg>