<svg xmlns="http://www.w3.org/2000/svg" viewBox="0 0 154 48">
  <path fill="#fff" d="M95.7 0c-3.32 0-6.01 2.69-6.01 6v18c0 6.62-5.4 12-12.03 12-6.64 0-12.03-5.38-12.03-12V6c0-3.31-2.69-6-6.01-6s-6.01 2.69-6.01 6v18c0 13.23 10.79 24 24.06 24s24.06-10.77 24.06-24V6c-.01-3.31-2.71-6-6.03-6zm0 8.98a2.981 2.981 0 1 1 .002-5.958A2.981 2.981 0 0 1 95.7 8.98zM121.43 24l-13.8 13.76a5.981 5.981 0 0 0 0 8.48 6.036 6.036 0 0 0 8.51 0l13.79-13.76 13.8 13.76a6.036 6.036 0 0 0 8.51 0 5.981 5.981 0 0 0 0-8.48L138.44 24l13.8-13.76a5.981 5.981 0 0 0 0-8.48 6.036 6.036 0 0 0-8.51 0l-13.8 13.76-13.79-13.76a6.036 6.036 0 0 0-8.51 0 5.981 5.981 0 0 0 0 8.48L121.43 24zm26.56 20.98c-1.65 0-2.98-1.33-2.98-2.98 0-1.64 1.34-2.98 2.98-2.98 1.65 0 2.98 1.33 2.98 2.98 0 1.64-1.34 2.98-2.98 2.98zM44.41.46a6.007 6.007 0 0 0-6.55 1.3l-13.8 13.76L10.27 1.76C8.55.04 5.96-.47 3.72.46S0 3.57 0 6v36c0 3.31 2.69 6 6.01 6s6.01-2.69 6.01-6V20.48l7.78 7.76a6.036 6.036 0 0 0 8.51 0l7.78-7.76V42c0 3.31 2.69 6 6.01 6s6.01-2.69 6.01-6V6c.02-2.43-1.45-4.61-3.7-5.54zm-2.3 44.52c-1.65 0-2.98-1.33-2.98-2.98 0-1.64 1.34-2.98 2.98-2.98S45.1 40.36 45.1 42c0 1.65-1.34 2.98-2.99 2.98z" class="st0"/>
</svg>