<svg xmlns="http://www.w3.org/2000/svg" width="80" height="30">
  <path fill="#fff" d="M.1 2.97c0-.6.47-1.09 1.08-1.09h3.34c.6 0 1.53.12 2.1.24 0 0 .88.21 1.51 1.15l7.98 12.4c.33.48.81 1.33 1.11 1.84 0 0 1.63 2.74 3.07 6.26-.75-3.76-.93-5.54-.93-7.8v-13c0-.6.48-1.09 1.09-1.09h3.9c.61 0 1.1.48 1.1 1.09v25.95c0 .6-.49 1.08-1.1 1.08H21c-.6 0-1.54-.12-2.11-.24 0 0-.87-.2-1.5-1.14L9.4 16.22c-.34-.49-.82-1.33-1.12-1.84 0 0-1.62-2.74-3.07-6.26.7 3.76.93 5.53.93 7.73V28.9c0 .6-.48 1.08-1.08 1.08H1.15c-.6 0-1.09-.48-1.09-1.08V2.97zM28.93 16.9c0-.6.49-1.08 1.09-1.08h10.14c.6 0 1.09.48 1.09 1.08v2.74c0 .6-.48 1.09-1.09 1.09H30.02c-.6 0-1.09-.48-1.09-1.09zm15.57-5.12c0-.6.48-1.08 1.08-1.08h3.92c.6 0 1.08.48 1.08 1.08v17.14c0 .6-.48 1.08-1.08 1.08h-3.92c-.6 0-1.08-.48-1.08-1.08zm6.02-7.37a3 3 0 0 1-3 3 3.02 3.02 0 0 1 0-6.04 3.05 3.05 0 0 1 3 3.04m1.71 25.56c2.02-3.55 4.91-8.25 7.5-12.16l.57-.87c.33-.49.7-1.03.79-1.2a.6.6 0 0 0 0-.64l-.82-1.2s-1.44-2.11-2.2-3.29a149 149 0 0 1-3.85-6.17l-.54-.93-.75-1.3c-.12-.18.27-.36.84-.36h5.57c.6 0 1.17.18 1.26.36l.73 1.33s2.8 4.33 5.11 7.68c1.12 1.6 4.16 5.56 4.5 6.05 0 0 3.03 4.21 4.6 6.71 1.02 1.66 2.14 3.13 2.89 4.43.27.48.48.78.9 1.53H72.6c-.6 0-1.3-.42-1.57-.96 0 0-1-1.9-2.17-3.98-1.5-2.65-2.16-3.85-3.37-5.78l-.2.33-1.1 1.84s-2.91 5.06-4.33 7.74c-.2.42-.87.78-1.47.78h-6.15zM67.41 9.59s2.29-3.82 3.97-6.95c.22-.43.88-.76 1.48-.76h4.94c.6 0 .96.15.84.36-.12.18-.45.76-.78 1.27l-5.63 8.88-1.2 1.96z"/>
</svg>
