<svg xmlns="http://www.w3.org/2000/svg" fill="none" viewBox="0 0 277 65">
  <path fill="#48bdff" d="m0 19.5 13 10.1V65L0 54.9z"/>
  <path fill="#21d974" d="m34 8.6-13 10v35.5L34 44z"/>
  <path fill="#b9f7e7" fill-opacity=".5" d="M13.5 30 21 53.6V35.4z"/>
  <path fill="#3b93ef" d="m13 46.1-13 9L13 65"/>
  <path fill="#b9f7e7" d="M34 8.6 20.9 0l-12 9.6 12.1 9z"/>
  <path fill="#fff" d="M68.8 13.4v10.4c0 5.1 0 10.4.3 14-1.6-3.4-9.8-17.2-13.9-24.4H45.1c1.6 0 2.7 1.3 2.7 2.5v29h5.4V34.3c0-5.6 0-11.7-.3-14.8h.1c1.7 3.6 10.5 19 14.1 25.4h7V13.4zM100 32.2c0-5.6-2.6-11.5-10.5-11.5-7.3 0-11 5.3-11 12.6 0 6 3.2 11.9 10.8 11.9 7 0 9.6-4.5 10.5-7.4H94c-.7 1.5-1.6 2.9-4.6 2.9-3.5 0-5.3-3-5.3-6.6H100zm-15.6-1.7c.3-3.2 1.7-5.7 5.1-5.7 3.5 0 4.8 2.6 5 5.7zm34.2-4.9v-4.3h-14.1v4.3h3.7v13c0 4.1 1.5 6.3 5.8 6.3 1.2 0 2.9 0 4-.4v-4l-1.6.1q-2.8 0-2.6-2.7V25.6zm-4.8-11v-.8h-5.6v6.5c3.1 0 5.6-2.6 5.6-5.7m16.6 11v-4.3H123q1.6.2 1.8 1.4v22h5.6V34c0-6.3 3-8.5 7.7-8.5v-4.3q-6 0-7.7 4.3m23.6-4.8c-7.3 0-11.6 5.2-11.6 12.3 0 7 4.2 12.2 11.3 12.2 7.3 0 11.4-5.4 11.4-12.3 0-7.3-4.4-12.2-11.2-12.2m-.2 20c-3.5 0-5.6-3-5.6-7.7q.1-7.7 5.5-7.8 5.5.2 5.6 7.8c0 4.7-2 7.7-5.5 7.7m37.7-2.9V21.3h-5.7v12.3c0 5-1.4 6.9-4.8 6.9-3.1 0-4-2.4-4-5.1V21.3h-7.4q1.7.1 1.8 1.5v13.8c0 6 3.3 8.6 7.7 8.6q4.9 0 6.7-3.5c0 1 0 2.3.2 3h5.5zM210 25.6v-4.3h-14.2v4.3h3.7v13c0 4.1 1.5 6.3 5.8 6.3 1.2 0 2.9 0 4-.4v-4l-1.6.1q-2.8 0-2.6-2.7V25.6zm-5-11v-.8h-5.5v6.5c3 0 5.6-2.6 5.6-5.7m9.2 6.7q1.6.1 1.8 1.5v21.8h5.6V21.3zm7.4-6.7v-.8h-5.6v6.5c3 0 5.6-2.6 5.6-5.7m18.8 6.1c-4.2 0-6.1 2.2-7 3.8v-3.2H226q1.6.2 1.8 1.4v21.9h5.6V31.8q0-6.4 5-6.4c3.1 0 4.1 2 4.1 5v14.2h5.7V29.7c0-6-3.2-9-7.8-9m28.8.6v2.6c-.5-1.2-2.2-3.2-6.3-3.2-5.8 0-10.2 4.9-10.2 12.3 0 6.5 3.6 11.4 9.6 11.4 3.6 0 5.6-1.3 6.9-3.5v1.3c0 4.9-1 7.7-5.6 7.7q-3.9-.2-4.6-3h-5.8c.3 2.7 2.1 7.2 10.2 7.2 8.4 0 11.3-4.6 11.3-12V21.2zm-5.3 18.5c-3.2 0-5.4-2.7-5.4-7 0-4.8 2.2-7.5 5.5-7.5 4.4 0 5.3 2.8 5.3 7.2s-1.1 7.3-5.4 7.3"/>
</svg>
