<svg xmlns="http://www.w3.org/2000/svg" viewBox="0 0 150 36">
  <path fill="#fff" fill-rule="evenodd" d="M38.93 13.49h3.23c.4 0 .73-.08 1.05-.24.33-.16.57-.33.73-.57a2 2 0 0 0 .32-1.05c0-.4-.08-.8-.24-1.05-.16-.24-.4-.48-.64-.56a1.63 1.63 0 0 0-.9-.25c-.32-.08-.72-.08-1.04-.08H39v3.8h-.08Zm-3.71-7.03h6.54c.89 0 1.7.08 2.42.24.81.17 1.46.49 2.02.81.57.4 1.05.9 1.38 1.62.32.64.48 1.53.48 2.5a4.8 4.8 0 0 1-.97 3.07 4.5 4.5 0 0 1-2.74 1.62l4.28 7.19h-4.45l-3.55-6.79h-1.86v6.79h-3.71V6.46h.16ZM53.4 17.6c0 .9.23 1.62.72 2.19.48.57 1.21.8 2.1.8.89 0 1.62-.23 2.1-.8.48-.57.73-1.3.73-2.18 0-.89-.25-1.62-.73-2.18-.48-.57-1.21-.81-2.1-.81-.89 0-1.62.24-2.1.8-.49.65-.73 1.3-.73 2.19Zm-3.56 0c0-.96.16-1.77.48-2.5.33-.72.81-1.37 1.38-1.93a6.52 6.52 0 0 1 4.52-1.62c.89 0 1.7.16 2.5.4.81.33 1.46.73 2.02 1.22a6.51 6.51 0 0 1 1.38 1.94c.32.72.48 1.61.48 2.5 0 .97-.16 1.78-.48 2.5a6.48 6.48 0 0 1-1.38 1.94 6.52 6.52 0 0 1-4.52 1.62c-.89 0-1.7-.16-2.5-.4a7.06 7.06 0 0 1-2.02-1.22 6.51 6.51 0 0 1-1.38-1.94 6.02 6.02 0 0 1-.48-2.5Zm26.09 5.9h-3.47v-1.6h-.09c-.16.24-.32.48-.48.65-.16.24-.4.4-.73.64-.32.16-.64.33-.97.4-.4.09-.72.17-1.2.17a5.6 5.6 0 0 1-2.19-.4 2.94 2.94 0 0 1-1.3-1.14 5.1 5.1 0 0 1-.64-1.77c-.08-.65-.16-1.38-.16-2.18V11.8h3.56v6.79c0 .32.08.73.24.97.16.24.32.56.56.72.25.17.57.33 1.05.33.49 0 .81-.08 1.13-.24.33-.17.49-.4.65-.65.16-.24.24-.57.32-.97.08-.32.08-.73.08-1.13V11.8h3.64v11.72Zm10.42-8.8H83.2v3.88c0 .32 0 .64.08.89 0 .24.08.48.24.64.08.16.24.33.49.49.24.08.56.16.88.16.17 0 .4 0 .73-.08.32 0 .57-.16.73-.24v2.98c-.4.17-.8.25-1.21.33-.4.08-.9.08-1.3.08-.56 0-1.13-.08-1.7-.16a4.28 4.28 0 0 1-1.36-.65c-.4-.24-.65-.65-.9-1.13a3.4 3.4 0 0 1-.32-1.62V14.7H77.3v-2.9h2.26V8.31h3.56v3.47h3.15v2.91h.08Zm9.77 1.62c0-.65-.16-1.13-.56-1.54-.4-.4-.97-.64-1.62-.64-.4 0-.73.08-1.05.16-.32.16-.56.32-.8.48-.25.24-.41.4-.5.73-.07.24-.15.56-.23.8h4.76Zm3.07 5.17a5.7 5.7 0 0 1-2.18 1.7c-.89.4-1.78.56-2.75.56a8.6 8.6 0 0 1-2.5-.4 7.06 7.06 0 0 1-2.02-1.22 6.52 6.52 0 0 1-1.37-1.94 6.3 6.3 0 0 1-.49-2.5 6.03 6.03 0 0 1 1.86-4.44 6.52 6.52 0 0 1 4.52-1.62c.81 0 1.62.16 2.27.4.64.33 1.2.73 1.7 1.22.48.56.8 1.2 1.04 1.94.25.72.4 1.61.4 2.5v1.13h-8.31c.16.73.48 1.21.97 1.62a2.79 2.79 0 0 0 3.23.24c.4-.24.72-.65 1.05-1.05l2.58 1.86Z" clip-rule="evenodd"/>
  <path fill="#FFC63C" fill-rule="evenodd" d="m108.56 11.15-3.8 5.9h3.8v-5.9Zm0 8.96h-7.35v-3.07l6.87-10.58h3.88v10.58h2.18v3.07h-2.19v3.4h-3.47v-3.4h.08Z" clip-rule="evenodd"/>
  <path fill="#fff" fill-rule="evenodd" d="M116.48 6.46h5.57l3.96 11.15 3.96-11.15h5.57v17.05h-3.71V10.42h-.09l-4.44 13.09h-2.83l-4.28-13.09v13.09h-3.71V6.46Zm29.97 9.86c0-.65-.17-1.13-.57-1.54-.4-.4-.97-.64-1.62-.64-.4 0-.72.08-1.04.16-.33.16-.57.32-.81.48-.25.24-.4.4-.49.73l-.24.8h4.77Zm3.06 5.17a5.78 5.78 0 0 1-2.18 1.7c-.88.4-1.77.56-2.74.56-.89 0-1.7-.16-2.5-.4a7.05 7.05 0 0 1-2.03-1.22 6.53 6.53 0 0 1-1.37-1.94 6.3 6.3 0 0 1-.48-2.5c0-.97.16-1.78.48-2.5.32-.73.8-1.38 1.38-1.94a6.53 6.53 0 0 1 4.52-1.62c.8 0 1.61.16 2.26.4.65.33 1.21.73 1.7 1.22.48.56.8 1.2 1.05 1.94.24.72.4 1.61.4 2.5v1.13h-8.32c.16.73.48 1.21.97 1.62a2.79 2.79 0 0 0 3.23.24c.4-.24.73-.65 1.05-1.05l2.58 1.86Z" clip-rule="evenodd"/>
  <path fill="#FF6400" fill-rule="evenodd" d="M28.2 1.53a1.53 1.53 0 1 1 1.53 1.54c-.81.08-1.54-.65-1.54-1.54ZM0 1.53C0 .73.73 0 1.53 0c.9 0 1.62.73 1.62 1.53 0 .9-.73 1.62-1.62 1.62C.73 3.15 0 2.42 0 1.53Zm22.3 32.15a1.53 1.53 0 1 1 3.06 0 1.53 1.53 0 0 1-3.07 0Z" clip-rule="evenodd"/>
  <path fill="#FFC63C" fill-rule="evenodd" d="M20.03 6.62c.24.25.24.57 0 .73l-2.66 2.67c-.25.24-.16.4.16.56a5.33 5.33 0 0 1 3.23 3.23c.08.24.32.33.56.16L24 11.31c.24-.24.57-.24.73 0l2.34 2.34c.24.24.4.16.4-.16V4.2c0-.16-.08-.24-.24-.24h-9.37c-.32 0-.32.16-.16.4l2.34 2.26Zm-6.3 3.88c.24-.08.32-.32.16-.56l-2.66-2.67c-.24-.24-.24-.57 0-.73l2.34-2.34c.24-.24.16-.4-.16-.4H4.2c-.16.16-.32.24-.32.4v9.29c0 .32.16.32.4.16l2.34-2.34c.25-.24.57-.24.73 0l2.67 2.66c.24.25.4.17.56-.16a5.34 5.34 0 0 1 3.15-3.3Zm2.18 10.66c-.32 0-.4.25-.32.49l1.53 3.39c.09.24 0 .57-.24.73l-2.99 1.37c-.24.16-.24.32 0 .4l8.73 3.15c.16.09.32 0 .32-.16l3.23-8.72c.08-.24 0-.4-.32-.24l-3 1.37c-.23.16-.56 0-.72-.24l-1.7-3.64c-.07-.24-.32-.24-.48-.08a5.47 5.47 0 0 1-1.94 1.62c-.48.24-1.13.4-1.7.48 0 0-.24.08-.4.08Z" clip-rule="evenodd"/>
  <path fill="#FF6400" fill-rule="evenodd" d="M11.71 15.67a3.88 3.88 0 0 1 7.76 0 3.95 3.95 0 0 1-3.88 3.96 4 4 0 0 1-3.88-3.96Z" clip-rule="evenodd"/>
</svg>