<svg xmlns="http://www.w3.org/2000/svg" fill="currentColor" viewBox="0 0 188 48">
  <path d="M12.14 39.45q-5.85 0-8.9-2.16Q.2 35.08 0 30.71h6.73q.2 1.77 1.67 2.7t4.08.93q2.06 0 3.2-.64t1.12-1.77-1.23-1.67q-1.22-.59-4.52-.98-3.48-.4-5.74-1.18-2.21-.78-3.34-2.16T.84 22.45q0-3.58 2.94-5.6 2.95-2.01 7.77-2.01 5.15 0 8.1 2.16 3 2.11 3.1 5.84H16.2q-.14-1.32-1.47-2.1-1.28-.8-3.24-.8-1.92 0-3.05.65-1.08.63-1.08 1.71t1.28 1.63 4.37.93q3.64.4 5.85 1.13 2.26.69 3.39 2.06 1.17 1.38 1.17 3.64 0 3.58-3 5.7-2.99 2.06-8.3 2.06m27.13 0q-5.8 0-9.2-3.2-3.33-3.19-3.33-8.89 0-3.73 1.52-6.58a10.7 10.7 0 0 1 4.42-4.37q2.85-1.57 6.73-1.57 5.9 0 9 3.29 3.09 3.24 3.09 9.14v.54H32.33v-2.02h14l-1.23.79q-.05-2.8-1.52-4.37-1.43-1.63-4.13-1.63-2.8 0-4.47 1.67-1.62 1.68-1.62 4.72v.44q0 3.05 1.62 4.67t4.57 1.62q2.11 0 3.49-.78 1.42-.84 1.86-2.31h6.44a9 9 0 0 1-1.82 4.52q-1.47 1.96-4.12 3.14-2.6 1.18-6.15 1.18m16.26-23.97h6.63V38.8h-6.63zm3.34-3.3q-1.82 0-3.15-1.27-1.27-1.28-1.27-3.1 0-1.77 1.27-3.04 1.33-1.33 3.15-1.33c1.82 0 2.23.42 3.04 1.28q1.28 1.27 1.28 3.1 0 1.86-1.28 3.14-1.22 1.22-3.04 1.22m8.7-5.65h6.63v17.6l-.74 2.99.74 3v8.7h-6.64zm6.82 16.8q.1-2.3 1.18-4.22a8.6 8.6 0 0 1 2.95-3.1q1.92-1.17 4.42-1.17 4.82 0 7.52 3.29 2.75 3.3 2.75 9.04 0 3.73-1.38 6.53-1.32 2.8-3.73 4.28t-5.45 1.47q-3.59 0-5.85-2.11-2.21-2.16-2.4-6.39h-1.87v-7.61zm6 10.37q2.7 0 4.37-1.82t1.67-4.71-1.72-4.72q-1.67-1.82-4.47-1.82-2.75 0-4.52 1.82-1.77 1.77-1.77 4.67t1.82 4.76q1.87 1.82 4.62 1.82m28.3 5.75q-5.8 0-9.14-3.2-3.34-3.19-3.34-8.89 0-3.73 1.52-6.58a10.7 10.7 0 0 1 4.42-4.37q2.9-1.57 6.73-1.57 5.9 0 8.94 3.29 3.1 3.24 3.1 9.14v.54h-19.16v-2.02h14.05l-1.23.79q-.05-2.8-1.52-4.37-1.43-1.63-4.08-1.63-2.8 0-4.52 1.67-1.67 1.68-1.67 4.72v.44q0 3.05 1.62 4.67t4.57 1.62q2.11 0 3.49-.78 1.42-.84 1.87-2.31h6.48a9 9 0 0 1-1.82 4.52q-1.47 2.01-4.12 3.2-2.66 1.12-6.2 1.12m16.66-23.97h6.63V38.8h-6.63zm5.55 8.74h1.18q.15-4.62 2.56-6.68t6.73-2.06h16.4v6.14H138.9q-3.59 0-5.26 1.47-1.67 1.43-1.67 4.52zm22.9 15.23q-4.38 0-6.83-2.46-2.46-2.5-2.46-7.12V8.35h6.63V29.1q0 2.1.89 3.24.88 1.13 2.8 1.13a5.5 5.5 0 0 0 3.05-.89l2.75 4.18q-1.33 1.18-3.05 1.96-1.72.74-3.78.74M173.87 0h2.4l-12.62 48h-2.41zm11.08 0h2.4l-12.62 48h-2.4z"/>
</svg>