<svg xmlns="http://www.w3.org/2000/svg" width="479" height="127">
    <g fill="currentColor" fill-rule="evenodd">
        <path fill-rule="nonzero"
            d="m37.824 111.139.161-.557.024.08c1.312 4.437 3.351 7.966 6.068 10.509 5.692 5.328 13.77 5.36 18.745.342l.396-.412c2.988-3.202 3.867-6.969 3.034-10.467l-.098-.377.202-.138c6.684-4.764 5.608-16.337-.188-20.527l-.159-.111.055-.024c5.307-2.459 5.624-12.36 3.101-18.412l-.284-.668a22.11 22.11 0 0 1-.623-1.753l-.16-.531.028-.057a106.147 106.147 0 0 0 3.969-9.94c2.64-7.676 4.297-15.252 4.52-22.392C77.28 14.427 64.98.861 38.305.861 12.795.86.315 13.323.005 33.3L0 34.04c-.016 10.85 3.284 22.21 7.776 32.288l.364.808-.029.115a25.614 25.614 0 0 1-1.018 3.13l-.278.651c-2.528 6.05-2.214 15.964 3.097 18.424l.053.024-.157.111c-5.86 4.235-6.895 16.014.032 20.679l.281.182-.021.09c-.815 3.525.09 7.316 3.072 10.528l.193.203c4.965 5.269 13.126 5.322 18.79-.18 2.511-2.441 4.413-5.78 5.669-9.955Zm.48-104.278c52.722 0 25.637 56.212 23.437 60.61.348 1.516.876 3.448 1.609 5.232l.205.482c1.657 3.766 1.1 10.428 0 10.823-1.08.388-1.014-5.846-3.704-10.571l-.147-.252a19.15 19.15 0 0 1-1.018-1.927l.115.732c.576 3.874.854 9.079-1.02 12.163-2.383 4.074 1.972 17.232 3.265 17.41 1.074.149.868-2.795.853-4.975v-.41l.01-.475c.038-1 .19-1.626.681-1.292 2.295 1.562 4.124 9.641-.854 11.403C57.2 107.42 48.718 94.41 51.27 84.153c1.377-4.158-1.038-12.902-1.75-16.409l.134.858c.612 4.086 1.373 12.071-.235 22.662l-.094.603c-2.554 16.075 2.589 21.745 4.264 21.097 2.322-.913.933-4.87.933-5.556 1.05-1.867 9.53 3.938 4.342 9.564l-.178.187c-4.863 5.161-17.722 1.855-16.315-24 .838-8.227-1.864-16.527-4.278-21.51l-.314.635c-2.421 4.981-5.108 12.62-4.267 20.875 1.407 25.855-10.917 29.161-15.78 24-5.555-5.683 2.727-11.639 3.79-9.75l-.097.318c-.303 1.064-1.1 4.47.853 5.237 1.659.642 6.696-4.237 4.318-19.933l-.074-.479c-1.98-12.46-.676-21.411.01-24.808l-.118.51c-.901 3.783-3.24 11.93-1.925 15.899 2.552 10.258-5.713 23.267-10.25 21.66-4.978-1.76-3.149-9.84-.854-11.402 1.544-1.05-.258 7.401 1.544 7.153 1.293-.179 5.648-13.337 3.266-17.411-1.996-3.283-1.552-8.97-.905-12.895a18.409 18.409 0 0 1-.814 1.579l-.205.348c-2.84 4.752-2.75 11.218-3.85 10.823-1.08-.388-1.636-6.803-.094-10.602l.093-.22c1.023-2.325 1.68-5.002 2.032-6.71l-.421-.897C9.02 54.737-10.35 6.86 38.305 6.86Z" />
        <circle cx="20.967" cy="56.968" r="4.989" />
        <circle cx="55.24" cy="56.968" r="4.989" />
        <g fill-rule="nonzero">
            <path
                d="M118.512 57.888c2.544.768 4.752 1.56 6.624 2.376 1.872.816 3.78 1.884 5.724 3.204 1.944 1.32 3.444 2.964 4.5 4.932 1.056 1.968 1.584 4.2 1.584 6.696 0 5.088-1.932 8.952-5.796 11.592-3.864 2.64-8.868 3.96-15.012 3.96-4.464 0-8.364-.852-11.7-2.556-3.336-1.704-6.564-4.236-9.684-7.596l8.064-7.992c1.008 2.112 2.832 4.068 5.472 5.868 2.64 1.8 5.256 2.7 7.848 2.7 6.144-.096 9.216-2.088 9.216-5.976 0-2.112-.9-3.756-2.7-4.932-1.8-1.176-4.188-2.22-7.164-3.132-2.448-.72-4.572-1.476-6.372-2.268-1.8-.792-3.66-1.836-5.58-3.132s-3.408-2.892-4.464-4.788c-1.056-1.896-1.584-4.068-1.584-6.516 0-4.656 1.836-8.304 5.508-10.944 3.672-2.64 8.052-3.96 13.14-3.96 8.016 0 15.12 3.408 21.312 10.224l-7.776 7.776c-1.632-2.16-3.624-4.104-5.976-5.832-2.352-1.728-4.872-2.592-7.56-2.592-1.968 0-3.648.444-5.04 1.332-1.392.888-2.088 2.244-2.088 4.068 0 1.056.276 1.992.828 2.808.552.816 1.38 1.524 2.484 2.124 1.104.6 2.076 1.068 2.916 1.404.84.336 1.932.72 3.276 1.152ZM179.352 69.696V90h-10.656V69.696c0-2.784-.42-4.776-1.26-5.976-.84-1.2-2.292-1.8-4.356-1.8-4.56 0-6.84 2.592-6.84 7.776V90h-10.656V37.728h10.656v20.664c1.008-2.976 4.224-4.464 9.648-4.464 4.896 0 8.364 1.236 10.404 3.708 2.04 2.472 3.06 6.492 3.06 12.06ZM198.216 54.432V90H187.56V54.432h10.656Zm.288-10.224c0 1.536-.54 2.82-1.62 3.852s-2.436 1.548-4.068 1.548c-1.536 0-2.856-.528-3.96-1.584s-1.656-2.328-1.656-3.816.552-2.736 1.656-3.744c1.104-1.008 2.424-1.512 3.96-1.512 1.632 0 2.988.504 4.068 1.512 1.08 1.008 1.62 2.256 1.62 3.744ZM243 72.288c0 5.328-1.608 9.708-4.824 13.14-3.216 3.432-7.416 5.148-12.6 5.148-1.152 0-2.592-.3-4.32-.9-1.728-.6-2.976-1.284-3.744-2.052v19.08h-10.656V54.432h10.656v2.52c1.68-2.016 4.128-3.024 7.344-3.024 5.232 0 9.564 1.74 12.996 5.22 3.432 3.48 5.148 7.86 5.148 13.14Zm-10.728 0c0-2.832-.792-5.256-2.376-7.272-1.584-2.016-3.504-3.024-5.76-3.024-1.344 0-2.64.456-3.888 1.368-1.248.912-2.232 2.088-2.952 3.528a13.156 13.156 0 0 0-1.152 5.4c0 1.92.384 3.696 1.152 5.328 1.68 3.264 3.96 4.896 6.84 4.896 2.256 0 4.176-1.008 5.76-3.024 1.584-2.016 2.376-4.416 2.376-7.2ZM293.112 57.888c2.544.768 4.752 1.56 6.624 2.376 1.872.816 3.78 1.884 5.724 3.204 1.944 1.32 3.444 2.964 4.5 4.932 1.056 1.968 1.584 4.2 1.584 6.696 0 5.088-1.932 8.952-5.796 11.592-3.864 2.64-8.868 3.96-15.012 3.96-4.464 0-8.364-.852-11.7-2.556-3.336-1.704-6.564-4.236-9.684-7.596l8.064-7.992c1.008 2.112 2.832 4.068 5.472 5.868 2.64 1.8 5.256 2.7 7.848 2.7 6.144-.096 9.216-2.088 9.216-5.976 0-2.112-.9-3.756-2.7-4.932-1.8-1.176-4.188-2.22-7.164-3.132-2.448-.72-4.572-1.476-6.372-2.268-1.8-.792-3.66-1.836-5.58-3.132s-3.408-2.892-4.464-4.788c-1.056-1.896-1.584-4.068-1.584-6.516 0-4.656 1.836-8.304 5.508-10.944 3.672-2.64 8.052-3.96 13.14-3.96 8.016 0 15.12 3.408 21.312 10.224l-7.776 7.776c-1.632-2.16-3.624-4.104-5.976-5.832-2.352-1.728-4.872-2.592-7.56-2.592-1.968 0-3.648.444-5.04 1.332-1.392.888-2.088 2.244-2.088 4.068 0 1.056.276 1.992.828 2.808.552.816 1.38 1.524 2.484 2.124 1.104.6 2.076 1.068 2.916 1.404.84.336 1.932.72 3.276 1.152ZM353.952 69.696V90h-10.656V69.696c0-2.784-.42-4.776-1.26-5.976-.84-1.2-2.292-1.8-4.356-1.8-4.56 0-6.84 2.592-6.84 7.776V90h-10.656V37.728h10.656v20.664c1.008-2.976 4.224-4.464 9.648-4.464 4.896 0 8.364 1.236 10.404 3.708 2.04 2.472 3.06 6.492 3.06 12.06ZM370.512 64.944l-7.92-4.536c3.888-4.368 8.832-6.552 14.832-6.552 4.944 0 8.676 1.116 11.196 3.348 2.52 2.232 3.78 4.884 3.78 7.956V90h-10.656v-2.52c-1.92 2.016-4.56 3.024-7.92 3.024-8.976 0-13.464-3.648-13.464-10.944 0-3.792 1.428-6.828 4.284-9.108 2.856-2.28 6.708-3.42 11.556-3.42h5.544c0-1.344-.456-2.412-1.368-3.204-.912-.792-2.136-1.188-3.672-1.188-2.736 0-4.8.768-6.192 2.304Zm11.232 13.32v-3.168h-6.264c-1.44 0-2.592.444-3.456 1.332-.864.888-1.2 2.004-1.008 3.348.288 1.824 1.776 2.736 4.464 2.736 2.112 0 3.684-.456 4.716-1.368 1.032-.912 1.548-1.872 1.548-2.88ZM437.544 72.288c0 5.328-1.608 9.708-4.824 13.14-3.216 3.432-7.416 5.148-12.6 5.148-1.152 0-2.592-.3-4.32-.9-1.728-.6-2.976-1.284-3.744-2.052v19.08H401.4V54.432h10.656v2.52c1.68-2.016 4.128-3.024 7.344-3.024 5.232 0 9.564 1.74 12.996 5.22 3.432 3.48 5.148 7.86 5.148 13.14Zm-10.728 0c0-2.832-.792-5.256-2.376-7.272-1.584-2.016-3.504-3.024-5.76-3.024-1.344 0-2.64.456-3.888 1.368-1.248.912-2.232 2.088-2.952 3.528a13.156 13.156 0 0 0-1.152 5.4c0 1.92.384 3.696 1.152 5.328 1.68 3.264 3.96 4.896 6.84 4.896 2.256 0 4.176-1.008 5.76-3.024 1.584-2.016 2.376-4.416 2.376-7.2ZM479.736 72.288v2.376h-25.344c0 1.968.828 3.648 2.484 5.04 1.656 1.392 3.42 2.088 5.292 2.088 3.936 0 6.696-1.464 8.28-4.392l7.128 6.552c-3.264 4.416-8.4 6.624-15.408 6.624-5.712 0-10.272-1.704-13.68-5.112-3.408-3.408-5.112-7.8-5.112-13.176s1.644-9.78 4.932-13.212c3.288-3.432 7.692-5.148 13.212-5.148s9.936 1.704 13.248 5.112c3.312 3.408 4.968 7.824 4.968 13.248Zm-25.128-4.392h13.968c-.576-3.456-2.928-5.184-7.056-5.184-1.872 0-3.408.468-4.608 1.404-1.2.936-1.968 2.196-2.304 3.78Z" />
        </g>
    </g>
</svg>