<svg xmlns="http://www.w3.org/2000/svg" width="251" height="53">
    <g fill="none" fill-rule="nonzero">
        <path fill="currentColor"
            d="M72.913 37.089a17.26 17.26 0 0 1-5.385-.838 12.283 12.283 0 0 1-4.497-2.619l2.353-3.98a21.357 21.357 0 0 0 3.817 2.095 8.83 8.83 0 0 0 3.555.733c.837 0 1.517-.157 1.987-.471.47-.262.68-.734.68-1.31 0-.523-.262-1.047-.889-1.361a13.58 13.58 0 0 0-3.085-1.048l-3.66-1.204c-.993-.42-1.778-.838-2.405-1.31a3.855 3.855 0 0 1-1.36-1.57 5.14 5.14 0 0 1-.418-2.096 6.813 6.813 0 0 1 2.458-5.341c.732-.629 1.673-1.1 2.718-1.467 1.046-.366 2.197-.524 3.4-.524 1.62 0 3.136.21 4.548.629 1.412.471 2.771 1.257 4.078 2.409l-2.562 3.928a17.404 17.404 0 0 0-3.241-1.833 6.985 6.985 0 0 0-2.824-.576c-.68 0-1.307.104-1.778.419-.522.262-.732.733-.732 1.361 0 .629.262 1.048.785 1.362.523.314 1.568.628 2.98.995 1.31.33 2.602.733 3.87 1.205 1.045.419 1.881.89 2.561 1.361a4.664 4.664 0 0 1 1.882 4.085c0 2.147-.784 3.823-2.405 5.08-1.568 1.257-3.66 1.886-6.43 1.886Zm25.882-1.52c-.89.367-1.935.734-3.085 1.048-1.15.314-2.3.524-3.503.524a8.143 8.143 0 0 1-2.3-.314 5.226 5.226 0 0 1-1.935-1.048c-.523-.419-.942-1.047-1.255-1.728-.314-.733-.523-1.623-.523-2.67V20.12h-2.72v-4.924h2.772v-6.86h6.484v6.808h4.392v4.975H92.73v9.008c0 .681.156 1.205.522 1.571.366.262.837.42 1.36.42.523 0 1.046-.053 1.516-.263.523-.157.994-.314 1.36-.523l1.255 5.237h.052Zm12.235 1.52a12.53 12.53 0 0 1-4.863-.89 10.257 10.257 0 0 1-5.856-6.023 12.064 12.064 0 0 1 0-8.485 10.257 10.257 0 0 1 5.856-6.022c1.412-.576 3.033-.89 4.863-.89a10.97 10.97 0 0 1 8.47 3.404c.994.995 1.726 2.2 2.248 3.508a11.749 11.749 0 0 1 0 8.537 10.31 10.31 0 0 1-5.803 5.97 12.53 12.53 0 0 1-4.915.89Zm-4.706-11.103c0 1.676.418 3.037 1.307 4.032.941 1.048 2.092 1.572 3.451 1.572a4.285 4.285 0 0 0 3.399-1.572 5.833 5.833 0 0 0 .993-1.78c.262-.681.366-1.467.366-2.252 0-1.728-.47-3.09-1.36-4.085-.888-1.048-2.039-1.571-3.398-1.571a4.441 4.441 0 0 0-3.399 1.57c-.418.525-.784 1.048-1.045 1.782a6.819 6.819 0 0 0-.314 2.304Zm33.097-5.185c-1.568 0-3.032.262-4.34.786a5.23 5.23 0 0 0-2.77 2.2v12.935h-6.537V15.197h6.013v4.295c.732-1.467 1.674-2.619 2.876-3.404 1.15-.838 2.353-1.257 3.66-1.31h.68l.418.053v5.97Zm2.876 19.116c.91.316 1.861.493 2.823.523.785 0 1.412-.262 1.883-.785.418-.524.784-1.571 1.15-2.933l-8.157-21.525h6.745l4.967 15.869 4.34-15.869h6.118l-8.21 24.981a8.521 8.521 0 0 1-9.934 5.866c-.522-.105-1.15-.262-1.725-.524v-5.603Zm35.345-2.828c-1.62 0-3.084-.315-4.287-1.048a7.587 7.587 0 0 1-2.928-2.88v3.561h-5.7V6.766h6.589v11.94a7.788 7.788 0 0 1 7.006-3.928c1.36 0 2.614.262 3.765.89 1.15.524 2.091 1.362 2.98 2.357a13.74 13.74 0 0 1 1.882 12.36 11.547 11.547 0 0 1-2.143 3.561 9.615 9.615 0 0 1-7.164 3.143Zm-1.83-5.5a4.968 4.968 0 0 0 4.706-3.351 6.503 6.503 0 0 0-.993-6.232 4.233 4.233 0 0 0-3.451-1.676c-.994 0-1.935.366-2.824 1.047a7.496 7.496 0 0 0-1.986 2.723v4.504a5.123 5.123 0 0 0 4.6 2.933l-.052.053Zm15.059-24.823h6.536v22.257c0 1.676.68 2.462 2.091 2.462a4.595 4.595 0 0 0 2.144-.524l.889 4.87a14.933 14.933 0 0 1-5.804 1.258c-1.882 0-3.346-.524-4.34-1.467-1.046-1.047-1.568-2.409-1.568-4.294V6.766h.052Zm24 30.323a12.53 12.53 0 0 1-4.863-.89 10.31 10.31 0 0 1-5.909-6.023 12.06 12.06 0 0 1 2.196-12.046c1.046-1.047 2.196-1.833 3.66-2.461 1.412-.576 3.033-.89 4.863-.89a10.97 10.97 0 0 1 8.47 3.404c1.046.995 1.726 2.2 2.249 3.508a11.798 11.798 0 0 1-2.196 12.046 10.038 10.038 0 0 1-3.66 2.461 12.53 12.53 0 0 1-4.863.89h.052Zm-4.759-11.103c0 1.676.418 3.037 1.307 4.032.941 1.048 2.092 1.572 3.451 1.572a4.337 4.337 0 0 0 3.399-1.572 5.833 5.833 0 0 0 .993-1.78c.262-.681.366-1.467.366-2.252 0-1.728-.47-3.09-1.36-4.085-.888-1.048-2.038-1.571-3.398-1.571a4.441 4.441 0 0 0-3.398 1.57c-.419.525-.785 1.048-1.046 1.782-.262.733-.314 1.466-.314 2.304Zm33.934 10.736-5.595-8.694-2.3 2.41v6.284h-6.536V6.766h6.536V24.1l7.267-8.903h6.955l-7.739 9.27L251 36.722h-6.954Z" />
        <path fill="#0AB3AF"
            d="M2.327 0C1.034 0 0 1.033 0 2.273v40.602c0 1.24 1.034 2.015 2.275 2.015h5.997V53l7.446-8.058h27.195c1.241 0 2.017-.775 2.017-2.067V2.325c0-1.24-.724-2.325-2.017-2.325H2.327Z" />
        <path fill="#FFF"
            d="M29.102 8.115c1.033 0 1.912.206 2.738.67a7.12 7.12 0 0 1 2.067 1.653 7.739 7.739 0 0 1 1.757 5.007c0 1.343-.362 2.633-1.033 3.872a6.457 6.457 0 0 1-3.1 2.788c1.653.464 2.945 1.29 3.926 2.478.93 1.239 1.395 2.839 1.395 4.852 0 1.29-.235 2.44-.723 3.304-.517.93-1.292 1.704-2.222 2.272-.982.62-2.067 1.187-3.307 1.445-1.24.31-2.583.568-3.979.568H8.33V8.114h20.772Zm-2.968 16.157H15.778v4.883h10.107c.598 0 1.145-.244 1.593-.635.399-.39.648-.976.648-1.709a2.89 2.89 0 0 0-.548-1.758c-.398-.488-.846-.781-1.444-.781Zm-.846-9.767h-9.51V18.9h9.31c.498 0 .996-.244 1.395-.537.448-.293.647-.928.647-1.758 0-.733-.2-1.27-.548-1.612a2.013 2.013 0 0 0-1.294-.488Z" />
    </g>
</svg>