<svg xmlns="http://www.w3.org/2000/svg" width="156" height="40">
  <g fill="none" fill-rule="evenodd">
    <g class="logo-dark-mode" transform="translate(2 0)">
      <path fill="currentColor" fill-rule="nonzero"
        d="M34.04 13.048c.425 2.306.588 8.104.588 13.79 0 4.94-8.699 8.162-17.314 8.162C8.694 35 0 31.777 0 26.838c0-5.686.159-11.484.588-13.79.398-2.154 9.514-3.745 15.481-3.95V4.966a2.592 2.592 0 0 1-1.538-2.374C14.53 1.162 15.68 0 17.095 0c1.42 0 2.568 1.162 2.568 2.592a2.588 2.588 0 0 1-1.542 2.374v4.12c5.947.14 15.509 1.755 15.919 3.962ZM21.747 32.593c.497-.269.68-.9.413-1.402a1.018 1.018 0 0 0-1.391-.418c-.016.004-1.372.715-3.467.715-2.076 0-3.407-.699-3.443-.715a1.018 1.018 0 0 0-1.387.41 1.044 1.044 0 0 0 .405 1.41c.072.04 1.777.968 4.425.968 2.644 0 4.37-.928 4.445-.968ZM3.74 24.046c0 3.223 2.585 5.835 5.769 5.835 3.188 0 5.773-2.612 5.773-5.835 0-3.222-2.585-5.835-5.773-5.835-3.184 0-5.769 2.613-5.769 5.835Zm21.373 5.835c3.189 0 5.773-2.612 5.773-5.835 0-3.222-2.584-5.835-5.773-5.835-3.189 0-5.773 2.613-5.773 5.835 0 3.223 2.584 5.835 5.773 5.835Z" />
      <path fill="currentColor" fill-rule="nonzero"
        d="M10.794 26.638a1.292 1.292 0 0 1-1.284-1.294c0-.716.577-1.298 1.284-1.298.708 0 1.284.582 1.284 1.298 0 .711-.576 1.294-1.284 1.294ZM9.51 20.156c-2.12 0-3.844 1.744-3.844 3.89s1.725 3.89 3.844 3.89c2.122 0 3.848-1.744 3.848-3.89s-1.726-3.89-3.848-3.89ZM26.395 26.638a1.292 1.292 0 0 1-1.283-1.294c0-.716.576-1.298 1.283-1.298.708 0 1.284.582 1.284 1.298 0 .711-.576 1.294-1.284 1.294Zm-1.283-6.482c-2.118 0-3.843 1.744-3.843 3.89s1.725 3.89 3.843 3.89c2.122 0 3.847-1.744 3.847-3.89s-1.725-3.89-3.847-3.89Z" />
      <path fill="currentColor" fill-rule="nonzero"
        d="M54.69 15.082h-4.676v11.974h-2.338V15.082H43v-2.206h11.69v2.206M61.51 18.232h-3.118c-.526 0-.78.315-.78.946v7.878h-2.337v-7.878c0-2.148.993-3.152 3.117-3.152h3.118v2.206M70.666 21.777 65.99 22.96c-.702.176-.78.414-.78.945 0 .63.254.945.78.945h3.897c.526 0 .778-.314.778-.945v-2.127h.001Zm2.34-2.6v4.726c0 2.145-.994 3.15-3.118 3.15H65.99c-2.123 0-3.117-1.005-3.117-3.15 0-.946.312-1.595.994-1.99.701-.413 1.111-.55 2.123-.806l4.677-1.181v-.747c0-.63-.254-.946-.778-.946H65.99c-.525 0-.779.315-.779.946v.787h-2.338v-.787c0-2.148.994-3.152 3.117-3.152h3.898c2.123 0 3.116 1.003 3.116 3.15ZM83.04 19.178c0-.63-.254-.946-.779-.946h-3.898c-.527 0-.78.315-.78.946v7.878h-2.337v-7.878c0-2.148.994-3.152 3.117-3.152h3.898c2.123 0 3.116 1.004 3.116 3.152v7.878H83.04v-7.878M94.535 27.056h-3.898c-2.124 0-3.117-1.006-3.117-3.152v-.787h2.339v.787c0 .63.253.945.778.945h3.898c.526 0 .778-.314.778-.945 0-.452 0-.67-.778-.945l-3.898-.985c-1.014-.257-1.422-.393-2.124-.788-.682-.414-.993-1.063-.993-2.008 0-2.148.993-3.152 3.117-3.152h3.898c2.123 0 3.116 1.004 3.116 3.152v.787h-2.337v-.787c0-.63-.254-.946-.778-.946h-3.899c-.526 0-.777.315-.777.946 0 .45 0 .669.777.945l3.899.984c1.013.258 1.42.394 2.104.808.702.393 1.013 1.044 1.013 1.99-.001 2.145-.994 3.15-3.118 3.15M102.523 24.849h1.948v2.204h-1.948c-1.95 0-2.728-.787-2.728-2.757V12.875h2.338v11.422c0 .394.059.552.39.552M113.726 19.178c0-.63-.254-.946-.78-.946h-3.896c-.528 0-.78.315-.78.946v4.725c0 .63.254.946.78.946h3.897c.526 0 .778-.317.778-.946v-4.725Zm2.339 0v4.725c0 2.145-.957 3.15-3.118 3.15h-3.897c-2.163 0-3.117-1.005-3.117-3.15v-4.725c0-2.148.955-3.152 3.117-3.152h3.897c2.163 0 3.118 1.004 3.118 3.152ZM125.904 21.777l-4.676 1.182c-.703.176-.78.414-.78.945 0 .63.253.945.78.945h3.897c.526 0 .779-.314.779-.945v-2.127Zm2.337-2.6v4.726c0 2.145-.992 3.15-3.116 3.15h-3.897c-2.123 0-3.118-1.005-3.118-3.15 0-.946.312-1.595.995-1.99.7-.413 1.109-.55 2.123-.806l4.676-1.181v-.747c0-.63-.254-.946-.779-.946h-3.897c-.527 0-.78.315-.78.946v.787h-2.338v-.787c0-2.148.995-3.152 3.118-3.152h3.897c2.123 0 3.116 1.003 3.116 3.15ZM138.178 23.904v-5.671h-4.676c-.527 0-.779.314-.779.945v4.725c0 .63.253.946.78.946h3.896c.526 0 .78-.314.78-.945Zm2.338-11.028v11.028c0 2.146-.955 3.152-3.117 3.152h-3.897c-2.164 0-3.117-1.006-3.117-3.152V19.18c0-2.148.954-3.151 3.117-3.151h4.676v-3.152h2.338ZM145.192 16.122v10.931h-2.338V16.122h2.338z" />
      <circle cx="143.938" cy="13.494" r="1.494" fill="currentColor" />
      <path fill="currentColor" fill-rule="nonzero"
        d="M153.765 24.849v2.204h-3.507c-1.947 0-2.726-.787-2.726-2.757V12.875h2.337v3.151h3.507v2.206h-3.507v6.063c0 .395.06.553.39.553h3.506" />
    </g>
    <g class="logo-light-mode" style="display: none;">
      <path fill="#FFF"
        d="M16.88 10.519c-.71-1.885-1.158-4.9-1.158-5.951a3.635 3.635 0 0 1 7.27 0c0 1.047-.443 4.04-1.15 5.928 6.281.338 15.013 1.948 15.415 4.089.45 2.413.622 8.48.622 14.433 0 5.162-9.198 8.534-18.308 8.534-9.115 0-18.309-3.372-18.309-8.534 0-5.953.168-12.02.623-14.433.39-2.095 8.751-3.681 14.996-4.066Z" />
      <path fill="#0D1419" fill-rule="nonzero"
        d="M14.416 27.211c0 .697-.568 1.26-1.264 1.26a1.263 1.263 0 1 1 0-2.524c.696 0 1.264.568 1.264 1.264M24.342 32.906c.262.49.082 1.104-.407 1.37-.074.036-1.773.94-4.376.94-2.607 0-4.286-.904-4.356-.944a1.008 1.008 0 1 1 .967-1.773c.035.016 1.346.697 3.389.697 2.063 0 3.398-.693 3.413-.697a1.009 1.009 0 0 1 1.37.407M29.775 27.211a1.263 1.263 0 1 1-2.523-.005 1.263 1.263 0 0 1 2.523.005" />
      <path fill="#0D1419" fill-rule="nonzero"
        d="M27.25 29.736a3.794 3.794 0 0 1-3.788-3.789 3.795 3.795 0 0 1 3.788-3.789 3.792 3.792 0 0 1 3.79 3.79 3.792 3.792 0 0 1-3.79 3.788m0-9.472a5.683 5.683 0 1 0 0 11.366 5.683 5.683 0 1 0 0-11.366" />
      <path fill="#0D1419" fill-rule="nonzero"
        d="M2.567 28.649c0-5.529.156-11.163.578-13.404.39-2.093 9.343-3.64 15.204-3.838V7.393a2.518 2.518 0 0 1 1.007-4.826 2.52 2.52 0 0 1 2.522 2.518c0 1.035-.624 1.921-1.514 2.308v4.002c5.84.136 15.231 1.706 15.633 3.85.418 2.24.578 7.875.578 13.404 0 4.795-8.543 7.926-17.004 7.926-8.465 0-17.004-3.131-17.004-7.926ZM30.31 9.98c-2.29-.47-4.96-.826-7.417-1.01v-.313a5.06 5.06 0 0 0 1.515-3.609A5.057 5.057 0 0 0 19.356 0a5.057 5.057 0 0 0-5.05 5.05 5.06 5.06 0 0 0 1.515 3.608v.348c-2.34.192-4.834.533-6.99.975-5.332 1.092-7.79 2.525-8.212 4.787C.079 17.657 0 24.718 0 28.671c0 6.8 10.083 10.47 19.57 10.47 9.489 0 19.572-3.67 19.572-10.47 0-3.953-.082-11.014-.623-13.903-.423-2.262-2.877-3.695-8.208-4.787Z" />
      <path fill="#0D1419" fill-rule="nonzero"
        d="M11.887 29.736a3.791 3.791 0 0 1-3.785-3.789 3.791 3.791 0 0 1 3.785-3.789 3.792 3.792 0 0 1 3.79 3.79 3.792 3.792 0 0 1-3.79 3.788m0-9.472a5.682 5.682 0 0 0-5.68 5.683 5.682 5.682 0 1 0 11.364 0 5.683 5.683 0 0 0-5.684-5.683M56.69 17.082h-4.676v11.974h-2.338V17.082H45v-2.206h11.69v2.206M63.51 20.232h-3.118c-.526 0-.78.315-.78.946v7.878h-2.337v-7.878c0-2.148.993-3.152 3.117-3.152h3.118v2.206M72.666 23.777 67.99 24.96c-.702.176-.78.414-.78.945 0 .63.254.945.78.945h3.897c.526 0 .778-.314.778-.945v-2.127h.001Zm2.34-2.6v4.726c0 2.145-.994 3.15-3.118 3.15H67.99c-2.123 0-3.117-1.005-3.117-3.15 0-.946.312-1.595.994-1.99.701-.413 1.111-.55 2.123-.806l4.677-1.181v-.747c0-.63-.254-.946-.778-.946H67.99c-.525 0-.779.315-.779.946v.787h-2.338v-.787c0-2.148.994-3.152 3.117-3.152h3.898c2.123 0 3.116 1.003 3.116 3.15ZM85.04 21.178c0-.63-.254-.946-.779-.946h-3.898c-.527 0-.78.315-.78.946v7.878h-2.337v-7.878c0-2.148.994-3.152 3.117-3.152h3.898c2.123 0 3.116 1.004 3.116 3.152v7.878H85.04v-7.878M96.535 29.056h-3.898c-2.124 0-3.117-1.006-3.117-3.152v-.787h2.339v.787c0 .63.253.945.778.945h3.898c.526 0 .778-.314.778-.945 0-.452 0-.67-.778-.945l-3.898-.985c-1.014-.257-1.422-.393-2.124-.788-.682-.414-.993-1.063-.993-2.008 0-2.148.993-3.152 3.117-3.152h3.898c2.123 0 3.116 1.004 3.116 3.152v.787h-2.337v-.787c0-.63-.254-.946-.778-.946h-3.899c-.526 0-.777.315-.777.946 0 .45 0 .669.777.945l3.899.984c1.013.258 1.42.394 2.104.808.702.393 1.013 1.044 1.013 1.99-.001 2.145-.994 3.15-3.118 3.15M104.523 26.849h1.948v2.204h-1.948c-1.95 0-2.728-.787-2.728-2.757V14.875h2.338v11.422c0 .394.059.552.39.552M115.726 21.178c0-.63-.254-.946-.78-.946h-3.896c-.528 0-.78.315-.78.946v4.725c0 .63.254.946.78.946h3.897c.526 0 .778-.317.778-.946v-4.725Zm2.339 0v4.725c0 2.145-.957 3.15-3.118 3.15h-3.897c-2.163 0-3.117-1.005-3.117-3.15v-4.725c0-2.148.955-3.152 3.117-3.152h3.897c2.163 0 3.118 1.004 3.118 3.152ZM127.904 23.777l-4.676 1.182c-.703.176-.78.414-.78.945 0 .63.253.945.78.945h3.897c.526 0 .779-.314.779-.945v-2.127Zm2.337-2.6v4.726c0 2.145-.992 3.15-3.116 3.15h-3.897c-2.123 0-3.118-1.005-3.118-3.15 0-.946.312-1.595.995-1.99.7-.413 1.109-.55 2.123-.806l4.676-1.181v-.747c0-.63-.254-.946-.779-.946h-3.897c-.527 0-.78.315-.78.946v.787h-2.338v-.787c0-2.148.995-3.152 3.118-3.152h3.897c2.123 0 3.116 1.003 3.116 3.15ZM140.178 25.904v-5.671h-4.676c-.527 0-.779.314-.779.945v4.725c0 .63.253.946.78.946h3.896c.526 0 .78-.314.78-.945Zm2.338-11.028v11.028c0 2.146-.955 3.152-3.117 3.152h-3.897c-2.164 0-3.117-1.006-3.117-3.152V21.18c0-2.148.954-3.151 3.117-3.151h4.676v-3.152h2.338ZM147.192 18.122v10.931h-2.338V18.122h2.338z" />
      <circle cx="145.938" cy="15.494" r="1.494" fill="#0D1419" />
      <path fill="#0D1419" fill-rule="nonzero"
        d="M155.765 26.849v2.204h-3.507c-1.947 0-2.726-.787-2.726-2.757V14.875h2.337v3.151h3.507v2.206h-3.507v6.063c0 .395.06.553.39.553h3.506" />
    </g>
  </g>
</svg>
