<svg xmlns="http://www.w3.org/2000/svg" width="450" height="74" fill="#fff">
  <path d="M112 58.8h-7.6v-39h6.7l.8 5c1-1.9 2.5-3.4 4.5-4.5a15 15 0 0 1 7.2-1.7c6.1 0 10.3 2.7 12.5 8 1-2.5 2.5-4.4 4.7-5.8 2.3-1.5 5-2.2 8-2.2 4.5 0 8 1.3 10.7 4 2.5 2.6 3.8 6.1 3.8 10.7v25.5H156V35.1c0-3-.8-5.4-2.4-7.1a8.2 8.2 0 0 0-6.4-2.6c-2.8 0-5.1 1-6.9 2.8a10.5 10.5 0 0 0-2.6 7.5v23.1h-7.5V35c0-3-.7-5.4-2.3-7a8.3 8.3 0 0 0-6.4-2.5 9 9 0 0 0-6.9 2.8 10.3 10.3 0 0 0-2.6 7.4v23.1Zm71 1c-4.3 0-7.6-1-10-3.2a11 11 0 0 1-3.5-8.6c0-3.6 1.2-6.5 3.7-8.6 2.6-2.2 6.2-3.5 11-3.8l12.3-1v-1.1c0-6-3-8.9-9.2-8.9-3.2 0-5.7.7-7.5 2a6.6 6.6 0 0 0-2.5 5.5h-6.6c0-4 1.5-7.3 4.6-9.7a19 19 0 0 1 12.3-3.8c5 0 9 1.4 11.9 4 3 2.7 4.4 6.6 4.4 11.7v24.5h-6.4l-.8-6.3c-1 2.3-2.8 4-5.3 5.4a18 18 0 0 1-8.5 1.9Zm2-5.8c3.7 0 6.5-1.1 8.5-3.2 2-2.2 3.1-5.2 3.1-8.8v-2.1l-10 .8c-6.3.6-9.5 3-9.5 7 0 2 .7 3.6 2.1 4.7a10 10 0 0 0 5.9 1.6Zm34.6 4.8H212v-39h6.8l.7 5c1-1.9 2.5-3.4 4.6-4.5a15 15 0 0 1 7.1-1.7c6.2 0 10.3 2.7 12.5 8 1-2.5 2.5-4.4 4.8-5.8a14 14 0 0 1 8-2.2c4.5 0 8 1.3 10.6 4 2.6 2.6 3.8 6.1 3.8 10.7v25.5h-7.4V35.1c0-3-.8-5.4-2.4-7.1a8.2 8.2 0 0 0-6.3-2.6c-2.9 0-5.2 1-7 2.8a10.5 10.5 0 0 0-2.5 7.5v23.1h-7.5V35c0-3-.8-5.4-2.4-7a8.3 8.3 0 0 0-6.3-2.5 9 9 0 0 0-7 2.8 10.3 10.3 0 0 0-2.5 7.4v23.1Zm67 0H279v-39h6.8l.7 5a11 11 0 0 1 4.6-4.5 15 15 0 0 1 7.2-1.7c6 0 10.3 2.7 12.5 8 .9-2.5 2.4-4.4 4.7-5.8 2.3-1.5 5-2.2 8-2.2 4.5 0 8 1.3 10.6 4 2.6 2.6 3.9 6.1 3.9 10.7v25.5h-7.4V35.1c0-3-.8-5.4-2.5-7.1a8.2 8.2 0 0 0-6.3-2.6c-2.9 0-5.2 1-7 2.8a10.5 10.5 0 0 0-2.5 7.5v23.1h-7.5V35c0-3-.8-5.4-2.3-7a8.3 8.3 0 0 0-6.4-2.5 9 9 0 0 0-7 2.8 10.3 10.3 0 0 0-2.5 7.4v23.1Zm62.7-4.8a20 20 0 0 1-5.8-14.7c0-6 1.9-11 5.8-14.8a20 20 0 0 1 14.7-5.8 20 20 0 0 1 20.5 20.5c0 6-2 11-5.8 14.8a20 20 0 0 1-14.7 5.8c-6 0-10.9-2-14.7-5.8Zm5.4-24.7a14.1 14.1 0 0 0-3.6 10c0 4 1.2 7.4 3.6 10 2.4 2.5 5.5 3.8 9.3 3.8a12 12 0 0 0 9.3-3.9c2.4-2.6 3.6-5.9 3.6-10 0-4-1.2-7.3-3.6-9.9a12 12 0 0 0-9.3-3.9 12 12 0 0 0-9.3 3.9Zm46.4 29.5h-7.5V26.1h-7.8v-6.4h7.8V7.5h7.5v12.2h7.8v6.4H401v32.7Zm19.7 0h-7.5V0h7.5v25.7a15 15 0 0 1 5.4-5.2c2.3-1.2 5-1.9 8-1.9 5 0 8.6 1.5 11.1 4.3 2.5 3 3.8 7 3.8 12v24h-7.6V36.5c0-7.4-3.1-11.1-9.4-11.1-3.5 0-6.3 1.1-8.3 3.4-2 2.3-3 5.1-3 8.6v21.3Z"/>
  <path fill-rule="evenodd" d="M15.3 1.6C7 1.6 0 8.5 0 16.9v41c0 8.4 6.9 15.3 15.3 15.3h41c8.5 0 15.3-6.9 15.3-15.3v-41c0-8.4-6.8-15.3-15.3-15.3h-41ZM30.1 22c-11 0-19.9 8.9-19.9 19.8v10.9h10.3V32.3h10.2v20.5h10.2V32.3h2.6c4.2 0 7.7 3.4 7.7 7.7v12.8h10.2V41.9c0-11-9-19.8-19.9-19.8H41v10.2H30.7V22h-.6Z" />
</svg>
