<svg xmlns="http://www.w3.org/2000/svg" viewBox="0 0 304 182">
  <path fill="#fff" d="M86.4 66.4c0 3.7.4 6.7 1.1 8.9.8 2.2 1.8 4.6 3.2 7.2.5.8.7 1.6.7 2.3 0 1-.6 2-1.9 3L83.2 92c-.9.6-1.8.9-2.6.9-1 0-2-.5-3-1.4a31 31 0 0 1-3.6-4.7l-3.1-5.9a37 37 0 0 1-29.4 13.8c-8.4 0-15.1-2.4-20-7.2a25.7 25.7 0 0 1-7.4-19.2c0-8.5 3-15.4 9.1-20.6a36.4 36.4 0 0 1 24.5-7.8c3.4 0 6.9.3 10.6.8 3.7.5 7.5 1.3 11.5 2.2v-7.3c0-7.6-1.6-12.9-4.7-16-3.2-3.1-8.6-4.6-16.3-4.6-3.5 0-7.1.4-10.8 1.3A79.7 79.7 0 0 0 23.7 21l-1.6.3c-1.4 0-2.1-1-2.1-3.1v-4.9c0-1.6.2-2.8.7-3.5.5-.7 1.4-1.4 2.8-2.1a60.6 60.6 0 0 1 28.2-6.4c11.9 0 20.6 2.7 26.2 8.1 5.5 5.4 8.3 13.6 8.3 24.6v32.4zM45.8 81.6c3.3 0 6.7-.6 10.3-1.8 3.6-1.2 6.8-3.4 9.5-6.4 1.6-1.9 2.8-4 3.4-6.4.6-2.4 1-5.3 1-8.7v-4.2a83.5 83.5 0 0 0-18.6-2.3c-6.7 0-11.6 1.3-14.9 4-3.3 2.7-4.9 6.5-4.9 11.5 0 4.7 1.2 8.2 3.7 10.6 2.4 2.5 5.9 3.7 10.5 3.7zm80.3 10.8c-1.8 0-3-.3-3.8-1-.8-.6-1.5-2-2.1-3.9L96.7 10.2c-.6-2-.9-3.3-.9-4 0-1.6.8-2.5 2.4-2.5h9.8c1.9 0 3.2.3 3.9 1 .8.6 1.4 2 2 3.9l16.8 66.2 15.6-66.2c.5-2 1.1-3.3 1.9-3.9.8-.6 2.2-1 4-1h8c1.9 0 3.2.3 4 1 .8.6 1.5 2 1.9 3.9l15.8 67 17.3-67c.6-2 1.3-3.3 2-3.9.8-.6 2.1-1 3.9-1h9.3c1.6 0 2.5.8 2.5 2.5l-.2 1.6-.7 2.5-24.1 77.3c-.6 2-1.3 3.3-2.1 3.9-.8.6-2.1 1-3.8 1h-8.6c-1.9 0-3.2-.3-4-1-.8-.7-1.5-2-1.9-4L156 23l-15.4 64.4c-.5 2-1.1 3.3-1.9 4-.8.7-2.2 1-4 1h-8.6zm128.5 2.7a66.2 66.2 0 0 1-26.9-5.8c-1.6-.9-2.7-1.9-3.1-2.8a7 7 0 0 1-.6-2.8v-5.1c0-2.1.8-3.1 2.3-3.1l1.8.3 2.5 1a54.4 54.4 0 0 0 22.9 4.7 27 27 0 0 0 14.6-3.3c3.4-2.2 5.2-5.4 5.2-9.5 0-2.8-.9-5.1-2.7-7a25 25 0 0 0-10.1-5.2L246 52a30.5 30.5 0 0 1-16-10.2A23.8 23.8 0 0 1 234.9 8c3-2.3 6.4-4 10.4-5.2a43.6 43.6 0 0 1 19.3-1.3l6.5 1.1 5.7 1.6c1.8.6 3.2 1.2 4.2 1.8 1.4.8 2.4 1.6 3 2.5.6.8.9 1.9.9 3.3v4.7c0 2.1-.8 3.2-2.3 3.2-.8 0-2.1-.4-3.8-1.2a45.7 45.7 0 0 0-19.2-3.9c-5.7 0-10.2.9-13.3 2.8-3.1 1.9-4.7 4.8-4.7 8.9 0 2.8 1 5.2 3 7.1 2 1.9 5.7 3.8 11 5.5l14.2 4.5a30.4 30.4 0 0 1 15.5 9.6c3.1 4.1 4.6 8.8 4.6 14 0 4.3-.9 8.2-2.6 11.6a26.9 26.9 0 0 1-7.3 8.8 32.2 32.2 0 0 1-11.1 5.6 47.6 47.6 0 0 1-14.3 2.1z"/>
  <path d="M273.5 143.7c-32.9 24.3-80.7 37.2-121.8 37.2A220.3 220.3 0 0 1 3 124.2c-3.1-2.8-.3-6.6 3.4-4.4a299.9 299.9 0 0 0 148.8 39.5 297 297 0 0 0 113.5-23.2c5.5-2.5 10.2 3.6 4.8 7.6z" class="st1"/>
  <path d="M287.2 128.1c-4.2-5.4-27.8-2.6-38.5-1.3-3.2.4-3.7-2.4-.8-4.5 18.8-13.2 49.7-9.4 53.3-5 3.6 4.5-1 35.4-18.6 50.2-2.7 2.3-5.3 1.1-4.1-1.9 4-9.9 12.9-32.2 8.7-37.5z" class="st1"/>
</svg>