<svg xmlns="http://www.w3.org/2000/svg" fill="currentColor" viewBox="0 0 33 32">
  <path d="M18.399 16.293a6.56 6.56 0 0 0 2.266-4.96 6.666 6.666 0 0 0-13.333 0 6.56 6.56 0 0 0 2.267 4.96A10.667 10.667 0 0 0 3.332 26a1.333 1.333 0 0 0 2.667 0 8 8 0 0 1 16 0 1.334 1.334 0 0 0 2.666 0 10.667 10.667 0 0 0-6.266-9.707Zm-4.4-.96a4 4 0 1 1 0-8 4 4 0 0 1 0 8Zm15.613-3.16a1.332 1.332 0 0 0-1.893 0l-2.667 2.667-.827-.84a1.335 1.335 0 1 0-1.893 1.88l1.787 1.787a1.333 1.333 0 0 0 1.88 0l3.56-3.56a1.334 1.334 0 0 0 .053-1.934Z"/>
</svg>
