<svg xmlns="http://www.w3.org/2000/svg" fill="currentColor" viewBox="0 0 33 32">
	<path d="M25.999 2.667H7.332a4 4 0 0 0-4 4v18.666a4 4 0 0 0 4 4h18.667c.219-.003.438-.025.653-.066l.4-.094h.16l.493-.186.174-.094c.133-.08.28-.146.413-.24.178-.13.347-.273.507-.426l.093-.12c.13-.133.251-.276.36-.427l.12-.173c.093-.149.174-.305.24-.467.037-.064.068-.13.093-.2.067-.16.107-.333.16-.507v-.2c.076-.26.12-.529.134-.8V6.667a4 4 0 0 0-4-4Zm-18.667 24a1.333 1.333 0 0 1-1.333-1.334v-5.746l4.386-4.4a1.334 1.334 0 0 1 1.894 0l11.466 11.48H7.332Zm20-1.334a1.333 1.333 0 0 1-.093.48c-.03.065-.066.128-.107.187-.036.056-.076.11-.12.16l-7.133-7.133 1.173-1.174a1.334 1.334 0 0 1 1.893 0l4.387 4.4v3.08Zm0-6.853L24.825 16a4.107 4.107 0 0 0-5.653 0l-1.173 1.173-3.84-3.84a4.107 4.107 0 0 0-5.654 0L6 15.813V6.667a1.333 1.333 0 0 1 1.333-1.334H26a1.333 1.333 0 0 1 1.333 1.334V18.48Z"/>
</svg>
