<svg xmlns="http://www.w3.org/2000/svg" fill="currentColor" viewBox="0 0 33 32">
	<path d="M23 29.333H7a4 4 0 0 1-4-4V12a4 4 0 0 1 4-4h1.333a5.333 5.333 0 0 1 9.734-2.907c.598.852.923 1.866.933 2.907h4a1.333 1.333 0 0 1 1.333 1.333v4a5.333 5.333 0 0 1 2.907 9.734 5.147 5.147 0 0 1-2.907.933v4A1.333 1.333 0 0 1 23 29.333ZM7 10.667A1.334 1.334 0 0 0 5.667 12v13.333A1.333 1.333 0 0 0 7 26.667h14.667v-4.24a1.332 1.332 0 0 1 1.773-1.267 2.36 2.36 0 0 0 2.32-.307A2.667 2.667 0 0 0 27 19.027a2.667 2.667 0 0 0-.64-2.12 2.52 2.52 0 0 0-2.893-.734 1.334 1.334 0 0 1-1.774-1.266v-4.24h-4.266a1.333 1.333 0 0 1-1.334-1.774 2.36 2.36 0 0 0-.306-2.32 2.588 2.588 0 0 0-4-.573A2.668 2.668 0 0 0 11 8c.003.306.062.608.173.893a1.333 1.333 0 0 1-1.266 1.774H7Z"/>
</svg>
