<svg xmlns="http://www.w3.org/2000/svg" fill="currentColor" viewBox="0 0 33 32">
	<path d="M17.668 14.667H3.001A1.334 1.334 0 0 0 1.668 16v12a1.333 1.333 0 0 0 1.333 1.333h14.667A1.333 1.333 0 0 0 19.001 28V16a1.333 1.333 0 0 0-1.333-1.333Zm-7.413 12 2.573-2.574a.4.4 0 0 1 .667 0l2.56 2.574h-5.8Zm6.08-3.494-.96-.946a3.214 3.214 0 0 0-4.44 0l-4.454 4.44H4.335v-9.334h12v5.84ZM3 5.48a1.333 1.333 0 0 0 1.147-.653A1.4 1.4 0 0 0 4.401 4a1.333 1.333 0 0 0-1.4-1.333A1.333 1.333 0 0 0 1.668 4v.133A1.333 1.333 0 0 0 3.001 5.48Zm10.547-.147h.253a1.333 1.333 0 0 0 0-2.666h-.253a1.333 1.333 0 0 0 0 2.666ZM3.001 11.707a1.334 1.334 0 0 0 1.334-1.334v-.293a1.333 1.333 0 0 0-2.667 0v.293a1.333 1.333 0 0 0 1.333 1.334Zm16.12-9.04h-.253a1.333 1.333 0 0 0 0 2.666h.253a1.333 1.333 0 0 0 0-2.666ZM8.215 5.333h.253a1.333 1.333 0 1 0 0-2.666h-.253a1.333 1.333 0 1 0 0 2.666Zm21.453 3.2a1.333 1.333 0 0 0-1.333 1.334v.28a1.333 1.333 0 0 0 2.666 0v-.28a1.333 1.333 0 0 0-1.333-1.334Zm-6.507 18.134h-.32a1.333 1.333 0 1 0 0 2.666h.32a1.334 1.334 0 0 0 0-2.666Zm6.374-24A1.333 1.333 0 0 0 28.335 4c.003.194.048.385.133.56a1.333 1.333 0 0 0 2.533-.413V4a1.454 1.454 0 0 0-1.466-1.333Zm.133 11.866a1.333 1.333 0 0 0-1.333 1.334v.293a1.333 1.333 0 1 0 2.666 0v-.293a1.333 1.333 0 0 0-1.333-1.334ZM24.455 2.667H24.2a1.333 1.333 0 1 0 0 2.666h.254a1.333 1.333 0 1 0 0-2.666Zm5.213 24c-.205 0-.406.05-.587.146A1.333 1.333 0 0 0 28.335 28a1.334 1.334 0 0 0 1.333 1.333 1.453 1.453 0 0 0 1.333-1.466 1.334 1.334 0 0 0-1.333-1.2Zm0-6.08a1.334 1.334 0 0 0-1.333 1.333v.293a1.334 1.334 0 0 0 2.666 0v-.346a1.333 1.333 0 0 0-1.333-1.334v.054Z"/>
</svg>
