<svg xmlns="http://www.w3.org/2000/svg" fill="currentColor" viewBox="0 0 33 32">
	<path d="M12.667 20a1.334 1.334 0 1 0 0 2.667 1.334 1.334 0 0 0 0-2.667Zm-9.334-1.333A1.333 1.333 0 0 0 2 20v2.667a1.334 1.334 0 1 0 2.667 0V20a1.333 1.333 0 0 0-1.334-1.333Zm26.667 0A1.333 1.333 0 0 0 28.667 20v2.667a1.333 1.333 0 1 0 2.666 0V20A1.333 1.333 0 0 0 30 18.667Zm-6.667-9.334H18V7.627a2.667 2.667 0 0 0 1.333-2.294 2.667 2.667 0 1 0-5.333 0 2.667 2.667 0 0 0 1.333 2.294v1.706H10a4 4 0 0 0-4 4v12a4 4 0 0 0 4 4h13.333a4 4 0 0 0 4-4v-12a4 4 0 0 0-4-4ZM18.96 12l-.667 2.667H15.04L14.373 12h4.587Zm5.707 13.333a1.333 1.333 0 0 1-1.334 1.334H10a1.333 1.333 0 0 1-1.333-1.334v-12A1.333 1.333 0 0 1 10 12h1.627l1.04 4.32A1.333 1.333 0 0 0 14 17.333h5.333a1.333 1.333 0 0 0 1.334-1.013l1.04-4.32h1.626a1.333 1.333 0 0 1 1.334 1.333v12Zm-4-5.333a1.334 1.334 0 1 0 0 2.667 1.334 1.334 0 0 0 0-2.667Z"/>
</svg>
