<svg xmlns="http://www.w3.org/2000/svg" fill="currentColor" viewBox="0 0 32 32">
	<path d="M16 26.667H6.665a1.333 1.333 0 0 1-1.333-1.334V6.667a1.333 1.333 0 0 1 1.333-1.334h6.667v4a4 4 0 0 0 4 4h4v1.334a1.334 1.334 0 0 0 2.666 0V11.92a1.746 1.746 0 0 0-.08-.36v-.12a1.431 1.431 0 0 0-.253-.373l-8-8a1.426 1.426 0 0 0-.373-.254.427.427 0 0 0-.12 0 1.174 1.174 0 0 0-.44-.146H6.666a4 4 0 0 0-4 4v18.666a4 4 0 0 0 4 4h9.333a1.334 1.334 0 0 0 0-2.666Zm0-19.454 3.453 3.454h-2.12a1.333 1.333 0 0 1-1.334-1.334v-2.12Zm-6.667 3.454a1.333 1.333 0 0 0 0 2.666h1.333a1.333 1.333 0 0 0 0-2.666H9.333Zm19.613 16.386-1.56-1.546a4.587 4.587 0 0 0-.72-5.507 4.652 4.652 0 0 0-8 3.32 4.614 4.614 0 0 0 6.84 4.067l1.547 1.56a1.332 1.332 0 0 0 1.893 0 1.333 1.333 0 0 0 0-1.894Zm-4.227-2.333a2.054 2.054 0 0 1-2.813 0 2 2 0 0 1-.573-1.4 1.946 1.946 0 0 1 .586-1.413 1.973 1.973 0 0 1 1.334-.574 1.96 1.96 0 0 1 2.08 1.987 2 2 0 0 1-.614 1.4ZM17.333 16h-8a1.334 1.334 0 0 0 0 2.667h8a1.333 1.333 0 1 0 0-2.667Zm-2.667 8a1.333 1.333 0 0 0 0-2.667H9.333a1.334 1.334 0 0 0 0 2.667h5.333Z"/>
</svg>
