<svg width="18" height="18" viewBox="0 0 18 18" fill="none" xmlns="http://www.w3.org/2000/svg">
<g clip-path="url(#clip0_2316_78179)">
<path d="M9 0C4.05 0 0 4.05 0 9C0 13.95 4.05 18 9 18C13.95 18 18 13.95 18 9C18 4.05 13.95 0 9 0ZM3.98571 14.0143C2.63571 12.6643 1.92857 10.8643 1.92857 9.12857L8.93571 16.0714C7.13571 16.0071 5.33571 15.3643 3.98571 14.0143ZM10.5429 15.8786L2.12143 7.45714C2.82857 4.30714 5.65714 1.92857 9 1.92857C11.3786 1.92857 13.4357 3.08571 14.7214 4.82143L13.7571 5.65714C12.6643 4.17857 10.9286 3.21429 9 3.21429C6.49286 3.21429 4.37143 4.82143 3.53571 7.07143L10.9286 14.4643C12.7929 13.8214 14.2071 12.2143 14.6571 10.2857H11.5714V9H16.0714C16.0714 12.3429 13.6929 15.1714 10.5429 15.8786Z" fill="white"/>
</g>
<defs>
<clipPath id="clip0_2316_78179">
<rect width="18" height="18" fill="white"/>
</clipPath>
</defs>
</svg>