<svg width="20" height="20" viewBox="0 0 20 20" fill="none" xmlns="http://www.w3.org/2000/svg">
<g clip-path="url(#clip0_2316_78185)">
<path d="M19.25 10C19.25 15.1086 15.1086 19.25 10 19.25C4.89137 19.25 0.75 15.1086 0.75 10C0.75 4.89137 4.89137 0.75 10 0.75C15.1086 0.75 19.25 4.89137 19.25 10Z" stroke="white" stroke-width="1.5"/>
<path d="M16.612 17.5022L7.68244 6H6V13.9967H7.34596V7.70929L15.5554 18.3161C15.9259 18.0682 16.2788 17.7961 16.612 17.5022Z" fill="url(#paint0_linear_2316_78185)"/>
<path d="M14.1107 6H12.7773V14H14.1107V6Z" fill="url(#paint1_linear_2316_78185)"/>
</g>
<defs>
<linearGradient id="paint0_linear_2316_78185" x1="12.1111" y1="12.9444" x2="16.0556" y2="17.8333" gradientUnits="userSpaceOnUse">
<stop stop-color="white"/>
<stop offset="1" stop-color="white" stop-opacity="0"/>
</linearGradient>
<linearGradient id="paint1_linear_2316_78185" x1="13.444" y1="6" x2="13.4217" y2="11.875" gradientUnits="userSpaceOnUse">
<stop stop-color="white"/>
<stop offset="1" stop-color="white" stop-opacity="0"/>
</linearGradient>
<clipPath id="clip0_2316_78185">
<rect width="20" height="20" fill="white"/>
</clipPath>
</defs>
</svg>
