<svg width="22" height="22" viewBox="0 0 22 22" fill="none" xmlns="http://www.w3.org/2000/svg">
<path d="M12.0931 17.0873H18.8341C19.0492 17.0873 19.2551 17.0117 19.4413 16.9051C19.6277 16.7985 19.8197 16.6646 19.9272 16.4799C20.0347 16.2953 20.1095 16.0858 20.1094 15.8726C20.1093 15.6594 20.0349 15.45 19.9272 15.2654L15.3725 7.43132C15.265 7.24668 15.1336 7.11279 14.9474 7.00618C14.7611 6.89962 14.4944 6.824 14.2794 6.824C14.0643 6.824 13.8583 6.89962 13.6721 7.00618C13.4858 7.11279 13.3545 7.24668 13.247 7.43132L12.0931 9.43538L9.7854 5.54855C9.67781 5.36396 9.54663 5.16944 9.36031 5.06288C9.174 4.95627 8.96814 4.94141 8.75304 4.94141C8.53793 4.94141 8.33203 4.95627 8.14572 5.06288C7.95945 5.16944 7.7675 5.36396 7.65991 5.54855L2.01209 15.2654C1.90441 15.45 1.89072 15.6594 1.89063 15.8726C1.89053 16.0858 1.90457 16.2953 2.01209 16.4799C2.1196 16.6646 2.31163 16.7985 2.49792 16.9051C2.68421 17.0117 2.89009 17.0873 3.10521 17.0873H7.35625C9.04067 17.0873 10.2667 16.3316 11.1215 14.901L13.1863 11.318L14.2794 9.43538L17.6195 15.1439H13.1863L12.0931 17.0873ZM7.29554 15.1439H4.31978L8.75304 7.49203L11 11.318L9.51161 13.9126C8.94399 14.8408 8.29679 15.1439 7.29554 15.1439Z" fill="white"/>
</svg>
