<svg xmlns="http://www.w3.org/2000/svg" fill="none" viewBox="0 0 200 55">
  <path fill="#fff" fill-rule="evenodd" d="m35.02 22.27-3.15-6.83-3.16 6.83c-.04.1-.1.2-.15.29L26.8 20.8a1.18 1.18 0 1 0-1.67 1.68l1.75 1.74-.2.1-.05.02-6.83 3.16 6.83 3.16.24.11-1.74 1.76a1.18 1.18 0 1 0 1.67 1.67l1.76-1.76.15.3 3.16 6.82 3.15-6.83.13-.24 1.7 1.71a1.18 1.18 0 1 0 1.68-1.67l-1.72-1.72.3-.15 6.82-3.16-6.83-3.16-.29-.14 1.72-1.73a1.18 1.18 0 1 0-1.67-1.67l-1.71 1.7a4.22 4.22 0 0 1-.11-.2l-.02-.03Zm-3.16.36-.42.9a7.27 7.27 0 0 1-3.55 3.55l-.9.42.9.42a7.27 7.27 0 0 1 3.55 3.55l.42.9.41-.9a7.27 7.27 0 0 1 3.56-3.55l.9-.42-.9-.42a7.27 7.27 0 0 1-3.56-3.55l-.41-.9Z" clip-rule="evenodd"/>
  <path fill="url(#a)" fill-rule="evenodd" d="m35.02 22.27-3.15-6.83-3.16 6.83c-.04.1-.1.2-.15.29L26.8 20.8a1.18 1.18 0 1 0-1.67 1.68l1.75 1.74-.2.1-.05.02-6.83 3.16 6.83 3.16.24.11-1.74 1.76a1.18 1.18 0 1 0 1.67 1.67l1.76-1.76.15.3 3.16 6.82 3.15-6.83.13-.24 1.7 1.71a1.18 1.18 0 1 0 1.68-1.67l-1.72-1.72.3-.15 6.82-3.16-6.83-3.16-.29-.14 1.72-1.73a1.18 1.18 0 1 0-1.67-1.67l-1.71 1.7a4.22 4.22 0 0 1-.11-.2l-.02-.03Zm-3.16.36-.42.9a7.27 7.27 0 0 1-3.55 3.55l-.9.42.9.42a7.27 7.27 0 0 1 3.55 3.55l.42.9.41-.9a7.27 7.27 0 0 1 3.56-3.55l.9-.42-.9-.42a7.27 7.27 0 0 1-3.56-3.55l-.41-.9Z" clip-rule="evenodd"/>
  <path fill="#fff" d="M42.08 18.93a1.18 1.18 0 0 0-1.68-1.68l-.56.57a1.18 1.18 0 0 0 1.67 1.67l.57-.56Z"/>
  <path fill="url(#b)" d="M42.08 18.93a1.18 1.18 0 0 0-1.68-1.68l-.56.57a1.18 1.18 0 0 0 1.67 1.67l.57-.56Z"/>
  <path fill="#fff" d="M24 19.68c-.45.46-1.2.46-1.67 0l-.56-.56a1.18 1.18 0 0 1 1.68-1.68l.56.57c.46.46.46 1.2 0 1.67Z"/>
  <path fill="url(#c)" d="M24 19.68c-.45.46-1.2.46-1.67 0l-.56-.56a1.18 1.18 0 0 1 1.68-1.68l.56.57c.46.46.46 1.2 0 1.67Z"/>
  <path fill="#fff" d="M24 35.32a1.18 1.18 0 0 0-1.67 0l-.56.56a1.18 1.18 0 0 0 1.68 1.68l.56-.57c.46-.46.46-1.2 0-1.67Z"/>
  <path fill="url(#d)" d="M24 35.32a1.18 1.18 0 0 0-1.67 0l-.56.56a1.18 1.18 0 0 0 1.68 1.68l.56-.57c.46-.46.46-1.2 0-1.67Z"/>
  <path fill="#fff" d="M42.08 36.07a1.18 1.18 0 0 1-1.68 1.68l-.56-.57a1.18 1.18 0 0 1 1.67-1.67l.57.56Z"/>
  <path fill="url(#e)" d="M42.08 36.07a1.18 1.18 0 0 1-1.68 1.68l-.56-.57a1.18 1.18 0 0 1 1.67-1.67l.57.56Z"/>
  <path fill="#23262D" fill-rule="evenodd" d="M121.52 34.02h-3.55a91.84 91.84 0 0 0 .06-3.93v-6.51l-.01-2.05c0-.65 0-1.3-.02-1.96l-.03-2.07h3.57l-.06 2.03v12.55l.04 1.94Zm44.45 0h-3.63a114.37 114.37 0 0 0 .04-4.18c.02-.83.03-1.7.03-2.63 0-.84-.14-1.5-.43-2a2.35 2.35 0 0 0-1.32-1.11c-.6-.25-1.4-.37-2.41-.37-.7 0-1.36.08-1.99.24-.61.15-1.15.4-1.62.72-.46.33-.81.76-1.07 1.28a4.07 4.07 0 0 0-.38 1.84v3.44l.02 1.15v.9l.02.72h-3.63a90.31 90.31 0 0 0 .06-3.9v-4.81l-.01-2.1v-2.05c0-.67-.01-1.3-.03-1.92 0-.63 0-1.2-.02-1.75h3.67a664.62 664.62 0 0 1-.06 3.95 64.35 64.35 0 0 1-.05 2.5l.12.03c.24-.5.54-.95.91-1.31.6-.6 1.35-1.04 2.26-1.33.93-.28 2.02-.42 3.27-.42.98 0 1.86.1 2.63.32a5.1 5.1 0 0 1 1.94.98c.54.42.95.98 1.24 1.66.28.67.42 1.47.42 2.4 0 .4 0 .78-.02 1.1v.92c0 .29 0 .56-.02.81v2.91l.06 2Zm-35.18-8.47a3.64 3.64 0 0 1 1.92-3.29 7.72 7.72 0 0 1 2.4-.83 17.66 17.66 0 0 1 4.13-.26h1.54c.63 0 1.31 0 2.05.02.75.02 1.52.02 2.3.02h2.31v.43c0 .21 0 .46-.02.73v.72l.02.5a26.45 26.45 0 0 1-2.18-.1 256.73 256.73 0 0 0-1.92-.12v.14a6.23 6.23 0 0 1 2.03.93c.27.21.47.47.6.79.13.3.19.64.19 1.04a2.52 2.52 0 0 1-.7 1.8 3.6 3.6 0 0 1-.94.7c-.4.2-.89.37-1.46.51-.56.14-1.23.26-2 .34-.77.07-1.65.11-2.63.11-1.36 0-2.52-.09-3.49-.26l-.22.2c-.14.15-.25.32-.32.49-.07.15-.1.32-.1.49 0 .27.1.46.31.57a2 2 0 0 0 .92.18 85.08 85.08 0 0 0 5.25-.15c.77-.03 1.49-.05 2.16-.05 1 0 1.83.1 2.47.28.66.19 1.14.48 1.45.9.33.41.5.95.5 1.62 0 .37-.06.71-.18 1.02-.1.32-.27.6-.5.86-.25.25-.58.48-1.01.68-.41.2-.94.37-1.58.51-.64.15-1.4.25-2.28.32a56 56 0 0 1-6.87 0 20.4 20.4 0 0 1-2.5-.3 5.4 5.4 0 0 1-1.46-.47 1.7 1.7 0 0 1-.68-.64 1.65 1.65 0 0 1 .04-1.53c.16-.23.39-.43.69-.6a5.15 5.15 0 0 1 1.58-.57v-.09a2.94 2.94 0 0 1-.67-.28 1.54 1.54 0 0 1-.57-.6 1.7 1.7 0 0 1-.17-.77c0-.44.13-.82.4-1.15.29-.33.67-.6 1.16-.8.3-.15.64-.28 1-.37v-.05a6.1 6.1 0 0 1-1.26-.55 3.73 3.73 0 0 1-1.3-1.32 3.78 3.78 0 0 1-.4-1.75Zm2.97 8.17.35-.28c.27.02.57.03.89.03a73.13 73.13 0 0 0 3.56-.09 91.87 91.87 0 0 1 3.76-.1c.44 0 .78.03 1.02.1.26.06.44.16.54.3.11.13.17.3.17.51a.8.8 0 0 1-.26.58 1.8 1.8 0 0 1-.83.42c-.39.12-.92.2-1.6.26a34.37 34.37 0 0 1-6.43-.1c-.4-.06-.7-.14-.91-.24a.98.98 0 0 1-.45-.34.83.83 0 0 1 .2-1.05Zm9.22-8.17c0-.46-.16-.85-.47-1.18a2.9 2.9 0 0 0-1.45-.74 9.67 9.67 0 0 0-2.56-.28c-1.07 0-1.94.1-2.6.28-.68.17-1.17.42-1.48.74a1.63 1.63 0 0 0 0 2.24c.3.3.78.54 1.43.7.67.18 1.55.26 2.65.26 1.06 0 1.93-.07 2.58-.23.65-.17 1.13-.4 1.43-.7.31-.32.47-.68.47-1.1Zm-14.53-6.36a1.25 1.25 0 0 0 .02-.84.57.57 0 0 0-.19-.3.85.85 0 0 0-.38-.23 5.67 5.67 0 0 0-1.54-.21c-.46 0-.83.03-1.13.08-.29.04-.5.12-.66.22a.77.77 0 0 0-.32.36 1.1 1.1 0 0 0-.09.45c0 .14.02.27.04.38.03.11.09.23.17.34.1.1.23.19.39.26.17.07.38.13.64.17.27.04.59.06.96.06.45 0 .83-.02 1.11-.08.3-.07.52-.17.66-.28a.9.9 0 0 0 .32-.38Zm-3.88 14.83h3.54l-.04-1.54c-.02-.5-.02-1-.02-1.49v-6.83a50.17 50.17 0 0 1 .06-2.95h-3.54l.02 1.5.02 1.45.02 1.52v3.56c0 .57 0 1.12-.02 1.64 0 .52 0 1.04-.02 1.56 0 .51 0 1.04-.02 1.58Zm-20.64 0h3.71a135.98 135.98 0 0 1-.08-2.58v-3.12c0-.77.1-1.41.3-1.94.2-.54.48-.98.87-1.3.38-.33.84-.57 1.39-.73a8.89 8.89 0 0 1 5 .32 21 21 0 0 1 .05-.75l.09-.87c.04-.3.08-.58.1-.85.03-.27.07-.5.11-.69a7.8 7.8 0 0 0-1.4-.36c-.5-.1-1.06-.15-1.7-.15-.75 0-1.44.1-2.06.3-.61.18-1.16.48-1.62.87a4.96 4.96 0 0 0-1.42 2.17l-.15-.02v-.2l.05-1.52.04-1.39h-3.28a258.74 258.74 0 0 1 0 12.8Zm-34.47-12.8a82.45 82.45 0 0 1 2.2.02v-2.71c.29 0 .58 0 .88.02h2.03l.55-.03-.04 2.33v.4h3.22l2.43-.01 2.16-.03a64.25 64.25 0 0 0-.06 1.88v.92l-1.48-.02c-.5-.02-1.06-.02-1.64-.02a71.1 71.1 0 0 0-1.77-.02 55.1 55.1 0 0 0-1.84-.03l-1.07-.01c0 .64 0 1.31-.02 2v2.9c0 .54.1 1 .3 1.39.2.37.54.65 1.03.83.48.19 1.14.28 1.98.28a12.78 12.78 0 0 0 4.33-.64l.1.62.08.6.1.62c.05.2.08.39.11.57l.13.56c-.54.11-1.1.21-1.65.3a29.4 29.4 0 0 1-3.58.25 13 13 0 0 1-2.52-.21 6.44 6.44 0 0 1-1.81-.66 4.2 4.2 0 0 1-1.18-1.05 4.2 4.2 0 0 1-.62-1.32 6.16 6.16 0 0 1-.19-1.58V26.1l.02-2v-.2h-.75l-1.4-.02v-1.32c0-.26-.01-.5-.03-.73v-.62ZM62.13 31.8c-.57.06-1.28.09-2.13.09-.93 0-1.7-.04-2.35-.11a5.9 5.9 0 0 1-1.54-.34 1.83 1.83 0 0 1-.83-.6 1.52 1.52 0 0 1-.25-.9v-.32a7 7 0 0 1-.69.07h-1.43a21.65 21.65 0 0 1-.96-.06v.2c.02.06.02.13 0 .2a4.11 4.11 0 0 0 .23 1.69c.2.44.48.83.86 1.17.38.33.89.6 1.52.83.62.22 1.37.37 2.24.47.88.12 1.91.17 3.1.17 1.42 0 2.61-.08 3.58-.25a7.75 7.75 0 0 0 2.37-.75 3.24 3.24 0 0 0 1.32-1.26c.27-.51.4-1.1.4-1.75 0-.64-.1-1.19-.31-1.64-.2-.47-.56-.86-1.07-1.18a6.72 6.72 0 0 0-2.14-.74c-.9-.19-2.05-.32-3.47-.39a28.8 28.8 0 0 1-2.82-.21c-.7-.1-1.23-.22-1.58-.34a1.6 1.6 0 0 1-.73-.5 1.16 1.16 0 0 1 .02-1.23c.15-.19.38-.34.7-.45.34-.13.78-.22 1.33-.28.56-.06 1.25-.08 2.1-.08.88 0 1.6.03 2.2.1.58.06 1.04.17 1.38.32a1.45 1.45 0 0 1 .98 1.39v.38l.62-.02h1.45l.54.02c.17 0 .32.01.44.03v-.22c.02-.07.02-.14.02-.21v-.21c0-.6-.1-1.13-.3-1.58-.2-.46-.5-.84-.91-1.16a4.5 4.5 0 0 0-1.52-.74c-.6-.2-1.3-.35-2.11-.43-.81-.1-1.73-.15-2.75-.15-1.37 0-2.54.09-3.5.26-.96.15-1.73.4-2.33.72-.58.33-1.01.73-1.28 1.22-.27.48-.4 1.05-.4 1.7 0 .58.1 1.1.31 1.56a3 3 0 0 0 1.11 1.2c.53.33 1.25.59 2.16.79.92.2 2.09.33 3.5.4 1.14.05 2.05.11 2.73.2.7.08 1.23.2 1.58.34.37.14.62.3.75.49.13.18.19.4.19.64 0 .26-.07.48-.21.68-.15.2-.39.37-.73.5-.34.1-.8.2-1.39.27ZM168.71 24h.54v1.18l-.03 1.56c0 .52 0 1.04-.02 1.53v1.37c0 .68.11 1.3.32 1.88.23.57.58 1.06 1.05 1.47.48.41 1.11.73 1.88.96.77.23 1.7.34 2.8.34a16.99 16.99 0 0 0 3.37-.3c.52-.1 1.05-.22 1.58-.36l-.15-.92a135.57 135.57 0 0 1-.24-2.05 9.42 9.42 0 0 1-3.9.62 7 7 0 0 1-1.86-.21 2 2 0 0 1-1.09-.75 2.54 2.54 0 0 1-.34-1.38v-2.95l.02-1.96.94.02a69.29 69.29 0 0 1 3.4.06c.53 0 1.05 0 1.53.02l1.34.02v-.96l.03-1.02.04-.92-1.86.04h-5.38v-.34l.07-2.34h-.15a6.26 6.26 0 0 1-2.33 2.1 7.8 7.8 0 0 1-2.88.99v2.31h1.32ZM98.06 34.16H101a7.91 7.91 0 0 1-.23-1.58 722.56 722.56 0 0 1-.06-2.22v-1.48l.04-1.38.02-1.45c0-.79-.14-1.48-.4-2.1a3.73 3.73 0 0 0-1.29-1.6 6.5 6.5 0 0 0-2.4-1 16.45 16.45 0 0 0-3.77-.36 24.73 24.73 0 0 0-5.31.57 19 19 0 0 0-2.33.62c.05.17.09.38.13.62a20.55 20.55 0 0 1 .45 2.28 9.79 9.79 0 0 1 2.1-.74 19.14 19.14 0 0 1 4.73-.6c.9 0 1.64.06 2.22.17.58.11 1.05.29 1.39.51.34.22.58.48.72.8.14.3.22.68.22 1.1a16.87 16.87 0 0 1-.03.93c-.3-.07-.64-.13-1.02-.18a34.31 34.31 0 0 0-3.97-.23c-1.25 0-2.34.07-3.27.23-.9.14-1.66.37-2.26.68-.58.32-1.02.71-1.3 1.2a4.26 4.26 0 0 0-.1 3.44c.2.48.53.88.97 1.19.46.31 1.04.54 1.73.68.7.15 1.53.22 2.5.22 1.34 0 2.5-.14 3.48-.4 1-.3 1.79-.72 2.37-1.29.36-.35.64-.75.83-1.2h.12a37.88 37.88 0 0 0-.01 2.16c.03.11.07.2.13.26.07.05.15.1.25.13l.4.02Zm-.88-5.45c-.8-.1-1.6-.17-2.39-.21-.88-.04-1.82-.06-2.81-.06-.66 0-1.21.04-1.67.12-.45.08-.82.18-1.1.32-.3.15-.5.33-.65.56-.13.23-.2.5-.2.81 0 .3.06.56.18.79.11.23.29.42.53.58.26.14.6.25 1 .34a12.03 12.03 0 0 0 3.9-.1c.7-.17 1.3-.38 1.76-.65.49-.27.85-.59 1.1-.96.23-.37.35-.78.35-1.22v-.32Z" clip-rule="evenodd"/>
  <defs>
    <linearGradient id="a" x1="22.3" x2="41.42" y1="17.15" y2="39.9" gradientUnits="userSpaceOnUse">
      <stop stop-color="#FBD57F"/>
      <stop offset="1" stop-color="#D17F0D"/>
    </linearGradient>
    <linearGradient id="b" x1="22.3" x2="41.42" y1="17.15" y2="39.9" gradientUnits="userSpaceOnUse">
      <stop stop-color="#FBD57F"/>
      <stop offset="1" stop-color="#D17F0D"/>
    </linearGradient>
    <linearGradient id="c" x1="22.3" x2="41.42" y1="17.15" y2="39.9" gradientUnits="userSpaceOnUse">
      <stop stop-color="#FBD57F"/>
      <stop offset="1" stop-color="#D17F0D"/>
    </linearGradient>
    <linearGradient id="d" x1="22.3" x2="41.42" y1="17.15" y2="39.9" gradientUnits="userSpaceOnUse">
      <stop stop-color="#FBD57F"/>
      <stop offset="1" stop-color="#D17F0D"/>
    </linearGradient>
    <linearGradient id="e" x1="22.3" x2="41.42" y1="17.15" y2="39.9" gradientUnits="userSpaceOnUse">
      <stop stop-color="#FBD57F"/>
      <stop offset="1" stop-color="#D17F0D"/>
    </linearGradient>
  </defs>
</svg>
