<svg xmlns="http://www.w3.org/2000/svg" fill="none" viewBox="0 0 25 25" width="107" height="107">
  <path fill="#fff" fill-rule="evenodd" d="M16.02 7.27 12.87.44 9.71 7.27c-.04.1-.1.2-.15.29L7.8 5.8a1.18 1.18 0 0 0-1.67 1.68l1.75 1.74-.2.1-.05.02L.8 12.5l6.83 3.16.24.11-1.74 1.76A1.18 1.18 0 0 0 7.8 19.2l1.76-1.76.15.3 3.16 6.82 3.15-6.83.13-.24 1.7 1.71a1.18 1.18 0 1 0 1.68-1.67l-1.72-1.72.3-.15 6.82-3.16-6.83-3.16-.29-.14 1.72-1.73a1.18 1.18 0 0 0-1.67-1.67l-1.7 1.7a4.13 4.13 0 0 1-.12-.2l-.02-.03Zm-3.16.36-.42.9a7.27 7.27 0 0 1-3.55 3.55l-.9.42.9.42a7.27 7.27 0 0 1 3.55 3.55l.42.9.41-.9a7.27 7.27 0 0 1 3.56-3.55l.9-.42-.9-.42a7.27 7.27 0 0 1-3.56-3.55l-.4-.9Z" clip-rule="evenodd"/>
  <path fill="url(#a)" fill-rule="evenodd" d="M16.02 7.27 12.87.44 9.71 7.27c-.04.1-.1.2-.15.29L7.8 5.8a1.18 1.18 0 0 0-1.67 1.68l1.75 1.74-.2.1-.05.02L.8 12.5l6.83 3.16.24.11-1.74 1.76A1.18 1.18 0 0 0 7.8 19.2l1.76-1.76.15.3 3.16 6.82 3.15-6.83.13-.24 1.7 1.71a1.18 1.18 0 1 0 1.68-1.67l-1.72-1.72.3-.15 6.82-3.16-6.83-3.16-.29-.14 1.72-1.73a1.18 1.18 0 0 0-1.67-1.67l-1.7 1.7a4.13 4.13 0 0 1-.12-.2l-.02-.03Zm-3.16.36-.42.9a7.27 7.27 0 0 1-3.55 3.55l-.9.42.9.42a7.27 7.27 0 0 1 3.55 3.55l.42.9.41-.9a7.27 7.27 0 0 1 3.56-3.55l.9-.42-.9-.42a7.27 7.27 0 0 1-3.56-3.55l-.4-.9Z" clip-rule="evenodd"/>
  <path fill="#fff" d="M23.08 3.93a1.19 1.19 0 0 0-1.68-1.68l-.56.57a1.18 1.18 0 0 0 1.67 1.67l.57-.56Z"/>
  <path fill="url(#b)" d="M23.08 3.93a1.19 1.19 0 0 0-1.68-1.68l-.56.57a1.18 1.18 0 0 0 1.67 1.67l.57-.56Z"/>
  <path fill="#fff" d="M5 4.68c-.45.46-1.2.46-1.67 0l-.56-.56a1.19 1.19 0 1 1 1.68-1.68l.56.57c.46.46.46 1.2 0 1.67H5Z"/>
  <path fill="url(#c)" d="M5 4.68c-.45.46-1.2.46-1.67 0l-.56-.56a1.19 1.19 0 1 1 1.68-1.68l.56.57c.46.46.46 1.2 0 1.67H5Z"/>
  <path fill="#fff" d="M5 20.32a1.18 1.18 0 0 0-1.67 0l-.56.56a1.19 1.19 0 1 0 1.68 1.68l.56-.57c.46-.46.46-1.2 0-1.67H5Z"/>
  <path fill="url(#d)" d="M5 20.32a1.18 1.18 0 0 0-1.67 0l-.56.56a1.19 1.19 0 1 0 1.68 1.68l.56-.57c.46-.46.46-1.2 0-1.67H5Z"/>
  <path fill="#fff" d="M23.08 21.07a1.19 1.19 0 0 1-1.68 1.68l-.56-.57a1.18 1.18 0 0 1 1.67-1.67l.57.56Z"/>
  <path fill="url(#e)" d="M23.08 21.07a1.19 1.19 0 0 1-1.68 1.68l-.56-.57a1.18 1.18 0 0 1 1.67-1.67l.57.56Z"/>
  <defs>
    <linearGradient id="a" x1=".8" x2="23.89" y1="1.65" y2="25.05" gradientUnits="userSpaceOnUse">
      <stop stop-color="#FCECC5"/>
      <stop offset="1" stop-color="#EEBD52"/>
    </linearGradient>
    <linearGradient id="b" x1=".8" x2="23.89" y1="1.65" y2="25.05" gradientUnits="userSpaceOnUse">
      <stop stop-color="#FCECC5"/>
      <stop offset="1" stop-color="#EEBD52"/>
    </linearGradient>
    <linearGradient id="c" x1=".8" x2="23.89" y1="1.65" y2="25.05" gradientUnits="userSpaceOnUse">
      <stop stop-color="#FCECC5"/>
      <stop offset="1" stop-color="#EEBD52"/>
    </linearGradient>
    <linearGradient id="d" x1=".8" x2="23.89" y1="1.65" y2="25.05" gradientUnits="userSpaceOnUse">
      <stop stop-color="#FCECC5"/>
      <stop offset="1" stop-color="#EEBD52"/>
    </linearGradient>
    <linearGradient id="e" x1=".8" x2="23.89" y1="1.65" y2="25.05" gradientUnits="userSpaceOnUse">
      <stop stop-color="#FCECC5"/>
      <stop offset="1" stop-color="#EEBD52"/>
    </linearGradient>
  </defs>
</svg>
