<svg xmlns="http://www.w3.org/2000/svg" width="64" height="64">
  <linearGradient id="a" x1="32.26" x2="32.26" y1="63.95" y2="-.06" gradientUnits="userSpaceOnUse">
    <stop offset="0" stop-color="#1c70f2"/>
    <stop offset="1" stop-color="#14bcbc"/>
  </linearGradient>
  <path fill="url(#a)" d="M63.43 37.68a32 32 0 0 0 .15-10.54 1.26 1.26 0 0 0-1.25-1.05H41.75c-.67 0-1.16-.64-.98-1.29l2.43-9.1c.18-.66.79-1.13 1.48-1.13h12.23c.81 0 1.3-.9.81-1.55A32 32 0 1 0 7.82 53a.98.98 0 0 0 1.68-.42l7.08-26.55a.77.77 0 0 0-.74-.96H9.69c-.68 0-1.17-.64-1-1.3l2-7.48a1.3 1.3 0 0 1 1.25-.96 42 42 0 0 0 19.2-5.1c.6-.33 1.34.22 1.16.89L19.27 59.96c-.19.73.17 1.5.87 1.77a31.9 31.9 0 0 0 36.77-9.75c.52-.64.05-1.57-.79-1.57H35.24c-.68 0-1.17-.64-1-1.29l2.44-9.1c.18-.66.8-1.13 1.49-1.13h23.79c.72 0 1.35-.5 1.47-1.21"/>
</svg>
