<?xml version="1.0" encoding="UTF-8"?>
<!-- Generated by Pixelmator Pro 3.6.17 -->
<svg width="64" height="64" viewBox="0 0 64 64" xmlns="http://www.w3.org/2000/svg">
    <g id="g1">
        <linearGradient id="linearGradient1" x1="32.256289" y1="63.95242" x2="32.256289" y2="-0.056732" gradientUnits="userSpaceOnUse">
            <stop offset="0" stop-color="#1c70f2" stop-opacity="1"/>
            <stop offset="1" stop-color="#14bcbc" stop-opacity="1"/>
        </linearGradient>
        <path id="path1" fill="url(#linearGradient1)" stroke="none" d="M 63.433769 37.679054 C 63.765167 35.830662 63.940197 33.923935 63.940197 31.977543 C 63.940197 30.334553 63.814167 28.717239 63.576145 27.139561 C 63.482773 26.530434 62.950672 26.091705 62.334564 26.091705 L 41.752708 26.091705 C 41.080547 26.091705 40.590469 25.452236 40.765495 24.801086 L 43.199657 15.70858 C 43.379349 15.038773 43.98848 14.569668 44.683964 14.569668 L 56.908432 14.569668 C 57.720612 14.569668 58.203712 13.673477 57.720612 13.020016 C 51.89542 5.110756 42.515854 -0.021301 31.939039 -0.021301 C 14.267427 -0.021301 -0.059804 14.305965 -0.059804 31.977543 C -0.059804 40.024506 2.911122 47.376026 7.812134 53.000511 C 8.334905 53.597961 9.294089 53.350605 9.499458 52.58276 L 16.577909 26.03334 C 16.708603 25.545574 16.342201 25.067139 15.83574 25.067139 L 9.686168 25.067139 C 9.014044 25.067139 8.523929 24.430019 8.696642 23.778873 L 10.694388 16.292034 C 10.843741 15.729591 11.354832 15.342178 11.935969 15.330498 C 18.633987 15.190475 25.255014 13.437767 31.133871 10.228783 C 31.740648 9.897385 32.475803 10.452847 32.296112 11.120304 L 19.273457 59.959881 C 19.079731 60.688057 19.441469 61.453552 20.143969 61.733597 C 23.794035 63.18055 27.773182 63.978733 31.939039 63.978733 C 42.039768 63.978733 51.048233 59.297089 56.913094 51.987625 C 57.431202 51.341179 56.955116 50.409985 56.124275 50.409985 L 35.236698 50.409985 C 34.564571 50.409985 34.074459 49.770515 34.247169 49.121719 L 36.683647 40.029209 C 36.863377 39.357048 37.472504 38.890297 38.167953 38.890297 L 61.956482 38.890297 C 62.677605 38.890297 63.305428 38.388535 63.433769 37.679054 Z"/>
    </g>
</svg>
