<svg xmlns="http://www.w3.org/2000/svg" viewBox="0 0 256 271">
  <defs>
    <linearGradient id="logosAngularIcon0" x1="25.1%" x2="96.1%" y1="90.9%" y2="55.2%">
      <stop offset="0%" stop-color="#E40035"/>
      <stop offset="24%" stop-color="#F60A48"/>
      <stop offset="35.2%" stop-color="#F20755"/>
      <stop offset="49.4%" stop-color="#DC087D"/>
      <stop offset="74.5%" stop-color="#9717E7"/>
      <stop offset="100%" stop-color="#6C00F5"/>
    </linearGradient>
    <linearGradient id="logosAngularIcon1" x1="21.9%" x2="68.4%" y1="12.1%" y2="68.2%">
      <stop offset="0%" stop-color="#FF31D9"/>
      <stop offset="100%" stop-color="#FF5BE1" stop-opacity="0"/>
    </linearGradient>
  </defs>
  <path fill="url(#logosAngularIcon0)" d="m256 45-9 145L158 0zm-61 188-67 38-67-38 14-33h106zM128 72l35 85H93zM9 190 0 45 98 0z"/>
  <path fill="url(#logosAngularIcon1)" d="m256 45-9 145L158 0zm-61 188-67 38-67-38 14-33h106zM128 72l35 85H93zM9 190 0 45 98 0z"/>
</svg>