<svg xmlns="http://www.w3.org/2000/svg" viewBox="0 0 256 256">
  <path fill="#FFF" d="M128 199.2a71.2 71.2 0 1 0 0-142.4 71.2 71.2 0 0 0 0 142.4"/>
  <path fill="#229342" d="M35.9 93q-8-13.8-18.7-29A128 128 0 0 0 128 256q17.7-24.8 24-35.7 12.2-21 31.4-60.3a64 64 0 0 1-110.8 0q-26.2-48.8-36.7-67"/>
  <path fill="#FBC116" d="M128 256a128 128 0 0 0 128-128 128 128 0 0 0-17.2-64q-36.3-3.6-53.6-3.6-19.7 0-57.2 3.6a64 64 0 0 1 55.4 32 64 64 0 0 1 0 64z"/>
  <path fill="#1A73E8" d="M128 178.7a50.7 50.7 0 1 0 0-101.4 50.7 50.7 0 0 0 0 101.4"/>
  <path fill="#E33B2E" d="M128 64h110.8a128 128 0 0 0-221.6 0l55.4 96A64 64 0 0 1 128 64z"/>
</svg>
