<svg xmlns="http://www.w3.org/2000/svg" width="811" height="220" fill="none">
    <g fill="currentColor" clip-path="url(#a)">
        <path
            d="M80.396 193.012c-4.065-.435-8.154-.669-12.183-1.444a84.175 84.175 0 0 1-30.111-12.031 9.214 9.214 0 0 1-.928-.704c-.094-.07-.118-.223-.27-.552 1.433-.188 2.795-.352 4.158-.563a22.498 22.498 0 0 0 14.921-9.283 22.458 22.458 0 0 0 3.677-17.173c-.106-.564-.435-1.303 0-1.679.434-.375 1.175.223 1.727.505a45.55 45.55 0 0 0 23.062 5.693 45.994 45.994 0 0 0 31.72-13.217c7.66-7.312 19.126-7.453 26.41-.305a18.458 18.458 0 0 1 5.64 13.098 18.445 18.445 0 0 1-5.381 13.206 82.842 82.842 0 0 1-41.648 22.618c-4.66.879-9.367 1.49-14.098 1.831h-6.696ZM810.002 143.832a7.294 7.294 0 0 1-7.906 4.437c-1.68-.153-3.384 0-5.076-.059a6.54 6.54 0 0 1-4.776-1.901 6.525 6.525 0 0 1-1.92-4.766V58.29a6.486 6.486 0 0 1 1.794-4.624 6.5 6.5 0 0 1 4.538-2.008 57.07 57.07 0 0 1 7.225 0 6.793 6.793 0 0 1 6.121 4.695v87.479ZM494.771 117.388h-25.435c-2.126 0-2.185.105-1.48 2.054 2.996 8.216 11.595 13.169 20.266 12.394a44.226 44.226 0 0 0 17.622-5.07 4.127 4.127 0 0 1 5.24.598 68.062 68.062 0 0 1 7.049 7.583c1.88 2.57 1.633 4.061-.917 5.927a48.853 48.853 0 0 1-35.245 9.39 44.448 44.448 0 0 1-14.285-3.779 33.877 33.877 0 0 1-10.884-7.655 33.822 33.822 0 0 1-7.091-11.254c-4.289-11.151-5.158-22.618-.752-33.886 5.521-14.156 16.107-22.5 31.274-24.367a48.29 48.29 0 0 1 20.512 1.749c14.028 4.436 21.147 14.578 23.638 28.545.697 4.168.96 8.396.787 12.618-.141 3.721-1.586 5.153-5.334 5.164h-25.047l.082-.011Zm-7.883-17.384h17.023c1.645 0 1.904-.551 1.41-1.96a17.095 17.095 0 0 0-6.168-8.345c-3.806-2.747-8.071-3.087-12.629-2.864-8.154.423-13.863 4.26-17.623 11.327-.775 1.455-.493 1.866 1.175 1.842h16.812ZM317.042 112.798c.376 13.803-10.773 29.555-26.763 35.048a39.09 39.09 0 0 1-43.771-13.5 39.01 39.01 0 0 1-6.84-14.67c-3.067-12.993-1.175-25.247 7.378-35.904a36.72 36.72 0 0 1 25.94-13.932c10.773-1.057 20.653 1.173 29.183 7.934 10.068 8.028 14.791 18.71 14.873 35.024Zm-19.091-2.5a35.804 35.804 0 0 0-.423-6.021 20.184 20.184 0 0 0-6.171-10.856 20.213 20.213 0 0 0-11.381-5.154c-3.934-.32-7.871.59-11.264 2.604a19.003 19.003 0 0 0-7.674 8.64c-2.35 4.965-2.42 10.177-1.633 15.459a19.517 19.517 0 0 0 8.57 13.194 19.557 19.557 0 0 0 15.526 2.604 19.796 19.796 0 0 0 10.882-7.658 19.76 19.76 0 0 0 3.568-12.812ZM77.905 26.059c28.971.305 48.685 8.486 65.039 24.578a18.57 18.57 0 0 1 .382 26.274 18.609 18.609 0 0 1-26.299.382 47.723 47.723 0 0 0-23.85-13.064 46.256 46.256 0 0 0-31.438 4.519c-.563.293-1.174.997-1.75.645-.787-.481-.13-1.314 0-1.96a22.55 22.55 0 0 0-3.805-17.179 22.583 22.583 0 0 0-14.992-9.23c-.635-.106-1.304-.082-1.95-.153-.647-.07-1.528.27-1.763-.434-.235-.704.717-.95 1.175-1.28a78.871 78.871 0 0 1 11.748-6.244c9.21-3.979 21.03-7.1 27.503-6.854ZM761.658 138.879a44.603 44.603 0 0 1-8.671 6.643c-10.808 6.01-25.446 5.294-34.587-1.89-7.143-5.61-10.573-13.345-12.241-22.007a50.674 50.674 0 0 1-.846-9.895V78.56c0-4.87 2.596-7.418 7.495-7.43h4.7c5.028 0 7.624 2.56 7.624 7.512v35.318a17.079 17.079 0 0 0 12.794 16.491c9.058 2.348 19.162-3.685 21.817-12.981.549-1.872.826-3.813.822-5.763V78.924c0-5.176 2.632-7.782 7.825-7.794h4.899c4.123 0 6.555 2.09 7.237 6.174.111.837.158 1.68.141 2.524v59.708a20.3 20.3 0 0 1-.329 3.674 6.114 6.114 0 0 1-5.875 5.023c-1.633.059-3.277-.093-4.899 0-4.182.364-7.389-2.347-7.707-7.195-.058-.528-.094-1.126-.199-2.159ZM549.448 80.473a35.953 35.953 0 0 1 11.96-8.098c18.257-7.36 36.807 1.96 42.376 21.28a51.09 51.09 0 0 1 1.997 14.225v32.583c0 5.329-2.443 7.782-7.73 7.794h-5.275a6.372 6.372 0 0 1-4.625-1.523 6.351 6.351 0 0 1-2.189-4.346 21.022 21.022 0 0 1-.27-3.098v-28.874c0-2.454.575-4.872.07-7.372-1.504-7.335-5.662-12.324-12.923-14.084-7.542-1.773-13.699 1.068-18.398 7.042a17.928 17.928 0 0 0-3.783 11.444v32.97c0 4.977-2.596 7.594-7.578 7.665h-4.887c-4.593-.106-7.26-2.805-7.296-7.371V79.124c0-5.517 2.479-7.994 7.966-7.994h3.524c4.371 0 7.049 2.712 7.132 7.043-.059.575-.071 1.162-.071 2.3ZM341.914 80.05a34.068 34.068 0 0 1 12.136-7.957c12.136-4.613 25.141-1.949 33.682 7.113 5.499 5.868 8.295 12.981 9.399 20.81 1.093 7.571.658 15.177.705 22.783v17.606c0 2.699-.658 5.164-3.078 6.796-2.42 1.631-11.819 1.572-14.18-.118a6.927 6.927 0 0 1-2.832-6.115v-34.919c0-8.474-5.51-15.587-13.381-17.125a18.574 18.574 0 0 0-13.357 2.677 18.546 18.546 0 0 0-7.931 11.068 18.776 18.776 0 0 0-.47 4.636v31.809c.002 1.1-.084 2.199-.258 3.286a6.083 6.083 0 0 1-5.428 5.552 26.53 26.53 0 0 1-8.224.058 6.46 6.46 0 0 1-5.874-6.725c-.059-4.812 0-9.625 0-14.437V79.03c0-5.423 2.467-7.9 7.848-7.9h3.524c4.5 0 7.155 2.665 7.261 7.137a2.522 2.522 0 0 0 .458 1.784Z" />
        <path
            d="M210.979 149.83a40.243 40.243 0 0 1-26.004-9.689 40.166 40.166 0 0 1-13.529-24.209c-2.174-13.815 1.351-25.963 11.36-35.858 6.333-6.267 14.31-9.272 23.156-10.211a39.575 39.575 0 0 1 26.246 6.291c5.874 3.756 6.109 6.444 1.245 11.362-1.562 1.573-3.09 3.18-4.699 4.695-2.35 2.183-3.525 2.277-6.215.47a22.336 22.336 0 0 0-13.381-4.18 17.153 17.153 0 0 0-9.057 2.42 17.134 17.134 0 0 0-6.428 6.818 24.186 24.186 0 0 0-.951 22.689c4.699 10.692 17.775 14.249 27.926 7.735 1.174-.775 2.349-1.691 3.524-2.407a3.797 3.797 0 0 1 5.31.599c2.491 2.347 4.97 4.789 7.331 7.301 2.62 2.805 2.35 4.812-.611 7.206a39.61 39.61 0 0 1-25.223 8.968ZM660.774 103.044V66.177a27.583 27.583 0 0 1 6.14-17.214 27.625 27.625 0 0 1 15.56-9.606 49.736 49.736 0 0 1 14.027-.422c3.842.281 5.945 3.016 5.98 6.901v3.697a6.58 6.58 0 0 1-1.825 4.904 6.602 6.602 0 0 1-4.825 2.033c-1.492.07-2.995 0-4.499 0-5.874 0-9.763 3.522-10.374 9.46-.576 5.529-.576 5.529 4.97 5.529h7.824a6.337 6.337 0 0 1 6.368 6.303v4.871a6.422 6.422 0 0 1-1.899 4.769 6.441 6.441 0 0 1-4.786 1.863c-3.454 0-6.908.094-10.362 0-1.774-.059-2.197.598-2.197 2.265v48.757a8.98 8.98 0 0 1-1.104 4.871 6.079 6.079 0 0 1-5.146 3.075c-2.08.071-4.171 0-6.262 0-4.97 0-7.554-2.558-7.601-7.57v-37.619h.011ZM614.17 91.19V59.393c0-4.977 2.455-7.406 7.437-7.418h5.674a6.293 6.293 0 0 1 4.484 1.843 6.273 6.273 0 0 1 1.837 4.483c.117 3.827.282 7.653.34 11.48 0 1.267.482 1.725 1.739 1.701h12.124c4.042 0 6.532 2.536 6.544 6.597v4.484a6.206 6.206 0 0 1-3.877 5.86 6.22 6.22 0 0 1-2.432.454c-3.9.07-7.824.094-11.748 0-1.727 0-2.35.4-2.35 2.266.094 9.883 0 19.765.071 29.648 0 6.468 2.913 9.39 9.398 9.625 7.355.282 8.612 1.585 8.612 8.991v1.948c0 3.263-2.044 6.057-5.263 6.28-6.286.422-12.63.728-18.692-1.714-7.46-3.016-11.325-8.862-13.029-16.432a35.842 35.842 0 0 1-.857-7.923c.011-10.094-.012-20.235-.012-30.376ZM406.741 90.943v-31.21c0-5.328 2.444-7.758 7.754-7.758h5.486a6.133 6.133 0 0 1 6.157 5.2c.693 3.932.27 7.91.27 11.866 0 1.82.47 2.547 2.42 2.465 3.712-.13 7.425 0 11.137 0a6.15 6.15 0 0 1 6.136 3.903c.314.809.453 1.675.408 2.54v4.484a6.298 6.298 0 0 1-4.031 6.06 6.316 6.316 0 0 1-2.536.42c-3.783 0-7.566.082-11.349 0-1.645 0-2.115.551-2.115 2.136v29.649c0 6.349 2.35 8.99 8.694 9.706.323.047.652.047.975 0 5.369-.821 8.999 2.289 8.377 8.498-.083.834 0 1.69 0 2.536a6.205 6.205 0 0 1-5.745 6.291 48.046 48.046 0 0 1-15.896-1.28c-8.799-2.441-13.593-8.474-15.343-17.16a45.216 45.216 0 0 1-.834-8.908c.039-9.805.051-19.618.035-29.438ZM42.837 133.503a24.776 24.776 0 0 0-11.067.129c-9.564 2.559-15.955 10.259-17 20.376 0 .54.27 1.385-.4 1.55-.67.164-.975-.74-1.304-1.256a83.408 83.408 0 0 1 .059-89.662c.165-.27.34-.552.529-.822.188-.27.47-.95.963-.833.493.117.482.856.493 1.338a22.52 22.52 0 0 0 7.266 15.666 22.562 22.562 0 0 0 16.231 5.93c.905 0 1.798-.281 2.702-.305.905-.023 1.704-.763 2.209-.094.505.67-.352 1.42-.705 2.078a43.6 43.6 0 0 0-4.253 11.057 45.796 45.796 0 0 0 4.43 33.04c.281.54.916 1.033.505 1.738-.083.14-.576.07-.658.07Z" />
        <path
            d="M18.412 155.299a19.04 19.04 0 0 1 5.639-13.383 19.08 19.08 0 0 1 13.44-5.526c5.082 0 9.956 2.017 13.55 5.608a19.133 19.133 0 0 1 0 27.073 19.171 19.171 0 0 1-13.55 5.607c-9.375.211-19.079-9.742-19.079-19.379ZM56.652 63.419c.6 10.024-8.893 19.108-19.102 19.003-8.53-.082-18.88-6.843-19.068-19.027-.141-9.272 9.916-19.296 19.22-19.167 12.218.164 19.62 10.54 18.95 19.19Z" />
    </g>
    <defs>
        <clipPath id="a">
            <path fill="#fff" d="M.014 26h810v167h-810z" />
        </clipPath>
    </defs>
</svg>