<svg xmlns="http://www.w3.org/2000/svg" viewBox="0 0 256 256">
  <path fill="currentColor" d="M128 0c70.7 0 128 57.3 128 128s-57.3 128-128 128S0 198.7 0 128 57.3 0 128 0"/>
  <path fill="currentColor" style="filter:invert(100)" d="M123 72.45c17.9 0 33.25 4.95 45.35 14.4a64.42 64.42 0 0 1 21.62 31.28l.13.42.1.3.1.35.2.65.3 1.2.8 2.8.85 3.2 3.75 13.7 3.7 13.8 4.2 15.7 6.75 25.25 2.55 9.5-.55.6a114.9 114.9 0 0 1-68.83 36.29l-.82.11-.25-1.65-.45-3.3-.4-2.4-.45-3.15-.6-3.85-.25-1.5-.55-3.65-.35-2.15-.45-2.8-.45-2.7-.45-2.6-.45-2.55-.4-2.5-.45-2.4-.4-2.3-.3-1.7-.35-1.65-.6-3.15-.3-1.5-.35-1.85-.3-1.3-.25-1.25-.25-1.2-.15-.8-.35-1.5-.5-2.2-.2-.7-.25-1-.2-.95-.25-.95-.25-.9-.15-.55-.25-.85-.2-.8-.15-.55-.2-.5-.15-.45-.2-.7-.15-.5-.1-.3a33 33 0 0 0-.7-1.89l-.2-.46-.15-.3 1.15-3-4.55.15-1.25.05c-41.3.85-67.95-16.7-67.95-44.2 0-29.15 29-52.6 66.2-52.6m-40.3 137.7a6.22 6.22 0 0 1 7.45-4.29l.15.04a6.2 6.2 0 0 1 4.49 7.35l-.04.15-.05.15-6.05 22.55-.85-.35a114 114 0 0 1-9.94-4.25l-.81-.4 5.6-20.8zm34.8-15.25a6.25 6.25 0 0 1 7.65-4.25 6.25 6.25 0 0 1 3.82 3l.08.15.2.9.3 1.45.2 1.05-.05.25-.15.7v.15l-8.5 31.5-.05.15a6.25 6.25 0 0 1-12.08-3.1l.03-.15v-.15l8.5-31.5zm-51.6-36.7a56 56 0 0 0 10.32 7.1l.48.25-7.7 28.6-.05.15a6.25 6.25 0 0 1-12.08-3.15l.03-.15.05-.15 8.5-31.5.05-.2zm-27.9-32a6.33 6.33 0 0 1 7.65-4.25 6.29 6.29 0 0 1 4.44 7.4l-.04.15v.15l-8.5 31.5-.05.15a6.25 6.25 0 0 1-12.08-3.15l.03-.15v-.15l8.5-31.5zm190.6-7.15a6.3 6.3 0 0 1 7.6-4.25 6.25 6.25 0 0 1 4.49 7.35l-.04.15v.2L232.1 154v.15a6.27 6.27 0 0 1-12.14-3.15l.04-.15.05-.15 8.5-31.5zM27.1 72.75h.22q.65.04 1.28.2a6.28 6.28 0 0 1 4.48 7.4l-.03.15-.05.15-8.5 31.5-.05.15a6.3 6.3 0 0 1-7.6 4.25 6.2 6.2 0 0 1-3.1-1.9 114.2 114.2 0 0 1 13.03-41.32zm179.95 4.45c1-3.2 4.35-5.1 7.65-4.25a6.32 6.32 0 0 1 4.49 7.4l-.04.15-.05.15-8.5 31.5-.05.15a6.25 6.25 0 0 1-12.08-3.15l.03-.15.05-.15 8.5-31.5zM56.5 47.25A6.3 6.3 0 0 1 64.1 43a6.25 6.25 0 0 1 4.49 7.35l-.04.15-.05.2L60 82.2l-.05.15a6.25 6.25 0 0 1-12.08-3.15l.03-.15.05-.15 8.5-31.5zm109.2 5.95a6.33 6.33 0 0 1 7.65-4.25 6.29 6.29 0 0 1 4.43 7.4l-.03.15v.15l-6.7 24.75-.55-.45a70 70 0 0 0-9.94-6.1l-.61-.3 5.7-21.2zm-47.95-39.75a6.2 6.2 0 0 1 0 2.6l-.05.2-.05.15-8.5 31.5-.05.15a6.25 6.25 0 0 1-12.08-3.1l.03-.15.05-.15L105 15.3l.85-.15a115 115 0 0 1 11.9-1.7m78.2 21.75.75.55a116 116 0 0 1 9.22 7.67l.63.58-.2.65-.05.15a6.25 6.25 0 0 1-12.08-3.1l.03-.15.05-.15zM146.5 14.5l.9.15a114 114 0 0 1 10.44 2.27l.86.23-3.15 11.75-.05.15a6.25 6.25 0 0 1-12.08-3.1l.03-.15.05-.15z"/>
  <path fill="currentColor" d="M131 93.5a8 8 0 1 1 0 16 8 8 0 0 1 0-16"/>
</svg>