<svg xmlns="http://www.w3.org/2000/svg" width="59" height="47" fill="none">
    <path fill="currentColor"
        d="M49.524 30.583c.053.162.069.187.069.213-.05 2.718-.117 5.436-.145 8.154-.027 2.443-.011 4.887-.013 7.33 0 .258.15.38.402.38.268 0 .536-.018.804-.02 2.23-.008 4.461-.015 6.692-.019.315 0 .503-.095.514-.452.022-.876.08-1.753.103-2.63.07-2.606.142-5.214.188-7.82.076-4.242.125-8.484.198-12.726.039-2.259.104-4.516.163-6.775.008-.33-.074-.527-.468-.526-2.91.007-5.818 0-8.727.013-.132.001-.325.134-.386.256-.695 1.41-1.37 2.83-2.053 4.245-.316.656-.651 1.303-.96 1.963-.717 1.525-1.418 3.057-2.135 4.582-.288.613-.608 1.212-.897 1.824-.226.478-.42.972-.643 1.451-.04.088-.15.206-.224.203-.077-.004-.173-.124-.217-.214-.06-.122-.06-.271-.117-.396a884.988 884.988 0 0 0-1.934-4.273c-.44-.966-.885-1.93-1.338-2.891-.382-.811-.789-1.61-1.166-2.424a249.684 249.684 0 0 1-1.79-3.942c-.137-.308-.338-.397-.658-.396-2.824.006-5.648.001-8.472.001-.604 0-.606.005-.605.59 0 5.069 0 10.137.002 15.204l-.001 14.743c0 .234-.026.438.33.436 2.541-.018 5.083-.013 7.624-.033.621-.005.614-.035.621-.653.05-4.857.103-9.714.154-14.57.002-.2 0-.4 0-.598l.165-.024c.114.296.211.6.344.887.385.828.787 1.648 1.177 2.475.452.957.909 1.912 1.342 2.877.431.96.828 1.935 1.251 2.898.222.505.508.986.688 1.504.105.301.224.449.546.448 1.3-.004 2.599.01 3.897-.011.148-.003.358-.154.427-.292.4-.8.76-1.62 1.146-2.429.479-.999.974-1.99 1.456-2.987.294-.61.58-1.224.865-1.838.26-.56.51-1.127.775-1.685.316-.657.64-1.307 1.006-2.053ZM9.432 35.33h.958c2.725-.007 5.45-.01 8.175-.023.362-.001.74-.117 1.082-.047.366.073.448-.063.45-.34.005-2.025 0-4.05.006-6.074 0-.313-.138-.406-.441-.402-1.13.013-2.259.008-3.388.009-2.147.002-4.293.003-6.44.007-.21 0-.391.007-.393-.289a545.875 545.875 0 0 0-.046-4.564c-.004-.306.117-.397.43-.396 4.024.01 8.048.006 12.072.007.512 0 .615-.095.614-.611-.004-2.094-.006-4.188-.013-6.282-.002-.587-.043-.627-.62-.627-6.835-.003-13.67-.006-20.503-.001-.833 0-.942-.201-.846.876.008.084.001.168.003.252.047 3.586.098 7.172.143 10.758.065 5.248.128 10.495.188 15.742.01.88-.005 1.76.003 2.639.006.683.19.86.857.86 2.4-.002 4.802-.004 7.202-.008.51 0 .615-.1.61-.616-.005-.712-.032-1.423-.039-2.133-.023-2.554-.043-5.11-.063-7.663-.004-.336-.001-.668-.001-1.074Z" />
    <path fill="currentColor"
        d="M49.524 30.584c-.366.745-.69 1.396-1.003 2.052-.265.559-.515 1.124-.775 1.685-.286.614-.57 1.228-.865 1.838-.482.997-.977 1.989-1.456 2.988-.386.807-.746 1.628-1.146 2.429-.069.137-.28.288-.427.29-1.298.023-2.597.008-3.897.012-.322.001-.442-.146-.546-.447-.18-.518-.466-1-.688-1.504-.423-.963-.82-1.938-1.25-2.898-.434-.966-.891-1.921-1.343-2.878-.39-.826-.792-1.646-1.177-2.475-.133-.287-.23-.59-.344-.887l-.165.024c0 .2.002.399 0 .598-.051 4.856-.104 9.713-.154 14.57-.007.618 0 .65-.62.653-2.542.02-5.084.015-7.624.033-.357.002-.331-.201-.331-.435a85610.91 85610.91 0 0 0 0-29.947c-.001-.586 0-.59.604-.59 2.824-.001 5.648.004 8.472-.002.32-.001.521.088.658.396a256.66 256.66 0 0 0 1.79 3.942c.377.814.784 1.613 1.166 2.424.453.961.897 1.925 1.338 2.891a871.074 871.074 0 0 1 1.934 4.273c.056.125.057.274.117.397.044.09.14.21.217.213.073.003.184-.114.224-.203.222-.48.418-.972.643-1.45.29-.613.61-1.212.897-1.825.717-1.525 1.418-3.057 2.134-4.582.31-.66.644-1.307.961-1.963.684-1.415 1.357-2.835 2.053-4.245.06-.122.254-.256.386-.256 2.91-.013 5.817-.006 8.727-.013.394 0 .476.195.468.526-.059 2.259-.124 4.517-.163 6.775-.074 4.242-.122 8.484-.198 12.725-.046 2.608-.12 5.215-.188 7.822-.023.877-.08 1.753-.104 2.63-.009.356-.197.45-.513.452-2.231.003-4.462.01-6.692.019-.268 0-.536.02-.804.02-.252 0-.402-.123-.402-.382.002-2.443-.014-4.886.013-7.329.029-2.717.096-5.435.145-8.154-.004-.026-.02-.052-.072-.212ZM9.431 35.329c0 .406-.002.738 0 1.07.02 2.554.04 5.11.064 7.663.007.712.034 1.423.04 2.133.003.516-.102.616-.612.617-2.4.003-4.8.006-7.2.007-.668.001-.852-.177-.858-.86-.008-.88.007-1.758-.003-2.638C.802 38.074.74 32.826.674 27.579.629 23.993.579 20.406.53 16.82c0-.084.006-.168-.002-.252-.096-1.078.013-.876.846-.876 6.834-.005 13.668-.001 20.502 0 .578 0 .618.04.62.628.007 2.093.01 4.188.013 6.281.001.516-.101.612-.614.612-4.023-.001-8.047.002-12.07-.008-.314 0-.435.09-.43.397.02 1.52.036 3.042.045 4.564.002.297.182.29.393.29 2.147-.005 4.293-.006 6.44-.008 1.129-.001 2.259.004 3.388-.01.302-.003.442.09.44.403-.005 2.024 0 4.049-.006 6.073-.001.278-.083.415-.449.34-.343-.07-.72.046-1.082.048-2.725.013-5.45.016-8.175.023-.293.004-.587.003-.958.003ZM6.803 4.836c.012-.21.026-.341.026-.474.001-1.019.014-2.039-.008-3.058-.008-.357.083-.512.47-.48.407.033.82.04 1.227.014.365-.023.45.122.449.459-.011 2.667-.006 5.333-.005 8 0 .67-.015 1.342.006 2.011.01.332-.105.457-.439.426-.252-.024-.508-.008-.762-.01-.512-.003-.58-.067-.616-.564-.006-.078-.028-.155-.06-.321-.162.135-.295.208-.376.318-.438.594-1.106.635-1.737.635-.773 0-1.474-.277-1.977-.906-.485-.608-.796-1.295-.843-2.07-.034-.57-.06-1.15.003-1.716.148-1.32.62-2.457 1.988-3.006.62-.25 1.854-.018 2.333.45.085.085.176.161.321.292Zm.216 3.766c-.065-.796-.12-1.418-.165-2.04-.047-.655-.525-.844-1.06-.985-.394-.104-.71.05-.992.289-.342.29-.435.683-.553 1.11-.245.892-.117 1.71.192 2.542.18.483.557.688 1.023.734.557.056 1.108-.067 1.357-.607.166-.36.156-.8.198-1.043ZM14.757 8.544h-1.779c-.466 0-.595.185-.43.611.308.787.777 1.081 1.638 1.109.674.022 1.297-.096 1.884-.427.069-.039.253-.015.28.034.138.252.252.518.355.786.103.265-.022.445-.256.576-.78.44-1.654.645-2.514.623-.737-.019-1.485-.199-2.147-.67-.661-.47-1.074-1.072-1.243-1.804-.346-1.49-.367-2.964.663-4.257.549-.69 1.283-1.033 2.162-1.086.694-.04 1.387-.022 2 .34.813.478 1.393 1.145 1.502 2.12.062.56.105 1.124.16 1.686.025.271-.092.37-.369.363-.634-.015-1.27-.004-1.906-.004Zm-1.062-1.315h.466c.85 0 .887-.008.71-.798-.064-.276-.309-.606-.562-.73-.732-.358-1.6.112-1.79.904-.117.48-.002.625.499.625h.677ZM37.382 7.837c-.067 1.18-.29 2.182-1.015 2.992-.43.48-.985.803-1.647.905-.343.053-.688.164-1.028.15-1.664-.068-2.773-.794-3.266-2.348-.446-1.407-.362-2.846.51-4.127.46-.675 1.112-1.104 1.954-1.212.342-.043.69-.175 1.023-.143 1.321.126 2.664.63 3.138 2.267.078.273.145.551.206.829.057.267.099.539.125.687Zm-2.067.136c-.084-.491-.097-1.016-.279-1.477-.125-.318-.436-.66-.75-.789-.818-.337-1.773.235-1.917 1.091-.12.715-.263 1.412-.036 2.164.237.787.446 1.383 1.587 1.305.574-.039 1.01-.328 1.14-.893.106-.453.168-.914.255-1.4ZM41.997 11.907c-1.563-.032-2.64-.576-3.257-1.797-.247-.488-.374-1.061-.434-1.61-.1-.926-.027-1.859.475-2.685.537-.884 1.266-1.467 2.366-1.644a4.286 4.286 0 0 1 2.009.158c.977.303 1.608 1.012 1.93 1.934.286.812.43 1.636.232 2.547-.17.776-.429 1.482-.935 2.035-.364.398-.927.643-1.44.872-.343.15-.753.155-.946.19Zm1.387-4.058c-.105-.435-.178-.983-.375-1.484-.216-.552-.702-.735-1.304-.707-.547.026-.89.357-1.078.758-.21.448-.299.971-.342 1.47-.032.373.095.76.142 1.142.076.621.48 1.187.888 1.231 1.076.115 1.581-.13 1.817-.947.125-.431.157-.888.252-1.463ZM53.361 4.215c1.003-.097 1.887.132 2.533.881.255.295.364.723.494 1.106.07.205-.07.34-.307.334-.451-.013-.904-.004-1.352-.05-.114-.01-.26-.175-.307-.3-.303-.793-1.365-.868-1.912-.423-.41.335-.365.935.117 1.173.422.209.897.318 1.353.453.678.203 1.36.375 1.914.86.797.699.671 2.225-.213 2.912-.933.723-2.038.858-3.143.702-.902-.127-1.738-.511-2.197-1.398-.013-.024-.048-.04-.052-.064-.06-.303-.117-.607-.174-.91.258-.019.516-.042.775-.057.168-.01.338-.003.507-.01.335-.015.577.029.677.443.12.495 1.047.86 1.55.663.366-.144.79-.214.82-.748.022-.382-.154-.639-.467-.757-.524-.196-1.076-.318-1.61-.487-.757-.24-1.51-.488-1.888-1.285-.238-.504-.06-1.67.308-2.08.697-.78 1.567-1.082 2.574-.958ZM17.589 4.2c.614 0 1.205-.016 1.794.013.13.007.332.154.365.274.245.892.445 1.797.681 2.692.201.757.434 1.505.677 2.341.26-1.043.487-1.991.736-2.933.192-.724.408-1.441.626-2.157.026-.087.129-.215.198-.217.629-.017 1.258-.01 1.95-.01-.488 1.404-.96 2.74-1.416 4.079a156.19 156.19 0 0 0-1.002 3.06c-.084.262-.214.404-.505.394-.338-.012-.684-.044-1.015.008-.463.073-.643-.15-.768-.535a304.682 304.682 0 0 0-1.322-3.991c-.326-.96-.672-1.913-1.008-2.87-.008-.023.002-.053.009-.147ZM28.036 5.7c-.015.106-.037.187-.037.268 0 1.229-.002 2.457.005 3.685.002.364.241.631.598.593.402-.042.563.123.608.479.028.22.057.44.081.659.026.236-.05.348-.324.358-.328.013-.661.169-.979.135-.575-.06-1.155-.174-1.572-.65-.398-.453-.511-1.016-.532-1.571-.043-1.185-.02-2.373-.008-3.56.003-.305-.05-.452-.414-.44-.724.023-.725 0-.724-.721 0-.126.009-.252 0-.377-.02-.27.092-.362.369-.364.764-.007.764-.019.764-.784 0-1.122 0-1.122 1.122-1.12.14 0 .283-.007.423.003.47.033.58.155.58.626 0 .084-.003.168 0 .252.013.32-.083.721.077.93.122.16.57.089.874.095.23.005.347.087.324.323-.035.365.06.85-.142 1.059-.186.193-.686.09-1.093.122ZM48.773 5.802c0 1.478.008 2.956-.005 4.433-.003.4-.045.805-.112 1.2-.018.112-.182.275-.288.282-.463.031-.931.031-1.394 0-.103-.007-.28-.189-.278-.289.027-1.795.087-3.59.117-5.386.025-1.52.022-3.039.03-4.559.003-.582 0-.584.605-.568.324.009.648.05.97.034.33-.018.408.122.405.418-.01 1.478-.004 2.956-.004 4.434h-.046Z" />
</svg>