<svg xmlns="http://www.w3.org/2000/svg" width="518" height="220" fill="none">
    <path fill="currentColor"
        d="M100.175 105.932h-43.52a2.027 2.027 0 0 0-2.026 2.027v21.271a2.043 2.043 0 0 0 2.027 2.041h16.973v26.401s-3.808 1.308-14.372 1.308c-12.432 0-29.794-4.541-29.794-42.729 0-38.187 18.08-43.202 35.054-43.202 14.689 0 21.027 2.587 25.051 3.823a2.04 2.04 0 0 0 2.429-1.984l4.901-20.552a1.883 1.883 0 0 0-.776-1.595C94.483 51.576 84.509 46 59.3 46 30.254 46 .475 58.346.475 117.746c0 59.401 34.105 68.24 62.835 68.24 23.8 0 38.245-10.162 38.245-10.162a1.748 1.748 0 0 0 .646-1.537v-66.343a2.024 2.024 0 0 0-2.026-2.012ZM324.353 53.114a2.016 2.016 0 0 0-.579-1.441 2.008 2.008 0 0 0-1.433-.6h-24.433a2.021 2.021 0 0 0-1.438.599 2.031 2.031 0 0 0-.588 1.442v47.328h-38.23V53.114a2.024 2.024 0 0 0-2.027-2.04h-24.432a2.026 2.026 0 0 0-2.027 2.04v128.172a2.039 2.039 0 0 0 2.027 2.041h24.432a2.042 2.042 0 0 0 2.027-2.041v-54.83h38.173l-.072 54.83a2.052 2.052 0 0 0 2.041 2.041h24.547a2.024 2.024 0 0 0 2.012-2.041V53.114ZM146.396 70.002a15.815 15.815 0 0 0-18.981-15.344 15.813 15.813 0 0 0-12.344 12.456 15.81 15.81 0 0 0 21.599 17.624 15.813 15.813 0 0 0 9.726-14.736ZM144.642 154.237V95.081a2.043 2.043 0 0 0-2.026-2.04h-24.433a2.312 2.312 0 0 0-2.113 2.27v84.796c0 2.487 1.553 3.234 3.55 3.234h22.004c2.415 0 3.004-1.193 3.004-3.277l.014-25.827ZM417.398 93.227h-24.26a2.055 2.055 0 0 0-2.027 2.055v62.85a27.434 27.434 0 0 1-14.933 4.513c-8.767 0-11.095-3.981-11.095-12.561V95.282a2.04 2.04 0 0 0-2.012-2.055h-24.72a2.055 2.055 0 0 0-2.027 2.055v58.927c0 25.482 14.214 31.719 33.761 31.719 16.025 0 28.945-8.853 28.945-8.853a49 49 0 0 0 .906 5.217 2.106 2.106 0 0 0 1.782 1.107h15.694a2.058 2.058 0 0 0 2.027-2.056v-86.06a2.052 2.052 0 0 0-.593-1.453 2.029 2.029 0 0 0-1.448-.603ZM483.87 90.353a45.636 45.636 0 0 0-23.183 6.165V53.114a2.024 2.024 0 0 0-2.026-2.04h-24.562a2.026 2.026 0 0 0-2.027 2.04v128.172a2.039 2.039 0 0 0 2.027 2.041h17.045a2.034 2.034 0 0 0 1.782-1.078c.49-1.946.836-3.925 1.035-5.922 0 0 10.061 9.529 29.047 9.529 22.32 0 35.125-11.325 35.125-50.834 0-39.51-20.437-44.67-34.263-44.67Zm-9.586 72.22a29.085 29.085 0 0 1-14.143-4.096V117.89a32.394 32.394 0 0 1 12.562-4.067c8.752-.791 17.246 1.854 17.246 22.737-.057 22.018-3.866 26.358-15.665 26.013ZM215.037 92.997h-18.368V68.722c0-.92-.474-1.437-1.537-1.437h-25.066c-.977 0-1.437.431-1.437 1.438v25.08s-12.547 3.032-13.395 3.276a2.038 2.038 0 0 0-1.437 1.955v15.809a2.028 2.028 0 0 0 2.026 2.041h12.835v37.914c0 28.155 19.747 30.929 33.056 30.929a55.937 55.937 0 0 0 14.473-2.415 1.91 1.91 0 0 0 1.15-1.839V164.14a2.072 2.072 0 0 0-2.027-2.055c-1.078 0-3.809.445-6.64.445-9.011 0-12.073-4.197-12.073-9.629v-36.046h18.44a2.035 2.035 0 0 0 1.876-1.261 2.04 2.04 0 0 0 .151-.78V95.067a2.055 2.055 0 0 0-.583-1.457 2.036 2.036 0 0 0-1.444-.613Z" />
</svg>