<svg xmlns="http://www.w3.org/2000/svg" width="173" height="220" fill="none">
    <path fill="currentColor" fill-rule="evenodd"
        d="M16.853 35h139.535a5.233 5.233 0 0 1 5.232 5.233v139.534a5.233 5.233 0 0 1-5.232 5.233H16.853a5.233 5.233 0 0 1-5.233-5.233V40.233A5.233 5.233 0 0 1 16.853 35Zm110.306 125.748c-6.952 0-10.883-3.627-13.905-8.56l-11.454 6.655c4.138 8.176 12.595 14.414 25.685 14.414 13.388 0 23.357-6.952 23.357-19.643 0-11.771-6.762-17.007-18.738-22.143l-3.524-1.509c-6.047-2.619-8.666-4.331-8.666-8.56 0-3.421 2.616-6.04 6.745-6.04 4.048 0 6.655 1.707 9.071 6.04l10.977-7.047c-4.643-8.167-11.086-11.286-20.048-11.286-12.588 0-20.643 8.048-20.643 18.619 0 11.476 6.757 16.905 16.929 21.238l3.524 1.512c6.428 2.812 10.261 4.524 10.261 9.357 0 4.034-3.73 6.953-9.571 6.953Zm-54.626-.088c-4.843 0-6.857-3.322-9.072-7.25l-11.473 6.946c3.323 7.034 9.86 12.875 21.145 12.875 12.49 0 21.047-6.643 21.047-21.238v-48.119H80.085v47.928c0 7.046-2.921 8.858-7.552 8.858Z"
        clip-rule="evenodd" />
</svg>