<svg xmlns="http://www.w3.org/2000/svg" viewBox="0 0 205 40">
  <path fill="#1C1C1C" d="m55.849 37.096.25-.083s.138-.055.193-.055c.833-.277 2.692-1.245 3.385-2.627 1.415-.526 2.442-1.245 3.08-2.102 1.22-.221 2.164-.747 2.691-1.023 1.22-.692 2.08-1.355 2.608-2.074.444-.581.721-1.024.943-1.494a15.76 15.76 0 0 0 1.498-.912c2.137-1.41 2.58-4.01 2.636-4.314 0-.056.028-.139.028-.194h.333c2.136 0 4.938-1.328 6.436-2.074h.028c.222-.11.444-.221.527-.25.5-.22 1.526-.773 2.58-1.465 1.36-.912 2.275-1.742 2.775-2.516.083-.111.138-.25.194-.388l.888-.553a1.76 1.76 0 0 0 .61-.663c.25-.139.444-.25.5-.305.693-.442.998-1.216.749-1.963v-.028c-.222-.663-.833-1.465-1.86-1.714-.36-.775-1.137-1.217-1.997-1.217-.194 0-.36.028-.471.055-.056 0-.278.055-1.943.47l-2.469.581a2.313 2.313 0 0 0-.083-1.825c-.333-.692-1.026-1.134-1.748-1.134-.25 0-.5.055-.721.166h-.028c-.083.055-.277.138-4.689 2.987-.055.027-.11.083-.166.11-2.136 1.853-2.913 2.96-3.107 3.236a4.157 4.157 0 0 0-.444.774l-.333-.166a6.804 6.804 0 0 0-2.747-.58c-1.692 0-2.885.663-3.19.857-.167.083-.805.47-1.748 1.217a5.98 5.98 0 0 0-1.027 1.023 6.73 6.73 0 0 0-1.554.525c-.499.25-.97.636-1.498 1.051l-.027.028c-.084.083-.167.138-.278.221a6.587 6.587 0 0 0-1.36 1.41h-.055c-.083.028-.777.166-1.664.581-.222.11-.444.221-.639.36a9.827 9.827 0 0 0-2.302.415h-.056c-.083-.028-.86-.166-1.803-.166-.416 0-.805.027-1.138.083-.222.027-1.026.166-1.692.36-.333.082-1.138.359-2.08.967-2.026-.47-4.051-.608-5.328-.664 1.221-1.631 1.804-3.512 1.61-5.116-.389-3.042-2.442-4.84-3.191-5.365-1.276-5.31-4.994-7.577-8.046-7.91-.61-.69-1.748-1.133-3.052-1.133-.527 0-1.026.055-1.526.194-1.636.442-2.94 1.687-3.19 3.042-1.637 1.355-4.19 4.397-3.468 9.845-.61.83-1.803 2.931-.999 6.14.555 2.184 1.914 3.76 3.967 4.59-1.58.774-2.968 1.687-4.133 2.765-.084.056-.14.139-.195.194-2.746.138-5.243 1.272-7.213 3.29-1.415 1.44-2.386 3.099-2.996 4.565h49.745v-.028z"/>
  <path fill="#FFF" d="M55.738 35.354c-.583.194-1.582.58-2.969.58h-.139c-1.442-.027-3.163-.774-4.383-2.129-1.249-1.355-1.915-3.401-1.72-5.42.194-2.019 1.415-3.706 2.885-4.618a4.07 4.07 0 0 1 1.054-.498 2.7 2.7 0 0 1 .444-.138c-.028.027-.055.082-.083.11-1.498 2.213-1.387 5.061-.666 6.748a9.27 9.27 0 0 0 1.36 2.24 6.761 6.761 0 0 0 2.469 1.88 6.79 6.79 0 0 0 2.746.581h.306c-.472.304-.944.553-1.304.664"/>
  <path fill="#FFF" d="M58.762 32.893a6.164 6.164 0 0 1-2.026.36 5.375 5.375 0 0 1-2.164-.47c-1.637-.72-2.524-2.13-3.08-3.375-.554-1.272-.665-3.54.528-5.337.666-.968 1.609-1.549 2.358-1.88-.472 1.41-.693 3.594.86 6.222v.055a7.763 7.763 0 0 0 3.024 2.82 7.546 7.546 0 0 0 2.303.775c-.555.332-1.22.608-1.803.83"/>
  <path fill="#FFF" d="M64.588 29.74c-.666.36-1.582.857-2.747.913h-.166c-1.748 0-3.857-.83-5.216-3.015-2.442-4.093.222-6.913 1.11-7.605.527-.415 1.054-.83 1.47-1.078-.194.553-.277.968-.277 1.106-.195 1.023-.028 2.35.444 3.54.61 1.576 1.664 2.848 3.051 3.65 1.138.664 2.303.996 3.496.996.333 0 .638-.028.888-.056-.583.664-1.47 1.245-2.053 1.549m-52.186 7.356c.11-.912.36-2.019.86-3.208.416-.995.915-1.936 1.553-2.793-1.775.36-3.357 1.245-4.688 2.6-.916.912-1.693 2.074-2.331 3.374h4.606v.027zm30.795 0a21.64 21.64 0 0 1-.777-.746c-1.054-1.079-1.886-2.987-2.136-4.315-.444-2.157-.139-4.258.888-6.222.333-.608.721-1.19 1.193-1.687-2.303-.415-4.495-.442-5.216-.442a1.688 1.688 0 0 1-.333.442c-.832.72-1.526.885-1.026.36.471-.553.444-1.134.305-1.273-.111-.11-.305-.027-.416 0-1.36.498-1.61.277-1.332.111a11.926 11.926 0 0 0 2.33-1.825c1.027-1.162 1.86-2.849 1.665-4.397-.222-1.798-1.248-3.208-2.303-4.065-.11-.083-.194-.166-.25-.194-.027-.028-.055-.055-.083-.055-.166-.111-.388-.25-.554-.305-.278-.083-.195-.276.11-.36-.027-.137-.055-.303-.11-.442-.028-.138-.084-.276-.111-.414-1.221-4.038-4.107-5.753-6.492-6.002h-.084c-.555-.055-.943-.055-1.026-.055-.389-.055-.222-.221 0-.304.083-.028.11-.11.083-.166-.277-.415-1.554-.802-2.885-.415a3.427 3.427 0 0 0-1.665 1.079c-.056.083-.111.193-.166.276 0 .028-.028.056-.028.083-.056.166.138.11.138.11.639-.137.916.029.417.305-.306.166-.75.47-1.055.691a7.933 7.933 0 0 0-2.33 2.849c-.61 1.272-.916 2.765-.86 4.37.028.22.028.663.055.801.028.166.139.332.527.277.528-.055.86-.166.389.221-.194.138-.805.72-1.165 1.162-.722.912-1.277 2.6-.722 4.729.472 1.825 1.61 3.042 3.413 3.622 1.082.305 3.551.72 5.465.609.195 0 .25.028.222.11-.027.083-.166.139-.36.166a25.81 25.81 0 0 1-2.109.277c-.25.028-.444.194-.472.304v.028c-.138.498.888.912 1 .968.388.11.221.332.055.36-.722.138-2.026-.167-2.72-.222-.47-.028-.832.055-.97.138-1.637.72-3.024 1.632-4.162 2.683a11.808 11.808 0 0 0-2.885 4.148 11.61 11.61 0 0 0-.722 2.655h29.27v-.028z"/>
  <path fill="#FFF" d="M43.447 35.326c.61.636 1.304 1.3 2.414 1.77h4.994a7.841 7.841 0 0 1-3.662-2.295c-.75-.83-1.332-1.853-1.72-3.014a9.047 9.047 0 0 1-.39-3.54 7.488 7.488 0 0 1 1.194-3.374c.444-.72 1.026-1.328 1.665-1.853-.056 0-.14.028-.195.028 0 0-.86.11-1.47.304-.61.193-2.719.968-3.829 3.125-1.137 2.157-.999 4.037-.749 5.254.25 1.245.999 2.849 1.748 3.595m43.78-22.483c-.139.083-.333.194-.5.304v-.028c-.25-.414-.582-.69-.998-.774-.638-.138-1.443.11-2.497.802-1.554.996-3.968 1.576-3.995 1.576a.277.277 0 0 0-.222.36.325.325 0 0 0 .305.249h.083c.111-.028 2.553-.609 4.19-1.66.887-.58 1.58-.83 2.025-.718.222.055.388.165.527.414.194.305.028.47 0 .47s-.777.498-1.11.692a1.68 1.68 0 0 0-.999-.498c-.554-.055-1.137.194-1.72.747-1.415 1.327-2.94 1.742-2.968 1.77a.339.339 0 0 0-.222.387c.027.138.166.221.305.221h.083c.056-.028 1.693-.47 3.218-1.908.444-.415.86-.609 1.221-.58.36.027.583.276.638.331a.198.198 0 0 1 0 .249c-.86 1.355-3.856 3.07-4.716 3.43-.638.276-3.19 1.63-5.272 2.073-.221.056-.471.083-.693.11h-.083c-.306 0-1.72.028-2.137-.386-.61-.609-.832-.166-.638.608-.666.415-1.664.996-1.914 1.162-.694.414-1.581-.056-1.748-.056-.36 0 .5 1.079 1.22 1.19.778.11 2.22-.803 2.22-.803l.555-.36s-.333 2.103-1.886 3.154c-.971.636-1.388.857-1.748 1.023-.25.11-.971.498-2.053.498-.777 0-1.693-.194-2.747-.802-2.525-1.494-3.024-4.425-2.802-5.725 0 0 .277-1.936 1.775-3.07 1-.774 1.582-1.106 1.582-1.106s.943-.608 2.33-.608c.61 0 1.304.11 2.026.442a3.11 3.11 0 0 0-.527.47c-.278.443-.694 1.41-.417 1.41.195 0 .333-.497 1-.829.332-.166 1.886-1.078 1.886-1.078s.055-.25.138-.388c0 0 .195-.414.583-.995.028-.028.083-.11.167-.25.222-.303.527-.663.887-.995.417-.442 1-.995 1.776-1.687 0 0 4.328-2.793 4.522-2.903.028-.028.083-.028.111-.028.36 0 .888.636.25 1.493-.527.692-1.138 1.162-1.61 1.521a2.062 2.062 0 0 1-.47.277c-.667.221-1.527.747-1.666.857-.138.11-.138.304.028.221.583-.248 1.498-.47 1.665-.525.999-.221 8.24-1.963 8.35-1.991.029 0 .112-.028.167-.028.25 0 .666.083.777.609v.055l-6.63 1.963a.299.299 0 0 0-.195.388c.028.11.139.193.25.22h.138l5.91-1.741c.11-.028.333-.083.777-.222l.055-.027c.139-.028.25-.056.36-.056.611 0 .972.498 1.083.802.166.111.11.194 0 .277"/>
  <path fill="#1C1C1C" d="M26.052 18.346c-.389.277-.472.47-.528.609-.055.138-.055.276-.027.332.027.055 0 .138-.056.165-.055.028-.11 0-.139 0l-.083-.083c-.11-.248 0-.802.278-1.05.11-.111.25-.194.388-.25.056-.027.194-.082.278.028.055.111-.028.194-.111.25m9.1-1.77c-.084.027-.111-.084-.167-.222-.25.332-.804.857-.888.968l-.333.498c-.166.304-.305.58-.527.857-.277.36-.61.691-.999.913-.749.442-1.664.663-2.524.525a5.582 5.582 0 0 1-1.304-.442c-.333-.166-.694-.36-1.054-.387-.417 0-.86.027-1.277-.028-.138-.028-.277-.083-.305-.221-.055-.194.083-.415.278-.415.055 0 .138.027.194.027.138 0 .277.028.416.028 1.498.055 3.052-.193 4.467-.636.888-.277 1.748-.636 2.497-1.161.305-.222.61-.47.86-.747.027-.055.083-.11.11-.138-.027-.028-.055-.028-.083-.028-.083-.028-.083-.166.056-.194a.532.532 0 0 1 .416.111.624.624 0 0 1 .167.36c.11.11.11.304 0 .331m-1.998 1.272c-1.332.72-2.858 1.107-4.356 1.3a4.25 4.25 0 0 0 1.276.387c.417.028.805-.027 1.193-.138a3.46 3.46 0 0 0 1.11-.553c.333-.304.583-.636.777-.996m-8.462-3.208c-.25-.442-.388-.94-.472-1.438-.083-.497-.11-1.023 0-1.52.084-.498.306-.94.722-1.217.333-.25.749-.388 1.165-.388.111 0 .222 0 .333.028 1.054.221 1.554 1.079 1.97 2.295.471 1.328.139 2.987-.722 3.347-.221.083-.554.193-.554.193-.222.056-.444.11-.666.11-.25 0-.5-.054-.722-.193-.471-.304-.804-.774-1.054-1.217m.36-.193c.25.47.556.83.889 1.023.166.083.333.138.527.138.166 0 .333-.027.555-.083.083-.027.36-.11.499-.165.277-.111.5-.498.61-.996.028-.194.056-.387.056-.58-.056.635-.389 1.133-.832 1.216-.666.166-1.415-.553-1.665-1.604a4.146 4.146 0 0 1-.083-.802c.138.166.305.249.5.194.249-.056.387-.388.304-.72-.083-.248-.277-.442-.471-.47.138-.193.333-.331.527-.387.5-.11 1.026.222 1.36.83 0-.028-.029-.055-.029-.083-.332-.664-.915-1.355-2.025-1.05-1.47.386-1.137 2.294-.97 2.875.055.221.138.443.249.664m5.132-2.074c-.11-.443-.277-1.106-.222-1.742.056-.913.528-1.439 1.082-1.632.694-.221 1.443.138 1.86.664.249.304.471.746.665 1.189.056.138.139.304.194.47.167.498.25.995.222 1.466-.027.276-.055.553-.166.774-.083.249-.25.58-.527.747-.194.11-.416.138-.583.193a3.082 3.082 0 0 1-.527.056c-.111 0-.222 0-.333-.028h-.083c-.472-.138-.75-.498-.999-.802a4.213 4.213 0 0 1-.444-.857s-.028-.056-.055-.166a.511.511 0 0 1-.056-.194c0-.083 0-.11-.028-.138m.25-1.217c0 .387.056.83.167 1.217.11.387.277.774.499 1.106.194.277.444.553.805.664h.055c.083.027.166.027.25.027.138 0 .277-.027.444-.055.166-.028.333-.083.499-.166.194-.11.277-.332.36-.525.084-.222.112-.443.14-.664a2.946 2.946 0 0 0-.167-1.19v.056c.222 1.023-.083 1.936-.694 2.074-.61.138-1.276-.58-1.498-1.576a3.878 3.878 0 0 1-.083-.774c.11.165.305.276.5.22.249-.055.388-.386.305-.69-.084-.277-.306-.47-.528-.47.111-.167.278-.305.472-.333.388-.083.805.166 1.11.664l-.25-.415c-.222-.304-.555-.608-.943-.691-.056 0-.139-.028-.194-.028-.361 0-.722.166-.916.443-.277.304-.333.719-.333 1.106"/>
  <path d="m112.835 18.844-4.273 11.532h5.604l4.273-11.532h-5.604zm87.476 0-2.913 7.91c.028-.803.194-3.955.305-5.753.028-.747-.11-1.327-.471-1.687-.444-.47-1-.47-1.027-.47h-6.52l-4.272 11.532h4.716l3.024-8.186-.36 8.186h7.934L205 18.844h-4.689zm-98.574 0-4.106 6.195s.25-3.236.333-4.038c.055-.58-.028-2.185-1.47-2.185H90l-4.27 11.532h5.077l3.08-8.351-.639 8.351h4.523l5.548-8.213-3.024 8.213h5.105l4.273-11.532h-7.935v.028zm42.837 0-1.554 4.148h-2.83l1.526-4.148h-5.355l-4.217 11.532h5.327l1.443-3.9h2.83l-1.443 3.9h5.327l4.273-11.532h-5.327zm-18.367.083c-3.385.691-7.99 3.18-7.962 7.716.027 2.627 3.19 4.065 6.852 3.982 2.053-.055 3.996-.415 4.218-.47l1.359-3.485c-1.776.277-3.496.72-4.855.166-2.414-.968-.944-3.484.777-4.259.749-.331 1.775-.663 3.024-.636.5 0 1.775.028 2.247 1.134l1.692-4.065c-2.913-.72-5.826-.387-7.352-.083zm31.046 2.931h6.409l1.137-3.014h-11.68l-4.273 11.532h11.82l1.137-3.125h-6.52l.472-1.272h6.103l1.054-2.848h-6.103l.444-1.273zm23.638-3.014-4.273 11.532h5.604l4.273-11.532h-5.604zm-7.63 0h-5.466l-4.272 11.532h10.959l1.415-3.844h-5.494l2.858-7.688zm24.969 18.252H1.082L0 40h197.176z"/>
</svg>