<svg width="579" height="112" viewBox="0 0 579 112" fill="none" xmlns="http://www.w3.org/2000/svg">
    <path
        d="M579 50.8703V36.8011H561.529V14.9288L560.941 15.1099L544.53 20.1309L544.207 20.2292V36.8019H518.306V27.5695C518.306 23.2705 519.267 19.9807 521.161 17.7868C523.043 15.6191 525.734 14.5171 529.166 14.5171C531.633 14.5171 534.187 15.0983 536.758 16.2444L537.403 16.5323V1.71553L537.1 1.60409C534.701 0.741979 531.439 0.307831 527.396 0.307831C522.3 0.307831 517.67 1.41681 513.632 3.61464C509.591 5.81557 506.413 8.95754 504.186 12.9523C501.968 16.9425 500.842 21.551 500.842 26.6509V36.8011H488.676V50.8703H500.842V110.141H518.306V50.8703H544.207V88.5361C544.207 104.049 551.524 111.91 565.955 111.91C568.326 111.91 570.822 111.632 573.37 111.088C575.964 110.529 577.731 109.971 578.771 109.375L579.001 109.239V95.0398L578.29 95.5096C577.342 96.141 576.162 96.6572 574.778 97.0411C573.389 97.4319 572.228 97.6277 571.328 97.6277C567.948 97.6277 565.447 96.7168 563.895 94.9191C562.326 93.1051 561.53 89.9329 561.53 85.4955V50.8703H579ZM449.675 97.63C443.337 97.63 438.339 95.5281 434.817 91.3878C431.273 87.2267 429.478 81.2941 429.478 73.7564C429.478 65.9797 431.273 59.8931 434.818 55.6584C438.343 51.4515 443.292 49.3164 449.533 49.3164C455.589 49.3164 460.409 51.3556 463.862 55.3805C467.332 59.4264 469.094 65.4643 469.094 73.3316C469.094 81.2956 467.438 87.4132 464.172 91.5055C460.928 95.5668 456.051 97.63 449.675 97.63ZM450.452 35.0343C438.358 35.0343 428.753 38.578 421.904 45.5669C415.06 52.5566 411.589 62.2294 411.589 74.319C411.589 85.8019 414.977 95.0383 421.658 101.767C428.34 108.498 437.433 111.908 448.683 111.908C460.406 111.908 469.82 108.315 476.666 101.229C483.511 94.1514 486.979 84.5699 486.979 72.7628C486.979 61.1003 483.725 51.7951 477.304 45.1111C470.88 38.424 461.844 35.0343 450.452 35.0343ZM383.432 35.0343C375.205 35.0343 368.4 37.1385 363.202 41.2873C357.972 45.4609 355.32 50.9346 355.32 57.5583C355.32 61.0013 355.892 64.0597 357.019 66.6537C358.153 69.2563 359.907 71.5478 362.238 73.4709C364.551 75.3785 368.122 77.3767 372.853 79.4097C376.831 81.0464 379.798 82.4309 381.682 83.5221C383.524 84.5916 384.831 85.6665 385.569 86.7136C386.286 87.7382 386.65 89.1405 386.65 90.8709C386.65 95.7982 382.96 98.1957 375.368 98.1957C372.552 98.1957 369.339 97.6076 365.82 96.4483C362.327 95.3065 359.029 93.6345 356.043 91.4908L355.318 90.9707V107.785L355.584 107.909C358.055 109.049 361.171 110.011 364.843 110.768C368.508 111.526 371.838 111.911 374.731 111.911C383.658 111.911 390.846 109.797 396.092 105.623C401.37 101.421 404.046 95.8183 404.046 88.9656C404.046 84.022 402.605 79.7827 399.767 76.3636C396.948 72.9725 392.054 69.8592 385.229 67.1072C379.792 64.9249 376.309 63.1132 374.872 61.7225C373.486 60.3791 372.783 58.4792 372.783 56.0732C372.783 53.9403 373.651 52.2316 375.434 50.8479C377.23 49.4572 379.73 48.7499 382.866 48.7499C385.776 48.7499 388.753 49.2096 391.714 50.1104C394.672 51.0112 397.271 52.2177 399.44 53.6935L400.154 54.181V38.2313L399.88 38.1136C397.879 37.2554 395.24 36.521 392.034 35.9251C388.843 35.3331 385.949 35.0343 383.432 35.0343ZM309.791 97.63C303.454 97.63 298.454 95.5281 294.933 91.3878C291.389 87.2267 289.597 81.2956 289.597 73.7564C289.597 65.9797 291.391 59.8931 294.937 55.6584C298.458 51.4515 303.407 49.3164 309.651 49.3164C315.704 49.3164 320.525 51.3556 323.979 55.3805C327.45 59.4264 329.21 65.4643 329.21 73.3316C329.21 81.2956 327.553 87.4132 324.288 91.5055C321.044 95.5668 316.17 97.63 309.791 97.63ZM310.57 35.0343C298.473 35.0343 288.867 38.578 282.022 45.5669C275.178 52.5566 271.705 62.2294 271.705 74.319C271.705 85.8066 275.095 95.0383 281.777 101.767C288.458 108.498 297.551 111.908 308.801 111.908C320.522 111.908 329.938 108.315 336.784 101.229C343.628 94.1514 347.097 84.5699 347.097 72.7628C347.097 61.1003 343.842 51.7951 337.42 45.1111C330.994 38.424 321.96 35.0343 310.57 35.0343ZM245.195 49.5021V36.8011H227.944V110.14H245.195V72.6242C245.195 66.2451 246.641 61.0044 249.495 57.0459C252.313 53.1347 256.068 51.1528 260.653 51.1528C262.207 51.1528 263.951 51.409 265.84 51.9159C267.71 52.4197 269.064 52.9668 269.863 53.5426L270.588 54.068V36.6758L270.308 36.5558C268.702 35.8732 266.429 35.5289 263.553 35.5289C259.218 35.5289 255.338 36.9219 252.015 39.6645C249.098 42.0752 246.99 45.3804 245.378 49.5021H245.195ZM197.049 35.0343C189.135 35.0343 182.075 36.7315 176.071 40.077C170.054 43.4302 165.401 48.2175 162.235 54.3048C159.083 60.3775 157.482 67.4709 157.482 75.3816C157.482 82.311 159.034 88.67 162.101 94.2744C165.169 99.8882 169.512 104.28 175.01 107.326C180.5 110.368 186.845 111.91 193.87 111.91C202.069 111.91 209.069 110.271 214.681 107.039L214.907 106.909V91.1038L214.182 91.6332C211.64 93.4851 208.799 94.9632 205.742 96.0281C202.693 97.0921 199.913 97.63 197.476 97.63C190.707 97.63 185.272 95.5119 181.328 91.336C177.375 87.1547 175.37 81.2832 175.37 73.895C175.37 66.4602 177.461 60.4379 181.58 55.9942C185.687 51.5637 191.131 49.3164 197.761 49.3164C203.431 49.3164 208.956 51.2364 214.184 55.0284L214.907 55.5539V38.9007L214.674 38.7691C212.707 37.6679 210.023 36.7586 206.693 36.069C203.376 35.381 200.132 35.0343 197.049 35.0343ZM145.601 36.8019H128.349V110.14H145.601V36.8019ZM137.151 5.55941C134.312 5.55941 131.836 6.52599 129.801 8.44136C127.758 10.3621 126.722 12.7805 126.722 15.6346C126.722 18.4438 127.746 20.8181 129.769 22.6878C131.78 24.5521 134.264 25.497 137.152 25.497C140.04 25.497 142.533 24.5521 144.568 22.6909C146.615 20.8181 147.654 18.4446 147.654 15.6346C147.654 12.8804 146.643 10.4867 144.652 8.51875C142.662 6.55463 140.138 5.55941 137.151 5.55941ZM94.108 31.3909V110.14H111.714V7.80445H87.3466L56.3741 83.8162L26.3173 7.80445H0.957825V110.139H17.5027V31.3832H18.0707L49.8101 110.14H62.2959L93.5399 31.3909H94.108Z"
        fill="white" />
</svg>