<svg xmlns="http://www.w3.org/2000/svg" width="240" height="40" fill="none">
    <path fill="currentColor" fill-rule="evenodd"
        d="m31 40-4-10.6L23 40h-2l5-13.2-4-10.5L13 40h-2l10-26.4-4.5-11.8L2 40H0L15.2 0h2.6L22 11l4.2-11h2.6l3.7 9.7L36.2 0h2.6L43 11l4.2-11h2.6L65 40h-2L48.5 1.8 44 13.6 54 40h-2l-9-23.7-4 10.5L44 40h-2l-4-10.6L34 40h-3Zm1.5-25L28 26.7l4.5 11.9L37 26.8 32.5 15Zm-5-13.2L23 13.6l4 10.6 4.5-11.9-4-10.5Zm10 0-4 10.5L38 24.2l4-10.6-4.5-11.8Z"
        clip-rule="evenodd" />
    <path fill="currentColor"
        d="M97.726 17.956V29h2.706V13.6H97.55l-4.686 7.282-4.686-7.282h-2.882V29h2.662V18l4.818 7.216h.088l4.862-7.26ZM121.687 21.278a8.055 8.055 0 0 0-.594-3.08 7.788 7.788 0 0 0-1.65-2.53 7.591 7.591 0 0 0-2.53-1.694c-.982-.425-2.068-.638-3.256-.638-1.188 0-2.273.213-3.256.638a7.968 7.968 0 0 0-2.552 1.738 7.625 7.625 0 0 0-1.672 2.53 8.055 8.055 0 0 0-.594 3.08c0 1.085.198 2.112.594 3.08a7.788 7.788 0 0 0 1.65 2.53 7.883 7.883 0 0 0 2.53 1.716c.983.41 2.068.616 3.256.616 1.188 0 2.274-.213 3.256-.638a8.127 8.127 0 0 0 2.552-1.716 7.855 7.855 0 0 0 1.672-2.552 8.055 8.055 0 0 0 .594-3.08Zm-2.838.044c0 .748-.132 1.46-.396 2.134a5.354 5.354 0 0 1-1.056 1.738 5.153 5.153 0 0 1-1.65 1.166 5.11 5.11 0 0 1-2.09.418 5.048 5.048 0 0 1-2.112-.44 5.267 5.267 0 0 1-1.672-1.188 5.702 5.702 0 0 1-1.078-1.738 6.114 6.114 0 0 1-.374-2.134c0-.748.125-1.452.374-2.112a5.368 5.368 0 0 1 1.078-1.738 4.813 4.813 0 0 1 1.628-1.166 5.048 5.048 0 0 1 2.112-.44 5.042 5.042 0 0 1 3.762 1.628c.47.499.829 1.085 1.078 1.76.264.66.396 1.364.396 2.112ZM137.585 24.248l-8.25-10.648h-2.508V29h2.662V18.044L137.981 29h2.266V13.6h-2.662v10.648ZM161.5 21.278a8.055 8.055 0 0 0-.594-3.08 7.788 7.788 0 0 0-1.65-2.53 7.601 7.601 0 0 0-2.53-1.694c-.983-.425-2.068-.638-3.256-.638-1.188 0-2.274.213-3.256.638a7.946 7.946 0 0 0-2.552 1.738 7.61 7.61 0 0 0-1.672 2.53 8.055 8.055 0 0 0-.594 3.08c0 1.085.198 2.112.594 3.08a7.788 7.788 0 0 0 1.65 2.53 7.872 7.872 0 0 0 2.53 1.716c.982.41 2.068.616 3.256.616 1.188 0 2.273-.213 3.256-.638a8.15 8.15 0 0 0 2.552-1.716 7.871 7.871 0 0 0 1.672-2.552 8.055 8.055 0 0 0 .594-3.08Zm-2.838.044c0 .748-.132 1.46-.396 2.134-.25.66-.602 1.24-1.056 1.738a5.175 5.175 0 0 1-1.65 1.166 5.118 5.118 0 0 1-2.09.418 5.042 5.042 0 0 1-2.112-.44 5.245 5.245 0 0 1-1.672-1.188 5.682 5.682 0 0 1-1.078-1.738 6.091 6.091 0 0 1-.374-2.134c0-.748.124-1.452.374-2.112a5.351 5.351 0 0 1 1.078-1.738 4.794 4.794 0 0 1 1.628-1.166 5.042 5.042 0 0 1 2.112-.44 5.048 5.048 0 0 1 3.762 1.628 5.146 5.146 0 0 1 1.078 1.76c.264.66.396 1.364.396 2.112ZM180.367 26.866v-6.468h-6.556v2.354h3.938v2.882a5.98 5.98 0 0 1-1.672.858 6.577 6.577 0 0 1-2.046.308c-.792 0-1.511-.14-2.156-.418a5.197 5.197 0 0 1-1.65-1.144 5.304 5.304 0 0 1-1.056-1.76 6.307 6.307 0 0 1-.374-2.2c0-.748.125-1.452.374-2.112a5.93 5.93 0 0 1 1.056-1.738 4.939 4.939 0 0 1 1.584-1.166 4.547 4.547 0 0 1 1.98-.44c.484 0 .924.044 1.32.132.411.073.785.183 1.122.33.337.132.66.3.968.506.308.205.609.433.902.682l1.716-2.046a8.652 8.652 0 0 0-1.232-.88 6.957 6.957 0 0 0-1.32-.66 7.88 7.88 0 0 0-1.54-.396 9.864 9.864 0 0 0-1.826-.154c-1.159 0-2.229.213-3.212.638a7.766 7.766 0 0 0-2.508 1.738 7.788 7.788 0 0 0-1.65 2.53 8.334 8.334 0 0 0-.572 3.08c0 1.13.191 2.178.572 3.146a7.677 7.677 0 0 0 1.606 2.53 7.765 7.765 0 0 0 2.53 1.672c.983.396 2.075.594 3.278.594.675 0 1.32-.066 1.936-.198a8.665 8.665 0 0 0 1.716-.506 8.965 8.965 0 0 0 1.496-.77c.469-.293.895-.601 1.276-.924ZM198.829 29l-4.158-5.83a5.775 5.775 0 0 0 1.474-.616 4.795 4.795 0 0 0 1.166-.99c.323-.396.572-.843.748-1.342.191-.513.286-1.093.286-1.738 0-.748-.132-1.423-.396-2.024a4.002 4.002 0 0 0-1.144-1.54c-.484-.425-1.085-.748-1.804-.968-.704-.235-1.496-.352-2.376-.352h-6.864V29h2.706v-5.368h3.388L195.639 29h3.19Zm-3.234-10.362c0 .792-.286 1.423-.858 1.892-.572.47-1.342.704-2.31.704h-3.96v-5.17h3.938c1.012 0 1.797.22 2.354.66.557.425.836 1.063.836 1.914ZM211.934 13.49h-2.508L202.65 29h2.772l1.584-3.718h7.282L215.85 29h2.86l-6.776-15.51Zm1.364 9.394h-5.302l2.64-6.16 2.662 6.16ZM236.31 17.956V29h2.706V13.6h-2.882l-4.686 7.282-4.686-7.282h-2.882V29h2.662V18l4.818 7.216h.088l4.862-7.26Z" />
</svg>