<svg width="234" height="61" viewBox="0 0 234 61" fill="none" xmlns="http://www.w3.org/2000/svg">
<path fill-rule="evenodd" clip-rule="evenodd" d="M37 51L33 40.4L29 51H27L32 37.8L28 27.3L19 51H17L27 24.6L22.5 12.8L8 51H6L21.2 11H23.8L28 22L32.2 11H34.8L38.5 20.7L42.2 11H44.8L49 22L53.2 11H55.8L71 51H69L54.5 12.8L50 24.6L60 51H58L49 27.3L45 37.8L50 51H48L44 40.4L40 51H37ZM38.5 26L34 37.7L38.5 49.6L43 37.8L38.5 26ZM33.5 12.8L29 24.6L33 35.2L37.5 23.3L33.5 12.8V12.8ZM43.5 12.8L39.5 23.3L44 35.2L48 24.6L43.5 12.8V12.8Z" fill="black"/>
<path d="M107.79 27.964V37H110.004V24.4H107.646L103.812 30.358L99.978 24.4H97.62V37H99.798V28L103.74 33.904H103.812L107.79 27.964Z" fill="black"/>
<path d="M127.485 30.682C127.485 29.794 127.323 28.954 126.999 28.162C126.675 27.37 126.225 26.68 125.649 26.092C125.073 25.504 124.383 25.042 123.579 24.706C122.775 24.358 121.887 24.184 120.915 24.184C119.943 24.184 119.055 24.358 118.251 24.706C117.447 25.054 116.751 25.528 116.163 26.128C115.575 26.716 115.119 27.406 114.795 28.198C114.471 28.99 114.309 29.83 114.309 30.718C114.309 31.606 114.471 32.446 114.795 33.238C115.119 34.03 115.569 34.72 116.145 35.308C116.721 35.896 117.411 36.364 118.215 36.712C119.019 37.048 119.907 37.216 120.879 37.216C121.851 37.216 122.739 37.042 123.543 36.694C124.347 36.346 125.043 35.878 125.631 35.29C126.219 34.69 126.675 33.994 126.999 33.202C127.323 32.41 127.485 31.57 127.485 30.682ZM125.163 30.718C125.163 31.33 125.055 31.912 124.839 32.464C124.635 33.004 124.347 33.478 123.975 33.886C123.603 34.282 123.153 34.6 122.625 34.84C122.109 35.068 121.539 35.182 120.915 35.182C120.291 35.182 119.715 35.062 119.187 34.822C118.659 34.582 118.203 34.258 117.819 33.85C117.447 33.442 117.153 32.968 116.937 32.428C116.733 31.876 116.631 31.294 116.631 30.682C116.631 30.07 116.733 29.494 116.937 28.954C117.153 28.402 117.447 27.928 117.819 27.532C118.191 27.124 118.635 26.806 119.151 26.578C119.679 26.338 120.255 26.218 120.879 26.218C121.503 26.218 122.079 26.338 122.607 26.578C123.135 26.818 123.585 27.142 123.957 27.55C124.341 27.958 124.635 28.438 124.839 28.99C125.055 29.53 125.163 30.106 125.163 30.718Z" fill="black"/>
<path d="M140.582 33.112L133.832 24.4H131.78V37H133.958V28.036L140.906 37H142.76V24.4H140.582V33.112Z" fill="black"/>
<path d="M160.239 30.682C160.239 29.794 160.077 28.954 159.753 28.162C159.429 27.37 158.979 26.68 158.403 26.092C157.827 25.504 157.137 25.042 156.333 24.706C155.529 24.358 154.641 24.184 153.669 24.184C152.697 24.184 151.809 24.358 151.005 24.706C150.201 25.054 149.505 25.528 148.917 26.128C148.329 26.716 147.873 27.406 147.549 28.198C147.225 28.99 147.063 29.83 147.063 30.718C147.063 31.606 147.225 32.446 147.549 33.238C147.873 34.03 148.323 34.72 148.899 35.308C149.475 35.896 150.165 36.364 150.969 36.712C151.773 37.048 152.661 37.216 153.633 37.216C154.605 37.216 155.493 37.042 156.297 36.694C157.101 36.346 157.797 35.878 158.385 35.29C158.973 34.69 159.429 33.994 159.753 33.202C160.077 32.41 160.239 31.57 160.239 30.682ZM157.917 30.718C157.917 31.33 157.809 31.912 157.593 32.464C157.389 33.004 157.101 33.478 156.729 33.886C156.357 34.282 155.907 34.6 155.379 34.84C154.863 35.068 154.293 35.182 153.669 35.182C153.045 35.182 152.469 35.062 151.941 34.822C151.413 34.582 150.957 34.258 150.573 33.85C150.201 33.442 149.907 32.968 149.691 32.428C149.487 31.876 149.385 31.294 149.385 30.682C149.385 30.07 149.487 29.494 149.691 28.954C149.907 28.402 150.201 27.928 150.573 27.532C150.945 27.124 151.389 26.806 151.905 26.578C152.433 26.338 153.009 26.218 153.633 26.218C154.257 26.218 154.833 26.338 155.361 26.578C155.889 26.818 156.339 27.142 156.711 27.55C157.095 27.958 157.389 28.438 157.593 28.99C157.809 29.53 157.917 30.106 157.917 30.718Z" fill="black"/>
<path d="M175.766 35.254V29.962H170.402V31.888H173.624V34.246C173.24 34.534 172.784 34.768 172.256 34.948C171.74 35.116 171.182 35.2 170.582 35.2C169.934 35.2 169.346 35.086 168.818 34.858C168.302 34.63 167.852 34.318 167.468 33.922C167.096 33.514 166.808 33.034 166.604 32.482C166.4 31.93 166.298 31.33 166.298 30.682C166.298 30.07 166.4 29.494 166.604 28.954C166.82 28.414 167.108 27.94 167.468 27.532C167.84 27.124 168.272 26.806 168.764 26.578C169.268 26.338 169.808 26.218 170.384 26.218C170.78 26.218 171.14 26.254 171.464 26.326C171.8 26.386 172.106 26.476 172.382 26.596C172.658 26.704 172.922 26.842 173.174 27.01C173.426 27.178 173.672 27.364 173.912 27.568L175.316 25.894C174.992 25.618 174.656 25.378 174.308 25.174C173.972 24.958 173.612 24.778 173.228 24.634C172.844 24.49 172.424 24.382 171.968 24.31C171.524 24.226 171.026 24.184 170.474 24.184C169.526 24.184 168.65 24.358 167.846 24.706C167.054 25.054 166.37 25.528 165.794 26.128C165.218 26.716 164.768 27.406 164.444 28.198C164.132 28.99 163.976 29.83 163.976 30.718C163.976 31.642 164.132 32.5 164.444 33.292C164.756 34.084 165.194 34.774 165.758 35.362C166.334 35.938 167.024 36.394 167.828 36.73C168.632 37.054 169.526 37.216 170.51 37.216C171.062 37.216 171.59 37.162 172.094 37.054C172.598 36.958 173.066 36.82 173.498 36.64C173.942 36.46 174.35 36.25 174.722 36.01C175.106 35.77 175.454 35.518 175.766 35.254Z" fill="black"/>
<path d="M190.961 37L187.559 32.23C188.003 32.11 188.405 31.942 188.765 31.726C189.137 31.498 189.455 31.228 189.719 30.916C189.983 30.592 190.187 30.226 190.331 29.818C190.487 29.398 190.565 28.924 190.565 28.396C190.565 27.784 190.457 27.232 190.241 26.74C190.025 26.236 189.713 25.816 189.305 25.48C188.909 25.132 188.417 24.868 187.829 24.688C187.253 24.496 186.605 24.4 185.885 24.4H180.269V37H182.483V32.608H185.255L188.351 37H190.961ZM188.315 28.522C188.315 29.17 188.081 29.686 187.613 30.07C187.145 30.454 186.515 30.646 185.723 30.646H182.483V26.416H185.705C186.533 26.416 187.175 26.596 187.631 26.956C188.087 27.304 188.315 27.826 188.315 28.522Z" fill="black"/>
<path d="M201.413 24.31H199.361L193.817 37H196.085L197.381 33.958H203.339L204.617 37H206.957L201.413 24.31ZM202.529 31.996H198.191L200.351 26.956L202.529 31.996Z" fill="black"/>
<path d="M220.907 27.964V37H223.121V24.4H220.763L216.929 30.358L213.095 24.4H210.737V37H212.915V28L216.857 33.904H216.929L220.907 27.964Z" fill="black"/>
</svg>
