<svg width="214" height="40" viewBox="0 0 214 40" fill="none" xmlns="http://www.w3.org/2000/svg">
<path fill-rule="evenodd" clip-rule="evenodd" d="M31 40L27 29.4L23 40H21L26 26.8L22 16.3L13 40H11L21 13.6L16.5 1.8L2 40H0L15.2 0H17.8L22 11L26.2 0H28.8L32.5 9.7L36.2 0H38.8L43 11L47.2 0H49.8L65 40H63L48.5 1.8L44 13.6L54 40H52L43 16.3L39 26.8L44 40H42L38 29.4L34 40H31ZM32.5 15L28 26.7L32.5 38.6L37 26.8L32.5 15ZM27.5 1.8L23 13.6L27 24.2L31.5 12.3L27.5 1.8V1.8ZM37.5 1.8L33.5 12.3L38 24.2L42 13.6L37.5 1.8V1.8Z" fill="currentColor"/>
<path d="M97.79 16.964V26H100.004V13.4H97.646L93.812 19.358L89.978 13.4H87.62V26H89.798V17L93.74 22.904H93.812L97.79 16.964Z" fill="currentColor"/>
<path d="M117.485 19.682C117.485 18.794 117.323 17.954 116.999 17.162C116.675 16.37 116.225 15.68 115.649 15.092C115.073 14.504 114.383 14.042 113.579 13.706C112.775 13.358 111.887 13.184 110.915 13.184C109.943 13.184 109.055 13.358 108.251 13.706C107.447 14.054 106.751 14.528 106.163 15.128C105.575 15.716 105.119 16.406 104.795 17.198C104.471 17.99 104.309 18.83 104.309 19.718C104.309 20.606 104.471 21.446 104.795 22.238C105.119 23.03 105.569 23.72 106.145 24.308C106.721 24.896 107.411 25.364 108.215 25.712C109.019 26.048 109.907 26.216 110.879 26.216C111.851 26.216 112.739 26.042 113.543 25.694C114.347 25.346 115.043 24.878 115.631 24.29C116.219 23.69 116.675 22.994 116.999 22.202C117.323 21.41 117.485 20.57 117.485 19.682ZM115.163 19.718C115.163 20.33 115.055 20.912 114.839 21.464C114.635 22.004 114.347 22.478 113.975 22.886C113.603 23.282 113.153 23.6 112.625 23.84C112.109 24.068 111.539 24.182 110.915 24.182C110.291 24.182 109.715 24.062 109.187 23.822C108.659 23.582 108.203 23.258 107.819 22.85C107.447 22.442 107.153 21.968 106.937 21.428C106.733 20.876 106.631 20.294 106.631 19.682C106.631 19.07 106.733 18.494 106.937 17.954C107.153 17.402 107.447 16.928 107.819 16.532C108.191 16.124 108.635 15.806 109.151 15.578C109.679 15.338 110.255 15.218 110.879 15.218C111.503 15.218 112.079 15.338 112.607 15.578C113.135 15.818 113.585 16.142 113.957 16.55C114.341 16.958 114.635 17.438 114.839 17.99C115.055 18.53 115.163 19.106 115.163 19.718Z" fill="currentColor"/>
<path d="M130.582 22.112L123.832 13.4H121.78V26H123.958V17.036L130.906 26H132.76V13.4H130.582V22.112Z" fill="currentColor"/>
<path d="M150.239 19.682C150.239 18.794 150.077 17.954 149.753 17.162C149.429 16.37 148.979 15.68 148.403 15.092C147.827 14.504 147.137 14.042 146.333 13.706C145.529 13.358 144.641 13.184 143.669 13.184C142.697 13.184 141.809 13.358 141.005 13.706C140.201 14.054 139.505 14.528 138.917 15.128C138.329 15.716 137.873 16.406 137.549 17.198C137.225 17.99 137.063 18.83 137.063 19.718C137.063 20.606 137.225 21.446 137.549 22.238C137.873 23.03 138.323 23.72 138.899 24.308C139.475 24.896 140.165 25.364 140.969 25.712C141.773 26.048 142.661 26.216 143.633 26.216C144.605 26.216 145.493 26.042 146.297 25.694C147.101 25.346 147.797 24.878 148.385 24.29C148.973 23.69 149.429 22.994 149.753 22.202C150.077 21.41 150.239 20.57 150.239 19.682ZM147.917 19.718C147.917 20.33 147.809 20.912 147.593 21.464C147.389 22.004 147.101 22.478 146.729 22.886C146.357 23.282 145.907 23.6 145.379 23.84C144.863 24.068 144.293 24.182 143.669 24.182C143.045 24.182 142.469 24.062 141.941 23.822C141.413 23.582 140.957 23.258 140.573 22.85C140.201 22.442 139.907 21.968 139.691 21.428C139.487 20.876 139.385 20.294 139.385 19.682C139.385 19.07 139.487 18.494 139.691 17.954C139.907 17.402 140.201 16.928 140.573 16.532C140.945 16.124 141.389 15.806 141.905 15.578C142.433 15.338 143.009 15.218 143.633 15.218C144.257 15.218 144.833 15.338 145.361 15.578C145.889 15.818 146.339 16.142 146.711 16.55C147.095 16.958 147.389 17.438 147.593 17.99C147.809 18.53 147.917 19.106 147.917 19.718Z" fill="currentColor"/>
<path d="M165.766 24.254V18.962H160.402V20.888H163.624V23.246C163.24 23.534 162.784 23.768 162.256 23.948C161.74 24.116 161.182 24.2 160.582 24.2C159.934 24.2 159.346 24.086 158.818 23.858C158.302 23.63 157.852 23.318 157.468 22.922C157.096 22.514 156.808 22.034 156.604 21.482C156.4 20.93 156.298 20.33 156.298 19.682C156.298 19.07 156.4 18.494 156.604 17.954C156.82 17.414 157.108 16.94 157.468 16.532C157.84 16.124 158.272 15.806 158.764 15.578C159.268 15.338 159.808 15.218 160.384 15.218C160.78 15.218 161.14 15.254 161.464 15.326C161.8 15.386 162.106 15.476 162.382 15.596C162.658 15.704 162.922 15.842 163.174 16.01C163.426 16.178 163.672 16.364 163.912 16.568L165.316 14.894C164.992 14.618 164.656 14.378 164.308 14.174C163.972 13.958 163.612 13.778 163.228 13.634C162.844 13.49 162.424 13.382 161.968 13.31C161.524 13.226 161.026 13.184 160.474 13.184C159.526 13.184 158.65 13.358 157.846 13.706C157.054 14.054 156.37 14.528 155.794 15.128C155.218 15.716 154.768 16.406 154.444 17.198C154.132 17.99 153.976 18.83 153.976 19.718C153.976 20.642 154.132 21.5 154.444 22.292C154.756 23.084 155.194 23.774 155.758 24.362C156.334 24.938 157.024 25.394 157.828 25.73C158.632 26.054 159.526 26.216 160.51 26.216C161.062 26.216 161.59 26.162 162.094 26.054C162.598 25.958 163.066 25.82 163.498 25.64C163.942 25.46 164.35 25.25 164.722 25.01C165.106 24.77 165.454 24.518 165.766 24.254Z" fill="currentColor"/>
<path d="M180.961 26L177.559 21.23C178.003 21.11 178.405 20.942 178.765 20.726C179.137 20.498 179.455 20.228 179.719 19.916C179.983 19.592 180.187 19.226 180.331 18.818C180.487 18.398 180.565 17.924 180.565 17.396C180.565 16.784 180.457 16.232 180.241 15.74C180.025 15.236 179.713 14.816 179.305 14.48C178.909 14.132 178.417 13.868 177.829 13.688C177.253 13.496 176.605 13.4 175.885 13.4H170.269V26H172.483V21.608H175.255L178.351 26H180.961ZM178.315 17.522C178.315 18.17 178.081 18.686 177.613 19.07C177.145 19.454 176.515 19.646 175.723 19.646H172.483V15.416H175.705C176.533 15.416 177.175 15.596 177.631 15.956C178.087 16.304 178.315 16.826 178.315 17.522Z" fill="currentColor"/>
<path d="M191.413 13.31H189.361L183.817 26H186.085L187.381 22.958H193.339L194.617 26H196.957L191.413 13.31ZM192.529 20.996H188.191L190.351 15.956L192.529 20.996Z" fill="currentColor"/>
<path d="M210.907 16.964V26H213.121V13.4H210.763L206.929 19.358L203.095 13.4H200.737V26H202.915V17L206.857 22.904H206.929L210.907 16.964Z" fill="currentColor"/>
</svg>
