<svg xmlns="http://www.w3.org/2000/svg" width="512" height="128" fill="none">
    <path fill="currentColor" fill-rule="evenodd"
        d="M128 64c0 35.346-28.654 64-64 64-35.346 0-64-28.654-64-64C0 28.654 28.654 0 64 0c35.346 0 64 28.654 64 64ZM74.825 25.25 64 6.5 53.175 25.25H58v27.094L44.156 38.5 38.5 44.157 52.342 58H25.25v-4.825L6.5 64l18.75 10.825V70h27.005L38.5 83.755l5.657 5.657L58 75.569v27.181h-4.825L64 121.5l10.825-18.75H70V75.657l13.754 13.755 5.657-5.657L75.656 70h27.094v4.825L121.5 64l-18.75-10.825V58H75.569l13.843-13.843-5.657-5.657L70 52.255V25.25h4.825Z"
        clip-rule="evenodd" />
    <path fill="currentColor"
        d="M222.457 96h-8.19l-32.94-49.95V96h-8.19V33.18h8.19l32.94 49.86V33.18h8.19V96Zm10.901-24.84c0-5.04 1.02-9.45 3.06-13.23 2.04-3.84 4.83-6.81 8.37-8.91 3.6-2.1 7.59-3.15 11.97-3.15 4.32 0 8.07.93 11.25 2.79 3.18 1.86 5.55 4.2 7.11 7.02v-9h8.28V96h-8.28v-9.18c-1.62 2.88-4.05 5.28-7.29 7.2-3.18 1.86-6.9 2.79-11.16 2.79-4.38 0-8.34-1.08-11.88-3.24-3.54-2.16-6.33-5.19-8.37-9.09-2.04-3.9-3.06-8.34-3.06-13.32Zm41.76.09c0-3.72-.75-6.96-2.25-9.72-1.5-2.76-3.54-4.86-6.12-6.3-2.52-1.5-5.31-2.25-8.37-2.25-3.06 0-5.85.72-8.37 2.16-2.52 1.44-4.53 3.54-6.03 6.3s-2.25 6-2.25 9.72c0 3.78.75 7.08 2.25 9.9 1.5 2.76 3.51 4.89 6.03 6.39 2.52 1.44 5.31 2.16 8.37 2.16 3.06 0 5.85-.72 8.37-2.16 2.58-1.5 4.62-3.63 6.12-6.39 1.5-2.82 2.25-6.09 2.25-9.81Zm40.481 17.19 15.3-41.76h8.73L320.279 96h-9.54l-19.35-49.32h8.82l15.39 41.76Zm36.319-49.77c-1.56 0-2.88-.54-3.96-1.62s-1.62-2.4-1.62-3.96.54-2.88 1.62-3.96 2.4-1.62 3.96-1.62c1.5 0 2.76.54 3.78 1.62 1.08 1.08 1.62 2.4 1.62 3.96s-.54 2.88-1.62 3.96c-1.02 1.08-2.28 1.62-3.78 1.62Zm3.96 8.01V96h-8.19V46.68h8.19Zm22.148-17.28V96h-8.19V29.4h8.19Zm22.149 0V96h-8.19V29.4h8.19Zm57.698 17.28V96h-8.19v-7.29c-1.56 2.52-3.75 4.5-6.57 5.94-2.76 1.38-5.82 2.07-9.18 2.07-3.84 0-7.29-.78-10.35-2.34-3.06-1.62-5.49-4.02-7.29-7.2-1.74-3.18-2.61-7.05-2.61-11.61V46.68h8.1v27.81c0 4.86 1.23 8.61 3.69 11.25 2.46 2.58 5.82 3.87 10.08 3.87 4.38 0 7.83-1.35 10.35-4.05 2.52-2.7 3.78-6.63 3.78-11.79V46.68h8.19Zm31.288 50.13c-3.78 0-7.17-.63-10.17-1.89-3-1.32-5.37-3.12-7.11-5.4-1.74-2.34-2.7-5.01-2.88-8.01h8.46c.24 2.46 1.38 4.47 3.42 6.03 2.1 1.56 4.83 2.34 8.19 2.34 3.12 0 5.58-.69 7.38-2.07 1.8-1.38 2.7-3.12 2.7-5.22 0-2.16-.96-3.75-2.88-4.77-1.92-1.08-4.89-2.13-8.91-3.15-3.66-.96-6.66-1.92-9-2.88-2.28-1.02-4.26-2.49-5.94-4.41-1.62-1.98-2.43-4.56-2.43-7.74 0-2.52.75-4.83 2.25-6.93 1.5-2.1 3.63-3.75 6.39-4.95 2.76-1.26 5.91-1.89 9.45-1.89 5.46 0 9.87 1.38 13.23 4.14 3.36 2.76 5.16 6.54 5.4 11.34h-8.19c-.18-2.58-1.23-4.65-3.15-6.21-1.86-1.56-4.38-2.34-7.56-2.34-2.94 0-5.28.63-7.02 1.89-1.74 1.26-2.61 2.91-2.61 4.95 0 1.62.51 2.97 1.53 4.05 1.08 1.02 2.4 1.86 3.96 2.52 1.62.6 3.84 1.29 6.66 2.07 3.54.96 6.42 1.92 8.64 2.88 2.22.9 4.11 2.28 5.67 4.14 1.62 1.86 2.46 4.29 2.52 7.29 0 2.7-.75 5.13-2.25 7.29s-3.63 3.87-6.39 5.13c-2.7 1.2-5.82 1.8-9.36 1.8Z" />
</svg>