<svg role="img" width="153" height="27" fill="none">
    <title>NBC News Logo</title>
    <path
        d="M60.832 12.281h-.137v14.212h-6.19v-23.8h7.328l8.465 14.213h.136V2.692h6.193v23.8H69.3l-8.468-14.21ZM98.129 2.692v5.034h-12.49v4.148h9.84v5.032h-9.84v4.557h12.832v5.03H79.375v-23.8h18.754ZM116.292 12.385h-.206l-3.646 14.108h-6.4l-6.268-23.8h6.502l3.303 14.213h.137l3.647-14.214h5.815l3.624 14.214h.139l3.302-14.214h5.991l-6.307 23.8h-6.158l-3.475-14.107ZM132.702 9.84c0-4.488 3.784-7.65 9.702-7.65 5.159 0 9.012 2.38 10.046 6.324l-5.54 1.223c-.62-1.807-2.132-2.859-4.368-2.859-2.098 0-3.51.883-3.51 2.406 0 4.761 13.968-.442 13.968 9.76 0 4.692-4.119 7.956-9.943 7.956-6.502 0-10.596-2.822-11.868-7.922l5.711-.925c.825 2.619 2.855 4.149 5.71 4.149 2.512 0 4.06-1.19 4.06-2.72 0-4.747-13.968.453-13.968-9.743ZM26.086 21.106s.187-.37.273-.555l.891-1.98.229-.509 4.695-10.444c.779-1.338 1.22-3.292.472-4.78a4.966 4.966 0 0 0-1.333-1.754 4.961 4.961 0 0 0-4.17-.966 4.236 4.236 0 0 0-1.172.45 4.658 4.658 0 0 0-1.813 1.695 4.586 4.586 0 0 0-.675 2.376l.06.061 2.041.02c.133.091.348.08.387.272-.829.628-2.246 1.187-2.068 2.493l2.06 12.896c.046.244.123.725.123.725ZM18.41 18.512a55.437 55.437 0 0 0 1.228 2.563s.126-.65.172-.95l2.32-14.692a4.779 4.779 0 0 0-.605-3.06 4.92 4.92 0 0 0-1.132-1.268c-1.824-1.443-4.64-1.423-6.31.254a4.707 4.707 0 0 0-1.327 2.244 4.666 4.666 0 0 0 .077 2.598l5.203 11.482.374.83ZM26.169 24.39l.464-.295 10.379-7.04.23-.166 1.73-1.173c.8-.598 1.745-1.053 2.318-1.965.923-1.295 1.106-3.414.277-4.811-.668-1.34-2.078-2.247-3.478-2.495a4.935 4.935 0 0 0-2.678.341 4.87 4.87 0 0 0-2.085 1.695c-.084.122-.163.248-.24.37-2.258 5.039-4.746 9.992-6.775 15.118l-.142.42ZM8.679 17.033c3.529 2.406 10.858 7.356 10.858 7.356l-.268-.69-6.474-14.27-.093-.205a4.854 4.854 0 0 0-2.561-2.433 4.932 4.932 0 0 0-3.552-.072c-.69.274-1.308.7-1.807 1.245a4.835 4.835 0 0 0-1.074 1.9 4.575 4.575 0 0 0 .045 2.644 4.625 4.625 0 0 0 1.503 2.188L8.13 16.66l.549.374ZM25.614 26.493h15.309c1.455 0 2.773-.627 3.778-1.834.075-.09.142-.185.21-.287.838-1.26 1.03-3.103.374-4.474-.462-1.012-1.445-2.024-2.492-2.431-1.352-.639-3.239-.496-4.478.294l-7.784 5.353-.433.296-4.156 2.859-.328.224ZM.982 24.66a4.813 4.813 0 0 0 1.73 1.372 4.871 4.871 0 0 0 2.168.46H20.07l-1.646-1.13-2.823-1.939-8.237-5.66c-1.24-.79-3.127-.926-4.479-.295C1.84 17.875.855 18.888.393 19.9a4.642 4.642 0 0 0-.22 3.125 4.42 4.42 0 0 0 .81 1.636Z"
        fill="currentColor">
    </path>
</svg>