<svg xmlns="http://www.w3.org/2000/svg" viewBox="0 0 512 209">
    <g clip-path="url(#a)" fill="#fff">
        <path d="M117.436 207.036v-52.432l1.093-1.094h10.923l1.093 1.094v52.432l-1.093 1.094h-10.923l-1.093-1.094ZM117.436 53.523V1.093L118.529 0h10.923l1.093 1.093v52.43l-1.093 1.093h-10.923l-1.093-1.093ZM69.954 169.238h-1.545l-7.722-7.726v-1.545l18.033-18.029 8.178.004 1.097 1.089v8.178l-18.041 18.029ZM69.946 38.892h-1.544l-7.723 7.726v1.545l18.033 18.029 8.178-.004 1.097-1.09v-8.177l-18.04-18.03ZM1.093 97.51h74.278l1.094 1.094v10.922l-1.094 1.094H1.093L0 109.526V98.604l1.093-1.094ZM440.999 97.51h69.911l1.094 1.094v10.922l-1.094 1.094h-74.277l-1.094-1.094 4.366-10.922 1.094-1.094ZM212.056 108.727l-1.093 1.094h-33.884l-1.093 1.093c0 2.187 2.187 8.743 10.93 8.743 3.28 0 6.556-1.093 7.65-3.28l1.093-1.093h13.117l1.093 1.093c-1.093 6.557-6.556 16.397-22.953 16.397-18.58 0-27.327-13.117-27.327-28.417s8.743-28.416 26.233-28.416c17.491 0 26.234 13.117 26.234 28.416v4.374-.004Zm-16.397-10.93c0-1.093-1.093-8.743-9.837-8.743-8.743 0-9.836 7.65-9.836 8.743l1.093 1.094h17.487l1.093-1.094ZM242.66 115.284c0 2.186 1.093 3.28 3.28 3.28h9.836l1.094 1.093v10.93l-1.094 1.094h-9.836c-9.837 0-18.58-4.374-18.58-16.397V91.237l-1.094-1.094h-7.649l-1.094-1.093V78.12l1.094-1.094h7.649l1.094-1.093v-9.837l1.093-1.093h13.117l1.093 1.094v9.836l1.094 1.093h12.023l1.094 1.094v10.93l-1.094 1.093h-12.023l-1.094 1.094v24.047h-.003ZM283.1 131.681h-13.117l-1.094-1.094V56.264l1.094-1.094H283.1l1.093 1.094v74.323l-1.093 1.094ZM312.61 68.287h-13.117l-1.094-1.093v-10.93l1.094-1.094h13.117l1.093 1.094v10.93l-1.093 1.093Zm0 63.394h-13.117l-1.094-1.094V78.124l1.094-1.094h13.117l1.093 1.094v52.463l-1.093 1.094ZM363.98 56.264v10.93l-1.094 1.093h-9.836c-2.187 0-3.281 1.093-3.281 3.28v4.374l1.094 1.093h10.93l1.093 1.094v10.93l-1.093 1.093h-10.93l-1.094 1.093v39.347l-1.093 1.093h-13.117l-1.093-1.093V91.244l-1.094-1.093h-7.649l-1.094-1.093v-10.93l1.094-1.094h7.649l1.094-1.093v-4.374c0-12.023 8.743-16.397 18.58-16.397h9.836l1.094 1.094h.004ZM404.42 132.774c-4.374 10.93-8.743 17.487-24.047 17.487h-5.467l-1.093-1.094v-10.93l1.093-1.093h5.467c5.463 0 6.556-1.094 7.65-4.374v-1.093L370.536 89.05V78.12l1.094-1.094h9.836l1.094 1.094 13.117 37.164h1.093l13.117-37.164 1.093-1.094h9.837l1.093 1.094v10.93l-17.486 43.72-.004.004ZM135.454 131.681l-1.093-1.094.007-31.67c0-5.463-2.148-9.699-8.743-9.836-3.391-.088-7.271-.008-11.416.168l-.619.634.008 40.704-1.094 1.094H99.391l-1.093-1.094V77.539l1.093-1.094 29.51-.267c14.784 0 20.767 10.158 20.767 21.623v32.786l-1.093 1.094h-13.121Z"/>
    </g>
    <defs>
        <clipPath id="a">
            <path fill="#fff" d="M0 0h512v208.126H0z"/>
        </clipPath>
    </defs>
</svg>