<svg xmlns="http://www.w3.org/2000/svg" viewBox="0 0 128 113">
  <path fill="#05BDBA" d="M34.6 94.05h-1.22l-6.03-6.03V86.8l9.22-9.22h6.4l.85.85v6.39l-9.23 9.22Zm-7.25-68.23V24.6l6.03-6.04h1.21l9.23 9.23v6.39l-.86.85h-6.39l-9.22-9.22Z"/>
  <path fill="#fff" d="M80.46 74.6h-8.78l-.73-.73V53.33c0-3.66-1.44-6.5-5.85-6.6-2.26-.05-4.86 0-7.63.12l-.42.42v26.6l-.73.72h-8.78l-.73-.73v-35.1l.73-.73h19.75a13.9 13.9 0 0 1 13.9 13.9v21.94l-.73.73Z"/>
  <path fill="#05BDBA" d="M35.84 61.45H.74L0 60.72v-8.8l.73-.73h35.11l.73.73v8.8l-.73.73Zm91.44 0H92.17l-.73-.73v-8.8l.73-.73h35.1l.74.73v8.8l-.73.73ZM58.94 27.06V.73l.74-.73h8.8l.73.73v26.33l-.74.74h-8.8l-.73-.74Zm0 84.84V85.57l.74-.73h8.8l.73.73v26.33l-.74.73h-8.8l-.73-.73Z"/>
</svg>