<svg xmlns="http://www.w3.org/2000/svg" width="650" height="220" fill="none">
    <path fill="currentColor" fill-rule="evenodd"
        d="m236.162 85.428.544 9.726c6.208-7.523 14.359-11.284 24.448-11.284 17.483 0 26.382 10.036 26.692 30.108v55.613h-18.851v-54.525c0-5.341-1.15-9.292-3.451-11.863-2.301-2.567-6.067-3.85-11.293-3.85-7.606 0-13.275 3.452-16.992 10.346v59.892H218.4V85.428h17.771-.009Zm107.873 85.721c-11.948 0-21.639-3.77-29.059-11.315-7.426-7.545-11.138-17.594-11.138-30.143v-2.332c0-8.399 1.615-15.908 4.85-22.519 3.23-6.61 7.774-11.757 13.62-15.443 5.845-3.677 12.363-5.518 19.558-5.518 11.43 0 20.267 3.655 26.497 10.965 6.239 7.315 9.355 17.656 9.355 31.037v7.624h-54.87c.575 6.948 2.885 12.443 6.947 16.488 4.062 4.044 9.173 6.067 15.328 6.067 8.638 0 15.673-3.496 21.107-10.501l10.165 9.726c-3.363 5.027-7.85 8.93-13.461 11.704-5.616 2.775-11.912 4.16-18.895 4.16h-.004Zm-2.248-72.101c-5.178 0-9.35 1.814-12.532 5.443-3.186 3.628-5.213 8.686-6.093 15.168h35.931v-1.402c-.416-6.328-2.098-11.107-5.045-14.351-2.951-3.239-7.035-4.858-12.261-4.858Zm74.185-34.073v20.457h14.824v14h-14.824v46.981c0 3.213.637 5.531 1.902 6.961 1.266 1.424 3.532 2.137 6.793 2.137a28.99 28.99 0 0 0 6.593-.779v14.625c-4.292 1.194-8.43 1.787-12.416 1.787-14.483 0-21.727-8.009-21.727-24.032V99.428h-13.824v-14h13.815V64.97h18.855l.009.004Zm49.281 104.621h-18.859V50.121h18.859v119.475Zm40.586 0H486.98V85.432h18.859v84.164ZM485.816 63.573c0-2.899.916-5.31 2.752-7.23 1.841-1.917 4.465-2.877 7.877-2.877 3.416 0 6.053.96 7.921 2.876 1.858 1.92 2.787 4.332 2.787 7.235 0 2.85-.929 5.222-2.787 7.115-1.868 1.894-4.505 2.841-7.921 2.841-3.412 0-6.036-.947-7.877-2.84-1.836-1.89-2.752-4.266-2.752-7.116v-.004ZM533 169.596V99.428h-12.806v-14H533v-7.7c0-9.337 2.584-16.54 7.757-21.625 5.177-5.08 12.416-7.62 21.726-7.62 3.315 0 6.833.465 10.559 1.399l-.465 14.78a37.073 37.073 0 0 0-7.217-.62c-9.005 0-13.505 4.637-13.505 13.92v7.466h17.071v14h-17.071v70.163H533v.005Zm79.074-27.068 17.072-57.096h20.098l-33.364 96.921c-5.124 14.155-13.815 21.235-26.077 21.235-2.743 0-5.77-.469-9.08-1.402v-14.625l3.571.235c4.757 0 8.341-.868 10.749-2.607 2.402-1.734 4.305-4.65 5.703-8.748l2.713-7.235-29.488-83.774h20.333l17.77 57.096Z"
        clip-rule="evenodd" />
    <path fill="currentColor"
        d="m123.399 90.547-.061-.026a.26.26 0 0 1-.102-.058.479.479 0 0 1-.124-.411l3.42-20.913 16.041 16.045-16.682 7.098a.369.369 0 0 1-.146.026h-.067a.458.458 0 0 1-.088-.075 7.588 7.588 0 0 0-2.191-1.686Zm23.267-1.274 17.151 17.151c3.563 3.567 5.346 5.346 5.996 7.408.098.305.177.61.239.925l-40.989-17.36a3.634 3.634 0 0 0-.066-.026c-.164-.067-.354-.142-.354-.31s.195-.248.359-.314l.053-.022 17.611-7.452Zm22.687 30.988c-.885 1.664-2.611 3.39-5.531 6.315l-19.337 19.333-25.011-5.209-.132-.026c-.222-.036-.456-.076-.456-.275a7.55 7.55 0 0 0-2.898-5.279c-.102-.101-.076-.261-.045-.407 0-.022 0-.044.009-.062l4.704-28.877.018-.098c.026-.221.066-.478.265-.478a7.649 7.649 0 0 0 5.133-2.942c.04-.044.067-.093.12-.12.141-.066.309 0 .455.062l42.702 18.063h.004Zm-29.316 30.095-31.798 31.798 5.443-33.453.009-.045a.54.54 0 0 1 .027-.128c.044-.106.159-.15.269-.195l.054-.022a8.189 8.189 0 0 0 3.075-2.287c.106-.124.234-.244.398-.266a.399.399 0 0 1 .129 0l22.39 4.602.004-.004Zm-38.528 38.528-3.584 3.584L58.299 135.2a1.57 1.57 0 0 0-.044-.062c-.062-.084-.129-.168-.115-.265 0-.071.048-.133.097-.186l.044-.058c.12-.177.221-.354.332-.544l.089-.155.013-.013c.062-.106.12-.208.225-.266.093-.044.222-.026.324-.004l43.9 9.053a.73.73 0 0 1 .336.146c.058.058.071.12.084.191a7.777 7.777 0 0 0 4.549 5.199c.124.062.071.199.013.345a1.16 1.16 0 0 0-.066.199c-.553 3.363-5.297 32.294-6.571 40.104Zm-7.487 7.483c-2.642 2.615-4.2 4-5.96 4.558a8.851 8.851 0 0 1-5.337 0c-2.062-.655-3.846-2.434-7.408-6.001L35.523 155.13l10.395-16.12a.654.654 0 0 1 .177-.208c.11-.08.27-.044.402 0 2.386.72 4.948.59 7.248-.367.12-.045.24-.076.332.009a.81.81 0 0 1 .124.141l39.82 57.782Zm-62.34-45.073-9.124-9.129 18.028-7.691a.385.385 0 0 1 .146-.031c.15 0 .239.151.318.288.181.279.373.55.576.814l.057.071c.053.075.018.15-.035.221l-9.957 15.457h-.008Zm-13.168-13.169-11.55-11.549c-1.964-1.965-3.39-3.39-4.38-4.616l35.117 7.284c.044.008.088.016.132.022.217.035.456.075.456.279 0 .221-.261.323-.482.407l-.102.044-19.191 8.129ZM.574 116.022c.04-.744.175-1.48.399-2.19.655-2.062 2.434-3.841 6-7.408l14.78-14.78a9663.185 9663.185 0 0 0 20.47 29.591c.12.159.252.336.115.469-.646.712-1.292 1.491-1.748 2.336a.712.712 0 0 1-.221.275c-.058.035-.12.022-.186.008h-.009L.57 116.018l.005.004ZM25.71 87.689l19.868-19.873c1.872.819 8.673 3.69 14.748 6.257 4.602 1.947 8.797 3.717 10.116 4.292.133.053.252.107.31.24.035.079.017.18 0 .265a8.863 8.863 0 0 0 2.314 8.089c.133.132 0 .323-.115.486l-.062.093-20.178 31.254a.603.603 0 0 1-.19.221c-.106.067-.257.036-.38.005a10.05 10.05 0 0 0-2.404-.328c-.725 0-1.513.133-2.31.279h-.004c-.088.013-.168.031-.239-.022a.925.925 0 0 1-.199-.226L25.71 87.689Zm23.886-23.886 25.727-25.727c3.562-3.563 5.345-5.346 7.407-5.996a8.85 8.85 0 0 1 5.337 0c2.062.65 3.845 2.434 7.407 5.996l5.576 5.575-18.302 28.333a.686.686 0 0 1-.181.213c-.111.075-.266.044-.399 0a9.28 9.28 0 0 0-8.496 1.637c-.12.124-.296.053-.447-.013-2.39-1.04-20.974-8.894-23.634-10.023l.005.005Zm55.339-16.267 16.895 16.895-4.071 25.214v.066a.605.605 0 0 1-.036.168c-.044.089-.133.106-.221.133-.87.263-1.69.672-2.425 1.208a.635.635 0 0 0-.088.075c-.049.053-.098.102-.177.11a.507.507 0 0 1-.191-.03L88.876 80.436l-.05-.022c-.163-.066-.357-.146-.357-.314a9.727 9.727 0 0 0-1.372-4.049c-.124-.204-.261-.416-.155-.624l17.992-27.89ZM87.526 85.613l24.134 10.222c.133.062.279.12.336.257a.47.47 0 0 1 0 .252 5.982 5.982 0 0 0-.133 1.164v.677c0 .168-.172.239-.331.305l-.049.018c-3.823 1.633-53.675 22.89-53.75 22.89-.076 0-.155 0-.23-.075-.133-.133 0-.318.119-.487l.062-.088 19.833-30.71.035-.053c.115-.186.248-.394.46-.394l.2.032c.45.061.849.119 1.252.119 3.009 0 5.796-1.465 7.478-3.97a.713.713 0 0 1 .15-.176c.12-.089.297-.044.434.017Zm-27.639 40.644 54.339-23.174s.08 0 .155.076c.297.296.549.495.792.681l.12.075c.11.062.221.133.23.248 0 .044 0 .071-.009.111l-4.651 28.598-.017.115c-.031.222-.062.474-.27.474a7.657 7.657 0 0 0-6.076 3.748l-.022.035c-.062.102-.119.199-.221.253-.093.044-.212.026-.31.004l-43.334-8.939c-.044-.008-.672-2.296-.721-2.301l-.005-.004Z" />
</svg>