<svg xmlns="http://www.w3.org/2000/svg" width="142" height="31" viewBox="0 0 142 31">
    <title>NordVPN logo</title>
    <g fill-rule="evenodd">
        <path id="letters"
            d="M139.996 13A1.994 1.994 0 0 1 138 11a2 2 0 1 1 4 0 2 2 0 0 1-2.004 2zm0-3.636c-.896 0-1.617.727-1.617 1.636 0 .91.721 1.636 1.617 1.636.89 0 1.625-.727 1.625-1.636 0-.91-.736-1.636-1.625-1.636zm-.298 1.956v.822h-.474V9.858h.904c.444 0 .816.233.816.72a.661.661 0 0 1-.438.655l.474.909h-.517l-.416-.822h-.35zm.765-.727c0-.226-.19-.284-.372-.284h-.393v.567h.4c.175 0 .365-.072.365-.283zM59.18 24l-6.84-10.26V24H49.3V9.123h3.515l6.46 9.709V9.123h3.04V24H59.18zm4.946-5.054c0-3.021 2.489-5.32 5.567-5.32 3.059 0 5.51 2.242 5.51 5.263 0 3.059-2.489 5.339-5.548 5.339-3.078 0-5.529-2.223-5.529-5.282zm3.04-.038c0 1.539 1.121 2.603 2.508 2.603s2.489-1.064 2.489-2.603c0-1.52-1.121-2.584-2.508-2.584s-2.489 1.064-2.489 2.584zm15.304-5.054v2.907c-.399-.076-.817-.076-.95-.076-1.425 0-2.413.988-2.413 2.869V24H76.2V13.854h2.812v1.482h.038c.551-1.159 1.577-1.596 2.622-1.596.228 0 .589.057.798.114zM91.031 24v-1.292h-.038c-.95 1.387-2.47 1.482-3.154 1.482-2.945 0-4.826-2.546-4.826-5.282 0-2.565 1.957-5.244 4.864-5.244.589 0 1.995.114 3.04 1.349h.038V8.534H93.9V24h-2.869zm0-5.092c0-1.52-1.121-2.565-2.508-2.565s-2.508 1.045-2.508 2.565c0 1.539 1.121 2.603 2.508 2.603s2.508-1.064 2.508-2.603zM100.199 24L94.822 9.123h3.325l3.857 11.305 3.876-11.305h3.268L103.752 24h-3.553zm21.062-10.108c0 3.287-2.318 4.864-5.434 4.864h-2.337V24h-3.078V9.123h5.529c2.983 0 5.32 1.615 5.32 4.769zm-3.097.076c0-1.444-1.216-1.938-2.489-1.938h-2.185v3.857h2.204c1.216 0 2.47-.532 2.47-1.919zM132.69 24l-6.84-10.26V24h-3.04V9.123h3.515l6.46 9.709V9.123h3.04V24h-3.135z"
            fill="currentColor">
        </path>
        <path id="mountain"
            d="M3.71 31A19.472 19.472 0 0 1 0 19.534C0 8.745 8.728 0 19.494 0c10.767 0 19.494 8.745 19.494 19.534A19.47 19.47 0 0 1 35.278 31l-9.363-15.235-.904 1.53.917 4.254-6.434-11.03-3.98 6.733.927 4.297-3.373-5.776L3.71 31z"
            fill="currentColor">
        </path>
    </g>
</svg>