<svg xmlns="http://www.w3.org/2000/svg" fill="currentColor" viewBox="0 0 22 22">
  <path d="M12.1 17.09h6.73c.22 0 .43-.08.61-.18.19-.11.38-.25.49-.43.1-.18.18-.4.18-.6 0-.22-.08-.43-.18-.61l-4.56-7.84a1.1 1.1 0 0 0-.42-.42 1.47 1.47 0 0 0-.67-.19c-.22 0-.42.08-.6.19-.2.1-.33.24-.43.42l-1.16 2-2.3-3.88a1.28 1.28 0 0 0-.43-.49c-.19-.1-.4-.12-.6-.12-.22 0-.43.02-.61.12-.2.1-.38.3-.49.49l-5.65 9.72c-.1.18-.12.39-.12.6 0 .22.01.43.12.61s.3.32.49.43c.18.1.39.18.6.18h4.26c1.68 0 2.9-.76 3.76-2.19l2.07-3.58 1.09-1.88 3.34 5.7h-4.43l-1.1 1.95Zm-4.8-1.95H4.32L8.75 7.5 11 11.32l-1.49 2.6c-.57.92-1.21 1.22-2.21 1.22Z"/>
</svg>