<svg xmlns="http://www.w3.org/2000/svg" viewBox="0 0 1128 366">
  <path d="M121 63a120 120 0 0 0-85 204 120 120 0 0 0 169 0 120 120 0 0 0-84-204Zm0 196c-41 0-74-33-74-76s33-77 74-77 74 34 74 77-33 76-74 76Zm240-129c-21 0-42 8-53 23v-20h-43v232h43v-84c11 14 31 21 53 21 47 0 83-36 83-86s-36-86-83-86Zm-7 135a47 47 0 0 1-46-49 47 47 0 0 1 64-45 47 47 0 0 1 29 45 47 47 0 0 1-47 49Zm192-135c-47 0-84 37-84 86s32 86 85 86c44 0 72-26 80-55h-42c-5 12-20 21-38 21-22 0-39-16-43-38h125v-17c0-46-31-83-83-83Zm-42 69a43 43 0 0 1 43-35c22 0 39 15 41 35h-84Zm240-69c-19 0-39 8-48 23v-20h-44v166h44v-89c0-26 14-43 36-43 21 0 32 16 32 38v94h44V198c0-41-26-68-64-68Zm174-64-94 233h46l20-51h107l20 51h47L971 66h-53Zm-13 144 39-98 38 98h-77Zm220-144h-43v233h43V66Z"/>
</svg>