<svg xmlns="http://www.w3.org/2000/svg" viewBox="0 0 1604 719">
  <path d="M358.8 240.1a120 120 0 0 0-119.6 119.6 120 120 0 0 0 119.6 119.6 119.5 119.5 0 1 0 0-239.2Zm0 196.3c-40.9 0-73.8-33.5-73.8-76.7s33-76.7 73.8-76.7c40.9 0 73.8 33.5 73.8 76.7s-33 76.7-73.8 76.7Zm240.5-129.9c-21.6 0-42.5 8.7-53.5 23.3v-20h-43.2v232.6h43.2v-84c11 13.6 31.3 20.9 53.5 20.9 46.5 0 83-36.5 83-86.4 0-49.8-36.5-86.4-83-86.4ZM592 441.8a46.8 46.8 0 0 1-46.5-48.9c0-29.5 22-48.8 46.5-48.8a46.8 46.8 0 0 1 46.5 48.8 46.8 46.8 0 0 1-46.5 48.9Zm192-135.3c-47.1 0-84.3 37-84.3 86.4 0 49.5 32.5 86.4 85.7 86.4 43.5 0 71.4-26.2 80-55.8h-42.2c-5.3 12.3-20.2 21-38.2 21-22.2 0-39.2-15.7-43.1-38h125.5v-16.9c0-45.2-31.5-83-83.4-83ZM742.2 376a43 43 0 0 1 42.8-34.6c22.3 0 39.2 14.6 41.2 34.6h-84Zm240.2-69.5c-19.3 0-39.6 8.7-48.9 23v-19.6h-43.1v166h43.1v-89.3c0-25.9 14-42.8 36.6-42.8 21 0 32.2 15.9 32.2 38.2v94h43.2V375c0-41.2-25.3-68.5-63.1-68.5Zm173.7-63.1-94 232.6h46.2l20-50.8h106.9l20 50.8h46.8l-93.4-232.6h-52.5Zm-13 143.2 38.6-97.3 38.2 97.3h-76.7Zm220.3-143.2h-43.8V476h43.8V243.4Z"/>
</svg>