<svg xmlns="http://www.w3.org/2000/svg" viewBox="0 0 4500 300" fill="currentColor">
  <path d="M502 221c48 0 74-26 74-74V74c0-48-26-74-74-74H0v300h68v-79h434zm6-143v65c0 8-4 12-12 12H68V66h428c8 0 12 4 12 12zm228 222c-48 0-74-26-74-74V74c0-48 26-74 74-74h417c48 0 74 26 74 74v152c0 48-26 74-74 74H736zm411-66c8 0 12-4 12-12V78c0-8-4-12-12-12H742c-8 0-12 4-12 12v144c0 8 4 12 12 12h405zm675-36c40 17 68 56 68 102h-68c0-54-25-79-79-79h-361v79h-68V0h502c48 0 74 26 74 74v50c0 46-24 72-68 74zm-12-43c8 0 12-4 12-12V78c0-8-4-12-12-12h-428v89h428zm162-81c0-48 26-74 74-74h492v56h-486c-8 0-12 4-12 12v42c0 8 4 12 12 12h422c48 0 74 26 74 74v30c0 48-26 74-74 74h-492v-56h486c8 0 12-4 12-12v-42c0-8-4-12-12-12h-422c-48 0-74-26-74-74V74zm661 0c0-48 26-74 74-74h480v66h-474c-8 0-12 4-12 12v144c0 8 4 12 12 12h474v66h-480c-48 0-74-26-74-74V74zM3817 0v300h-68V183h-407v117h-68V0h68v117h407V0h68zm156 56v66h527v56h-527v66h527v56h-595V0h595v56h-527z"/>
</svg>