<svg width="220" height="220" viewBox="0 0 220 220" fill="none" xmlns="http://www.w3.org/2000/svg">
<path fill-rule="evenodd" clip-rule="evenodd" d="M51.5424 94.5121C51.8 94.7064 52.2472 94.8327 51.8 95.2164C51.4792 95.6633 51.0952 96.047 50.84 96.5595C50.5848 97.0088 50.3928 97.1351 50.0088 96.8169C50.5192 95.9839 51.0295 95.214 51.5399 94.5097L51.5424 94.5121ZM180.097 161.586C180.097 161.775 180.16 161.902 180.16 162.096C180.289 161.841 180.289 161.712 180.355 161.586H180.097ZM180.097 162.159V162.096V162.159ZM167.051 187.119L155.92 125.425C155.73 125.364 155.475 125.238 155.026 125.109C155.154 125.364 155.22 125.556 155.283 125.748C155.599 125.685 155.73 125.685 155.857 125.621C155.857 125.558 155.857 125.495 155.922 125.427L167.053 187.126L167.051 187.119ZM155.538 111.537C155.475 111.727 155.475 111.921 155.475 112.113C155.475 111.919 155.475 111.724 155.543 111.535L155.538 111.537ZM155.602 112.815C155.538 112.815 155.538 112.815 155.475 112.747V112.81C155.543 112.873 155.543 112.873 155.606 112.81L155.602 112.815ZM155.475 113.325V112.876C155.288 112.939 155.096 112.939 154.838 113.004C155.159 113.126 155.48 113.194 155.48 113.32L155.475 113.325Z" fill="black"/>
<path fill-rule="evenodd" clip-rule="evenodd" d="M205.295 97.7763C205.169 95.2796 205.106 92.7829 204.848 90.2886C204.401 86.8957 203.954 83.4396 203.186 80.1123C202.61 77.3605 201.655 74.7351 200.692 72.1121C199.477 69.0398 198.262 65.9043 196.726 62.9607C194.232 58.2247 190.971 53.9987 187.964 49.5833C185.976 46.766 183.419 44.4636 181.499 41.5832C180.413 39.9195 178.814 38.5133 177.215 37.2358C174.656 35.1835 171.97 33.3255 169.284 31.5356C167.258 30.1154 165.165 28.7911 163.014 27.5671C161.288 26.6029 159.434 25.8354 157.643 25.0023C155.597 24.043 153.613 22.8894 151.312 22.4425C150.733 22.321 150.223 22.1267 149.647 21.9324C148.177 21.4224 146.769 20.8468 145.297 20.3975C143.061 19.6932 140.885 18.8625 138.581 18.2845C136.35 17.7089 134.046 17.3276 131.742 17.0046C129.186 16.6281 126.566 16.4946 124.004 16.2444C122.369 16.0333 120.726 15.8842 119.08 15.7975C116.65 15.6712 114.156 15.6712 111.726 15.6081C110.511 15.5425 109.232 15.4138 108.017 15.4793C106.163 15.5425 104.308 15.7344 102.451 15.9894C100.663 16.1837 98.8714 16.4994 97.1459 16.7593C95.0387 17.0143 92.9292 17.143 90.8172 17.4005C88.834 17.6579 86.7876 18.0416 84.8068 18.3622C84.102 18.491 83.3972 18.746 82.6924 18.8723C81.1613 19.1929 79.5621 19.3216 78.0261 19.834C75.2797 20.6695 72.5261 21.6313 69.8405 22.6513C67.3445 23.6763 64.9142 24.7643 62.5494 26.0443C60.119 27.3849 57.815 28.983 55.5135 30.5228C53.3028 32.0011 51.1465 33.5589 49.0486 35.1932C47.0071 36.7962 45.0871 38.5861 43.2303 40.3785C42.2096 41.3986 41.3759 42.6178 40.4159 43.769C38.8192 45.627 37.22 47.4169 35.684 49.338C34.4105 50.941 33.2536 52.6022 32.0384 54.2683C29.8681 57.2071 28.0137 60.345 26.2881 63.4829C25.5833 64.7628 24.9441 66.0427 24.305 67.3202C23.345 69.2389 22.3218 71.0969 21.4274 73.0811C20.7858 74.4266 20.2754 75.8984 19.8914 77.3702C18.9994 80.5081 18.1026 83.7092 17.2714 86.8422C16.5034 89.6595 16.3114 92.6031 16.2507 95.4836C16.1851 98.0435 16.4402 100.54 16.6954 103.1C16.7611 103.741 16.3795 104.509 17.1426 105.019C16.8874 105.723 17.0794 106.112 17.4586 106.233C17.0162 106.937 17.653 107.389 17.4002 108.03C17.3346 108.157 17.5947 108.412 17.7162 108.603C17.7162 108.798 17.6554 109.053 17.7162 109.245C17.7842 109.82 18.0394 110.396 18.0394 111.037C18.0394 111.484 18.421 111.996 18.5498 112.446C18.613 112.635 18.5498 112.956 18.421 113.084C18.037 113.531 18.1002 113.915 18.6762 114.173C18.9994 115.003 18.8706 115.387 18.8074 115.775C18.9338 116.349 18.7418 116.541 18.8074 116.669C19.3178 117.694 19.5122 118.845 19.573 119.997C19.573 120.254 19.7018 120.511 19.8306 120.83C19.8938 120.83 19.8306 122.044 19.8306 122.044C20.1466 121.855 20.4066 121.791 20.725 121.663C20.9194 122.493 21.109 123.266 21.3642 123.97C21.685 124.48 21.685 124.733 21.5586 124.796C21.8138 125.947 21.9402 127.035 22.385 128.123C22.385 126.909 22.2634 125.694 22.069 124.541C22.9634 124.861 23.7314 125.179 24.2442 125.179C24.3098 124.985 24.373 124.733 24.4386 124.604C24.0546 124.223 23.7338 123.647 23.3498 123.263C23.4786 123.773 23.3498 123.968 23.3498 124.162C23.0946 124.031 22.7738 123.902 22.4554 123.773C22.7106 123.458 22.9658 123.134 23.3498 122.753C23.3498 122.175 23.0339 121.66 22.1346 121.726C22.5186 121.6 22.9026 121.41 23.3498 121.279C24.0546 120.898 23.2866 120.193 23.2866 119.297C23.3498 118.211 22.7106 117.123 22.5186 115.97C22.1978 114.18 22.2634 111.491 22.0714 109.699C21.6874 109.378 21.3666 110.209 21.3034 110.274C21.4979 111.809 21.6874 113.344 21.8138 114.882C21.4322 113.602 21.1746 112.193 20.8562 110.656C20.7906 111.105 20.7274 111.297 20.7274 111.554C20.4115 111.87 20.6642 112.259 20.8562 112.706C20.4091 112.511 19.8962 112.579 19.8962 112.579V114.372C19.2595 113.731 19.0699 113.22 18.7467 112.769C18.6203 112.259 18.5522 111.749 18.4307 111.239C18.5522 110.916 18.4307 110.724 18.4307 110.534C18.3556 110.022 18.2908 109.509 18.2363 108.995C18.2995 108.931 18.1731 107.974 18.1731 107.974C18.6835 108.035 19.0067 108.096 19.3251 108.096C18.6859 107.27 19.1307 106.755 19.3907 106.243C19.5195 105.985 19.9667 105.927 20.0955 105.665C20.6059 104.705 21.4395 103.94 21.4395 102.721C21.4395 102.146 21.634 101.507 21.6947 100.929C21.8235 99.8407 21.9499 98.7526 22.0107 97.6646C22.1419 96.2559 22.0107 94.8473 22.3339 93.5042C22.8492 91.2698 23.4883 89.0281 24.1907 86.7864C24.7011 85.1834 25.2795 83.6533 25.9163 82.0504C26.8763 79.5537 27.7731 77.0569 28.9883 74.6914C30.7139 71.2329 32.6971 67.9055 34.6171 64.5151C35.8322 62.4021 37.1106 60.4178 38.4571 58.3704C39.733 56.3862 41.009 54.3388 42.4842 52.4808C44.5093 49.86 46.7798 47.4382 49.265 45.2481C51.8241 42.9457 54.2545 40.5777 57.0033 38.4647C60.5769 35.7054 64.3843 33.2626 68.3823 31.164C71.6463 29.4396 75.0343 28.0892 78.4246 26.8093C80.5998 25.9787 82.9646 25.5949 85.2054 24.8906C87.7622 24.0576 90.3214 23.6763 93.0069 23.6107C94.7325 23.5451 96.3973 23.3532 98.1229 23.1614C99.6589 23.0399 101.192 22.9088 102.857 22.7169C102.663 22.9719 102.6 23.1007 102.536 23.2269C101.837 24.2519 101.069 25.2768 100.364 26.2993C99.7877 27.1323 99.1485 28.0285 98.5725 28.8591C97.5469 30.2071 96.4581 31.5501 95.5005 32.9588C94.0301 35.0718 92.6861 37.2479 91.1501 39.3585C89.619 41.4059 87.9542 43.327 86.355 45.3088C84.2454 48.063 82.2622 50.8778 80.1526 53.6296C78.2326 56.2526 76.1911 58.7542 74.3343 61.3772C72.6719 63.6772 71.1991 66.1132 69.5999 68.4763C67.2352 71.9979 64.868 75.4516 62.5032 78.9732C60.6468 81.6538 58.7705 84.3206 56.8745 86.9734C56.7457 87.1677 56.5537 87.226 56.3641 87.3547C55.8537 88.1853 55.8537 88.6346 55.6593 89.0184C55.1489 89.9777 54.6385 90.937 54.0601 91.8357C53.7393 92.3457 53.2921 92.7926 52.9081 93.305C52.8449 92.5376 53.9289 92.1538 53.4185 91.1921C53.1025 91.7069 52.7793 92.1538 52.4609 92.6663L51.6929 94.1964C51.9481 94.3907 52.3977 94.5194 51.9481 94.9007C51.7537 95.2237 51.5641 95.605 51.3721 95.928C51.6489 95.7654 51.8889 95.5471 52.0769 95.2869C52.0769 95.9912 51.6929 96.5644 51.3721 97.14C51.1169 97.65 50.4777 98.0386 50.0305 98.4199C50.0937 98.4855 50.5409 98.6773 50.6065 98.7405C51.1825 98.5462 51.3745 98.2305 51.4401 98.4199C51.6346 98.1649 51.8241 97.973 51.8873 97.7812C52.1401 97.14 52.5241 96.6299 53.1633 96.3725C53.4209 96.2438 53.6105 96.0519 53.8025 95.8625C55.7225 93.8758 57.7057 91.9571 59.4312 89.8441C62.1192 86.5775 64.5496 83.1894 67.1112 79.8621C68.1952 78.4534 69.476 77.0448 70.6256 75.6993C70.8151 77.1711 70.6888 78.5773 70.6256 79.9253C70.4311 82.2908 70.3048 84.6612 70.1152 87.09C70.0496 88.0493 70.1152 89.0086 70.0496 89.9704C70.0496 90.2254 69.8551 90.4173 69.8551 90.6747C69.8551 91.3135 70.0496 92.0178 70.0496 92.659C69.8551 95.027 69.5975 97.3294 69.4055 99.6974C69.3399 100.207 69.5951 100.722 69.7215 101.172C69.4055 104.625 70.1103 108.276 69.5319 111.924C69.9791 111.219 70.1079 110.772 70.1079 110.325C70.1687 109.942 70.1079 109.558 70.1079 109.111V108.47C70.1687 107.316 70.4238 106.102 70.2975 104.948C70.1686 103.668 70.1686 102.454 70.4263 101.237C70.5551 100.727 70.3631 100.086 70.6839 99.4448V100.404C70.6207 104.047 70.7495 107.698 70.2391 111.346C70.1735 111.666 70.4336 112.244 69.7288 112.179C69.1503 113.33 69.8551 114.163 69.2184 114.802C69.0871 114.93 69.3399 115.506 69.4055 115.89C69.1479 116.66 69.1479 116.66 69.5319 116.723C69.5951 118.131 69.7263 119.409 69.7871 120.754C70.8078 118.326 70.2975 115.824 70.7495 113.327C70.8127 114.352 70.8783 115.377 70.8127 116.46C70.8127 118.129 70.7495 119.727 70.6863 121.391C70.6863 121.711 70.6207 122.032 70.5575 122.352C70.3631 123.251 70.3023 124.145 69.9815 124.975C69.7263 125.617 69.8551 126.578 69.8551 127.343V129.779C70.1103 130.868 69.7895 131.443 69.9815 132.082C69.7871 132.725 69.7263 132.917 69.7871 133.109L69.9815 134.069C71.2623 133.94 70.6863 134.902 71.1967 135.412C70.8127 135.927 70.9415 136.116 70.9415 136.376C70.9415 136.951 70.8808 137.464 70.8151 138.039C70.8151 139.511 70.7519 140.983 70.7519 142.392C70.7519 142.586 70.8151 142.773 70.8151 142.965C70.8151 143.096 70.7519 144.762 70.7519 144.762C70.8808 144.952 70.7519 145.143 70.5575 145.335C70.4968 145.335 70.3048 137.206 70.3048 137.206H69.3447C69.2184 141.044 69.5392 144.5 68.8344 148.087C68.0664 148.148 67.8136 148.277 66.9776 148.277C64.9944 148.277 63.0112 148.277 61.028 148.34C58.6608 148.34 56.3617 148.403 53.992 148.403C52.8449 148.403 51.6297 148.534 50.4777 148.534C48.9417 148.534 47.3425 148.34 45.8114 148.34C43.4418 148.34 41.1402 148.534 38.773 148.597C37.0474 148.66 35.3219 148.66 33.5963 148.726C32.4419 148.787 31.2874 148.847 30.1403 148.978C29.6299 149.042 29.1803 149.233 28.5411 149.425C28.3467 149.425 27.9019 149.362 27.5203 149.425C26.8763 149.554 26.3052 149.935 25.6611 150.066C24.7011 150.261 24.4459 150.513 24.5723 151.475V152.114C24.5091 152.24 25.9819 151.92 25.9819 151.92C25.8507 151.92 25.7875 152.303 25.5931 152.624C26.1083 152.43 26.4267 152.303 26.7475 152.177C27.7075 152.626 28.5387 152.371 29.3042 152.566C31.7978 153.202 34.3546 153.464 36.9113 153.714C38.5761 153.843 40.1753 153.909 41.8377 153.969C44.2025 154.098 46.5697 154.227 48.9344 154.227C50.9176 154.227 52.8376 154.033 54.8159 154.033C57.5623 154.033 60.3183 154.159 63.0671 154.227C63.6431 154.227 64.2823 154.159 64.9215 154.159H69.5878C73.7486 154.033 77.9045 153.965 82.0629 153.843C84.4325 153.775 86.8629 153.649 89.2277 153.583L96.5188 153.389C99.3332 153.326 102.148 153.326 104.899 153.268C107.008 153.268 109.055 153.195 111.169 153.134C113.531 153.071 115.962 152.879 118.329 152.753C119.61 152.687 120.891 152.558 122.169 152.432C123.705 152.306 125.304 152.116 126.835 152.051C129.139 151.92 131.507 151.856 133.811 151.728C136.688 151.538 139.566 151.283 142.506 151.218C145.194 151.091 147.943 151.155 150.631 151.091C152.998 151.026 155.366 150.897 157.796 150.834L161.83 150.64C161.83 150.64 164.514 150.577 165.858 150.445C168.159 150.319 170.461 150.064 172.765 150.001C174.233 149.935 175.705 150.001 177.176 149.935C179.541 149.872 181.971 149.741 184.338 149.741C185.23 149.741 186.19 149.872 187.342 149.935C186.832 150.385 186.511 150.64 186.127 150.96C186.382 151.023 186.637 151.155 186.895 151.281C186.597 151.491 186.239 151.602 185.874 151.597C185.743 151.92 185.614 152.048 185.485 152.689H186.637C186.19 152.689 185.806 153.265 185.359 153.649C184.849 153.518 184.399 153.649 184.144 154.353C184.591 154.606 184.528 154.798 184.465 155.057C183.697 155.31 183.121 155.568 183.444 156.398C183.184 156.524 182.865 156.653 182.545 156.845C182.229 157.355 181.65 157.484 181.777 158.188C182.034 158.249 182.287 158.382 182.481 158.441C182.161 158.569 181.842 158.761 181.521 158.888C180.372 159.592 180.885 159.912 181.14 160.233C180.945 160.362 180.756 160.488 180.564 160.554C180.69 161.129 180.88 161.258 180.945 161.258C180.618 161.505 180.298 161.761 179.985 162.025C179.791 162.601 179.536 162.856 179.281 163.24C179.025 163.624 178.897 164.138 178.576 164.52C177.234 165.994 176.274 167.726 174.549 168.874C173.907 169.324 173.333 169.899 172.757 170.477C171.605 171.563 170.582 172.78 169.367 173.805C167.76 175.134 166.096 176.394 164.38 177.579C162.273 179.051 160.163 180.523 158.051 181.931C156.899 182.696 155.621 183.272 154.406 183.976C153.19 184.68 152.038 185.322 150.823 186.024C150.055 186.534 149.35 187.238 148.519 187.627C146.41 188.525 144.169 189.29 141.996 190.123C139.882 191.022 138.351 191.787 136.751 192.363C135.281 192.873 133.745 193.261 132.211 193.577C131.701 193.708 131.123 193.577 130.547 193.642C129.458 193.837 128.371 194.094 127.283 194.22C124.468 194.604 121.654 194.862 118.842 195.245C117.177 195.44 115.578 195.755 113.915 195.95C112.766 196.013 111.551 195.887 110.399 195.887C109.568 195.887 108.673 196.081 107.84 195.952C106.498 195.758 105.154 195.442 103.81 195.185C103.494 195.122 103.042 194.99 102.789 195.122C102.279 195.379 101.827 194.995 101.314 195.122C100.998 195.187 100.677 194.927 100.356 194.927C100.099 194.867 99.778 194.995 99.4572 194.927C98.7523 194.738 98.1156 194.483 97.3427 194.546C96.582 194.609 95.8116 194.225 94.9853 194.036C93.8308 193.778 92.7493 193.526 91.5924 193.266C91.1454 193.126 90.7169 192.933 90.3165 192.69C88.6517 192.69 87.5629 192.627 86.5397 192.241C85.6453 191.925 84.8141 191.476 83.8541 191.605C83.6014 191.668 83.4094 191.542 83.1493 191.542C82.9549 191.284 82.7677 190.772 82.5782 190.772C81.2998 190.837 80.5318 189.752 79.443 189.429C78.8694 189.234 78.4222 188.596 77.8462 188.404C76.4366 187.828 75.2895 186.614 73.6903 186.422C73.1799 186.356 72.6695 186.101 72.0911 185.912C72.2855 186.164 72.407 186.356 72.6015 186.548C70.7471 185.65 69.0215 184.629 67.2935 183.668C67.0407 183.605 66.8488 183.352 66.6568 183.221L64.9312 182.07C63.9712 182.264 63.5872 181.875 63.3271 181.749C61.6016 180.535 59.6208 179.765 57.956 178.422C57.2512 177.844 56.4249 177.46 55.9145 176.756C55.0152 175.668 53.9289 174.9 52.7137 174.261C51.7561 173.751 50.8617 173.173 49.9673 172.598C49.5177 172.277 49.0681 171.893 49.0681 171.189C49.0681 170.74 48.8785 170.29 48.3025 170.548C48.0473 170.164 47.7921 169.717 47.4713 169.588C46.7033 169.273 46.193 168.69 45.617 168.18C45.041 167.67 44.5962 166.965 43.8914 166.71C42.6106 166.2 41.8426 165.112 41.077 164.216C39.2834 162.103 37.6842 159.796 36.0218 157.561C35.893 157.367 35.6378 157.238 35.4458 157.047C35.701 157.751 36.0218 158.327 36.3402 158.965C35.7034 158.71 35.2562 158.261 34.8722 157.814C34.8066 157.88 39.2834 165.239 39.2834 165.239C39.6722 165.814 39.9882 166.392 40.3722 166.968C39.9869 167.004 39.5995 166.926 39.2582 166.743C38.9169 166.561 38.6366 166.283 38.4522 165.943C37.8786 164.923 37.237 164.282 35.9586 164.413C35.8229 163.951 35.7174 163.48 35.6427 163.004C35.3826 163.004 35.1931 163.004 34.7434 162.939C35.6427 164.347 36.4082 165.562 37.2394 166.97C36.9162 166.776 36.7291 166.65 36.5954 166.587C37.745 167.801 38.5761 169.338 40.0465 170.108C40.3673 171.578 42.0297 172.282 42.4137 173.691C42.0978 173.625 41.8353 173.562 41.5145 173.496C41.0041 172.858 40.4281 172.219 39.8545 171.514C39.9809 171.961 40.1705 172.345 40.4281 172.666C41.1961 173.625 41.9009 174.584 42.7953 175.417C43.1161 175.743 43.5633 175.872 43.5633 176.447C44.0737 176.702 44.2681 176.763 44.4577 176.763C44.5889 177.151 44.3969 177.727 45.1625 177.598C45.6729 178.558 46.1832 178.558 46.888 178.24C47.7217 179.073 48.1713 179.138 48.7449 178.628C48.7449 178.944 48.808 179.264 48.808 179.522C49.0632 179.393 49.0025 179.201 49.0025 178.881C49.3184 179.136 49.5129 179.264 49.6392 179.391C50.2784 180.289 50.8544 181.12 51.7488 181.824C52.964 182.849 54.0528 183.937 55.1999 184.897C57.4407 186.755 59.9392 188.292 62.4303 189.698C65.5023 191.427 68.4455 193.283 71.5783 194.944C75.3502 196.931 79.3798 198.276 83.5357 199.236C85.0717 199.556 86.5421 199.875 88.0806 200.256C89.4173 200.644 90.7637 201.22 92.1077 201.538C94.1541 201.988 96.2636 202.371 98.31 202.753C98.7548 202.818 99.2093 202.884 99.7196 202.947C100.291 203.076 100.993 202.818 101.122 203.012C101.443 203.522 101.698 203.265 102.082 203.202C102.529 203.073 103.042 203.073 103.552 203.073C105.344 203.136 107.069 203.52 108.86 203.394C109.249 203.394 109.823 203.071 110.144 203.709C110.717 203.454 111.038 203.454 111.293 203.394C111.361 203.967 111.293 203.967 111.172 204.03C111.04 204.093 110.848 204.159 110.593 204.351C112.895 204.798 115.07 204.861 116.985 204.351C120.315 204.606 123.192 204.222 125.943 203.263C126.199 203.583 126.391 204.03 126.775 203.391C126.901 203.197 127.222 203.131 127.479 203.068C128.053 202.94 128.758 202.685 129.268 202.874C129.847 203.068 130.039 202.558 130.483 202.558C131.254 202.558 131.956 202.493 132.661 202.364C133.045 202.301 133.429 202.109 133.876 201.98C133.438 201.763 132.955 201.652 132.467 201.657C133.237 201.273 133.939 200.953 134.644 200.637C134.515 200.827 134.387 201.082 134.134 201.082H135.026C134.831 201.082 134.576 201.657 134.258 202.041C136.557 201.465 138.666 200.953 140.715 200.438C140.01 199.097 141.481 199.547 141.994 198.777C141.354 198.971 140.715 199.16 140.074 199.287C142.249 198.201 144.487 197.242 146.66 196.282C146.344 196.666 145.955 196.858 145.384 197.181C145.768 197.242 146.023 197.242 146.215 197.303C147.236 197.626 146.983 196.666 147.302 196.088C148.517 196.088 149.027 195.899 149.603 195.704C150.242 195.51 150.882 195.321 151.523 195.066C152.544 194.619 153.504 194.046 154.527 193.536C154.722 193.468 155.038 193.536 155.295 193.536C156 193.084 156.253 192.7 156.445 192.763C157.344 192.892 157.976 192.569 158.233 191.743C158.681 191.42 159.001 191.165 159.32 190.971C160.725 190.203 162.066 189.436 163.476 188.668C163.986 188.668 164.244 188.668 164.37 188.603C165.206 188.214 165.974 187.772 166.74 187.323C166.52 187.232 166.307 187.126 166.101 187.007C166.737 186.876 166.927 186.813 167.316 186.684C168.847 184.887 170.961 183.673 172.558 182.264C173.263 182.201 173.263 182.009 173.263 181.883C173.516 181.562 173.773 181.178 174.089 180.921C175.499 179.641 177.03 178.553 178.311 177.21C180.165 175.349 181.956 173.428 183.619 171.444C185.15 169.652 186.691 167.862 187.969 165.877C189.76 163.126 191.294 160.308 192.893 157.425C194.045 155.381 195.068 153.333 196.223 151.286C196.344 151.091 196.604 150.836 196.796 150.836C198.522 150.642 200.252 150.521 201.915 150.326C202.299 150.263 202.746 150.011 203.13 149.816C202.935 149.496 202.809 149.112 202.619 148.791C202.362 148.403 201.978 148.087 201.72 147.698C201.467 147.383 201.275 146.994 201.083 146.613C200.889 146.297 200.699 146.04 200.507 145.714C200.119 145.01 199.737 144.306 199.414 143.543C199.351 143.349 199.219 143.033 199.287 142.839C200.439 140.344 200.887 137.656 201.973 135.159C203.059 132.599 203.383 129.719 203.893 126.967C204.34 124.344 204.598 121.721 204.914 119.098C205.108 117.242 205.363 115.45 205.424 113.595C205.813 110.651 205.682 107.897 205.619 105.143C205.555 102.714 205.424 100.217 205.303 97.7836L205.295 97.7763ZM44.8295 176.559C44.3823 176.049 43.9983 175.471 43.5511 174.961L43.7456 174.766C44.4431 175.536 45.1479 176.304 45.8503 177.137C45.4663 176.943 45.0191 176.816 44.8295 176.559ZM45.8503 177.137C46.0447 177.071 46.2391 177.071 46.4287 177.008C46.6231 177.329 46.7495 177.713 46.9391 178.096C46.0447 178.031 45.5975 177.647 45.8527 177.137H45.8503ZM112.37 203.569V203.374C113.585 203.248 114.735 203.119 115.95 202.993V203.18C114.735 203.374 113.585 203.496 112.37 203.564V203.569ZM128.483 201.905C127.591 202.099 126.631 202.228 125.737 202.357C125.416 202.42 125.032 202.74 124.906 202.162C124.777 202.228 124.648 202.228 124.522 202.294C124.838 203.25 125.608 202.483 126.247 202.867C124.838 203.061 123.501 203.187 122.154 203.377V203.25C122.543 203.187 122.988 203.122 123.37 203.056V202.867C122.732 202.791 122.091 202.748 121.45 202.738C121.263 202.738 121.005 202.995 120.813 203.059C120.558 203.122 120.303 203.187 119.982 203.187C118.895 203.25 117.809 203.25 116.783 203.314C116.718 203.314 116.589 203.25 116.526 203.25V203.056C120.81 202.483 125.032 201.907 129.317 201.332C129.382 201.458 129.382 201.587 129.446 201.713C129.062 201.713 128.806 201.847 128.486 201.907L128.483 201.905ZM129.446 201.269C130.918 201.074 132.265 200.948 133.67 200.759C130.729 201.589 129.769 201.715 129.448 201.269H129.446ZM73.7389 72.0489C75.7804 69.2316 77.8948 66.4143 79.9412 63.5363C80.5804 62.6984 81.0908 61.8022 81.73 60.9716C81.9244 60.7141 82.1796 60.5878 82.498 60.3304L82.4348 60.209C82.69 59.8859 82.9452 59.6261 83.074 59.3735C83.3996 58.8635 83.5916 58.2854 83.8468 57.7098C83.915 57.6108 84.0017 57.5259 84.102 57.4597C85.0013 57.9065 85.0013 56.9496 85.3172 56.6266C85.8932 55.9854 86.4692 55.2835 86.9796 54.6423C87.3636 54.1323 87.7476 53.683 88.0684 53.1074C88.1316 52.9131 87.9396 52.5974 87.874 52.3375H87.6844C87.8788 52.2112 88.0684 52.0218 88.2604 51.8906C88.3236 51.8906 88.3236 51.8906 88.3868 51.8275C88.7708 51.2494 89.1548 50.6738 89.5388 50.1614C90.3043 49.1413 91.1355 48.1164 92.0299 47.2226C91.9035 47.5384 91.7747 47.8614 91.6459 48.1164C91.7115 48.1164 91.7115 48.182 91.7747 48.182C92.5427 47.1571 93.3739 46.1977 94.1419 45.1704C94.0763 45.1096 94.0131 45.0441 93.9475 45.0441C93.6315 45.3647 93.3739 45.6853 93.0531 46.0058C92.9899 45.9403 92.9267 45.8771 92.8587 45.8771C93.5027 45.0441 94.1419 44.2135 94.7787 43.2541C94.9075 43.4484 95.0363 43.701 95.2891 44.2135C95.5491 43.5747 95.8043 43.1278 95.9939 42.6785C95.8043 42.8728 95.5491 43.0622 95.3571 43.2565L95.1627 43.0622L96.3147 41.3379C97.5299 39.6086 98.7451 37.8162 99.9602 36.087C100.41 35.4482 100.981 34.9358 101.37 34.2946C102.585 31.8659 104.505 29.9423 105.973 27.7031C106.294 27.2562 106.741 26.8724 107.125 26.4887C107.441 26.1001 107.701 26.2313 107.956 26.5519C109.682 28.728 111.407 30.9673 113.133 33.1434C114.416 34.7463 115.695 36.2764 116.91 37.9425C118.38 39.9924 119.787 42.0398 121.26 44.0872C122.922 46.4552 124.585 48.8232 126.184 51.2519C128.614 54.8391 130.916 58.4239 133.346 62.0062C135.138 64.6292 136.929 67.1915 138.654 69.8145H135.388C132.384 69.7538 129.312 69.4988 126.308 69.6251C122.215 69.8194 118.059 70.2663 113.967 70.5868C108.785 71.0362 103.54 71.0969 98.3635 71.0969C96.5043 71.0969 94.6499 71.3568 92.7979 71.4855C90.5571 71.6118 88.3819 71.7405 86.1435 71.8012C83.5187 71.9324 80.9668 71.9955 78.342 72.0611C76.8692 72.1242 75.3356 72.0611 73.7364 72.0611L73.7389 72.0489ZM147.095 101.485V102.063C147.032 102.063 146.969 102.129 146.84 102.129C146.585 101.23 146.329 100.268 146.009 99.372C145.369 97.514 144.665 95.656 143.513 93.9948C142.229 92.2048 141.082 90.3517 139.799 88.4938C139.483 88.0444 139.031 87.6607 138.647 87.2794C137.303 85.8052 135.959 84.2678 134.233 83.1822C131.691 81.5885 129.016 80.2169 126.238 79.0825C125.466 78.7516 124.719 78.3669 124.002 77.9313H125.533L136.469 77.737C138.837 77.6763 141.141 77.6763 143.505 77.5475C144.079 77.5475 144.4 77.7418 144.721 78.2519C145.294 79.2112 145.87 80.1706 146.509 81.1323C146.575 81.2586 146.704 81.4481 146.704 81.6423C146.704 83.051 146.704 84.5228 146.767 85.9315C146.828 87.4033 146.961 88.8119 147.02 90.2837C147.02 91.7555 146.891 93.2905 146.957 94.8254C147.022 97.004 147.085 99.2457 147.085 101.48L147.095 101.485ZM78.2764 80.054C81.2828 79.9253 84.1579 79.7334 87.1035 79.6047C89.4002 79.4759 91.7699 79.4104 94.069 79.2841C95.029 79.2234 95.9258 79.1626 96.8834 79.2841C95.8626 79.799 94.837 80.3114 93.9426 80.9502C92.7906 81.7176 91.7067 82.7401 90.5522 83.5732C89.3978 84.4038 88.3746 85.4287 87.4171 86.5168C86.2019 87.9861 84.8579 89.2661 83.5771 90.6747C82.6778 91.6996 81.6571 92.659 80.8915 93.7471C79.8051 95.1557 78.8451 96.6858 77.8219 98.2888C78.1427 92.2073 78.5267 86.1938 78.2691 80.0491L78.2764 80.054ZM120.042 141.622C117.994 142.132 115.887 142.71 113.772 142.965C111.983 143.222 110.127 143.159 108.272 143.159C106.627 143.16 104.983 143.095 103.343 142.965C101.489 142.775 99.6346 142.584 97.8434 141.751C96.305 141.046 94.7082 140.407 93.1771 139.638C91.6362 138.87 90.1026 137.976 88.9482 136.568C88.1219 135.54 86.9674 134.71 85.9442 133.814C86.1387 134.581 86.5834 135.222 87.2882 135.669C86.9674 136.053 86.5202 135.863 85.8786 134.836C85.6891 134.965 85.4971 135.03 85.3682 135.093C85.5627 134.644 85.7522 134.195 85.9442 133.814C85.6891 133.304 85.3682 132.725 85.1131 132.211C84.6027 131.38 84.0923 130.486 83.6427 129.653C83.5139 129.459 83.5139 129.269 83.3875 129.078C83.0683 128.709 82.7681 128.324 82.4882 127.924C81.9779 127.159 81.5307 126.328 80.8915 125.558C80.8915 125.753 80.9571 125.942 80.9571 126.2C80.8915 126.2 80.8283 126.263 80.8283 126.263L79.4819 122.998C79.4187 122.998 79.4187 122.998 79.3555 123.062L80.5051 127.288C80.4419 127.288 80.3787 127.348 80.3106 127.348C80.1235 127.096 79.9315 126.838 79.8002 126.523C79.6739 126.008 79.2899 126.008 78.9739 126.2C78.7795 126.328 78.6507 126.775 78.7163 126.967C79.1659 128.055 79.6763 129.143 80.1891 130.231C80.3155 130.615 80.4443 130.936 80.6363 131.319C80.7019 131.448 80.8939 131.574 80.8939 131.766C81.1515 132.276 81.3435 132.786 81.6619 133.238C82.2379 134.005 82.8771 134.773 83.4531 135.54C84.0242 136.308 84.5346 137.143 85.0474 137.908C85.1106 138.037 85.3026 138.037 85.3634 138.103C85.6866 139.062 86.773 139.764 87.541 139.38C87.7354 140.852 89.3322 141.364 89.9714 142.773C89.3437 142.517 88.7252 142.239 88.117 141.94C88.0514 142.003 88.0514 142.066 87.9858 142.195C88.7538 142.579 89.5218 142.963 90.2217 143.409C90.8658 143.798 91.505 144.179 92.081 144.624C92.849 145.328 93.7458 145.717 94.8273 145.969C94.8056 145.875 94.7642 145.786 94.7058 145.709C96.4945 146.542 98.3513 147.439 99.7561 148.138C93.1041 148.269 86.005 148.398 78.6482 148.527C78.6482 147.312 78.5851 146.159 78.5851 144.942C78.5851 144.432 78.7114 143.983 78.6458 143.47C78.4514 140.531 78.4514 137.583 78.0698 134.702C77.6882 131.633 77.6882 128.623 77.7539 125.546C77.8146 123.887 77.6882 122.161 77.6226 120.494C77.6226 118.255 77.6226 116.074 77.6907 113.84C77.6907 113.519 77.8195 113.264 77.9483 112.941H78.1427C78.2035 113.072 78.1427 113.264 78.2642 113.33C78.4587 113.524 78.7795 113.84 78.9083 113.777C79.2899 113.519 79.8659 113.267 79.9947 112.878C80.3106 112.113 80.4419 111.28 80.4419 110.512C80.4419 109.939 80.6995 109.556 80.9522 109.169C81.0835 108.975 81.1467 108.786 81.2755 108.531C81.0203 108.336 80.7651 108.21 80.4443 107.955C80.7019 107.251 80.6387 106.418 81.5987 106.036C81.7251 105.971 81.7251 105.648 81.7932 105.458C81.8539 104.941 81.9147 104.365 81.9827 103.855C82.1091 104.05 82.1772 104.11 82.2987 104.237C82.3348 104.167 82.3788 104.102 82.4299 104.042C82.4299 103.79 82.3667 103.277 82.4299 103.277C83.1979 103.149 82.8771 102.318 83.2611 101.934C83.3219 101.866 83.1955 101.674 83.1955 101.546C83.1955 101.419 83.1955 101.23 83.2587 101.23C84.1506 101.036 84.0242 100.076 84.6002 99.627C84.7947 99.4983 84.8554 99.3112 85.1106 98.9882C85.621 99.882 84.7266 100.331 84.6634 100.97C85.7474 100.331 86.0682 98.7964 85.429 98.347C85.6842 98.1527 85.9394 97.9002 86.1338 97.6427C86.8386 96.8752 87.6018 96.1709 88.2434 95.4034C88.693 94.8303 88.9482 94.1259 89.3954 93.5503C89.653 93.2297 90.1634 92.9747 90.5474 92.7804C91.6994 92.1441 92.7833 91.4398 93.4881 90.3517C93.617 90.223 93.809 90.0967 93.9985 89.968C94.193 89.8393 94.577 89.8393 94.6401 89.6474C94.7058 89.5211 94.5138 89.2005 94.385 89.0086C94.6377 88.8799 94.8953 88.6249 95.4057 88.3675C95.2113 88.7512 95.1505 89.0086 95.0217 89.2661L95.3377 89.5818C95.9161 89.1349 96.8105 88.6249 97.3865 88.2412C97.3865 88.1804 97.0657 87.9254 97.0657 87.9254C96.6841 88.1197 96.1081 88.4355 95.5345 88.6929C95.656 88.4986 95.656 88.3723 95.729 88.3092C96.6209 87.7336 97.5153 87.158 98.4753 86.7062C100.711 85.6862 102.952 84.6612 105.19 83.7019C105.574 83.5076 106.09 83.6388 106.534 83.6388C106.724 83.6388 106.85 83.6388 107.045 83.5756C108.066 83.255 109.091 82.9344 110.114 82.677C110.559 82.5507 111.07 82.4875 111.524 82.4875C113.437 82.5483 115.357 82.5483 117.274 82.677C118.105 82.7401 118.873 82.932 119.641 83.187C120.626 83.529 121.587 83.9346 122.519 84.4014C123.605 84.9843 124.629 85.6206 125.654 86.3249C127.509 87.5393 129.234 88.8848 131.089 89.9728C132.88 91.0609 134.287 92.5327 135.439 94.1988C136.849 96.1806 138.445 97.973 139.085 100.404L140.042 104.63C140.237 105.398 140.684 106.165 140.492 107.059C140.168 108.662 139.913 110.325 139.658 111.926C139.532 112.57 139.403 113.213 139.469 113.845C139.59 115.836 138.824 117.561 138.059 119.353C137.801 119.929 137.417 120.507 137.099 121.145C137.255 121.256 137.427 121.343 137.609 121.403L138.185 120.252C138.251 120.252 138.251 120.252 138.314 120.317C137.993 121.211 137.738 122.173 137.415 123.069C136.652 125.053 135.884 127.101 134.924 129.019C134.413 130.107 133.514 131.004 132.877 132.031C132.241 132.925 131.728 133.884 131.089 134.717C130.513 135.421 129.939 136.126 129.169 136.636C127.443 137.916 125.652 139.196 123.797 140.22C122.648 140.925 121.304 141.309 120.025 141.629L120.042 141.622ZM85.9515 138.222L85.8883 138.287C85.7547 138.224 85.5627 138.161 85.4363 138.032L83.9003 135.725C83.7739 135.535 83.7059 135.344 83.7739 135.089C84.4787 136.177 85.1835 137.202 85.9491 138.222H85.9515ZM125.737 146.989C128.612 145.775 130.979 144.051 133.15 142.064C133.473 141.743 133.791 141.425 134.175 141.165C136.863 139.504 138.841 137.199 140.635 134.639C142.681 131.696 144.025 128.368 145.69 125.233C145.803 124.991 145.931 124.755 146.072 124.529C145.943 131.824 146.777 138.992 147.734 146.224C140.509 146.479 133.152 146.734 125.734 146.992L125.737 146.989ZM190.587 145.071C190.523 145.199 190.392 145.328 190.331 145.459C190.266 145.328 190.266 145.136 190.203 144.876C189.819 145.904 188.987 145.391 188.411 145.391C184.96 145.457 181.441 145.457 177.985 145.457C174.66 145.457 171.272 145.457 167.948 145.515C166.859 145.515 165.707 145.77 164.618 145.836C161.998 145.962 159.376 146.03 156.753 146.091C156.559 146.091 156.369 145.775 156.049 145.518C155.936 145.719 155.807 145.912 155.665 146.093C155.597 145.967 155.47 145.841 155.341 145.649C155.278 145.843 155.213 146.032 155.147 146.159H154.962C154.833 145.265 154.578 144.434 154.578 143.536C154.578 141.617 154.773 139.698 154.833 137.775C154.899 136.881 154.833 136.05 154.833 135.215C155.091 135.409 155.283 135.538 155.538 135.725C155.665 135.475 155.793 135.283 155.922 135.093C155.922 135.093 155.793 135.025 155.665 134.899C155.786 134.834 155.917 134.705 155.917 134.642C155.981 134.447 156.112 134.258 156.112 134.132C156.112 133.682 155.981 133.299 155.917 132.917C155.981 132.917 156.044 132.917 156.112 132.849L156.493 134.768H156.688C156.43 134.324 157.261 133.937 156.559 133.427C156.496 133.362 156.622 132.978 156.622 132.786C156.428 132.405 156.306 132.021 156.112 131.509C156.175 131.446 156.367 131.38 156.559 131.314C156.304 131.188 156.112 131.062 155.92 130.999C156.559 130.421 156.559 130.1 155.983 129.461C156.114 129.401 156.241 129.401 156.241 129.34C156.241 128.762 156.241 128.186 156.114 127.615C155.985 126.969 156.309 126.207 155.346 125.818C155.409 126.013 155.475 126.139 155.601 126.328C155.601 126.328 155.407 126.394 155.217 126.523C154.386 125.753 154.901 124.725 154.707 123.577C155.154 123.705 155.475 123.834 155.793 123.965C155.665 123.513 155.346 123.001 155.154 122.425H154.894V118.199C154.894 118.265 155.341 118.265 155.599 118.33C155.599 118.265 155.66 118.202 155.66 118.136C155.465 117.881 155.21 117.626 154.955 117.306L155.084 117.177C154.573 116.541 154.829 115.647 154.829 115.452V110.971C155.47 111.613 154.513 112.443 155.47 112.827V112.188H155.405C155.341 111.229 155.341 110.27 155.278 109.308H155.152C155.086 109.439 155.086 109.502 155.021 109.631H154.894L155.278 94.3348C155.917 95.1654 156.62 95.9378 157.067 96.7635C158.54 99.4545 160.457 101.759 162.248 104.191C163.784 106.304 165.189 108.606 166.599 110.782C168.324 113.405 169.987 116.028 171.715 118.651C172.993 120.638 174.34 122.622 175.676 124.543C176.891 126.268 178.175 127.934 179.453 129.6C180.537 131.072 181.689 132.543 182.775 134.015C184.056 135.808 185.335 137.597 186.615 139.327C187.252 140.22 187.957 141.117 188.657 142.013C189.046 142.523 189.619 142.911 190.003 143.227C189.943 143.227 189.877 143.227 189.751 143.164C189.945 143.419 190.067 143.611 190.198 143.74C190.903 144.123 190.966 144.507 190.582 145.085L190.587 145.071ZM193.848 129.075V128.626C193.848 128.752 193.911 128.942 193.848 129.073V129.075ZM196.023 100.853C195.958 100.853 195.576 100.465 195.513 100.402C195.447 100.596 195.513 100.785 195.384 101.043C195.319 100.853 194.874 100.917 194.874 100.727C194.808 101.621 195.255 102.517 195.19 103.413C195.384 103.285 196.15 103.219 196.342 103.03C196.407 103.093 196.536 103.156 196.599 103.156C195.319 104.118 195.639 105.075 196.215 106.168C196.342 106.42 196.726 106.933 196.342 107.445C196.215 107.574 196.407 107.955 196.471 108.278H196.658V108.399L196.082 108.594C195.955 108.399 195.19 108.021 195.19 107.695V110.964C195.829 111.159 195.829 112.052 196.084 112.502C196.196 112.346 196.284 112.174 196.344 111.992L196.41 112.05C196.344 112.434 196.281 112.817 196.152 113.203C196.026 113.777 195.897 114.289 195.836 114.865C195.836 114.928 195.958 115.059 195.958 115.12C195.258 116.723 195.642 118.51 195.387 120.171C195.192 121.386 195.387 122.673 195.258 123.951C195.127 125.039 194.869 126.19 194.616 127.278C194.551 127.472 194.422 127.533 194.106 127.662C194.232 126.894 194.169 126.382 194.04 125.677C193.972 125.677 193.141 125.23 193.075 125.23C193.075 126.129 193.586 127.343 193.78 128.364C193.586 128.3 192.82 127.853 192.759 127.853C192.628 128.621 192.628 129.646 192.565 130.476C192.499 131.118 191.926 131.691 191.86 132.395C191.86 132.784 192.307 133.036 192.244 133.678H192.755C192.755 132.4 193.333 131.249 193.333 129.903H193.523C193.588 130.032 193.78 130.161 193.717 130.224C193.588 130.928 193.328 131.696 193.396 132.4C193.396 132.784 193.712 133.168 193.591 133.614C193.459 134.003 193.396 134.384 193.331 134.96C193.265 134.639 193.202 134.513 193.202 134.321C193.139 134.321 192.563 134.256 192.497 134.256C192.434 134.639 192.947 135.023 192.881 135.344C192.818 135.407 192.755 135.407 192.626 135.472L190.516 132.398C188.849 129.969 187.187 127.533 185.524 125.039C185.093 124.428 184.707 123.787 184.37 123.12C182.392 119.714 180.192 116.442 177.783 113.325C175.931 110.959 174.454 108.395 172.728 105.905C171.134 103.537 169.535 101.232 167.936 98.8619C167.36 98.0969 166.657 97.3926 166.144 96.5595C164.484 93.9365 163.009 91.2479 161.352 88.6249C159.942 86.4463 158.411 84.3334 156.938 82.2228C156.428 81.5185 155.917 80.7486 155.402 79.9811C155.322 79.8474 155.278 79.695 155.276 79.5391C155.147 78.1304 155.018 76.7218 154.955 75.3787C154.955 74.0988 155.084 72.8188 155.084 71.4733V70.3221C155.084 70.0015 155.144 69.7465 155.144 69.4235C155.205 69.3628 155.271 69.2341 155.334 69.1709C153.48 69.1709 151.56 69.1029 149.705 69.1709C148.49 69.2316 147.851 68.7192 147.02 67.823C144.589 65.0712 142.798 61.9358 140.689 58.9922C138.7 56.1915 136.674 53.4168 134.613 50.669C132.948 48.4297 131.283 46.2536 129.623 44.0143C127.766 41.4544 125.977 38.8946 124.057 36.3347C121.731 33.2486 119.386 30.177 117.022 27.1202C115.928 25.7115 114.713 24.3684 113.497 22.8942C114.331 23.0254 115.102 23.1517 115.867 23.2172L118.939 23.4115C121.241 23.5985 123.542 23.7273 125.841 24.043C127.761 24.3029 129.681 24.6866 131.665 25.0048C135.889 25.7091 140.045 26.8627 144.074 28.2058C146.441 28.9733 148.74 29.9982 151.049 30.9575C156.226 33.0705 161.152 35.6304 166.013 38.3165C167.544 39.1496 168.443 40.4927 169.591 41.7095C171.255 43.4387 172.92 45.1655 174.517 46.9555C176.369 49.0685 178.095 51.2446 179.888 53.4207C181.485 55.3394 183.145 57.2581 184.749 59.1816C185.259 59.7572 185.648 60.4615 186.09 61.1003C187.111 62.6377 188.266 64.1119 189.16 65.7731C189.797 66.9924 190.181 68.401 190.628 69.7441C191.265 71.7283 191.906 73.647 192.548 75.6313C192.993 77.1031 193.374 78.6429 193.695 80.173C193.953 81.2003 193.89 82.286 194.206 83.306C194.594 84.6564 194.206 86.1233 194.594 87.4713C194.655 87.6 194.716 87.7919 194.784 87.9206C195.039 88.1732 195.231 88.4306 194.847 88.8143C194.786 88.8775 194.786 89.1301 194.847 89.3244C194.978 89.1981 195.042 89.0694 195.17 88.8775C195.17 89.0062 195.231 89.0718 195.231 89.1325C195.231 89.3851 195.166 89.6425 195.231 89.8975C195.231 90.0238 195.358 90.2133 195.421 90.3444C195.55 90.2133 195.676 90.1501 195.931 89.9558C196.507 92.1344 196.573 94.3105 196.573 96.5498C196.573 98.6628 196.954 100.776 196.062 102.823C196.252 102.119 195.805 101.475 195.997 100.836L196.023 100.853Z" fill="black"/>
<path fill-rule="evenodd" clip-rule="evenodd" d="M155.157 125.743C155.217 125.743 155.283 125.808 155.283 125.808L155.217 125.736C155.217 125.675 155.217 125.675 155.154 125.736L155.157 125.743ZM165.26 188.977C164.555 189.487 163.85 189.936 162.956 190.128C162.888 190.065 162.888 189.999 162.824 189.934C163.529 189.487 164.295 189.04 165 188.591C165.065 188.712 165.194 188.843 165.257 188.972L165.26 188.977ZM45.3398 102.252C46.0446 101.361 46.7495 100.465 47.5126 99.5687C47.5734 99.6318 48.0837 99.763 48.1494 99.8237C47.4445 100.722 46.4845 101.937 45.7822 102.896C45.6509 102.767 45.4589 102.32 45.3325 102.255L45.3398 102.252ZM27.1727 133.619C26.6624 132.531 26.152 131.378 25.6416 130.292C25.8195 130.179 26.0127 130.093 26.2152 130.034C26.92 131.054 27.2359 132.269 27.7512 133.362C27.7512 133.362 27.2408 133.617 27.1752 133.617L27.1727 133.619ZM43.4855 102.896C43.1015 103.474 42.7175 104.115 42.3335 104.693C42.2703 104.625 41.5655 104.946 41.5023 104.883C41.8863 104.307 42.8438 103.28 43.2278 102.707C43.2935 102.77 43.3566 102.835 43.4855 102.901V102.896ZM158.418 191.605C158.479 191.605 158.479 191.542 158.545 191.542C158.992 191.605 159.502 191.668 160.015 191.668C159.179 192.243 158.666 192.178 158.411 191.605H158.418ZM43.607 105.585C43.675 105.39 43.8014 105.201 43.9302 105.009C44.0566 105.009 44.2462 104.943 44.2462 104.943C44.5062 104.497 44.5062 104.176 44.7614 103.792C44.6982 103.729 44.6326 103.729 44.567 103.663C44.1854 103.926 43.8014 104.246 43.4174 104.501C43.5462 104.628 43.5462 104.696 43.5462 104.822C43.0358 104.756 42.8414 105.016 42.5862 105.716C42.523 105.91 42.2022 105.973 41.8814 106.226C41.8182 106.357 41.755 106.678 41.6262 106.996L41.6918 107.064C41.563 107.192 41.371 107.258 41.371 107.258C40.987 107.639 40.5398 107.962 40.1558 108.344C40.0926 108.538 40.0295 108.727 40.0295 108.919C40.4791 108.472 41.2446 107.639 41.8206 107.127L41.8863 107.192C42.1415 106.809 42.3335 106.425 42.5911 106.041C42.6518 106.104 42.6518 106.167 42.7175 106.235C42.523 106.746 42.3335 107.319 42.1415 107.831C42.0078 107.894 41.8158 108.025 41.8158 107.96C41.5606 108.154 41.3686 108.407 41.111 108.599L39.9614 109.366C39.3222 109.942 38.683 110.452 37.9782 111.03C37.531 111.734 37.0838 112.373 36.5686 113.206C37.339 113.012 37.531 113.335 37.4678 113.976C38.3622 114.102 38.4278 113.4 38.683 112.888C38.7462 112.757 38.8118 112.499 38.9382 112.436C39.5142 111.926 40.1534 111.479 40.7926 110.967C40.9214 110.838 40.9214 110.578 40.9214 110.389C40.9214 110.325 40.5982 110.325 40.4062 110.26C40.9822 109.619 41.8158 108.535 42.3894 107.831C42.7102 107.637 43.0285 107.379 43.0285 107.188C42.9654 106.483 43.4125 106.294 43.9278 106.036C43.6702 105.842 43.6045 105.655 43.6045 105.592L43.607 105.585Z" fill="black"/>
<path fill-rule="evenodd" clip-rule="evenodd" d="M44.8904 104.88C44.6352 105.327 44.38 105.711 44.1248 106.16L43.7408 105.966C43.4856 107.435 42.5888 108.715 41.6945 108.97C41.9496 109.099 42.2048 109.228 42.3993 109.165C42.5888 109.099 42.7152 108.776 42.844 108.586L44.5696 106.09L45.148 105.128L44.8928 104.873L44.8904 104.88ZM23.5954 132.976C23.9162 132.976 24.237 133.039 24.6162 133.039C24.6162 132.784 24.9394 132.844 24.9394 132.592H25.1338C25.1338 132.912 25.197 133.167 25.197 133.491H23.8555C23.7898 133.425 23.5347 133.039 23.5978 132.976H23.5954ZM23.085 130.032C22.8906 129.838 22.5747 129.648 22.5747 129.456C22.509 129.204 22.701 128.886 22.8906 128.565C23.0218 129.012 23.085 129.396 23.2114 129.845C23.1458 129.906 23.0826 129.971 23.0826 130.034L23.085 130.032ZM24.6842 125.935C24.9394 126.581 25.1946 127.285 25.4522 127.926C25.2708 127.987 25.0989 128.072 24.9418 128.181C24.6867 127.54 24.3658 126.836 24.1107 126.197C24.2834 126.074 24.4793 125.986 24.6867 125.94L24.6842 125.935ZM167.056 187.124C167.372 186.997 167.756 186.929 168.271 186.808C167.693 187.252 167.245 187.573 166.861 187.957C166.796 187.894 166.733 187.828 166.667 187.828C166.796 187.573 166.925 187.381 167.056 187.124ZM88.4428 51.8906C88.8244 51.6332 89.1476 51.4413 89.5292 51.1863L89.6556 51.3126C89.2667 51.8226 88.9508 52.3326 88.5011 52.9762C88.4379 52.5318 88.438 52.2719 88.3723 51.9562C88.3091 51.9562 88.3723 51.9562 88.438 51.893L88.4428 51.8906ZM107.181 84.2726C107.757 84.0152 108.333 83.7626 109.035 83.4396C108.972 83.8233 108.972 84.0808 108.972 84.3382C108.766 84.2635 108.55 84.2193 108.331 84.2071C107.947 84.2726 107.242 84.7851 106.921 84.8482C106.86 84.8482 107.179 84.3382 107.179 84.2726H107.181ZM155.157 138.545C155.283 139.183 156.498 139.504 155.283 140.143C155.478 140.276 155.665 140.337 155.857 140.468C155.857 140.534 155.793 140.662 155.73 140.726C155.601 140.786 155.346 140.915 155.22 140.847C155.154 140.847 155.025 140.594 155.025 140.466C155.025 139.89 155.091 139.315 155.154 138.547L155.157 138.545Z" fill="black"/>
</svg>
