<svg xmlns="http://www.w3.org/2000/svg" width="253" height="96" fill="none">
  <path fill="currentColor"
    d="M25.496 25.648c5.845 0 10.39 1.216 13.632 3.648 3.243 2.432 4.864 6.037 4.864 10.816 0 4.992-1.6 8.768-4.8 11.328-3.157 2.517-7.403 3.776-12.736 3.776h-4.8V70H11.16V25.648h14.336Zm.064 22.016c2.475 0 4.352-.576 5.632-1.728 1.323-1.195 1.984-3.136 1.984-5.824 0-4.65-2.603-6.976-7.808-6.976h-3.712v14.528h3.904Zm36.566-12.736c5.205 0 9.28 1.6 12.224 4.8 2.944 3.157 4.416 7.595 4.416 13.312 0 3.627-.683 6.805-2.049 9.536-1.322 2.688-3.242 4.779-5.76 6.272-2.474 1.493-5.418 2.24-8.831 2.24-5.163 0-9.238-1.579-12.224-4.736-2.944-3.2-4.416-7.659-4.416-13.376 0-3.627.66-6.784 1.983-9.472 1.366-2.73 3.286-4.843 5.76-6.336 2.518-1.493 5.483-2.24 8.897-2.24Zm0 7.424c-2.048 0-3.584.875-4.608 2.624-1.025 1.707-1.537 4.373-1.537 8 0 3.712.491 6.421 1.472 8.128 1.024 1.707 2.582 2.56 4.672 2.56 2.049 0 3.585-.853 4.609-2.56 1.023-1.75 1.535-4.437 1.535-8.064 0-3.712-.512-6.421-1.535-8.128-.982-1.707-2.518-2.56-4.608-2.56Zm34.623-7.424c2.431 0 4.714.363 6.848 1.088 2.133.725 4.01 1.75 5.632 3.072l-3.712 5.696c-2.774-1.75-5.569-2.624-8.385-2.624-1.322 0-2.346.235-3.072.704-.682.427-1.023 1.045-1.023 1.856 0 .64.149 1.173.447 1.6.342.384 1.003.79 1.985 1.216.98.427 2.496.939 4.544 1.536 3.541 1.024 6.165 2.368 7.872 4.032 1.749 1.621 2.624 3.883 2.624 6.784 0 2.304-.662 4.31-1.984 6.016-1.323 1.664-3.136 2.944-5.44 3.84-2.304.896-4.864 1.344-7.68 1.344-2.86 0-5.526-.448-8-1.344-2.433-.896-4.502-2.133-6.209-3.712l4.928-5.504c2.86 2.219 5.867 3.328 9.025 3.328 1.535 0 2.73-.277 3.584-.832.895-.555 1.344-1.344 1.344-2.368 0-.81-.171-1.45-.513-1.92-.34-.47-1.002-.896-1.983-1.28-.982-.427-2.54-.939-4.672-1.536-3.371-.981-5.889-2.347-7.553-4.096-1.663-1.75-2.495-3.925-2.495-6.528 0-1.963.554-3.712 1.663-5.248 1.153-1.579 2.774-2.816 4.864-3.712 2.134-.939 4.587-1.408 7.36-1.408ZM137.03 68.4c-1.237.853-2.688 1.515-4.352 1.984a17.42 17.42 0 0 1-4.864.704c-7.424-.043-11.136-4.139-11.136-12.288V43.056h-4.8v-7.04h4.8v-7.36l10.112-1.152v8.512h7.808l-1.088 7.04h-6.72v15.616c0 1.579.256 2.71.768 3.392.512.683 1.323 1.024 2.432 1.024 1.152 0 2.368-.363 3.648-1.088l3.392 6.4Zm21.68-43.84c2.773 0 5.226.405 7.36 1.216 2.176.81 4.224 2.027 6.144 3.648l-4.992 5.952c-1.323-1.024-2.624-1.792-3.904-2.304a10.928 10.928 0 0 0-4.096-.768c-2.987 0-5.355 1.259-7.104 3.776-1.707 2.517-2.56 6.4-2.56 11.648 0 5.163.853 9.003 2.56 11.52 1.749 2.475 4.16 3.712 7.232 3.712 1.621 0 3.093-.299 4.416-.896 1.322-.64 2.752-1.536 4.288-2.688l4.672 6.016c-1.664 1.664-3.691 3.03-6.08 4.096-2.347 1.067-4.95 1.6-7.808 1.6-4.096 0-7.659-.896-10.688-2.688-3.03-1.792-5.398-4.437-7.104-7.936-1.664-3.541-2.497-7.787-2.497-12.736 0-4.821.854-8.981 2.561-12.48 1.749-3.499 4.138-6.144 7.168-7.936 3.072-1.835 6.549-2.752 10.432-2.752Zm32.347 0c3.328 0 6.208.47 8.64 1.408 2.475.939 4.715 2.368 6.72 4.288l-4.864 5.696c-3.029-2.475-6.272-3.712-9.728-3.712-1.835 0-3.285.384-4.352 1.152-1.067.725-1.6 1.792-1.6 3.2 0 .981.235 1.792.704 2.432.469.597 1.301 1.173 2.496 1.728 1.195.555 2.987 1.216 5.376 1.984 4.523 1.45 7.851 3.243 9.984 5.376 2.133 2.09 3.2 5.077 3.2 8.96 0 2.773-.704 5.227-2.112 7.36-1.408 2.09-3.435 3.733-6.08 4.928-2.645 1.152-5.781 1.728-9.408 1.728s-6.848-.576-9.664-1.728c-2.773-1.152-5.163-2.688-7.168-4.608l5.312-5.824c1.707 1.45 3.456 2.539 5.248 3.264 1.835.725 3.819 1.088 5.952 1.088 2.176 0 3.883-.47 5.12-1.408 1.28-.981 1.92-2.325 1.92-4.032 0-1.11-.235-2.027-.704-2.752-.469-.768-1.28-1.45-2.432-2.048-1.152-.597-2.816-1.237-4.992-1.92-4.907-1.493-8.405-3.328-10.496-5.504-2.048-2.176-3.072-4.928-3.072-8.256 0-2.56.683-4.8 2.048-6.72 1.365-1.963 3.264-3.456 5.696-4.48 2.432-1.067 5.184-1.6 8.256-1.6Zm35.938 0c3.328 0 6.208.47 8.64 1.408 2.474.939 4.714 2.368 6.719 4.288l-4.863 5.696c-3.03-2.475-6.272-3.712-9.728-3.712-1.835 0-3.286.384-4.352 1.152-1.067.725-1.6 1.792-1.6 3.2 0 .981.234 1.792.704 2.432.469.597 1.301 1.173 2.495 1.728 1.195.555 2.987 1.216 5.377 1.984 4.522 1.45 7.85 3.243 9.984 5.376 2.133 2.09 3.2 5.077 3.2 8.96 0 2.773-.704 5.227-2.113 7.36-1.407 2.09-3.434 3.733-6.079 4.928-2.646 1.152-5.782 1.728-9.408 1.728-3.627 0-6.848-.576-9.664-1.728-2.774-1.152-5.163-2.688-7.168-4.608l5.312-5.824c1.706 1.45 3.456 2.539 5.248 3.264 1.834.725 3.818 1.088 5.952 1.088 2.176 0 3.882-.47 5.12-1.408 1.28-.981 1.92-2.325 1.92-4.032 0-1.11-.235-2.027-.704-2.752-.47-.768-1.28-1.45-2.432-2.048-1.152-.597-2.816-1.237-4.993-1.92-4.906-1.493-8.405-3.328-10.495-5.504-2.048-2.176-3.072-4.928-3.072-8.256 0-2.56.682-4.8 2.048-6.72 1.365-1.963 3.264-3.456 5.696-4.48 2.432-1.067 5.184-1.6 8.256-1.6Z" />
</svg>