<svg xmlns="http://www.w3.org/2000/svg" width="659" height="220" fill="none">
    <path fill="#000"
        d="M88.022 76.414c8.508-4.788 16.663-8.333 23.919-10.491 6.55-1.948 12.212-2.718 16.666-2.357 4.453.361 7.363 1.811 9.014 3.963 1.652 2.153 2.299 5.338 1.495 9.733-.803 4.396-3.013 9.665-6.59 15.488-2.517 4.098-5.668 8.401-9.383 12.784-6.308-6.774-13.767-13.56-22.12-19.97a190.57 190.57 0 0 0-13-9.15ZM41.402 105.534c-3.715-4.383-6.867-8.686-9.383-12.784-3.577-5.823-5.787-11.092-6.59-15.488-.804-4.395-.157-7.58 1.495-9.733 1.651-2.152 4.56-3.602 9.014-3.963 4.453-.361 10.115.41 16.666 2.357 7.256 2.158 15.41 5.703 23.918 10.491a190.49 190.49 0 0 0-13 9.15c-8.353 6.41-15.812 13.196-22.12 19.97Z" />
    <path fill="#000" fill-rule="evenodd"
        d="M45.358 110c6.129-6.633 13.47-13.35 21.779-19.725a182.683 182.683 0 0 1 15.135-10.466 182.65 182.65 0 0 1 15.136 10.466c8.31 6.376 15.65 13.092 21.779 19.725-6.129 6.633-13.469 13.349-21.779 19.725a182.423 182.423 0 0 1-15.136 10.466 182.423 182.423 0 0 1-15.135-10.466c-8.31-6.376-15.65-13.092-21.78-19.725Zm36.914 12.617c6.969 0 12.618-5.649 12.618-12.617 0-6.968-5.65-12.617-12.618-12.617S69.655 103.032 69.655 110c0 6.968 5.65 12.617 12.617 12.617Z"
        clip-rule="evenodd" />
    <path fill="#000"
        d="M41.402 114.466c-3.715 4.383-6.867 8.686-9.383 12.784-3.577 5.823-5.787 11.092-6.59 15.488-.805 4.395-.157 7.581 1.495 9.733 1.651 2.152 4.56 3.602 9.014 3.963 4.453.361 10.115-.409 16.666-2.357 7.256-2.158 15.41-5.703 23.918-10.491a190.528 190.528 0 0 1-13-9.15c-8.353-6.41-15.812-13.196-22.12-19.97ZM88.022 143.586c8.508 4.788 16.663 8.333 23.919 10.491 6.55 1.948 12.212 2.718 16.666 2.357 4.453-.361 7.363-1.811 9.014-3.963 1.652-2.152 2.299-5.338 1.496-9.733-.804-4.396-3.014-9.665-6.591-15.488-2.517-4.098-5.668-8.401-9.383-12.784-6.308 6.774-13.767 13.56-22.12 19.97a190.607 190.607 0 0 1-13 9.15Z" />
    <path fill="#000" fill-rule="evenodd"
        d="M164.545 62.5 82.272 15 0 62.5v95L82.272 205l82.273-47.5v-95ZM82.272 72.874c9.852-5.803 19.424-10.099 27.977-12.642 6.958-2.07 13.397-3.025 18.838-2.584 5.44.441 10.217 2.322 13.245 6.267 3.027 3.945 3.607 9.046 2.625 14.416-.982 5.369-3.572 11.342-7.372 17.527-2.806 4.569-6.32 9.331-10.447 14.142 4.127 4.811 7.641 9.573 10.448 14.142 3.799 6.185 6.389 12.158 7.371 17.527.982 5.37.402 10.471-2.625 14.416-3.028 3.945-7.805 5.826-13.245 6.267-5.441.441-11.88-.515-18.838-2.584-8.553-2.543-18.125-6.839-27.977-12.643-9.85 5.804-19.423 10.1-27.976 12.643-6.958 2.069-13.397 3.025-18.838 2.584-5.44-.441-10.218-2.322-13.245-6.267-3.027-3.945-3.607-9.046-2.625-14.416.982-5.369 3.572-11.342 7.371-17.527 2.807-4.569 6.32-9.331 10.448-14.142-4.127-4.811-7.64-9.573-10.448-14.142-3.8-6.185-6.39-12.158-7.371-17.527-.982-5.37-.402-10.47 2.625-14.416 3.027-3.945 7.804-5.826 13.245-6.267 5.44-.441 11.88.515 18.838 2.584 8.553 2.543 18.125 6.84 27.976 12.642Z"
        clip-rule="evenodd" />
    <path fill="#000"
        d="M205.249 107.129V69.753h29.952c6.059 0 10.965 1.536 14.72 4.608 3.755 3.072 5.632 7.765 5.632 14.08 0 6.314-1.877 11.008-5.632 14.08-3.755 3.072-8.661 4.608-14.72 4.608h-29.952Zm-8.704-44.8v91.392h8.704v-39.168h31.872c4.096 0 7.808-.555 11.136-1.664 3.328-1.195 6.187-2.902 8.576-5.12 2.389-2.304 4.224-5.078 5.504-8.32 1.28-3.243 1.92-6.912 1.92-11.008 0-4.096-.64-7.766-1.92-11.008-1.28-3.243-3.115-5.974-5.504-8.192-2.389-2.304-5.248-4.011-8.576-5.12-3.328-1.195-7.04-1.792-11.136-1.792h-40.576ZM283.314 105.721V69.753h32.512c6.656 0 11.605 1.621 14.848 4.864 3.243 3.242 4.864 7.68 4.864 13.312 0 2.816-.555 5.333-1.664 7.552a16.679 16.679 0 0 1-4.224 5.504c-1.792 1.536-3.883 2.73-6.272 3.584-2.389.768-4.907 1.152-7.552 1.152h-32.512Zm-8.704-43.392v91.392h8.704v-40.576h33.024c4.096-.171 7.296.512 9.6 2.048 2.389 1.536 4.181 3.584 5.376 6.144 1.28 2.474 2.091 5.333 2.432 8.576.427 3.157.725 6.357.896 9.6.085.938.171 2.048.256 3.328.085 1.28.171 2.602.256 3.968.171 1.28.384 2.56.64 3.84.341 1.194.768 2.218 1.28 3.072h9.6c-.939-1.11-1.707-2.646-2.304-4.608a50.016 50.016 0 0 1-1.152-6.4 94.07 94.07 0 0 1-.512-6.784 338.817 338.817 0 0 0-.256-5.632c-.171-2.731-.555-5.248-1.152-7.552-.512-2.39-1.408-4.48-2.688-6.272-1.195-1.792-2.773-3.243-4.736-4.352-1.963-1.195-4.437-2.006-7.424-2.432v-.256c5.888-1.195 10.325-3.926 13.312-8.192 2.987-4.267 4.48-9.302 4.48-15.104 0-4.096-.768-7.638-2.304-10.624-1.451-3.072-3.456-5.547-6.016-7.424-2.475-1.963-5.419-3.414-8.832-4.352-3.328-.939-6.869-1.408-10.624-1.408H274.61ZM357.425 62.329v91.392h63.744v-7.424h-55.04v-36.096h50.944v-7.424h-50.944V69.753h54.4v-7.424h-63.104ZM446.228 117.881l18.304-46.848 17.664 46.848h-35.968Zm13.824-55.552-36.736 91.392h9.216l11.008-28.416h41.6l11.136 28.416h9.344l-35.84-91.392h-9.728ZM576.901 89.977h8.704c-.597-4.779-2.048-9.003-4.352-12.672-2.219-3.67-5.035-6.742-8.448-9.216-3.328-2.56-7.083-4.48-11.264-5.76a42.237 42.237 0 0 0-12.672-1.92c-7.168 0-13.483 1.322-18.944 3.968-5.376 2.56-9.856 6.058-13.44 10.496-3.584 4.352-6.272 9.386-8.064 15.104-1.792 5.717-2.688 11.733-2.688 18.048 0 6.314.896 12.33 2.688 18.048 1.792 5.717 4.48 10.752 8.064 15.104 3.584 4.352 8.064 7.85 13.44 10.496 5.461 2.56 11.776 3.84 18.944 3.84 5.376 0 10.24-.854 14.592-2.56 4.437-1.707 8.277-4.139 11.52-7.296 3.243-3.158 5.888-6.998 7.936-11.52 2.048-4.523 3.371-9.6 3.968-15.232h-8.704c-.427 4.096-1.408 7.936-2.944 11.52-1.536 3.498-3.541 6.57-6.016 9.216-2.475 2.645-5.419 4.736-8.832 6.272-3.413 1.536-7.253 2.304-11.52 2.304-6.059 0-11.264-1.152-15.616-3.456-4.352-2.304-7.936-5.334-10.752-9.088-2.731-3.84-4.779-8.15-6.144-12.928a57.615 57.615 0 0 1-1.92-14.72c0-5.035.64-9.942 1.92-14.72 1.365-4.779 3.413-9.046 6.144-12.8 2.816-3.84 6.4-6.912 10.752-9.216 4.352-2.304 9.557-3.456 15.616-3.456 3.328 0 6.485.512 9.472 1.536 3.072.938 5.845 2.346 8.32 4.224 2.56 1.877 4.693 4.224 6.4 7.04 1.792 2.73 3.072 5.845 3.84 9.344ZM586.642 62.329v7.424h31.744v83.968h8.704V69.753h31.872v-7.424h-72.32Z" />
</svg>