<svg width="667" height="220" viewBox="0 0 667 220" fill="none" xmlns="http://www.w3.org/2000/svg">
<path d="M94.6872 14.1852L176.799 61.5926V156.407L94.6872 203.815L12.5752 156.407V61.5926L94.6872 14.1852Z" fill="black"/>
<path d="M37.4838 153.692C46.9288 165.782 80.1965 155.572 111.789 130.889C143.382 106.206 161.336 76.3966 151.891 64.3075C142.446 52.2185 109.179 62.4278 77.5858 87.1108C45.993 111.794 28.0387 141.603 37.4838 153.692Z" stroke="white" stroke-width="5.33333" stroke-dasharray="129 20"/>
<path d="M151.891 153.692C161.336 141.603 143.382 111.794 111.789 87.1108C80.1962 62.4278 46.9286 52.2185 37.4835 64.3075C28.0385 76.3966 45.9928 106.206 77.5856 130.889C109.178 155.572 142.446 165.782 151.891 153.692Z" stroke="white" stroke-width="5.33333" stroke-dasharray="129 20"/>
<path d="M94.6873 121.593C101.642 121.593 107.28 115.955 107.28 109C107.28 102.045 101.642 96.4074 94.6873 96.4074C87.7326 96.4074 82.0947 102.045 82.0947 109C82.0947 115.955 87.7326 121.593 94.6873 121.593Z" fill="white"/>
<path d="M202.039 118.352V155.296H195.428V63.5815H219.087C229.846 63.5815 237.958 65.937 243.425 70.6482C248.891 75.3568 251.625 82.0753 251.625 90.8037C251.625 94.8235 250.879 98.5185 249.387 101.889C247.896 105.259 245.746 108.165 242.936 110.607C240.128 113.047 236.716 114.948 232.699 116.311C228.679 117.672 224.142 118.352 219.087 118.352H202.039ZM202.039 113.037H219.087C223.149 113.037 226.778 112.475 229.973 111.352C233.173 110.228 235.885 108.673 238.11 106.685C240.334 104.698 242.041 102.353 243.228 99.6519C244.418 96.9506 245.013 94.0012 245.013 90.8037C245.013 83.7617 242.842 78.3395 238.499 74.537C234.155 70.7346 227.685 68.8333 219.087 68.8333H202.039V113.037ZM278.976 113.815V155.296H272.365V63.5815H295.762C306.349 63.5815 314.257 65.6235 319.484 69.7074C324.713 73.7914 327.328 79.7864 327.328 87.6926C327.328 91.1938 326.723 94.3914 325.513 97.2852C324.304 100.181 322.564 102.721 320.295 104.904C318.026 107.084 315.292 108.877 312.095 110.281C308.897 111.686 305.29 112.605 301.273 113.037C302.31 113.684 303.238 114.548 304.058 115.63L335.625 155.296H329.854C329.163 155.296 328.569 155.167 328.073 154.907C327.576 154.648 327.09 154.216 326.613 153.611L297.254 116.407C296.518 115.457 295.729 114.786 294.887 114.396C294.046 114.009 292.738 113.815 290.965 113.815H278.976ZM278.976 108.889H294.921C298.983 108.889 302.622 108.402 305.839 107.43C309.059 106.457 311.781 105.063 314.006 103.248C316.233 101.433 317.929 99.2519 319.095 96.7037C320.263 94.1531 320.847 91.279 320.847 88.0815C320.847 81.558 318.707 76.7185 314.428 73.563C310.152 70.4099 303.929 68.8333 295.762 68.8333H278.976V108.889ZM407.18 63.5815V69.0926H358.891V106.167H399.076V111.544H358.891V149.789H407.18V155.296H352.217V63.5815H407.18ZM497.854 155.296H492.736C492.131 155.296 491.633 155.135 491.243 154.811C490.855 154.488 490.553 154.067 490.336 153.548L479.513 126.907H434.465L423.706 153.548C423.533 154.022 423.231 154.432 422.799 154.778C422.367 155.123 421.848 155.296 421.243 155.296H416.188L453.717 63.5815H460.328L497.854 155.296ZM436.476 121.981H477.569L458.836 75.637C458.534 74.9037 458.232 74.0728 457.928 73.1445C457.627 72.2136 457.325 71.2296 457.021 70.1926C456.72 71.2296 456.417 72.2136 456.113 73.1445C455.812 74.0728 455.51 74.9259 455.206 75.7037L436.476 121.981ZM577.058 139.87C577.49 139.87 577.858 140.021 578.162 140.322L580.754 143.111C578.85 145.143 576.776 146.969 574.532 148.589C572.283 150.209 569.829 151.591 567.173 152.737C564.516 153.88 561.6 154.765 558.425 155.393C555.247 156.02 551.758 156.333 547.958 156.333C541.605 156.333 535.781 155.221 530.488 152.996C525.194 150.772 520.657 147.617 516.876 143.533C513.096 139.449 510.148 134.512 508.032 128.722C505.913 122.932 504.854 116.494 504.854 109.407C504.854 102.449 505.946 96.0975 508.128 90.3519C510.311 84.6037 513.379 79.6667 517.332 75.5407C521.285 71.4148 526.016 68.2173 531.525 65.9482C537.036 63.679 543.117 62.5444 549.769 62.5444C553.097 62.5444 556.144 62.7938 558.91 63.2926C561.675 63.7889 564.257 64.5012 566.654 65.4296C569.054 66.358 571.312 67.5136 573.428 68.8963C575.544 70.279 577.618 71.8778 579.651 73.6926L577.639 76.6111C577.296 77.1296 576.757 77.3889 576.021 77.3889C575.633 77.3889 575.137 77.1617 574.532 76.7074C573.927 76.2531 573.159 75.6914 572.228 75.0222C571.3 74.3531 570.176 73.6185 568.858 72.8185C567.539 72.0185 565.974 71.284 564.162 70.6148C562.344 69.9457 560.248 69.384 557.873 68.9296C555.495 68.4753 552.794 68.2482 549.769 68.2482C544.196 68.2482 539.076 69.2099 534.41 71.1333C529.743 73.0568 525.725 75.8012 522.354 79.3667C518.984 82.9296 516.359 87.2506 514.48 92.3296C512.601 97.4062 511.662 103.099 511.662 109.407C511.662 115.889 512.59 121.679 514.447 126.778C516.306 131.877 518.876 136.186 522.158 139.707C525.442 143.228 529.321 145.93 533.795 147.811C538.267 149.69 543.117 150.63 548.347 150.63C551.628 150.63 554.555 150.414 557.128 149.981C559.699 149.549 562.064 148.901 564.225 148.037C566.385 147.173 568.395 146.114 570.254 144.859C572.111 143.607 573.947 142.138 575.762 140.452C575.979 140.279 576.184 140.14 576.376 140.033C576.572 139.925 576.799 139.87 577.058 139.87ZM661.51 63.5815V69.2222H629.299V155.296H622.688V69.2222H590.28V63.5815H661.51Z" fill="black"/>
</svg>
