<svg xmlns="http://www.w3.org/2000/svg" width="685" height="220" fill="none">
    <path fill="currentColor" fill-rule="evenodd"
        d="M225.788 77.734h4.245a5.246 5.246 0 0 1 5.246 5.246v4.967c0 .154.125.278.279.278 2.417-4.274 5.67-7.383 9.759-9.325 4.09-1.943 8.505-2.915 13.246-2.915 5.112 0 9.712.947 13.802 2.842 4.09 1.894 7.575 4.493 10.457 7.796 2.881 3.302 5.065 7.188 6.552 11.657 1.487 4.469 2.231 9.277 2.231 14.426 0 5.148-.79 9.957-2.37 14.426-1.58 4.469-3.787 8.355-6.622 11.658-2.835 3.302-6.251 5.901-10.248 7.795-3.997 1.895-8.365 2.842-13.105 2.842-3.16 0-5.949-.34-8.366-1.02-2.416-.68-4.554-1.554-6.413-2.623-1.859-1.069-3.439-2.21-4.74-3.424-1.302-1.215-2.37-2.405-3.207-3.57a.418.418 0 0 0-.418.418V174.5a6.402 6.402 0 0 1-6.402 6.402h-3.926a6.402 6.402 0 0 1-6.402-6.402V84.136a6.402 6.402 0 0 1 6.402-6.402Zm49.086 34.972c0-2.72-.441-5.343-1.324-7.869s-2.184-4.76-3.904-6.703c-1.719-1.943-3.787-3.497-6.204-4.663-2.416-1.165-5.158-1.748-8.226-1.748-3.067 0-5.809.583-8.225 1.748-2.417 1.166-4.485 2.72-6.205 4.663-1.719 1.943-3.02 4.177-3.903 6.703a23.676 23.676 0 0 0-1.325 7.869c0 2.72.442 5.343 1.325 7.869.883 2.525 2.184 4.76 3.903 6.703 1.72 1.942 3.788 3.497 6.205 4.663 2.416 1.165 5.158 1.748 8.225 1.748 3.068 0 5.81-.583 8.226-1.748 2.417-1.166 4.485-2.721 6.204-4.663 1.72-1.943 3.021-4.178 3.904-6.703a23.675 23.675 0 0 0 1.324-7.869Zm40.839-34.972h4.792a5.537 5.537 0 0 1 5.537 5.537v5.258c0 .154.125.28.279.28 1.858-4.08 4.507-7.238 7.946-9.472 3.44-2.235 7.39-3.352 11.851-3.352 1.022 0 2.021.097 2.997.292a3.725 3.725 0 0 1 2.998 3.653v9.593A3.493 3.493 0 0 1 348 92.961a22.375 22.375 0 0 0-3.974-.364c-3.903 0-7.04.753-9.41 2.259-2.37 1.505-4.182 3.23-5.438 5.173-1.254 1.943-2.091 3.885-2.509 5.828-.418 1.943-.627 3.4-.627 4.372v31.047a6.402 6.402 0 0 1-6.402 6.402h-3.927a6.402 6.402 0 0 1-6.402-6.402v-57.14a6.403 6.403 0 0 1 6.402-6.402Zm56.605 0h3.926a6.402 6.402 0 0 1 6.402 6.402v57.14a6.402 6.402 0 0 1-6.402 6.402h-3.926a6.402 6.402 0 0 1-6.402-6.402v-57.14a6.402 6.402 0 0 1 6.402-6.402Zm-8.773-23.752c0-2.817.999-5.27 2.998-7.359 1.999-2.089 4.531-3.133 7.598-3.133 3.068 0 5.647.996 7.738 2.987 2.092 1.992 3.137 4.493 3.137 7.505 0 3.011-1.045 5.513-3.137 7.504-2.091 1.992-4.67 2.988-7.738 2.988-3.067 0-5.599-1.045-7.598-3.133-1.999-2.089-2.998-4.542-2.998-7.36Zm72.081 39.736c-3.394-2.496-6.415-3.744-9.063-3.744-2.23 0-4.414.583-6.552 1.749-2.138 1.165-3.207 3.06-3.207 5.683 0 2.137.883 3.691 2.649 4.663 1.766.971 3.996 1.796 6.692 2.477 2.695.68 5.6 1.384 8.714 2.113 3.113.729 6.018 1.845 8.714 3.352 2.695 1.505 4.925 3.569 6.691 6.192s2.65 6.217 2.65 10.783c0 4.177-.86 7.699-2.58 10.565-1.719 2.866-3.95 5.173-6.692 6.921-2.742 1.749-5.832 3.012-9.271 3.789a46.684 46.684 0 0 1-10.317 1.166c-5.206 0-9.992-.777-14.36-2.332-1.711-.608-3.764-1.831-6.159-3.669a6.402 6.402 0 0 1-.583-9.652l1.736-1.7a6.4 6.4 0 0 1 8.71-.233c1.015.894 1.895 1.583 2.639 2.067 2.463 1.603 5.461 2.404 8.993 2.404 1.208 0 2.463-.145 3.764-.437a11.914 11.914 0 0 0 3.625-1.457c1.116-.68 2.022-1.53 2.719-2.55.696-1.02 1.045-2.21 1.045-3.57 0-2.429-.883-4.226-2.649-5.392-1.765-1.166-3.997-2.112-6.692-2.841-2.696-.728-5.6-1.408-8.714-2.04-3.113-.631-6.018-1.652-8.713-3.06-2.696-1.409-4.927-3.376-6.693-5.902-1.766-2.526-2.648-6.023-2.648-10.491 0-3.886.766-7.262 2.3-10.128 1.534-2.866 3.555-5.222 6.065-7.067 2.509-1.846 5.39-3.206 8.643-4.08a37.985 37.985 0 0 1 9.899-1.312c4.462 0 8.877.802 13.245 2.404 1.582.58 3.347 1.656 5.294 3.225a6.403 6.403 0 0 1 .37 9.648l-2.085 1.961a6.402 6.402 0 0 1-8.179.495Zm38.05-15.984h3.089a6.402 6.402 0 0 1 6.403 6.402v4.527c1.766-3.303 4.159-6.242 7.458-8.816 3.3-2.575 7.738-3.862 13.315-3.862 10.503 0 17.474 4.323 20.913 12.97 2.416-4.47 5.438-7.748 9.062-9.837 3.625-2.088 7.947-3.133 12.966-3.133 4.462 0 8.226.777 11.293 2.332 3.068 1.554 5.554 3.691 7.46 6.411 1.905 2.72 3.276 5.902 4.112 9.545.837 3.643 1.255 7.552 1.255 11.73v35.273a6.402 6.402 0 0 1-6.402 6.402h-3.926a6.402 6.402 0 0 1-6.402-6.402v-33.233c0-2.137-.186-4.202-.558-6.193-.372-1.992-1.022-3.74-1.952-5.246a10.07 10.07 0 0 0-3.764-3.57c-1.58-.874-3.625-1.311-6.135-1.311-2.602 0-4.81.51-6.622 1.53a13.11 13.11 0 0 0-4.461 4.08c-1.162 1.7-1.999 3.643-2.51 5.828a28.984 28.984 0 0 0-.767 6.63v31.485a6.402 6.402 0 0 1-6.402 6.402h-3.926a6.402 6.402 0 0 1-6.402-6.402v-35.273c0-4.372-.883-7.844-2.649-10.419-1.766-2.574-4.694-3.861-8.784-3.861-2.788 0-5.135.485-7.04 1.457-1.906.971-3.486 2.283-4.74 3.934-1.255 1.652-2.162 3.546-2.72 5.683a26.47 26.47 0 0 0-.836 6.703v31.776a6.402 6.402 0 0 1-6.402 6.402h-3.926a6.402 6.402 0 0 1-6.402-6.402v-57.14a6.402 6.402 0 0 1 6.402-6.402Zm124.362 0h3.927a6.403 6.403 0 0 1 6.402 6.402v57.14a6.402 6.402 0 0 1-6.402 6.402h-3.927a6.402 6.402 0 0 1-6.402-6.402v-57.14a6.402 6.402 0 0 1 6.402-6.402Zm-8.772-23.752c0-2.817.999-5.27 2.997-7.359 1.999-2.089 4.531-3.133 7.599-3.133 3.067 0 5.646.996 7.737 2.987 2.092 1.992 3.138 4.493 3.138 7.505 0 3.011-1.046 5.513-3.138 7.504-2.091 1.992-4.67 2.988-7.737 2.988-3.068 0-5.6-1.045-7.599-3.133-1.998-2.089-2.997-4.542-2.997-7.36Zm81.843 40.906a17.479 17.479 0 0 0-1.816-1.271c-2.138-1.263-4.322-1.894-6.553-1.894-3.067 0-5.809.583-8.226 1.748-2.416 1.166-4.484 2.72-6.203 4.663-1.72 1.943-3.022 4.177-3.904 6.703a23.65 23.65 0 0 0-1.325 7.869c0 2.72.441 5.343 1.325 7.869.882 2.525 2.184 4.76 3.904 6.703 1.719 1.942 3.787 3.497 6.203 4.663 2.417 1.165 5.159 1.748 8.226 1.748 2.603 0 5.02-.558 7.25-1.676.451-.225.941-.532 1.469-.921a6.402 6.402 0 0 1 8.574.902l2.543 2.857a6.094 6.094 0 0 1-1.502 9.33 38.606 38.606 0 0 1-6.623 3.06c-2.23.777-4.368 1.336-6.413 1.676-2.044.34-3.81.51-5.298.51-5.019 0-9.759-.875-14.22-2.623-4.462-1.749-8.32-4.226-11.573-7.432-3.253-3.205-5.832-7.067-7.737-11.584-1.905-4.518-2.859-9.545-2.859-15.082 0-5.538.954-10.564 2.859-15.082 1.905-4.517 4.484-8.378 7.737-11.584 3.253-3.206 7.111-5.683 11.573-7.432 4.461-1.749 9.201-2.623 14.22-2.623 4.276 0 8.574.85 12.896 2.55 1.647.648 3.591 1.806 5.83 3.475a6.401 6.401 0 0 1 .8 9.56l-2.586 2.702a6.402 6.402 0 0 1-8.571.616ZM173.631 118.559 160.66 105.56a5.499 5.499 0 0 1-1.605-3.883v-15.91c0-14.701-1.527-20.032-4.396-25.406-2.867-5.375-7.077-9.592-12.439-12.467-5.363-2.874-10.682-4.405-25.351-4.405h-20.98a1.1 1.1 0 0 1-.778-1.875l12.971-13A5.496 5.496 0 0 1 111.973 27h7.287c19.559 0 26.652 2.04 33.802 5.873 7.151 3.833 12.762 9.456 16.586 16.622 3.824 7.166 5.861 14.273 5.861 33.874v34.413a1.1 1.1 0 0 1-1.878.777ZM84.141 201.014l12.972-13a5.494 5.494 0 0 1 3.891-1.614h15.865c14.669 0 19.988-1.531 25.35-4.405 5.363-2.874 9.572-7.092 12.44-12.466 2.868-5.375 4.396-10.706 4.396-25.406V123.1a1.099 1.099 0 0 1 1.877-.776l12.971 12.998a5.499 5.499 0 0 1 1.605 3.883v7.315c0 19.601-2.036 26.708-5.86 33.874-3.824 7.166-9.436 12.79-16.586 16.622-7.151 3.832-14.243 5.874-33.802 5.874H84.92a1.1 1.1 0 0 1-.779-1.876ZM1.877 111.329l12.971 12.999a5.498 5.498 0 0 1 1.606 3.883v15.91c0 14.701 1.527 20.032 4.395 25.406 2.868 5.374 7.077 9.592 12.44 12.466 5.363 2.875 10.682 4.406 25.351 4.406h20.98a1.099 1.099 0 0 1 .778 1.875l-12.972 13a5.498 5.498 0 0 1-3.89 1.614h-7.288c-19.559 0-26.651-2.041-33.801-5.873-7.15-3.833-12.762-9.456-16.586-16.622C2.036 173.227 0 166.119 0 146.519v-34.413a1.1 1.1 0 0 1 1.877-.777ZM91.368 28.876l-12.973 13a5.495 5.495 0 0 1-3.89 1.613H58.64c-14.669 0-19.988 1.531-25.351 4.405-5.363 2.875-9.572 7.092-12.44 12.467-2.868 5.374-4.395 10.705-4.395 25.405v21.023a1.1 1.1 0 0 1-1.878.777l-12.97-13A5.496 5.496 0 0 1 0 90.685V83.37c0-19.6 2.036-26.708 5.86-33.874 3.825-7.166 9.436-12.79 16.587-16.622C29.597 29.041 36.689 27 56.248 27H90.59a1.1 1.1 0 0 1 .779 1.876Z"
        clip-rule="evenodd" />
    <path fill="currentColor" fill-rule="evenodd"
        d="m146.226 91.175-17.687-16.941a10.931 10.931 0 0 0-3.997-2.557 10.923 10.923 0 0 0-3.879-.707h-52.21a1.1 1.1 0 0 1-.777-1.876l12.983-13a5.497 5.497 0 0 1 3.89-1.613h41.598c12.117 0 21.939 9.843 21.939 21.986V90.38a1.1 1.1 0 0 1-1.86.794ZM111.466 173.559l16.909-17.731a10.96 10.96 0 0 0 2.552-4.006c.456-1.209.705-2.519.705-3.887v-52.32a1.1 1.1 0 0 1 1.878-.775l12.972 13.011a5.497 5.497 0 0 1 1.604 3.881v41.699c0 12.143-9.822 21.986-21.939 21.986h-13.886a1.099 1.099 0 0 1-.795-1.858ZM29.284 138.713l17.687 16.941a10.928 10.928 0 0 0 3.997 2.556c1.206.457 2.513.707 3.88.707h52.208a1.1 1.1 0 0 1 .778 1.876L94.85 173.794a5.5 5.5 0 0 1-3.89 1.613H49.363c-12.116 0-21.938-9.844-21.938-21.986v-13.915a1.1 1.1 0 0 1 1.86-.793ZM64.045 56.339 47.135 74.07a10.954 10.954 0 0 0-2.552 4.006 10.99 10.99 0 0 0-.705 3.887v52.319a1.099 1.099 0 0 1-1.878.776l-12.972-13.011a5.496 5.496 0 0 1-1.604-3.881v-41.7c0-12.142 9.822-21.985 21.938-21.985H63.25a1.1 1.1 0 0 1 .796 1.858Z"
        clip-rule="evenodd" />
</svg>