<svg xmlns="http://www.w3.org/2000/svg" viewBox="0 0 256 256">
  <path fill="#E55638" d="M222.8 8.5a58.1 58.1 0 0 1 24.1 24.2c5.6 10.5 8.5 20.8 8.5 49.3v50.1a1.6 1.6 0 0 1-2.7 1.2l-18.9-19a8 8 0 0 1-2.3-5.6V85.5c0-21.4-2.2-29.1-6.4-37a43.6 43.6 0 0 0-18.1-18c-7.7-4.2-15.4-6.5-36.2-6.5h-31.2a1.6 1.6 0 0 1-1.2-2.7l19-19A8 8 0 0 1 163 0h10.6c28.4 0 38.8 3 49.2 8.5M183.6 40a32 32 0 0 1 32 32v20.3a1.6 1.6 0 0 1-2.8 1.1l-25.7-24.7a15.9 15.9 0 0 0-5.8-3.7 15.9 15.9 0 0 0-5.7-1h-76a1.6 1.6 0 0 1-1.1-2.7l18.9-19A8 8 0 0 1 123 40z"/>
  <path fill="#F4C942" d="m234.2 138.7 19 19a8 8 0 0 1 2.2 5.6V174c0 28.5-3 38.8-8.5 49.3a58.1 58.1 0 0 1-24.1 24.2c-10.4 5.5-20.8 8.5-49.2 8.5h-50a1.6 1.6 0 0 1-1.1-2.7l18.8-19a8 8 0 0 1 5.7-2.3h23c21.3 0 29-2.2 36.9-6.4a43.6 43.6 0 0 0 18.1-18.1c4.2-7.9 6.4-15.6 6.4-37v-30.6a1.6 1.6 0 0 1 2.7-1.2m-39.9-40 18.9 19a8 8 0 0 1 2.3 5.6V184a32 32 0 0 1-31.9 32h-20.2a1.6 1.6 0 0 1-1.2-2.7l24.6-25.8a15.9 15.9 0 0 0 3.8-5.8 16 16 0 0 0 1-5.7v-76a1.6 1.6 0 0 1 2.7-1.2"/>
  <path fill="#7B8FEA" d="m2.7 122.7 19 19a8 8 0 0 1 2.3 5.6v23.2c0 21.4 2.2 29.1 6.4 37a43.6 43.6 0 0 0 18 18c7.9 4.3 15.6 6.5 37 6.5h30.5a1.6 1.6 0 0 1 1.1 2.7l-18.9 19a8 8 0 0 1-5.6 2.3H81.9c-28.5 0-38.8-3-49.2-8.5a58.1 58.1 0 0 1-24.2-24.2C3 212.9.1 202.7 0 174.8v-51a1.6 1.6 0 0 1 2.7-1m40 39.8 25.7 24.6a15.9 15.9 0 0 0 5.8 3.8 15.8 15.8 0 0 0 5.6 1h76a1.6 1.6 0 0 1 1.1 2.7l-18.9 19a8 8 0 0 1-5.6 2.3H71.8A32 32 0 0 1 40 184v-20.3a1.6 1.6 0 0 1 2.7-1.1"/>
  <path fill="#D97EE8" d="M92 40a1.6 1.6 0 0 1 1.2 2.7L68.6 68.5a15.9 15.9 0 0 0-3.7 5.8 16 16 0 0 0-1 5.7v76.2a1.6 1.6 0 0 1-2.8 1l-18.9-18.9a8 8 0 0 1-2.3-5.6V72a32 32 0 0 1 32-32zm40-40a1.6 1.6 0 0 1 1 2.7l-18.8 19a8 8 0 0 1-5.6 2.3H85.3c-21.3 0-29 2.2-36.9 6.4a43.6 43.6 0 0 0-18 18.2C26.1 56.3 24 64 23.8 84.9V116a1.6 1.6 0 0 1-2.7 1.2l-18.9-19A8 8 0 0 1 0 92.7V82c0-28.5 3-38.8 8.5-49.3A58.1 58.1 0 0 1 32.7 8.5C43 3 53.2.1 81 0z"/>
</svg>
