<svg xmlns="http://www.w3.org/2000/svg" viewBox="0 0 1965 500">
  <path d="M406 492V297c0-80 46-143 139-143 15 0 30 1 45 5v80l-24-1c-49 0-71 23-71 69v185h-89Zm210-166c0-97 74-172 177-172s177 74 177 172c0 99-74 174-177 174s-177-76-177-174Zm266 0c0-55-37-95-89-95-51 0-88 40-88 95 0 57 37 96 88 96 52 0 89-39 89-96Zm347-94h-96v123c0 43 15 63 60 63l28-1v73c-19 5-35 8-52 8-75 0-126-45-126-131V232h-60v-71h15a45 45 0 0 0 45-45V49h90v112h96v71Zm27 94c0-97 74-172 177-172 102 0 176 74 176 172 0 99-74 174-176 174-103 0-177-76-177-174Zm265 0c0-55-37-95-88-95-52 0-89 40-89 95 0 57 37 96 89 96 51 0 88-39 88-96Zm135 166V304c0-88 55-150 155-150 98 0 154 62 154 150v188h-89V311c0-49-22-79-65-79-44 0-66 30-66 79v181h-89ZM2 364v128h90V369a45 45 0 0 1 45-45h92a162 162 0 0 0 0-324H2v160h90V85h131a77 77 0 0 1 0 153h-95A125 125 0 0 0 2 364Z"/>
</svg>