<svg xmlns="http://www.w3.org/2000/svg" viewBox="0 0 500 506">
  <path fill="#18B6F6" d="m250 449.7 181.1 55.8-88-81.8-214-198.8 50-50-23-158.8L8.4 193.7a62.3 62.3 0 0 0 0 62.3l93.9 162.6a62.3 62.3 0 0 0 54 31.1H250Z"/>
  <path fill="#AC7EF4" d="M343.8 0H156.2a62.3 62.3 0 0 0-54 31.2L8.3 193.7 156.2 16.1 370.8 225l-40 40L343 423.7l88.1 81.8a6 6 0 0 0 7.1-8.5l-40.4-78.4L491.7 256a62.3 62.3 0 0 0 0-62.3L397.8 31.2a62.3 62.3 0 0 0-54-31.2Z"/>
  <path fill="#fff" d="M370.8 224.9 156.2 16l23 158.8-50 50L343 423.7l-12.2-158.8 40-40Z"/>
</svg>