<svg xmlns="http://www.w3.org/2000/svg" width="659" height="220" fill="none">
    <g fill="#000" clip-path="url(#a)">
        <g clip-path="url(#b)">
            <path
                d="M213.353 115.022c0-14.134-17.7-27.528-44.836-35.835 6.262-27.658 3.479-49.663-8.785-56.708-2.827-1.653-6.132-2.435-9.741-2.435v9.697c2 0 3.609.392 4.957 1.131 5.915 3.392 8.481 16.308 6.48 32.92-.478 4.088-1.261 8.394-2.218 12.786-8.523-2.087-17.83-3.696-27.615-4.74-5.871-8.045-11.959-15.351-18.091-21.744 14.177-13.177 27.485-20.396 36.53-20.396V20c-11.959 0-27.615 8.524-43.444 23.31-15.83-14.7-31.486-23.136-43.445-23.136v9.698c9.002 0 22.353 7.175 36.53 20.265a205.396 205.396 0 0 0-17.96 21.7c-9.829 1.045-19.136 2.654-27.66 4.785-1-4.35-1.739-8.567-2.26-12.612-2.044-16.612.478-29.528 6.349-32.964 1.304-.783 3-1.13 5-1.13v-9.699c-3.652 0-6.957.783-9.828 2.436-12.22 7.045-14.96 29.006-8.654 56.578C17.612 87.58 0 100.932 0 115.022c0 14.133 17.7 27.528 44.836 35.834-6.262 27.659-3.479 49.664 8.785 56.709 2.827 1.652 6.132 2.435 9.785 2.435 11.96 0 27.615-8.524 43.445-23.31 15.829 14.699 31.485 23.136 43.444 23.136 3.653 0 6.958-.783 9.829-2.435 12.22-7.045 14.96-29.007 8.654-56.578 26.962-8.307 44.575-21.701 44.575-35.791Zm-56.622-29.007c-1.609 5.61-3.609 11.394-5.87 17.178-1.783-3.48-3.653-6.958-5.697-10.437-2.001-3.48-4.132-6.871-6.263-10.177 6.176.914 12.134 2.045 17.83 3.436Zm-19.917 46.315c-3.392 5.871-6.871 11.437-10.481 16.613-6.479.565-13.046.869-19.656.869-6.567 0-13.134-.304-19.57-.826a239.807 239.807 0 0 1-10.524-16.525 226.419 226.419 0 0 1-9.046-17.309c2.697-5.827 5.74-11.655 9.002-17.352 3.392-5.87 6.871-11.437 10.48-16.612 6.48-.565 13.047-.87 19.658-.87 6.566 0 13.133.305 19.569.826A239.52 239.52 0 0 1 136.77 97.67a226.399 226.399 0 0 1 9.046 17.308 243.324 243.324 0 0 1-9.002 17.352Zm14.047-5.653a186.504 186.504 0 0 1 6.001 17.308 194.953 194.953 0 0 1-17.917 3.479c2.131-3.349 4.262-6.784 6.262-10.307 2.001-3.479 3.871-7.001 5.654-10.48Zm-44.097 46.402c-4.045-4.175-8.09-8.829-12.09-13.917 3.914.174 7.915.305 11.959.305 4.088 0 8.132-.087 12.09-.305a169.992 169.992 0 0 1-11.959 13.917Zm-32.356-25.615c-6.175-.913-12.133-2.044-17.83-3.436 1.61-5.61 3.61-11.394 5.871-17.177 1.783 3.479 3.653 6.958 5.697 10.437a288.083 288.083 0 0 0 6.262 10.176Zm32.138-90.499c4.045 4.175 8.089 8.828 12.09 13.916-3.914-.174-7.915-.304-11.959-.304-4.088 0-8.133.087-12.09.304a169.713 169.713 0 0 1 11.959-13.916ZM74.365 82.579c-2.131 3.35-4.262 6.785-6.262 10.307-2 3.48-3.87 6.958-5.654 10.437a186.324 186.324 0 0 1-6.001-17.308 211.236 211.236 0 0 1 17.917-3.436Zm-39.357 54.448c-15.395-6.567-25.354-15.178-25.354-22.005 0-6.828 9.96-15.482 25.354-22.005 3.74-1.61 7.828-3.044 12.046-4.393 2.48 8.524 5.74 17.396 9.785 26.485-4 9.045-7.219 17.873-9.654 26.354-4.306-1.349-8.394-2.827-12.177-4.436Zm23.397 62.144c-5.915-3.392-8.48-16.308-6.48-32.92.478-4.088 1.261-8.393 2.218-12.786 8.523 2.088 17.83 3.697 27.615 4.741 5.87 8.045 11.96 15.351 18.09 21.744-14.176 13.177-27.484 20.396-36.53 20.396-1.956-.044-3.609-.435-4.913-1.175Zm103.154-33.138c2.044 16.613-.479 29.529-6.35 32.964-1.304.783-3 1.131-5.001 1.131-9.002 0-22.353-7.175-36.53-20.265a205.394 205.394 0 0 0 17.961-21.701c9.828-1.044 19.135-2.653 27.658-4.784 1.001 4.393 1.783 8.611 2.262 12.655Zm16.743-29.006c-3.74 1.609-7.828 3.044-12.047 4.392-2.478-8.524-5.74-17.395-9.784-26.484 4-9.046 7.219-17.874 9.654-26.354 4.305 1.348 8.393 2.827 12.22 4.436 15.395 6.566 25.354 15.177 25.354 22.005-.044 6.827-10.003 15.482-25.397 22.005Z" />
            <path
                d="M106.633 134.896c10.976 0 19.874-8.898 19.874-19.874 0-10.976-8.898-19.874-19.874-19.874-10.976 0-19.874 8.898-19.874 19.874 0 10.976 8.898 19.874 19.874 19.874Z" />
        </g>
        <path
            d="M264.3 169.944h22.172v-38.619h17.988l19.75 38.619h25.109L327 128.021c6.02-2.349 10.719-6.24 14.096-11.673 3.377-5.433 5.066-11.576 5.066-18.428v-.147c0-7-1.493-13.02-4.479-18.061-2.985-5.042-7.317-8.909-12.995-11.6C323.059 65.37 316.256 64 308.278 64H264.3v105.944Zm22.172-54.991V81.327h19.089c5.531 0 9.887 1.517 13.069 4.552 3.23 3.034 4.846 7.097 4.846 12.187v.147c0 5.237-1.567 9.349-4.699 12.335-3.084 2.936-7.391 4.405-12.922 4.405h-19.383ZM395.831 171.632c5.776 0 10.793-.734 15.051-2.202 4.308-1.518 7.905-3.476 10.793-5.874 2.937-2.447 5.237-5.066 6.901-7.856 1.713-2.839 2.888-5.604 3.524-8.296l.147-.734h-19.823l-.22.44c-.49 1.175-1.42 2.423-2.79 3.745-1.322 1.321-3.084 2.447-5.286 3.377-2.154.93-4.773 1.395-7.856 1.395-3.818 0-7.122-.832-9.912-2.496-2.741-1.713-4.845-4.161-6.314-7.342-1.468-3.182-2.202-7-2.202-11.454v-8.516c0-4.601.734-8.517 2.202-11.747 1.518-3.231 3.598-5.678 6.241-7.342 2.643-1.664 5.653-2.496 9.03-2.496 3.427 0 6.412.807 8.958 2.422 2.594 1.616 4.625 4.038 6.093 7.269 1.469 3.181 2.203 7.146 2.203 11.894v8.443l10.132-12.702h-55.432v13.51h65.637v-6.682c0-8.076-1.542-15.124-4.625-21.144-3.084-6.021-7.465-10.695-13.142-14.023-5.678-3.329-12.408-4.993-20.191-4.993-7.782 0-14.561 1.713-20.337 5.14-5.726 3.426-10.156 8.271-13.289 14.537-3.132 6.216-4.698 13.582-4.698 22.099v.073c0 8.517 1.566 15.883 4.698 22.099 3.182 6.216 7.685 11.013 13.51 14.39 5.873 3.378 12.872 5.066 20.997 5.066ZM469.068 171.192c3.475 0 6.706-.49 9.692-1.469 2.985-.979 5.628-2.398 7.929-4.258 2.3-1.86 4.136-4.062 5.506-6.608h1.028v11.087h21.218v-54.698c0-5.579-1.346-10.376-4.038-14.39-2.643-4.062-6.461-7.17-11.453-9.324-4.993-2.203-10.989-3.304-17.988-3.304-6.852 0-12.824 1.028-17.914 3.084-5.042 2.007-9.031 4.821-11.967 8.443-2.937 3.573-4.65 7.758-5.14 12.555l-.073.807h19.75l.073-.44c.734-2.496 2.3-4.454 4.699-5.874 2.398-1.419 5.555-2.129 9.471-2.129 4.356 0 7.66.979 9.911 2.937 2.301 1.909 3.451 4.625 3.451 8.149v25.036c0 2.79-.759 5.311-2.276 7.562-1.468 2.203-3.499 3.965-6.094 5.287-2.545 1.272-5.457 1.908-8.736 1.908-3.671 0-6.682-.856-9.031-2.569-2.3-1.713-3.451-4.063-3.451-7.048v-.147c0-2.888 1.102-5.189 3.304-6.902 2.252-1.713 5.58-2.692 9.985-2.936l27.092-1.762v-13.142l-30.249 1.835c-9.985.587-17.669 2.961-23.053 7.122-5.385 4.111-8.077 9.764-8.077 16.959v.147c0 4.797 1.126 9.006 3.378 12.628 2.251 3.622 5.359 6.437 9.324 8.444 3.965 2.006 8.541 3.01 13.729 3.01ZM566.901 171.632c7.048 0 13.117-1.248 18.207-3.744 5.14-2.496 9.202-5.947 12.188-10.352 3.035-4.454 4.846-9.569 5.433-15.345l.073-.514-19.97.074-.073.367c-.881 4.062-2.643 7.195-5.286 9.397-2.594 2.203-6.069 3.304-10.426 3.304-3.72 0-6.901-.954-9.544-2.863-2.594-1.958-4.601-4.797-6.02-8.517-1.371-3.72-2.056-8.247-2.056-13.582v-.074c0-5.286.685-9.764 2.056-13.435 1.37-3.671 3.377-6.461 6.02-8.37 2.643-1.958 5.8-2.937 9.471-2.937 4.552 0 8.149 1.224 10.793 3.671 2.643 2.399 4.307 5.531 4.992 9.398l.073.367h19.897l.073-.367c-.538-5.874-2.3-11.038-5.286-15.492-2.937-4.503-6.999-8.027-12.187-10.572-5.189-2.545-11.356-3.818-18.502-3.818-8.223 0-15.271 1.664-21.145 4.993-5.824 3.28-10.303 8.002-13.435 14.17-3.084 6.167-4.626 13.607-4.626 22.319v.147c0 8.761 1.542 16.274 4.626 22.539 3.132 6.217 7.635 10.989 13.509 14.317 5.873 3.28 12.922 4.919 21.145 4.919ZM648.727 170.751c2.105 0 4.063-.098 5.874-.293 1.86-.147 3.426-.343 4.699-.588v-15.858l-2.643.293c-.832.049-1.836.074-3.01.074-3.525 0-6.119-.783-7.783-2.35-1.615-1.615-2.423-4.258-2.423-7.929v-38.031H659.3V89.917h-15.859V70.68h-21.658v19.236h-11.821v16.152h11.821v41.996c0 8.076 2.129 13.876 6.387 17.4 4.307 3.524 11.16 5.286 20.557 5.286Z" />
    </g>
    <defs>
        <clipPath id="a">
            <path fill="#fff" d="M0 0h659v220H0z" />
        </clipPath>
        <clipPath id="b">
            <path fill="#fff" d="M0 20h213.353v190H0z" />
        </clipPath>
    </defs>
</svg>