<svg xmlns="http://www.w3.org/2000/svg" width="172" height="220" fill="none">
    <path fill="currentColor" fill-rule="evenodd"
        d="M18.9 35H153.1A7.9 7.9 0 0 1 161 42.9V177.1a7.9 7.9 0 0 1-7.899 7.899H18.899A7.9 7.9 0 0 1 11 177.101V42.899A7.9 7.9 0 0 1 18.9 35Zm13.432 20.862c28.785 0 55.834 11.195 76.162 31.524 20.329 20.329 31.525 47.378 31.525 76.163H118.84c0-23.128-8.993-44.858-25.322-61.187-16.328-16.328-38.058-25.32-61.186-25.32v-21.18Zm-.22 35.84v21.18c27.938 0 50.667 22.729 50.667 50.668h21.18c0-39.617-32.23-71.848-71.847-71.848ZM62.32 148.97c0 8.377-6.791 15.169-15.17 15.169-8.377 0-15.169-6.792-15.169-15.169 0-8.378 6.792-15.17 15.17-15.17 8.377 0 15.17 6.792 15.17 15.17Z"
        clip-rule="evenodd" />
</svg>