<svg xmlns="http://www.w3.org/2000/svg" width="254" height="221" fill="none">
    <path fill="currentColor"
        d="M218.147 125.186c-8.839.046-16.52 2.175-22.952 5.321-2.36-4.673-4.72-8.838-5.137-11.892-.462-3.563-1.018-5.738-.462-9.995.555-4.257 3.054-10.319 3.007-10.782-.046-.462-.555-2.637-5.645-2.684-5.09-.046-9.486.972-9.995 2.314-.509 1.342-1.481 4.396-2.129 7.543-.879 4.627-10.18 21.147-15.501 29.8-1.713-3.378-3.193-6.34-3.517-8.7-.463-3.563-1.018-5.737-.463-9.995.555-4.257 3.054-10.319 3.008-10.781-.046-.463-.555-2.638-5.646-2.684-5.09-.047-9.486.971-9.995 2.313-.509 1.342-1.064 4.489-2.128 7.543-1.065 3.054-13.42 30.633-16.659 37.759a213.366 213.366 0 0 1-4.118 8.561s-.046.139-.185.37c-.879 1.712-1.388 2.638-1.388 2.638v.046c-.695 1.249-1.435 2.406-1.805 2.406-.278 0-.787-3.331.092-7.866 1.851-9.579 6.247-24.479 6.201-24.988 0-.278.833-2.869-2.869-4.211-3.609-1.342-4.905.879-5.229.879-.324 0-.555.787-.555.787s4.026-16.751-7.682-16.751c-7.31 0-17.398 8.005-22.396 15.224a6270.48 6270.48 0 0 0-17.029 9.301c-2.73 1.527-5.553 3.054-8.19 4.488-.185-.185-.37-.416-.556-.601-14.16-15.132-40.35-25.821-39.24-46.135.417-7.404 2.962-26.839 50.3-50.438 38.962-19.204 69.966-13.883 75.334-2.083 7.681 16.844-16.613 48.125-56.87 52.66-15.364 1.712-23.415-4.211-25.451-6.432-2.129-2.314-2.453-2.453-3.24-1.99-1.295.694-.462 2.776 0 3.98 1.203 3.146 6.155 8.699 14.53 11.429 7.404 2.406 25.405 3.748 47.2-4.674 24.386-9.44 43.451-35.677 37.852-57.657-5.6-22.304-42.619-29.661-77.648-17.213-20.823 7.403-43.405 19.064-59.647 34.242C2.048 74.285-1.006 89.972.244 96.543c4.488 23.322 36.648 38.499 49.512 49.744-.647.37-1.249.694-1.758.972-6.432 3.192-30.957 16.01-37.065 29.569-6.941 15.362 1.11 26.376 6.432 27.856 16.52 4.581 33.502-3.655 42.618-17.26 9.116-13.604 8.005-31.281 3.794-39.379-.046-.092-.092-.185-.185-.277 1.666-.972 3.378-1.99 5.044-2.962a247.07 247.07 0 0 1 9.301-5.229c-1.573 4.304-2.73 9.44-3.285 16.844-.694 8.699 2.869 19.99 7.542 24.432 2.083 1.944 4.535 1.99 6.108 1.99 5.46 0 7.913-4.535 10.643-9.902 3.332-6.571 6.34-14.207 6.34-14.207s-3.748 20.639 6.432 20.639c3.702 0 7.45-4.813 9.116-7.265v.046s.092-.139.278-.463c.37-.601.601-.972.601-.972v-.092c1.481-2.592 4.813-8.468 9.764-18.232 6.386-12.587 12.54-28.32 12.54-28.32s.555 3.841 2.453 10.227c1.11 3.748 3.424 7.866 5.275 11.846-1.481 2.082-2.406 3.239-2.406 3.239l.046.046c-1.203 1.574-2.499 3.286-3.933 4.952-5.044 6.015-11.06 12.91-11.893 14.9-.972 2.36-.74 4.072 1.111 5.46 1.342 1.018 3.748 1.157 6.2 1.018 4.535-.324 7.728-1.434 9.301-2.128 2.453-.88 5.322-2.222 8.006-4.211 4.951-3.656 7.959-8.885 7.681-15.78-.139-3.794-1.388-7.589-2.915-11.152.463-.647.879-1.295 1.342-1.943 7.82-11.43 13.882-23.97 13.882-23.97s.555 3.841 2.453 10.227c.925 3.239 2.822 6.756 4.488 10.18-7.357 5.969-11.892 12.91-13.512 17.445-2.915 8.422-.648 12.216 3.656 13.095 1.943.417 4.72-.509 6.756-1.388 2.591-.833 5.645-2.267 8.56-4.396 4.952-3.655 9.718-8.745 9.44-15.64-.139-3.147-.971-6.247-2.128-9.255 6.247-2.591 14.298-4.026 24.571-2.823 22.026 2.592 26.376 16.335 25.543 22.119-.833 5.784-5.46 8.931-6.987 9.903-1.527.971-2.036 1.295-1.897 1.989.185 1.019.925.972 2.221.787 1.804-.324 11.568-4.674 11.985-15.316.694-13.605-12.263-28.459-35.168-28.32ZM48.229 182.473c-7.31 7.959-17.491 10.967-21.887 8.422-4.72-2.73-2.87-14.484 6.108-22.906 5.46-5.136 12.494-9.902 17.168-12.818 1.064-.647 2.637-1.573 4.534-2.73.324-.185.51-.277.51-.277l1.11-.695c3.285 12.032.139 22.628-7.543 31.004Zm53.215-36.186c-2.545 6.201-7.866 22.072-11.106 21.193-2.776-.74-4.488-12.771-.555-24.664 1.99-5.969 6.2-13.095 8.653-15.872 3.98-4.442 8.376-5.923 9.44-4.118 1.342 2.36-4.859 19.574-6.432 23.461Zm43.914 21.008c-1.064.555-2.082.926-2.545.648-.324-.185.463-.926.463-.926s5.506-5.923 7.681-8.606c1.249-1.574 2.73-3.425 4.304-5.507v.602c0 7.079-6.849 11.846-9.903 13.789Zm33.872-7.728c-.786-.555-.647-2.406 1.99-8.19 1.018-2.267 3.424-6.062 7.543-9.718.462 1.481.786 2.916.74 4.258-.046 8.93-6.432 12.262-10.273 13.65Z" />
</svg>