<svg xmlns="http://www.w3.org/2000/svg" width="163" height="49" fill="none">
    <path fill="#362D59"
        d="M29.94 10.318a3.408 3.408 0 0 0-5.838 0L19.3 18.542a23.505 23.505 0 0 1 12.953 19.455H28.88A20.2 20.2 0 0 0 17.6 21.417l-4.444 7.684a11.617 11.617 0 0 1 6.735 8.881H12.15a.554.554 0 0 1-.453-.81l2.146-3.648a7.835 7.835 0 0 0-2.452-1.387l-2.124 3.649a3.313 3.313 0 0 0 1.234 4.553 3.4 3.4 0 0 0 1.649.438h10.603a14.157 14.157 0 0 0-5.838-12.631l1.686-2.92a17.42 17.42 0 0 1 7.516 15.551h8.983a26.183 26.183 0 0 0-11.975-23.205l3.408-5.838a.562.562 0 0 1 .766-.197c.387.211 14.806 25.373 15.076 25.665a.555.555 0 0 1-.496.824h-3.474c.044.93.044 1.856 0 2.78h3.488a3.348 3.348 0 0 0 3.372-3.364c0-.585-.156-1.16-.453-1.663L29.94 10.319Zm69.557 18.988-10.77-13.909H86.04v18.645h2.722V19.754L99.84 34.042h2.379V15.397h-2.722v13.909Zm-27.124-3.46h9.655v-2.422h-9.662v-5.611h10.895V15.39H69.593v18.652H83.4v-2.423H72.366l.007-5.772ZM61.02 23.484c-3.758-.905-4.81-1.62-4.81-3.357 0-1.562 1.38-2.62 3.438-2.62a8.8 8.8 0 0 1 5.159 1.86l1.46-2.064a10.289 10.289 0 0 0-6.568-2.19c-3.693 0-6.268 2.19-6.268 5.306 0 3.357 2.189 4.517 6.173 5.487 3.547.818 4.634 1.576 4.634 3.277 0 1.7-1.46 2.75-3.714 2.75a9.005 9.005 0 0 1-6.057-2.378l-1.642 1.963a11.632 11.632 0 0 0 7.604 2.81c3.999 0 6.567-2.153 6.567-5.48-.022-2.818-1.685-4.328-5.976-5.364Zm90.567-8.086-5.612 8.757-5.575-8.757h-3.255l7.363 11.275v7.377h2.802v-7.465l7.414-11.187h-3.137Zm-47.163 2.525h6.108v16.127h2.802V17.922h6.108v-2.525H104.43l-.007 2.525Zm27.978 8.844c2.817-.78 4.378-2.75 4.378-5.567 0-3.583-2.619-5.838-6.845-5.838h-8.289v18.673h2.773v-6.698h4.706l4.729 6.713h3.24l-5.108-7.166.416-.117Zm-7.991-1.824v-7.078h5.233c2.729 0 4.29 1.291 4.29 3.532 0 2.24-1.671 3.546-4.261 3.546h-5.262Z" />
</svg>