<svg xmlns="http://www.w3.org/2000/svg" width="663" height="220" fill="none">
    <g fill="currentColor" clip-path="url(#a)">
        <path
            d="M229.369 120.655c-5.645-3.13-8.616-5.663-8.616-9.239 0-4.62 4.01-7.451 10.398-7.451 7.428 0 13.964 3.129 13.964 3.129l5.2-15.945s-4.754-3.725-18.867-3.725c-19.609 0-33.276 11.325-33.276 27.121 0 8.941 6.388 15.796 14.856 20.714 6.833 3.874 9.21 6.706 9.21 10.729 0 4.322-3.417 7.749-9.805 7.749-9.507 0-18.42-4.917-18.42-4.917l-5.497 15.945s8.319 5.513 22.135 5.513c20.203 0 34.613-9.984 34.613-27.866.297-9.836-7.131-16.69-15.895-21.757ZM309.885 87.126c-9.953 0-17.678 4.768-23.769 11.921l-.297-.149 8.616-45.302h-22.58l-21.837 115.192h22.431l7.428-39.341c2.971-14.902 10.547-23.992 17.678-23.992 5.051 0 6.982 3.427 6.982 8.345 0 3.129-.297 6.855-1.04 9.984l-8.467 45.153h22.431l8.765-46.494c1.04-4.918 1.634-10.729 1.634-14.753.297-12.965-6.239-20.564-17.975-20.564ZM378.963 87.126c-27.037 0-45.012 24.439-45.012 51.709 0 17.436 10.696 31.592 30.9 31.592 26.591 0 44.417-23.843 44.417-51.709.149-16.243-9.21-31.593-30.305-31.593Zm-10.993 65.866c-7.725 0-10.844-6.557-10.844-14.753 0-12.965 6.685-33.976 18.866-33.976 8.022 0 10.548 6.855 10.548 13.561 0 14.007-6.685 35.168-18.57 35.168ZM466.908 87.126c-15.153 0-23.769 13.411-23.769 13.411h-.297l1.337-12.07h-19.906c-1.04 8.196-2.823 20.564-4.605 29.953l-15.599 82.258h22.432l6.239-33.38h.446s4.605 2.98 13.221 2.98c26.443 0 43.676-27.121 43.676-54.541 0-15.051-6.685-28.611-23.175-28.611Zm-21.392 66.313c-5.794 0-9.21-3.278-9.21-3.278l3.714-21.012c2.674-14.008 9.953-23.396 17.678-23.396 6.833 0 8.913 6.408 8.913 12.369 0 14.454-8.616 35.317-21.095 35.317ZM522.17 54.788c-7.13 0-12.924 5.663-12.924 13.114 0 6.706 4.16 11.326 10.547 11.326h.298c6.982 0 13.072-4.77 13.221-13.114.149-6.706-4.308-11.326-11.142-11.326ZM490.676 168.788h22.581l15.301-79.874h-22.729l-15.153 79.874ZM585.603 88.765h-15.598l.743-3.726c1.337-7.749 5.793-14.604 13.37-14.604 4.011 0 7.13 1.192 7.13 1.192l4.457-17.584s-3.862-1.937-12.181-1.937c-8.022 0-15.896 2.235-21.987 7.45-7.724 6.558-11.29 15.946-13.072 25.483l-.595 3.726h-10.398l-3.269 16.988h10.399l-11.884 63.035h22.432l11.884-63.035h15.45l3.119-16.988ZM639.677 88.914s-14.113 35.466-20.352 54.839h-.297c-.446-6.259-5.497-54.84-5.497-54.84h-23.62l13.519 73.318c.297 1.64.148 2.683-.446 3.726-2.674 5.067-6.982 9.984-12.182 13.561-4.159 3.129-8.913 5.066-12.627 6.408l6.24 19.074c4.605-1.043 13.964-4.769 21.986-12.22 10.25-9.686 19.757-24.439 29.414-44.705l27.482-59.161h-23.62ZM111.119 37.055s-2.08.596-5.496 1.64c-.595-1.938-1.486-4.173-2.674-6.558-3.863-7.45-9.656-11.474-16.49-11.474-.446 0-.891 0-1.486.149-.148-.298-.445-.447-.594-.745-2.97-3.279-6.833-4.769-11.439-4.62-8.913.298-17.826 6.706-24.957 18.18-5.05 8.047-8.913 18.18-9.953 26.079-10.25 3.13-17.38 5.365-17.53 5.514-5.199 1.639-5.347 1.788-5.941 6.706C14.113 75.65.446 180.56.446 180.56l112.307 19.521V36.906c-.891 0-1.337.149-1.634.149Zm-25.997 8.047c-5.942 1.788-12.479 3.875-18.866 5.812 1.782-7.004 5.347-14.008 9.507-18.628 1.634-1.639 3.862-3.576 6.388-4.768 2.525 5.364 3.12 12.666 2.971 17.584ZM72.941 21.557c2.08 0 3.862.447 5.347 1.341-2.376 1.192-4.753 3.13-6.982 5.365C65.661 34.373 61.353 43.91 59.571 53a7218.803 7218.803 0 0 1-15.599 4.769c3.269-14.306 15.301-35.914 28.968-36.212Zm-17.233 81.961c.594 9.537 25.7 11.623 27.186 34.125 1.04 17.734-9.36 29.804-24.363 30.698-18.124 1.192-28.077-9.537-28.077-9.537l3.862-16.392s9.953 7.6 17.975 7.004c5.2-.298 7.131-4.62 6.983-7.6-.743-12.518-21.244-11.773-22.58-32.338-1.19-17.286 10.1-34.721 35.058-36.36 9.656-.596 14.559 1.788 14.559 1.788l-5.646 21.459s-6.388-2.98-13.964-2.385c-10.993.745-11.141 7.749-10.993 9.538Zm35.356-60.204c0-4.47-.594-10.879-2.674-16.243 6.834 1.34 10.102 8.94 11.588 13.56-2.674.745-5.646 1.64-8.914 2.683ZM116.17 199.784l46.646-11.623s-20.055-136.055-20.203-136.95c-.149-.893-.892-1.49-1.634-1.49-.743 0-13.816-.297-13.816-.297s-8.022-7.75-10.993-10.73v161.09Z" />
    </g>
    <defs>
        <clipPath id="a">
            <path fill="#fff" d="M0 15h663v190H0z" />
        </clipPath>
    </defs>
</svg>