<svg xmlns="http://www.w3.org/2000/svg" width="683" height="199" fill="none">
    <g clip-path="url(#a)">
        <path fill="#222"
            d="M5.958 126.662a33.778 33.778 0 0 0 22.8 9.57c9.57 0 17.45-5.629 17.45-15.199 0-21.955-43.628-16.607-43.628-43.628 0-12.667 11.26-23.363 27.303-23.363a33.777 33.777 0 0 1 23.362 8.445l-4.222 7.318a29.217 29.217 0 0 0-19.14-7.6c-11.259 0-18.296 7.318-18.577 14.918 0 20.829 43.628 14.918 43.628 43.628 0 12.948-10.133 23.644-26.458 23.644A37.612 37.612 0 0 1 .892 133.136l5.066-6.474ZM144.16 54.605a44.274 44.274 0 0 1 44.473 44.754 45.036 45.036 0 0 1-44.473 45.599h-.281a45.035 45.035 0 0 1-44.472-45.599v-.281a44.279 44.279 0 0 1 27.617-41.222 44.276 44.276 0 0 1 17.136-3.25Zm-.281 82.471a36.588 36.588 0 0 0 35.747-37.407v-.31c0-20.829-15.763-36.872-35.466-36.872a35.799 35.799 0 0 0-33.256 22.66 35.795 35.795 0 0 0-2.49 13.93c0 21.393 15.762 37.718 35.465 37.999Zm95.419-80.782h8.444l-.282 79.657h40.532v7.599h-49.257l.563-87.256Zm95.418.282h8.444l-.281 87.537h-8.444l.281-87.537Zm65.301 0h28.148c26.176 0 43.909 16.044 43.909 43.909 0 27.866-17.733 43.628-43.909 43.628h-28.148V56.576Zm27.022 79.937c21.392 0 35.747-12.666 36.028-36.028.282-23.362-14.355-36.028-35.747-36.028h-18.858l-.282 72.056h18.859Zm118.696 7.6a28.906 28.906 0 0 0 19.872-7.093 25.326 25.326 0 0 0 8.05-19.984V57.617h-17.592v58.124a11.817 11.817 0 0 1-2.815 8.444 10.169 10.169 0 0 1-7.796 3.012c-5.517 0-9.542-3.237-12.076-9.711l-14.861 8.303c4.879 12.216 13.97 18.324 27.274 18.324h-.056Zm105.439.197c9.767 0 17.423-2.42 22.912-7.29a24.3 24.3 0 0 0 8.247-19.112 19.953 19.953 0 0 0-7.037-15.959c-4.729-4.053-12.3-7.544-22.715-10.527a33.102 33.102 0 0 1-10.583-4.42 7.238 7.238 0 0 1-3.096-6.05 7.6 7.6 0 0 1 3.096-6.334 12.95 12.95 0 0 1 8.191-2.392 15.96 15.96 0 0 1 16.072 10.47l14.552-7.965a28.481 28.481 0 0 0-11.456-13.652 34.48 34.48 0 0 0-18.408-4.785 31.273 31.273 0 0 0-20.97 7.319 22.835 22.835 0 0 0-8.697 18.436 21.107 21.107 0 0 0 6.53 15.79c3.922 3.941 10.837 7.403 20.744 10.387a46.485 46.485 0 0 1 12.723 5.122 6.57 6.57 0 0 1 2.492 2.476 6.548 6.548 0 0 1 .857 3.407 7.706 7.706 0 0 1-3.631 6.502 15.87 15.87 0 0 1-9.288 2.562 19.708 19.708 0 0 1-18.577-11.907l-15.2 7.853a30.544 30.544 0 0 0 12.638 14.721 38.672 38.672 0 0 0 20.604 5.348Z" />
    </g>
    <defs>
        <clipPath id="a">
            <path fill="#fff" d="M.54 0h682v199H.54z" />
        </clipPath>
    </defs>
</svg>