<svg xmlns="http://www.w3.org/2000/svg" viewBox="256 239 256 239">
  <defs>
    <linearGradient id="logosSolidjsIcon0" x1="27.5" x2="152" y1="3" y2="63.5" gradientTransform="matrix(1.6 0 0 1.6 250 233)" gradientUnits="userSpaceOnUse">
      <stop offset=".1" stop-color="#76b3e1"/>
      <stop offset=".3" stop-color="#dcf2fd"/>
      <stop offset="1" stop-color="#76b3e1"/>
    </linearGradient>
    <linearGradient id="logosSolidjsIcon1" x1="95.8" x2="74" y1="32.6" y2="105.2" gradientTransform="matrix(1.6 0 0 1.6 250 233)" gradientUnits="userSpaceOnUse">
      <stop offset="0" stop-color="#76b3e1"/>
      <stop offset=".5" stop-color="#4377bb"/>
      <stop offset="1" stop-color="#1f3b77"/>
    </linearGradient>
    <linearGradient id="logosSolidjsIcon2" x1="18.4" x2="144.3" y1="64.2" y2="149.8" gradientTransform="matrix(1.6 0 0 1.6 250 233)" gradientUnits="userSpaceOnUse">
      <stop offset="0" stop-color="#315aa9"/>
      <stop offset=".5" stop-color="#518ac8"/>
      <stop offset="1" stop-color="#315aa9"/>
    </linearGradient>
    <linearGradient id="logosSolidjsIcon3" x1="75.2" x2="24.4" y1="74.5" y2="260.8" gradientTransform="matrix(1.6 0 0 1.6 250 233)" gradientUnits="userSpaceOnUse">
      <stop offset="0" stop-color="#4377bb"/>
      <stop offset=".5" stop-color="#1a336b"/>
      <stop offset="1" stop-color="#1a336b"/>
    </linearGradient>
  </defs>
  <path fill="#76b3e1" d="M512 289s-85-62-151-48l-5 2c-10 3-18 8-23 14l-3 5-24 42 42 8c17 11 40 16 61 11l74 15z"/>
  <path fill="url(#logosSolidjsIcon0)" d="M512 289s-85-62-151-48l-5 2c-10 3-18 8-23 14l-3 5-24 42 42 8c17 11 40 16 61 11l74 15z" opacity=".3"/>
  <path fill="#518ac8" d="m333 289-6 2c-28 8-36 34-21 56 16 21 50 33 77 25l100-34s-85-63-150-49"/>
  <path fill="url(#logosSolidjsIcon1)" d="m333 289-6 2c-28 8-36 34-21 56 16 21 50 33 77 25l100-34s-85-63-150-49" opacity=".3"/>
  <path fill="url(#logosSolidjsIcon2)" d="M465 362a72 72 0 0 0-77-24l-100 32-32 56 180 31 33-58c6-11 4-24-4-37"/>
  <path fill="url(#logosSolidjsIcon3)" d="M433 418a72 72 0 0 0-77-24l-100 32s85 65 151 49l5-2c28-8 37-34 21-55"/>
</svg>
