<svg xmlns="http://www.w3.org/2000/svg" fill="#FFFBF9" viewBox="0 0 85 65">
  <path fill="#E27152" d="M22.34 51.5a.3.3 0 0 0 .01-.3.29.29 0 0 0-.25-.15H5.27A5.27 5.27 0 0 1 0 45.77l.02-24.49c0-1.03.27-2.05.79-2.95L9.79 2.67A5.31 5.31 0 0 1 14.4 0h54.54a3.16 3.16 0 0 1 2.67 4.83l-5.86 9.38a.93.93 0 0 0 .78 1.42h13.3a4.65 4.65 0 0 1 4.64 4.64v23.5c0 2.62-.66 5.2-1.93 7.5-1.6 2.9-4.2 7-5.83 9.97A7.27 7.27 0 0 1 70.34 65H19.16a3.17 3.17 0 0 1-2.62-4.95l5.8-8.55Z"/>
  <path d="M30.22 49.04a3.3 3.3 0 0 0-2.69 1.4l-6.92 9.82a.95.95 0 0 0 .77 1.5h47.78c1.76 0 3.38-.94 4.26-2.47 1.25-2.17 3.4-5.33 4.68-7.57a1.8 1.8 0 0 0-1.56-2.68H30.22ZM16.75 35.35c-1.8 0-3.5.84-4.6 2.26L6.5 44.84a1.83 1.83 0 0 0 1.44 2.97h16.51a3.52 3.52 0 0 1 3.19-2.02h31.91c1.31 0 2.52-.68 3.2-1.8l4.35-7.08a1.13 1.13 0 0 0-.97-1.73l-49.38.17Z"/>
  <path d="M67.48 43.15a1.73 1.73 0 0 0 1.46 2.64h9.26a2.7 2.7 0 0 0 2.7-2.7V21.52a2.64 2.64 0 0 0-2.64-2.64h-43.2c-1.62 0-3.13.83-4 2.2-1.53 2.4-3.32 6.25-4.83 8.62a1.37 1.37 0 0 0 1.16 2.1H68.4a3.4 3.4 0 0 1 2.9 5.22l-3.83 6.14Z"/>
  <path d="M59.93 15.63c.36 0 .69-.18.88-.48l6.14-9.4a1.2 1.2 0 0 0-1-1.85H19.22a5.03 5.03 0 0 0-5.04 5.04v17.8a5.13 5.13 0 0 0 5.37 5.12h.66c.02-.14 5.33-9.31 8.26-13.8a5.36 5.36 0 0 1 4.49-2.43h26.97Z"/>
</svg>