<svg xmlns="http://www.w3.org/2000/svg" width="99" height="20" fill="currentColor">
    <path
        d="M6 11.819H0L10.97 0 8.016 8.183h6.002L3.048 20l2.953-8.181ZM25.016 13.157l2.23-1.292c.403.937 1.098 1.567 2.374 1.567 1.228 0 1.534-.485 1.534-.921 0-.695-.646-.97-2.342-1.438-1.68-.468-3.328-1.276-3.328-3.44 0-2.181 1.842-3.441 3.797-3.441 1.857 0 3.311.888 4.135 2.552l-2.18 1.276c-.388-.808-.921-1.308-1.955-1.308-.808 0-1.212.403-1.212.856 0 .517.275.872 2.036 1.405 1.712.517 3.634 1.115 3.634 3.505 0 2.181-1.744 3.473-4.2 3.473-2.375 0-3.893-1.13-4.523-2.794ZM37.778 9.975v2.859c0 .695.598.759 1.664.695v2.196c-3.166.324-4.087-.63-4.087-2.891v-2.86h-1.292V7.65h1.292V6.114l2.423-.727V7.65h1.664v2.326h-1.664ZM48.94 7.649v8.076h-2.423v-.759c-.533.614-1.325.985-2.407.985-2.116 0-3.861-1.857-3.861-4.264s1.745-4.265 3.86-4.265c1.083 0 1.875.372 2.408.986v-.76h2.423Zm-2.423 4.038c0-1.212-.808-1.97-1.922-1.97-1.115 0-1.922.758-1.922 1.97 0 1.211.807 1.97 1.922 1.97 1.114 0 1.922-.759 1.922-1.97ZM50.313 11.687c0-2.407 1.826-4.265 4.281-4.265 1.567 0 2.956.824 3.651 2.068l-2.116 1.227c-.275-.565-.857-.904-1.567-.904-1.05 0-1.825.76-1.825 1.874s.775 1.873 1.825 1.873c.71 0 1.308-.339 1.567-.904l2.116 1.211c-.694 1.26-2.067 2.084-3.65 2.084-2.456 0-4.282-1.857-4.282-4.264ZM64.222 15.725l-2.584-3.57v3.57h-2.424V4.418h2.424v6.768L64.06 7.65h2.826l-2.94 4.038 3.021 4.038h-2.746ZM76.338 12.414c0 2.003-1.631 3.311-3.65 3.311h-4.75V4.418h4.426c1.971 0 3.57 1.276 3.57 3.23 0 .938-.371 1.68-.985 2.214.84.533 1.39 1.405 1.39 2.552ZM70.523 6.84v2.003h1.841c.582 0 .986-.42.986-1.002 0-.581-.388-1-.986-1h-1.84V6.84Zm3.23 5.379c0-.63-.42-1.082-1.066-1.082h-2.164v2.164h2.164c.647 0 1.067-.452 1.067-1.082ZM77.55 3.933h2.423v11.792H77.55V3.933ZM81.508 5.484c0-.792.662-1.454 1.453-1.454.792 0 1.454.662 1.454 1.454 0 .791-.662 1.454-1.454 1.454a1.469 1.469 0 0 1-1.453-1.454Zm.242 2.165h2.423v8.076H81.75V7.65ZM89.019 9.975v2.859c0 .695.598.759 1.664.695v2.196c-3.166.324-4.087-.63-4.087-2.891v-2.86h-1.292V7.65h1.292V6.114l2.423-.727V7.65h1.664v2.326H89.02ZM98.275 13.464v2.261h-6.461V14.11l3.053-4.2h-2.892V7.649h6.139v1.615l-3.053 4.2h3.214Z" />
</svg>