<svg xmlns="http://www.w3.org/2000/svg" fill="#0AB3AF" viewBox="0 0 256 302">
  <path d="m244.5 0-.3.3c7.2 0 11.5 5.5 11.8 12.3v231.2c0 7-4.2 11.4-10.9 11.7H89.5l-42.4 45.8v-46H13c-6.9 0-12.7-4.2-13-11V13C0 6.1 5.6.3 12.6 0h.7zm-79 47H47.2v164.5h104.3c8 0 15.6-1.5 22.7-3.3a55.6 55.6 0 0 0 17.7-7.5l1.2-.7a35.5 35.5 0 0 0 12-12l.6-1h-.3c3-5.2 4.5-11.4 4.5-18.7 0-11.5-2.7-20.6-8-27.6a43.2 43.2 0 0 0-22.4-14.1 36.8 36.8 0 0 0 17.7-15.9 46 46 0 0 0 5.9-22 44 44 0 0 0-10-28.5 43 43 0 0 0-11.8-9.4c-4.4-2.5-9-3.6-14.5-3.8zm-16.9 92c3.4 0 6 1.6 8.3 4.4a16.4 16.4 0 0 1 3 10c0 4.1-1.3 7.5-3.6 9.7a14 14 0 0 1-8.4 3.6H89.6v-27.8zm-4.8-55.7a11.5 11.5 0 0 1 7.4 2.8c2 2 3.1 5 3.1 9.2 0 4.5-1 8-3.3 9.7l-.4.3a14.7 14.7 0 0 1-7.3 3H89.6v-25z"/>
</svg>
