<svg xmlns="http://www.w3.org/2000/svg" width="729" height="220" fill="none">
    <path fill="currentColor" fill-rule="evenodd"
        d="M157.381 43.972H51.696v52.942h52.002a3.355 3.355 0 0 1 3.356 3.353v51.239h53.682V47.331a3.351 3.351 0 0 0-3.355-3.36Z"
        clip-rule="evenodd" />
    <path fill="currentColor" fill-rule="evenodd"
        d="M51.69 43.972v52.942H2.111A1.681 1.681 0 0 1 .468 94.9a1.68 1.68 0 0 1 .466-.86L51.69 43.973Zm58.222 157.657a1.674 1.674 0 0 1-1.826.351 1.682 1.682 0 0 1-1.032-1.546v-48.928h53.682l-50.824 50.117v.006Z"
        clip-rule="evenodd" opacity=".405" />
    <path fill="currentColor"
        d="M51.69 96.914h53.688c.92 0 1.675.748 1.675 1.674v52.918H55.051a3.353 3.353 0 0 1-3.355-3.353V96.914h-.006Z"
        opacity=".405" />
    <path fill="currentColor" fill-rule="evenodd"
        d="M702.073 40.632c2.999 2.966 6.539 4.443 10.624 4.443 4.215 0 7.822-1.477 10.822-4.443 2.999-2.967 4.496-6.46 4.496-10.5 0-4.032-1.497-7.563-4.496-10.59A14.68 14.68 0 0 0 712.697 15c-4.085 0-7.625 1.514-10.624 4.535-3 3.034-4.497 6.559-4.497 10.604 0 4.033 1.497 7.526 4.497 10.493ZM376.578 79.318a.571.571 0 0 1-.57.564h-21.072v39.348c0 3.279.834 5.676 2.491 7.19 1.656 1.514 4.085 2.359 7.275 2.549 2.92.178 6.478.166 10.68-.03l.595-.031a.56.56 0 0 1 .55.341c.03.07.045.146.045.223v21.029a.562.562 0 0 1-.503.564l-.386.042c-16.502 1.735-28.176.123-35.009-4.829-6.957-5.044-10.429-14.06-10.429-27.048V79.882h-16.097a.564.564 0 0 1-.564-.564V56.99c0-.306.251-.564.564-.564h16.091v-15.61c0-.454.27-.859.681-1.042l23.225-10.095a.565.565 0 0 1 .797.515v26.232h21.066c.307 0 .564.251.564.564v22.328h.006Zm44.782-6.62c2.294-6.055 6.091-10.596 11.386-13.624a34.681 34.681 0 0 1 17.139-4.536.57.57 0 0 1 .571.57v25.65a.907.907 0 0 1-.634.872.92.92 0 0 1-.379.042c-7.122-.638-13.52.913-19.188 4.645-5.932 3.905-8.895 10.401-8.895 19.485v44.644a.561.561 0 0 1-.353.522.56.56 0 0 1-.218.041h-23.568a.563.563 0 0 1-.564-.563V56.984c0-.307.251-.564.564-.564h23.568c.307 0 .565.251.565.564v15.702l.006.013Zm116.775-16.272a.562.562 0 0 0-.57.564v10.603c-7.398-9.212-17.802-13.815-31.206-13.815-12.76 0-23.71 4.824-32.832 14.471-9.128 9.647-13.692 21.47-13.692 35.469 0 13.998 4.564 25.821 13.692 35.468 9.122 9.648 20.072 14.471 32.832 14.471 13.404 0 23.802-4.603 31.206-13.809v10.598c0 .306.258.563.57.563h23.563c.313 0 .57-.251.57-.563V56.984a.558.558 0 0 0-.352-.523.563.563 0 0 0-.218-.041h-23.563v.006Zm-46.131 66.586c4.975 4.922 11.288 7.379 18.956 7.379 7.656 0 14.005-2.494 19.047-7.477 5.043-4.977 7.558-11.376 7.558-19.196 0-7.82-2.515-14.22-7.558-19.203-5.042-4.976-11.391-7.47-19.053-7.47-7.656 0-13.975 2.494-18.956 7.477-4.969 4.976-7.465 11.375-7.465 19.196 0 7.82 2.49 14.25 7.471 19.294Zm180.047-54.763c-9.128-9.647-20.14-14.47-33.028-14.47-13.404 0-23.741 4.602-31.016 13.808V56.99a.567.567 0 0 0-.564-.564h-23.569a.564.564 0 0 0-.564.564v131.284c0 .312.251.57.564.57h23.569a.572.572 0 0 0 .564-.57v-48.426c7.275 9.206 17.612 13.809 31.016 13.809 12.888 0 23.9-4.823 33.028-14.471 9.122-9.647 13.686-21.47 13.686-35.468 0-13.999-4.564-25.822-13.686-35.469Zm-56.579 54.763c4.982 4.922 11.294 7.379 18.956 7.379 7.656 0 14.005-2.494 19.047-7.477 5.043-4.977 7.564-11.376 7.564-19.196 0-7.82-2.521-14.22-7.564-19.203-5.042-4.976-11.391-7.47-19.047-7.47-7.662 0-13.974 2.494-18.956 7.477-4.975 4.976-7.465 11.375-7.465 19.196 0 7.82 2.49 14.25 7.465 19.294Zm85.539 27.997a.565.565 0 0 1-.564-.563V56.984c0-.307.251-.564.564-.564h23.569c.313 0 .564.251.564.564v93.468a.56.56 0 0 1-.564.563h-23.569v-.006ZM260.65 89.437c-3.387-1.575-5.074-3.628-5.074-6.147 0-2.397 1.049-4.29 3.16-5.676 2.104-1.385 4.754-2.084 7.944-2.084 6.116 0 10.735 2.36 13.864 7.073a.813.813 0 0 0 1 .307l20.844-9.114a.57.57 0 0 0 .307-.341c.024-.075.032-.155.024-.233a.568.568 0 0 0-.073-.223c-.24-.4-.485-.796-.736-1.189-3.564-5.547-8.183-9.684-13.981-12.828-6.379-3.47-13.465-5.204-21.249-5.204-10.343 0-18.986 2.679-25.949 8.042-6.95 5.357-10.429 12.705-10.429 22.034 0 6.184 1.694 11.32 5.074 15.42a29.842 29.842 0 0 0 12.348 8.985 129.775 129.775 0 0 0 14.551 4.726c4.846 1.262 8.969 2.684 12.349 4.26 3.38 1.575 5.073 3.622 5.073 6.147 0 5.424-4.404 8.133-13.207 8.133-8.386 0-14.196-3.064-17.428-9.181a1.134 1.134 0 0 0-1.46-.533l-20.784 9.101a.556.556 0 0 0-.337.542c.004.076.022.15.055.218l.233.472c7.263 14.342 20.501 21.513 39.721 21.513 10.974 0 20.133-2.617 27.47-7.845 7.343-5.24 11.011-12.712 11.011-22.42 0-6.436-1.693-11.792-5.073-16.083a28.218 28.218 0 0 0-12.349-9.169 128.845 128.845 0 0 0-14.551-4.541c-4.852-1.202-8.968-2.587-12.348-4.168v.006Z"
        clip-rule="evenodd" />
</svg>