<svg xmlns="http://www.w3.org/2000/svg" width="822" height="220" fill="none">
    <path fill="#000"
        d="M273.281 157.922a38.14 38.14 0 0 1-21.715-6.125 31.44 31.44 0 0 1-12.662-16.793l13.184-4.859a24.384 24.384 0 0 0 8.626 10.446 22.737 22.737 0 0 0 13.09 3.846 19.214 19.214 0 0 0 12.472-3.766 13.14 13.14 0 0 0 3.603-4.847 13.136 13.136 0 0 0 1.05-5.948 11.768 11.768 0 0 0-1.282-5.46 16.318 16.318 0 0 0-2.897-4.115 19.562 19.562 0 0 0-5.001-3.308c-2.248-1.124-4.099-1.979-5.587-2.564-1.488-.586-3.672-1.377-6.537-2.358-3.608-1.267-6.331-2.248-8.103-2.976a59.862 59.862 0 0 1-7.075-3.561 25.885 25.885 0 0 1-6.616-5.002 24.408 24.408 0 0 1-3.957-6.568 23.38 23.38 0 0 1 6.331-26.574c5.402-4.759 12.73-7.138 21.984-7.138 7.745 0 14.108 1.704 19.088 5.112a24.737 24.737 0 0 1 10.05 13.627l-12.946 4.321a15.156 15.156 0 0 0-6.331-6.948 21.056 21.056 0 0 0-10.969-2.596 16.935 16.935 0 0 0-10.588 2.96 9.933 9.933 0 0 0-3.83 8.373 8.729 8.729 0 0 0 2.959 6.473 20.585 20.585 0 0 0 6.205 4.178c2.152.903 5.444 2.106 9.844 3.64 2.691.998 4.748 1.726 5.999 2.232a145.99 145.99 0 0 1 5.729 2.485 40.817 40.817 0 0 1 5.809 3.166 54.4 54.4 0 0 1 4.748 3.846 20.364 20.364 0 0 1 4.115 4.922 26.977 26.977 0 0 1 2.422 6.078 27.582 27.582 0 0 1 1.013 7.613c0 8.821-3.013 15.722-9.038 20.702-6.025 4.98-13.754 7.476-23.187 7.486Zm86.449-1.582-32.367-94.442h15.1l21.446 65.81a104.972 104.972 0 0 1 2.975 10.794c.785-3.65 1.773-7.254 2.96-10.794l21.177-65.81h14.972l-32.24 94.41-14.023.032Zm74.848 0V61.898h58.561v13.216h-44.522v25.893h28.726v13.216h-28.726v28.806h47.482v13.216l-61.521.095Zm97.243 0V61.898h14.039v80.925h46.121v13.485l-60.16.032Zm113.023-80.926v80.894h-14.023V75.383H604.12V61.898h67.393v13.485l-26.669.031Zm55.712 80.926V61.898h58.561v13.216h-44.538v25.893h28.727v13.216h-28.727v28.806h47.482v13.216l-61.505.095ZM174.899 43.934c-16.461-23.551-48.97-30.531-72.474-15.558L61.148 54.68a47.325 47.325 0 0 0-21.399 31.654 49.905 49.905 0 0 0 4.906 32.035 47.383 47.383 0 0 0-7.074 17.695 50.423 50.423 0 0 0 8.625 38.175c16.461 23.551 48.97 30.531 72.474 15.559l41.278-26.195a47.476 47.476 0 0 0 21.398-31.654 49.884 49.884 0 0 0-4.922-32.02 47.702 47.702 0 0 0 7.091-17.694 50.5 50.5 0 0 0-8.626-38.176" />
    <path fill="#fff"
        d="M98.39 176.519a32.804 32.804 0 0 1-35.2-13.057 30.296 30.296 0 0 1-5.176-22.95c.233-1.293.561-2.568.981-3.814l.776-2.374 2.12 1.582a53.47 53.47 0 0 0 16.097 8.009l1.582.459-.142 1.583a9.336 9.336 0 0 0 1.725 6.093 9.896 9.896 0 0 0 10.604 3.926 9.273 9.273 0 0 0 2.533-1.108l41.214-26.305a8.576 8.576 0 0 0 3.878-5.762 9.127 9.127 0 0 0-1.583-6.916 9.886 9.886 0 0 0-10.604-3.925 9.022 9.022 0 0 0-2.532 1.108l-15.828 10.05a30.245 30.245 0 0 1-8.372 3.672 32.794 32.794 0 0 1-35.137-13.042 30.325 30.325 0 0 1-5.144-22.95A28.489 28.489 0 0 1 73.05 71.712l41.341-26.305a30.143 30.143 0 0 1 8.325-3.672A32.78 32.78 0 0 1 157.9 54.79a30.304 30.304 0 0 1 5.191 22.95 31.834 31.834 0 0 1-.981 3.846l-.791 2.374-2.105-1.583a53.465 53.465 0 0 0-16.144-8.072l-1.583-.459.143-1.582a9.28 9.28 0 0 0-1.678-6.141 9.862 9.862 0 0 0-10.541-3.815 9.064 9.064 0 0 0-2.533 1.108L85.585 89.675a8.627 8.627 0 0 0-3.878 5.745 9.243 9.243 0 0 0 1.583 6.933 9.893 9.893 0 0 0 10.525 3.925 9.497 9.497 0 0 0 2.532-1.108l15.828-10.035a29.459 29.459 0 0 1 8.388-3.688 32.761 32.761 0 0 1 35.185 13.042 30.34 30.34 0 0 1 5.191 22.95 28.477 28.477 0 0 1-12.868 19.088l-41.293 26.305a30.359 30.359 0 0 1-8.389 3.687" />
</svg>