<svg xmlns="http://www.w3.org/2000/svg" width="902" height="220" fill="none">
    <g fill="currentColor" fill-rule="evenodd" clip-path="url(#a)" clip-rule="evenodd">
        <path
            d="M92.347 53.242c-24.75 0-40.215 12.357-46.406 37.07 9.282-12.356 20.11-16.99 32.483-13.902 7.06 1.761 12.108 6.876 17.69 12.54 9.101 9.222 19.634 19.894 42.635 19.894 24.747 0 40.215-12.357 46.402-37.067-9.278 12.357-20.106 16.99-32.479 13.899-7.063-1.761-12.112-6.876-17.695-12.536-9.1-9.23-19.629-19.898-42.63-19.898ZM45.94 108.844c-24.747 0-40.215 12.357-46.402 37.071 9.282-12.357 20.11-16.99 32.48-13.903 7.063 1.761 12.11 6.876 17.694 12.54 9.1 9.222 19.63 19.894 42.634 19.894 24.747 0 40.215-12.353 46.402-37.067-9.282 12.357-20.11 16.99-32.483 13.903-7.06-1.765-12.108-6.88-17.69-12.54-9.1-9.222-19.634-19.898-42.635-19.898ZM277.945 100.101h-16.196v31.301c0 8.349 5.485 8.217 16.196 7.695v12.653c-21.684 2.608-30.304-3.391-30.304-20.348v-31.301h-12.017V86.534h12.017V69.02l14.108-4.177v21.692h16.196v13.567Zm61.736-13.567h14.105v65.216h-14.105v-9.391c-4.964 6.91-12.671 11.086-22.859 11.086-17.763 0-32.523-14.999-32.523-34.305 0-19.43 14.76-34.3 32.523-34.3 10.188 0 17.895 4.172 22.859 10.957v-9.263Zm-20.637 53.476c11.756 0 20.637-8.74 20.637-20.87s-8.881-20.866-20.637-20.866c-11.755 0-20.636 8.74-20.636 20.866 0 12.13 8.881 20.87 20.636 20.87Zm58.252-63.256c-4.961 0-9.009-4.173-9.009-9a9.064 9.064 0 0 1 2.655-6.368 8.98 8.98 0 0 1 6.354-2.63 8.98 8.98 0 0 1 6.357 2.629 9.067 9.067 0 0 1 2.656 6.37c0 4.822-4.048 8.999-9.013 8.999Zm-7.052 74.996V86.534h14.108v65.216h-14.108Zm30.435 0V56.53h14.105v95.216h-14.105v.004Zm105.669-65.216h14.89l-20.506 65.216h-13.846l-13.585-43.955-13.715 43.955h-13.843l-20.51-65.216h14.89l12.672 44.996 13.716-44.996h13.453l13.581 44.996 12.803-44.996Zm32.392-9.78c-4.965 0-9.013-4.173-9.013-9a9.059 9.059 0 0 1 2.656-6.37 8.98 8.98 0 0 1 6.357-2.629 8.984 8.984 0 0 1 6.357 2.63 9.062 9.062 0 0 1 2.655 6.37c0 4.822-4.048 8.999-9.012 8.999Zm-7.053 74.996V86.534h14.105v65.216h-14.105Zm64.784-66.91c14.629 0 25.078 9.912 25.078 26.869v40.037h-14.105v-38.605c0-9.913-5.746-15.127-14.628-15.127-9.275 0-16.589 5.477-16.589 18.781v34.955h-14.108V86.534h14.108v8.35c4.31-6.782 11.362-10.045 20.244-10.045Zm91.953-24.39h14.109v91.296h-14.109v-9.39c-4.961 6.913-12.668 11.085-22.855 11.085-17.764 0-32.523-14.998-32.523-34.304 0-19.43 14.759-34.301 32.523-34.301 10.187 0 17.894 4.172 22.855 10.957V60.451Zm-20.637 79.56c11.756 0 20.637-8.74 20.637-20.87s-8.881-20.866-20.637-20.866c-11.755 0-20.636 8.74-20.636 20.866 0 12.13 8.881 20.87 20.636 20.87Zm82.028 13.435c-19.724 0-34.483-14.999-34.483-34.305 0-19.43 14.759-34.3 34.483-34.3 12.799 0 23.903 6.649 29.126 16.825l-12.148 7.044c-2.873-6.131-9.271-10.044-17.109-10.044-11.493 0-20.244 8.739-20.244 20.475 0 11.74 8.751 20.479 20.244 20.479 7.838 0 14.236-4.044 17.371-10.044l12.148 6.913c-5.485 10.303-16.589 16.953-29.388 16.953v.004Zm52.636-48.912c0 11.871 35.138 4.695 35.138 28.827 0 13.044-11.366 20.085-25.471 20.085-13.06 0-22.466-5.872-26.645-15.262l12.148-7.04c2.088 5.867 7.314 9.39 14.497 9.39 6.271 0 11.101-2.087 11.101-7.308 0-11.604-35.135-5.082-35.135-28.429 0-12.262 10.581-19.957 23.903-19.957 10.712 0 19.593 4.958 24.165 13.566l-11.886 6.65c-2.353-5.086-6.925-7.435-12.279-7.435-5.095 0-9.536 2.218-9.536 6.913Zm60.216 0c0 11.871 35.134 4.695 35.134 28.827 0 13.044-11.362 20.085-25.471 20.085-13.06 0-22.462-5.872-26.645-15.262l12.148-7.04c2.091 5.867 7.314 9.39 14.497 9.39 6.271 0 11.105-2.087 11.105-7.308 0-11.604-35.135-5.082-35.135-28.429 0-12.262 10.577-19.957 23.903-19.957 10.708 0 19.59 4.958 24.161 13.566l-11.886 6.65c-2.349-5.086-6.921-7.435-12.275-7.435-5.095 0-9.536 2.218-9.536 6.913Z" />
    </g>
    <defs>
        <clipPath id="a">
            <path fill="#fff" d="M0 0h902v220H0z" />
        </clipPath>
    </defs>
</svg>