<svg xmlns="http://www.w3.org/2000/svg" width="295" height="97">
    <path
        d="M66.9 51.7c1-.5 2.1-1.1 3.1-1.6.4-.2 1.8-.7 2-1.1.1-.2 0-.8 0-1.1v-2.4-17.1-16.7-2.2c0-.1.1-.8 0-.9-.1-.1-.9 0-1 0h-2.2c-.8 0-.7.1-1.2.7-1.9 2.5-3.8 5-5.7 7.6-.9 1.2-1.8 2.3-2.6 3.5-.6.8-.6.9-1.7.9l.3-6.6c.1-1.6.1-3.2.2-4.8 0-.6.1-1.2.1-1.8 0-.2-.1-.8 0-.9.2-.3 2-.1 2.5-.1h37.4c.2 0 1.1-.1 1.3 0 .2.1.1.7.1 1 .1 1.3.1 2.7.2 4 .1 2.9.2 5.7.4 8.6v.6c-.5 0-.9.1-1.3-.2-.4-.3-.7-.9-1-1.3-1.2-1.6-2.4-3.3-3.7-4.9l-3.6-4.8c-.2-.3-.5-1-.9-1.2-.3-.2-.9-.1-1.3-.1h-1.6c-.2 0-1-.1-1.2 0-.1.1 0 .1-.1.3-.2.8 0 1.8 0 2.6v34.8c0 .7-.2 1.7 0 2.4s1.8 1.2 2.5 1.5c.7.4 1.9.7 2.5 1.3.2.2.4 1.2.2 1.5-.1.1-.6 0-.7 0h-22c-.2 0-.9.1-1 0-.1-.4 0-1.2 0-1.5zm37.1-1.8V35.3 11.4 7.5c0-.6.2-1.5 0-2.1-.2-.7-1.4-.8-2.1-1.1-.4-.1-1.7-.4-1.9-.8v-.8h.3c.4-.2 1.2-.2 1.7-.3.9-.2 1.8-.3 2.6-.5 2-.4 4.1-.8 6.1-1.1 1.2-.2 2.4-.5 3.6-.7.3 0 1.5-.2 1.6 0 .1.1 0 .5 0 .6V21.4c3.8-3.8 10.4-5.9 15.7-4.6 4.6 1.1 6.1 5.4 6.1 9.8.1 5.6 0 11.1 0 16.7v4.5c0 .5-.2 1.7 0 2.2.1.2.5.3.7.5.7.4 1.5.8 2.2 1.2.1.1.4.2.4.3.1.1.1 1 0 1.1-.1.2-.1.1-.4.1-1.1.2-2.3 0-3.3 0H122.9c-.1 0-.6.1-.7 0-.1-.1-.1-1.2 0-1.3.3-.4 1.5-.8 1.9-1.1.3-.2 1.2-.5 1.4-.8.2-.3 0-1.4 0-1.7v-4.1c0-5.8.1-11.7 0-17.5 0-1.7-.3-3.7-2-4.6-.9-.5-2.1-.6-3.1-.6-.8 0-1.6.2-2.3.4-.6.2-1.7.6-2.1 1.1-.3.4-.1 1-.1 1.5V48.1c0 .5-.2 1.5 0 1.9.1.2.5.4.8.5.7.4 1.6.8 2.3 1.2.1.1.3.1.3.2.1.1.1 1 0 1.1-.1.1-.2.1-.4.1-1.1.1-2.3 0-3.4 0H101.1c-.1 0-.6.1-.7 0-.1-.1 0-1.1.1-1.3.3-.4 1.4-.8 1.8-1 .7-.3 1.2-.6 1.7-.9zm47.5-13.8c.2 4.4 1.6 9.3 5.6 11.7 2.1 1.2 4.7 1.6 7.1 1.4 2.9-.3 5.3-1.7 7.8-3 0 .4.1 1.1 0 1.5-.2.4-.7.9-1 1.2-.4.4-.9.9-1.4 1.3-1.7 1.4-3.6 2.4-5.6 3.1-3.8 1.3-8.2 1.2-12.1.2-3.1-.8-5.9-2.3-8-4.7-2.1-2.4-3.3-5.5-3.8-8.7-1.1-6.9.2-14.8 5.9-19.4 5-4 13-4.8 18.9-2.4 7.2 2.9 8.4 11.1 8.4 17.9h-19.1c-.9-.1-1.8-.1-2.7-.1zm-.2-1.7c2-.1 4-.2 6.1-.4 1.2-.1 2.5-.1 3.7-.2.2 0 .7 0 .9-.1.3-.2.1-2.2.1-2.6-.1-3.6-.2-8-2.3-11.1-1.5-2.2-3.8-1.8-5.2.2-2.9 3.9-3.3 9.7-3.3 14.2zM-.1 70.9c0-5.6 1.1-11.4 4.2-16.1 3-4.6 7.8-7.6 13-9.1 6.3-1.8 13.3-1.6 19.8-.4 1.4.3 2.8.6 4.1 1 .2.1 1.1.3 1.2.5v.3c.3 1.2.1 2.7.1 3.9.1 3.1.1 6.3.2 9.4-.4 0-1.1.1-1.4 0-.2-.1-.4-.6-.5-.8-.8-1.2-1.6-2.4-2.3-3.7-1.7-2.7-3.5-5.4-5.2-8.1-.9-1.5-3.4-1.5-5-1.5-1.8 0-3.6.3-5.1 1.2-3.4 2.1-5 6.2-5.9 9.9-1.4 5.9-1.3 12.1-1 18.1.3 4.6.7 9.5 2.5 13.7 1.1 2.6 3 4.9 5.9 5.5.9.2 1.8.2 2.8.1.6-.1 2.7-.2 3-.8.1-.2 0-.7 0-.9v-1.7-10.6-4.1c0-.7.2-1-.4-1.4-.7-.4-1.5-.8-2.2-1.3-.5-.3-1.5-.6-1.8-1-.2-.2-.3-1.3-.1-1.5.1-.2.1-.1.4-.1.9-.2 2.1 0 3 0h15.5c1 0 2.1-.1 3.1 0h.4c.1.1.1 1.5 0 1.7-.2.3-1.2.7-1.6.9-.7.4-1.5.8-2.2 1.3-.8.4-.7.4-.7 1.3v16.3c0 .2.1.7 0 .9-.2.5-2.3.8-2.9 1-1.7.5-3.5.9-5.3 1.2-3.5.6-7 .8-10.5.7-5.6-.2-11.5-1.4-16.1-4.8-4-2.9-6.6-7.3-7.8-12.1C.2 77-.1 73.9-.1 70.9zM46 61.8c0-.2-.1-1 0-1.1.1-.1.2 0 .3-.1.6-.3 1.4-.3 2.1-.4 2.3-.4 4.6-.8 7-1.2 1.8-.3 3.6-.7 5.3-.9.5-.1 1.1-.1 1.6.1.5.1.3 0 .4.4.2 1.2 0 2.6 0 3.8v20.9c0 2.5-.7 7.1 1.7 8.6 1.2.8 2.9.8 4.3.5 1.1-.2 3.2-1 3.6-2.2.1-.3 0-.7 0-1v-2.1-13.9-6.4-2.1c0-.2.1-.8 0-1-.3-.3-1.3-.6-1.6-.7-.6-.2-1.1-.5-1.7-.7-.2-.1-.9-.2-1-.4-.1-.1-.1-1 0-1.1.1-.1.1 0 .2-.1.5-.3 1.4-.2 1.9-.3 4.1-.7 8.3-1.6 12.5-2.2.5-.1 1-.1 1.5 0s.3-.1.4.4c.2 1 0 2.4 0 3.5v28.8c0 .3-.1.8 0 1.2.1.3 0 .2.5.4 1 .4 2.1.9 3.1 1.3.3.1.4.1.5.3.1.2.1.9 0 .9-.2.2-1.2.1-1.4.2-2.2.3-4.4.5-6.7.8-2 .2-4 .5-5.9.7-.4.1-.8.1-1.2 0-.2 0-.8 0-.9-.1-.1-.2 0-1 0-1.2v-1.7c0-.3.2-1.1 0-1.4-.2-.3-.6.1-.9.3-.8.7-1.7 1.4-2.6 1.9-3.3 2-7.4 2.9-11.2 2.1-2.8-.6-5.2-2.2-6.4-4.9-.9-1.9-1.1-4-1.1-6V73.8 67v-2.3c0-.2.1-.8 0-1-.2-.3-1.4-.6-1.7-.8-1-.4-1.8-.7-2.6-1.1zm94.3-3.8c.2 0 1.1 0 1.2.2.1.1 0 .8 0 .9v8.8c0 .3-.1.8 0 1.1v.2c.4.4.5-.9.6-1 .9-3.7 2.6-8 6.4-9.5.7-.3 1.4-.4 2.1-.5.6 0 2.3-.2 2.6.3.1.2 0 .7 0 .9V69.6c-2.4-.5-5.1-.4-7.4.1-1.1.2-2.1.5-3.1 1-.5.2-.6.1-.7.5-.1.4 0 1.1 0 1.5V92c0 .2-.1.5 0 .7.2.3.9.5 1.2.6.5.3 1.1.6 1.6.9.2.1.5.2.6.4.1.1.1 1.3 0 1.4-.1.1-.7 0-.9 0h-16.6c-.5 0-1.4.2-1.8 0h-.3c-.1-.1 0-1.2 0-1.3.2-.6 1.5-1 2.1-1.3.4-.2 1.2-.5 1.4-.9.1-.2 0-.8 0-1v-2.1-25.7c0-.1.1-.6 0-.7-.1-.1-.6-.2-.8-.2-.6-.2-1.2-.4-1.8-.5-.6-.2-2.1-.3-1.6-1.3.1-.3.5-.2.9-.3 4.4-.8 8.7-1.6 13.1-2.4.4-.2.8-.2 1.2-.3zm37.7.9v-8-2.3c0-.3.1-.9 0-1.2-.1-.2-.5-.3-.8-.4-.8-.3-1.6-.6-2.5-.9-.6-.2-.9-.1-.9-.8 0-.6-.1-.4.4-.5 1.1-.4 2.4-.4 3.5-.6 3.3-.6 6.5-1.2 9.8-1.8.7-.1 1.4-.3 2.1-.2.8.1.9-.1.9.6.1 1.6 0 3.3 0 4.9v43.8c0 .4-.1.4.2.6.6.4 1.6.6 2.2.8.4.1 1.5.3 1.7.6.1.1.1 1.2 0 1.3-.1.1-.7.1-.8.1-1.4.2-2.7.4-4.1.5-3.1.4-6.2.8-9.4 1.2-.5.1-1.7.3-1.9-.1-.2-.4 0-1.7 0-2.1 0-.3.2-1.6 0-1.8-.2-.2-2.4 1.8-2.7 2-1.2.8-2.5 1.4-3.9 1.8-2.2.6-4.7.6-6.9.1-9.6-2.2-11.6-13.6-10.8-21.9.4-4.4 1.8-8.8 4.8-12 2.8-2.9 6.6-4.4 10.5-4.7 3-.3 5.9-.1 8.6 1zm0 31.9V66.2v-4.6c0-.6-.1-.7-.8-1.1-1.4-.8-3.2-1.1-4.7-.5-2.3.9-3.4 3.6-4 5.8-1.2 4-1.3 8.3-1.2 12.5.1 3.6.2 8 2.2 11.2 1.8 2.8 5.9 3.5 8.5 1.3zM211.1 58c.5.1 1.1-.1 1.3.4.1.3 0 1 0 1.3V91c0 .4-.1 1 0 1.4.1.4.5.5.9.7.6.3 1.1.6 1.7.9.2.1.8.3.9.6 0 .1.1 1.3 0 1.4h-.3c-.6.1-1.4 0-2.1 0h-15.2c-.4 0-1.5.2-1.8 0-.2-.1-.3-1.3-.1-1.5.2-.3.9-.5 1.2-.6.6-.3 1.2-.7 1.8-1 .5-.3.4-.2.4-.6.2-1.5 0-3.2 0-4.7v-7.9-14.4c0-.4.1-1.1 0-1.5-.1-.4-.6-.4-1-.6-.7-.3-1.3-.5-2-.8-.2-.1-1-.2-1.2-.5-.1-.1-.1-1.1 0-1.2.1-.1.3 0 .4-.1.8-.3 1.7-.3 2.6-.5 1.3-.2 2.5-.5 3.8-.7 2.5-.4 4.9-.9 7.4-1.3.5.1.9 0 1.3-.1zm1.4-9.3c-.2 6-8.3 8.6-12 3.9-1.7-2.2-1.8-5.2-.3-7.5s4.4-3.3 7.1-2.7c3 .6 5.2 3.2 5.2 6.3zm43.8 43.9V68.5v-4.6c0-.1.1-.6 0-.7-.1-.2-.7-.3-.9-.3l-1.8-.6c-.3-.1-1.1-.2-1.3-.5-.2-.2-.1-.7-.1-1 0-.6.2-.5.8-.6l6.6-1.2 6.6-1.2c.4-.1.7-.2 1.1-.2.2 0 1.2 0 1.4.1.1.1 0 .7 0 .9v1.9c0 .3-.2 1.2 0 1.5.2.4.6 0 .9-.3.9-.7 1.8-1.3 2.8-1.8 3.6-2 7.9-2.9 12-2.3 2.8.4 5.1 1.9 6.1 4.6.7 1.9.8 3.9.8 5.9v22.8c0 .4-.1 1.1 0 1.5.1.4.4.5.9.7.5.3 1.1.6 1.6.9.2.1.9.3 1 .6.1.2.1 1.2 0 1.3-.1.2.1 0-.2.1-.4.2-1.3 0-1.8 0h-14.3c-.6 0-2.9.3-3.2-.1-.1-.1-.1-1.2 0-1.4.1-.2.7-.4.9-.5.6-.3 1.1-.6 1.7-.9.2-.1.8-.3.9-.5.1-.2 0-.6 0-.8v-2.2-7-13.5c0-1.6.1-3.4-.9-4.8-.8-1.2-2.2-1.5-3.6-1.6-1.1 0-2.1.1-3.1.4-.5.2-2 .6-2.3 1.2-.1.2 0 .6 0 .8V91c0 .3-.1 1 0 1.3.1.4.7.5 1 .7.5.3 1.1.6 1.6.9.2.1.6.3.7.4.1.1.1 1.3 0 1.4 0 .1-.1 0-.2 0-.4.2-1.4 0-1.8 0h-16.8c-.5 0-.6.1-.7-.2-.1-.2-.1-1.1 0-1.3.1-.2.7-.4.9-.5 1-.1 1.8-.6 2.7-1.1zm-21.2-18.4c0-2.6.1-5.3-.1-8-.3-2.9-1.1-6.1-4.4-6.7-1-.2-2.8-.5-3.5.3-.7.7-1.2 1.7-1.8 2.5l-5.1 6.9c-.3.4-.6 1.2-1 1.4-.1.1-1.1.1-1.1 0-.1-.1 0-.8 0-1v-8.1c0-.3-.1-.8 0-1.1.2-.5 2.4-.8 2.9-1 2.8-.7 5.7-1.2 8.6-1.4 4.1-.3 8.7-.2 12.5 1.6 3 1.4 4.9 3.9 5.4 7.1.3 1.6.2 3.4.2 5v20c0 .3-.2 1.1 0 1.3.1.1.6.2.7.2.8.2 1.5.4 2.3.6.5.1.6.1.6.6s.1.5-.5.7c-.7.3-1.4.6-2.1.8-3.7 1.1-9.5 1.4-12.2-2-.2-.3-.8-1.6-1.1-1.7-.4-.1-1.6 1.5-2 1.8-1.6 1.4-3.7 2.2-5.8 2.5-3.9.5-8.1-.3-10.5-3.7-2-2.9-2.4-7.4-.9-10.6 2.7-6.1 10.7-6.7 16.5-7.7.7 0 1.5-.2 2.4-.3zm0 16.6V76c-3 .2-6.1.4-7.2 3.7-.8 2.2-.8 4.8-.5 7.1.2 1.6.6 3.6 2.1 4.6 1.6 1.1 4.3.9 5.6-.6zM108.5 74.2c0-2.6.1-5.3-.1-8-.3-2.9-1.1-6.1-4.4-6.7-1-.2-2.8-.5-3.5.3-.7.7-1.2 1.7-1.8 2.5l-5.1 6.9c-.3.4-.6 1.2-1 1.4-.1.1-1.1.1-1.1 0-.1-.1 0-.8 0-1v-8c0-.3-.1-.8 0-1.1.2-.5 2.3-.8 2.9-1 2.8-.7 5.7-1.2 8.5-1.4 4.1-.3 8.7-.2 12.5 1.6 3 1.4 4.9 3.9 5.4 7.1.3 1.6.2 3.4.2 5v20c0 .3-.2 1.1 0 1.3.1.1.6.2.7.2.8.2 1.5.4 2.3.6.5.1.6.1.6.6s.1.5-.5.7c-.7.3-1.4.6-2.1.8-3.7 1.1-9.5 1.4-12.2-2-.2-.3-.8-1.6-1.1-1.7-.4-.1-1.6 1.5-1.9 1.8-1.6 1.4-3.7 2.2-5.8 2.5-3.9.5-8.1-.3-10.5-3.7-2-2.9-2.4-7.4-.9-10.6 2.7-6.1 10.7-6.7 16.4-7.7.8-.1 1.6-.3 2.5-.4zm0 16.6V76c-3 .2-6.1.4-7.2 3.7-.8 2.2-.8 4.8-.5 7.1.2 1.6.6 3.6 2.1 4.6 1.6 1.1 4.3.9 5.6-.6z"
        fill="currentColor" />
</svg>