<svg xmlns="http://www.w3.org/2000/svg" width="174" height="220" fill="none">
    <path fill="currentColor" fill-rule="evenodd"
        d="M16.837 35h140.327c3.142 0 5.689 2.518 5.689 5.625v138.75c0 3.107-2.547 5.625-5.689 5.625H16.837c-3.142 0-5.69-2.518-5.69-5.625V40.625c0-3.107 2.548-5.625 5.69-5.625Zm78.643 79.802V102.5H41.489v12.302h19.276v54.777h15.344v-54.777h19.37Zm6.117 53.33c2.475 1.248 5.402 2.184 8.78 2.807 3.379.624 6.94.936 10.683.936 3.649 0 7.114-.343 10.398-1.029 3.284-.686 6.162-1.817 8.637-3.392a17.402 17.402 0 0 0 5.877-6.175c1.443-2.542 2.165-5.684 2.165-9.426 0-2.713-.412-5.091-1.237-7.134a16.643 16.643 0 0 0-3.569-5.45c-1.554-1.591-3.418-3.017-5.592-4.28-2.173-1.263-4.623-2.456-7.351-3.579a93.25 93.25 0 0 1-5.378-2.362c-1.586-.764-2.935-1.544-4.045-2.339-1.11-.796-1.966-1.637-2.569-2.527-.603-.888-.904-1.894-.904-3.017 0-1.029.269-1.957.808-2.783.54-.827 1.301-1.536 2.284-2.129.984-.592 2.189-1.052 3.617-1.38 1.428-.327 3.014-.491 4.759-.491 1.269 0 2.609.094 4.021.281 1.412.187 2.831.476 4.259.865 1.428.39 2.816.881 4.164 1.474a23.152 23.152 0 0 1 3.735 2.058v-13.987c-2.316-.873-4.846-1.521-7.59-1.941-2.744-.421-5.893-.632-9.446-.632-3.616 0-7.043.382-10.279 1.146-3.235.764-6.083 1.957-8.541 3.579-2.459 1.622-4.402 3.688-5.83 6.198-1.428 2.511-2.141 5.512-2.141 9.005 0 4.46 1.308 8.265 3.926 11.415 2.617 3.15 6.591 5.816 11.92 7.999 2.094.842 4.045 1.669 5.854 2.48 1.808.81 3.37 1.653 4.687 2.526 1.316.873 2.355 1.824 3.117 2.853.761 1.029 1.142 2.199 1.142 3.509 0 .967-.238 1.863-.714 2.689-.476.827-1.198 1.544-2.165 2.152-.968.608-2.173 1.084-3.617 1.427-1.443.343-3.133.515-5.068.515-3.299 0-6.567-.569-9.803-1.707-3.235-1.139-6.234-2.846-8.994-5.123v14.969Z"
        clip-rule="evenodd" />
</svg>