<svg xmlns="http://www.w3.org/2000/svg" viewBox="0 0 261.835 289.66">
  <path d="M105.155 282.445c2.251 0 6.12-.733 9.169-5.614-1.745-3.861-2.985-11.684-3.155-14.527-.899-14.57 4.716-28.27 10.85-28.649 4.51-.27 8.115 3.99 8.528 10.894 1.105 18.154-4.937 25.72-7.958 32.268.513 2.53 4.802 6.832 8.849 6.832 1.51 0 3.306-.755 3.77-1.346-.307-1.047-.614-2.4-.614-4.36 0-10.516 6.761-19.38 12.625-19.38 4.66 0 7.36 6.149 7.36 10.217 0 4.802-4.06 8.714-10.06 12.476 1.055 1.047 3 1.795 4.66 1.795 8.563 0 13.052-10.366 16.365-19.835.606-1.796 1.675-4.353 3.762-4.353 3.612 0 5.123 23.74 11.115 23.74 2.55 0 4.644-5.273 4.644-9.313 0-3.006-1.047-3.306-1.047-7.666 0-4.81 2.566-8.842 6.02-8.842 2.11 0 2.857 2.08 2.857 4.638 0 9.605-6.917 27.495-17.12 27.495-7.673 0-7.075-13.224-9.768-13.224-3.02 0-7.231 13.366-22.086 13.366-2.416 0-4.973-1.197-7.06-3.605-3.606 2.408-6.62 3.463-10.075 3.463-5.55 0-7.959-5.707-10.203-5.707-2.714 0-5.707 5.85-14.734 5.85-7.217 0-8.407-9.605-10.965-9.605-2.259 0-5.7 9.604-9.454 9.604-6.327 0-7.66-16.657-13.23-16.657-4.354 0-18.12 16.907-21.853 16.53-1.503-.158-2.137-1.276-1.98-2.773.213-2.087 2.002-7.659 2.72-10.273 1.22-4.567 2.331-9.59 2.951-11.179.627-1.596 2.294-2.757 3.627-2.63.676.058.89 1.319 1.096 2.345.756 3.72 1.81 7.51 3.007 7.51 2.11 0 9.078-13.366 13.125-13.366 4.972 0 5.564 21.039 12.325 21.039 2.266 0 3.91-2.7 5.407-6.02.157-5.572 1.667-13.516 6.163-13.516 3.157 0 4.667 7.053 2.401 13.223 0 7.36 4.817 9.155 7.966 9.155Zm120.172-18.025c-1.852 7.723-7.494 19.094-15.916 19.094-1.952 0-5.408-.755-5.408-2.714 0-2.11 13.224-2.394 13.224-12.476 0-3.747-3.448-9.013-8.564-9.013-6.754 0-13.352 7.367-13.352 17.591 0 9.149 5.693 12.155 11.4 12.155 9.91 0 15.916-8.115 19.066-14.876 1.524 4.51 2.4 14.876 6.17 14.876 1.51 0 2.557-.748 4.367-4.802 4.496-10.074 8.856-21.645 14.877-21.645 2.237 0 .89 4.068 6.29 4.068 2.558 0 4.354-2.101 4.354-4.517 0-3.462-3.142-6.155-7.959-6.155-14.114 0-17.113 21.189-19.372 21.189-3.747 0-2.557-16.986-5.257-16.986-2.401 0-3.6 2.879-3.92 4.211Zm-99.646-15.81c-.263-4.196-1.282-6.099-3.534-5.942-2.992.171-4.374 9.597-3.761 19.486.391 6.448 1.347 7.453 2.25 7.389 1.647-.1 5.616-11.635 5.045-20.933Zm-24.438-8.827c-.206-2.409-2.094-4.04-4.652-4.04-2.843 0-5.53 2.978-5.259 6.747.186 2.48 1.647 4.517 4.525 4.517 3.292 0 5.692-3.762 5.386-7.224Zm46.725 30.65c0-2.558-1.347-4.652-2.986-4.652-1.368 0-4.517 1.489-4.517 6.298 0 3.769 1.34 5.564 1.96 6.327 4.33-1.361 5.543-4.973 5.543-7.973Zm58.743-5.094c3.149 0 4.054 3.74 3.298 5.999-.755 2.244-3.44 4.81-7.66 5.564-.89-2.258-1.345-11.563 4.362-11.563ZM33.73 254.666c-.44-1.368-1.682-4.431-2.03-6.704-.748-5.009 1.874-8.322 4.296-9.077 2.694-.762 3.748.591 4.795 3.762 1.354 4.802 1.51 11.1 1.047 20.12-.584 12.319-6.747 27.195-22.072 26.889C6.54 289.356.693 280.8.073 267.726c-.279-6.156.163-12.312 2.72-21.025 1.348-4.653 2.551-6.32 6.748-7.225 3.313-.591 3.007 2.857 2.26 6.926-1.647 9.012-2.41 13.366-1.797 23.582.591 10.816 5.557 15.02 10.958 15.02 8.115.156 11.72-6.598 13.217-16.366 1.204-7.823.306-11.57-.45-13.972ZM210.9 59.217c1.047 7.57 12.525 17.776 15.624 17.545 2.08-.185 2.88-9.882 2.88-17.545 0-4.385.241-7.812-2.068-8.61-3.676 7.424-13.315 8.927-16.436 8.61Zm.655-3.348c8.28 0 15.86-6.616 15.86-12.43 0-2.721-1.29-4.944-4.553-5.34.563.713.798 1.272.798 2.555 0 4.374-6.69 9.248-13.943 9.248-2.636 0-3.426 1.834-3.426 2.789 0 2.226 2.15 3.178 5.264 3.178Zm-1.767-9.006c-1.11 0-2.707 0-3.584-1.76-.718-1.429-.477-3.751-1.83-4.77 1.353.385 2.778.385 3.91.385 3.592 0 7.019-2.458 9.648-2.458 1.746 0 2.301 1.111 2.301 2.226 0 3.51-7.074 6.377-10.445 6.377Zm-178.31 62.494c2.708 0 2.16-16.572 6.54-16.572 1.027 0 1.347 1.033 1.347 2.301 0 3.755-1.824 9.256-1.824 12.284 0 1.514.385 1.987 1.112 1.987 1.916 0 5.265-18.26 8.528-18.26 1.047 0 1.517 1.05 1.517 2.084 0 3.83-4.859 14.83-4.859 17.93 0 .473.15.875.549.875 1.995 0 5.985-8.6 7.253-12.91.72-2.226 1.675-3.43 2.558-3.43.797 0 1.517.873 1.517 2.718 0 4.3-3.997 14.431-7.488 21.203-2.714 5.258-6.932 12.839-6.932 17.05 0 2.158.384 4.396 3.498 7.107-5.1-.321-7.181-.798-9.091-4.785-8.522 16.971 15.703 15.297 7.403 30.366-1.504-2.708-13.452-5.493-13.452-21.282 0-13.636 11.948-21.612 11.948-27.27 0-1.115-.398-2.062-1.432-2.939-2.629-2.24-2.714-4.068-4.78-4.068-1.525 0-3.356 3.513-1.44 6.612.641 1.033 1.198 1.667 1.198 2.636 0 2.223-3.513 8.208-5.971 8.208-2.48 0-4.39-6.142-4.39-16.024 0-8.774 1.989-17.619 4.461-17.619.72 0 .955.477.955 1.122 0 1.033-.313 3.096-.313 6.615 0 3.748.875 4.061 1.588 4.061Z"/>
  <path d="M51.805 132.712c3.348 0 6.135-2.486 6.135-7.965v-8.13c0-3.106.242-6.604 2.315-9.101-.235 1.047-.235 2.162-.235 3.195 0 6.861 3.826 11.567 3.826 18.182 0 2.462-.727 3.82-2.637 3.82-1.824 0-1.667-1.675-2.065-1.675-.314 0-.792 1.03-.792 2.145 0 1.68 1.19 4.31 4.525 4.31 2.878 0 5.186-2.63 5.186-5.575 0-7.171-5.578-15.137-5.578-22.796 0-3.352.883-5.578 1.603-7.345 0 15.867 13.472 27.433 13.472 34.042 0 1.524-1.125 2.721-2.792 2.721-1.846 0-2.714-1.453-2.714-2.561 0-.552-.086-.71-.322-.71-.477 0-1.908 1.597-1.908 3.67 0 2.619 2.144 5.814 6.134 5.814 4.546 0 7.018-3.833 7.018-7.26 0-8.36-16.345-21.047-16.345-34.587 0-2.32.399-6.056 2.074-8.93-10.523 6.771-13.787 15.784-13.787 23.668 0 6.86-.242 10.288-3.747 10.288-1.83 0-2.309-1.675-2.943-1.675-.485 0-.733 1.432-.733 1.838 0 2.943 2.165 4.617 4.31 4.617ZM189.953 53.08c3.513 0 6.142-1.59 6.142-2.555 0-.317-.477-.556-1.51-.556-1.041 0-3.115-.067-7.026-.716-3.355-.556-5.906-1.824-6.854-1.824-.32 0-.49.157-.49.4 0 2.073 3.832 5.25 9.738 5.25ZM172.57 42.95c1.02-.673 5.514.41 11.321-2.465.727-.399 1.432-.563 2.066-.563 2.793 0 2.08 3.196 4.639 3.196 1.98 0 4.546-1.671 6.063-1.671 2.372 0 5.806 7.492 5.806 10.99 0 4.075-6.12 6.54-13.394 6.54-10.587 0-16.978-9.247-16.978-15.218 0-.48.242-.641.477-.809ZM53.486 162.757c-2.636.649-6.861 4.781-6.861 11.329 0 7.815 8.371 19.856 22.165 19.856 11.635 0 14.506-8.05 14.506-13.48 0-12.04-7.416-20.483-17.05-20.483-5.272 0-9.974 3.833-9.974 9.483 0 5.265 3.983 13.16 13.473 13.16 4.468 0 7.09-3.193 7.09-6.855 0-3.598-3.264-8.528-8.045-8.528-1.445 0-2.472.94-2.472 2.458 0 1.909 2.629 3.84 5.893 3.84.797 0 1.438-.164 1.766-.32.157.235.236.633.236.954 0 1.824-1.768 2.957-4.468 2.957-4.069 0-7.98-3.042-7.98-7.823 0-2.864 2.48-4.945 6.056-4.945 7.104 0 11.33 6.298 11.33 12.59 0 5.671-3.115 8.941-9.484 8.941-12.76 0-18.973-11.485-16.18-23.134Zm84.814 30.779c0 1.753 1.431 3.199 3.184 3.199a3.217 3.217 0 0 0 3.198-3.199c0-1.745-1.445-3.185-3.198-3.185a3.198 3.198 0 0 0-3.185 3.185Zm6.17 15.931c3.832 0 3.626-.32 4.83-.32 1.196 0 1.275.719 1.275 1.21 0 1.746-3.911 3.905-10.844 3.905-4.068 0-6.533-2.159-7.26-4.546-3.99 2.544-10.031 4.866-16.016 4.866-16.338 0-20.483-7.103-25.586-9.404-3.91-1.753-9.888 1.667-18.253-7.66 1.105.236 2.629.322 3.819.322 7.338 0 11.235-3.584 11.235-9.334 0-.698-.07-1.503-.163-2.209 2.244.877 7.346 4.688 8.543 11.457.157.812 3.434 1.517 5.5 1.517 2.871 0 6.525-1.182 7.089-5.892 9.568-.79 16.03-6.447 17.385-13.636 3.419 1.118 7.324 4.225 8.286 5.82 1.353-.477 2.949-.712 4.787-.712 2.551 0 5.408.477 8.842 1.525.157-1.048.32-2.33 1.924-2.33 2.379 0 1.745 2.643 2.536 4.154.399.79 2.408 1.268 2.408 2.871 0 1.517-1.289 2.066-2.087 2.066-.32 0-.72-.078-.955-.15-1.582.55-1.667 12.034-8.379 12.034-4.93 0-9.483-4.075-11.47-9.155-.556-1.532-1.747-2.487-2.872-2.487-1.275 0-1.987.242-3.499 1.91-4.31 4.702-11.47 8.77-20.333 8.77-2.708 0-4.86-.242-5.415-.242-.313 0-.313.071-.313.17 0 .55 2.7 2.701 8.591 2.701 14.036 0 17.47-7.894 19.694-7.894.335 0 1.275 0 1.823 1.283 3.278 7.645 10.417 9.39 14.877 9.39Zm48.355-50.771c-1.675 0-10.937 12.362-16.9 12.362-1.433 0-2.623-2.708-2.623-4.767 0-1.133.713-1.93 3.257-2.48 13.715-3.12 10.68-13.401 22.392-13.401 6.456 0 13.638 4.39 13.638 14.27 0 10.524-14.976 23.584-17.213 23.584-1.832 0-3.827-2.622-3.827-4.382 0-.541.236-1.26 1.838-1.902 7.638-3.035 12.02-10.053 12.02-13.63 0-.812-.4-1.603-1.432-1.603-1.353 0-7.154 13.238-13.623 13.238-4.466 0-9.012-4.069-9.012-5.97 0-3.2 12.924-9.099 12.924-13.56 0-1.688-.798-1.759-1.439-1.759Zm8.599-4.944c-1.119 0-2.316.883-2.316 3.049 0 2.38 1.839 3.89 2.879 4.375.555.313 1.432.634 2.302.634 2.308 0 4.153-.634 4.153-2.565 0-2.444-3.591-5.493-7.018-5.493ZM52.517 61.444c0 1.767 1.454 3.199 3.2 3.199s3.185-1.432 3.185-3.2c0-1.749-1.44-3.177-3.186-3.177s-3.199 1.428-3.199 3.178Zm-4.132-7.182c0 1.763 1.432 3.206 3.185 3.206 1.746 0 3.191-1.443 3.191-3.206 0-1.746-1.445-3.174-3.19-3.174a3.188 3.188 0 0 0-3.186 3.174Zm-2.87 21.851c-1.832.489-5.658 2.719-5.658 6.698 0 2.87 2.223 4.713 5.016 4.713 1.432 0 2.472-.332 3.099-.805-2.223-2.148-3.021-4.546-3.021-6.936 0-1.675.242-2.7.563-3.67ZM25.977 77.24c-.065.403-.065.798-.065 1.197 0 3.737 1.988 5.817 4.61 5.817 1.988 0 4.311-1.207 6.377-3.833-.876.16-1.91.239-2.864.239-2.957 0-6.135-.798-8.058-3.42Zm-2.793 7.09c0 6.059 1.838 8.934 5.115 8.934 2.537 0 5.97-1.846 10.04-5.35-3.114.726-5.508 1.2-7.66 1.2-2.864 0-5.101-1.112-7.495-4.785ZM43.84 52.437c.4-1.279.713-2.864.713-4.61 0-3.833-1.76-9.647-7.174-9.647-3.107 0-5.344 2.473-5.344 5.415 0 6.306 6.306 8.842 11.805 8.842ZM37.056 72.53c-2.622 0-5.5-3.27-5.5-6.22 0-1.589 1.19-3.577 2.081-3.577.314 0 .477.235.549.791.491 3.904 3.042 6.141 5.429 7.25.242.16.399.238.399.41 0 .544-1.518 1.346-2.958 1.346Zm7.332-9.718c.563.744 2.088 1.667 2.088 2.244 0 1.111-.648 2.543-1.924 2.543-2.793 0-5.015-4.232-5.015-6.611 0-1.529.868-1.689 2.065-1.689.563 0 .805.079 1.19.314.727.399.727 1.987 1.596 3.199Zm-18.73 9.881c-.137.24-.236.56-.236.877 0 .716.806 1.518 1.51 1.518.641 0 1.04-.164 1.368-.164 1.903 0 4.047 1.35 7.168 1.35 1.823 0 3.99-.56 6.697-1.906 5.743-2.872 7.972-9.968 7.972-11.157 0-1.525-1.224-1.319-2.229-2.722-1.02-1.39-.635-2.608-1.283-3.267-.37-.374-1.51-.388-2.942-.548a15.323 15.323 0 0 0-1.76-.086c-2.63 0-5.757.328-9.255 2.547-6.912 4.414-5.892 11.713-7.01 13.558Zm26.468-3.191c-1.753 2.077-3.577 5.586-3.577 9.17 0 4.296 2.622 7.9 6.69 7.9 3.905 0 5.735-3.355 5.735-6.79 0-5.336-4.866-9.09-8.848-10.28ZM35.069 54.198s-2.322 1.745-5.18 1.745c-3.426 0-6.142-2.54-6.142-6.13 0-2.466 1.276-5.027 4.226-6.295-.071.477-.071.876-.071 1.353 0 4.546 2.543 7.98 7.167 9.327Zm140.535 26.461c0 1.845 1.532 3.352 3.342 3.352 1.824 0 3.349-1.507 3.349-3.352 0-1.827-1.525-3.338-3.349-3.338-1.81 0-3.342 1.51-3.342 3.338Zm.235 10.046a3.75 3.75 0 0 0 3.756 3.748 3.745 3.745 0 0 0 0-7.488c-2.067 0-3.756 1.674-3.756 3.74Zm-11.47 6.782c0 3.022 2.465 5.5 5.5 5.5 3.021 0 5.5-2.478 5.5-5.5 0-3.034-2.479-5.503-5.5-5.503a5.507 5.507 0 0 0-5.5 5.503Zm2.942-11.25a3.198 3.198 0 0 0 3.192 3.193 3.186 3.186 0 0 0 3.177-3.192c0-1.753-1.425-3.192-3.177-3.192a3.205 3.205 0 0 0-3.192 3.192Zm-10.445 6.392c0 1.745 1.447 3.174 3.178 3.174 1.76 0 3.2-1.429 3.2-3.174 0-1.753-1.44-3.2-3.2-3.2-1.731 0-3.178 1.447-3.178 3.2Zm8.208-18.66c0 2.793 2.315 5.101 5.116 5.101 2.792 0 5.1-2.308 5.1-5.101 0-2.786-2.308-5.101-5.1-5.101-2.8 0-5.116 2.315-5.116 5.101Zm5.984-9.81a3.04 3.04 0 0 0 3.036 3.041 3.05 3.05 0 0 0 3.042-3.042 3.049 3.049 0 0 0-3.042-3.035 3.038 3.038 0 0 0-3.036 3.035Zm-14.412 7.651c0 1.682 1.338 3.035 3.006 3.035a3.031 3.031 0 1 0 0-6.063 3.011 3.011 0 0 0-3.006 3.028Zm-.414 10.363a4.828 4.828 0 0 0 4.86 4.856c2.706 0 4.865-2.138 4.865-4.856a4.83 4.83 0 0 0-4.866-4.852 4.832 4.832 0 0 0-4.859 4.852Zm-10.038 5.098c0 2.48 2.065 4.542 4.537 4.542s4.546-2.063 4.546-4.542c0-2.465-2.073-4.535-4.546-4.535s-4.537 2.07-4.537 4.535Zm2.7-11.24a3.21 3.21 0 0 0 3.19 3.196 3.202 3.202 0 0 0 3.193-3.195 3.196 3.196 0 0 0-3.192-3.182c-1.745 0-3.191 1.436-3.191 3.182Zm27.985 24.556c0-1.589 1.44-2.942 3.02-2.942 1.754 0 3.115 1.353 3.115 2.942 0 1.831-1.36 3.117-3.114 3.117-1.582 0-3.02-1.286-3.02-3.117Zm2.067 91.681c.392 0 .875.228.875 1.674 0 1.746-.797 4.069-3.654 5.885-2.002 1.361-4.709 2.487-8.7 2.55.635-1.909 1.12-3.903 1.12-5.813 0-.641-.08-1.118-.158-1.824h1.04c6.299 0 9.014-2.472 9.477-2.472Zm.649-7.894c.633-.563.79-1.44.79-2.316v-1.831c0-2.315-3.506-3.67-8.293-3.67-5.821 0-8.927 2.637-8.927 3.749v3.662c0 1.517 3.512 3.035 7.815 3.035 3.434 0 6.548-.884 8.615-2.63Zm4.132.869c-2.074 1.603-6.926 5.187-14.977 5.187-4.31 0-6.227-1.361-6.86-1.361-.799 0-1.682.798-2.559 1.83-1.895 2.238-4.367 6.392-4.367 10.923 0 3.2 2.472 6.37 7.082 6.37 14.927 0 26.069-9.312 26.069-16.893 0-4.296-2.55-6.056-4.388-6.056Zm2.793-67.033c0 1.991.64 4.3 2.635 4.3 1.675 0 3.107-2.55 3.107-5.34 0-3.181-.555-5.668-.555-6.932 0-.56.241-.799.555-.799 1.204.082 2.322 3.356 3.604 3.356 1.433 0 3.564-2.64 4.44-2.64.242 0 .314.314.314.4 0 1.19-1.825 3.825-1.825 4.858 0 .877 4.624 1.033 4.624 1.846 0 1.193-4.852 1.193-7.168 2.23-2.229.955-3.59 2.151-3.59 3.748 0 1.588 1.603 1.905 3.833 1.905 5.336 0 9.07-2.864 10.274-2.864.242 0 .385.16.385.392 0 .802-2.7 3.424-2.7 4.635 0 1.35 4.95 2.92 4.858 3.733-.071.235-.391.317-.948.317-.875 0-2.229-.239-3.277-.239-.634 0-1.189.086-1.432.4-.555.633.165 4.866-.954 4.866-1.04 0-3.749-9.409-9.875-9.409-.877 0-1.518.716-1.518 1.92 0 3.174 3.114 6.851 6.07 8.6 1.34.87 3.57 1.76 3.57 2.237 0 .951-5.08.078-5.08 1.667 0 1.447.627 3.606.627 4.866 0 .4-.078.877-.563.877-.947 0-3.27-4.375-4.382-4.375-.954 0-3.028 2.622-3.911 2.622-.242 0-.399-.235-.399-.474 0-1.842 2.956-5.974 2.956-10.05 0-1.909-.242-6.048-2.557-6.048-1.909 0-4.068 3.017-5.023 6.049-.556 1.753-.157 8.539-1.432 8.539-1.204 0-.89-4.546-2.48-4.546-1.175 0-3.733 2.156-4.61 2.156-.156 0-.313-.093-.313-.25 0-.955 2.3-4.064 2.3-4.702 0-1.197-5.257-1.354-5.257-2.309 0-.57 2.067-.954 3.99-1.285 4.055-.71 10.032-3.652 10.032-7.802 0-4.628-4.46-6.615-7.402-8.532-1.519-.955-3.186-1.753-3.186-2.387 0-.634 1.91-.634 2.716-.634 1.188 0 2.365-.085 2.365-1.047 0-.72-.157-2.152-.157-3.263 0-.791.085-1.432.414-1.432 1.175 0 2.863 3.897 3.654 3.897 1.268 0 3.042-3.178 4.225-3.178.399 0 .562.242.562.955 0 2.942-1.517 6.291-1.517 9.166Zm-38.026-23.351c.877 6.768 9.982 3.348 9.982 11.545 0 1.194-.32 2.953-.32 4.464 0 1.767.157 3.277 1.496 3.277 1.354 0 1.674-.954 1.674-2.23 0-1.282-.32-2.871-.32-3.747 0-2.797 1.994-3.434 3.2-3.434 3.02 0 5.342 3.113 9.888 3.113-1.04 5.105-11.57 3.737-11.57 9.323 0 2.79 2.792 3.43 4.623 3.43 1.69 0 2.244-.242 2.244-1.67 0-.799-.156-1.671-.156-2.248a.63.63 0 0 1 .633-.635c1.747 0 10.346 6.545 10.346 8.536 0 1.828-9.077 3.67-11.706 3.67-.805 0-.962-.564-.962-.87 0-.563 1.354-2.24 1.354-3.199 0-.712-1.197-1.19-4.382-1.19-1.518 0-2.628.16-2.628 1.354 0 2.159 3.512 4.784 3.512 6.768 0 1.596-.962 2.565-3.512 2.565-2.167 0-5.423-1.688-5.423-4.47 0-2.238 2.309-4.464 2.309-5.818 0-.399-.3-1.033-1.269-1.033-2.942 0-3.747 7.805-14.2 8.678 1.682-1.51 3.122-3.188 3.122-6.612 0-1.674-.4-3.035-.4-4.859 0-2.397 1.112-3.598 2.7-3.598 2.957 0 4.39 4.147 6.313 4.147 1.04 0 2.152-.948 2.152-2.387 0-6.063-11.642-5.18-11.642-13.708 0-2.32.798-5.18 2.942-9.162Z"/>
  <path d="M163.635 146.663c0 1.125.805 1.995 1.93 1.995 1.269 0 2.06-1.123 2.06-2.395 0-1.667-1.511-3.99-2.943-3.99-.648 0-.414.959-.57 1.996-.078.801-.477 1.756-.477 2.394Zm-4.147-10.602c8.38 1.589 12.924 7.894 12.924 13.793 0 4.069-2.544 7.802-7.01 7.802-4.076 0-7.004-2.779-7.004-7.246 0-3.352 2.608-6.847 2.608-10.295 0-1.34-.393-2.708-1.518-4.054Zm-10.594 13.551c.797.798 1.04 1.589 1.04 2.401 0 1.19-.563 2.465-.563 3.826 0 1.895 1.447 3.57 3.512 3.57 2.238 0 3.763-1.753 3.763-3.82 0-3.034-3.128-5.977-7.752-5.977Zm26.397-5.094c.548.87.79 1.745.79 2.54 0 2.24-1.51 4.307-1.51 6.608 0 2.65 1.988 4.795 5.024 4.795 3.262 0 5.492-2.622 5.492-5.742 0-4.218-3.832-7.806-9.796-8.201Zm-24.473-4.232c3.669.477 4.537 1.76 4.537 2.785 0 1.76-1.595 2.316-3.113 2.316-1.11 0-2.38-.235-3.748-.235-1.752 0-3.505.395-4.944 2.073 1.047.15 2.557.87 2.557 2.473 0 4.624-12.837.798-12.837 12.667 0 6.299 6.532 13.153 16.421 13.153 5.116 0 8.387-1.668 8.387-3.591 0-1.51-2.723-.478-2.723-1.746 0-.556.956-1.596.956-2.479 0-.385-.314-1.105-.956-1.105-1.425 0-4.145 2.309-9.646 2.309-4.303 0-8.528-2.465-8.528-5.814 0-.727.32-1.126.791-1.126.484 0 1.125.328 1.688.328.463 0 .548-.328.548-1.204 0-.87 0-3.356 1.518-3.356 1.51 0 4.381 5.6 15.397 5.6 3.655 0 10.744-.72 13.38-3.113-.078 8.749-6.94 20.32-21.289 20.32-14.904 0-22.877-11.956-22.877-22.963 0-12.19 9.96-23.266 23.597-23.266 3.498 0 6.462 1.19 6.462 2.703 0 2.08-5.186.806-5.578 3.271ZM99.24 49.253c5.253 0 7.647 4.553 7.647 9.647 0 2.223-.635 5.5-1.675 5.5-1.034 0-.869-1.827-1.034-3.512-.148-2.145-.555-2.622-1.282-2.622-1.347 0-2.222 3.178-2.222 6.134 0 1.839.313 3.905 1.745 3.905.799 0 1.524-.392 2.002-.877-.313 3.67-3.035 6.858-6.868 6.858-7.004 0-9.633-8.2-10.438-12.995-4.224 4.46-8.122 7.733-15.147 7.733-6.533 0-9.483-4.78-9.483-9.33 0-1.357.484-4.862 2.151-4.862 1.995 0 .25 6.544 4.154 6.544.955 0 2.707-.805 3.656-3.43.562-1.604.89-3.27.89-4.703 0-2.155-.478-3.512-2.08-3.512-1.354 0-3.029 1.033-3.591 1.592 1.917-5.739 6.548-8.674 11.649-8.674 6.29 0 9.633 5.575 9.633 11.791 0 .87-.065 1.835-.228 2.707 2.707-4.456 6.454-7.894 10.522-7.894Zm-6.133 9.416c0-1.358-.335-1.675-.648-1.675-.798 0-1.675.951-2.943 3.096.156 2.878.634 4.154 1.432 4.154.876 0 2.159-2.8 2.159-5.575Zm-10.93 3.27c.884 0 2.003-.951 4.07-3.27.156-1.037.156-1.995.156-3.203 0-1.585-.635-3.342-1.59-3.342-2.4 0-3.59 6.38-3.59 8.051 0 .948.478 1.764.955 1.764Zm12.996 7.085c1.989 0 4.226-7.648 4.226-12.436 0-1.04-.158-2.148-.635-2.148-1.682 0-4.474 7.894-4.474 12.183 0 1.682.406 2.401.883 2.401Zm-19.528-4.381c2.714 0 5.813-14.674 5.813-17.15 0-.63-.235-1.118-.79-1.118-2.466 0-5.9 13.957-5.9 17.07 0 .556.157 1.198.877 1.198Z"/>
  <path d="M84.336 70.692c-3.434 0-3.59 4.153-3.59 12.525-2.544-5.504-6.77-11.407-11.714-11.407-3.356 0-4.624 2.244-4.624 6.127 0 .813.078 2.006.228 2.722.407-1.35 1.682-1.91 3.27-1.91 3.435 0 7.582 2.622 10.296 6.213-3.12-.548-6.148-1.111-8.692-1.111-1.603 0-3.035.16-4.225.72-2.316 1.03-5.43 4.46-5.43 9.643 0 .794.087 1.685.243 2.636 2.78-6.23 10.203-9.02 14.983-9.02.955 0 1.675.082 2.224.171-2.452 2.227-3.014 6.135-3.17 8.76-.079 1.275-.564 1.36-1.448 1.36 0 2.626 2.081 6.534 2.081 8.518 0 .73-.392 1.372-.791 1.529 0 3.498 3.498 6.056 3.498 8.278 0 .563-.17 1.04-.405 1.283.235 1.44 4.103 3.847 4.602 5.059.62 1.467 1.304 1.717 1.696 1.717 1.367 0 3.505-1.59 3.505-3.032 0-.477-.4-1.03-.713-1.272-1.51-1.111-2.309-3.52-2.95-5.105-.562 0-1.274-.224-1.524-1.164-.442-1.657-.463-4.731-1.104-6.562-1.026-.243-1.503-.635-1.503-2.793 0-1.033.633-5.101.633-6.54-.477 0-1.118-.321-1.118-1.276 0-2.547 2.543-4.553 3.263-7.809 4.546 3.356 5.65 6.776 5.65 9.804 0 1.592-.229 3.117-.549 4.545 3.35-1.674 8.372-4.146 8.372-9.165 0-2.954-1.36-6.224-10.36-7.503 2.787-1.033 6.292-1.585 9.248-1.585 5.094 0 8.044 1.585 8.678 5.18 1.047-1.59 1.846-3.428 1.846-5.105 0-3.908-3.278-6.452-7.424-6.452-4.859 0-9.163 2.544-13.78 5.657 2.067-4.303 3.499-6.85 6.056-6.85.4 0 .798.082 1.19.164-.955-3.516-4.538-6.95-6.448-6.95Zm134.309 57.468c3.982 0 7.167 5.197 7.167 11.25 0 6.454-3.028 13.472-8.429 18.246-.092-10.744-13.251-7.324-13.251-15.13 0-3.352 2.394-5.585 5.271-5.585 2.544 0 4.546.709 5.978 2.155-1.432-1.35-2.159-3.277-2.159-5.115 0-3.025 1.924-5.821 5.423-5.821Zm-59.157-81.529c-.634-1.047-3.02-1.603-4.133-1.603-3.512 0-5.892 2.465-6.383 4.703-.321-.791-.556-1.76-.556-2.708 0-3.505 2.402-7.802 8.23-7.802 5.086 0 7.074 2.7 7.794 2.7.805 0 1.603-.8 2.237-.8.869 0 .869 1.364.869 2.318 0 3.192-1.432 8.685-5.023 10.68-.633-1.353-1.91-2.878-3.968-3.825-.57-.236-.799-.72-.799-1.198 0-.872.799-1.99 1.732-2.465Zm-12.026 5.807c2.087 2.002 3.904 2.871 6.134 2.871.89 0 1.923-.228 2.486-.228.705 0 1.197.31 1.197.862 0 .891-.812 2.323-1.76 3.118.948.398 1.988.552 3.114.552 4.532 0 9.704-2.872 9.704-10.04.97 1.273 1.531 3.912 1.531 5.102 0 8.692-6.39 12.03-12.268 12.03-3.84 0-5.757-1.257-6.234-1.257-1.503 0-1.432 3.014-2.472 2.942-1.832-.317-3.499-4.389-3.499-8.696 0-2.547.634-5.254 2.067-7.256ZM79.235 1.753c0-.478-2.4-.973-5.664-.973-5.187 0-4.46 4.314-8.45 4.314-4.147 0-3.114-4.47-8.371-4.47-3.186 0-6.135.559-6.135 1.293 0 .947 3.74.552 3.74 3.177 0 2.793-8.05 3.587-8.05 5.255 0 .559.634.808 1.438.808 1.754 0 4.54-.808 6.541-.808 1.112 0 2.152.238 2.152 1.286 0 1.988-4.31 5.582-4.31 7.174 0 .485.391.634.79.634 1.603 0 4.31-4.06 6.87-4.06 4.224 0 1.423 9.005 3.74 9.005 2.394 0 1.36-8.856 4.772-8.856 2.8 0 4.874 6.134 6.783 6.134.477 0 .877-.392.877-.947 0-1.678-2.387-5.109-2.387-7.335 0-1.35.962-2.006 2.23-2.006 1.83 0 4.311 1.133 5.657 1.133.478 0 .955-.157.955-.72 0-1.916-7.09-3.986-7.09-6.454 0-2.473 3.912-2.473 3.912-3.584Zm18.73 8.122c0 1.443 5.016 4.546 7.332 4.546 1.347 0 1.746-1.832 1.746-3.752 0-2.383-1.033-2.468-3.1-2.468-2.636 0-5.977.72-5.977 1.674Zm8.287 15.774c0-4.766-12.938-13.466-13.08-17.206-.001-.35.178-.684.462-.983 2.223-2.337 11.421-4.04 11.421-6.042 0-1.033-1.917-1.033-2.87-1.033-7.41 0-18.247 2.721-18.247 5.336 0 2.722 9.718 9.348 9.718 12.61 0 .87-.55 1.187-1.44 1.187-2.7 0-8.607-3.263-11.392-3.263-1.268 0-1.745.88-1.745 2.152 0 3.83 4.53 11.09 4.53 13.234 0 .228-.071.556-.398.556-1.432 0-8.201-7.976-10.595-7.976-.884 0-.962 1.207-.962 2.956v2.704c0 1.842-.078 2.957-.954 2.957-2.066 0-3.035-5.814-5.024-5.814-2.065 0-2.479 10.36-4.467 10.36-2.307 0-.313-11.414-2.55-11.414-2.458 0-5.265 7.58-7.018 7.58-.634 0-.79-.634-.79-1.19 0-2.319 1.353-6.055 1.353-8.296 0-1.108-.32-1.75-1.275-1.75-2.473 0-7.888 3.99-9.954 3.99-.328 0-.726-.163-.726-.491 0-1.91 8.684-7.962 8.684-10.673 0-2.629-11.955-.87-11.955-3.908 0-2.55 8.536-5.187 8.536-7.812 0-2.305-10.124-3.35-14.036-3.35-4.702 0-7.252.552-7.252 1.91 0 2.08 10.686 2.714 10.686 4.538 0 1.767-11.071 6.47-11.071 9.184 0 2.387 15.617.15 15.617 2.629 0 2.7-13.644 14.42-13.644 18.321 0 .887.649 1.286 1.532 1.286 4.132 0 14.89-7.898 17.847-7.898 1.033 0 1.112 1.286 1.112 2.384 0 2.084-.705 5.272-.705 7.584 0 1.831.463 3.11 2.058 3.11 2.957 0 5.658-5.02 7.66-5.02 2.55 0 1.033 14.752 4.859 14.752 3.262 0 4.63-15.948 6.69-15.948 2.08 0 3.754 4.616 5.67 4.616 2.388 0 1.276-8.047 3.826-8.047 2.787 0 10.752 9.568 14.343 9.568 1.118 0 1.51-.872 1.51-2.002 0-4.221-5.891-13.779-5.891-16.817 0-.795.235-1.02 1.11-1.02 3.114 0 12.206 4.293 16.508 4.293 1.432 0 2.309-.79 2.309-1.845ZM33.48 21.032c0 1.603-6.071 6.94-8.215 6.94-.792 0-1.04-.948-1.04-1.831 0-1.603.733-3.826 1.588-4.539 1.04-.969 3.434-1.439 5.265-1.439 1.111 0 2.402.242 2.402.87Zm58.578 8.215c0 2.793 9.969 16.42 11.884 16.42 1.59 0 2.787-2.79 2.787-5.18 0-.631-.165-1.266-.478-1.75-1.432-1.995-11.556-9.974-13.793-9.974-.243 0-.4.249-.4.484ZM220.077 5.094c0 1.115.87 1.995 2.002 1.995 1.111 0 1.98-.88 1.98-1.995a1.96 1.96 0 0 0-1.98-1.988c-1.133 0-2.002.87-2.002 1.988Zm-12.996 17.62c0-5.657-13.537-7.104-13.537-8.375 0-1.034 7.566-2.783 11.463-2.875-5.977-7.638-14.49-6.85-14.49-8.2 0-.795 6.376-2.398 12.268-2.398 4.938 0 9.569 1.115 9.569 4.855 0 2.084-1.675 4.24-1.675 7.424 0 1.767.876 3.277 3.178 3.277 2.48 0 3.042-2.643 3.042-5.436 0-2.305-.406-4.054-.406-5.18 0-3.337 2.301-5.578 5.586-5.578 2.7 0 3.334 1.19 7.324 1.19-2.145 1.29-2.935 3.605-2.935 4.716 0 3.342 2.137 5.657 2.137 12.511 0 12.59-11.792 17.057-26.22 17.057-3.975 0-8.2-.32-12.346-.955-.648-.07-.798-.238-.798-.638 0-1.029 5.657-1.592 5.657-6.69 0-1.99-.634-3.908-.634-4.627a.62.62 0 0 1 .634-.634c1.197 0 3.598 4.624 8.044 4.624 1.19 0 4.139-.4 4.139-4.068Zm13.473-8.058c0 7.089-5.173 12.521-14.513 14.035 1.04.072 2.002.072 2.957.072 10.9 0 14.904-4.93 14.904-9.085 0-2.311-1.275-4.381-3.348-5.022Zm-5.486 102.756c1.268-3.994 2.864-6.78 5.486-11.083-2.622-1.353-9.554-4.225-9.554-8.934 0-5.493 6.846-9.793 8.278-9.793.62 0 .799.542.799 1.592 0 2.868-1.36 7.496-1.36 9.96 0 2.231 1.431 4.39 2.706 4.39 1.36 0 5.101-4.788 5.101-9.49 0-8.454-7.416-11.008-9.711-11.008-2.144 0-6.048 3.527-15.225 3.527-17.134 0-21.04-16.993-21.04-24.396 0-.324.065-.41.157-.41.393 0 2.067 2.078 7.488 2.078 2.8 0 5.351-.713 9.42-.713 9.54 0 13.786 6.605 19.678 15.062 3.577 2.226 12.112 5.817 12.112 15.942 0 8.934-9.505 13.875-11.799 23.436 3.663-.402 5.821-6.94 9.569-6.94 1.91 0 2.785 1.525 2.785 3.912 0 3.506-1.987 8.77-5.812 12.027.078-.314.078-.713.078-1.19 0-2.227-.884-5.422-3.434-5.422-3.977 0-5.244 4.307-7.49 7.89-2.3-8.125-5.414-15.47-10.993-19.93-5.65-4.532-15.381-2.074-15.381-10.36 0-2.23 1.425-5.411 1.425-7.966 0-.883-.158-1.68-.635-2.322 7.66 2.875 4.944 7.98 9.662 13.238 2.927 3.355 11.064 6.547 15.781 20.326.063-.392.142-1.432.142-2.144 0-11.81-15.603-23.362-16.957-28.15 9.063 1.04 10.666 3.277 14.97 15.229.876 2.469 3.754 8.61 3.754 11.642Zm-2.08-38.662c0-1.668-4.225-1.824-4.625-6.534-.078-.72-.32-1.995-1.21-1.995-1.426 0-.314 4.382-1.91 4.382-3.655 0-4.858-7.175-6.213-7.175-.314 0-.69.243-.69 1.198 0 .876.156 1.428.156 2.472 0 1.033-.25 1.752-1.197 1.752-2.158 0-4.068-5.015-5.914-5.015-.392 0-.79.238-.79.627 0 .958 1.588 2.721 1.588 3.598 0 1.909-5.187.872-5.187 2.479 0 .698.72.948 1.682.948 1.674 0 4.304-.727 5.664-.727.799 0 2.003.164 2.003 1.193 0 1.13-2.88 2.562-2.88 3.595 0 .477.486.712.877.712 2.152 0 5.963-3.744 8.678-3.744.477 0 1.667.246 1.667.962 0 1.037-2.7 2.864-2.7 4.382 0 .388.235.876.713.876 1.432 0 3.34-3.744 6.063-3.744 1.025 0 2.55.392 3.349.392.633 0 .875-.392.875-.634Z"/>
  <path d="M153.596 30.993c1.283 0 1.524 3.117 1.76 4.944.163.966.32 1.051.726 1.051.962 0 2.473-3.673 3.484-3.673 1.525 0 5.593 4.225 12.369 4.225 9.633 0 18.738-6.782 18.738-18.73 0-11.564-8.136-18.333-19.372-18.333-5.344 0-9.255 2.63-11.328 2.63-1.262.078-3.186-3.107-4.14-3.107-.392 0-.79.78-.79 2.152 0 .872 0 3.655-.963 3.655-1.917 0-9.326-5.483-9.326-3.498 0 1.827 4.937 7.402 4.937 8.848 0 1.432-4.866 2.786-4.866 3.755 0 1.746 5.188 2.066 5.188 4.29 0 2.233-5.416 4-5.416 5.656 0 1.354 5.416.414 5.416 2.084 0 1.667-3.984 7.25-3.984 8.85 0 .38.078.38.4.38 1.51 0 6.056-5.18 7.167-5.18Zm2.316-13.06c0-.876-3.114-2.55-3.114-3.512 0-.15.157-.236.406-.236.876 0 2.393.32 3.583.32 1.056 0 1.197-4.46 1.989-4.46.555 0 1.51 4.226 2.4 4.226 1.034 0 2.936-1.204 3.748-1.204.15 0 .321.078.321.238 0 .556-2.002 2.719-2.002 3.353 0 .709 4.46 1.588 4.46 2.222 0 .799-4.538.72-4.538 1.44 0 .563 1.667 2.793 1.667 3.512 0 .157-.079.232-.242.232-.635 0-3.093-1.108-3.812-1.108-.89 0-2.302 3.256-3.022 3.256-.249 0-.391-.306-.391-.713l-.17-3.184c0-.314-.15-.649-.55-.649-.97 0-2.8-.064-3.37-.064-.392 0-.555-.086-.555-.246 0-.637 3.192-2.867 3.192-3.423Zm15.546 15.147c-5.586 0-9.248-2.8-9.248-4.225 0-.72.477-1.204 1.111-1.204 1.753 0 5.579 2.707 6.869 2.707.313 0 .555-.138.555-.637 0-1.429-1.354-3.815-1.354-5.023 0-.31.235-.545.713-.545 2.151 0 5.343.883 7.032.883.549 0 .705-.338.705-.648 0-1.753-5.186-5.187-5.186-6.22 0-.95 6.448-2.394 6.448-3.897 0-1.603-8.757-.492-8.757-2.002 0-1.112 1.667-3.028 1.667-3.904 0-.4-.313-.56-.876-.56-.712 0-4.546 1.51-6.135 1.51-.797 0-1.759-.16-1.759-1.271 0-1.835 3.113-3.826 7.98-3.826 7.88 0 12.582 5.432 12.582 14.506 0 11.496-8.037 14.356-12.347 14.356Zm-53.971 137.892c0 .734-.235 1.532-.875 2.323-.877-1.589-3.356-2.401-4.468-2.401-8.2 0-5.1 11.884-13.857 11.884-3.67 0-3.997-.492-5.351-.492-.555 0-.877.257-.877.727 0 2.073 2.957 7.174 11.159 7.174 8.213 0 16.115-5.015 16.115-11.242 0-1.033-.242-2.138-.727-3.263.314-.478 1.127-.799 1.831-.799 1.276 0 2.003 1.447 3.2 1.447 1.275 0 2.23-.969 2.23-2.244 0-1.026-.564-1.746-1.51-2.238.633-.477 1.11-1.268 1.11-2.151 0-1.347-.954-2.615-2.55-2.615-.727 0-1.204.235-1.76.777-.142-1.418-.948-2.779-2.465-2.779-1.205 0-2.08.87-2.08 2.237 0 1.268.875 2.308.875 3.655Z"/>
  <path d="M96.05 174.014c-2.394 0-5.978-2.565-5.978-3.99 0-1.204 1.112-1.845 1.987-1.845 2.002 0 5.58 2.48 5.58 4.553 0 .563-.4 1.282-1.59 1.282ZM73.813 156.16c6.377 1.574 9.555 5.016 10.203 9.077.634 3.897 1.432 7.103 2.942 8.692 1.989 2.23 5.9 4.21 9.334 4.21 2.864 0 5.172-.94 5.172-3.576 0-2.857-3.91-9.326-9.64-9.326-.562 0-1.275.085-2.073.085-.72 0-1.76-.164-2.394-.72-1.275-1.11-1.674-7.096-4.06-10.68-2.63-3.99-5.502-5.108-9.413-5.108-2.785 0-5.892 1.518-5.892 3.74 0 1.369.713 2.323 5.821 3.606Z"/>
  <path d="M113.833 146.42c0-3.576-7.418-3.655-7.418-9.077 0-1.364.87-3.662 2.622-6.141.727 4.14 2.394 6.29 5.993 7.655 7.081 2.622 8.043 6.609 8.043 10.84 0 7.168-5.022 16.095-17.933 16.095-10.365 0-17.783-9.247-17.783-17.049 0-2.152.563-4.56 1.91-4.56 1.197 0 1.602.969 2.557 1.93 3.584 3.585 7.488 4.54 13.16 4.54 5.094 0 8.85-2.067 8.85-4.233Zm.313 5.736c-2.735 1.26-3.825 1.047-3.825 3.847 0 1.033-.243 2.38-.243 3.1 0 .954.156 1.51 1.275 1.51 2.865 0 7.41-4.86 7.41-9.006 0-1.111-.634-1.596-1.354-1.596-.634 0-1.354 1.283-3.263 2.144Zm-25.427-40.24c0-5.11 12.112-7.817 12.112-14.108 0-1.047-.393-2.878-1.119-4.232 4.231 2.323 7.331 6.22 7.331 9.412 0 5.493-5.736 8.04-5.736 11.47 0 3.994 6.135 4.632 6.135 9.57 0 4.067-5.821 8.77-5.821 14.024 0 4.069 2.872 7.414 7.26 7.973-1.44.317-2.707.566-4.061.566-8.058 0-16.345-6.619-16.345-14.524 0-3.907 1.675-7.32 4.22-9.789 2.243 1.906 4.467 3.181 5.898 3.181 1.283 0 1.845-.634 1.845-1.589 0-2.956-11.72-5.66-11.72-11.955Zm-46.247 39.378c.342 2.714 2.878 4.78 5.756 4.46 1.027-.1 1.988-.4 2.622-.798.634 2.55 2.779 4.196 5.672 3.811 2.942-.377 4.93-2.693 4.609-5.635-.079-.805-.235-1.297-.477-1.838 0 0 .398-.05.684-.107 2.878-.534 4.823-2.85 4.581-5.64-.32-2.864-2.892-4.994-5.579-4.677-1.033.143-1.988.527-2.643 1.09-.712-2.387-2.956-4.467-6.02-3.961-2.786.463-4.61 2.818-4.332 5.8.042.477.15 1.032.398 1.588 0 0-.47.064-.79.114-2.33.346-4.852 2.686-4.481 5.793Zm14.897-3.143a3.031 3.031 0 0 1-2.65 3.37 3.036 3.036 0 0 1-3.356-2.671 3.022 3.022 0 1 1 6.006-.699Z"/>
</svg>