<svg xmlns="http://www.w3.org/2000/svg" width="149" height="41" fill="none">
    <path fill="currentColor"
        d="M73.183 11.848c-5.311 0-9.148 3.473-9.148 8.67 0 5.199 4.313 8.672 9.625 8.672 3.223 0 6.038-1.271 7.809-3.405l-3.678-2.134c-.976 1.067-2.451 1.68-4.108 1.68-2.316 0-4.268-1.203-4.994-3.132h13.506c.114-.545.159-1.09.159-1.68-.023-5.221-3.836-8.671-9.17-8.671Zm-4.562 6.968c.613-1.93 2.247-3.132 4.562-3.132 2.316 0 3.95 1.203 4.563 3.132h-9.125Zm56.43-6.968c-5.311 0-9.147 3.473-9.147 8.67 0 5.199 4.313 8.672 9.624 8.672 3.224 0 6.038-1.271 7.809-3.405l-3.678-2.134c-.976 1.067-2.451 1.68-4.108 1.68-2.315 0-4.268-1.203-4.994-3.132h13.506c.114-.545.159-1.09.159-1.68 0-5.221-3.836-8.671-9.171-8.671Zm-4.539 6.968c.613-1.93 2.247-3.132 4.562-3.132 2.316 0 3.95 1.203 4.563 3.132h-9.125Zm-18.795 1.703c0 2.883 1.884 4.812 4.812 4.812 1.975 0 3.473-.908 4.245-2.36l3.7 2.133c-1.521 2.542-4.404 4.086-7.945 4.086-5.335 0-9.148-3.473-9.148-8.671 0-5.198 3.836-8.671 9.148-8.671 3.541 0 6.401 1.543 7.945 4.086l-3.7 2.133c-.772-1.475-2.248-2.36-4.245-2.36-2.928-.023-4.812 1.906-4.812 4.812ZM141.44 6.536v22.155h-4.335V6.536h4.335ZM23.04 4.13l17.797 30.826H5.244L23.041 4.13Zm44.514 2.406-13.347 23.13-13.348-23.13h5.017l8.353 14.46 8.354-14.46h4.971Zm28.374 5.788V17a5.633 5.633 0 0 0-1.543-.227c-2.792 0-4.813 1.93-4.813 4.813v7.127h-4.335V12.324h4.335v4.427c0-2.452 2.838-4.427 6.356-4.427Z" />
</svg>