<svg xmlns="http://www.w3.org/2000/svg" width="569" height="220" fill="none">
    <path fill="currentColor"
        d="M284.334 83.557c-22.118 0-38.066 14.425-38.066 36.064 0 21.638 17.951 36.063 40.07 36.063 13.363 0 25.144-5.289 32.437-14.205l-15.327-8.856c-4.047 4.428-10.198 7.013-17.11 7.013-9.597 0-17.751-5.009-20.777-13.023H321.7c.441-2.244.701-4.568.701-7.013 0-21.617-15.948-36.043-38.067-36.043Zm-18.953 29.051c2.505-7.994 9.357-13.023 18.933-13.023 9.597 0 16.449 5.029 18.934 13.023h-37.867Zm234.693-29.05c-22.119 0-38.067 14.424-38.067 36.063 0 21.638 17.951 36.063 40.07 36.063 13.364 0 25.144-5.289 32.437-14.205l-15.327-8.856c-4.047 4.428-10.198 7.013-17.11 7.013-9.597 0-17.751-5.009-20.776-13.023h56.138c.441-2.244.701-4.568.701-7.013 0-21.617-15.948-36.043-38.066-36.043Zm-18.934 29.05c2.505-7.994 9.357-13.023 18.934-13.023 9.596 0 16.448 5.029 18.933 13.023H481.14Zm-78.197 7.013c0 12.021 7.854 20.035 20.035 20.035 8.255 0 14.445-3.747 17.631-9.858l15.387 8.876c-6.371 10.619-18.312 17.01-33.018 17.01-22.139 0-38.067-14.425-38.067-36.063s15.948-36.064 38.067-36.064c14.706 0 26.627 6.391 33.018 17.01l-15.387 8.876c-3.186-6.111-9.376-9.858-17.631-9.858-12.161 0-20.035 8.014-20.035 20.036Zm165.25-58.103v92.162h-18.031V61.518h18.031ZM75.788 51.501l74.03 128.225H1.758l74.03-128.225Zm185.085 10.017-55.517 96.169-55.518-96.169h20.817l34.701 60.106 34.701-60.106h20.816Zm118.028 24.043v19.414c-2.004-.581-4.128-.982-6.412-.982-11.64 0-20.035 8.014-20.035 20.035v29.652h-18.032V85.56h18.032v18.433c0-10.178 11.841-18.432 26.447-18.432Z" />
</svg>