<svg xmlns="http://www.w3.org/2000/svg" width="932" height="220" fill="none">
    <path fill="currentColor"
        d="M529.682 85.518h-37.794v4.004c11.827 0 13.724 2.538 13.724 17.527v27.024c0 14.982-1.897 17.728-13.724 17.728-9.072-1.265-15.213-6.125-23.645-15.406l-9.704-10.561c13.083-2.322 20.017-10.553 20.017-19.842 0-11.61-9.92-20.474-28.497-20.474h-37.153v4.004c11.819 0 13.716 2.538 13.716 17.527v27.024c0 14.982-1.897 17.728-13.716 17.728v4.003h42.037v-4.003c-11.818 0-13.716-2.746-13.716-17.728v-7.598h3.587l23.429 29.337h61.439c30.186 0 43.238-16.014 43.238-35.231 0-19.217-13.052-35.063-43.238-35.063Zm-88.455 34.431V91.852h8.656c9.496 0 13.724 6.542 13.724 14.14 0 7.391-4.228 13.933-13.724 13.933l-8.656.024Zm89.087 29.346h-1.481c-7.599 0-8.656-1.898-8.656-11.611V91.852h10.137c21.947 0 25.959 16.014 25.959 28.497 0 12.876-4.012 28.922-25.959 28.922v.024ZM295.354 127.74l14.565-43.07c4.228-12.46 2.33-16.015-11.21-16.015v-4.22H338.4v4.22c-13.299 0-16.47 3.203-21.747 18.585l-24.045 72.176h-2.739L268.33 93.341l-21.947 66.075h-2.746l-23.429-72.192c-5.069-15.414-8.448-18.585-20.69-18.585v-4.22h46.865v4.22c-12.459 0-15.838 2.955-11.402 16.015l14.14 43.07 21.323-63.336h4.004l20.906 63.352ZM367.13 158.559c-23.221 0-42.221-17.103-42.221-38.002 0-20.69 19-37.785 42.221-37.785 23.221 0 42.221 17.095 42.221 37.785 0 20.899-19 38.002-42.221 38.002Zm0-69.245c-19.425 0-26.175 17.519-26.175 31.227 0 13.933 6.75 31.228 26.175 31.228 19.633 0 26.423-17.311 26.423-31.228-.032-13.708-6.79-31.227-26.423-31.227ZM625.094 151.593v4.219h-48.339v-4.219c14.141 0 16.671-3.587 16.671-24.702V93.117c0-21.115-2.53-24.494-16.671-24.494v-4.22h43.695c21.747 0 33.782 11.21 33.782 26.176 0 14.573-12.011 25.967-33.782 25.967h-12.011v10.345c-.024 21.115 2.515 24.702 16.655 24.702Zm-4.644-79.59h-12.011v36.736h12.011c11.826 0 17.311-8.239 17.311-18.16 0-10.13-5.485-18.577-17.311-18.577ZM799.256 135.971l-1.057 3.795c-1.897 6.966-4.227 9.505-19.217 9.505h-2.962c-10.97 0-12.876-2.539-12.876-17.528v-9.704c16.471 0 17.736 1.473 17.736 12.451h4.004v-31.452h-4.004c0 10.978-1.265 12.451-17.736 12.451V91.852h11.611c14.989 0 17.311 2.53 19.217 9.496l1.057 4.004h3.379l-1.474-19.842h-62.071v4.004c11.827 0 13.725 2.538 13.725 17.527v27.024c0 13.708-1.602 17.159-10.938 17.616-8.856-1.353-14.941-6.19-23.221-15.334l-9.712-10.561c13.091-2.322 20.017-10.553 20.017-19.842 0-11.61-9.92-20.474-28.497-20.474h-37.153v4.004c11.819 0 13.717 2.538 13.717 17.527v27.024c0 14.981-1.898 17.728-13.717 17.728v4.003h42.006v-4.003c-11.819 0-13.717-2.747-13.717-17.728v-7.599h3.588l23.428 29.338h86.765l1.265-19.841-3.163.048Zm-111.883-16.014V91.852h8.656c9.497 0 13.716 6.542 13.716 14.14 0 7.391-4.219 13.933-13.716 13.933l-8.656.032ZM842.109 158.559c-8.447 0-15.838-4.436-19-7.206a15.197 15.197 0 0 0-3.379 7.206h-4.004v-29.13h4.22c1.689 13.932 11.402 22.164 23.861 22.164 6.75 0 12.243-3.804 12.243-10.137 0-5.485-4.861-9.713-13.516-13.716l-12.011-5.701c-8.447-4.004-14.781-10.978-14.781-20.266 0-10.137 9.496-18.793 22.588-18.793a26.425 26.425 0 0 1 16.471 5.493c1.049-.849 2.105-3.203 2.738-5.701h4.004v24.91h-4.484c-1.474-9.92-6.967-18.16-18.152-18.16-5.91 0-11.403 3.379-11.403 8.663 0 5.485 4.436 8.44 14.573 13.084l11.611 5.701c10.129 4.852 14.14 12.667 14.14 19.001.032 13.3-11.57 22.588-25.719 22.588ZM905.942 158.559c-8.447 0-15.838-4.436-19-7.206a15.206 15.206 0 0 0-3.379 7.206h-4.004v-29.13h4.22c1.689 13.932 11.402 22.164 23.861 22.164 6.75 0 12.243-3.804 12.243-10.137 0-5.485-4.861-9.713-13.516-13.716l-12.011-5.701c-8.447-4.004-14.781-10.978-14.781-20.266 0-10.137 9.496-18.793 22.588-18.793a26.425 26.425 0 0 1 16.471 5.493c1.049-.849 2.105-3.203 2.738-5.701h4.004v24.91h-4.436c-1.474-9.92-6.966-18.16-18.152-18.16-5.91 0-11.402 3.379-11.402 8.663 0 5.485 4.435 8.44 14.572 13.084l11.611 5.701c10.129 4.852 14.14 12.667 14.14 19.001-.016 13.3-11.626 22.588-25.767 22.588ZM95.017 20.7a88.735 88.735 0 0 1 49.925 15.214 89.749 89.749 0 0 1 24.125 24.125 89.172 89.172 0 0 1 0 99.848 89.56 89.56 0 0 1-39.291 32.357 89.176 89.176 0 0 1-84.683-8.231 89.68 89.68 0 0 1-32.364-39.291 89.11 89.11 0 0 1 8.239-84.683 89.679 89.679 0 0 1 39.29-32.365 88.773 88.773 0 0 1 34.76-7.014v.04Zm0-5.74a95.004 95.004 0 1 0 94.996 95.043 95.004 95.004 0 0 0-94.996-95.004v-.04Z" />
    <path fill="currentColor"
        d="M15.852 109.996a79.167 79.167 0 0 0 44.615 71.263L22.722 77.784a78.772 78.772 0 0 0-6.87 32.212Zm132.605-4.004c0-9.784-3.515-16.558-6.526-21.835-4.003-6.526-7.775-12.01-7.775-18.568 0-7.27 5.517-14.045 13.292-14.045.352 0 .689 0 1.025.064a79.137 79.137 0 0 0-63.249-20.165 79.14 79.14 0 0 0-56.353 35.09c1.858.057 3.611.097 5.093.097 8.279 0 21.098-1.01 21.098-1.01 4.268-.248 4.805 6.022.513 6.526 0 0-4.292.505-9.064.753l28.825 85.748 17.328-51.958-12.291-33.806c-4.268-.248-8.304-.752-8.304-.752-4.267-.249-3.763-6.775.505-6.526 0 0 13.067 1.009 20.818 1.009 8.279 0 21.099-1.01 21.099-1.01 4.268-.248 4.804 6.022.504 6.526 0 0-4.292.505-9.056.753l28.61 85.099 8.167-25.878c3.619-11.306 5.717-19.322 5.717-26.096l.024-.016Zm-52.046 10.914-23.75 69.021a79.143 79.143 0 0 0 48.652-1.265 7.318 7.318 0 0 1-.569-1.089l-24.333-66.667Zm68.06-44.904c.356 2.7.533 5.42.528 8.144 0 8.007-1.497 17.063-6.021 28.353l-24.157 69.925a79.182 79.182 0 0 0 29.666-106.406l-.016-.016Z" />
</svg>