<svg xmlns="http://www.w3.org/2000/svg" xml:space="preserve" width="14.73" height="16.84" fill-rule="evenodd" stroke-linejoin="round" stroke-miterlimit="2" clip-rule="evenodd">
  <g fill-rule="nonzero">
    <path d="M14.22 7.38V10h.51q0 .59-.27 1.07-.3.47-.77.76v1.34h-1.78a2 2 0 0 1 .72 1.57q0 .45-.17.83-.16.36-.45.66-.28.3-.67.45-.39.17-.81.16a2 2 0 0 1-1.4-.52H7.82l-.53.52H5.35l-.52-.52H2.1q-.44 0-.81-.17a2 2 0 0 1-1.12-1.1q-.17-.4-.17-.83a2.1 2.1 0 0 1 2.65-2.04q.27.08.5.22V7.9h1.06V5.8H3.16V.54h1.07V0h4.21v.54h1.05v1.05h1.05V.54h3.17v1.32q.47.3.76.78.27.47.27 1.05h-.51v2.64h-4.21v1.05z"/>
    <path fill="#e5e5e5" d="M7.37 1.06v14.21l-.53.52H5.79l-.53-.52V1.07ZM4.22 13.7l.84 1.05H2.1V13.7Z"/>
    <path fill="#a6a6a6" d="M5.27 12.12a.2.2 0 0 1-.18-.09.2.2 0 0 1-.1-.18q0-.1.06-.17l.15-.09.2-.06.39-.1q.24-.08.5-.12l.49-.12q.23-.08.39-.09l.2-.05q.1 0 .18.1.09.06.09.17 0 .1-.06.17l-.14.09-.23.07-.39.11-.47.12-.5.1-.37.1zm0 1.57a.3.3 0 0 1-.18-.07.3.3 0 0 1-.1-.2q0-.1.06-.15l.15-.1.2-.06.39-.09.5-.14q.26-.05.5-.12l.4-.09.17-.03q.12 0 .18.08.1.09.1.18 0 .1-.07.16a.2.2 0 0 1-.13.1l-.21.07-.39.1-.5.12-.47.12q-.24.04-.4.1zm0-3.16a.3.3 0 0 1-.18-.08.2.2 0 0 1-.1-.19q0-.1.06-.15l.15-.09.2-.06q.19-.06.4-.1l.5-.14q.27-.07.5-.1.22-.07.39-.1l.18-.04q.1 0 .18.09.09.06.09.18 0 .1-.06.15a.3.3 0 0 1-.14.1l-.21.06-.39.11-.5.12a8 8 0 0 1-.87.21zm0 4.74a.3.3 0 0 1-.18-.08.3.3 0 0 1-.1-.19q.01-.1.07-.15.04-.08.15-.09l.2-.06q.19-.06.41-.1l.48-.14.48-.12.39-.09.2-.03q.1 0 .18.09.09.06.09.18 0 .1-.06.15a.2.2 0 0 1-.14.09l-.24.07-.39.11-.48.12q-.25.05-.48.12l-.37.09zm0-6.32a.3.3 0 0 1-.18-.07.24.24 0 0 1-.03-.34l.14-.11.2-.05.39-.12.5-.12q.27-.05.49-.12l.39-.09.2-.03q.1 0 .18.08.09.06.09.18 0 .1-.06.16a.2.2 0 0 1-.14.1l-.21.07-.39.1-.5.12q-.24.08-.47.12-.24.04-.4.1zm0-1.57a.2.2 0 0 1-.18-.09.2.2 0 0 1-.1-.18q0-.1.06-.17l.15-.09.21-.06.41-.1q.23-.08.48-.12l.48-.12q.23-.07.39-.09l.2-.03q.1-.01.19.07t.08.18q0 .1-.06.17l-.14.09-.23.07-.39.11-.47.12q-.27.05-.5.12l-.37.07zm0-1.58a.2.2 0 0 1-.18-.09.2.2 0 0 1-.1-.18q0-.1.06-.16l.15-.09.2-.06q.19-.06.4-.1l.5-.14.5-.1q.22-.07.39-.1l.18-.04q.1 0 .18.09.09.06.09.18 0 .1-.06.16l-.14.1-.21.05-.39.11-.5.13-.47.11-.4.09zm0-3.69a.3.3 0 0 1-.18-.07.3.3 0 0 1-.1-.2q0-.1.06-.16l.15-.09.21-.06q.18-.06.41-.1l.48-.14q.25-.07.48-.1.22-.07.39-.1.15-.04.2-.03.1 0 .18.08.09.09.09.18 0 .1-.06.16a.2.2 0 0 1-.14.1l-.21.05-.39.11-.51.13-.5.11-.38.1z"/>
    <path fill="#ccc" d="m7.37 8.95.45 1.6-.45 1.57h-2.1l-.57-1.58.56-1.59Zm0-4.21h-2.1l-.38-1.58.38-1.57h2.1l.42 1.57zm0 8.95.4.8-.4.78h-2.1l-.54-.78.53-.8Zm4.21-8.95V1.59h1.05v3.15l-.54.39zm0 4.21.5-.18.55.18v3.17h-1.05Zm-3.15 6.32-.69-1.05h2.79v1.05zm0-4.22-.4-.54.4-.5h1.05l.42.5-.42.54zm0-8.41h1.05l.21.5-.21.55H8.43l-.36-.56Z"/>
    <path fill="#f2f2f2" d="M13.7 3.69q-.4-.03-.8-.02h-2.11l-1.31.02V2.64h3.15q.22 0 .42.07.17.1.33.23.13.15.22.34a1 1 0 0 1 .1.41m0 6.31a1 1 0 0 1-.1.42q-.08.19-.22.33t-.33.23a1 1 0 0 1-.42.07H9.48V10l1.3.02h2.12zM5.27 8.95v3.17H4.2V8.95zm0-4.21H4.2V1.59h1.05zm0 8.95v1.58H4.22v-1.58Z"/>
    <path fill="#a6a6a6" d="M8.43 4.74H7.37V1.59h1.06zm0 4.21v3.17H7.37V8.95Zm0 4.74v1.58H7.37v-1.58Z"/>
    <path fill="#757575" d="M12.63 4.74q.22 0 .37.16.16.16.15.36h-2.1q0-.21.15-.36.16-.16.38-.16zm-1.05 4.21a.5.5 0 0 1-.38-.15.5.5 0 0 1-.15-.37h2.1a.5.5 0 0 1-.15.37.5.5 0 0 1-.37.15z"/>
    <path fill="#f03a17" d="M3.15 14.22q.01.22-.07.4-.1.2-.23.35-.15.13-.35.22a1.2 1.2 0 0 1-.8 0 1.1 1.1 0 0 1-.65-.97 1 1 0 0 1 .09-.4 1 1 0 0 1 .23-.34 1 1 0 0 1 .33-.24 1.2 1.2 0 0 1 .8 0 1 1 0 0 1 .57.57q.09.18.08.41m6.33.52q0-.2.07-.4.1-.19.23-.33.14-.15.33-.23a1 1 0 0 1 .83 0q.19.07.33.23.15.14.22.33.09.2.09.4a1 1 0 0 1-.09.42 1 1 0 0 1-.22.33q-.15.14-.33.23a1.2 1.2 0 0 1-.83 0 1 1 0 0 1-.33-.23 1 1 0 0 1-.22-.33 1 1 0 0 1-.08-.42"/>
  </g>
</svg>
