<?xml version="1.0" encoding="UTF-8" standalone="no"?>
<svg width="14.73" height="16.844999" viewBox="0 0 14.73 16.844999" version="1.1" xml:space="preserve"
    style="clip-rule:evenodd;fill-rule:evenodd;stroke-linejoin:round;stroke-miterlimit:2" id="svg20568"
    sodipodi:docname="emojis.svg" xmlns:inkscape="http://www.inkscape.org/namespaces/inkscape"
    xmlns:sodipodi="http://sodipodi.sourceforge.net/DTD/sodipodi-0.dtd" xmlns="http://www.w3.org/2000/svg"
    xmlns:svg="http://www.w3.org/2000/svg">
    <defs id="defs20572" />
    <sodipodi:namedview id="namedview20570" pagecolor="#505050" bordercolor="#eeeeee" borderopacity="1"
        inkscape:pageshadow="0" inkscape:pageopacity="0" inkscape:pagecheckerboard="0" />
    <g transform="matrix(0.24,0,0,0.24,-389.283,-834.249)" id="g20566">
        <g transform="matrix(62.5,0,0,62.5,1614.2,3533.1)" id="g17264">
            <path
                d="m 1.073,-0.421 v 0.175 h 0.034 c 0,0.026 -0.006,0.049 -0.018,0.071 -0.013,0.021 -0.03,0.038 -0.051,0.051 v 0.089 H 0.919 C 0.935,-0.021 0.947,-0.006 0.955,0.012 0.963,0.031 0.967,0.05 0.967,0.07 0.967,0.09 0.964,0.108 0.956,0.125 0.949,0.141 0.938,0.156 0.926,0.169 0.913,0.182 0.898,0.192 0.881,0.199 0.864,0.207 0.846,0.21 0.827,0.21 0.81,0.21 0.793,0.207 0.777,0.201 0.761,0.195 0.747,0.187 0.734,0.175 H 0.646 L 0.61,0.21 H 0.482 L 0.447,0.175 H 0.265 C 0.246,0.175 0.228,0.172 0.211,0.164 0.194,0.157 0.179,0.147 0.166,0.134 0.153,0.122 0.143,0.107 0.136,0.09 0.129,0.073 0.125,0.054 0.125,0.035 c 0,-0.019 0.004,-0.037 0.011,-0.054 0.008,-0.017 0.018,-0.032 0.031,-0.045 0.012,-0.013 0.027,-0.023 0.044,-0.03 0.017,-0.008 0.035,-0.011 0.054,-0.011 0.013,0 0.025,0.001 0.037,0.004 0.011,0.004 0.023,0.008 0.033,0.015 v -0.3 h 0.071 v -0.14 H 0.335 v -0.351 h 0.071 v -0.036 h 0.281 v 0.036 h 0.07 v 0.07 h 0.07 v -0.07 h 0.211 v 0.088 c 0.021,0.013 0.038,0.03 0.051,0.052 0.012,0.021 0.018,0.045 0.018,0.07 H 1.073 v 0.176 H 0.792 v 0.07 z"
                style="fill-rule:nonzero" id="path17248" />
            <path
                d="M 0.616,-0.842 V 0.105 L 0.581,0.14 H 0.511 L 0.476,0.105 V -0.842 Z M 0.406,0 0.462,0.07 H 0.265 V 0 Z"
                style="fill:#e5e5e5;fill-rule:nonzero" id="path17250" />
            <path
                d="m 0.476,-0.105 c -0.004,0 -0.009,-0.002 -0.012,-0.006 -0.004,-0.003 -0.006,-0.007 -0.006,-0.012 0,-0.005 0.002,-0.008 0.004,-0.011 0.003,-0.002 0.006,-0.005 0.01,-0.006 0.001,-10e-4 0.005,-0.002 0.013,-0.004 0.007,-0.002 0.016,-0.004 0.026,-0.007 0.011,-0.003 0.022,-0.006 0.033,-0.008 0.012,-0.003 0.023,-0.006 0.033,-0.008 0.01,-0.003 0.019,-0.005 0.026,-0.006 0.007,-0.002 0.011,-0.003 0.013,-0.003 0.005,0 0.009,0.002 0.012,0.006 0.004,0.003 0.006,0.007 0.006,0.012 0,0.005 -0.002,0.008 -0.004,0.011 C 0.627,-0.145 0.624,-0.143 0.621,-0.141 0.619,-0.14 0.614,-0.139 0.606,-0.136 0.599,-0.134 0.59,-0.132 0.58,-0.129 0.57,-0.127 0.559,-0.124 0.548,-0.121 0.536,-0.119 0.525,-0.116 0.515,-0.114 0.505,-0.111 0.497,-0.109 0.49,-0.108 0.482,-0.106 0.478,-0.105 0.476,-0.105 Z M 0.476,0 C 0.471,0 0.467,-0.002 0.464,-0.005 0.46,-0.009 0.458,-0.013 0.458,-0.018 c 0,-0.004 0.002,-0.008 0.004,-0.01 0.003,-0.003 0.006,-0.005 0.01,-0.007 0.001,0 0.005,-0.002 0.013,-0.004 0.007,-0.002 0.016,-0.004 0.026,-0.006 0.011,-0.003 0.022,-0.006 0.033,-0.009 0.012,-0.003 0.023,-0.005 0.034,-0.008 0.01,-0.002 0.019,-0.004 0.026,-0.006 0.007,-0.001 0.011,-0.002 0.012,-0.002 0.005,0 0.009,0.001 0.012,0.005 0.004,0.004 0.006,0.008 0.006,0.012 0,0.005 -0.001,0.008 -0.004,0.011 C 0.628,-0.039 0.625,-0.037 0.621,-0.036 0.619,-0.035 0.615,-0.034 0.607,-0.031 0.6,-0.029 0.591,-0.027 0.581,-0.024 0.571,-0.022 0.56,-0.019 0.548,-0.016 0.537,-0.013 0.526,-0.011 0.516,-0.008 0.506,-0.006 0.497,-0.004 0.49,-0.002 0.482,-0.001 0.478,0 0.476,0 Z m 0,-0.211 c -0.005,0 -0.009,-0.002 -0.012,-0.005 -0.004,-0.003 -0.006,-0.008 -0.006,-0.013 0,-0.004 0.002,-0.008 0.004,-0.01 0.003,-0.002 0.006,-0.004 0.01,-0.006 0.001,-0.001 0.006,-0.002 0.013,-0.004 0.008,-0.002 0.017,-0.005 0.027,-0.007 0.011,-0.003 0.022,-0.006 0.033,-0.009 0.012,-0.003 0.023,-0.005 0.033,-0.007 0.01,-0.003 0.018,-0.005 0.026,-0.006 0.007,-0.002 0.011,-0.003 0.012,-0.003 0.005,0 0.009,0.002 0.012,0.006 0.004,0.003 0.006,0.007 0.006,0.012 0,0.004 -0.001,0.008 -0.004,0.01 C 0.628,-0.25 0.625,-0.248 0.621,-0.246 0.619,-0.245 0.614,-0.244 0.607,-0.242 0.599,-0.24 0.591,-0.237 0.581,-0.235 0.57,-0.232 0.56,-0.23 0.548,-0.227 0.537,-0.224 0.526,-0.221 0.516,-0.219 0.506,-0.217 0.497,-0.215 0.49,-0.213 0.482,-0.212 0.478,-0.211 0.476,-0.211 Z m 0,0.316 C 0.471,0.105 0.467,0.103 0.464,0.1 0.46,0.096 0.458,0.092 0.458,0.087 0.458,0.083 0.46,0.079 0.462,0.077 0.464,0.074 0.467,0.072 0.472,0.071 0.474,0.07 0.479,0.069 0.486,0.067 0.494,0.065 0.503,0.062 0.513,0.06 0.523,0.057 0.534,0.054 0.545,0.051 0.557,0.048 0.567,0.046 0.577,0.043 0.587,0.041 0.596,0.039 0.603,0.037 0.61,0.036 0.615,0.035 0.616,0.035 c 0.005,0 0.009,0.002 0.012,0.006 0.004,0.003 0.006,0.007 0.006,0.012 0,0.005 -0.001,0.008 -0.004,0.01 C 0.628,0.066 0.625,0.068 0.621,0.069 0.618,0.07 0.613,0.072 0.605,0.074 0.598,0.076 0.589,0.078 0.579,0.081 0.569,0.084 0.558,0.086 0.547,0.089 0.536,0.092 0.525,0.094 0.515,0.097 0.505,0.099 0.497,0.101 0.49,0.103 0.483,0.104 0.478,0.105 0.476,0.105 Z m 0,-0.421 c -0.005,0 -0.009,-0.002 -0.012,-0.005 -0.004,-0.003 -0.006,-0.008 -0.006,-0.012 0,-0.005 0.002,-0.009 0.004,-0.011 0.003,-0.003 0.006,-0.005 0.01,-0.007 0.001,0 0.005,-0.002 0.013,-0.003 0.007,-0.002 0.016,-0.005 0.026,-0.008 0.011,-0.002 0.022,-0.005 0.033,-0.008 0.012,-0.003 0.023,-0.005 0.033,-0.008 0.01,-0.002 0.019,-0.004 0.026,-0.006 0.007,-0.001 0.011,-0.002 0.013,-0.002 0.005,0 0.009,0.001 0.012,0.005 0.004,0.003 0.006,0.007 0.006,0.012 0,0.005 -0.001,0.008 -0.004,0.011 C 0.628,-0.355 0.625,-0.353 0.621,-0.352 0.619,-0.351 0.615,-0.35 0.607,-0.347 0.6,-0.345 0.591,-0.343 0.581,-0.34 0.571,-0.338 0.56,-0.335 0.548,-0.332 0.537,-0.329 0.526,-0.326 0.516,-0.324 0.506,-0.322 0.497,-0.32 0.49,-0.318 0.482,-0.317 0.478,-0.316 0.476,-0.316 Z m 0,-0.105 C 0.472,-0.421 0.467,-0.423 0.464,-0.427 0.46,-0.43 0.458,-0.434 0.458,-0.439 c 0,-0.005 0.002,-0.008 0.004,-0.011 0.002,-0.002 0.005,-0.004 0.01,-0.006 0.002,-0.001 0.006,-0.002 0.014,-0.004 0.008,-0.002 0.017,-0.005 0.027,-0.007 0.01,-0.003 0.021,-0.006 0.032,-0.008 0.012,-0.003 0.022,-0.006 0.032,-0.008 0.01,-0.003 0.019,-0.005 0.026,-0.006 0.007,-0.001 0.012,-0.002 0.013,-0.002 0.005,0 0.009,0.001 0.013,0.005 0.003,0.003 0.005,0.007 0.005,0.012 0,0.005 -0.002,0.008 -0.004,0.011 C 0.627,-0.461 0.624,-0.459 0.621,-0.457 0.619,-0.456 0.614,-0.455 0.606,-0.452 0.599,-0.45 0.59,-0.448 0.58,-0.445 0.57,-0.443 0.559,-0.44 0.548,-0.437 0.536,-0.434 0.525,-0.432 0.515,-0.429 0.505,-0.427 0.497,-0.425 0.49,-0.424 0.482,-0.422 0.478,-0.421 0.476,-0.421 Z m 0,-0.105 C 0.471,-0.526 0.467,-0.528 0.464,-0.532 0.46,-0.535 0.458,-0.54 0.458,-0.544 c 0,-0.005 0.002,-0.008 0.004,-0.011 0.003,-0.002 0.006,-0.004 0.01,-0.006 0.001,-0.001 0.006,-0.002 0.013,-0.004 0.008,-0.002 0.017,-0.005 0.027,-0.007 0.011,-0.003 0.022,-0.006 0.033,-0.009 0.012,-0.002 0.023,-0.005 0.033,-0.007 0.01,-0.003 0.018,-0.005 0.026,-0.006 0.007,-0.002 0.011,-0.003 0.012,-0.003 0.005,0 0.009,0.002 0.012,0.006 0.004,0.003 0.006,0.007 0.006,0.012 0,0.004 -0.001,0.008 -0.004,0.011 C 0.628,-0.566 0.625,-0.564 0.621,-0.562 0.619,-0.561 0.615,-0.56 0.607,-0.558 0.6,-0.556 0.591,-0.553 0.581,-0.551 0.571,-0.548 0.56,-0.545 0.548,-0.542 0.537,-0.54 0.526,-0.537 0.516,-0.535 0.506,-0.532 0.497,-0.53 0.49,-0.529 0.482,-0.527 0.478,-0.526 0.476,-0.526 Z m 0,-0.246 C 0.471,-0.772 0.467,-0.774 0.464,-0.777 0.46,-0.781 0.458,-0.785 0.458,-0.79 c 0,-0.005 0.002,-0.008 0.004,-0.011 0.003,-0.002 0.006,-0.004 0.01,-0.006 0.002,-0.001 0.007,-0.002 0.014,-0.004 0.008,-0.002 0.017,-0.005 0.027,-0.007 0.01,-0.003 0.021,-0.006 0.032,-0.009 0.011,-0.003 0.022,-0.005 0.032,-0.007 0.01,-0.003 0.018,-0.005 0.026,-0.006 0.007,-0.002 0.011,-0.002 0.013,-0.002 0.005,0 0.009,0.002 0.012,0.005 0.004,0.004 0.006,0.008 0.006,0.012 0,0.005 -0.001,0.008 -0.004,0.011 -0.002,0.003 -0.005,0.005 -0.009,0.006 -0.002,0.001 -0.006,0.002 -0.014,0.004 -0.007,0.002 -0.016,0.005 -0.026,0.007 -0.011,0.003 -0.022,0.006 -0.034,0.009 -0.011,0.002 -0.022,0.005 -0.033,0.007 -0.01,0.003 -0.019,0.005 -0.026,0.007 -0.007,0.001 -0.011,0.002 -0.012,0.002 z"
                style="fill:#a6a6a6;fill-rule:nonzero" id="path17252" />
            <path
                d="m 0.616,-0.316 0.03,0.106 -0.03,0.105 H 0.476 L 0.438,-0.21 0.476,-0.316 Z m 0,-0.281 H 0.476 L 0.451,-0.702 0.476,-0.807 h 0.14 l 0.028,0.105 z M 0.616,0 0.643,0.053 0.616,0.105 H 0.476 L 0.44,0.053 0.476,0 Z m 0.281,-0.597 v -0.21 h 0.07 v 0.21 l -0.036,0.026 z m 0,0.281 0.033,-0.012 0.037,0.012 v 0.211 H 0.897 Z M 0.687,0.105 0.641,0.035 h 0.186 v 0.07 z m 0,-0.281 -0.027,-0.036 0.027,-0.034 h 0.07 l 0.028,0.034 -0.028,0.036 z m 0,-0.561 h 0.07 l 0.014,0.033 -0.014,0.037 H 0.687 L 0.663,-0.704 Z"
                style="fill:#cccccc;fill-rule:nonzero" id="path17254" />
            <path
                d="M 1.038,-0.667 C 1.02,-0.668 1.002,-0.668 0.985,-0.668 H 0.932 c -0.03,0 -0.059,0 -0.088,0 -0.028,0 -0.058,0.001 -0.087,0.001 v -0.07 h 0.21 c 0.01,0 0.019,0.002 0.028,0.005 0.008,0.004 0.015,0.009 0.022,0.015 0.006,0.007 0.011,0.014 0.015,0.023 0.004,0.008 0.006,0.017 0.006,0.027 z m 0,0.421 c 0,0.01 -0.002,0.019 -0.006,0.028 C 1.028,-0.21 1.023,-0.202 1.017,-0.196 1.01,-0.19 1.003,-0.185 0.995,-0.181 0.986,-0.178 0.977,-0.176 0.967,-0.176 h -0.21 v -0.07 c 0.029,0.001 0.059,0.001 0.087,0.001 0.029,0 0.058,0 0.088,0 h 0.053 c 0.017,0 0.035,0 0.053,-0.001 z m -0.562,-0.07 v 0.211 h -0.07 v -0.211 z m 0,-0.281 h -0.07 v -0.21 h 0.07 z M 0.476,0 V 0.105 H 0.406 V 0 Z"
                style="fill:#f2f2f2;fill-rule:nonzero" id="path17256" />
            <path
                d="M 0.687,-0.597 H 0.616 v -0.21 h 0.071 z m 0,0.281 v 0.211 H 0.616 V -0.316 Z M 0.687,0 V 0.105 H 0.616 V 0 Z"
                style="fill:#a6a6a6;fill-rule:nonzero" id="path17258" />
            <path
                d="m 0.967,-0.597 c 0.01,0 0.018,0.004 0.025,0.011 0.007,0.006 0.01,0.015 0.01,0.024 h -0.14 c 0,-0.009 0.003,-0.018 0.01,-0.024 0.007,-0.007 0.015,-0.011 0.025,-0.011 z m -0.07,0.281 c -0.01,0 -0.018,-0.003 -0.025,-0.01 -0.007,-0.007 -0.01,-0.015 -0.01,-0.025 h 0.14 c 0,0.01 -0.003,0.018 -0.01,0.025 -0.007,0.007 -0.015,0.01 -0.025,0.01 z"
                style="fill:#757575;fill-rule:nonzero" id="path17260" />
            <path
                d="M 0.335,0.035 C 0.335,0.045 0.334,0.054 0.33,0.062 0.326,0.071 0.321,0.078 0.315,0.085 0.308,0.091 0.301,0.096 0.292,0.1 0.284,0.103 0.275,0.105 0.265,0.105 0.255,0.105 0.246,0.103 0.238,0.1 0.229,0.096 0.222,0.091 0.216,0.085 0.209,0.078 0.204,0.071 0.201,0.062 0.197,0.054 0.195,0.045 0.195,0.035 c 0,-0.01 0.002,-0.019 0.006,-0.027 0.003,-0.009 0.008,-0.016 0.015,-0.022 0.006,-0.007 0.013,-0.012 0.022,-0.016 0.008,-0.003 0.017,-0.005 0.027,-0.005 0.01,0 0.019,0.002 0.027,0.005 0.009,0.004 0.016,0.009 0.023,0.016 0.006,0.006 0.011,0.013 0.015,0.022 0.004,0.008 0.005,0.017 0.005,0.027 z M 0.757,0.07 C 0.757,0.061 0.759,0.051 0.762,0.043 0.766,0.035 0.771,0.027 0.777,0.021 0.783,0.014 0.791,0.009 0.799,0.006 0.808,0.002 0.817,0 0.827,0 0.836,0 0.846,0.002 0.854,0.006 0.862,0.009 0.87,0.014 0.876,0.021 0.883,0.027 0.888,0.035 0.891,0.043 0.895,0.051 0.897,0.061 0.897,0.07 0.897,0.08 0.895,0.089 0.891,0.098 0.888,0.106 0.883,0.114 0.876,0.12 0.87,0.126 0.862,0.131 0.854,0.135 0.846,0.138 0.836,0.14 0.827,0.14 0.817,0.14 0.808,0.138 0.799,0.135 0.791,0.131 0.783,0.126 0.777,0.12 0.771,0.114 0.766,0.106 0.762,0.098 0.759,0.089 0.757,0.08 0.757,0.07 Z"
                style="fill:#f03a17;fill-rule:nonzero" id="path17262" />
        </g>
    </g>
</svg>