<svg xmlns="http://www.w3.org/2000/svg" xml:space="preserve" width="18.03" height="15.78" fill-rule="evenodd" stroke-linejoin="round" stroke-miterlimit="2" clip-rule="evenodd">
  <g fill-rule="nonzero">
    <path d="M9.54 0q.26-.01.53.07.25.07.48.21t.4.33q.19.2.3.44l6.78 14.73H0l6.77-14.7q.11-.26.3-.45.18-.2.4-.35t.5-.2q.25-.1.52-.08z"/>
    <path fill="#383838" d="M7.37 4.15h2.47l-2.1 9.42-2.67 1.16H1.64l4.12-8.96q.02 0 .12-.12l.27-.27.35-.36.37-.37.32-.32z"/>
    <path fill="#757575" d="m10.7 4.24 1.57 1.53 4.11 8.96H5.07l2.31-9.26L8.4 4.26z"/>
    <path fill="#f2f2f2" d="m5.76 5.77 1.97-4.26a1 1 0 0 1 .31-.34q.23-.13.45-.12l.58 2.49-1.69 1.92-.21-.15q-.13-.05-.27-.06a.5.5 0 0 0-.3.09l-.21.18a1 1 0 0 1-.24.18q-.14.08-.39.07"/>
    <path fill="#fff" d="M9.54 1.05q.22 0 .45.13.2.13.32.33l1.96 4.26q-.26.01-.39-.07a1 1 0 0 1-.24-.18l-.21-.18a1 1 0 0 0-.31-.08 1 1 0 0 0-.32.08l-.21.18-.22.18q-.12.08-.3.07-.21.01-.32-.07l-.21-.18-.21-.18a1 1 0 0 0-.31-.08 1 1 0 0 0-.3.08l-.23.18-.21.18q-.11.08-.31.07-.23.01-.34-.07l-.25-.23 1.11-4.42z"/>
  </g>
</svg>
