<?xml version="1.0" encoding="UTF-8" standalone="no"?>
<svg width="18.030001" height="15.78" viewBox="0 0 18.030001 15.78" version="1.1" xml:space="preserve"
  style="clip-rule:evenodd;fill-rule:evenodd;stroke-linejoin:round;stroke-miterlimit:2" id="svg20568"
  sodipodi:docname="emojis.svg" xmlns:inkscape="http://www.inkscape.org/namespaces/inkscape"
  xmlns:sodipodi="http://sodipodi.sourceforge.net/DTD/sodipodi-0.dtd" xmlns="http://www.w3.org/2000/svg"
  xmlns:svg="http://www.w3.org/2000/svg">
  <defs id="defs20572" />
  <sodipodi:namedview id="namedview20570" pagecolor="#505050" bordercolor="#eeeeee" borderopacity="1"
    inkscape:pageshadow="0" inkscape:pageopacity="0" inkscape:pagecheckerboard="0" />
  <g transform="matrix(0.24,0,0,0.24,-75.65244,-643.0908)" id="g20566">
    <g transform="matrix(62.5,0,0,62.5,307.406,2732.17)" id="g11998">
      <path
        d="m 0.761,-0.842 c 0.011,0 0.023,0.001 0.035,0.005 0.011,0.003 0.022,0.007 0.032,0.014 0.01,0.006 0.019,0.013 0.027,0.022 0.008,0.009 0.015,0.018 0.02,0.029 L 1.327,0.21 H 0.125 l 0.451,-0.98 c 0.005,-0.011 0.012,-0.021 0.02,-0.03 0.008,-0.009 0.017,-0.016 0.027,-0.023 0.01,-0.006 0.021,-0.011 0.033,-0.014 0.011,-0.004 0.023,-0.005 0.035,-0.005 z"
        style="fill-rule:nonzero" id="path11988" />
      <path
        d="M 0.616,-0.565 H 0.781 L 0.641,0.063 0.463,0.14 H 0.234 l 0.275,-0.597 c 0.001,0 0.003,-0.003 0.008,-0.008 C 0.522,-0.47 0.528,-0.476 0.535,-0.483 0.542,-0.49 0.55,-0.499 0.558,-0.507 0.567,-0.516 0.575,-0.524 0.583,-0.532 0.591,-0.54 0.598,-0.547 0.604,-0.553 0.61,-0.559 0.614,-0.563 0.616,-0.565 Z"
        style="fill:#383838;fill-rule:nonzero" id="path11990" />
      <path d="M 0.838,-0.559 0.943,-0.457 1.217,0.14 H 0.463 l 0.154,-0.617 0.068,-0.081 z"
        style="fill:#757575;fill-rule:nonzero" id="path11992" />
      <path
        d="M 0.509,-0.457 0.64,-0.741 c 0.005,-0.009 0.012,-0.017 0.021,-0.023 0.01,-0.006 0.02,-0.008 0.03,-0.008 L 0.73,-0.606 0.617,-0.478 C 0.613,-0.481 0.608,-0.485 0.603,-0.488 0.597,-0.49 0.592,-0.492 0.585,-0.492 c -0.008,0 -0.015,0.002 -0.02,0.006 -0.005,0.004 -0.01,0.008 -0.014,0.012 -0.005,0.005 -0.01,0.009 -0.016,0.012 -0.006,0.004 -0.015,0.005 -0.026,0.005 z"
        style="fill:#f2f2f2;fill-rule:nonzero" id="path11994" />
      <path
        d="m 0.761,-0.772 c 0.01,0 0.02,0.003 0.03,0.009 0.009,0.005 0.016,0.013 0.021,0.022 l 0.131,0.284 c -0.012,0 -0.02,-0.001 -0.026,-0.005 C 0.911,-0.465 0.906,-0.469 0.901,-0.474 0.897,-0.478 0.892,-0.482 0.887,-0.486 0.882,-0.489 0.875,-0.491 0.866,-0.491 c -0.009,0 -0.016,0.002 -0.021,0.005 -0.005,0.004 -0.01,0.008 -0.014,0.012 -0.005,0.005 -0.01,0.009 -0.015,0.012 -0.005,0.004 -0.012,0.005 -0.02,0.005 -0.009,0 -0.016,-0.001 -0.021,-0.005 C 0.77,-0.465 0.765,-0.469 0.761,-0.474 0.757,-0.478 0.752,-0.482 0.747,-0.486 0.742,-0.489 0.735,-0.491 0.726,-0.491 c -0.008,0 -0.015,0.002 -0.02,0.005 -0.005,0.004 -0.01,0.008 -0.015,0.012 -0.004,0.005 -0.009,0.009 -0.014,0.012 -0.005,0.004 -0.012,0.005 -0.021,0.005 -0.01,0 -0.017,-0.001 -0.022,-0.005 C 0.629,-0.466 0.623,-0.471 0.617,-0.477 l 0.074,-0.295 z"
        style="fill:#ffffff;fill-rule:nonzero" id="path11996" />
    </g>
  </g>
</svg>
