<?xml version="1.0" encoding="UTF-8" standalone="no"?>
<svg width="15.27" height="16.844999" viewBox="0 0 15.27 16.844999" version="1.1" xml:space="preserve"
    style="clip-rule:evenodd;fill-rule:evenodd;stroke-linejoin:round;stroke-miterlimit:2" id="svg20568"
    sodipodi:docname="emojis.svg" xmlns:inkscape="http://www.inkscape.org/namespaces/inkscape"
    xmlns:sodipodi="http://sodipodi.sourceforge.net/DTD/sodipodi-0.dtd" xmlns="http://www.w3.org/2000/svg"
    xmlns:svg="http://www.w3.org/2000/svg">
    <defs id="defs20572" />
    <sodipodi:namedview id="namedview20570" pagecolor="#505050" bordercolor="#eeeeee" borderopacity="1"
        inkscape:pageshadow="0" inkscape:pageopacity="0" inkscape:pagecheckerboard="0" />
    <g transform="matrix(0.24,0,0,0.24,-276.7542,-387.7938)" id="g20566">
        <g transform="matrix(62.5,0,0,62.5,1145.33,1672.87)" id="g7878">
            <path
                d="m 0.513,-0.876 c 0.059,0.003 0.115,0.013 0.169,0.031 0.054,0.018 0.104,0.042 0.151,0.071 0.047,0.03 0.089,0.065 0.127,0.106 0.038,0.04 0.071,0.084 0.098,0.132 0.027,0.049 0.048,0.1 0.062,0.155 0.015,0.055 0.023,0.112 0.023,0.171 0,0.038 -0.005,0.076 -0.015,0.112 -0.01,0.036 -0.024,0.069 -0.043,0.1 C 1.067,0.033 1.045,0.062 1.019,0.087 0.994,0.113 0.965,0.135 0.934,0.153 0.903,0.171 0.87,0.186 0.834,0.196 0.798,0.205 0.76,0.21 0.722,0.21 H 0.406 V 0.14 C 0.406,0.115 0.412,0.092 0.424,0.071 0.437,0.049 0.454,0.032 0.475,0.02 0.464,0.001 0.455,-0.019 0.449,-0.041 0.444,-0.062 0.441,-0.083 0.441,-0.105 H 0.406 C 0.387,-0.105 0.368,-0.109 0.351,-0.116 0.334,-0.124 0.319,-0.134 0.307,-0.146 0.294,-0.159 0.284,-0.174 0.276,-0.191 0.269,-0.208 0.265,-0.226 0.265,-0.246 c 0,-0.028 0.008,-0.054 0.023,-0.076 0.015,-0.022 0.035,-0.039 0.06,-0.052 L 0.376,-0.386 H 0.335 C 0.306,-0.386 0.279,-0.392 0.254,-0.403 0.228,-0.414 0.206,-0.429 0.187,-0.448 0.168,-0.467 0.153,-0.489 0.142,-0.515 0.131,-0.54 0.125,-0.568 0.125,-0.597 v -0.07 l 0.053,0.001 c 0.01,0 0.02,-0.001 0.029,-0.002 0.01,-0.001 0.019,-0.003 0.027,-0.007 C 0.243,-0.678 0.252,-0.684 0.26,-0.69 0.269,-0.697 0.278,-0.706 0.287,-0.718 0.28,-0.732 0.274,-0.746 0.271,-0.761 0.267,-0.776 0.265,-0.792 0.265,-0.807 v -0.07 h 0.106 v -0.036 l 0.07,0.036 v -0.036 z"
                style="fill-rule:nonzero" id="path7866" />
            <path
                d="m 0.31,-0.568 c 0,0.008 -0.003,0.015 -0.008,0.02 -0.006,0.005 -0.012,0.01 -0.02,0.013 -0.007,0.003 -0.015,0.005 -0.024,0.007 -0.008,0.001 -0.015,0.002 -0.021,0.002 -0.004,0 -0.008,-0.001 -0.012,-0.001 -0.004,0 -0.008,-0.001 -0.012,-0.002 C 0.207,-0.539 0.203,-0.55 0.2,-0.562 0.197,-0.573 0.195,-0.585 0.195,-0.597 c 0.024,0 0.047,-0.005 0.07,-0.015 z m 0.166,-0.274 c 0.013,0.006 0.027,0.013 0.04,0.021 0.014,0.007 0.027,0.014 0.041,0.019 0.005,0.003 0.01,0.004 0.014,0.003 0.004,0 0.008,0.001 0.014,0.002 0.005,0.001 0.01,0.001 0.013,0.002 0.004,0.001 0.008,0.002 0.013,0.003 0.001,0 0.001,0 0.001,0 0,0 0,0 0.001,0 0.036,0.009 0.071,0.021 0.104,0.036 0.054,0.024 0.103,0.055 0.147,0.092 0.044,0.038 0.081,0.08 0.112,0.128 0.031,0.047 0.055,0.099 0.072,0.154 0.016,0.056 0.025,0.113 0.025,0.172 0,0.027 -0.003,0.054 -0.01,0.081 C 1.057,-0.103 1.048,-0.077 1.036,-0.053 1.024,-0.03 1.009,-0.007 0.991,0.014 0.974,0.035 0.954,0.054 0.932,0.07 L 0.748,0.096 0.616,0.009 0.587,-0.085 0.578,-0.108 C 0.577,-0.111 0.576,-0.115 0.575,-0.119 0.574,-0.123 0.573,-0.127 0.572,-0.132 0.571,-0.145 0.569,-0.157 0.569,-0.167 0.568,-0.178 0.567,-0.189 0.567,-0.199 0.566,-0.209 0.566,-0.22 0.565,-0.23 0.565,-0.241 0.564,-0.253 0.563,-0.266 L 0.546,-0.535 0.388,-0.702 C 0.384,-0.707 0.38,-0.71 0.377,-0.713 0.373,-0.715 0.37,-0.719 0.366,-0.723 0.356,-0.735 0.348,-0.748 0.343,-0.762 0.338,-0.777 0.335,-0.792 0.335,-0.807 h 0.071 v -0.035 l 0.07,0.035 z"
                style="fill:#613d30;fill-rule:nonzero" id="path7868" />
            <path
                d="m 0.583,-0.095 v 0.004 c 0,0.006 0,0.013 0.002,0.02 0.002,0.008 0.004,0.014 0.006,0.02 C 0.598,-0.032 0.609,-0.015 0.624,0 0.638,0.015 0.655,0.028 0.673,0.038 0.692,0.049 0.712,0.056 0.732,0.062 0.753,0.068 0.773,0.07 0.792,0.07 h 0.14 C 0.902,0.093 0.868,0.11 0.833,0.122 0.797,0.134 0.76,0.14 0.722,0.14 H 0.476 C 0.476,0.13 0.478,0.121 0.481,0.113 0.485,0.104 0.49,0.097 0.496,0.091 0.503,0.084 0.51,0.079 0.519,0.076 0.527,0.072 0.536,0.07 0.546,0.07 H 0.687 C 0.666,0.07 0.647,0.065 0.628,0.053 0.609,0.042 0.593,0.028 0.578,0.01 0.564,-0.007 0.552,-0.026 0.543,-0.047 0.535,-0.067 0.53,-0.087 0.53,-0.106 c 0,-0.023 0.001,-0.047 0.002,-0.07 0.002,-0.023 0.003,-0.046 0.003,-0.07 H 0.441 c -0.008,0 -0.015,0.002 -0.019,0.005 -0.005,0.003 -0.008,0.007 -0.011,0.012 -0.002,0.005 -0.004,0.01 -0.004,0.016 -10e-4,0.006 -10e-4,0.012 -10e-4,0.019 v 0.018 c -0.01,0 -0.019,-0.002 -0.028,-0.005 C 0.37,-0.185 0.363,-0.19 0.356,-0.196 0.35,-0.202 0.345,-0.21 0.341,-0.218 0.337,-0.227 0.335,-0.236 0.335,-0.246 c 0,-0.014 0.004,-0.026 0.012,-0.038 0.007,-0.011 0.017,-0.02 0.03,-0.026 L 0.538,-0.382 C 0.534,-0.395 0.528,-0.406 0.518,-0.416 0.508,-0.425 0.497,-0.433 0.484,-0.439 0.472,-0.445 0.458,-0.449 0.444,-0.452 0.43,-0.455 0.417,-0.457 0.406,-0.457 H 0.335 C 0.323,-0.457 0.31,-0.458 0.298,-0.462 0.286,-0.465 0.274,-0.47 0.264,-0.476 0.253,-0.483 0.243,-0.49 0.234,-0.499 0.226,-0.508 0.218,-0.518 0.212,-0.53 0.223,-0.532 0.231,-0.536 0.238,-0.541 0.245,-0.546 0.251,-0.552 0.255,-0.56 0.259,-0.567 0.261,-0.575 0.263,-0.583 0.264,-0.592 0.265,-0.602 0.265,-0.611 0.28,-0.618 0.293,-0.626 0.304,-0.635 c 0.012,-0.009 0.022,-0.02 0.031,-0.032 0.018,-0.022 0.039,-0.039 0.062,-0.052 0.024,-0.012 0.05,-0.018 0.079,-0.018 0.016,0 0.031,0.002 0.046,0.008 0.014,0.005 0.027,0.012 0.04,0.021 0.012,0.01 0.022,0.021 0.031,0.033 0.008,0.013 0.014,0.027 0.018,0.042 0.002,0.005 0.003,0.01 0.004,0.016 0.001,0.005 0.001,0.011 0.001,0.016 v 0.004 z"
                style="fill:#f7d7c4;fill-rule:nonzero" id="path7870" />
            <path
                d="m 0.476,-0.457 c 0.019,0 0.037,-0.003 0.053,-0.01 0.017,-0.007 0.032,-0.017 0.044,-0.029 0.013,-0.012 0.023,-0.026 0.031,-0.042 0.007,-0.017 0.012,-0.034 0.012,-0.053 v 0.486 c 0,0.024 0.005,0.047 0.014,0.068 0.009,0.021 0.022,0.04 0.038,0.056 0.016,0.016 0.034,0.028 0.055,0.037 0.022,0.01 0.045,0.014 0.069,0.014 H 0.687 C 0.662,0.07 0.639,0.066 0.618,0.056 0.597,0.047 0.578,0.035 0.562,0.019 0.547,0.003 0.534,-0.016 0.525,-0.037 0.516,-0.058 0.511,-0.081 0.511,-0.105 v -0.246 c 0,-0.01 -0.002,-0.022 -0.005,-0.034 C 0.502,-0.396 0.496,-0.406 0.489,-0.415 0.48,-0.427 0.469,-0.437 0.455,-0.444 0.441,-0.452 0.426,-0.456 0.411,-0.457 Z"
                style="fill:#ffffff;fill-rule:nonzero" id="path7872" />
            <path
                d="m 0.862,-0.597 c 0.01,0 0.018,0.004 0.025,0.011 0.007,0.006 0.01,0.015 0.01,0.024 v 0.036 H 0.862 c -0.01,0 -0.018,-0.004 -0.025,-0.011 -0.007,-0.007 -0.01,-0.015 -0.01,-0.025 0,-0.009 0.003,-0.017 0.01,-0.024 0.007,-0.007 0.015,-0.011 0.025,-0.011 z m 0,0.14 c 0.009,0 0.017,0.004 0.024,0.011 0.007,0.007 0.011,0.015 0.011,0.025 v 0.035 H 0.862 c -0.01,0 -0.018,-0.004 -0.025,-0.011 -0.007,-0.007 -0.01,-0.015 -0.01,-0.024 0,-0.01 0.003,-0.018 0.01,-0.025 0.007,-0.007 0.015,-0.011 0.025,-0.011 z m 0,0.141 c 0.01,0 0.018,0.003 0.025,0.01 0.007,0.007 0.01,0.015 0.01,0.025 v 0.035 H 0.862 c -0.01,0 -0.018,-0.003 -0.025,-0.01 -0.007,-0.007 -0.01,-0.015 -0.01,-0.025 0,-0.009 0.003,-0.017 0.01,-0.024 0.007,-0.007 0.015,-0.011 0.025,-0.011 z m 0,0.14 c 0.009,0 0.017,0.004 0.024,0.011 0.007,0.007 0.011,0.015 0.011,0.024 v 0.036 H 0.862 c -0.01,0 -0.018,-0.004 -0.025,-0.011 -0.007,-0.007 -0.01,-0.015 -0.01,-0.025 0,-0.009 0.003,-0.017 0.01,-0.024 0.007,-0.007 0.015,-0.011 0.025,-0.011 z m 0.14,-0.21 c 0.01,0 0.019,0.003 0.025,0.01 0.007,0.007 0.011,0.015 0.011,0.025 v 0.035 H 1.002 c -0.009,0 -0.018,-0.003 -0.024,-0.01 -0.007,-0.007 -0.011,-0.015 -0.011,-0.025 0,-0.01 0.004,-0.018 0.011,-0.025 0.006,-0.007 0.015,-0.01 0.024,-0.01 z m 0,0.14 c 0.01,0 0.019,0.004 0.025,0.011 0.007,0.006 0.011,0.015 0.011,0.025 v 0.034 H 1.002 c -0.009,0 -0.017,-0.003 -0.024,-0.01 -0.007,-0.007 -0.011,-0.015 -0.011,-0.024 0,-0.01 0.004,-0.019 0.011,-0.025 0.006,-0.007 0.015,-0.011 0.024,-0.011 z M 0.967,-0.07 c 0.01,0 0.018,0.003 0.025,0.01 0.007,0.007 0.01,0.015 0.01,0.025 V 0 H 0.967 C 0.958,0 0.949,-0.003 0.942,-0.01 0.936,-0.017 0.932,-0.025 0.932,-0.035 c 0,-0.01 0.004,-0.018 0.01,-0.025 0.007,-0.007 0.016,-0.01 0.025,-0.01 z"
                style="fill:#bb9167;fill-rule:nonzero" id="path7874" />
            <path
                d="m 0.406,-0.667 c 0.01,0 0.018,0.003 0.025,0.01 0.006,0.007 0.01,0.015 0.01,0.025 v 0.035 c 0,0.01 -0.004,0.018 -0.01,0.025 -0.007,0.007 -0.015,0.01 -0.025,0.01 -0.01,0 -0.018,-0.003 -0.025,-0.01 -0.007,-0.007 -0.01,-0.015 -0.01,-0.025 v -0.035 c 0,-0.01 0.003,-0.018 0.01,-0.025 0.007,-0.007 0.015,-0.01 0.025,-0.01 z"
                style="fill-rule:nonzero" id="path7876" />
        </g>
    </g>
</svg>