<svg xmlns="http://www.w3.org/2000/svg" xml:space="preserve" width="15.27" height="16.84" fill-rule="evenodd" stroke-linejoin="round" stroke-miterlimit="2" clip-rule="evenodd">
  <g fill-rule="nonzero">
    <path d="M5.82.55q1.32.07 2.53.47 1.21.41 2.27 1.06 1.05.67 1.9 1.6a10 10 0 0 1 2.75 6.86 6.3 6.3 0 0 1-6.32 6.3H4.21V15.8A2 2 0 0 1 5.25 14q-.25-.42-.39-.91a4 4 0 0 1-.12-.96h-.53q-.43 0-.82-.17a2 2 0 0 1-.66-.45q-.3-.29-.47-.67a2.1 2.1 0 0 1 .18-1.97q.34-.49.9-.78l.42-.18h-.61q-.66 0-1.22-.25A3 3 0 0 1 .25 5.97Q.01 5.39 0 4.74V3.69l.8.01q.22 0 .43-.03.22-.01.4-.1.2-.08.4-.23t.4-.42q-.17-.3-.24-.64a3 3 0 0 1-.09-.69V.54h1.59V0l1.05.54V0z"/>
    <path fill="#613d30" d="M2.77 5.17q0 .19-.12.3-.13.12-.3.2-.15.06-.36.1l-.31.03-.18-.01-.18-.03a2 2 0 0 1-.2-.5 2 2 0 0 1-.07-.52q.53 0 1.05-.23zm2.5-4.1q.3.13.6.31.3.16.61.28.11.07.21.05l.21.03q.12 0 .2.03l.19.04h.03a9.1 9.1 0 0 1 6.52 6.15q.37 1.26.38 2.58 0 .61-.15 1.22a5.2 5.2 0 0 1-1.97 2.98l-2.76.4-1.98-1.31-.43-1.41-.14-.35-.04-.16-.05-.2-.04-.52-.03-.48-.03-.47-.03-.54-.26-4.03-2.37-2.5L3.78 3q-.08-.05-.17-.15a2 2 0 0 1-.46-1.26h1.06v-.53l1.05.53z"/>
    <path fill="#f7d7c4" d="M6.87 12.27v.06q0 .14.03.3l.09.3q.15.42.5.76.31.34.73.57.42.24.88.36.48.13.9.12h2.1a5.2 5.2 0 0 1-3.15 1.05H5.26q0-.22.08-.4a1.1 1.1 0 0 1 .97-.65h2.12q-.47.01-.89-.25a3 3 0 0 1-.75-.65 4 4 0 0 1-.52-.85q-.19-.45-.2-.89l.03-1.05q.05-.51.05-1.05H4.74a.5.5 0 0 0-.45.25l-.06.25q-.02.13-.02.28v.27a1 1 0 0 1-.42-.07 2 2 0 0 1-.33-.23 1 1 0 0 1-.22-.33 1 1 0 0 1 .09-.99q.15-.25.45-.39l2.41-1.08q-.08-.29-.3-.5a2 2 0 0 0-.5-.35 3 3 0 0 0-.6-.2q-.33-.06-.58-.07H3.15q-.28 0-.56-.08a2 2 0 0 1-.5-.2q-.25-.16-.46-.35a2 2 0 0 1-.33-.47 1 1 0 0 0 .65-.45q.08-.15.12-.34l.03-.42a3 3 0 0 0 1.05-.84q.4-.5.93-.78a3 3 0 0 1 1.18-.27q.36 0 .7.12.3.11.6.31.25.23.46.5a2.4 2.4 0 0 1 .34 1.11v.06z"/>
    <path fill="#fff" d="M5.26 6.84a2 2 0 0 0 1.46-.59q.29-.27.46-.63.17-.37.18-.79v7.29a2.6 2.6 0 0 0 .78 1.86 2.6 2.6 0 0 0 1.86.76H8.43q-.56 0-1.04-.2-.47-.2-.84-.56a3 3 0 0 1-.55-.84 3 3 0 0 1-.21-1.02V8.43q0-.23-.08-.51a2 2 0 0 0-.25-.45q-.2-.27-.51-.44a2 2 0 0 0-.66-.19Z"/>
    <path fill="#bb9167" d="M11.05 4.74q.22 0 .38.16.15.16.15.36v.54h-.53a.5.5 0 0 1-.37-.16.5.5 0 0 1-.15-.38q0-.2.15-.36t.37-.16m0 2.1a.5.5 0 0 1 .36.16q.17.16.17.38v.52h-.53a.5.5 0 0 1-.37-.16.5.5 0 0 1-.15-.36.5.5 0 0 1 .15-.38q.15-.16.37-.16m0 2.11a.5.5 0 0 1 .38.15q.15.16.15.38V10h-.53a.5.5 0 0 1-.37-.15.5.5 0 0 1-.15-.37q0-.21.15-.36.15-.16.37-.17m0 2.1a.5.5 0 0 1 .36.17q.17.15.17.36v.54h-.53a.5.5 0 0 1-.37-.17.5.5 0 0 1-.15-.37q0-.21.15-.36.15-.16.37-.17m2.1-3.15q.23 0 .38.15.16.16.16.38v.52h-.54a.5.5 0 0 1-.36-.15.5.5 0 0 1-.16-.37q0-.22.16-.38.16-.15.36-.15m0 2.1q.23 0 .38.17.16.14.16.37v.51h-.54a.5.5 0 0 1-.36-.15.5.5 0 0 1-.16-.36q0-.23.16-.37.16-.16.36-.17m-.52 2.64a.5.5 0 0 1 .37.15q.16.16.15.38v.52h-.52a.5.5 0 0 1-.38-.15.6.6 0 0 1-.15-.37q0-.22.15-.38.17-.15.38-.15"/>
    <path d="M4.21 3.69a.5.5 0 0 1 .38.15q.14.15.15.37v.53q0 .22-.15.37a.5.5 0 0 1-.38.15.5.5 0 0 1-.37-.15.5.5 0 0 1-.15-.37v-.53a.5.5 0 0 1 .15-.37.5.5 0 0 1 .37-.15"/>
  </g>
</svg>
