<svg display="none">
    <defs>
        <g id="img-netlify">
            <radialGradient xmlns="http://www.w3.org/2000/svg" id="a" cy="0%" r="100.1%"
                gradientTransform="matrix(0 .9989 -1.152 0 .5 -.5)">
                <stop offset="0" stop-color="#20c6b7" />
                <stop offset="1" stop-color="#4d9abf" />
            </radialGradient>
            <path xmlns="http://www.w3.org/2000/svg" fill="url(#a)"
                d="m28.6 14.1.7-4.8 3.6 3.6-3.7 1.6h-.2a1.7 1.7 0 0 0 -.5-.4zm5.2-.3 4 4c.7.7 1.1 1.1 1.3 1.6v.2l-9.2-4h-.1zm5.2 7a7 7 0 0 1 -1.3 1.5l-4.3 4.3-5.7-1.1-.1-.1a1.7 1.7 0 0 0 -.7-1.2v-.2l1-6.5.1-.2a1.7 1.7 0 0 0 1.2-.6h.1l9.7 4zm-6.7 6.9-7.1 7.1 1.2-7.5v-.1a1.9 1.9 0 0 0 .8-.5zm-8.7 8.7-.8.8-9-13v-.2l.1-.1.1-.1h.1l10 2v.1a1.8 1.8 0 0 0 1 1.2.2.2 0 0 0 0 .1l-1.5 9zm-1.6 1.6c-.6.6-1 1-1.4 1a2 2 0 0 1 -1.2 0c-.5 0-.9-.5-1.7-1.3l-9-9 2.4-3.6h.1a2.4 2.4 0 0 0 1.6-.1h.1l9 13zm-14.1-10-2.1-2.1 4-1.7h.1a3 3 0 0 0 .2.2l-2.1 3.6zm-3-3-2.6-2.6-1-1 8 1.6v.1l-4.5 1.9zm-4-5a2 2 0 0 1 0-.5c.2-.5.6-.9 1.4-1.7l3.3-3.3a2175.5 2175.5 0 0 0 4.6 6.7s.1 0 0 0l-.3.6h-.1l-9-1.8zm5.6-6.4 4.5-4.6 3.3 1.4 2.3 1c.1 0 0 0 0 .1a2 2 0 0 0 .6 1.8v.1l-4.6 7.1h-.1a2.3 2.3 0 0 0 -.6 0 3 3 0 0 0 -.5 0l-4.9-7zm5.5-5.6 5.8-5.8c.7-.7 1.2-1.2 1.6-1.3a2 2 0 0 1 1.2 0c.5.2.9.6 1.7 1.4l1.2 1.2-4.1 6.4c0 .1-.1.1-.1 0a2.1 2.1 0 0 0 -2 .5l-5.5-2.4zm12.5-3.7 3.8 3.8-.9 5.7v.1a1.8 1.8 0 0 0 -.6.3.1.1 0 0 1 -.1 0l-5.9-2.2-.1-.1a2.2 2.2 0 0 0 -.3-1l4-6.4zm-4 8.6 5.5 2.3h.1a.1.1 0 0 1 0 .1v.5h-.1l-12.1 5.2h-.1l4.5-7h.5a2 2 0 0 0 1.7-1zm-6.2 9.2 12.2-5.1.2.1.1.1-1 6.5-.1.1a1.7 1.7 0 0 0 -1.4.9h-.1l-9.8-2-.2-.5z" />
        </g>
        <g id="img-cf-logomark">
            <path xmlns="http://www.w3.org/2000/svg" fill="#f4801f"
                d="m143.05 93.42 1.07-3.71c1.27-4.41.8-8.48-1.34-11.48-2-2.76-5.26-4.38-9.25-4.57l-75.53-.96a1.47 1.47 0 0 1 -1.35-2 2 2 0 0 1 1.75-1.34l76.26-1c9-.41 18.84-7.75 22.27-16.71l4.34-11.36a2.68 2.68 0 0 0 .18-1 3.31 3.31 0 0 0 -.06-.54 49.67 49.67 0 0 0 -95.49-5.14 22.35 22.35 0 0 0 -35 23.42 31.73 31.73 0 0 0 -30.56 36.42 1.47 1.47 0 0 0 1.45 1.27h139.49a1.83 1.83 0 0 0 1.77-1.3z" />
            <path xmlns="http://www.w3.org/2000/svg" fill="#f9ab41"
                d="m168.22 41.15q-1 0-2.1.06a.88.88 0 0 0 -.32.07 1.17 1.17 0 0 0 -.76.8l-3 10.26c-1.28 4.41-.81 8.48 1.34 11.48a11.65 11.65 0 0 0 9.24 4.57l16.11 1a1.44 1.44 0 0 1 1.14.62 1.5 1.5 0 0 1 .17 1.37 2 2 0 0 1 -1.75 1.34l-16.73 1c-9.09.42-18.88 7.75-22.31 16.7l-1.21 3.16a.9.9 0 0 0 .79 1.22h57.63a1.55 1.55 0 0 0 1.54-1.17 41.34 41.34 0 0 0 -39.76-52.48z" />
        </g>
        <g id="img-vercel">
            <path xmlns="http://www.w3.org/2000/svg" fill="#000000" d="M37.5274 0L75.0548 65H0L37.5274 0Z" />
        </g>
        <g id="img-node">
            <path xmlns="http://www.w3.org/2000/svg" fill="#539E43"
                d="M128 289c-4 0-8-2-11-3l-35-21c-6-3-3-4-1-5l16-7h2l27 16h3l106-61c1 0 2-1 2-3V83l-2-3-106-61h-3L20 80l-1 3v122l1 3 29 17c16 8 26-1 26-11V94c0-2 1-3 3-3h13c2 0 4 1 4 3v120c0 21-12 33-32 33-6 0-11 0-24-6l-28-16a22 22 0 0 1-11-19V83c0-8 4-15 11-19L117 3a24 24 0 0 1 22 0l106 61c7 4 11 11 11 19v123c0 8-4 15-11 19l-106 61a27 27 0 0 1-11 2Zm33-84c-47 0-56-22-56-40 0-1 1-3 3-3h14c1 0 3 1 3 3 2 14 8 21 36 21 22 0 32-5 32-17 0-7-3-12-38-16-29-3-47-9-47-32 0-22 18-34 49-34 34 0 50 11 52 37v2l-3 1h-13c-2 0-3-1-3-2-3-15-12-19-33-19-25 0-28 8-28 14 0 8 4 10 37 15 32 4 48 10 48 33-1 23-20 36-53 36Z" />
        </g>
        <g id="img-deno">
            <path xmlns="http://www.w3.org/2000/svg" d="m2560 0a2560 2560 0 1 1 0 5120 2560 2560 0 0 1 0-5120z" />
            <path xmlns="http://www.w3.org/2000/svg" fill="#fff"
                d="m2460 1449c-744 0-1324 469-1324 1052 0 550 533 901 1359 884l25-1 91-3-23 60 3 6a668 668 0 0 1 18 47l2 6 3 10 4 14 3 9 4 10 3 11 4 16 5 17 3 11 5 18 5 19 4 19 5 20 4 14 5 22 5 22 7 30 3 16 5 24 5 25 6 26 7 37 6 30 8 42 4 21 7 33 6 34 8 46 9 48 8 50 9 51 9 52 9 54 9 56 7 43 11 73 5 30 12 77 9 63 8 48 9 66 5 33c549-73 1037-339 1393-728l11-12-51-190-135-505-84-314-74-276-46-168-29-106-17-64-16-56-6-24-4-13-2-7-2-6c-78-251-229-473-435-634-242-189-549-288-907-288zm-654 2669c-65-18-133 20-152 85l-1 3-112 416a2287 2287 0 0 0 215 93l17 7 121-451 1-3c16-66-23-133-89-150zm697-305c-66-18-134 20-153 85l-1 3-170 630v3a125 125 0 0 0 241 65l1-3 170-630v-3l3-14 1-5-4-21-6-29-4-18a125 125 0 0 0 -78-63zm-1185-649-8 19-1 4-170 630-1 3a125 125 0 0 0 241 66l1-3 154-572c-80-42-153-92-216-147zm-405-725c-66-17-134 21-153 85l-1 3-170 630v3a125 125 0 0 0 241 66l1-3 170-630v-3c16-66-23-133-88-151zm3811-143c-65-17-133 21-152 85l-1 3-170 630-1 3a125 125 0 0 0 242 66v-3l171-630v-4c16-65-23-132-89-150zm-4182-841a2284 2284 0 0 0 -267 838 124 124 0 0 0 62 38c65 17 133-21 152-85l1-3 170-630 1-3c16-66-23-133-89-151a127 127 0 0 0 -30-4zm3752 4c-66-17-133 21-153 85v3l-170 630-1 3a125 125 0 0 0 241 66l1-3 170-630 1-3c16-66-24-133-89-151z" />
            <path xmlns="http://www.w3.org/2000/svg" d="m2620 1870a160 160 0 1 1 0 320 160 160 0 0 1 0-320z" />
            <path xmlns="http://www.w3.org/2000/svg" fill="#fff"
                d="m1282 860c-65-17-133 21-152 85l-1 3-170 630-1 3a125 125 0 0 0 241 66l1-3 170-630 1-4c16-65-23-132-89-150zm2185 119c-66-17-134 21-153 85l-1 3-114 424a1399 1399 0 0 1 211 128l11 9 134-495v-3c16-66-23-133-88-151zm-1112-710a2299 2299 0 0 0 -238 34l-17 3-158 587-1 3a125 125 0 0 0 241 65l1-3 170-630 1-3a124 124 0 0 0 1-56zm1564 435-33 124-1 3a125 125 0 0 0 241 65l1-3 4-13a2312 2312 0 0 0 -197-165zm-989-414-60 223-1 3a125 125 0 0 0 241 65l1-3 63-235a2286 2286 0 0 0 -226-50z" />
        </g>
    </defs>
</svg>