<svg xmlns="http://www.w3.org/2000/svg" viewBox="-300 -300 600 600" style="--arc-background-gradient-color1:#17011EFF; --arc-background-gradient-color0:#01021EFF; --arc-palette-maxContrastColor:#ECEDFEFF; --arc-palette-minContrastColor:#212AFBFF; --arc-palette-foregroundTertiary:#3139FBFF; --arc-palette-focus:#4D54FBCE; --arc-palette-foregroundSecondary:#8489FBFF; --arc-palette-hover:#5D64FB7A; --arc-palette-cutoutColor:#212AFBFF; --arc-palette-subtitle:#797A82F9; --arc-palette-backgroundExtra:#050727F4; --arc-palette-foregroundPrimary:#ECEDFEFF; --arc-palette-background:#0A0D4EF6; --arc-palette-title:#DCDEFDF4;">
    <g transform="scale(1 -1)">
        <polygon fill="rgba(18, 147, 216, 1)" points="-280,-90 0,190 280,-90" transform="translate(0 -210) rotate(0)"/>
        <polygon fill="rgba(18, 147, 216, 1)" points="-280,-90 0,190 280,-90" transform="translate(-210 0) rotate(-90)"/>
        <polygon fill="rgba(18, 147, 216, 0.75)" points="-198,-66 0,132 198,-66" transform="translate(207 207) rotate(-45)"/>
        <polygon fill="rgba(18, 147, 216, 1)" points="-130,0 0,-130 130,0 0,130" transform="translate(150 0) rotate(0)"/>
        <polygon fill="rgba(18, 147, 216, 0.75)" points="-191,61 69,61 191,-61 -69,-61" transform="translate(-89 239) rotate(0)"/>
        <polygon fill="rgba(18, 147, 216, 0.75)" points="-130,-44 0,86  130,-44" transform="translate(0 106) rotate(-180)"/>
        <polygon fill="rgba(18, 147, 216, 0.75)" points="-130,-44 0,86  130,-44" transform="translate(256 -150) rotate(-270)"/>
    </g>
</svg>