<?xml version="1.0" encoding="UTF-8"?>
<svg xmlns="http://www.w3.org/2000/svg" width=".889in" height=".889in"
    xmlns:xlink="http://www.w3.org/1999/xlink" viewBox="0 0 64 64">
    <defs>
        <linearGradient id="b" x1="11.24" y1="31.999" x2="50.507" y2="31.999" gradientUnits="userSpaceOnUse">
            <stop offset="0" stop-color="#fb410a" />
            <stop offset="1" stop-color="#fb2914" />
        </linearGradient>
    </defs>
    <g isolation="isolate">
        <g id="a">
            <path
                d="m54.163,26.131c1.805-2.007,2.741-4.513,2.545-6.961-.231-2.898-2.038-5.691-5.087-7.863h0c-.381-.271-.772-.526-1.172-.767-.358-1.514-1.136-2.867-1.811-3.828-1.059-1.508-2.404-2.833-3.689-3.635-2.34-1.461-4.933-2.2-7.18-2.778-1.255-.323-2.308-.251-3.238-.188-.632.043-1.177.08-1.757-.004-2.561-.371-5.209.223-7.659,1.717-2.168,1.322-4.069,3.307-5.354,5.588-1.746,3.101-2.503,6.573-2.894,9.913-.546.069-1.172.074-1.817.079-1.895.014-4.254.031-5.93,1.877-1.45,1.597-1.524,3.718-1.573,5.121-.183,5.238-.372,10.653-.232,16.016.081,3.119.481,6.305,2.829,8.477,1.817,1.679,4.181,2.114,6.314,2.114.223,0,.443-.005.66-.014.143,1.4.301,2.797.477,4.191.224,1.784.505,3.517,1.461,5.095,1.399,2.307,4.069,3.72,6.819,3.72.476,0,.954-.042,1.428-.13,3.249-.598,5.924-3.165,6.657-6.386.35-1.54.235-3.067.133-4.414-.044-.578-.086-1.14-.092-1.676.689-.004,1.502-.013,2.382-.028-.566,3.151.465,6.504,2.836,8.552,1.44,1.243,3.352,1.926,5.343,1.926.268,0,.538-.012.808-.037,2.165-.201,4.048-1.177,5.302-2.748,1.382-1.732,1.835-3.823,2.179-5.817,1.546-8.941,1.997-18.062,1.342-27.112l-.029.002Z" />
            <path
                d="m50.495,32.662c-.017-1.234-.056-2.468-.116-3.701-1.423.719-3.084,1.285-5.064,1.731-1.869.421-3.582.632-5.161.632-1.471,0-2.826-.182-4.085-.546-3.956-1.146-7.247-4.275-8.592-8.167-1.045-3.024-.893-6.465.418-9.44,1.424-3.234,4.953-4.176,7.061-4.739,3.263-.871,6.679-.901,9.879-.155-.629-.761-1.339-1.42-1.991-1.828-1.86-1.161-4.106-1.795-6.066-2.3-.634-.163-1.228-.123-1.978-.071-.749.051-1.598.108-2.597-.036-3.799-.55-7.319,2.374-8.98,5.322-.086.154-.17.308-.251.465-1.826,3.531-2.227,7.715-2.477,11.711-.688,11.032-.338,22.186,1.04,33.152.175,1.393.365,2.62.917,3.529.778,1.284,2.553,2.033,4.129,1.742,1.655-.305,3.128-1.717,3.501-3.359.218-.957.134-2.063.045-3.234-.101-1.34-.216-2.859.128-4.391.197-.88.963-1.516,1.865-1.55l.065-.003c.027,0,.052-.002.079-.002,1.601.004,9.565-.095,13.428-.41,0,0-1.969,3.75-5.184,4.231-.68,1.989-.163,4.396,1.305,5.664.808.698,2.001,1.049,3.187.939,1.063-.099,1.998-.561,2.564-1.269.796-.997,1.102-2.468,1.369-4.014,1.135-6.569,1.657-13.239,1.561-19.903Zm-34.183-7.032c.055-1.43.126-2.859.215-4.285-.493.028-.98.031-1.449.035-1.563.011-2.545.055-3.016.574-.472.52-.515,1.764-.545,2.588-.015.438-.03.877-.046,1.317-.163,4.766-.31,9.659-.185,14.457.059,2.249.288,4.491,1.555,5.662.942.871,2.371,1.094,3.917,1.05-.568-7.113-.717-14.272-.446-21.397Z"
                fill="url(#b)" />
            <path
                d="m52.721,20.378c-.187,1.386-1.031,2.812-2.336,3.881-1.399,1.146-3.287,1.957-5.943,2.556-2.981.671-5.29.716-7.268.144-2.735-.793-5.012-2.956-5.941-5.647-.722-2.088-.613-4.472.297-6.541.093-.212.21-.428.406-.652.502-.569,1.528-1.177,4.043-1.848,1.395-.372,2.825-.555,4.243-.555,3.275,0,6.489.974,9.09,2.827,2.802,1.996,3.353,3.954,3.432,4.944.023.293.014.592-.026.891Z"
                fill="#a2d2e2" />
            <path
                d="m16.759,47.026c-1.546.044-2.975-.179-3.917-1.05-1.267-1.171-1.496-3.413-1.555-5.662-.125-4.798.021-9.691.185-14.457,1.436-.596,3.175-.505,4.841-.227-.271,7.125-.122,14.284.446,21.397Zm33.737-14.365c-1.11,4.107-4.014,7.744-7.921,9.435-5.12,2.217-11.653.791-15.195-3.521-2.268-2.761-3.237-6.353-3.856-9.873-1.094-6.222-1.277-12.602-.549-18.877-1.826,3.531-2.227,7.715-2.477,11.711-.688,11.032-.338,22.186,1.04,33.152.175,1.393.365,2.62.917,3.529.778,1.284,2.553,2.033,4.129,1.742,1.655-.305,3.128-1.717,3.501-3.359.218-.957.134-2.063.045-3.234-.101-1.34-.216-2.859.128-4.391.197-.88.963-1.516,1.865-1.55l.065-.003c.027,0,.052-.002.079-.002,1.601.004,9.565-.095,13.428-.41,0,0-1.969,3.75-5.184,4.231-.68,1.989-.163,4.396,1.305,5.664.808.698,2.001,1.049,3.187.939,1.063-.099,1.998-.561,2.564-1.269.796-.997,1.102-2.468,1.369-4.014,1.135-6.569,1.657-13.239,1.561-19.903Z"
                fill="#9f2a08" mix-blend-mode="multiply" opacity=".5" />
            <path
                d="m52.721,20.378c-.187,1.386-1.031,2.812-2.336,3.881-1.399,1.146-3.287,1.957-5.943,2.556-2.981.671-5.29.716-7.268.144-2.735-.793-5.012-2.956-5.941-5.647-.722-2.088-.613-4.472.297-6.541.093-.212.21-.428.406-.652.525.788.92,2.85,1.286,3.46.768,1.273,1.861,2.359,3.13,3.133,2.678,1.632,5.981,1.982,9.093,1.587,2.493-.317,4.901-1.076,7.274-1.921Z"
                fill="#5b7881" mix-blend-mode="multiply" opacity=".45" />
            <path
                d="m40.144,16.951c-.505-.184-.952-.631-.968-1.168-.024-.781.799-1.298,1.539-1.548,2.086-.703,4.424-.626,6.459.213.58.239,1.207.638,1.264,1.263.064.698-.662,1.247-1.359,1.32-.697.073-1.383-.172-2.074-.285-1.602-.262-3.214.807-4.861.206Z"
                fill="#fff" />
        </g>
    </g>
</svg>